# Blender 5.0.0
# www.blender.org
mtllib stargate_movie_origin_default.mtl
o ringorigin_default
v -0.000000 4.078362 0.083659
v -0.054753 4.077995 0.083659
v -0.109496 4.076892 0.083659
v -0.164219 4.075055 0.083659
v -0.218913 4.072483 0.083659
v -0.273567 4.069178 0.083659
v 0.273567 4.069178 0.083659
v 0.218913 4.072483 0.083659
v 0.164219 4.075055 0.083659
v 0.109496 4.076892 0.083659
v 0.054753 4.077995 0.083659
v -0.060474 4.504101 0.142119
v -0.000000 4.504506 0.142119
v -0.120937 4.502882 0.142119
v -0.181378 4.500854 0.142119
v -0.241787 4.498013 0.142119
v -0.302152 4.494361 0.142119
v 0.302152 4.494361 0.142119
v 0.241787 4.498013 0.142119
v 0.181378 4.500854 0.142119
v 0.120937 4.502882 0.142119
v 0.060474 4.504101 0.142119
v -0.300869 4.067158 0.083659
v 0.355445 4.062752 0.083659
v 0.300869 4.067158 0.083659
v -0.332307 4.492131 0.142119
v 0.392585 4.487264 0.142119
v 0.332307 4.492131 0.142119
v 0.303495 4.066963 0.083659
v 0.335207 4.491916 0.142119
v 0.353514 4.062921 0.083659
v 0.390452 4.487451 0.142119
v 0.324750 4.065276 0.083659
v 0.358683 4.490052 0.142119
v 0.331572 4.064725 0.083659
v 0.366217 4.489444 0.142119
v 0.346921 4.063486 0.083659
v 0.383170 4.488075 0.142119
v 0.310253 4.066446 0.083659
v 0.342671 4.491345 0.142119
v 0.353604 4.064039 0.075486
v 0.355535 4.063869 0.075486
v 0.390543 4.488568 0.133946
v 0.392675 4.488381 0.133946
v 0.300960 4.068275 0.075486
v 0.332397 4.493248 0.133946
v 0.303586 4.068081 0.075486
v 0.335298 4.493034 0.133946
v 0.310343 4.067564 0.075486
v 0.324840 4.066394 0.075486
v 0.342761 4.492463 0.133946
v 0.358773 4.491170 0.133946
v 0.331662 4.065843 0.075486
v 0.366307 4.490561 0.133946
v 0.347011 4.064604 0.075486
v 0.383261 4.489193 0.133946
v -0.016515 4.375571 0.124447
v -0.022265 4.384095 0.125621
v 0.002237 4.331661 0.108679
v -0.084520 4.185078 0.088515
v -0.115338 4.156376 0.084567
v -0.037428 4.156801 0.084625
v -0.063835 4.182146 0.088112
v 0.001276 4.297522 0.103983
v 0.070482 4.183076 0.088240
v 0.042279 4.155617 0.084462
v 0.119707 4.156522 0.084587
v 0.091031 4.181641 0.088042
v -0.007911 4.371190 0.114117
v 0.002238 4.369191 0.113842
v -0.022265 4.385408 0.116073
v -0.016515 4.376884 0.114901
v -0.022265 4.405517 0.118839
v -0.024284 4.395462 0.117456
v -0.007914 4.419736 0.120795
v -0.016517 4.414040 0.120012
v 0.012384 4.419737 0.120796
v 0.002235 4.421736 0.121071
v 0.026737 4.405519 0.118840
v 0.020987 4.414042 0.120012
v 0.026738 4.385411 0.116074
v 0.028756 4.395465 0.117457
v 0.012386 4.371192 0.114117
v 0.020990 4.376887 0.114901
v -0.018423 4.346044 0.110658
v 0.002239 4.341974 0.110098
v -0.047646 4.374991 0.114640
v -0.035941 4.357638 0.112253
v -0.047648 4.415931 0.120272
v -0.051757 4.395461 0.117456
v -0.018429 4.444880 0.124254
v -0.035944 4.433285 0.122659
v 0.022896 4.444883 0.124255
v 0.002233 4.448953 0.124815
v 0.052118 4.415936 0.120273
v 0.040413 4.433289 0.122660
v 0.052121 4.374997 0.114641
v 0.056230 4.395467 0.117457
v 0.022901 4.346046 0.110658
v 0.040417 4.357643 0.112254
v 0.091031 4.180300 0.097791
v 0.111596 4.155077 0.094389
v 0.111785 4.162112 0.095354
v 0.070482 4.181743 0.097933
v 0.055779 4.154445 0.094148
v 0.055956 4.167604 0.095953
v 0.056457 4.204942 0.101076
v 0.056901 4.237980 0.105608
v 0.040417 4.356326 0.121829
v 0.042279 4.154289 0.094114
v 0.056230 4.394150 0.127032
v 0.052121 4.373679 0.124220
v 0.052118 4.414620 0.129836
v 0.002233 4.447646 0.134321
v 0.002237 4.330347 0.118229
v 0.001276 4.296206 0.113545
v 0.012386 4.369878 0.123662
v 0.002239 4.340661 0.119644
v 0.002238 4.367879 0.123378
v 0.012384 4.418427 0.130322
v 0.002235 4.420427 0.130587
v 0.020990 4.375573 0.124451
v 0.028756 4.394151 0.127007
v 0.040413 4.431975 0.132207
v 0.022901 4.344731 0.120222
v 0.026738 4.384097 0.125626
v 0.026737 4.404206 0.128384
v 0.020987 4.412730 0.129549
v 0.022896 4.443572 0.133781
v -0.037428 4.155474 0.094272
v -0.018423 4.344729 0.120217
v -0.007914 4.418426 0.130318
v -0.007911 4.369878 0.123658
v -0.051757 4.394144 0.127027
v -0.056802 4.230585 0.104594
v -0.035941 4.356321 0.121824
v -0.047646 4.373674 0.124215
v -0.055792 4.155372 0.094275
v -0.056033 4.173329 0.096738
v -0.056312 4.194149 0.099595
v -0.047648 4.414616 0.129832
v -0.035944 4.431972 0.132202
v -0.024284 4.394149 0.127002
v -0.016517 4.412729 0.129544
v -0.018429 4.443571 0.133777
v -0.022265 4.404204 0.128380
v -0.084520 4.183740 0.098245
v -0.063835 4.180815 0.097787
v -0.111595 4.155047 0.094384
v -0.111686 4.158428 0.094848
v -0.115338 4.155024 0.094398
v 0.119707 4.155167 0.094438
vn 0.9962 -0.0866 -0.0008
vn -0.0100 -0.1355 0.9907
vn 0.0064 -0.1358 0.9907
vn 0.0082 -0.1357 0.9907
vn 0.0100 -0.1355 0.9907
vn -0.0082 -0.1357 0.9907
vn -0.0064 -0.1358 0.9907
vn -0.0109 -0.1355 0.9907
vn -0.0116 -0.1354 0.9907
vn -0.9964 0.0850 0.0006
vn -0.0104 -0.1355 0.9907
vn -0.9972 0.0745 -0.0008
vn -0.0119 -0.1354 0.9907
vn 0.9967 -0.0813 -0.0001
vn 0.9973 -0.0739 0.0009
vn -0.9962 0.0870 0.0009
vn -0.9968 0.0796 -0.0001
vn 0.9971 -0.0762 0.0006
vn -0.0000 -0.1363 0.9907
vn -0.0027 -0.1359 0.9907
vn -0.0009 -0.1359 0.9907
vn 0.0009 -0.1359 0.9907
vn 0.0027 -0.1359 0.9907
vn 0.0046 -0.1358 0.9907
vn -0.0046 -0.1358 0.9907
vn -0.9239 -0.3792 -0.0522
vn -0.7071 -0.7005 -0.0964
vn -0.3827 -0.9152 -0.1259
vn 0.0001 -0.9907 -0.1363
vn 0.3828 -0.9152 -0.1259
vn -0.9239 0.3790 0.0521
vn -1.0000 -0.0000 -0.0000
vn -1.0000 -0.0001 -0.0000
vn -0.9239 -0.3791 -0.0522
vn -0.0001 0.9907 0.1363
vn 0.3826 0.9153 0.1259
vn 0.3827 0.9153 0.1259
vn -0.3828 0.9152 0.1259
vn -0.7072 0.7005 0.0964
vn -0.7072 0.7004 0.0964
vn -0.9239 0.3791 0.0521
vn -0.7072 0.7004 0.0963
vn -0.9239 0.3791 0.0522
vn 0.8626 -0.5011 -0.0689
vn 0.7071 0.7005 0.0964
vn 0.9239 0.3792 0.0522
vn -0.0000 0.9907 0.1363
vn 0.3828 0.9152 0.1259
vn -0.3827 0.9152 0.1259
vn 0.6850 -0.7218 -0.0993
vn 0.6849 -0.7218 -0.0993
vn 1.0000 0.0001 -0.0000
vn 0.9239 -0.3790 -0.0521
vn 0.9239 0.3791 0.0522
vn -0.0055 0.9907 0.1363
vn 0.7071 -0.7005 -0.0964
vn 0.7072 -0.7004 -0.0964
vn 0.9239 -0.3791 -0.0521
vn 1.0000 -0.0000 -0.0000
vn -0.6958 -0.7115 -0.0979
vn -0.0000 -0.9907 -0.1363
vn -0.3826 -0.9153 -0.1259
vn 0.7072 -0.7005 -0.0964
vn -0.8728 0.4834 0.0665
vn -0.8729 0.4834 0.0665
vn -0.7071 -0.7006 -0.0964
vn -0.3827 -0.9153 -0.1259
vn -0.0150 0.9906 0.1363
vn 0.8578 0.5091 0.0700
vn 0.7010 -0.7066 -0.0972
vn 0.7009 -0.7066 -0.0972
vn 0.7010 -0.7065 -0.0972
vn -0.0118 0.9906 0.1363
vn -0.6624 -0.7422 -0.1021
vn -0.8626 -0.5011 -0.0689
vn 0.3827 -0.9152 -0.1259
vn -0.0118 -0.1354 0.9907
vn 0.0005 -0.1359 0.9907
vn 0.0003 -0.1350 0.9908
vn 0.0007 -0.1360 0.9907
vn 0.0007 -0.1359 0.9907
vn 0.0008 -0.1359 0.9907
vn -0.0056 0.9907 0.1363
vn -0.6624 -0.7421 -0.1021
vt 0.001567 0.150669
vt 0.096591 0.785029
vt 0.001567 0.785029
vt 0.415285 0.499566
vt 0.118954 0.458798
vt 0.117420 0.479728
vt 0.411243 0.803404
vt 0.114909 0.857239
vt 0.413012 0.841364
vt 0.415285 0.879297
vt 0.117420 0.899135
vt 0.118954 0.920065
vt 0.416673 0.898246
vt 0.114909 0.521624
vt 0.413012 0.537499
vt 0.411243 0.575459
vt 0.112956 0.563550
vt 0.384863 0.981858
vt 0.112595 0.985173
vt 0.112616 0.980388
vt 0.384822 0.990897
vt 0.112591 0.985388
vt 0.384841 0.986708
vt 0.001567 0.150669
vt 0.096591 0.785029
vt 0.096591 0.150669
vt 0.384884 0.977114
vt 0.112615 0.980173
vt 0.112635 0.975435
vt 0.001567 0.150669
vt 0.096591 0.150668
vt 0.732248 0.242565
vt 0.995423 0.240974
vt 0.995423 0.242731
vt 0.732251 0.241110
vt 0.732251 0.242721
vt 0.872236 0.277492
vt 0.882107 0.569395
vt 0.871205 0.569403
vt 0.869884 0.277492
vt 0.859433 0.569395
vt 0.859433 0.277483
vt 0.001567 0.150677
vt 0.096591 0.785028
vt 0.001567 0.785029
vt 0.001567 0.150668
vt 0.096591 0.785029
vt 0.001567 0.150669
vt 0.096591 0.150669
vt 0.001567 0.150676
vt 0.096591 0.785029
vt 0.096591 0.150676
vt 0.001567 0.150670
vt 0.096591 0.785029
vt 0.763822 0.542899
vt 0.774905 0.345872
vt 0.784844 0.509266
vt 0.836860 0.434076
vt 0.871560 0.424933
vt 0.845279 0.442494
vt 0.813957 0.429520
vt 0.832028 0.398519
vt 0.825862 0.429520
vt 0.794539 0.442495
vt 0.785396 0.407795
vt 0.802958 0.434076
vt 0.789984 0.465398
vt 0.758982 0.447328
vt 0.789984 0.453493
vt 0.802958 0.484815
vt 0.768258 0.493958
vt 0.794540 0.476397
vt 0.825861 0.489371
vt 0.807790 0.520372
vt 0.813956 0.489371
vt 0.845278 0.476397
vt 0.854421 0.511096
vt 0.836860 0.484815
vt 0.849834 0.453493
vt 0.880835 0.471565
vt 0.849834 0.465398
vt 0.854421 0.407794
vt 0.807790 0.398519
vt 0.758983 0.471565
vt 0.832027 0.520372
vt 0.111561 0.605498
vt 0.110723 0.647461
vt 0.297148 0.649941
vt 0.355667 0.650719
vt 0.409980 0.613438
vt 0.355209 0.611981
vt 0.320292 0.650249
vt 0.346448 0.650597
vt 0.336540 0.640515
vt 0.409222 0.651432
vt 0.355666 0.650719
vt 0.355777 0.660088
vt 0.170744 0.680837
vt 0.169652 0.689431
vt 0.204754 0.680835
vt 0.297148 0.649941
vt 0.187747 0.650407
vt 0.204754 0.694922
vt 0.174735 0.700895
vt 0.187751 0.706285
vt 0.110723 0.731402
vt 0.302329 0.728853
vt 0.187751 0.725352
vt 0.408969 0.689431
vt 0.257947 0.689431
vt 0.354947 0.715408
vt 0.342438 0.728320
vt 0.327853 0.728514
vt 0.337192 0.733735
vt 0.302329 0.728853
vt 0.111561 0.773365
vt 0.352862 0.766944
vt 0.409980 0.765425
vt 0.355018 0.728152
vt 0.355230 0.766881
vt 0.355245 0.769479
vt 0.352862 0.766944
vt 0.112956 0.815313
vt 0.350281 0.611850
vt 0.355143 0.606351
vt 0.091843 0.308512
vt 0.002555 0.318829
vt 0.002553 0.308512
vt 0.002619 0.389497
vt 0.091886 0.368492
vt 0.002597 0.368492
vt 0.002566 0.339464
vt 0.091843 0.349781
vt 0.002557 0.349781
vt 0.002562 0.287877
vt 0.091843 0.298194
vt 0.002556 0.298194
vt 0.002579 0.347486
vt 0.091886 0.326480
vt 0.002566 0.326480
vt 0.002596 0.578550
vt 0.091884 0.557544
vt 0.002582 0.557544
vt 0.002582 0.267241
vt 0.091844 0.277559
vt 0.002571 0.277560
vt 0.091885 0.305473
vt 0.002566 0.284468
vt 0.002562 0.305473
vt 0.091986 0.500168
vt 0.002694 0.500168
vt 0.002599 0.410250
vt 0.002569 0.536539
vt 0.091884 0.515532
vt 0.002565 0.515532
vt 0.091842 0.411685
vt 0.002587 0.422004
vt 0.002576 0.411686
vt 0.091885 0.263462
vt 0.002597 0.242456
vt 0.002579 0.263462
vt 0.091985 0.368034
vt 0.002497 0.368034
vt 0.002406 0.339311
vt 0.091884 0.494526
vt 0.002582 0.473519
vt 0.002570 0.494526
vt 0.091843 0.391052
vt 0.002566 0.401369
vt 0.002557 0.391052
vt 0.002405 0.332566
vt 0.002569 0.289577
vt 0.091985 0.335449
vt 0.091885 0.452514
vt 0.002623 0.431509
vt 0.002601 0.452514
vt 0.091843 0.370417
vt 0.002551 0.380733
vt 0.002548 0.370417
vt 0.091984 0.275430
vt 0.002587 0.275430
vt 0.002576 0.255474
vt 0.002641 0.410502
vt 0.091886 0.389497
vt 0.091843 0.360100
vt 0.002551 0.360099
vt 0.091985 0.247105
vt 0.002557 0.247105
vt 0.002585 0.235229
vt 0.091886 0.347486
vt 0.091843 0.318829
vt 0.002562 0.329146
vt 0.091975 0.858744
vt 0.002670 0.858744
vt 0.002582 0.776026
vt 0.091978 0.755002
vt 0.002531 0.755002
vt 0.002568 0.739312
vt 0.091885 0.284468
vt 0.091844 0.287877
vt 0.002564 0.714139
vt 0.002401 0.671137
vt 0.091981 0.664888
vt 0.091884 0.536538
vt 0.002588 0.256924
vt 0.091844 0.267241
vt 0.002361 0.664888
vt 0.002404 0.656741
vt 0.091843 0.401369
vt 0.091982 0.635401
vt 0.002474 0.635401
vt 0.002601 0.583420
vt 0.091885 0.473519
vt 0.091843 0.380734
vt 0.091843 0.329147
vt 0.091885 0.431509
vt 0.096591 0.150669
vt 0.416673 0.480617
vt 0.384844 0.986190
vt 0.112570 0.990014
vt 0.001567 0.785029
vt 0.384865 0.981404
vt 0.001567 0.785029
vt 0.732248 0.240974
vt 0.995424 0.240952
vt 0.882107 0.277483
vt 0.870976 0.569404
vt 0.096591 0.150677
vt 0.096591 0.150668
vt 0.001567 0.785028
vt 0.001567 0.785029
vt 0.096591 0.150670
vt 0.924720 0.442635
vt 0.915346 0.398116
vt 0.945334 0.454332
vt 0.988957 0.448295
vt 0.763822 0.298486
vt 0.796610 0.356207
vt 0.838205 0.348507
vt 0.768257 0.424934
vt 0.785397 0.511097
vt 0.871560 0.493957
vt 0.880835 0.447326
vt 0.337545 0.626253
vt 0.350281 0.611850
vt 0.346448 0.650596
vt 0.320292 0.650249
vt 0.257947 0.689431
vt 0.206155 0.687878
vt 0.200763 0.674864
vt 0.180705 0.670875
vt 0.194792 0.670874
vt 0.187749 0.669474
vt 0.174734 0.674866
vt 0.222369 0.673537
vt 0.224913 0.689431
vt 0.232447 0.687879
vt 0.110444 0.689431
vt 0.153128 0.673541
vt 0.150276 0.687882
vt 0.214245 0.661381
vt 0.161251 0.661384
vt 0.173407 0.653260
vt 0.202088 0.653258
vt 0.194794 0.704884
vt 0.200765 0.700893
vt 0.205846 0.689431
vt 0.170745 0.694924
vt 0.180706 0.704884
vt 0.153130 0.702221
vt 0.150585 0.689431
vt 0.235096 0.689431
vt 0.222371 0.702218
vt 0.161253 0.714378
vt 0.214249 0.714375
vt 0.202091 0.722499
vt 0.173411 0.722500
vt 0.327853 0.728514
vt 0.342438 0.728320
vt 0.355017 0.728152
vt 0.409222 0.727431
vt 0.335138 0.748091
vt 0.355230 0.766881
vt 0.355209 0.611981
vt 0.091843 0.339464
vt 0.091884 0.578550
vt 0.091842 0.422004
vt 0.091885 0.242456
vt 0.002386 0.335449
vt 0.091885 0.410503
vt 0.002682 0.144318
vt 0.091986 0.144318
vt 0.002577 0.724539
vt 0.091979 0.724539
vt 0.091844 0.256924
s 0
usemtl emrysRing
f 31/1/1 43/2/1 32/3/1
f 7/4/2 28/5/2 18/6/2
f 4/7/3 16/8/3 5/9/3
f 6/10/4 16/8/4 17/11/4
f 6/10/5 26/12/5 23/13/5
f 7/4/6 19/14/6 8/15/6
f 9/16/7 19/14/7 20/17/7
f 33/18/8 36/19/8 34/20/8
f 31/21/9 38/22/9 37/23/9
f 37/24/10 56/25/10 55/26/10
f 29/27/11 40/28/11 30/29/11
f 29/30/12 48/25/12 47/31/12
f 41/32/13 44/33/13 43/34/13
f 47/35/2 46/34/2 45/36/2
f 49/37/8 52/38/8 51/39/8
f 55/40/8 54/41/8 53/42/8
f 35/43/14 54/44/14 36/45/14
f 25/46/15 46/47/15 28/3/15
f 24/48/16 44/25/16 42/49/16
f 33/50/17 52/51/17 50/52/17
f 39/53/18 51/54/18 40/3/18
f 59/55/19 60/56/19 64/57/19
f 69/58/19 86/59/19 70/60/19
f 71/61/19 88/62/19 72/63/19
f 73/64/19 90/65/19 74/66/19
f 75/67/19 92/68/19 76/69/19
f 77/70/19 94/71/19 78/72/19
f 79/73/19 96/74/19 80/75/19
f 81/76/19 98/77/19 82/78/19
f 83/79/19 100/80/19 84/81/19
f 72/63/19 85/82/19 69/58/19
f 74/66/19 87/83/19 71/61/19
f 92/68/19 73/64/19 76/69/19
f 78/72/19 91/84/19 75/67/19
f 96/74/19 77/70/19 80/75/19
f 82/78/19 95/85/19 79/73/19
f 100/80/19 81/76/19 84/81/19
f 86/59/19 83/79/19 70/60/19
f 21/86/20 22/87/20 108/88/20
f 105/89/20 10/90/20 102/91/20
f 107/92/20 106/93/20 104/94/20
f 11/95/21 105/96/21 110/97/21
f 120/98/21 121/99/21 117/100/21
f 108/101/21 22/87/21 111/102/21
f 133/103/22 144/104/22 143/105/22
f 12/106/22 135/107/22 134/108/22
f 1/109/22 116/110/22 130/111/22
f 139/112/23 140/113/23 148/114/23
f 135/115/23 14/116/23 150/117/23
f 3/118/23 138/119/23 149/120/23
f 151/121/24 150/122/24 15/123/24
f 20/17/25 103/124/25 152/125/25
s 1
f 71/126/26 57/127/27 58/128/26
f 129/129/28 96/130/27 124/131/27
f 119/132/29 83/133/30 117/134/30
f 146/135/31 74/136/32 143/137/33
f 113/138/34 98/139/33 111/140/32
f 118/141/35 85/142/36 131/143/37
f 132/144/38 76/145/39 144/146/40
f 97/147/41 109/148/42 112/149/43
f 59/150/44 115/151/44 135/152/44
f 136/153/45 87/154/46 137/155/46
f 77/156/37 121/157/47 120/158/48
f 99/159/49 118/160/35 125/161/38
f 60/162/50 147/163/50 150/164/51
f 90/165/52 141/166/53 134/167/52
f 79/168/46 128/169/45 127/170/54
f 149/171/55 138/172/55 61/173/55
f 92/174/56 145/175/30 142/176/57
f 81/177/58 123/178/59 126/179/58
f 62/180/60 130/181/60 139/182/60
f 114/183/61 93/184/62 129/129/28
f 117/134/30 84/185/63 122/186/63
f 63/187/64 148/188/64 140/189/65
f 124/131/27 95/190/26 113/138/34
f 72/191/66 133/192/67 57/127/27
f 64/193/68 116/194/68 107/195/69
f 111/140/32 97/147/41 112/149/43
f 143/137/33 71/126/26 58/128/26
f 65/196/70 104/197/71 106/198/72
f 100/199/39 125/161/38 109/148/42
f 144/146/40 73/200/41 146/135/31
f 105/201/73 102/202/73 67/203/73
f 131/143/37 88/204/45 136/153/45
f 121/205/47 75/206/49 132/144/38
f 67/203/74 152/207/74 103/208/74
f 87/154/46 134/167/52 137/155/46
f 80/209/45 120/158/48 128/169/45
f 68/210/75 101/211/75 108/212/75
f 89/213/58 142/176/57 141/166/53
f 82/214/52 127/170/54 123/178/59
f 69/215/62 119/132/29 133/192/67
f 91/216/76 114/183/61 145/175/30
f 122/186/63 81/177/58 126/179/58
s 0
f 31/1/1 41/217/1 43/2/1
f 7/4/2 25/218/2 28/5/2
f 4/7/3 15/123/3 16/8/3
f 6/10/4 5/9/4 16/8/4
f 6/10/5 17/11/5 26/12/5
f 7/4/6 18/6/6 19/14/6
f 9/16/7 8/15/7 19/14/7
f 33/18/8 35/219/8 36/19/8
f 31/21/9 32/220/9 38/22/9
f 37/24/10 38/221/10 56/25/10
f 29/27/11 39/222/11 40/28/11
f 29/30/12 30/223/12 48/25/12
f 41/32/77 42/224/77 44/33/77
f 47/35/2 48/225/2 46/34/2
f 49/37/8 50/226/8 52/38/8
f 55/40/8 56/227/8 54/41/8
f 35/43/14 53/228/14 54/44/14
f 25/46/15 45/229/15 46/47/15
f 24/48/16 27/230/16 44/25/16
f 33/50/17 34/231/17 52/51/17
f 39/53/18 49/232/18 51/54/18
f 65/233/19 66/234/19 68/235/19
f 66/234/19 67/236/19 68/235/19
f 64/57/19 65/233/19 68/235/19
f 60/56/19 61/237/19 63/238/19
f 61/237/19 62/239/19 63/238/19
f 64/57/19 68/235/19 59/55/19
f 60/56/19 63/238/19 64/57/19
f 69/58/19 85/82/19 86/59/19
f 71/61/19 87/83/19 88/62/19
f 73/64/19 89/240/19 90/65/19
f 75/67/19 91/84/19 92/68/19
f 77/70/19 93/241/19 94/71/19
f 79/73/19 95/85/19 96/74/19
f 81/76/19 97/242/19 98/77/19
f 83/79/19 99/243/19 100/80/19
f 72/63/19 88/62/19 85/82/19
f 74/66/19 90/65/19 87/83/19
f 92/68/19 89/240/19 73/64/19
f 78/72/19 94/71/19 91/84/19
f 96/74/19 93/241/19 77/70/19
f 82/78/19 98/77/19 95/85/19
f 100/80/19 97/242/19 81/76/19
f 86/59/19 99/243/19 83/79/19
f 101/244/20 103/245/20 108/88/20
f 103/245/20 21/86/20 108/88/20
f 105/89/20 11/95/20 10/90/20
f 110/97/21 106/246/21 107/247/21
f 107/247/21 116/248/21 110/97/21
f 116/248/21 1/109/21 110/97/21
f 1/109/21 11/95/21 110/97/21
f 121/99/21 119/249/21 117/100/21
f 117/100/21 122/250/21 127/251/21
f 122/250/21 126/252/21 127/251/21
f 126/252/21 123/253/21 127/251/21
f 127/251/21 128/254/21 117/100/21
f 128/254/21 120/98/21 117/100/21
f 125/255/21 118/256/21 115/257/21
f 22/87/21 13/258/21 129/259/21
f 13/258/21 114/260/21 129/259/21
f 125/255/21 115/257/21 108/101/21
f 109/261/21 125/255/21 108/101/21
f 22/87/21 129/259/21 124/262/21
f 22/87/21 124/262/21 113/263/21
f 112/264/21 109/261/21 108/101/21
f 22/87/21 113/263/21 111/102/21
f 111/102/21 112/264/21 108/101/21
f 58/265/22 57/266/22 133/103/22
f 133/103/78 119/267/78 121/99/78
f 121/99/79 132/268/79 144/104/79
f 144/104/22 146/269/22 143/105/22
f 143/105/22 58/265/22 133/103/22
f 133/103/80 121/99/80 144/104/80
f 145/270/81 114/271/81 13/258/81
f 135/107/82 115/272/82 131/273/82
f 115/272/81 118/256/81 131/273/81
f 145/270/22 13/258/22 12/106/22
f 142/274/22 145/270/22 12/106/22
f 135/107/22 131/273/22 136/275/22
f 135/107/22 136/275/22 137/276/22
f 141/277/22 142/274/22 12/106/22
f 135/107/22 137/276/22 134/108/22
f 134/108/22 141/277/22 12/106/22
f 116/110/22 140/278/22 130/111/22
f 140/278/22 139/279/22 130/111/22
f 130/111/22 138/280/22 2/281/22
f 2/281/22 1/109/22 130/111/22
f 150/117/23 147/282/23 135/115/23
f 135/115/23 12/106/23 14/116/23
f 3/118/23 2/281/23 138/119/23
f 150/122/24 14/116/24 15/123/24
f 15/123/24 4/7/24 151/121/24
f 4/7/24 3/118/24 151/121/24
f 3/118/24 149/283/24 151/121/24
f 152/125/25 102/284/25 10/90/25
f 10/90/25 9/16/25 152/125/25
f 9/16/25 20/17/25 152/125/25
f 20/17/25 21/86/25 103/124/25
s 1
f 71/126/26 72/191/66 57/127/27
f 129/129/28 93/184/62 96/130/27
f 119/132/29 70/285/61 83/133/30
f 146/135/31 73/200/41 74/136/32
f 113/138/34 95/190/26 98/139/33
f 118/141/35 86/286/35 85/142/36
f 132/144/38 75/206/49 76/145/39
f 97/147/41 100/199/39 109/148/42
f 135/152/44 147/163/44 60/162/44
f 60/162/44 59/150/44 135/152/44
f 136/153/45 88/204/45 87/154/46
f 77/156/37 78/287/35 121/157/47
f 99/159/49 86/288/35 118/160/35
f 151/289/51 61/173/51 150/164/51
f 61/173/51 60/162/50 150/164/51
f 90/165/52 89/213/58 141/166/53
f 79/168/46 80/209/45 128/169/45
f 138/172/55 130/181/55 62/180/55
f 62/180/55 61/173/55 138/172/55
f 61/173/55 151/289/83 149/171/55
f 92/174/56 91/216/76 145/175/30
f 81/177/58 82/214/52 123/178/59
f 148/188/60 63/187/60 139/182/60
f 63/187/60 62/180/60 139/182/60
f 114/183/61 94/290/29 93/184/62
f 117/134/30 83/133/30 84/185/63
f 140/189/65 116/291/68 64/292/68
f 64/292/68 63/187/64 140/189/65
f 124/131/27 96/130/27 95/190/26
f 72/191/66 69/215/62 133/192/67
f 107/195/69 104/197/69 65/196/69
f 65/196/69 64/193/68 107/195/69
f 111/140/32 98/139/33 97/147/41
f 143/137/33 74/136/32 71/126/26
f 110/293/70 66/294/70 106/198/72
f 66/294/70 65/196/70 106/198/72
f 100/199/39 99/159/49 125/161/38
f 144/146/40 76/145/39 73/200/41
f 102/202/73 152/207/73 67/203/73
f 67/203/73 66/294/73 105/201/73
f 66/294/73 110/293/73 105/201/73
f 131/143/37 85/142/36 88/204/45
f 121/205/47 78/295/35 75/206/49
f 103/208/74 101/211/84 68/210/84
f 68/210/84 67/203/74 103/208/74
f 87/154/46 90/165/52 134/167/52
f 80/209/45 77/156/37 120/158/48
f 108/212/75 115/151/75 59/150/75
f 59/150/75 68/210/75 108/212/75
f 89/213/58 92/174/56 142/176/57
f 82/214/52 79/168/46 127/170/54
f 69/215/62 70/285/61 119/132/29
f 91/216/76 94/290/29 114/183/61
f 122/186/63 84/185/63 81/177/58
