# Blender 5.0.0
# www.blender.org
mtllib stargate_movie_origin_2.mtl
o ringorigin_2
v -0.000000 4.078362 0.083659
v -0.054753 4.077995 0.083659
v -0.109496 4.076892 0.083659
v -0.164219 4.075055 0.083659
v -0.218913 4.072483 0.083659
v -0.273567 4.069178 0.083659
v 0.117125 4.363775 0.123029
v 0.102063 4.341546 0.119938
v 0.273567 4.069178 0.083659
v 0.218913 4.072483 0.083659
v 0.164219 4.075055 0.083659
v 0.109496 4.076892 0.083659
v 0.054753 4.077995 0.083659
v -0.060474 4.504101 0.142119
v -0.000000 4.504506 0.142119
v -0.120937 4.502882 0.142119
v -0.181378 4.500854 0.142119
v -0.241787 4.498013 0.142119
v -0.302152 4.494361 0.142119
v 0.103911 4.350749 0.121206
v 0.103911 4.332341 0.118681
v 0.302152 4.494361 0.142119
v 0.241787 4.498013 0.142119
v 0.181378 4.500854 0.142119
v 0.120937 4.502882 0.142119
v 0.060474 4.504101 0.142119
v -0.300869 4.067158 0.083659
v 0.355445 4.062752 0.083659
v 0.300869 4.067158 0.083659
v -0.332307 4.492131 0.142119
v 0.392585 4.487264 0.142119
v 0.332307 4.492131 0.142119
v 0.303495 4.066963 0.083659
v 0.335207 4.491916 0.142119
v 0.353514 4.062921 0.083659
v 0.390452 4.487451 0.142119
v 0.324750 4.065276 0.083659
v 0.358683 4.490052 0.142119
v 0.331572 4.064725 0.083659
v 0.366217 4.489444 0.142119
v 0.346921 4.063486 0.083659
v 0.383170 4.488075 0.142119
v 0.310253 4.066446 0.083659
v 0.342671 4.491345 0.142119
v 0.353604 4.064039 0.075486
v 0.355535 4.063869 0.075486
v 0.390543 4.488568 0.133946
v 0.392675 4.488381 0.133946
v 0.300960 4.068275 0.075486
v 0.332397 4.493248 0.133946
v 0.303586 4.068081 0.075486
v 0.335298 4.493034 0.133946
v 0.310343 4.067564 0.075486
v 0.324840 4.066394 0.075486
v 0.342761 4.492463 0.133946
v 0.358773 4.491170 0.133946
v 0.331662 4.065843 0.075486
v 0.366307 4.490561 0.133946
v 0.347011 4.064604 0.075486
v 0.383261 4.489193 0.133946
v -0.148192 4.239273 0.097118
v -0.126546 4.239349 0.097128
v 0.001044 4.365851 0.114530
v 0.131991 4.236004 0.096668
v 0.153707 4.235420 0.096588
v 0.153529 4.221575 0.094683
v 0.117690 4.221397 0.094659
v 0.001599 4.342333 0.111295
v -0.118509 4.221593 0.094686
v -0.148837 4.221820 0.094717
v -0.131612 4.363850 0.114255
v -0.122322 4.365682 0.114507
v -0.139488 4.358637 0.113538
v -0.144750 4.350835 0.112465
v -0.146598 4.341632 0.111199
v -0.144750 4.332428 0.109933
v -0.139488 4.324626 0.108859
v -0.131612 4.319414 0.108142
v -0.122322 4.317582 0.107890
v -0.113032 4.319414 0.108142
v -0.105156 4.324626 0.108859
v -0.099894 4.332428 0.109933
v -0.098046 4.341632 0.111199
v -0.099894 4.350835 0.112465
v -0.105156 4.358637 0.113538
v -0.113032 4.363850 0.114255
v 0.126339 4.366777 0.114658
v 0.117049 4.364946 0.114406
v 0.109173 4.359733 0.113689
v 0.103911 4.351931 0.112615
v 0.102063 4.342728 0.111349
v 0.103911 4.333524 0.110083
v 0.109173 4.325722 0.109010
v 0.117049 4.320509 0.108293
v 0.126339 4.318677 0.108041
v 0.135629 4.320509 0.108293
v 0.143505 4.325722 0.109010
v 0.148767 4.333524 0.110083
v 0.150615 4.342728 0.111349
v 0.148767 4.351931 0.112615
v 0.143505 4.359733 0.113689
v 0.135629 4.364946 0.114406
v 0.116025 4.319999 0.117022
v 0.109173 4.358550 0.122290
v 0.113463 4.224608 0.103931
v 0.114211 4.252444 0.107751
v 0.109173 4.324537 0.117625
v 0.057504 4.282926 0.111775
v 0.057846 4.308360 0.115264
v -0.000000 4.363659 0.122797
v 0.001044 4.364695 0.122940
v -0.000000 4.339567 0.119492
v 0.001599 4.341175 0.119714
v -0.057489 4.281766 0.111616
v -0.057819 4.306324 0.114985
v -0.115962 4.317647 0.116699
v -0.114157 4.250441 0.107476
v -0.113032 4.318227 0.116770
v -0.113032 4.362666 0.122865
v -0.117193 4.363484 0.122989
v -0.098046 4.340452 0.119777
v -0.105156 4.323443 0.117464
v -0.099894 4.331247 0.118520
v -0.099894 4.349655 0.121045
v -0.105156 4.357456 0.122129
v -0.113486 4.225450 0.104046
v -0.148837 4.220605 0.103545
v -0.131612 4.362655 0.122942
v -0.131612 4.318216 0.116849
v -0.118509 4.220397 0.103376
v -0.126546 4.238150 0.105848
v -0.122322 4.316390 0.116556
v -0.122322 4.364492 0.123151
v -0.148192 4.238059 0.105935
v -0.146598 4.340426 0.119963
v -0.144750 4.331223 0.118693
v -0.139488 4.323424 0.117599
v -0.139488 4.357437 0.122263
v -0.144750 4.349631 0.121217
v 0.153707 4.234203 0.105431
v 0.153529 4.220357 0.103532
v 0.117690 4.220201 0.103346
v 0.117049 4.319320 0.116933
v 0.126339 4.317483 0.116724
v 0.126339 4.365586 0.123319
v 0.131991 4.234801 0.105413
v 0.143505 4.324517 0.117768
v 0.135629 4.319309 0.117017
v 0.150615 4.341519 0.120131
v 0.148767 4.332316 0.118861
v 0.148767 4.350724 0.121385
v 0.143505 4.358531 0.122431
v 0.135629 4.363749 0.123110
vn 0.9962 -0.0866 -0.0008
vn -0.0100 -0.1355 0.9907
vn 0.0064 -0.1358 0.9907
vn 0.0082 -0.1357 0.9907
vn 0.0100 -0.1355 0.9907
vn -0.0082 -0.1357 0.9907
vn -0.0064 -0.1358 0.9907
vn -0.0109 -0.1355 0.9907
vn -0.0116 -0.1354 0.9907
vn -0.9964 0.0850 0.0006
vn -0.0104 -0.1355 0.9907
vn -0.9972 0.0745 -0.0008
vn -0.0119 -0.1354 0.9907
vn 0.9967 -0.0813 -0.0001
vn 0.9973 -0.0739 0.0009
vn -0.9962 0.0870 0.0009
vn -0.9968 0.0796 -0.0001
vn 0.9971 -0.0762 0.0006
vn -0.0027 -0.1359 0.9907
vn -0.0000 -0.1363 0.9907
vn -0.0009 -0.1359 0.9907
vn 0.0009 -0.1359 0.9907
vn 0.0027 -0.1359 0.9907
vn 0.0046 -0.1358 0.9907
vn -0.0046 -0.1358 0.9907
vn 0.0006 -0.9907 -0.1363
vn 0.3827 -0.9153 -0.1259
vn -0.0000 -0.9907 -0.1363
vn -0.9238 -0.3792 -0.0522
vn -0.7071 -0.7005 -0.0964
vn -0.9239 -0.3791 -0.0522
vn -0.7073 0.7003 0.0964
vn -0.9239 0.3791 0.0522
vn -0.7071 0.7005 0.0964
vn -0.9239 0.3790 0.0521
vn -1.0000 -0.0000 -0.0000
vn -0.7069 -0.7007 -0.0964
vn -0.3827 -0.9153 -0.1259
vn 0.3832 -0.9151 -0.1259
vn 0.7071 -0.7005 -0.0964
vn -0.9240 -0.3789 -0.0521
vn -1.0000 0.0001 -0.0000
vn 0.0036 -0.9907 -0.1363
vn -0.1952 -0.9716 -0.1337
vn 0.7074 -0.7002 -0.0963
vn 0.9239 -0.3791 -0.0522
vn -0.7074 -0.7002 -0.0963
vn 0.3799 -0.9162 -0.1278
vn -0.0005 -0.9907 -0.1363
vn 0.9240 -0.3788 -0.0521
vn 1.0000 -0.0000 -0.0000
vn -0.3832 -0.9151 -0.1259
vn 0.7064 -0.7011 -0.0973
vn 0.3829 -0.9150 -0.1268
vn 0.9239 0.3790 0.0521
vn 1.0000 0.0001 -0.0000
vn -0.0271 -0.9903 -0.1362
vn -0.0271 -0.9903 -0.1363
vn 0.9238 -0.3792 -0.0522
vn 0.7073 0.7003 0.0964
vn 0.9239 0.3791 0.0522
vn -0.9999 0.0126 0.0017
vn 0.7071 0.7005 0.0964
vn 0.3832 0.9151 0.1259
vn 0.3827 0.9153 0.1259
vn -0.0050 0.9907 0.1363
vn 0.0006 0.9907 0.1363
vn 0.7246 0.6827 0.0939
vn 0.9238 0.3793 0.0522
vn -0.1952 0.9716 0.1337
vn -0.3825 0.9154 0.1259
vn -0.3827 0.9152 0.1259
vn -0.7123 0.6954 0.0957
vn -0.7123 0.6953 0.0957
vn 0.5556 0.8237 0.1133
vn -0.7069 0.7007 0.0964
vn 0.0075 0.9906 0.1363
vn 0.0076 0.9906 0.1363
vn 0.3823 0.9154 0.1260
vn -0.0000 0.9907 0.1363
vn -0.9238 0.3793 0.0522
vn 0.9993 -0.0363 -0.0050
vn -0.0006 0.9907 0.1363
vn -0.3832 0.9150 0.1259
vn -0.0118 -0.1354 0.9907
vn -0.0028 -0.1359 0.9907
vn 0.0045 -0.1358 0.9907
vn -0.0045 -0.1358 0.9907
vn -0.3824 -0.9154 -0.1259
vn 0.7073 -0.7003 -0.0963
vn 0.7069 0.7007 0.0964
vn -0.7123 0.6953 0.0956
vn -0.7122 0.6954 0.0957
vt 0.001567 0.035250
vt 0.096591 0.963739
vt 0.001567 0.963739
vt 0.415285 0.499566
vt 0.118954 0.458798
vt 0.117420 0.479728
vt 0.411243 0.803404
vt 0.114909 0.857239
vt 0.413012 0.841364
vt 0.415285 0.879297
vt 0.117420 0.899135
vt 0.118954 0.920065
vt 0.416673 0.898246
vt 0.114909 0.521624
vt 0.413012 0.537499
vt 0.411243 0.575459
vt 0.112956 0.563550
vt 0.384863 0.981858
vt 0.112595 0.985173
vt 0.112616 0.980388
vt 0.384822 0.990897
vt 0.112591 0.985388
vt 0.384841 0.986708
vt 0.001567 0.035251
vt 0.096591 0.963739
vt 0.096591 0.035251
vt 0.384884 0.977114
vt 0.112615 0.980173
vt 0.112635 0.975435
vt 0.001567 0.035250
vt 0.096591 0.035249
vt 0.732248 0.242565
vt 0.995423 0.240974
vt 0.995423 0.242731
vt 0.732251 0.241110
vt 0.732251 0.242721
vt 0.872236 0.277492
vt 0.882107 0.569395
vt 0.871205 0.569403
vt 0.869884 0.277492
vt 0.859433 0.569395
vt 0.859433 0.277483
vt 0.001567 0.035262
vt 0.096591 0.963738
vt 0.001567 0.963739
vt 0.001567 0.035249
vt 0.096591 0.963739
vt 0.001567 0.963739
vt 0.001567 0.035251
vt 0.096591 0.035251
vt 0.001567 0.035261
vt 0.096591 0.963739
vt 0.096591 0.035261
vt 0.001567 0.035253
vt 0.096591 0.963739
vt 0.231034 0.617315
vt 0.224586 0.618597
vt 0.247845 0.649285
vt 0.847367 0.435719
vt 0.849796 0.447932
vt 0.876853 0.429854
vt 0.840203 0.340013
vt 0.828194 0.345409
vt 0.909946 0.425840
vt 0.847367 0.409743
vt 0.854285 0.420097
vt 0.876853 0.415608
vt 0.409222 0.651432
vt 0.306500 0.610685
vt 0.265662 0.649522
vt 0.110444 0.689431
vt 0.209112 0.689431
vt 0.208386 0.688707
vt 0.408969 0.689431
vt 0.265662 0.649522
vt 0.209112 0.689431
vt 0.110723 0.731402
vt 0.249271 0.729559
vt 0.266475 0.729330
vt 0.409222 0.727431
vt 0.305910 0.768194
vt 0.266475 0.729330
vt 0.225354 0.757478
vt 0.249271 0.729559
vt 0.218906 0.758761
vt 0.225353 0.791175
vt 0.218906 0.789892
vt 0.112956 0.815313
vt 0.299761 0.582754
vt 0.224586 0.584900
vt 0.002528 0.254308
vt 0.095328 0.236852
vt 0.095328 0.254306
vt 0.002528 0.306669
vt 0.095328 0.289214
vt 0.095328 0.306669
vt 0.002528 0.149593
vt 0.095328 0.167039
vt 0.095328 0.149585
vt 0.002528 0.167045
vt 0.095328 0.184492
vt 0.002528 0.289214
vt 0.095328 0.271760
vt 0.002528 0.236853
vt 0.095328 0.219399
vt 0.002528 0.201953
vt 0.002528 0.184500
vt 0.002633 0.558240
vt 0.095328 0.518353
vt 0.095328 0.558240
vt 0.002528 0.263943
vt 0.002528 0.219400
vt 0.095328 0.201946
vt 0.002528 0.219408
vt 0.095328 0.201947
vt 0.002633 0.590537
vt 0.002633 0.737410
vt 0.002528 0.271625
vt 0.095328 0.254308
vt 0.002528 0.254316
vt 0.002528 0.201945
vt 0.002528 0.236861
vt 0.095328 0.219400
vt 0.002527 0.255322
vt 0.095328 0.107234
vt 0.095328 0.448627
vt 0.002528 0.289211
vt 0.095328 0.271761
vt 0.002528 0.167038
vt 0.002528 0.184492
vt 0.095328 0.236853
vt 0.002527 0.448626
vt 0.095328 0.488656
vt 0.002527 0.488657
vt 0.002528 0.306665
vt 0.002528 0.149585
vt 0.095328 0.167038
vt 0.095328 0.514411
vt 0.002527 0.514412
vt 0.002528 0.324119
vt 0.002528 0.132130
vt 0.095328 0.132132
vt 0.002527 0.580450
vt 0.095328 0.580449
vt 0.095328 0.341576
vt 0.095328 0.324122
vt 0.002528 0.114677
vt 0.002527 0.741381
vt 0.002527 0.591752
vt 0.002528 0.341574
vt 0.095328 0.359030
vt 0.002528 0.381987
vt 0.002528 0.376482
vt 0.095328 0.376482
vt 0.002633 0.269794
vt 0.002633 0.118875
vt 0.095328 0.114678
vt 0.002528 0.374210
vt 0.002528 0.359029
vt 0.002633 0.429983
vt 0.095328 0.485869
vt 0.002633 0.485869
vt 0.002528 0.376479
vt 0.095328 0.393937
vt 0.002528 0.341576
vt 0.095328 0.359029
vt 0.002633 0.518353
vt 0.002528 0.114685
vt 0.095328 0.132133
vt 0.095328 0.114678
vt 0.002528 0.324122
vt 0.002528 0.132139
vt 0.095328 0.324122
vt 0.096591 0.035250
vt 0.416673 0.480617
vt 0.384844 0.986190
vt 0.112570 0.990014
vt 0.001567 0.963740
vt 0.384865 0.981404
vt 0.001567 0.963739
vt 0.732248 0.240974
vt 0.995424 0.240952
vt 0.882107 0.277483
vt 0.870976 0.569404
vt 0.096591 0.035262
vt 0.096591 0.035249
vt 0.001567 0.963738
vt 0.001567 0.963739
vt 0.096591 0.035252
vt 0.212672 0.613662
vt 0.209000 0.608091
vt 0.110723 0.647461
vt 0.111561 0.605498
vt 0.218138 0.617315
vt 0.287001 0.610166
vt 0.239677 0.608907
vt 0.236500 0.613662
vt 0.854285 0.452421
vt 0.860150 0.454851
vt 0.866498 0.454851
vt 0.872363 0.452422
vt 0.876852 0.447933
vt 0.879282 0.442068
vt 0.879282 0.435720
vt 0.872364 0.425366
vt 0.854285 0.425365
vt 0.866499 0.422936
vt 0.860151 0.422936
vt 0.849797 0.429854
vt 0.847367 0.442067
vt 0.828195 0.503714
vt 0.828335 0.527734
vt 0.838085 0.513290
vt 0.837702 0.527845
vt 0.840139 0.325505
vt 0.828332 0.325083
vt 0.925857 0.425455
vt 0.879281 0.409743
vt 0.872363 0.393041
vt 0.879282 0.403395
vt 0.876852 0.397530
vt 0.866498 0.390611
vt 0.860150 0.390611
vt 0.854285 0.393041
vt 0.849796 0.397529
vt 0.847367 0.403395
vt 0.849796 0.415608
vt 0.860150 0.422527
vt 0.866498 0.422527
vt 0.872363 0.420097
vt 0.409980 0.613438
vt 0.247845 0.649285
vt 0.224862 0.688322
vt 0.225988 0.689431
vt 0.225988 0.689431
vt 0.409980 0.765425
vt 0.240919 0.767879
vt 0.241323 0.769912
vt 0.288404 0.768660
vt 0.231801 0.758761
vt 0.111561 0.773365
vt 0.209788 0.767879
vt 0.209213 0.770767
vt 0.237267 0.762413
vt 0.213440 0.762413
vt 0.297062 0.792281
vt 0.297008 0.777258
vt 0.288404 0.768660
vt 0.241323 0.769912
vt 0.242202 0.774326
vt 0.240919 0.780774
vt 0.237267 0.786240
vt 0.231801 0.789892
vt 0.309289 0.792729
vt 0.305910 0.768194
vt 0.309448 0.771680
vt 0.209213 0.770767
vt 0.208505 0.774326
vt 0.209788 0.780774
vt 0.213440 0.786240
vt 0.240151 0.608196
vt 0.239676 0.608907
vt 0.287000 0.610166
vt 0.299352 0.597826
vt 0.241434 0.601749
vt 0.240151 0.595301
vt 0.236499 0.589835
vt 0.231033 0.586183
vt 0.208999 0.608091
vt 0.207737 0.601749
vt 0.306500 0.610685
vt 0.309585 0.607751
vt 0.309461 0.582878
vt 0.209021 0.595301
vt 0.212672 0.589835
vt 0.218138 0.586183
vt 0.002528 0.271761
vt 0.095328 0.890865
vt 0.002633 0.890865
vt 0.002633 0.888142
vt 0.002527 0.402272
vt 0.002527 0.107234
vt 0.095328 0.114677
vt 0.002527 0.890866
vt 0.002528 0.359026
vt 0.002528 0.393935
vt 0.002633 0.114677
vt 0.095328 0.429983
vt 0.002633 0.416796
vt 0.002528 0.393934
s 0
usemtl emrysRing
f 35/1/1 47/2/1 36/3/1
f 9/4/2 32/5/2 22/6/2
f 4/7/3 18/8/3 5/9/3
f 6/10/4 18/8/4 19/11/4
f 6/10/5 30/12/5 27/13/5
f 9/4/6 23/14/6 10/15/6
f 11/16/7 23/14/7 24/17/7
f 37/18/8 40/19/8 38/20/8
f 35/21/9 42/22/9 41/23/9
f 41/24/10 60/25/10 59/26/10
f 33/27/11 44/28/11 34/29/11
f 33/30/12 52/25/12 51/31/12
f 45/32/13 48/33/13 47/34/13
f 51/35/2 50/34/2 49/36/2
f 53/37/8 56/38/8 55/39/8
f 59/40/8 58/41/8 57/42/8
f 39/43/14 58/44/14 40/45/14
f 29/46/15 50/47/15 32/48/15
f 28/49/16 48/25/16 46/50/16
f 37/51/17 56/52/17 54/53/17
f 43/54/18 55/55/18 44/3/18
f 21/56/19 8/57/19 109/58/19
f 85/59/20 72/60/20 79/61/20
f 62/62/20 69/63/20 68/64/20
f 97/65/20 99/66/20 87/67/20
f 13/68/19 105/69/19 108/70/19
f 15/71/21 110/72/21 111/73/21
f 1/74/21 13/68/21 108/75/21
f 110/76/22 14/77/22 115/78/22
f 1/74/22 114/79/22 2/80/22
f 126/81/23 2/80/23 114/82/23
f 121/83/23 115/84/23 124/85/23
f 135/86/24 139/87/24 17/88/24
f 140/89/25 24/17/25 149/90/25
s 1
f 133/91/26 71/92/27 72/93/28
f 124/94/29 85/95/30 84/96/31
f 147/97/32 98/98/33 97/99/34
f 150/100/35 99/101/36 98/98/33
f 125/102/37 86/103/38 85/95/30
f 128/104/39 73/105/40 71/92/27
f 151/106/41 99/101/36 149/107/42
f 131/108/43 61/109/43 62/110/43
f 120/111/44 72/93/28 86/103/38
f 138/112/45 74/113/46 73/105/40
f 152/114/47 100/115/31 151/106/41
f 117/116/45 62/110/45 115/117/45
f 7/118/48 87/119/28 145/120/49
f 139/121/50 75/101/51 74/113/46
f 153/122/52 101/123/30 152/114/47
f 109/124/47 63/125/47 64/126/47
f 104/127/53 88/128/54 7/118/48
f 136/129/55 75/101/51 135/130/56
f 145/120/49 102/131/38 153/122/52
f 146/132/57 65/133/57 140/134/58
f 20/135/59 89/95/40 104/127/53
f 137/136/60 76/137/61 136/129/55
f 140/134/62 66/138/62 141/139/62
f 8/140/56 90/96/46 20/135/59
f 77/99/63 129/141/64 78/142/65
f 142/143/66 66/138/66 67/144/66
f 8/140/56 92/145/61 91/146/51
f 132/147/67 78/142/65 129/141/64
f 108/148/68 105/149/68 67/144/68
f 21/150/69 93/151/63 92/145/61
f 116/152/70 118/153/71 80/154/72
f 114/155/73 112/156/74 68/157/73
f 103/158/75 94/154/65 93/151/63
f 122/159/76 80/154/72 118/153/71
f 130/160/77 70/161/78 127/162/78
f 143/163/79 95/164/80 94/154/65
f 123/165/81 81/166/34 122/159/76
f 134/167/82 70/161/82 61/109/82
f 144/168/83 96/169/72 95/170/80
f 121/171/36 82/145/33 123/165/81
f 148/172/84 97/99/34 96/169/72
f 121/171/36 84/96/31 83/173/36
s 0
f 35/1/1 45/174/1 47/2/1
f 9/4/2 29/175/2 32/5/2
f 4/7/3 17/88/3 18/8/3
f 6/10/4 5/9/4 18/8/4
f 6/10/5 19/11/5 30/12/5
f 9/4/6 22/6/6 23/14/6
f 11/16/7 10/15/7 23/14/7
f 37/18/8 39/176/8 40/19/8
f 35/21/9 36/177/9 42/22/9
f 41/24/10 42/178/10 60/25/10
f 33/27/11 43/179/11 44/28/11
f 33/30/12 34/180/12 52/25/12
f 45/32/85 46/181/85 48/33/85
f 51/35/2 52/182/2 50/34/2
f 53/37/8 54/183/8 56/38/8
f 59/40/8 60/184/8 58/41/8
f 39/43/14 57/185/14 58/44/14
f 29/46/15 49/186/15 50/47/15
f 28/49/16 31/187/16 48/25/16
f 37/51/17 38/188/17 56/52/17
f 43/54/18 53/189/18 55/55/18
f 104/190/86 7/191/86 26/192/86
f 7/191/19 25/193/19 26/192/19
f 26/192/19 109/58/19 20/194/19
f 104/190/19 26/192/19 20/194/19
f 109/58/19 106/195/19 103/196/19
f 109/58/19 103/196/19 107/197/19
f 109/58/19 107/197/19 21/56/19
f 8/57/19 20/194/19 109/58/19
f 72/60/20 71/198/20 73/199/20
f 73/199/20 74/200/20 75/201/20
f 75/201/20 76/202/20 77/203/20
f 77/203/20 78/204/20 75/201/20
f 78/204/20 79/61/20 75/201/20
f 79/61/20 80/205/20 83/206/20
f 80/205/20 81/207/20 83/206/20
f 81/207/20 82/208/20 83/206/20
f 83/206/20 84/209/20 85/59/20
f 85/59/20 86/210/20 72/60/20
f 72/60/20 73/199/20 79/61/20
f 73/199/20 75/201/20 79/61/20
f 83/206/20 85/59/20 79/61/20
f 67/211/20 66/212/20 64/213/20
f 66/212/20 65/214/20 64/213/20
f 68/64/20 67/211/20 64/213/20
f 62/62/20 61/215/20 70/216/20
f 68/64/20 64/213/20 63/217/20
f 62/62/20 70/216/20 69/63/20
f 68/64/20 63/217/20 62/62/20
f 87/67/20 88/218/20 91/219/20
f 88/218/20 89/220/20 91/219/20
f 89/220/20 90/221/20 91/219/20
f 91/219/20 92/222/20 93/223/20
f 93/223/20 94/224/20 95/225/20
f 95/225/20 96/226/20 97/65/20
f 97/65/20 98/227/20 99/66/20
f 99/66/20 100/228/20 101/229/20
f 101/229/20 102/230/20 99/66/20
f 102/230/20 87/67/20 99/66/20
f 91/219/20 93/223/20 87/67/20
f 93/223/20 95/225/20 87/67/20
f 95/225/20 97/65/20 87/67/20
f 13/68/19 12/231/19 105/69/19
f 111/73/21 109/232/21 26/192/21
f 26/192/21 15/71/21 111/73/21
f 113/233/21 112/234/21 108/75/21
f 112/234/21 1/74/21 108/75/21
f 110/76/22 15/71/22 14/77/22
f 1/74/22 112/235/22 114/79/22
f 126/81/23 3/236/23 2/80/23
f 118/237/23 116/238/23 117/239/23
f 117/239/23 115/84/23 118/237/23
f 115/84/23 14/77/23 124/85/23
f 123/240/23 115/84/23 121/83/23
f 14/77/23 16/241/23 119/242/23
f 16/241/23 120/243/23 119/242/23
f 122/244/23 118/237/23 115/84/23
f 123/240/23 122/244/23 115/84/23
f 14/77/23 119/242/23 125/245/23
f 14/77/23 125/245/23 124/85/23
f 134/246/24 131/247/24 117/248/24
f 117/248/24 116/249/24 132/250/24
f 117/248/24 132/250/24 129/251/24
f 134/246/24 117/248/24 129/251/24
f 134/246/24 129/251/24 137/252/24
f 134/246/24 137/252/24 136/253/24
f 134/246/87 136/253/87 135/86/87
f 127/254/24 134/246/24 17/88/24
f 134/246/24 135/86/24 17/88/24
f 3/236/24 126/255/24 130/256/24
f 120/257/24 16/241/24 133/258/24
f 16/241/24 17/88/24 128/259/24
f 133/258/24 16/241/24 128/259/24
f 4/7/24 3/236/24 127/254/24
f 3/236/24 130/256/24 127/254/24
f 138/260/24 128/259/24 17/88/24
f 17/88/24 4/7/24 127/254/24
f 139/87/24 138/260/24 17/88/24
f 143/261/25 103/262/25 106/263/25
f 106/263/25 146/264/25 140/89/25
f 143/261/25 106/263/25 144/265/25
f 106/263/25 140/89/25 148/266/25
f 144/265/25 106/263/25 148/266/25
f 147/267/25 148/266/25 140/89/25
f 150/268/88 147/267/88 140/89/88
f 149/90/25 150/268/25 140/89/25
f 25/193/88 7/269/88 145/270/88
f 105/271/25 12/231/25 142/272/25
f 12/231/25 11/16/25 141/273/25
f 142/272/25 12/231/25 141/273/25
f 24/17/25 25/193/25 153/274/25
f 25/193/25 145/270/25 153/274/25
f 140/89/88 141/273/88 11/16/88
f 24/17/25 153/274/25 152/275/25
f 24/17/25 152/275/25 151/276/25
f 140/89/25 11/16/25 24/17/25
f 24/17/88 151/276/88 149/90/88
s 1
f 133/91/26 128/104/39 71/92/27
f 124/94/29 125/102/37 85/95/30
f 147/97/32 150/100/35 98/98/33
f 150/100/35 149/107/42 99/101/36
f 125/102/37 119/277/89 86/103/38
f 128/104/39 138/112/45 73/105/40
f 151/106/41 100/115/31 99/101/36
f 131/108/43 134/167/43 61/109/43
f 86/103/38 119/277/89 120/111/44
f 120/111/44 133/91/26 72/93/28
f 138/112/45 139/121/50 74/113/46
f 152/114/47 101/123/30 100/115/31
f 63/278/45 111/279/90 110/280/45
f 63/278/45 110/280/45 115/117/45
f 131/108/45 62/110/45 117/116/45
f 62/110/45 63/278/45 115/117/45
f 7/118/48 88/128/54 87/119/28
f 139/121/50 135/130/56 75/101/51
f 153/122/52 102/131/38 101/123/30
f 64/126/47 146/132/47 106/281/47
f 109/124/47 111/282/47 63/125/47
f 64/126/47 106/281/47 109/124/47
f 104/127/53 89/95/40 88/128/54
f 136/129/55 76/137/61 75/101/51
f 145/120/49 87/119/28 102/131/38
f 146/132/57 64/126/57 65/133/57
f 20/135/59 90/96/46 89/95/40
f 137/136/60 77/99/63 76/137/61
f 140/134/62 65/133/62 66/138/62
f 8/140/56 91/146/51 90/96/46
f 77/99/63 137/136/60 129/141/64
f 142/143/66 141/139/66 66/138/66
f 8/140/56 21/150/69 92/145/61
f 132/147/67 79/283/80 78/142/65
f 68/278/68 113/284/68 108/148/68
f 105/149/68 142/143/68 67/144/68
f 68/278/68 108/148/68 67/144/68
f 21/150/69 107/285/91 93/151/63
f 80/154/72 79/164/80 116/152/70
f 79/164/80 132/286/67 116/152/70
f 112/156/74 113/287/92 68/157/73
f 68/157/73 69/288/93 114/155/73
f 69/288/93 130/160/93 126/289/93
f 69/288/93 126/289/93 114/155/73
f 93/151/63 107/285/91 103/158/75
f 103/158/75 143/163/79 94/154/65
f 122/159/76 81/166/34 80/154/72
f 130/160/77 69/288/77 70/161/78
f 143/163/79 144/290/83 95/164/80
f 123/165/81 82/145/33 81/166/34
f 134/167/82 127/162/82 70/161/82
f 144/168/83 148/172/84 96/169/72
f 121/171/36 83/173/36 82/145/33
f 148/172/84 147/97/32 97/99/34
f 121/171/36 124/94/29 84/96/31
