# Blender v3.1.2 OBJ File: ''
# www.blender.org
mtllib origin_3.mtl
o origin_3.002
v 0.489706 1.087720 0.111328
v 0.477285 1.100960 0.129429
v 0.442190 1.105150 0.114525
v 0.415791 1.119007 0.124599
v 0.434637 1.080391 0.060295
v 0.442143 1.079459 0.063413
v 0.485185 1.106793 0.122110
v 0.480250 1.109865 0.124951
v 0.423303 1.117911 0.127393
v 0.429135 1.130324 0.131788
v 0.426169 1.121419 0.136267
v 0.445982 1.091469 0.089834
v 0.452310 1.097984 0.082829
v 0.449345 1.089079 0.087308
v 0.486187 1.094471 0.122421
v 0.482219 1.097888 0.126589
v 0.426268 1.126816 0.122914
v 0.442759 1.094514 0.093753
v 0.448947 1.100374 0.085355
v 0.491705 1.099935 0.112791
v 0.489152 1.103376 0.117942
v 0.449063 1.074726 0.058583
v 0.445109 1.088364 0.058934
v 0.443514 1.106704 0.094343
v 0.445724 1.103419 0.089274
v 0.488739 1.091030 0.117270
v 0.434879 1.085687 0.046838
v 0.452029 1.083631 0.054104
v 0.439818 1.100736 0.104178
v 0.440549 1.097799 0.098821
v 0.489128 1.085190 0.105916
v 0.492671 1.096625 0.106850
v 0.431914 1.076782 0.051317
v 0.443494 1.112291 0.105437
v 0.442784 1.109641 0.099699
v 0.490562 1.092301 0.096856
v 0.492093 1.094095 0.101437
v 0.418757 1.127912 0.120120
v 0.437602 1.089296 0.055816
v 0.440528 1.103385 0.109916
v 0.445156 1.114055 0.110047
v 0.484779 1.081875 0.096445
v 0.487596 1.083396 0.101334
v 0.412111 1.132642 0.125124
v 0.445674 1.106775 0.120063
v 0.480684 1.080940 0.091874
v 0.487744 1.090780 0.091966
v 0.452778 1.116413 0.119781
v 0.448640 1.115680 0.115584
v 0.478082 1.089688 0.083398
v 0.483649 1.089845 0.087396
v 0.454983 1.107531 0.127728
v 0.449812 1.107508 0.124260
v 0.469289 1.081471 0.085386
v 0.475116 1.080783 0.087876
v 0.462941 1.115828 0.125346
v 0.457949 1.116436 0.123250
v 0.466972 1.091592 0.079826
v 0.472255 1.090376 0.080908
v 0.467131 1.105185 0.131109
v 0.466693 1.115038 0.126260
v 0.463728 1.106133 0.130739
v 0.458962 1.084342 0.084258
v 0.464007 1.082686 0.084305
v 0.474881 1.112381 0.126398
v 0.470097 1.114090 0.126630
v 0.459976 1.106923 0.129825
v 0.456747 1.095498 0.080823
v 0.461927 1.093248 0.079779
v 0.471915 1.103476 0.130877
v 0.409145 1.123737 0.129602
v 0.453781 1.086593 0.085302
vt 0.607594 0.577533
vt 0.605558 0.577389
vt 0.605090 0.574471
vt 0.609212 0.551961
vt 0.609054 0.559228
vt 0.608410 0.559302
vt 0.605681 0.578617
vt 0.604954 0.578283
vt 0.608543 0.552084
vt 0.608095 0.550422
vt 0.608688 0.551386
vt 0.607186 0.573694
vt 0.607965 0.572920
vt 0.607540 0.573820
vt 0.606540 0.577739
vt 0.606017 0.577626
vt 0.607490 0.551634
vt 0.606730 0.573632
vt 0.607444 0.572718
vt 0.607273 0.578752
vt 0.606463 0.578757
vt 0.608329 0.559819
vt 0.607490 0.559414
vt 0.606023 0.572709
vt 0.606759 0.572653
vt 0.607070 0.577707
vt 0.609360 0.560716
vt 0.607840 0.560282
vt 0.605787 0.573864
vt 0.606235 0.573691
vt 0.608003 0.577271
vt 0.608060 0.578460
vt 0.609011 0.559876
vt 0.604684 0.573346
vt 0.605337 0.572935
vt 0.609122 0.577616
vt 0.608695 0.578083
vt 0.610117 0.551816
vt 0.610142 0.559632
vt 0.605372 0.574155
vt 0.604231 0.573801
vt 0.608547 0.576579
vt 0.608297 0.576973
vt 0.609929 0.550967
vt 0.604807 0.574920
vt 0.608705 0.576111
vt 0.609474 0.577007
vt 0.603684 0.575216
vt 0.603845 0.574539
vt 0.609768 0.575508
vt 0.609680 0.576312
vt 0.604634 0.575837
vt 0.604665 0.575363
vt 0.608654 0.575086
vt 0.608746 0.575576
vt 0.603776 0.576512
vt 0.603684 0.575916
vt 0.609348 0.574196
vt 0.609592 0.574779
vt 0.604944 0.576783
vt 0.603915 0.576922
vt 0.604809 0.576537
vt 0.608224 0.574352
vt 0.608474 0.574689
vt 0.604413 0.577765
vt 0.604084 0.577274
vt 0.604703 0.576248
vt 0.608492 0.573251
vt 0.609000 0.573683
vt 0.605189 0.577093
vt 0.609248 0.551424
vt 0.607903 0.574041
vn -0.2852 -0.8563 0.4306
vn -0.2851 -0.8563 0.4307
vn -0.2839 -0.7779 0.5606
vn -0.1483 -0.8986 0.4130
vn -0.2814 -0.9196 0.2740
vn 0.4841 0.2591 0.8358
vn 0.6722 0.1416 0.7267
vn 0.4840 0.2591 0.8358
vn 0.9538 -0.2987 -0.0315
vn 0.9143 -0.3779 -0.1459
vn -0.7282 -0.0987 -0.6782
vn -0.5878 -0.1987 -0.7842
vn -0.5879 -0.1987 -0.7842
vn 0.8232 0.0114 0.5677
vn 0.8916 -0.0006 0.4528
vn 0.9267 -0.1315 0.3519
vn 0.9646 -0.0242 0.2627
vn -0.8477 0.0156 -0.5302
vn 0.9217 -0.1216 0.3684
vn 0.8232 0.0114 0.5676
vn 0.6381 0.1657 0.7519
vn 0.7160 0.2697 0.6439
vn -0.9298 0.1379 -0.3413
vn 0.9582 -0.2442 0.1489
vn 0.9217 -0.1217 0.3684
vn 0.2848 -0.5047 -0.8150
vn -0.9585 0.2531 -0.1314
vn -0.9298 0.1379 -0.3414
vn 0.9378 -0.3420 -0.0591
vn -0.9029 0.4299 -0.0012
vn -0.9194 0.3713 0.1296
vn -0.9337 0.3498 0.0772
vn -0.9585 0.2531 -0.1315
vn 0.8747 -0.4162 -0.2483
vn -0.9184 0.2645 -0.2943
vn -0.9270 0.1322 -0.3510
vn -0.9270 0.1321 -0.3510
vn -0.9336 0.3498 0.0772
vn -0.8612 0.4262 0.2770
vn 0.7671 -0.4733 -0.4331
vn -0.6472 -0.0011 -0.7623
vn -0.6606 -0.1500 -0.7356
vn -0.7382 0.4828 0.4711
vn 0.6071 -0.5090 -0.6102
vn 0.7670 -0.4733 -0.4332
vn -0.5723 0.5126 0.6401
vn 0.4019 -0.5147 -0.7574
vn -0.3824 0.5136 0.7681
vn 0.1816 -0.4894 -0.8529
vn -0.1976 0.4922 0.8478
vn -0.0271 -0.4419 -0.8967
vn 0.1051 0.4187 0.9020
vn -0.0434 0.4604 0.8867
vn -0.0433 0.4604 0.8867
vn -0.2268 -0.3763 -0.8983
vn -0.0271 -0.4419 -0.8966
vn 0.2838 0.3537 0.8912
vn -0.1976 0.4922 0.8477
vn -0.4196 -0.2924 -0.8593
vn -0.2555 0.5009 0.8269
vn -0.2555 0.5010 0.8269
vn -0.4197 -0.2924 -0.8593
vn -0.2850 -0.8562 0.4310
vn -0.2851 -0.8563 0.4306
vn -0.2852 -0.8563 0.4305
vn -0.2853 -0.8561 0.4310
vn -0.2846 -0.8565 0.4307
vn -0.2853 -0.8563 0.4305
vn -0.2853 -0.8564 0.4303
vn -0.2852 -0.8562 0.4307
vn -0.2854 -0.8561 0.4308
vn -0.2856 -0.8561 0.4306
vn -0.2851 -0.8563 0.4308
vn -0.2856 -0.8564 0.4302
vn -0.3140 -0.9020 0.2964
vn -0.2852 -0.8563 0.4307
vn 0.9143 -0.3779 -0.1460
vn 0.9267 -0.1316 0.3520
vn -0.8672 0.1024 -0.4874
vn -0.6605 -0.1499 -0.7357
usemtl dhd.012
s 1
f 1/1/1 2/2/1 3/3/2
f 4/4/3 5/5/4 6/6/5
f 2/2/6 7/7/7 8/8/8
f 9/9/9 10/10/10 11/11/10
f 12/12/11 13/13/12 14/14/13
f 15/15/14 7/7/7 16/16/7
f 6/6/15 17/17/16 9/9/17
f 18/18/18 19/19/11 12/12/11
f 15/15/14 20/20/19 21/21/20
f 22/22/21 23/23/21 6/6/22
f 18/18/18 24/24/23 25/25/18
f 1/1/24 20/20/19 26/26/25
f 22/22/26 27/27/26 28/28/26
f 29/29/27 24/24/23 30/30/28
f 31/31/29 32/32/24 1/1/24
f 5/5/30 27/27/31 33/33/31
f 29/29/27 34/34/32 35/35/33
f 31/31/29 36/36/34 37/37/29
f 5/5/35 38/38/36 39/39/37
f 40/40/38 41/41/39 34/34/32
f 42/42/40 36/36/34 43/43/34
f 4/4/41 44/44/42 38/38/42
f 45/45/43 41/41/39 3/3/39
f 46/46/44 47/47/45 42/42/40
f 45/45/43 48/48/46 49/49/43
f 46/46/44 50/50/47 51/51/44
f 52/52/48 48/48/46 53/53/46
f 54/54/49 50/50/47 55/55/47
f 52/52/48 56/56/50 57/57/48
f 54/54/49 58/58/51 59/59/49
f 60/60/52 61/61/53 62/62/54
f 63/63/55 58/58/51 64/64/56
f 60/60/52 65/65/57 66/66/52
f 67/67/58 61/61/53 56/56/50
f 63/63/55 68/68/59 69/69/55
f 2/2/6 65/65/57 70/70/57
f 71/71/60 10/10/61 44/44/60
f 72/72/62 13/13/12 68/68/59
f 2/2/1 70/70/63 60/60/64
f 60/60/64 62/62/65 2/2/1
f 62/62/65 67/67/2 2/2/1
f 67/67/2 52/52/66 53/53/2
f 53/53/2 45/45/64 3/3/2
f 3/3/2 40/40/67 29/29/1
f 29/29/1 30/30/1 18/18/1
f 18/18/1 12/12/2 63/63/64
f 12/12/2 14/14/68 63/63/64
f 14/14/68 72/72/69 63/63/64
f 63/63/64 64/64/2 54/54/2
f 54/54/2 55/55/70 46/46/2
f 46/46/2 42/42/71 43/43/70
f 43/43/70 31/31/72 1/1/1
f 1/1/1 26/26/68 2/2/1
f 26/26/68 15/15/73 2/2/1
f 15/15/73 16/16/74 2/2/1
f 67/67/2 53/53/2 2/2/1
f 53/53/2 3/3/2 2/2/1
f 3/3/2 29/29/1 63/63/64
f 29/29/1 18/18/1 63/63/64
f 63/63/64 54/54/2 46/46/2
f 46/46/2 43/43/70 1/1/1
f 63/63/64 46/46/2 3/3/2
f 46/46/2 1/1/1 3/3/2
f 9/9/75 11/11/1 71/71/76
f 9/9/75 71/71/76 4/4/3
f 33/33/2 22/22/1 5/5/4
f 22/22/1 6/6/5 5/5/4
f 6/6/5 9/9/75 4/4/3
f 2/2/6 16/16/7 7/7/7
f 9/9/9 17/17/77 10/10/77
f 12/12/11 19/19/11 13/13/12
f 15/15/14 21/21/20 7/7/7
f 6/6/15 23/23/78 17/17/78
f 18/18/18 25/25/18 19/19/11
f 15/15/14 26/26/25 20/20/19
f 22/22/21 28/28/21 23/23/21
f 18/18/18 30/30/28 24/24/23
f 1/1/24 32/32/24 20/20/19
f 22/22/26 33/33/26 27/27/26
f 29/29/27 35/35/33 24/24/23
f 31/31/29 37/37/29 32/32/24
f 5/5/30 39/39/31 27/27/31
f 29/29/27 40/40/38 34/34/32
f 31/31/29 43/43/34 36/36/34
f 5/5/35 4/4/79 38/38/36
f 40/40/38 3/3/39 41/41/39
f 42/42/40 47/47/45 36/36/34
f 4/4/41 71/71/80 44/44/42
f 45/45/43 49/49/43 41/41/39
f 46/46/44 51/51/44 47/47/45
f 45/45/43 53/53/46 48/48/46
f 46/46/44 55/55/47 50/50/47
f 52/52/48 57/57/48 48/48/46
f 54/54/49 59/59/49 50/50/47
f 52/52/48 67/67/58 56/56/50
f 54/54/49 64/64/56 58/58/51
f 60/60/52 66/66/52 61/61/53
f 63/63/55 69/69/55 58/58/51
f 60/60/52 70/70/57 65/65/57
f 67/67/58 62/62/54 61/61/53
f 63/63/55 72/72/62 68/68/59
f 2/2/6 8/8/8 65/65/57
f 71/71/60 11/11/61 10/10/61
f 72/72/62 14/14/13 13/13/12
