# Blender v3.1.2 OBJ File: ''
# www.blender.org
mtllib origin_4_light.mtl
o origin_4.001
v 0.451688 1.125365 0.136860
v 0.437769 1.121751 0.120458
v 0.460337 1.115885 0.123737
v 0.463047 1.101623 0.097174
v 0.438899 1.088820 0.055728
v 0.450190 1.105919 0.097202
v 0.454134 1.092885 0.073898
v 0.472700 1.084119 0.068761
v 0.470757 1.091251 0.081655
v 0.490962 1.103482 0.119353
v 0.499989 1.106167 0.130668
v 0.494489 1.097102 0.109002
v 0.507620 1.091314 0.106188
v 0.459144 1.107697 0.106666
v 0.398721 1.128406 0.107837
v 0.412157 1.135143 0.130128
v 0.412619 1.126115 0.112482
v 0.419599 1.128225 0.121300
v 0.439042 1.082974 0.044199
v 0.429515 1.093465 0.058751
v 0.416367 1.094322 0.051750
vt 0.603004 0.698067
vt 0.562877 0.711170
vt 0.573700 0.657573
vt 0.493284 0.703859
vt 0.405675 0.625283
vt 0.504107 0.674107
vt 0.440649 0.671002
vt 0.446985 0.713733
vt 0.411917 0.711625
vt 0.526276 0.778653
vt 0.547083 0.804348
vt 0.497274 0.781665
vt 0.479347 0.810028
vt 0.520748 0.699729
vt 0.575033 0.559346
vt 0.619941 0.603333
vt 0.574944 0.594683
vt 0.591316 0.615846
vt 0.374986 0.619235
vt 0.421476 0.604664
vt 0.413957 0.569266
vn 0.2851 0.8563 -0.4306
vn 0.2852 0.8563 -0.4307
vn 0.2851 0.8563 -0.4307
vn 0.2852 0.8563 -0.4306
usemtl dhd_button_light.003
s 1
f 1/1/1 3/2/1 2/3/1
f 4/4/2 5/5/3 6/6/2
f 7/7/3 9/8/3 8/9/3
f 10/10/1 11/11/3 12/12/1
f 11/11/3 13/13/2 12/12/1
f 14/14/2 10/10/1 4/4/2
f 10/10/1 12/12/1 4/4/2
f 15/15/3 16/16/1 17/17/1
f 16/16/1 18/18/4 17/17/1
f 18/18/4 14/14/2 6/6/2
f 14/14/2 4/4/2 6/6/2
f 5/5/3 19/19/3 20/20/3
f 19/19/3 21/21/3 20/20/3
f 6/6/2 17/17/1 18/18/4
f 5/5/3 20/20/3 6/6/2
