# Blender v3.1.2 OBJ File: ''
# www.blender.org
mtllib origin_5.mtl
o origin_5.002
v 0.406317 1.114435 0.109235
v 0.393410 1.126284 0.124249
v 0.464494 1.094085 0.107293
v 0.492692 1.090066 0.117970
v 0.501828 1.085858 0.115653
v 0.492808 1.088674 0.115281
v 0.492421 1.088028 0.113740
v 0.500839 1.084208 0.111717
v 0.490913 1.087210 0.111114
v 0.493761 1.082030 0.102701
v 0.488866 1.086915 0.109172
v 0.489373 1.082277 0.100286
v 0.486916 1.087024 0.108099
v 0.484331 1.087556 0.107443
v 0.478610 1.085299 0.099170
v 0.481619 1.088516 0.107557
v 0.474231 1.087556 0.100757
v 0.479626 1.089543 0.108280
v 0.477827 1.090862 0.109711
v 0.470496 1.090294 0.103729
v 0.476613 1.092285 0.111738
v 0.467101 1.096027 0.112879
v 0.476181 1.093653 0.114170
v 0.467808 1.098157 0.117582
v 0.476513 1.094654 0.116381
v 0.477432 1.095360 0.118394
v 0.469802 1.099691 0.121952
v 0.479188 1.095834 0.120499
v 0.473337 1.100645 0.126190
v 0.481189 1.095876 0.121907
v 0.483518 1.099832 0.131313
v 0.484145 1.095413 0.122943
v 0.488646 1.098250 0.131565
v 0.486534 1.094676 0.123060
v 0.488594 1.093744 0.122570
v 0.497489 1.093421 0.127818
v 0.490800 1.092322 0.121204
v 0.500173 1.090842 0.124467
v 0.492056 1.091115 0.119636
v 0.480710 1.109641 0.124810
v 0.486483 1.108737 0.126835
v 0.415896 1.078737 0.044599
v 0.467459 1.102991 0.102814
v 0.418861 1.087642 0.040120
v 0.500903 1.091538 0.102185
v 0.497937 1.082633 0.106664
v 0.479146 1.102558 0.109692
v 0.479579 1.101191 0.107259
v 0.491611 1.107156 0.127086
v 0.412921 1.101037 0.062819
v 0.409955 1.092131 0.067297
v 0.496727 1.090935 0.098222
v 0.496145 1.105103 0.126007
v 0.493180 1.096198 0.130486
v 0.418847 1.088730 0.066421
v 0.421812 1.097635 0.061942
v 0.492338 1.091182 0.095807
v 0.479479 1.103559 0.111902
v 0.500454 1.102326 0.123339
v 0.447672 1.105669 0.095039
v 0.444707 1.096764 0.099518
v 0.484065 1.083368 0.098940
v 0.487030 1.092273 0.094462
v 0.482153 1.104740 0.116020
v 0.480397 1.104266 0.113915
v 0.503138 1.099747 0.119988
v 0.409282 1.123340 0.104756
v 0.495774 1.097579 0.110802
v 0.495657 1.098971 0.113491
v 0.481576 1.094205 0.094691
v 0.504575 1.097375 0.116223
v 0.501609 1.088470 0.120702
v 0.399556 1.113092 0.102088
v 0.402522 1.121997 0.097609
v 0.495387 1.096934 0.109261
v 0.477197 1.096461 0.096278
v 0.487111 1.104318 0.118464
v 0.484155 1.104781 0.117428
v 0.396375 1.135189 0.119771
v 0.493879 1.096115 0.106636
v 0.473462 1.099199 0.099250
v 0.470946 1.102149 0.103450
v 0.467981 1.093244 0.107929
v 0.491560 1.102649 0.118091
v 0.489500 1.103581 0.118581
v 0.491832 1.095820 0.104693
v 0.470066 1.104932 0.108401
v 0.493765 1.101228 0.116725
v 0.489882 1.095929 0.103620
v 0.470774 1.107062 0.113103
v 0.495022 1.100020 0.115157
v 0.487296 1.096461 0.102964
v 0.472767 1.108596 0.117474
v 0.482591 1.098448 0.103801
v 0.484584 1.097421 0.103078
v 0.476302 1.109550 0.121711
v 0.504793 1.094763 0.111174
v 0.477744 1.100736 0.129289
v 0.503804 1.093113 0.107238
v 0.480792 1.099767 0.105232
vt 0.619093 0.553383
vt 0.622207 0.556209
vt 0.619598 0.552253
vt 0.630491 0.579961
vt 0.630661 0.580102
vt 0.631144 0.579688
vt 0.630723 0.580195
vt 0.631310 0.579942
vt 0.630776 0.580418
vt 0.630760 0.580617
vt 0.631401 0.580740
vt 0.630712 0.580759
vt 0.631277 0.581059
vt 0.630603 0.580914
vt 0.630433 0.581026
vt 0.630731 0.581607
vt 0.630282 0.581080
vt 0.630393 0.581708
vt 0.630097 0.581088
vt 0.630015 0.581733
vt 0.629908 0.581037
vt 0.629748 0.580916
vt 0.629300 0.581395
vt 0.629640 0.580785
vt 0.629085 0.581107
vt 0.629578 0.580638
vt 0.628940 0.580786
vt 0.629571 0.580439
vt 0.628913 0.580394
vt 0.629604 0.580275
vt 0.629717 0.580073
vt 0.629213 0.579654
vt 0.629849 0.579956
vt 0.629497 0.579403
vt 0.629995 0.579887
vt 0.630209 0.579870
vt 0.630230 0.579212
vt 0.630366 0.579904
vt 0.630568 0.579289
vt 0.628453 0.578959
vt 0.627986 0.579641
vt 0.619642 0.560622
vt 0.619848 0.561438
vt 0.623320 0.556368
vt 0.631434 0.580341
vt 0.632366 0.580236
vt 0.630105 0.580619
vt 0.630066 0.580593
vt 0.628989 0.578556
vt 0.618786 0.559962
vt 0.617940 0.560344
vt 0.632366 0.580929
vt 0.629830 0.579268
vt 0.629559 0.578281
vt 0.619120 0.559403
vt 0.618127 0.559157
vt 0.632187 0.581518
vt 0.630040 0.580558
vt 0.630282 0.578241
vt 0.621157 0.556271
vt 0.620135 0.556306
vt 0.631064 0.581380
vt 0.631757 0.582059
vt 0.630026 0.580519
vt 0.630023 0.580470
vt 0.630884 0.578333
vt 0.618232 0.553685
vt 0.630256 0.580352
vt 0.630292 0.580387
vt 0.631200 0.582506
vt 0.630853 0.579436
vt 0.631423 0.578565
vt 0.618702 0.552847
vt 0.617940 0.552699
vt 0.630309 0.580414
vt 0.630584 0.582746
vt 0.630035 0.580429
vt 0.630064 0.580381
vt 0.619786 0.550632
vt 0.630325 0.580465
vt 0.629878 0.582732
vt 0.629626 0.581634
vt 0.629215 0.582502
vt 0.630098 0.580352
vt 0.630135 0.580335
vt 0.630324 0.580515
vt 0.628621 0.582130
vt 0.630183 0.580328
vt 0.630308 0.580553
vt 0.628195 0.581634
vt 0.630223 0.580336
vt 0.630278 0.580591
vt 0.627980 0.581043
vt 0.630239 0.580621
vt 0.630198 0.580634
vt 0.627874 0.580346
vt 0.631935 0.579079
vt 0.629002 0.580029
vt 0.632196 0.579533
vt 0.630151 0.580634
vn 0.1307 -0.8957 0.4250
vn -0.2852 -0.8563 0.4307
vn -0.2851 -0.8563 0.4306
vn -0.2851 -0.8563 0.4307
vn -0.2851 -0.8564 0.4305
vn -0.2852 -0.8563 0.4306
vn -0.2851 -0.8562 0.4308
vn -0.2852 -0.8563 0.4305
vn -0.2852 -0.8562 0.4307
vn -0.0662 0.4658 0.8824
vn -0.3632 0.5123 0.7782
vn 0.7463 -0.4803 -0.4609
vn 0.8895 -0.4037 -0.2138
vn 0.7400 -0.4823 -0.4689
vn 0.7400 -0.4823 -0.4688
vn 0.9102 -0.1011 0.4016
vn 0.9584 -0.2506 0.1363
vn 0.2232 0.3776 0.8987
vn 0.2232 0.3776 0.8986
vn -0.9329 0.1449 -0.3297
vn 0.5168 -0.5158 -0.6833
vn 0.9201 -0.3704 -0.1271
vn 0.9585 -0.2506 0.1364
vn 0.4841 0.2592 0.8358
vn -0.0244 0.6552 0.7551
vn 0.2318 0.3744 0.8978
vn 0.2317 0.3744 0.8979
vn 0.2595 -0.5015 -0.8253
vn 0.2594 -0.5015 -0.8254
vn 0.8058 -0.4574 -0.3760
vn 0.9202 -0.3703 -0.1271
vn 0.7063 0.1161 0.6983
vn -0.5003 0.3862 0.7750
vn -0.7809 0.5887 -0.2087
vn -0.7436 0.4811 0.4643
vn -0.0280 -0.4416 -0.8968
vn -0.0281 -0.4416 -0.8968
vn 0.8060 -0.4573 -0.3759
vn 0.6176 -0.5077 -0.6006
vn 0.8590 -0.0289 0.5112
vn 0.8589 -0.0288 0.5113
vn -0.8770 -0.2056 -0.4342
vn -0.1754 0.0371 -0.9838
vn -0.3674 -0.3174 -0.8742
vn -0.9424 0.1686 -0.2887
vn -0.9538 0.2978 -0.0394
vn -0.3176 -0.3395 -0.8854
vn 0.3633 -0.5123 -0.7782
vn 0.6178 -0.5077 -0.6005
vn 0.9424 -0.1687 0.2887
vn 0.9425 -0.1686 0.2887
vn 0.6746 -0.4985 -0.5444
vn -0.9538 0.2979 -0.0394
vn -0.8895 0.4038 0.2138
vn -0.5697 -0.2099 -0.7946
vn 0.3631 -0.5124 -0.7782
vn 0.0660 -0.4658 -0.8824
vn -0.9300 0.1385 -0.3404
vn -0.8895 0.4038 0.2137
vn -0.7400 0.4823 0.4689
vn -0.7734 -0.0599 -0.6311
vn -0.2231 -0.3777 -0.8986
vn 0.3555 0.3228 0.8772
vn -0.5168 0.5158 0.6833
vn -0.7399 0.4823 0.4690
vn -0.9102 0.1011 -0.4016
vn -0.2232 -0.3777 -0.8986
vn -0.4841 -0.2591 -0.8358
vn -0.2595 0.5015 0.8253
vn -0.5169 0.5158 0.6832
vn -0.9585 0.2506 -0.1364
vn -0.9584 0.2506 -0.1363
vn -0.4840 -0.2592 -0.8358
vn -0.7062 -0.1161 -0.6984
vn 0.0279 0.4417 0.8967
vn -0.9202 0.3703 0.1270
vn -0.7063 -0.1160 -0.6983
vn -0.8589 0.0289 -0.5113
vn 0.3177 0.3395 0.8853
vn 0.0280 0.4417 0.8967
vn -0.8059 0.4574 0.3759
vn -0.8589 0.0288 -0.5113
vn 0.5698 0.2099 0.7945
vn -0.6176 0.5078 0.6006
vn -0.6176 0.5077 0.6007
vn 0.9538 -0.2978 0.0393
vn 0.7734 0.0599 0.6311
vn -0.3631 0.5124 0.7782
vn 0.8896 -0.4037 -0.2137
vn 0.7735 0.0599 0.6310
vn 0.0087 -0.9834 0.1812
vn 0.2172 -0.5694 0.7929
vn -0.9329 0.1448 -0.3296
vn 0.2316 0.3743 0.8979
vn -0.4889 0.7855 0.3794
vn -0.3237 0.3638 -0.8734
vn 0.3539 -0.4669 -0.8104
vn 0.3554 0.3228 0.8772
usemtl dhd.014
s 1
f 1/1/1 3/2/2 2/3/3
f 4/4/4 6/5/4 5/6/3
f 5/6/3 6/5/4 7/7/5
f 8/8/3 7/7/5 9/9/6
f 9/9/6 11/10/4 10/11/2
f 11/10/4 13/12/6 12/13/6
f 12/13/6 13/12/6 14/14/6
f 14/14/6 16/15/4 15/16/4
f 16/15/4 18/17/4 17/18/4
f 17/18/4 18/17/4 19/19/3
f 20/20/4 19/19/3 21/21/4
f 21/21/4 23/22/7 22/23/4
f 23/22/7 25/24/8 24/25/2
f 24/25/2 25/24/8 26/26/2
f 27/27/2 26/26/2 28/28/2
f 29/29/2 28/28/2 30/30/4
f 30/30/4 32/31/2 31/32/2
f 32/31/2 34/33/4 33/34/6
f 33/34/6 34/33/4 35/35/4
f 35/35/4 37/36/9 36/37/6
f 37/36/9 39/38/3 38/39/6
f 38/39/6 39/38/3 4/4/4
f 31/32/10 41/40/10 40/41/11
f 42/42/12 44/43/12 43/44/12
f 8/8/13 46/45/14 45/46/15
f 21/21/16 48/47/16 47/48/17
f 33/34/18 49/49/19 41/40/10
f 42/42/20 51/50/20 50/51/20
f 46/45/14 10/11/21 52/52/21
f 25/24/22 23/22/23 47/48/17
f 33/34/18 54/53/24 53/54/24
f 55/55/25 56/56/26 50/51/27
f 10/11/21 12/13/28 57/57/29
f 26/26/30 25/24/22 58/58/31
f 36/37/32 59/59/32 53/54/24
f 55/55/33 61/60/34 60/61/35
f 62/62/36 63/63/37 57/57/29
f 26/26/30 65/64/38 64/65/39
f 36/37/32 38/39/40 66/66/41
f 61/60/42 1/1/43 67/67/44
f 4/4/45 69/68/45 68/69/46
f 15/16/47 70/70/47 63/63/37
f 30/30/48 28/28/49 64/65/39
f 38/39/40 72/71/50 71/72/51
f 73/73/52 74/74/52 67/67/52
f 6/5/53 68/69/46 75/75/54
f 15/16/47 17/18/55 76/76/55
f 30/30/48 78/77/56 77/78/57
f 73/73/58 2/3/58 79/79/58
f 7/7/59 75/75/54 80/80/60
f 20/20/61 81/81/61 76/76/55
f 34/33/62 32/31/57 77/78/57
f 2/3/63 3/2/63 43/44/63
f 11/10/64 9/9/65 80/80/60
f 20/20/61 83/82/66 82/83/66
f 34/33/62 85/84/67 84/85/68
f 13/12/69 11/10/64 86/86/70
f 83/82/66 22/23/71 87/87/72
f 35/35/73 84/85/68 88/88/74
f 14/14/75 13/12/69 89/89/69
f 24/25/76 90/90/76 87/87/72
f 37/36/77 88/88/74 91/91/78
f 16/15/79 14/14/75 92/92/80
f 27/27/81 93/93/81 90/90/76
f 39/38/82 91/91/78 69/68/45
f 16/15/79 95/94/79 94/95/83
f 27/27/81 29/29/84 96/96/85
f 5/6/86 97/97/86 71/72/51
f 19/19/87 18/17/83 94/95/83
f 29/29/84 98/98/88 40/41/11
f 8/8/13 99/99/89 97/97/86
f 19/19/87 100/100/90 48/47/16
f 42/42/4 55/55/91 51/50/4
f 42/42/4 3/2/2 55/55/91
f 55/55/91 3/2/2 61/60/92
f 1/1/1 2/3/3 73/73/3
f 61/60/92 3/2/2 1/1/1
f 4/4/4 5/6/3 72/71/2
f 5/6/3 7/7/5 8/8/3
f 8/8/3 9/9/6 46/45/4
f 9/9/6 10/11/2 46/45/4
f 11/10/4 12/13/6 10/11/2
f 12/13/6 14/14/6 62/62/4
f 14/14/6 15/16/4 62/62/4
f 16/15/4 17/18/4 15/16/4
f 17/18/4 19/19/3 20/20/4
f 20/20/4 21/21/4 83/82/2
f 21/21/4 22/23/4 83/82/2
f 23/22/7 24/25/2 22/23/4
f 24/25/2 26/26/2 27/27/2
f 27/27/2 28/28/2 29/29/2
f 29/29/2 30/30/4 98/98/4
f 30/30/4 31/32/2 98/98/4
f 32/31/2 33/34/6 31/32/2
f 33/34/6 35/35/4 54/53/3
f 35/35/4 36/37/6 54/53/3
f 37/36/9 38/39/6 36/37/6
f 38/39/6 4/4/4 72/71/2
f 31/32/10 40/41/11 98/98/88
f 42/42/12 43/44/12 3/2/12
f 8/8/13 45/46/15 99/99/89
f 21/21/16 47/48/17 23/22/23
f 33/34/18 41/40/10 31/32/10
f 42/42/93 50/51/93 44/43/93
f 46/45/14 52/52/21 45/46/15
f 25/24/22 47/48/17 58/58/31
f 33/34/18 53/54/24 49/49/19
f 55/55/25 50/51/27 51/50/94
f 10/11/21 57/57/29 52/52/21
f 26/26/30 58/58/31 65/64/38
f 36/37/32 53/54/24 54/53/24
f 55/55/95 60/61/35 56/56/35
f 62/62/36 57/57/29 12/13/28
f 26/26/30 64/65/39 28/28/49
f 36/37/32 66/66/41 59/59/32
f 61/60/96 67/67/44 60/61/44
f 4/4/45 68/69/46 6/5/53
f 15/16/47 63/63/37 62/62/36
f 30/30/48 64/65/39 78/77/56
f 38/39/40 71/72/51 66/66/41
f 73/73/52 67/67/52 1/1/97
f 6/5/53 75/75/54 7/7/59
f 15/16/47 76/76/55 70/70/47
f 30/30/48 77/78/57 32/31/57
f 73/73/58 79/79/58 74/74/58
f 7/7/59 80/80/60 9/9/65
f 20/20/61 76/76/55 17/18/55
f 34/33/62 77/78/57 85/84/67
f 2/3/98 43/44/98 79/79/98
f 11/10/64 80/80/60 86/86/70
f 20/20/61 82/83/66 81/81/61
f 34/33/62 84/85/68 35/35/73
f 13/12/69 86/86/70 89/89/69
f 83/82/66 87/87/72 82/83/66
f 35/35/73 88/88/74 37/36/77
f 14/14/75 89/89/69 92/92/80
f 24/25/76 87/87/72 22/23/71
f 37/36/77 91/91/78 39/38/82
f 16/15/79 92/92/80 95/94/79
f 27/27/81 90/90/76 24/25/76
f 39/38/82 69/68/45 4/4/45
f 16/15/79 94/95/83 18/17/83
f 27/27/81 96/96/85 93/93/81
f 5/6/86 71/72/51 72/71/50
f 19/19/87 94/95/83 100/100/90
f 29/29/84 40/41/11 96/96/85
f 8/8/13 97/97/86 5/6/86
f 19/19/87 48/47/16 21/21/16
