# Blender 5.0.0
# www.blender.org
mtllib stargate_movie_origin_4.mtl
o ringorigin_4
v -0.000000 4.078362 0.083659
v -0.054753 4.077995 0.083659
v -0.109496 4.076892 0.083659
v -0.164219 4.075055 0.083659
v -0.218913 4.072483 0.083659
v -0.273567 4.069178 0.083659
v 0.273567 4.069178 0.083659
v 0.218913 4.072483 0.083659
v 0.164219 4.075055 0.083659
v 0.109496 4.076892 0.083659
v 0.054753 4.077995 0.083659
v -0.060474 4.504101 0.142119
v -0.000000 4.504506 0.142119
v -0.120937 4.502882 0.142119
v -0.181378 4.500854 0.142119
v -0.241787 4.498013 0.142119
v -0.302152 4.494361 0.142119
v 0.302152 4.494361 0.142119
v 0.241787 4.498013 0.142119
v 0.181378 4.500854 0.142119
v 0.120937 4.502882 0.142119
v 0.060474 4.504101 0.142119
v -0.300869 4.067158 0.083659
v 0.355445 4.062752 0.083659
v 0.300869 4.067158 0.083659
v -0.332307 4.492131 0.142119
v 0.392585 4.487264 0.142119
v 0.332307 4.492131 0.142119
v 0.303495 4.066963 0.083659
v 0.335207 4.491916 0.142119
v 0.353514 4.062921 0.083659
v 0.390452 4.487451 0.142119
v 0.324750 4.065276 0.083659
v 0.358683 4.490052 0.142119
v 0.331572 4.064725 0.083659
v 0.366217 4.489444 0.142119
v 0.346921 4.063486 0.083659
v 0.383170 4.488075 0.142119
v 0.310253 4.066446 0.083659
v 0.342671 4.491345 0.142119
v 0.353604 4.064039 0.075486
v 0.355535 4.063869 0.075486
v 0.390543 4.488568 0.133946
v 0.392675 4.488381 0.133946
v 0.300960 4.068275 0.075486
v 0.332397 4.493248 0.133946
v 0.303586 4.068081 0.075486
v 0.335298 4.493034 0.133946
v 0.310343 4.067564 0.075486
v 0.324840 4.066394 0.075486
v 0.342761 4.492463 0.133946
v 0.358773 4.491170 0.133946
v 0.331662 4.065843 0.075486
v 0.366307 4.490561 0.133946
v 0.347011 4.064604 0.075486
v 0.383261 4.489193 0.133946
v -0.165055 4.181410 0.088626
v -0.124544 4.196817 0.090745
v -0.021158 4.303972 0.105486
v -0.022325 4.414235 0.120654
v -0.051570 4.454805 0.126235
v 0.044400 4.454408 0.126180
v 0.015987 4.416849 0.121013
v 0.016908 4.306171 0.105788
v 0.130167 4.195187 0.090521
v 0.169755 4.184050 0.088989
v 0.114897 4.123064 0.080599
v 0.107886 4.168601 0.086864
v 0.002033 4.269475 0.100740
v -0.103501 4.168010 0.086782
v -0.106238 4.119977 0.080175
v -0.135982 4.310036 0.106320
v -0.098920 4.252244 0.098370
v -0.079412 4.324497 0.108309
v 0.081488 4.320077 0.107701
v 0.086657 4.261292 0.099615
v 0.129128 4.312833 0.106705
v 0.086657 4.260040 0.108717
v 0.111325 4.144996 0.093005
v 0.113088 4.210658 0.102016
v 0.107886 4.167336 0.096060
v 0.115350 4.294851 0.113570
v 0.115853 4.313591 0.116142
v 0.056609 4.216223 0.102623
v 0.081488 4.318830 0.116766
v 0.057269 4.265380 0.109368
v -0.000000 4.453367 0.135104
v -0.000000 4.266286 0.109439
v 0.015987 4.415621 0.129940
v 0.044400 4.453178 0.135119
v 0.002033 4.268241 0.109709
v 0.016908 4.304938 0.114757
v -0.021158 4.302738 0.114459
v -0.051570 4.453574 0.135180
v -0.057268 4.265306 0.109357
v -0.022325 4.413005 0.129588
v -0.056551 4.211906 0.102031
v -0.079412 4.323251 0.117366
v -0.110746 4.123417 0.090044
v -0.106238 4.118711 0.089386
v -0.098920 4.250988 0.107509
v -0.103501 4.166747 0.095967
v -0.113004 4.207513 0.101585
v -0.114838 4.275804 0.110957
v -0.115862 4.313920 0.116187
v -0.135982 4.308764 0.115573
v -0.124544 4.195544 0.099997
v -0.165055 4.180111 0.098067
v 0.169755 4.182748 0.098453
v 0.168503 4.181357 0.098254
v 0.168572 4.183083 0.098491
v 0.130167 4.193911 0.099799
v 0.114897 4.121793 0.089840
v 0.129128 4.311564 0.115925
vn 0.9962 -0.0866 -0.0008
vn -0.0100 -0.1355 0.9907
vn 0.0064 -0.1358 0.9907
vn 0.0082 -0.1357 0.9907
vn 0.0100 -0.1355 0.9907
vn -0.0082 -0.1357 0.9907
vn -0.0109 -0.1355 0.9907
vn -0.0116 -0.1354 0.9907
vn -0.9964 0.0850 0.0006
vn -0.0104 -0.1355 0.9907
vn -0.9972 0.0745 -0.0008
vn -0.0119 -0.1354 0.9907
vn 0.9967 -0.0813 -0.0001
vn 0.9973 -0.0739 0.0009
vn -0.9962 0.0870 0.0009
vn -0.9968 0.0796 -0.0001
vn 0.9971 -0.0762 0.0006
vn -0.0000 -0.1363 0.9907
vn -0.0027 -0.1359 0.9907
vn -0.0009 -0.1359 0.9907
vn 0.0009 -0.1359 0.9907
vn 0.0027 -0.1359 0.9907
vn 0.0046 -0.1358 0.9907
vn -0.0063 -0.1358 0.9907
vn -0.0064 -0.1357 0.9907
vn -0.0046 -0.1358 0.9907
vn -0.0042 -0.9907 -0.1362
vn -0.7747 0.6265 0.0862
vn -0.6964 0.7109 0.0978
vn -0.8002 0.5941 0.0817
vn -0.1517 -0.9792 -0.1347
vn -0.9984 0.0558 0.0077
vn -1.0000 -0.0082 -0.0011
vn 0.7255 0.6818 0.0938
vn -0.7032 -0.7043 -0.0969
vn 0.3584 -0.9249 -0.1272
vn 0.8441 0.5312 0.0731
vn -0.2733 -0.9530 -0.1311
vn 0.7229 -0.6845 -0.0942
vn -0.9660 0.2560 0.0352
vn -0.7466 0.6591 0.0907
vn 0.9999 0.0104 0.0014
vn 0.2498 -0.9593 -0.1320
vn 0.9886 0.1494 0.0205
vn 0.8138 0.5757 0.0792
vn 0.9962 0.0860 0.0118
vn 0.6933 0.7140 0.0982
vn -0.0118 -0.1354 0.9907
vn -0.0064 -0.1358 0.9907
vn -0.0042 -0.9907 -0.1363
vn 0.7256 0.6817 0.0938
vn -0.2732 -0.9530 -0.1311
vn -0.2731 -0.9530 -0.1311
vn 0.2499 -0.9592 -0.1319
vn 0.2498 -0.9593 -0.1319
vt 0.001567 0.035250
vt 0.096591 0.963739
vt 0.001567 0.963739
vt 0.415285 0.499566
vt 0.118954 0.458798
vt 0.117420 0.479728
vt 0.411243 0.803404
vt 0.114909 0.857239
vt 0.413012 0.841364
vt 0.415285 0.879297
vt 0.117420 0.899135
vt 0.118954 0.920065
vt 0.416673 0.898246
vt 0.114909 0.521624
vt 0.413012 0.537499
vt 0.384863 0.981858
vt 0.112595 0.985173
vt 0.112616 0.980388
vt 0.384822 0.990897
vt 0.112591 0.985388
vt 0.384841 0.986708
vt 0.001567 0.035251
vt 0.096591 0.963739
vt 0.096591 0.035251
vt 0.384884 0.977114
vt 0.112615 0.980173
vt 0.112635 0.975435
vt 0.001567 0.035250
vt 0.096591 0.035249
vt 0.732248 0.242565
vt 0.995423 0.240974
vt 0.995423 0.242731
vt 0.732251 0.241110
vt 0.732251 0.242721
vt 0.872236 0.277492
vt 0.882107 0.569395
vt 0.871205 0.569403
vt 0.869884 0.277492
vt 0.859433 0.569395
vt 0.859433 0.277483
vt 0.001567 0.035262
vt 0.096591 0.963738
vt 0.001567 0.963739
vt 0.001567 0.035249
vt 0.096591 0.963739
vt 0.001567 0.963739
vt 0.001567 0.035251
vt 0.096591 0.035251
vt 0.001567 0.035261
vt 0.096591 0.963739
vt 0.096591 0.035261
vt 0.001567 0.035253
vt 0.096591 0.963739
vt 0.873678 0.483521
vt 0.876668 0.464039
vt 0.852403 0.466153
vt 0.848668 0.390264
vt 0.878492 0.398242
vt 0.872523 0.375109
vt 0.825115 0.483946
vt 0.870928 0.437631
vt 0.855780 0.431548
vt 0.240504 0.632877
vt 0.110723 0.647461
vt 0.277953 0.649685
vt 0.409222 0.651432
vt 0.362271 0.612169
vt 0.346623 0.614556
vt 0.408969 0.689431
vt 0.312389 0.650144
vt 0.277953 0.649685
vt 0.146397 0.658616
vt 0.146119 0.725222
vt 0.110723 0.731402
vt 0.278006 0.729177
vt 0.315413 0.728679
vt 0.277323 0.689431
vt 0.380686 0.763164
vt 0.409222 0.727431
vt 0.347036 0.761264
vt 0.278006 0.729177
vt 0.237407 0.744546
vt 0.288025 0.758085
vt 0.247538 0.783807
vt 0.112956 0.815313
vt 0.337649 0.803984
vt 0.335566 0.572437
vt 0.335799 0.571616
vt 0.336775 0.572486
vt 0.411243 0.575459
vt 0.336775 0.572486
vt 0.378524 0.609690
vt 0.257293 0.609376
vt 0.316273 0.610945
vt 0.335566 0.572437
vt 0.096131 0.546291
vt 0.002309 0.546292
vt 0.002309 0.522781
vt 0.096131 0.158844
vt 0.002309 0.158844
vt 0.002309 0.182868
vt 0.096131 0.236715
vt 0.002309 0.236715
vt 0.002309 0.202072
vt 0.002309 0.571378
vt 0.096131 0.194405
vt 0.002309 0.194405
vt 0.002309 0.201517
vt 0.096131 0.262429
vt 0.002309 0.262429
vt 0.096131 0.630537
vt 0.002309 0.630537
vt 0.096131 0.307685
vt 0.002309 0.307685
vt 0.002309 0.265897
vt 0.096131 0.714891
vt 0.002309 0.702171
vt 0.002309 0.660597
vt 0.002309 0.330662
vt 0.096131 0.229755
vt 0.002309 0.229755
vt 0.002309 0.250632
vt 0.096131 0.736682
vt 0.002309 0.736682
vt 0.002309 0.736030
vt 0.002309 0.382218
vt 0.002309 0.339505
vt 0.096131 0.330662
vt 0.002309 0.198819
vt 0.096131 0.780343
vt 0.002309 0.780343
vt 0.002309 0.737679
vt 0.096131 0.409891
vt 0.002309 0.468828
vt 0.002309 0.409890
vt 0.096131 0.198819
vt 0.002309 0.218752
vt 0.096131 0.804964
vt 0.002309 0.804964
vt 0.002309 0.792887
vt 0.096131 0.495474
vt 0.002309 0.495474
vt 0.096131 0.251466
vt 0.002309 0.219927
vt 0.002309 0.251466
vt 0.096131 0.882736
vt 0.002309 0.882736
vt 0.002309 0.842639
vt 0.096591 0.035250
vt 0.416673 0.480617
vt 0.384844 0.986190
vt 0.112570 0.990014
vt 0.001567 0.963740
vt 0.384865 0.981404
vt 0.001567 0.963739
vt 0.732248 0.240974
vt 0.995424 0.240952
vt 0.882107 0.277483
vt 0.870976 0.569404
vt 0.096591 0.035262
vt 0.096591 0.035249
vt 0.001567 0.963738
vt 0.001567 0.963739
vt 0.096591 0.035252
vt 0.825788 0.379786
vt 0.819428 0.363220
vt 0.813897 0.388391
vt 0.794070 0.387272
vt 0.870020 0.422064
vt 0.932118 0.448873
vt 0.932282 0.409628
vt 0.916614 0.437254
vt 0.915535 0.421587
vt 0.814141 0.474834
vt 0.795344 0.477701
vt 0.820518 0.500135
vt 0.316273 0.610945
vt 0.257293 0.609376
vt 0.281686 0.629289
vt 0.244165 0.609026
vt 0.111561 0.605498
vt 0.312389 0.650144
vt 0.409980 0.613438
vt 0.275954 0.688020
vt 0.277323 0.689431
vt 0.172709 0.678336
vt 0.250246 0.677697
vt 0.110444 0.689431
vt 0.146268 0.689431
vt 0.251787 0.704116
vt 0.174541 0.704926
vt 0.146268 0.689431
vt 0.377388 0.766292
vt 0.409980 0.765425
vt 0.315414 0.728679
vt 0.111561 0.773365
vt 0.243935 0.769843
vt 0.270636 0.769132
vt 0.318476 0.767859
vt 0.326855 0.775869
vt 0.270636 0.769132
vt 0.318476 0.767859
vt 0.243935 0.769843
vt 0.377388 0.766292
vt 0.112956 0.563550
vt 0.362271 0.612169
vt 0.327998 0.599092
vt 0.245579 0.599813
vt 0.244165 0.609026
vt 0.002309 0.158844
vt 0.096131 0.158844
vt 0.002309 0.160344
vt 0.096131 0.571378
vt 0.096131 0.219926
vt 0.002309 0.714890
vt 0.002309 0.266350
vt 0.096131 0.266350
vt 0.096131 0.468828
s 0
usemtl emrysRing
f 31/1/1 43/2/1 32/3/1
f 7/4/2 28/5/2 18/6/2
f 4/7/3 16/8/3 5/9/3
f 6/10/4 16/8/4 17/11/4
f 6/10/5 26/12/5 23/13/5
f 7/4/6 19/14/6 8/15/6
f 33/16/7 36/17/7 34/18/7
f 31/19/8 38/20/8 37/21/8
f 37/22/9 56/23/9 55/24/9
f 29/25/10 40/26/10 30/27/10
f 29/28/11 48/23/11 47/29/11
f 41/30/12 44/31/12 43/32/12
f 47/33/2 46/32/2 45/34/2
f 49/35/7 52/36/7 51/37/7
f 55/38/7 54/39/7 53/40/7
f 35/41/13 54/42/13 36/43/13
f 25/44/14 46/45/14 28/46/14
f 24/47/15 44/23/15 42/48/15
f 33/49/16 52/50/16 50/51/16
f 39/52/17 51/53/17 40/3/17
f 77/54/18 75/55/18 76/56/18
f 73/57/18 74/58/18 72/59/18
f 65/60/18 64/61/18 69/62/18
f 85/63/19 22/64/19 86/65/19
f 11/66/19 79/67/19 81/68/19
f 1/69/20 11/66/20 84/70/20
f 86/71/20 22/64/20 90/72/20
f 94/73/21 12/74/21 95/75/21
f 97/76/21 1/69/21 88/77/21
f 100/78/22 2/79/22 102/80/22
f 95/81/22 98/82/22 101/83/22
f 106/84/23 15/85/23 108/86/23
f 19/14/24 111/87/24 109/88/24
f 111/87/25 110/89/25 109/88/25
f 9/90/26 110/91/26 113/92/26
f 82/93/26 80/94/26 111/95/26
f 62/96/27 90/97/27 87/98/27
f 76/99/28 78/100/28 82/101/28
f 70/102/29 102/103/29 97/104/29
f 62/96/30 89/105/30 90/97/30
f 77/106/31 114/107/31 83/108/31
f 102/103/32 71/109/32 100/110/32
f 89/105/33 64/111/33 92/112/33
f 57/113/34 108/114/34 99/115/34
f 65/116/35 80/117/35 86/118/35
f 57/113/36 107/119/36 108/114/36
f 72/120/37 106/121/37 104/122/37
f 66/123/38 109/124/38 111/125/38
f 95/126/39 103/127/39 58/128/39
f 98/129/40 73/99/40 101/100/40
f 67/130/41 113/131/41 110/132/41
f 59/133/42 96/134/42 93/135/42
f 74/136/43 98/129/43 105/137/43
f 68/138/44 81/139/44 79/140/44
f 96/134/45 61/141/45 94/142/45
f 76/143/46 85/144/46 78/145/46
f 69/146/47 91/147/47 84/148/47
f 31/1/1 41/149/1 43/2/1
f 7/4/2 25/150/2 28/5/2
f 4/7/3 15/85/3 16/8/3
f 6/10/4 5/9/4 16/8/4
f 6/10/5 17/11/5 26/12/5
f 7/4/6 18/6/6 19/14/6
f 33/16/7 35/151/7 36/17/7
f 31/19/8 32/152/8 38/20/8
f 37/22/9 38/153/9 56/23/9
f 29/25/10 39/154/10 40/26/10
f 29/28/11 30/155/11 48/23/11
f 41/30/48 42/156/48 44/31/48
f 47/33/2 48/157/2 46/32/2
f 49/35/7 50/158/7 52/36/7
f 55/38/7 56/159/7 54/39/7
f 35/41/13 53/160/13 54/42/13
f 25/44/14 45/161/14 46/45/14
f 24/47/15 27/162/15 44/23/15
f 33/49/16 34/163/16 52/50/16
f 39/52/17 49/164/17 51/53/17
f 58/165/18 57/166/18 70/167/18
f 57/166/18 71/168/18 70/167/18
f 59/169/18 58/165/18 69/62/18
f 58/165/18 70/167/18 69/62/18
f 62/170/18 61/171/18 63/172/18
f 61/171/18 60/173/18 63/172/18
f 60/173/18 59/169/18 64/61/18
f 59/169/18 69/62/18 64/61/18
f 68/174/18 67/175/18 66/176/18
f 64/61/18 63/172/18 60/173/18
f 68/174/18 66/176/18 65/60/18
f 68/174/18 65/60/18 69/62/18
f 80/177/19 82/178/19 78/179/19
f 85/63/19 83/180/19 21/181/19
f 86/65/19 80/177/19 78/179/19
f 85/63/19 21/181/19 22/64/19
f 86/65/19 78/179/19 85/63/19
f 81/68/19 84/182/19 11/66/19
f 11/66/19 10/183/19 79/67/19
f 84/70/20 91/184/20 88/185/20
f 88/185/20 1/69/20 84/70/20
f 89/186/20 92/187/20 86/71/20
f 22/64/20 13/188/20 90/72/20
f 13/188/20 87/189/20 90/72/20
f 90/72/20 89/186/20 86/71/20
f 93/190/21 96/191/21 95/75/21
f 96/191/21 94/73/21 95/75/21
f 94/73/21 87/192/21 13/188/21
f 94/73/21 13/188/21 12/74/21
f 97/76/21 2/79/21 1/69/21
f 100/78/22 99/193/22 3/194/22
f 3/194/22 2/79/22 100/78/22
f 2/79/22 97/195/22 102/80/22
f 95/81/22 12/74/22 98/82/22
f 12/74/22 14/196/22 98/82/22
f 14/196/22 105/197/22 98/82/22
f 101/83/22 104/198/22 103/199/22
f 101/83/22 103/199/22 95/81/22
f 108/86/23 107/200/23 104/201/23
f 107/200/23 103/202/23 104/201/23
f 104/201/23 106/84/23 108/86/23
f 106/84/23 105/203/23 15/85/23
f 105/203/23 14/196/23 15/85/23
f 4/7/23 3/194/23 99/204/23
f 4/7/23 99/204/23 108/86/23
f 15/85/23 4/7/23 108/86/23
f 109/88/24 110/89/24 8/15/24
f 110/89/49 9/90/49 8/15/49
f 8/15/49 19/14/49 109/88/49
f 19/14/49 20/205/49 111/87/49
f 113/92/26 79/206/26 10/183/26
f 10/183/26 9/90/26 113/92/26
f 80/94/26 112/207/26 111/95/26
f 111/95/26 20/205/26 114/208/26
f 20/205/26 21/181/26 114/208/26
f 21/181/26 83/209/26 114/208/26
f 114/208/26 82/93/26 111/95/26
f 94/142/50 61/141/50 87/98/50
f 61/141/50 62/96/50 87/98/50
f 82/101/28 114/107/28 77/106/28
f 77/106/28 76/99/28 82/101/28
f 91/210/29 69/211/29 88/212/29
f 69/211/29 70/102/29 97/104/29
f 88/212/29 69/211/29 97/104/29
f 62/96/30 63/213/30 89/105/30
f 85/144/31 75/214/31 83/108/31
f 75/214/31 77/106/31 83/108/31
f 102/103/32 70/102/32 71/109/32
f 89/105/33 63/213/33 64/111/33
f 99/115/34 100/110/34 71/109/34
f 71/109/51 57/113/51 99/115/51
f 92/112/35 64/111/35 86/118/35
f 64/111/35 65/116/35 86/118/35
f 65/116/35 112/215/35 80/117/35
f 57/113/36 58/128/36 107/119/36
f 104/122/37 101/216/37 73/217/37
f 73/217/37 72/120/37 104/122/37
f 112/215/52 65/116/52 111/125/52
f 65/116/53 66/123/53 111/125/53
f 103/127/39 107/119/39 58/128/39
f 58/128/39 59/133/39 95/126/39
f 59/133/39 93/135/39 95/126/39
f 98/129/40 74/136/40 73/99/40
f 110/132/41 109/124/41 66/123/41
f 66/123/41 67/130/41 110/132/41
f 59/133/42 60/218/42 96/134/42
f 106/121/54 72/120/54 105/137/54
f 72/120/55 74/136/55 105/137/55
f 79/140/44 113/131/44 67/130/44
f 67/130/44 68/138/44 79/140/44
f 96/134/45 60/218/45 61/141/45
f 76/143/46 75/214/46 85/144/46
f 81/139/47 68/138/47 84/148/47
f 68/138/47 69/146/47 84/148/47
