# Blender 5.2.0 LTS
# www.blender.org
mtllib stargate_movie_origin_1.mtl
o ringorigin_1
v -0.000000 2.471735 0.050702
v -0.033184 2.471512 0.050702
v -0.066361 2.470844 0.050702
v -0.099527 2.469730 0.050702
v -0.132674 2.468172 0.050702
v -0.165798 2.466168 0.050702
v 0.165798 2.466168 0.050702
v 0.132674 2.468172 0.050702
v 0.099527 2.469730 0.050702
v 0.066361 2.470844 0.050702
v 0.033184 2.471512 0.050702
v -0.036651 2.729758 0.086133
v -0.000000 2.730004 0.086133
v -0.073295 2.729020 0.086133
v -0.109926 2.727790 0.086133
v -0.146537 2.726068 0.086133
v -0.183122 2.723855 0.086133
v 0.183122 2.723855 0.086133
v 0.146537 2.726068 0.086133
v 0.109926 2.727790 0.086133
v 0.073295 2.729020 0.086133
v 0.036651 2.729758 0.086133
v -0.182345 2.464944 0.050702
v 0.215421 2.462274 0.050702
v 0.182345 2.464944 0.050702
v -0.201398 2.722503 0.086133
v 0.237930 2.719554 0.086133
v 0.201398 2.722503 0.086133
v 0.183937 2.464826 0.050702
v 0.203156 2.722373 0.086133
v 0.214251 2.462376 0.050702
v 0.236638 2.719667 0.086133
v 0.196818 2.463804 0.050702
v 0.217383 2.721244 0.086133
v 0.200953 2.463470 0.050702
v 0.221950 2.720875 0.086133
v 0.210255 2.462719 0.050702
v 0.232224 2.720046 0.086133
v 0.188032 2.464513 0.050702
v 0.207680 2.722027 0.086133
v 0.214306 2.463054 0.045749
v 0.215476 2.462951 0.045749
v 0.236693 2.720345 0.081179
v 0.237985 2.720231 0.081179
v 0.182400 2.465621 0.045749
v 0.201453 2.723181 0.081179
v 0.183991 2.465504 0.045749
v 0.203211 2.723051 0.081179
v 0.188087 2.465190 0.045749
v 0.196873 2.464481 0.045749
v 0.207734 2.722705 0.081179
v 0.217438 2.721921 0.081179
v 0.201007 2.464147 0.045749
v 0.222005 2.721552 0.081179
v 0.210310 2.463396 0.045749
v 0.232279 2.720723 0.081179
v 0.004894 2.521256 0.051847
v 0.008523 2.517725 0.051361
v 0.010950 2.511084 0.050448
v 0.007579 2.505865 0.049730
v 0.001553 2.502057 0.049206
v 0.002254 2.513461 0.050775
v 0.000545 2.522938 0.052078
v 0.000743 2.544023 0.054979
v 0.009694 2.537952 0.054144
v 0.018171 2.529664 0.053004
v 0.018909 2.521532 0.051885
v 0.014569 2.514140 0.050868
v 0.011655 2.522905 0.052074
v 0.004394 2.529699 0.053008
v -0.003100 2.534727 0.053700
v -0.006024 2.547375 0.055440
v -0.016703 2.574132 0.059121
v -0.012824 2.565995 0.058001
v -0.005567 2.558851 0.057019
v 0.005798 2.553326 0.056259
v 0.016935 2.546168 0.055274
v 0.019364 2.540150 0.054446
v 0.021067 2.534675 0.053693
v 0.025416 2.540908 0.054550
v 0.024923 2.547740 0.055490
v 0.019825 2.555937 0.056618
v 0.009647 2.563818 0.057702
v -0.004148 2.571918 0.058816
v -0.018892 2.581048 0.060072
v -0.018468 2.603039 0.063097
v -0.004687 2.597314 0.062310
v 0.011537 2.589680 0.061260
v 0.025364 2.579855 0.059908
v 0.031440 2.570065 0.058561
v 0.032175 2.562904 0.057576
v 0.026851 2.555705 0.056586
v 0.026599 2.562634 0.057539
v 0.023683 2.568388 0.058331
v 0.017619 2.573145 0.058985
v 0.003567 2.581562 0.060143
v -0.014814 2.589873 0.061286
v -0.021339 2.594208 0.061883
v -0.024973 2.599633 0.062629
v -0.026193 2.605196 0.063394
v -0.026447 2.609452 0.063979
v -0.025542 2.630792 0.066915
v -0.011519 2.625084 0.066130
v 0.013187 2.615813 0.064854
v 0.027027 2.606494 0.063573
v 0.034320 2.598562 0.062481
v 0.039916 2.589261 0.061202
v 0.039197 2.580590 0.060009
v 0.035318 2.573647 0.059054
v 0.033367 2.582764 0.060308
v 0.028987 2.591153 0.061462
v 0.015393 2.601204 0.062845
v 0.001093 2.608339 0.063826
v -0.019710 2.616218 0.064910
v -0.029135 2.621130 0.065586
v -0.033013 2.628362 0.066581
v -0.033277 2.636291 0.067672
v -0.001649 2.646507 0.069077
v 0.028937 2.632454 0.067144
v 0.037451 2.625752 0.066222
v 0.044270 2.617585 0.065098
v 0.047196 2.608723 0.063879
v 0.046471 2.601992 0.062953
v 0.042099 2.595031 0.061996
v 0.041123 2.600937 0.062808
v 0.039416 2.606068 0.063514
v 0.035520 2.612286 0.064369
v 0.028467 2.619447 0.065355
v 0.020691 2.624285 0.066020
v 0.001286 2.632574 0.067160
v -0.017115 2.639627 0.068130
v -0.026784 2.642987 0.068593
v -0.033549 2.646356 0.069056
v -0.037665 2.650556 0.069634
v -0.040576 2.656301 0.070424
v -0.042040 2.662369 0.071259
v 0.028178 2.656486 0.070450
v 0.040348 2.650262 0.069593
v 0.048876 2.642417 0.068514
v 0.054245 2.632280 0.067120
v 0.054007 2.623078 0.065854
v 0.049138 2.616416 0.064937
v 0.047184 2.625558 0.066195
v 0.044257 2.632011 0.067083
v 0.040117 2.637507 0.067839
v 0.033299 2.643030 0.068599
v 0.021142 2.648073 0.069292
v 0.007545 2.653281 0.070009
v -0.007488 2.658976 0.070792
v -0.025884 2.666050 0.071765
v -0.037964 2.669564 0.072249
v -0.044493 2.674563 0.072936
v -0.048614 2.681752 0.073925
v -0.049845 2.688651 0.074874
v 0.022557 2.678372 0.073460
v 0.013317 2.682412 0.074016
v 0.000690 2.686425 0.074568
v -0.012403 2.689923 0.075049
v -0.023780 2.691296 0.075238
v -0.033927 2.690765 0.075165
v -0.040437 2.688036 0.074790
v -0.052041 2.696579 0.075965
v -0.047472 2.700024 0.076439
v -0.040004 2.703451 0.076910
v -0.029134 2.703768 0.076954
v -0.017276 2.701956 0.076705
v -0.005883 2.698677 0.076254
v 0.012570 2.693257 0.075508
v 0.020352 2.689670 0.075015
v 0.025221 2.685870 0.074492
v 0.031562 2.672685 0.072678
v 0.034590 2.576285 0.065077
v 0.035318 2.572883 0.064612
v 0.034867 2.596891 0.067904
v 0.035069 2.611981 0.069974
v 0.035520 2.611523 0.069913
v 0.039197 2.579825 0.065575
v 0.039916 2.588495 0.066766
v 0.039416 2.605304 0.069071
v 0.037451 2.624990 0.071765
v 0.035267 2.626709 0.071995
v 0.040117 2.636744 0.073385
v 0.035453 2.640525 0.073890
v 0.035606 2.651927 0.075455
v 0.040348 2.649500 0.075135
v 0.042099 2.594266 0.067564
v 0.041123 2.600172 0.068371
v 0.046471 2.601225 0.068531
v 0.054245 2.631511 0.072706
v 0.054007 2.622309 0.071443
v 0.047196 2.607956 0.069456
v 0.049138 2.615649 0.070516
v 0.047184 2.624792 0.071765
v 0.048876 2.641652 0.074082
v 0.044270 2.616819 0.070663
v 0.044257 2.631247 0.072642
v 0.008869 2.516013 0.056785
v 0.008523 2.516962 0.056915
v 0.010950 2.510320 0.056006
v 0.014569 2.513375 0.056428
v 0.014156 2.514620 0.056599
v 0.007579 2.505100 0.055287
v 0.011655 2.522141 0.057628
v 0.009694 2.537189 0.059691
v 0.018909 2.520767 0.057446
v 0.021067 2.533911 0.059251
v 0.018171 2.528900 0.058561
v 0.019364 2.539386 0.060001
v 0.016935 2.545404 0.060824
v 0.019825 2.555174 0.062167
v 0.023683 2.567625 0.063879
v 0.017619 2.572382 0.064526
v 0.024923 2.546975 0.061047
v 0.026851 2.554941 0.062142
v 0.028987 2.590391 0.067007
v 0.025364 2.579093 0.065454
v 0.033367 2.582000 0.065860
v 0.034320 2.597799 0.068028
v 0.033299 2.642270 0.074128
v 0.032175 2.562139 0.063134
v 0.031440 2.569301 0.064116
v 0.031562 2.671926 0.078195
v 0.025416 2.540143 0.060110
v 0.026599 2.561870 0.063092
v 0.027027 2.605733 0.069110
v 0.028467 2.618686 0.070888
v 0.028937 2.631693 0.072673
v 0.028178 2.655727 0.075969
v -0.000000 2.685855 0.080076
v -0.000000 2.667347 0.077537
v 0.000690 2.685670 0.080052
v -0.000000 2.696195 0.081495
v -0.000000 2.531885 0.058954
v 0.000545 2.522175 0.057623
v -0.000000 2.543629 0.060565
v 0.000743 2.543261 0.060515
v 0.002254 2.512697 0.056324
v 0.001553 2.501293 0.054759
v 0.004894 2.520493 0.057396
v 0.004394 2.528936 0.058554
v 0.005798 2.552564 0.061796
v -0.000000 2.555384 0.062178
v 0.003567 2.580802 0.065668
v -0.000000 2.568723 0.064008
v -0.000000 2.582416 0.065886
v -0.000000 2.594350 0.067523
v -0.000000 2.607995 0.069395
v 0.001093 2.607581 0.069339
v -0.000000 2.620003 0.071043
v -0.000000 2.632309 0.072731
v 0.001286 2.631817 0.072664
v -0.000000 2.644993 0.074471
v -0.000000 2.655384 0.075896
v 0.013187 2.615053 0.070376
v 0.009647 2.563056 0.063239
v 0.015393 2.600444 0.068373
v 0.011537 2.588919 0.066789
v 0.013317 2.681656 0.079513
v 0.012570 2.692502 0.081000
v 0.022557 2.677614 0.078967
v 0.025221 2.685113 0.079998
v 0.020691 2.623525 0.071545
v 0.021142 2.647314 0.074809
v 0.020352 2.688913 0.080515
v 0.007545 2.652524 0.075511
v -0.018892 2.580286 0.065611
v -0.016703 2.573370 0.064661
v -0.014814 2.589112 0.066818
v -0.006024 2.546613 0.060980
v -0.005567 2.558089 0.062554
v -0.012824 2.565233 0.063541
v -0.007488 2.658220 0.076292
v -0.004687 2.596555 0.067830
v -0.011519 2.624325 0.071646
v -0.003100 2.533965 0.059242
v -0.004148 2.571158 0.064346
v -0.001649 2.645751 0.074576
v -0.033277 2.635530 0.073203
v -0.033549 2.645595 0.074584
v -0.035548 2.647636 0.074866
v -0.035703 2.659120 0.076442
v -0.033927 2.690006 0.080677
v -0.036012 2.682189 0.079607
v -0.036105 2.689094 0.080554
v -0.036289 2.702801 0.082435
v -0.026193 2.604434 0.068931
v -0.033013 2.627601 0.072115
v -0.026447 2.608690 0.069515
v -0.029135 2.620368 0.071119
v -0.025542 2.630031 0.072442
v -0.026784 2.642227 0.074116
v -0.029134 2.703011 0.082457
v -0.025884 2.665292 0.077279
v -0.035824 2.668182 0.077685
v -0.024973 2.598871 0.068167
v -0.018468 2.602278 0.068628
v -0.019710 2.615458 0.070437
v -0.017115 2.638869 0.073646
v -0.012403 2.689168 0.080542
v -0.005883 2.697922 0.081737
v -0.021339 2.593447 0.067419
v -0.017276 2.701200 0.082197
v -0.023780 2.690539 0.080741
v -0.042040 2.661606 0.076800
v -0.040576 2.655539 0.075964
v -0.040437 2.687276 0.080317
v -0.037665 2.649795 0.075168
v -0.037964 2.668804 0.077776
v -0.052041 2.695815 0.081520
v -0.048614 2.680988 0.079477
v -0.049845 2.687887 0.080427
v -0.047472 2.699262 0.081980
v -0.044493 2.673801 0.078480
v -0.040004 2.702692 0.082430
vn 0.9962 -0.0866 -0.0008
vn -0.0100 -0.1355 0.9907
vn 0.0046 -0.1358 0.9907
vn 0.0064 -0.1358 0.9907
vn 0.0082 -0.1357 0.9907
vn 0.0100 -0.1355 0.9907
vn -0.0082 -0.1357 0.9907
vn -0.0064 -0.1358 0.9907
vn -0.0046 -0.1358 0.9907
vn -0.0109 -0.1355 0.9907
vn -0.0116 -0.1354 0.9907
vn -0.9964 0.0850 0.0006
vn -0.0104 -0.1355 0.9907
vn -0.9972 0.0745 -0.0008
vn -0.0119 -0.1354 0.9907
vn 0.9967 -0.0813 -0.0001
vn 0.9973 -0.0739 0.0009
vn -0.9962 0.0870 0.0009
vn -0.9968 0.0796 -0.0001
vn 0.9971 -0.0762 0.0006
vn -0.0000 -0.1363 0.9907
vn -0.0027 -0.1359 0.9907
vn -0.0009 -0.1359 0.9907
vn 0.0009 -0.1359 0.9907
vn 0.0028 -0.1359 0.9907
vn -0.5640 -0.8180 -0.1125
vn -0.7453 -0.6605 -0.0909
vn -0.7454 -0.6604 -0.0909
vn 0.8152 0.5738 0.0789
vn 0.9394 0.3397 0.0467
vn 0.9394 0.3396 0.0467
vn -0.5099 -0.8522 -0.1172
vn -0.5200 -0.8462 -0.1164
vn -0.5640 -0.8181 -0.1125
vn 0.9726 0.2303 0.0317
vn -0.5300 -0.8401 -0.1156
vn -0.3842 -0.9146 -0.1258
vn -0.5136 -0.8500 -0.1169
vn -0.6300 -0.7693 -0.1058
vn -0.5135 -0.8501 -0.1169
vn -0.4587 -0.8803 -0.1211
vn -0.4218 -0.8982 -0.1235
vn -0.5749 -0.8106 -0.1115
vn -0.4080 -0.9045 -0.1244
vn -0.5750 -0.8105 -0.1115
vn -0.7944 -0.6017 -0.0828
vn -0.7945 -0.6016 -0.0827
vn -0.4291 -0.8948 -0.1231
vn -0.5080 -0.8533 -0.1174
vn -0.9739 -0.2247 -0.0309
vn -0.9740 -0.2245 -0.0309
vn -0.7318 -0.6752 -0.0929
vn -0.7318 -0.6751 -0.0929
vn -0.9473 0.3174 0.0437
vn -0.9473 0.3173 0.0436
vn -0.9472 -0.3176 -0.0437
vn -0.9473 -0.3175 -0.0437
vn -0.8100 0.5810 0.0799
vn -0.9650 0.2599 0.0357
vn 0.9507 0.3072 0.0423
vn 0.9783 0.2052 0.0282
vn 0.9507 0.3073 0.0423
vn -0.8066 0.5856 0.0805
vn -0.8066 0.5855 0.0805
vn 0.8620 0.5021 0.0691
vn 0.8620 0.5023 0.0691
vn 0.9688 0.2456 0.0338
vn 0.9994 0.0356 0.0049
vn 0.9688 0.2457 0.0338
vn 0.7227 0.6847 0.0942
vn 0.7226 0.6848 0.0942
vn 0.7756 0.6253 0.0860
vn 0.7755 0.6254 0.0860
vn 0.6330 0.7669 0.1055
vn 0.5702 0.8138 0.1119
vn 0.5702 0.8138 0.1120
vn 0.3734 0.9190 0.1264
vn 0.5150 0.8492 0.1168
vn 0.4671 0.8759 0.1205
vn 0.4671 0.8760 0.1205
vn 0.3589 0.9247 0.1272
vn 0.4152 0.9012 0.1240
vn 0.3572 0.9253 0.1273
vn 0.7088 0.6988 0.0961
vn 0.4877 0.8649 0.1190
vn 0.3221 0.9379 0.1290
vn 0.3595 0.9244 0.1272
vn 0.3595 0.9244 0.1271
vn 0.7089 0.6987 0.0961
vn 0.9211 0.3857 0.0531
vn 0.2817 0.9505 0.1307
vn 0.9907 0.1348 0.0185
vn 0.7553 0.6493 0.0893
vn 0.4547 0.8823 0.1214
vn 0.4545 0.8824 0.1214
vn 0.9983 0.0584 0.0080
vn 0.7554 0.6491 0.0893
vn 0.9408 0.3358 0.0462
vn 0.9408 0.3357 0.0462
vn -0.4849 -0.8664 -0.1192
vn -0.5831 -0.8048 -0.1107
vn -0.4848 -0.8664 -0.1192
vn 0.9847 0.1725 0.0237
vn -0.3672 -0.9215 -0.1267
vn 0.4720 0.8733 0.1201
vn 0.5375 0.8354 0.1149
vn 0.4720 0.8734 0.1201
vn -0.3542 -0.9264 -0.1274
vn -0.4613 -0.8790 -0.1209
vn 0.3551 0.9261 0.1274
vn -0.4614 -0.8789 -0.1209
vn -0.6552 -0.7484 -0.1030
vn -0.6553 -0.7483 -0.1029
vn 0.2832 0.9501 0.1307
vn 0.2830 0.9502 0.1307
vn -0.8032 -0.5901 -0.0812
vn 0.2606 0.9564 0.1316
vn -0.8590 -0.5072 -0.0698
vn -0.9742 -0.2237 -0.0308
vn 0.0342 0.9901 0.1362
vn 0.1911 0.9724 0.1338
vn -0.9742 -0.2235 -0.0307
vn -0.9572 0.2868 0.0395
vn -0.9572 0.2868 0.0394
vn -0.3637 -0.9228 -0.1269
vn -0.5432 -0.8318 -0.1144
vn -0.5433 -0.8317 -0.1144
vn 0.0341 0.9901 0.1362
vn -0.2246 0.9654 0.1328
vn -0.2247 0.9653 0.1328
vn -0.8750 0.4797 0.0660
vn -0.8414 -0.5354 -0.0736
vn -0.8414 -0.5353 -0.0736
vn -0.3896 0.9124 0.1255
vn 0.9417 0.3333 0.0458
vn 0.9417 0.3332 0.0458
vn 0.9782 0.2055 0.0283
vn -0.9939 0.1097 0.0151
vn -0.9402 -0.3373 -0.0464
vn 0.5964 0.7952 0.1094
vn 0.7627 0.6408 0.0881
vn 0.7626 0.6408 0.0882
vn -0.7067 0.7010 0.0964
vn -0.7066 0.7010 0.0964
vn 0.5162 -0.8485 -0.1167
vn 0.6056 -0.7883 -0.1084
vn 0.5160 -0.8486 -0.1167
vn 0.5260 0.8425 0.1159
vn 0.5260 0.8426 0.1159
vn -0.5378 0.8352 0.1149
vn 0.2298 -0.9642 -0.1326
vn 0.2295 -0.9642 -0.1326
vn 0.4040 0.9062 0.1247
vn 0.9983 0.0574 0.0079
vn 0.9982 -0.0602 -0.0083
vn 0.0294 -0.9902 -0.1362
vn -0.0618 -0.9888 -0.1360
vn 0.3571 0.9253 0.1273
vn 0.9844 0.1742 0.0240
vn -0.2161 -0.9673 -0.1330
vn -0.2162 -0.9672 -0.1330
vn 0.7057 0.7019 0.0965
vn 0.4121 0.9027 0.1242
vn 0.4120 0.9027 0.1242
vn -0.4473 -0.8861 -0.1219
vn -0.5073 -0.8537 -0.1174
vn -0.2816 -0.9506 -0.1308
vn 0.7058 0.7018 0.0965
vn 0.9662 0.2553 0.0351
vn -0.6362 -0.7643 -0.1051
vn -0.2843 -0.9498 -0.1306
vn -0.3540 -0.9265 -0.1274
vn 0.9995 0.0327 0.0045
vn -0.9044 -0.4227 -0.0581
vn -0.9045 -0.4226 -0.0581
vn -0.3541 -0.9265 -0.1274
vn -0.5238 -0.8439 -0.1161
vn -0.5239 -0.8438 -0.1161
vn -0.3685 -0.9210 -0.1267
vn -0.9762 0.2148 0.0295
vn -0.9762 0.2149 0.0295
vn -0.7812 -0.6184 -0.0851
vn -0.7813 -0.6183 -0.0851
vn -0.4206 -0.8988 -0.1236
vn -0.3948 -0.9102 -0.1252
vn -0.5251 -0.8431 -0.1160
vn -0.8644 0.4981 0.0685
vn -0.9028 -0.4261 -0.0586
vn -0.6221 -0.7756 -0.1067
vn -0.7001 -0.7074 -0.0973
vn 0.8440 0.5313 0.0731
vn 0.9498 0.3099 0.0426
vn -0.7002 -0.7073 -0.0973
vn -0.8759 -0.4781 -0.0658
vn -0.8759 -0.4779 -0.0657
vn 0.6257 0.7728 0.1063
vn -0.9945 -0.1038 -0.0143
vn -0.9945 -0.1037 -0.0143
vn 0.5607 0.8203 0.1128
vn -0.9456 0.3224 0.0443
vn -0.9456 0.3223 0.0443
vn 0.9748 0.2212 0.0304
vn 0.9748 0.2211 0.0304
vn -0.8490 0.5234 0.0720
vn 0.9542 0.2964 0.0408
vn 0.9314 0.3606 0.0496
vn 0.9713 0.2357 0.0324
vn 0.9869 0.1601 0.0220
vn 0.9713 0.2358 0.0324
vn 0.8168 0.5715 0.0786
vn 0.9061 0.4191 0.0577
vn 0.9061 0.4192 0.0577
vn 0.5805 0.8067 0.1110
vn 0.7874 0.6106 0.0840
vn 0.7874 0.6107 0.0840
vn 0.4405 0.8894 0.1223
vn 0.4933 0.8617 0.1185
vn 0.7158 0.6918 0.0952
vn 0.6282 0.7708 0.1060
vn 0.7726 0.6290 0.0865
vn 0.4653 0.8769 0.1206
vn 0.4652 0.8769 0.1206
vn 0.7727 0.6289 0.0865
vn 0.9429 0.3301 0.0454
vn 0.3785 0.9170 0.1261
vn 0.9557 0.2917 0.0401
vn 0.3609 0.9239 0.1271
vn -0.8226 0.5634 0.0775
vn -0.9646 0.2612 0.0359
vn 0.3908 0.9119 0.1254
vn 0.3460 0.9295 0.1278
vn -0.9518 -0.3038 -0.0418
vn 0.3909 0.9119 0.1254
vn 0.5916 0.7987 0.1099
vn 0.5916 0.7987 0.1098
vn -0.9518 -0.3039 -0.0418
vn 0.8151 0.5739 0.0789
vn 0.7175 0.6900 0.0949
vn -0.0118 -0.1354 0.9907
vn -0.0028 -0.1359 0.9907
vn -0.0026 -0.1359 0.9907
vn -0.0008 -0.1359 0.9907
vn -0.0010 -0.1359 0.9907
vn 0.0010 -0.1359 0.9907
vn 0.0027 -0.1359 0.9907
vn -0.3637 -0.9228 -0.1270
vn -0.9938 0.1097 0.0151
vn 0.6057 -0.7882 -0.1084
vn -0.0617 -0.9888 -0.1360
vn -0.4472 -0.8861 -0.1219
vn -0.3946 -0.9103 -0.1252
vn -0.5252 -0.8431 -0.1160
vn 0.8441 0.5312 0.0731
vn 0.9498 0.3098 0.0426
vn 0.5608 0.8203 0.1128
vn 0.5804 0.8067 0.1110
vn 0.6283 0.7707 0.1060
vt 0.001567 0.035250
vt 0.096591 0.963739
vt 0.001567 0.963739
vt 0.415285 0.499566
vt 0.118954 0.458798
vt 0.117420 0.479728
vt 0.411243 0.803404
vt 0.111561 0.773365
vt 0.112956 0.815313
vt 0.114909 0.857239
vt 0.413012 0.841364
vt 0.415285 0.879297
vt 0.117420 0.899135
vt 0.118954 0.920065
vt 0.416673 0.898246
vt 0.114909 0.521624
vt 0.413012 0.537499
vt 0.411243 0.575459
vt 0.112956 0.563550
vt 0.111561 0.605498
vt 0.409980 0.613438
vt 0.384863 0.981858
vt 0.112595 0.985173
vt 0.112616 0.980388
vt 0.384822 0.990897
vt 0.112591 0.985388
vt 0.384841 0.986708
vt 0.001567 0.035251
vt 0.096591 0.963739
vt 0.096591 0.035251
vt 0.384884 0.977114
vt 0.112615 0.980173
vt 0.112635 0.975435
vt 0.001567 0.035250
vt 0.096591 0.035249
vt 0.000000 0.000000
vt 0.872236 0.277492
vt 0.882107 0.569395
vt 0.871205 0.569403
vt 0.869884 0.277492
vt 0.859433 0.569395
vt 0.859433 0.277483
vt 0.001567 0.035262
vt 0.096591 0.963738
vt 0.001567 0.963739
vt 0.001567 0.035249
vt 0.096591 0.963739
vt 0.001567 0.963739
vt 0.001567 0.035251
vt 0.096591 0.035251
vt 0.001567 0.035261
vt 0.096591 0.963739
vt 0.096591 0.035261
vt 0.001567 0.035253
vt 0.096591 0.963739
vt 0.757769 0.450990
vt 0.765350 0.448244
vt 0.760482 0.441155
vt 0.779018 0.443575
vt 0.771263 0.451787
vt 0.778979 0.459156
vt 0.805990 0.445162
vt 0.797819 0.457757
vt 0.808971 0.461026
vt 0.828614 0.458531
vt 0.823185 0.465389
vt 0.836275 0.467290
vt 0.849172 0.471388
vt 0.839595 0.476341
vt 0.847012 0.483748
vt 0.961924 0.424579
vt 0.975659 0.419069
vt 0.963491 0.411713
vt 0.923753 0.470472
vt 0.914149 0.462516
vt 0.908393 0.476264
vt 0.896319 0.471330
vt 0.886994 0.462005
vt 0.881472 0.470800
vt 0.241262 0.638736
vt 0.251505 0.635386
vt 0.242613 0.633162
vt 0.333311 0.678330
vt 0.342891 0.668623
vt 0.337099 0.665307
vt 0.364368 0.676892
vt 0.359398 0.673221
vt 0.357788 0.679275
vt 0.254082 0.658481
vt 0.263251 0.650130
vt 0.246858 0.649272
vt 0.200686 0.648658
vt 0.110723 0.647461
vt 0.177570 0.653289
vt 0.224075 0.656295
vt 0.213865 0.648833
vt 0.211849 0.651299
vt 0.196696 0.689431
vt 0.193416 0.698006
vt 0.207830 0.691320
vt 0.143735 0.709214
vt 0.147525 0.696168
vt 0.110444 0.689431
vt 0.242842 0.712002
vt 0.237164 0.722795
vt 0.250663 0.719717
vt 0.157644 0.703635
vt 0.156057 0.716662
vt 0.165706 0.730671
vt 0.167089 0.745102
vt 0.159114 0.746511
vt 0.001967 0.389507
vt 0.096158 0.427731
vt 0.001967 0.427731
vt 0.001967 0.402638
vt 0.096158 0.421837
vt 0.001967 0.421837
vt 0.001967 0.356324
vt 0.096158 0.342057
vt 0.096158 0.389507
vt 0.096158 0.440472
vt 0.001967 0.440472
vt 0.001967 0.342056
vt 0.096158 0.290606
vt 0.001967 0.649376
vt 0.001967 0.533957
vt 0.096158 0.489622
vt 0.001967 0.328792
vt 0.096158 0.359194
vt 0.096158 0.328792
vt 0.001967 0.764422
vt 0.096158 0.739686
vt 0.096158 0.780213
vt 0.001967 0.284575
vt 0.096158 0.284575
vt 0.001967 0.780212
vt 0.096158 0.814649
vt 0.001967 0.814649
vt 0.001967 0.269221
vt 0.096158 0.231428
vt 0.096158 0.848843
vt 0.001967 0.848843
vt 0.001967 0.231428
vt 0.096158 0.181077
vt 0.001967 0.181078
vt 0.096158 0.876336
vt 0.001967 0.876336
vt 0.096158 0.146751
vt 0.001967 0.146751
vt 0.001967 0.900905
vt 0.096158 0.900905
vt 0.096158 0.125251
vt 0.001967 0.125252
vt 0.001967 0.126507
vt 0.096158 0.098594
vt 0.096158 0.126507
vt 0.001967 0.098595
vt 0.001967 0.147637
vt 0.096158 0.147637
vt 0.001967 0.582119
vt 0.096158 0.602830
vt 0.096158 0.582119
vt 0.001967 0.168120
vt 0.096158 0.168120
vt 0.001967 0.562886
vt 0.096158 0.562886
vt 0.001967 0.185949
vt 0.001967 0.540000
vt 0.096158 0.540000
vt 0.001967 0.233179
vt 0.096158 0.194181
vt 0.096158 0.233179
vt 0.001967 0.491410
vt 0.096158 0.491410
vt 0.001967 0.276317
vt 0.096158 0.276317
vt 0.001967 0.479808
vt 0.001967 0.300219
vt 0.096158 0.408376
vt 0.001967 0.431624
vt 0.096158 0.431624
vt 0.096158 0.382331
vt 0.001967 0.323940
vt 0.096158 0.323940
vt 0.001967 0.408376
vt 0.096158 0.388930
vt 0.001967 0.388930
vt 0.001967 0.412987
vt 0.001967 0.382331
vt 0.001967 0.371927
vt 0.096158 0.371927
vt 0.096158 0.444003
vt 0.001967 0.419587
vt 0.096158 0.419587
vt 0.001967 0.359194
vt 0.001967 0.444002
vt 0.096158 0.468696
vt 0.001967 0.468696
vt 0.001967 0.425956
vt 0.096158 0.397783
vt 0.096158 0.425956
vt 0.001967 0.489622
vt 0.001967 0.470816
vt 0.096158 0.470816
vt 0.001967 0.130193
vt 0.096158 0.098594
vt 0.096158 0.130193
vt 0.001967 0.507266
vt 0.096158 0.548993
vt 0.001967 0.160079
vt 0.096158 0.160079
vt 0.001967 0.548993
vt 0.096158 0.598508
vt 0.001967 0.598508
vt 0.001967 0.199317
vt 0.096158 0.199317
vt 0.096158 0.630556
vt 0.001967 0.630557
vt 0.001967 0.201432
vt 0.001967 0.633715
vt 0.096158 0.662898
vt 0.096158 0.273356
vt 0.001967 0.239445
vt 0.096158 0.239445
vt 0.001967 0.662898
vt 0.096158 0.688883
vt 0.001967 0.688883
vt 0.001967 0.161475
vt 0.096158 0.175286
vt 0.001967 0.175287
vt 0.001967 0.273356
vt 0.096158 0.303426
vt 0.001967 0.303425
vt 0.001967 0.712585
vt 0.096158 0.712584
vt 0.096158 0.190337
vt 0.001967 0.190337
vt 0.001967 0.310422
vt 0.096158 0.126430
vt 0.001967 0.126430
vt 0.001967 0.108980
vt 0.096158 0.211435
vt 0.001967 0.193349
vt 0.001967 0.324342
vt 0.096158 0.367119
vt 0.001967 0.367119
vt 0.001967 0.154641
vt 0.096158 0.154641
vt 0.001967 0.229944
vt 0.096158 0.229943
vt 0.001967 0.384110
vt 0.096158 0.384109
vt 0.001967 0.204834
vt 0.096158 0.204834
vt 0.001967 0.251092
vt 0.096158 0.251091
vt 0.001967 0.408463
vt 0.096158 0.408462
vt 0.001967 0.252211
vt 0.096158 0.252211
vt 0.001967 0.132720
vt 0.096158 0.132719
vt 0.001967 0.419460
vt 0.096158 0.440641
vt 0.001967 0.255675
vt 0.096158 0.161474
vt 0.001967 0.476145
vt 0.096158 0.476145
vt 0.096158 0.349625
vt 0.001967 0.318112
vt 0.096158 0.318112
vt 0.001967 0.241177
vt 0.096158 0.221248
vt 0.096158 0.243634
vt 0.001967 0.511250
vt 0.096158 0.511250
vt 0.001967 0.349626
vt 0.096158 0.374087
vt 0.001967 0.374087
vt 0.001967 0.243634
vt 0.096158 0.275733
vt 0.001967 0.275733
vt 0.001967 0.529406
vt 0.096158 0.568200
vt 0.001967 0.397783
vt 0.096158 0.310975
vt 0.001967 0.310975
vt 0.001967 0.568199
vt 0.096158 0.593598
vt 0.001967 0.593598
vt 0.001967 0.460644
vt 0.096158 0.335364
vt 0.001967 0.335364
vt 0.096158 0.611938
vt 0.001967 0.611939
vt 0.001967 0.574416
vt 0.096158 0.569036
vt 0.096158 0.668800
vt 0.001967 0.360905
vt 0.096158 0.360905
vt 0.096158 0.655561
vt 0.001967 0.655562
vt 0.001967 0.692725
vt 0.096158 0.700977
vt 0.096158 0.126158
vt 0.001967 0.102507
vt 0.096158 0.098595
vt 0.001967 0.700977
vt 0.096158 0.732635
vt 0.001967 0.732635
vt 0.001967 0.155711
vt 0.096158 0.155711
vt 0.096158 0.760483
vt 0.001967 0.760483
vt 0.001967 0.171414
vt 0.096158 0.780702
vt 0.001967 0.780702
vt 0.001967 0.221248
vt 0.096158 0.182493
vt 0.001967 0.805190
vt 0.096158 0.805190
vt 0.001967 0.290606
vt 0.096158 0.268957
vt 0.001967 0.116467
vt 0.096158 0.116467
vt 0.001967 0.242078
vt 0.001967 0.268957
vt 0.001967 0.132605
vt 0.096158 0.132606
vt 0.001967 0.211806
vt 0.096158 0.242078
vt 0.001967 0.154462
vt 0.096158 0.154462
vt 0.001967 0.193456
vt 0.001967 0.174346
vt 0.096158 0.174347
vt 0.001967 0.156371
vt 0.096158 0.184348
vt 0.096158 0.135065
vt 0.001967 0.211518
vt 0.096158 0.211518
vt 0.001967 0.135065
vt 0.096158 0.115705
vt 0.001967 0.274049
vt 0.096158 0.274049
vt 0.001967 0.115705
vt 0.001967 0.278127
vt 0.001967 0.499580
vt 0.096158 0.476950
vt 0.096158 0.499580
vt 0.096158 0.362749
vt 0.001967 0.332430
vt 0.096158 0.332430
vt 0.001967 0.456491
vt 0.001967 0.476950
vt 0.001967 0.362749
vt 0.096158 0.385153
vt 0.001967 0.385153
vt 0.096158 0.456491
vt 0.096158 0.402638
vt 0.001967 0.393648
vt 0.096591 0.035250
vt 0.416673 0.480617
vt 0.409980 0.765425
vt 0.384844 0.986190
vt 0.112570 0.990014
vt 0.001567 0.963740
vt 0.384865 0.981404
vt 0.001567 0.963739
vt 0.882107 0.277483
vt 0.870976 0.569404
vt 0.096591 0.035262
vt 0.096591 0.035249
vt 0.001567 0.963738
vt 0.001567 0.963739
vt 0.096591 0.035252
vt 0.769380 0.444140
vt 0.771300 0.439222
vt 0.747463 0.440363
vt 0.751810 0.447177
vt 0.795370 0.439446
vt 0.799197 0.431794
vt 0.784758 0.435100
vt 0.788440 0.449569
vt 0.761257 0.455082
vt 0.769695 0.459990
vt 0.790949 0.460505
vt 0.784699 0.462431
vt 0.791814 0.467349
vt 0.799613 0.466792
vt 0.817968 0.449516
vt 0.827214 0.433915
vt 0.812297 0.432310
vt 0.837637 0.417240
vt 0.829741 0.419716
vt 0.820453 0.424103
vt 0.862741 0.417720
vt 0.870061 0.408697
vt 0.865203 0.408984
vt 0.858853 0.410364
vt 0.852659 0.414473
vt 0.847711 0.421853
vt 0.838224 0.442639
vt 0.856206 0.433305
vt 0.847490 0.451653
vt 0.816924 0.474993
vt 0.825099 0.474161
vt 0.816616 0.468687
vt 0.808706 0.468971
vt 0.894422 0.409720
vt 0.900700 0.400972
vt 0.891649 0.401271
vt 0.883392 0.405657
vt 0.877785 0.416316
vt 0.868791 0.439842
vt 0.887906 0.425578
vt 0.866685 0.469171
vt 0.877322 0.453520
vt 0.860646 0.456014
vt 0.857630 0.477419
vt 0.829189 0.478548
vt 0.837114 0.482934
vt 0.948737 0.464115
vt 0.942246 0.474299
vt 0.957297 0.467128
vt 0.961635 0.461622
vt 0.965730 0.452821
vt 0.953349 0.453666
vt 0.971916 0.431953
vt 0.957930 0.439386
vt 0.977728 0.405658
vt 0.977366 0.393365
vt 0.962884 0.400237
vt 0.973454 0.384920
vt 0.959770 0.392875
vt 0.969521 0.379752
vt 0.885617 0.499683
vt 0.896120 0.499951
vt 0.888448 0.491966
vt 0.907693 0.493880
vt 0.895814 0.488657
vt 0.916649 0.484235
vt 0.902088 0.483975
vt 0.960472 0.382235
vt 0.926596 0.430138
vt 0.952596 0.383628
vt 0.938683 0.395672
vt 0.934671 0.409334
vt 0.944390 0.388289
vt 0.920094 0.447138
vt 0.878011 0.494176
vt 0.861546 0.491160
vt 0.869230 0.491979
vt 0.866199 0.483181
vt 0.879346 0.488671
vt 0.873296 0.478776
vt 0.888669 0.480959
vt 0.912362 0.436741
vt 0.896456 0.440060
vt 0.930469 0.391062
vt 0.908343 0.408316
vt 0.923542 0.392718
vt 0.916984 0.396011
vt 0.912189 0.400665
vt 0.904508 0.419250
vt 0.860341 0.485112
vt 0.853599 0.486215
vt 0.247387 0.648756
vt 0.246858 0.649272
vt 0.264301 0.649504
vt 0.254574 0.644295
vt 0.274002 0.643721
vt 0.267332 0.641222
vt 0.260506 0.642340
vt 0.259286 0.636215
vt 0.284024 0.644545
vt 0.292050 0.648987
vt 0.288119 0.649821
vt 0.409222 0.651432
vt 0.234912 0.627586
vt 0.200686 0.648658
vt 0.203489 0.643227
vt 0.212557 0.633461
vt 0.224275 0.627313
vt 0.232045 0.635399
vt 0.224586 0.638750
vt 0.231821 0.646545
vt 0.218233 0.643491
vt 0.229834 0.649045
vt 0.213865 0.648833
vt 0.360836 0.672747
vt 0.370402 0.680753
vt 0.374804 0.687652
vt 0.361621 0.686850
vt 0.350667 0.688807
vt 0.356692 0.679672
vt 0.350704 0.676084
vt 0.342852 0.684399
vt 0.352611 0.683827
vt 0.288118 0.649821
vt 0.304469 0.652586
vt 0.281512 0.651222
vt 0.284874 0.660386
vt 0.296191 0.653428
vt 0.271815 0.656237
vt 0.260197 0.671804
vt 0.273518 0.676220
vt 0.251949 0.688179
vt 0.267243 0.689431
vt 0.251470 0.689431
vt 0.339444 0.689431
vt 0.408969 0.689431
vt 0.312790 0.658684
vt 0.304781 0.658971
vt 0.312522 0.666729
vt 0.298129 0.662311
vt 0.292631 0.669255
vt 0.303412 0.678384
vt 0.329895 0.660326
vt 0.321998 0.660891
vt 0.282901 0.685347
vt 0.296864 0.689431
vt 0.281037 0.689431
vt 0.352292 0.667778
vt 0.312282 0.689431
vt 0.325869 0.689431
vt 0.315540 0.682792
vt 0.326294 0.688581
vt 0.323815 0.670039
vt 0.330771 0.667256
vt 0.264300 0.649504
vt 0.239109 0.656832
vt 0.233517 0.665737
vt 0.243310 0.674330
vt 0.223936 0.687959
vt 0.223366 0.689431
vt 0.237590 0.689431
vt 0.153790 0.675037
vt 0.149522 0.689431
vt 0.161475 0.689431
vt 0.182867 0.689431
vt 0.161688 0.688641
vt 0.196295 0.657164
vt 0.170996 0.663601
vt 0.166326 0.674182
vt 0.157937 0.666126
vt 0.162329 0.660550
vt 0.200000 0.680791
vt 0.208706 0.689431
vt 0.229834 0.649045
vt 0.206020 0.665220
vt 0.185239 0.719072
vt 0.192372 0.730316
vt 0.181897 0.730455
vt 0.208706 0.689431
vt 0.149522 0.689431
vt 0.110723 0.731402
vt 0.141882 0.730987
vt 0.141640 0.722794
vt 0.322419 0.696329
vt 0.312282 0.689431
vt 0.309154 0.695807
vt 0.339444 0.689431
vt 0.409222 0.727431
vt 0.337039 0.692981
vt 0.300895 0.704116
vt 0.208005 0.727850
vt 0.205646 0.730139
vt 0.219638 0.727539
vt 0.228804 0.727236
vt 0.223366 0.689431
vt 0.215782 0.709031
vt 0.232593 0.702623
vt 0.211899 0.720103
vt 0.225995 0.718681
vt 0.291490 0.708559
vt 0.283496 0.711066
vt 0.294049 0.694181
vt 0.281037 0.689431
vt 0.237590 0.689431
vt 0.273294 0.706396
vt 0.268283 0.713868
vt 0.262012 0.718029
vt 0.255582 0.719426
vt 0.258075 0.710580
vt 0.264693 0.694799
vt 0.267243 0.689431
vt 0.156671 0.728283
vt 0.157726 0.730777
vt 0.142007 0.735241
vt 0.141882 0.730987
vt 0.196509 0.735897
vt 0.205646 0.730139
vt 0.203149 0.732563
vt 0.145968 0.743793
vt 0.189495 0.737573
vt 0.192372 0.730316
vt 0.181897 0.730455
vt 0.149951 0.749026
vt 0.157726 0.730777
vt 0.159825 0.735738
vt 0.181177 0.732906
vt 0.175399 0.740382
vt 0.001967 0.739686
vt 0.001967 0.098594
vt 0.001967 0.602829
vt 0.001967 0.194180
vt 0.001967 0.098594
vt 0.096158 0.324342
vt 0.096158 0.098594
vt 0.001967 0.211434
vt 0.001967 0.440641
vt 0.001967 0.569036
vt 0.001967 0.668801
vt 0.001967 0.126159
vt 0.001967 0.182494
vt 0.001967 0.098594
vt 0.096158 0.211806
vt 0.001967 0.184348
s 0
usemtl emrysRing
f 31/1/1 43/2/1 32/3/1
f 7/4/2 28/5/2 18/6/2
f 4/7/3 14/8/3 15/9/3
f 4/7/4 16/10/4 5/11/4
f 6/12/5 16/10/5 17/13/5
f 6/12/6 26/14/6 23/15/6
f 7/4/7 19/16/7 8/17/7
f 9/18/8 19/16/8 20/19/8
f 9/18/9 21/20/9 10/21/9
f 33/22/10 36/23/10 34/24/10
f 31/25/11 38/26/11 37/27/11
f 37/28/12 56/29/12 55/30/12
f 29/31/13 40/32/13 30/33/13
f 29/34/14 48/29/14 47/35/14
f 41/36/15 44/36/15 43/36/15
f 47/36/2 46/36/2 45/36/2
f 49/37/10 52/38/10 51/39/10
f 55/40/10 54/41/10 53/42/10
f 35/43/16 54/44/16 36/45/16
f 25/46/17 46/47/17 28/48/17
f 24/49/18 44/29/18 42/50/18
f 33/51/19 52/52/19 50/53/19
f 39/54/20 51/55/20 40/3/20
f 59/56/21 58/57/21 62/58/21
f 70/59/21 69/60/21 66/61/21
f 76/62/21 77/63/21 82/64/21
f 95/65/21 94/66/21 89/67/21
f 111/68/21 110/69/21 107/70/21
f 158/71/21 166/72/21 159/73/21
f 137/74/21 147/75/21 146/76/21
f 119/77/21 129/78/21 128/79/21
f 195/80/22 191/81/22 192/82/22
f 204/83/23 207/84/23 206/85/23
f 199/86/23 201/87/23 197/88/23
f 225/89/23 218/90/23 175/91/23
f 184/92/23 22/93/23 222/94/23
f 227/95/23 183/96/23 219/97/23
f 253/98/24 272/99/24 277/100/24
f 302/101/24 300/102/24 13/103/24
f 297/104/24 289/105/24 288/106/24
f 299/107/24 303/108/24 283/109/24
f 310/110/25 311/111/25 14/8/25
s 1
f 255/112/26 82/113/27 210/114/28
f 307/115/29 135/116/30 305/117/31
f 244/118/32 84/119/33 83/120/34
f 305/117/31 136/121/35 304/122/35
f 276/123/33 85/124/36 84/119/33
f 230/125/37 283/126/37 154/127/37
f 296/128/38 101/129/39 86/130/40
f 184/131/41 137/132/42 138/133/43
f 273/134/44 86/130/40 87/135/44
f 185/136/45 139/137/46 194/138/47
f 246/139/48 87/135/44 88/140/49
f 194/138/47 140/141/50 189/142/51
f 257/143/49 89/144/52 216/145/53
f 189/142/51 141/146/54 190/147/55
f 216/145/53 90/148/56 221/149/57
f 192/150/58 141/146/54 142/151/58
f 221/149/57 91/152/59 220/153/59
f 193/154/60 142/155/61 143/156/62
f 214/157/63 91/152/59 92/155/64
f 196/158/65 143/156/62 144/159/66
f 224/160/67 92/161/68 93/162/69
f 182/163/70 144/159/66 145/164/71
f 211/165/72 93/162/69 94/166/73
f 183/167/74 182/163/70 145/164/71
f 212/168/75 94/166/73 95/169/76
f 263/170/77 146/171/78 147/172/77
f 243/173/79 95/169/76 96/174/80
f 265/175/81 147/172/77 148/176/81
f 245/177/82 243/173/79 96/174/80
f 253/178/83 265/175/81 148/176/81
f 98/179/84 268/180/85 97/181/85
f 150/182/86 272/183/87 149/184/88
f 301/185/89 99/186/90 295/187/90
f 294/188/91 293/189/86 150/182/86
f 286/190/92 99/186/90 100/191/92
f 152/192/93 308/193/94 151/194/95
f 288/195/96 100/191/92 101/129/96
f 313/196/97 153/197/98 310/198/99
f 290/199/100 117/200/101 102/201/102
f 310/198/99 154/127/103 311/202/103
f 274/203/104 102/201/102 103/204/104
f 260/205/105 171/206/106 155/207/107
f 249/208/108 103/204/104 104/209/109
f 258/210/110 155/207/107 156/211/110
f 254/212/111 105/213/112 225/214/113
f 231/215/114 156/211/110 157/216/115
f 225/214/113 106/217/116 218/218/116
f 229/219/117 231/215/114 157/216/115
f 174/220/118 106/217/116 107/221/119
f 159/222/120 299/223/121 158/224/121
f 178/225/122 108/226/123 177/227/124
f 234/228/125 57/229/126 239/230/127
f 303/231/128 160/232/129 282/233/130
f 173/234/131 108/226/123 109/235/131
f 239/230/127 58/236/132 198/237/133
f 284/238/134 282/233/130 160/232/129
f 110/239/135 217/240/136 172/241/137
f 59/242/138 197/243/139 58/236/132
f 306/244/140 162/245/140 309/246/140
f 215/247/141 110/239/135 111/248/142
f 202/249/143 59/242/138 60/250/144
f 312/251/145 162/245/146 163/252/147
f 256/253/148 111/248/142 112/254/149
f 238/255/150 60/250/144 61/256/150
f 314/257/151 163/252/147 164/258/152
f 248/259/153 112/254/149 113/260/153
f 237/261/154 61/155/155 62/262/154
f 285/263/156 164/258/152 165/264/157
f 247/265/158 248/259/153 113/260/153
f 234/228/159 62/262/154 63/266/159
f 302/267/160 165/264/157 166/268/161
f 115/269/162 297/270/163 114/271/164
f 235/272/165 72/273/165 64/274/166
f 300/275/167 166/268/161 167/276/167
f 289/277/168 116/278/169 287/279/169
f 236/280/166 65/281/170 204/282/170
f 232/283/171 167/276/167 168/284/172
f 278/285/173 116/278/169 117/200/173
f 204/282/170 66/286/174 207/287/175
f 259/288/176 169/289/177 264/290/178
f 281/291/179 304/122/179 136/121/179
f 207/287/175 67/292/180 205/293/181
f 264/290/178 170/294/182 261/295/183
f 252/296/184 118/297/185 119/298/186
f 200/299/187 67/292/180 68/300/187
f 261/295/183 171/301/188 222/302/188
f 181/303/189 119/298/186 120/304/190
f 69/305/191 201/306/192 68/307/192
f 180/308/193 121/309/194 195/310/195
f 240/311/196 69/305/191 70/312/196
f 195/310/195 122/313/197 191/314/198
f 233/315/199 240/311/196 70/312/196
f 191/314/198 123/316/200 188/317/201
f 269/318/202 71/319/203 72/273/202
f 186/320/204 123/316/200 124/321/204
f 266/322/205 73/323/206 85/124/205
f 187/324/207 124/155/208 125/325/209
f 271/326/210 73/323/206 267/327/206
f 179/328/211 125/325/209 126/329/212
f 270/330/213 74/331/210 271/326/210
f 176/332/214 126/329/212 127/333/215
f 242/334/216 241/335/217 76/336/217
f 175/337/218 127/333/215 128/338/219
f 241/335/217 77/339/220 76/336/217
f 262/340/221 128/338/219 129/341/222
f 209/342/223 78/343/224 77/339/220
f 251/344/225 129/341/222 130/345/225
f 208/346/224 79/155/226 78/343/224
f 250/347/227 251/344/225 130/345/225
f 206/348/228 80/349/229 79/350/228
f 132/351/230 298/352/231 131/353/231
f 213/354/232 80/349/229 223/355/229
f 291/356/233 133/357/234 279/358/235
f 210/114/28 81/359/236 213/354/232
f 134/360/237 307/115/29 280/361/238
s 0
f 31/1/1 41/362/1 43/2/1
f 7/4/2 25/363/2 28/5/2
f 4/7/3 3/364/3 14/8/3
f 4/7/4 15/9/4 16/10/4
f 6/12/5 5/11/5 16/10/5
f 6/12/6 17/13/6 26/14/6
f 7/4/7 18/6/7 19/16/7
f 9/18/8 8/17/8 19/16/8
f 9/18/9 20/19/9 21/20/9
f 33/22/10 35/365/10 36/23/10
f 31/25/11 32/366/11 38/26/11
f 37/28/12 38/367/12 56/29/12
f 29/31/13 39/368/13 40/32/13
f 29/34/14 30/369/14 48/29/14
f 41/36/239 42/36/239 44/36/239
f 47/36/2 48/36/2 46/36/2
f 49/37/10 50/370/10 52/38/10
f 55/40/10 56/371/10 54/41/10
f 35/43/16 53/372/16 54/44/16
f 25/46/17 45/373/17 46/47/17
f 24/49/18 27/374/18 44/29/18
f 33/51/19 34/375/19 52/52/19
f 39/54/20 49/376/20 51/55/20
f 58/57/21 57/377/21 62/58/21
f 57/377/21 63/378/21 62/58/21
f 62/58/21 61/379/21 60/380/21
f 60/380/21 59/56/21 62/58/21
f 64/381/21 72/382/21 71/383/21
f 64/381/21 71/383/21 65/384/21
f 71/383/21 70/59/21 65/384/21
f 66/61/21 65/384/21 70/59/21
f 68/385/21 67/386/21 69/60/21
f 67/386/21 66/61/21 69/60/21
f 78/387/21 79/388/21 80/389/21
f 80/389/21 81/390/21 78/387/21
f 81/390/21 82/64/21 77/63/21
f 78/387/21 81/390/21 77/63/21
f 82/64/21 83/391/21 76/62/21
f 83/391/21 84/392/21 75/393/21
f 76/62/21 83/391/21 75/393/21
f 84/392/21 85/394/21 73/395/21
f 73/395/21 74/396/21 84/392/21
f 74/396/21 75/393/21 84/392/21
f 86/397/21 101/398/21 100/399/21
f 100/399/21 99/400/21 86/397/21
f 99/400/21 98/401/21 86/397/21
f 98/401/21 97/402/21 86/397/21
f 97/402/21 96/403/21 87/404/21
f 97/402/21 87/404/21 86/397/21
f 89/67/21 88/405/21 95/65/21
f 88/405/21 87/404/21 96/403/21
f 95/65/21 88/405/21 96/403/21
f 91/406/21 90/407/21 93/408/21
f 90/407/21 89/67/21 94/66/21
f 93/408/21 92/409/21 91/406/21
f 94/66/21 93/408/21 90/407/21
f 102/410/21 117/411/21 116/412/21
f 116/412/21 115/413/21 102/410/21
f 115/413/21 114/414/21 102/410/21
f 114/414/21 113/415/21 103/416/21
f 103/416/21 102/410/21 114/414/21
f 105/417/21 104/418/21 112/419/21
f 104/418/21 103/416/21 113/415/21
f 112/419/21 104/418/21 113/415/21
f 107/70/21 106/420/21 111/68/21
f 106/420/21 105/417/21 111/68/21
f 109/421/21 108/422/21 110/69/21
f 108/422/21 107/70/21 110/69/21
f 111/68/21 105/417/21 112/419/21
f 155/423/21 171/424/21 170/425/21
f 170/425/21 169/426/21 155/423/21
f 169/426/21 168/427/21 156/428/21
f 168/427/21 167/429/21 157/430/21
f 167/429/21 166/72/21 158/71/21
f 166/72/21 165/431/21 159/73/21
f 165/431/21 164/432/21 160/433/21
f 159/73/21 165/431/21 160/433/21
f 164/432/21 163/434/21 161/435/21
f 163/434/21 162/436/21 161/435/21
f 164/432/21 161/435/21 160/433/21
f 169/426/21 156/428/21 155/423/21
f 167/429/21 158/71/21 157/430/21
f 157/430/21 156/428/21 168/427/21
f 141/437/21 140/438/21 143/439/21
f 140/438/21 139/440/21 144/441/21
f 143/439/21 140/438/21 144/441/21
f 139/440/21 138/442/21 145/443/21
f 138/442/21 137/74/21 146/76/21
f 137/74/21 154/444/21 149/445/21
f 154/444/21 153/446/21 151/447/21
f 150/448/21 154/444/21 151/447/21
f 153/446/21 152/449/21 151/447/21
f 150/448/21 149/445/21 154/444/21
f 149/445/21 148/450/21 137/74/21
f 138/442/21 146/76/21 145/443/21
f 142/451/21 141/437/21 143/439/21
f 137/74/21 148/450/21 147/75/21
f 145/443/21 144/441/21 139/440/21
f 123/452/21 122/453/21 126/454/21
f 122/453/21 121/455/21 127/456/21
f 126/454/21 122/453/21 127/456/21
f 121/455/21 120/457/21 127/456/21
f 120/457/21 119/77/21 128/79/21
f 127/456/21 120/457/21 128/79/21
f 119/77/21 118/458/21 130/459/21
f 118/458/21 136/460/21 132/461/21
f 132/461/21 136/460/21 135/462/21
f 135/462/21 134/463/21 132/461/21
f 134/463/21 133/464/21 132/461/21
f 132/461/21 131/465/21 118/458/21
f 125/466/21 124/467/21 123/452/21
f 126/454/21 125/466/21 123/452/21
f 118/458/21 131/465/21 130/459/21
f 119/77/21 130/459/21 129/78/21
f 176/468/22 175/469/22 174/470/22
f 176/468/22 174/470/22 179/471/22
f 174/470/22 178/472/22 186/473/22
f 187/474/22 179/471/22 174/470/22
f 186/473/22 187/474/22 174/470/22
f 188/475/22 186/473/22 177/476/22
f 186/473/240 178/472/240 177/476/240
f 173/477/241 172/478/241 11/479/241
f 11/479/22 10/21/22 173/477/22
f 10/21/22 21/20/22 190/480/22
f 21/20/22 22/93/22 184/481/22
f 21/20/22 184/481/22 185/482/22
f 177/476/22 173/477/22 10/21/22
f 188/475/22 177/476/22 10/21/22
f 21/20/22 185/482/22 194/483/22
f 21/20/22 194/483/22 189/484/22
f 191/81/22 188/475/22 190/480/22
f 21/20/240 189/484/240 190/480/240
f 192/82/22 193/485/22 195/80/22
f 193/485/22 196/486/22 180/487/22
f 195/80/22 193/485/22 180/487/22
f 10/21/22 190/480/22 188/475/22
f 196/486/22 182/488/22 181/489/22
f 190/480/240 192/82/240 191/81/240
f 182/488/22 183/490/22 181/489/22
f 181/489/22 180/487/22 196/486/22
f 200/491/23 199/86/23 202/492/23
f 238/493/23 237/494/23 234/495/23
f 198/496/23 197/88/23 201/87/23
f 201/87/23 203/497/23 198/496/23
f 203/497/23 240/498/23 239/499/23
f 11/479/23 172/500/23 220/501/23
f 172/500/23 217/502/23 216/503/23
f 220/501/23 172/500/23 221/504/23
f 217/502/23 215/505/23 216/503/23
f 215/505/23 256/506/23 257/507/23
f 216/503/23 215/505/23 257/507/23
f 256/506/23 248/508/23 246/509/23
f 248/508/242 247/510/242 246/509/242
f 246/509/23 257/507/23 256/506/23
f 203/497/23 239/499/23 198/496/23
f 240/498/23 233/511/23 234/495/23
f 239/499/23 240/498/23 234/495/23
f 216/503/23 221/504/23 172/500/23
f 238/493/23 234/495/23 1/512/23
f 234/495/243 233/511/243 1/512/243
f 214/513/23 224/514/23 210/515/23
f 224/514/23 211/516/23 210/515/23
f 211/516/23 212/517/23 255/518/23
f 11/479/23 220/501/23 223/519/23
f 220/501/23 214/513/23 213/520/23
f 223/519/23 220/501/23 213/520/23
f 202/492/23 238/493/23 1/512/23
f 211/516/23 255/518/23 210/515/23
f 212/517/23 243/521/23 244/522/23
f 255/518/23 212/517/23 244/522/23
f 243/521/23 245/523/23 244/522/23
f 202/492/23 1/512/23 11/479/23
f 200/491/23 202/492/23 11/479/23
f 205/524/23 200/491/23 11/479/23
f 207/84/23 205/524/23 206/85/23
f 205/524/23 11/479/23 223/519/23
f 206/85/23 205/524/23 223/519/23
f 214/513/23 210/515/23 213/520/23
f 242/525/23 235/526/23 241/527/23
f 235/526/23 236/528/23 241/527/23
f 209/529/23 241/527/23 204/83/23
f 206/85/23 208/530/23 204/83/23
f 208/530/23 209/529/23 204/83/23
f 241/527/23 236/528/23 204/83/23
f 199/86/23 200/491/23 201/87/23
f 218/90/242 174/531/242 175/91/242
f 175/91/23 226/532/23 225/89/23
f 226/532/23 262/533/23 254/534/23
f 225/89/23 226/532/23 254/534/23
f 262/533/23 251/535/23 254/534/23
f 251/535/23 250/536/23 249/537/23
f 254/534/23 251/535/23 249/537/23
f 22/93/23 13/103/23 259/538/23
f 13/103/23 232/539/23 259/538/23
f 229/540/23 230/541/23 231/542/23
f 230/541/23 228/543/23 260/544/23
f 258/545/23 230/541/23 260/544/23
f 258/545/23 231/542/23 230/541/23
f 222/94/23 260/544/23 228/543/23
f 228/543/23 184/92/23 222/94/23
f 22/93/23 259/538/23 264/546/23
f 22/93/23 264/546/23 261/547/23
f 22/93/23 261/547/23 222/94/23
f 265/548/23 253/98/23 252/549/23
f 227/95/23 181/550/23 183/96/23
f 265/548/23 252/549/23 263/551/23
f 252/549/23 227/95/23 263/551/23
f 219/97/23 263/551/23 227/95/23
f 272/99/24 293/552/24 281/553/24
f 293/552/24 294/554/24 281/553/24
f 281/553/24 277/100/24 272/99/24
f 277/100/24 252/555/24 253/98/24
f 300/102/24 232/556/24 13/103/24
f 13/103/24 12/557/24 302/101/24
f 12/557/24 285/558/24 292/559/24
f 12/557/24 292/559/24 302/101/24
f 269/560/24 235/526/24 242/561/24
f 269/560/24 242/561/24 270/562/24
f 1/512/24 233/563/24 2/564/24
f 233/563/24 275/565/24 2/564/24
f 269/560/24 270/562/24 271/566/24
f 275/565/24 269/560/24 2/564/24
f 279/567/24 280/568/24 278/569/24
f 280/568/24 2/564/24 287/570/24
f 278/569/24 280/568/24 287/570/24
f 250/571/24 298/572/24 274/573/24
f 298/572/24 291/574/24 290/575/24
f 269/560/24 271/566/24 2/564/24
f 271/566/24 267/576/24 2/564/24
f 266/577/24 276/578/24 245/579/24
f 276/578/24 244/522/24 245/579/24
f 2/564/24 267/576/24 266/577/24
f 249/580/24 250/571/24 274/573/24
f 298/572/24 290/575/24 274/573/24
f 278/569/24 290/575/24 291/574/24
f 291/574/24 279/567/24 278/569/24
f 266/577/24 245/579/24 268/581/24
f 266/577/24 268/581/24 301/582/24
f 2/564/24 266/577/24 295/583/24
f 266/577/24 301/582/24 295/583/24
f 289/105/24 287/570/24 288/106/24
f 287/570/24 2/564/24 295/583/24
f 288/106/24 287/570/24 286/584/24
f 295/583/244 286/584/244 287/570/244
f 288/106/24 296/585/24 297/104/24
f 296/585/24 273/586/24 247/510/24
f 297/104/24 296/585/24 247/510/24
f 246/587/24 247/510/24 273/586/24
f 303/108/24 282/588/24 283/109/24
f 282/588/24 284/589/24 283/109/24
f 283/109/24 230/541/24 299/107/24
f 230/541/24 229/540/24 299/107/24
f 314/590/245 285/591/245 12/557/245
f 14/8/245 3/364/245 305/592/245
f 3/364/245 2/564/245 280/593/245
f 305/592/245 3/364/245 307/594/245
f 280/593/245 307/594/245 3/364/245
f 314/590/245 12/557/245 312/595/245
f 12/557/245 14/8/245 312/595/245
f 304/596/245 281/597/245 294/598/245
f 14/8/245 305/592/245 310/110/245
f 305/592/25 304/596/25 310/110/25
f 309/599/245 312/595/245 14/8/245
f 283/109/245 284/600/245 306/601/245
f 283/109/245 306/601/245 311/111/245
f 306/601/245 309/599/245 311/111/245
f 304/596/245 294/598/245 308/602/245
f 304/596/245 308/602/245 313/603/245
f 311/111/245 309/599/245 14/8/245
f 304/596/245 313/603/245 310/110/245
s 1
f 255/112/26 83/120/34 82/113/27
f 307/115/29 134/360/237 135/116/30
f 83/120/34 255/112/26 244/118/32
f 244/118/32 276/123/33 84/119/33
f 305/117/31 135/116/30 136/121/35
f 276/123/33 266/322/36 85/124/36
f 137/132/42 228/604/42 230/125/37
f 283/126/37 311/202/37 154/127/37
f 137/132/42 230/125/37 154/127/37
f 296/128/38 288/195/39 101/129/39
f 138/133/43 185/136/45 184/131/41
f 184/131/41 228/604/42 137/132/42
f 273/134/44 296/128/38 86/130/40
f 185/136/45 138/133/43 139/137/46
f 88/140/49 257/143/49 246/139/48
f 246/139/48 273/134/44 87/135/44
f 194/138/47 139/137/46 140/141/50
f 257/143/49 88/140/49 89/144/52
f 189/142/51 140/141/50 141/146/54
f 216/145/53 89/144/52 90/148/56
f 192/150/58 190/147/55 141/146/54
f 221/149/57 90/148/56 91/152/59
f 193/154/60 192/605/61 142/155/61
f 214/157/63 220/153/59 91/152/59
f 196/158/65 193/154/60 143/156/62
f 224/160/67 214/606/68 92/161/68
f 182/163/70 196/158/65 144/159/66
f 211/165/72 224/160/67 93/162/69
f 145/164/71 146/171/78 183/167/74
f 146/171/78 219/607/78 183/167/74
f 212/168/75 211/165/72 94/166/73
f 263/170/77 219/607/78 146/171/78
f 243/173/79 212/168/75 95/169/76
f 265/175/81 263/170/77 147/172/77
f 96/174/80 97/181/85 245/177/82
f 97/181/85 268/180/85 245/177/82
f 148/176/81 149/184/88 253/178/83
f 149/184/88 272/183/87 253/178/83
f 98/179/84 301/185/89 268/180/85
f 150/182/86 293/189/86 272/183/87
f 301/185/89 98/179/84 99/186/90
f 150/182/86 151/194/95 294/188/91
f 151/194/95 308/193/94 294/188/91
f 286/190/92 295/187/90 99/186/90
f 152/192/93 313/196/97 308/193/94
f 288/195/96 286/190/92 100/191/92
f 313/196/97 152/192/93 153/197/98
f 290/199/100 278/285/101 117/200/101
f 310/198/99 153/197/98 154/127/103
f 274/203/104 290/199/100 102/201/102
f 260/205/105 222/608/106 171/206/106
f 104/209/109 254/212/111 249/208/108
f 249/208/108 274/203/104 103/204/104
f 258/210/110 260/205/105 155/207/107
f 254/212/111 104/209/109 105/213/112
f 231/215/114 258/210/110 156/211/110
f 225/214/113 105/213/112 106/217/116
f 157/216/115 158/224/121 229/219/117
f 158/224/121 299/223/121 229/219/117
f 107/221/119 178/225/122 174/220/118
f 174/220/118 218/218/116 106/217/116
f 159/222/120 303/231/128 299/223/121
f 178/225/122 107/221/119 108/226/123
f 234/228/125 63/266/246 57/229/126
f 303/231/128 159/222/120 160/232/129
f 173/234/131 177/227/124 108/226/123
f 239/230/127 57/229/126 58/236/132
f 160/232/129 161/609/134 284/238/134
f 161/609/134 306/244/134 284/238/134
f 172/241/137 173/605/137 109/610/137
f 109/610/137 110/239/135 172/241/137
f 199/611/247 197/243/139 59/242/138
f 197/243/139 198/237/133 58/236/132
f 306/244/140 161/609/140 162/245/140
f 215/247/141 217/240/136 110/239/135
f 202/249/143 199/611/247 59/242/138
f 312/251/145 309/246/248 162/245/146
f 256/253/148 215/247/141 111/248/142
f 238/255/150 202/249/143 60/250/144
f 314/257/151 312/251/145 163/252/147
f 248/259/153 256/253/148 112/254/149
f 237/261/154 238/605/155 61/155/155
f 165/264/157 292/612/249 285/263/156
f 285/263/156 314/257/151 164/258/152
f 113/260/153 114/271/164 247/265/158
f 114/271/164 297/270/163 247/265/158
f 234/228/159 237/261/154 62/262/154
f 302/267/160 292/612/249 165/264/157
f 115/269/162 289/277/168 297/270/163
f 64/274/166 236/280/166 235/272/165
f 235/272/165 269/318/250 72/273/165
f 300/275/167 302/267/160 166/268/161
f 289/277/168 115/269/162 116/278/169
f 236/280/166 64/274/166 65/281/170
f 168/284/172 259/288/176 232/283/171
f 232/283/171 300/275/167 167/276/167
f 278/285/173 287/279/169 116/278/169
f 204/282/170 65/281/170 66/286/174
f 259/288/176 168/284/172 169/289/177
f 136/121/179 118/297/185 281/291/179
f 118/297/185 277/613/251 281/291/179
f 207/287/175 66/286/174 67/292/180
f 264/290/178 169/289/177 170/294/182
f 119/298/186 227/614/252 252/296/184
f 252/296/184 277/613/251 118/297/185
f 200/299/187 205/293/181 67/292/180
f 261/295/183 170/294/182 171/301/188
f 120/304/190 180/308/193 181/303/189
f 181/303/189 227/614/252 119/298/186
f 203/615/253 201/306/192 69/305/191
f 201/306/192 200/605/254 68/307/192
f 180/308/193 120/304/190 121/309/194
f 240/311/196 203/615/253 69/305/191
f 195/310/195 121/309/194 122/313/197
f 70/312/196 71/319/255 233/315/199
f 71/319/255 275/616/199 233/315/199
f 191/314/198 122/313/197 123/316/200
f 269/318/202 275/616/203 71/319/203
f 186/320/204 188/317/201 123/316/200
f 266/322/205 267/327/206 73/323/206
f 187/324/207 186/617/208 124/155/208
f 271/326/210 74/331/210 73/323/206
f 179/328/211 187/324/207 125/325/209
f 270/330/213 75/618/256 74/331/210
f 176/332/214 179/328/211 126/329/212
f 76/336/217 75/618/256 242/334/216
f 75/618/256 270/330/213 242/334/216
f 128/338/219 226/619/257 175/337/218
f 175/337/218 176/332/214 127/333/215
f 241/335/217 209/342/223 77/339/220
f 262/340/221 226/619/257 128/338/219
f 209/342/223 208/346/224 78/343/224
f 251/344/225 262/340/221 129/341/222
f 208/346/224 206/605/226 79/155/226
f 130/345/225 131/353/231 250/347/227
f 131/353/231 298/352/231 250/347/227
f 206/348/228 223/355/229 80/349/229
f 132/351/230 291/356/233 298/352/231
f 213/354/232 81/359/236 80/349/229
f 291/356/233 132/351/230 133/357/234
f 210/114/28 82/113/27 81/359/236
f 280/361/238 279/358/235 133/357/234
f 133/357/234 134/360/237 280/361/238
