# Blender v3.0.0 OBJ File: ''
# www.blender.org
mtllib 0_base.mtl
o buttons.196
v 0.242379 0.761953 -0.401599
v 0.144316 0.845098 -0.285663
v 0.166611 0.850363 -0.276714
v 0.275619 0.771223 -0.386183
v 0.210221 0.863477 -0.255098
v 0.306396 0.780946 -0.370243
v 0.189320 0.856696 -0.266182
v 0.227268 0.870042 -0.244546
v 0.331697 0.790171 -0.355341
v 0.209931 0.754043 -0.414982
v 0.124619 0.841415 -0.292153
v 0.181450 0.748269 -0.425024
vt 0.414018 0.047202
vt 0.481447 0.672453
vt 0.392270 0.667066
vt 0.276724 0.047203
vt 0.209233 0.672453
vt 0.146119 0.053655
vt 0.298471 0.667066
vt 0.133290 0.682698
vt 0.034987 0.065924
vt 0.544561 0.053654
vt 0.557272 0.682698
vt 0.655575 0.065924
vn 0.0318 0.8248 -0.5646
vn 0.0319 0.8248 -0.5646
usemtl dhd_button_p.066
s 1
f 1/1/1 2/2/1 3/3/1
f 4/4/1 5/5/1 6/6/1
f 1/1/1 7/7/1 4/4/1
f 6/6/1 8/8/1 9/9/1
f 10/10/1 11/11/1 2/2/1
f 1/1/1 10/10/1 2/2/1
f 4/4/1 7/7/1 5/5/1
f 1/1/1 3/3/1 7/7/1
f 6/6/1 5/5/1 8/8/1
f 10/10/1 12/12/2 11/11/1
