# Blender v3.0.0 OBJ File: ''
# www.blender.org
mtllib 10_base.mtl
o buttons.216
v -0.321552 1.241923 0.396584
v -0.201420 1.187821 0.284281
v -0.221702 1.180567 0.272410
v -0.351377 1.229959 0.376690
v -0.260556 1.164101 0.244836
v -0.378661 1.217960 0.356505
v -0.242078 1.172394 0.258819
v -0.275325 1.156501 0.231832
v -0.400733 1.207100 0.338006
v -0.292104 1.252678 0.414241
v -0.183220 1.193445 0.293268
v -0.265918 1.261175 0.427931
vt 0.414018 0.047202
vt 0.481447 0.672453
vt 0.392270 0.667066
vt 0.276724 0.047203
vt 0.209233 0.672453
vt 0.146119 0.053655
vt 0.298471 0.667066
vt 0.133290 0.682698
vt 0.034987 0.065924
vt 0.544561 0.053654
vt 0.557272 0.682698
vt 0.655575 0.065924
vn -0.0411 0.8823 -0.4690
vn -0.0411 0.8823 -0.4689
usemtl dhd_button_p.089
s 1
f 1/1/1 2/2/1 3/3/1
f 4/4/1 5/5/1 6/6/1
f 1/1/1 7/7/1 4/4/1
f 6/6/1 8/8/1 9/9/2
f 10/10/1 11/11/1 2/2/1
f 1/1/1 10/10/1 2/2/1
f 4/4/1 7/7/1 5/5/1
f 1/1/1 3/3/1 7/7/1
f 6/6/1 5/5/1 8/8/1
f 10/10/1 12/12/1 11/11/1
