# Blender v3.0.0 OBJ File: ''
# www.blender.org
mtllib 12_base.mtl
o buttons.220
v -0.525642 1.092395 0.147923
v -0.354603 1.089805 0.121283
v -0.362064 1.077644 0.101251
v -0.534920 1.073514 0.116524
v -0.372999 1.052370 0.059029
v -0.542028 1.055430 0.086221
v -0.368403 1.064744 0.079800
v -0.375403 1.041731 0.040971
v -0.546271 1.039914 0.059980
v -0.515102 1.110225 0.177344
v -0.346751 1.100039 0.137935
v -0.504333 1.125259 0.201907
vt 0.414018 0.047202
vt 0.481447 0.672453
vt 0.392270 0.667066
vt 0.276724 0.047203
vt 0.209233 0.672453
vt 0.146119 0.053655
vt 0.298471 0.667066
vt 0.133290 0.682698
vt 0.034987 0.065924
vt 0.544561 0.053654
vt 0.557272 0.682698
vt 0.655575 0.065924
vn -0.0648 0.8635 -0.5001
usemtl dhd_button_p.093
s 1
f 1/1/1 2/2/1 3/3/1
f 4/4/1 5/5/1 6/6/1
f 1/1/1 7/7/1 4/4/1
f 6/6/1 8/8/1 9/9/1
f 10/10/1 11/11/1 2/2/1
f 1/1/1 10/10/1 2/2/1
f 4/4/1 7/7/1 5/5/1
f 1/1/1 3/3/1 7/7/1
f 6/6/1 5/5/1 8/8/1
f 10/10/1 12/12/1 11/11/1
