# Blender v3.0.0 OBJ File: ''
# www.blender.org
mtllib 15_base.mtl
o buttons.226
v -0.415341 0.830526 -0.287560
v -0.301562 0.907368 -0.182107
v -0.286024 0.897459 -0.198393
v -0.389744 0.816197 -0.311390
v -0.250809 0.878956 -0.229355
v -0.364089 0.803285 -0.333092
v -0.268536 0.887669 -0.214674
v -0.234580 0.872173 -0.241000
v -0.340889 0.793056 -0.350541
v -0.438377 0.844871 -0.263934
v -0.313629 0.916425 -0.167410
v -0.456595 0.857828 -0.242826
vt 0.414018 0.047202
vt 0.481447 0.672453
vt 0.392270 0.667066
vt 0.276724 0.047203
vt 0.209233 0.672453
vt 0.146119 0.053655
vt 0.298471 0.667066
vt 0.133290 0.682698
vt 0.034987 0.065924
vt 0.544561 0.053654
vt 0.557272 0.682698
vt 0.655575 0.065924
vn -0.0492 0.8317 -0.5530
usemtl dhd_button_p.100
s 1
f 1/1/1 2/2/1 3/3/1
f 4/4/1 5/5/1 6/6/1
f 1/1/1 7/7/1 4/4/1
f 6/6/1 8/8/1 9/9/1
f 10/10/1 11/11/1 2/2/1
f 1/1/1 10/10/1 2/2/1
f 4/4/1 7/7/1 5/5/1
f 1/1/1 3/3/1 7/7/1
f 6/6/1 5/5/1 8/8/1
f 10/10/1 12/12/1 11/11/1
