# Blender v3.0.0 OBJ File: ''
# www.blender.org
mtllib 16_base.mtl
o buttons.228
v -0.277303 0.771135 -0.386327
v -0.211890 0.863386 -0.255249
v -0.191004 0.856609 -0.266326
v -0.244063 0.761865 -0.401743
v -0.145985 0.845006 -0.285814
v -0.211599 0.753951 -0.415133
v -0.168295 0.850276 -0.276858
v -0.126260 0.841315 -0.292317
v -0.183089 0.748169 -0.425188
v -0.308065 0.780854 -0.370395
v -0.228909 0.869942 -0.244711
v -0.333338 0.790070 -0.355506
vt 0.414018 0.047202
vt 0.481447 0.672453
vt 0.392270 0.667066
vt 0.276724 0.047203
vt 0.209233 0.672453
vt 0.146119 0.053655
vt 0.298471 0.667066
vt 0.133290 0.682698
vt 0.034987 0.065924
vt 0.544561 0.053654
vt 0.557272 0.682698
vt 0.655575 0.065924
vn -0.0318 0.8248 -0.5646
vn -0.0319 0.8248 -0.5646
usemtl dhd_button_p.102
s 1
f 1/1/1 2/2/1 3/3/1
f 4/4/1 5/5/1 6/6/1
f 1/1/1 7/7/1 4/4/1
f 6/6/1 8/8/1 9/9/1
f 10/10/1 11/11/2 2/2/1
f 1/1/1 10/10/1 2/2/1
f 4/4/1 7/7/1 5/5/1
f 1/1/1 3/3/1 7/7/1
f 6/6/1 5/5/1 8/8/1
f 10/10/1 12/12/1 11/11/2
