# Blender v3.0.0 OBJ File: ''
# www.blender.org
mtllib 17_base.mtl
o buttons.192
v -0.109322 0.738059 -0.441332
v -0.049925 0.831682 -0.307780
v -0.072043 0.734854 -0.446663
v -0.099365 0.836791 -0.299475
v -0.075394 0.833872 -0.304137
v -0.025450 0.830435 -0.310045
v -0.036288 0.732807 -0.450297
v -0.004366 0.830254 -0.310712
v -0.005557 0.732118 -0.451880
v -0.144477 0.742110 -0.434826
v -0.119490 0.840154 -0.294249
v -0.174066 0.746609 -0.427783
vt 0.414018 0.047202
vt 0.298471 0.667066
vt 0.276724 0.047203
vt 0.481447 0.672453
vt 0.392270 0.667066
vt 0.209233 0.672453
vt 0.146119 0.053655
vt 0.133290 0.682698
vt 0.034987 0.065924
vt 0.544561 0.053654
vt 0.557272 0.682698
vt 0.655575 0.065924
vn -0.0110 0.8211 -0.5707
usemtl dhd_button_p.061
s 1
f 1/1/1 2/2/1 3/3/1
f 1/1/1 4/4/1 5/5/1
f 3/3/1 6/6/1 7/7/1
f 7/7/1 8/8/1 9/9/1
f 10/10/1 11/11/1 4/4/1
f 1/1/1 5/5/1 2/2/1
f 1/1/1 10/10/1 4/4/1
f 3/3/1 2/2/1 6/6/1
f 7/7/1 6/6/1 8/8/1
f 10/10/1 12/12/1 11/11/1
