# Blender v3.0.0 OBJ File: ''
# www.blender.org
mtllib 19_base.mtl
o buttons.011
v 0.017570 1.168012 0.139128
v 0.054185 1.227075 0.291040
v 0.027995 1.167109 0.137357
v -0.036751 1.228589 0.293881
v -0.007626 1.168487 0.140059
v -0.019930 1.168012 0.139128
v -0.056602 1.227074 0.291040
v 0.005296 1.168487 0.140059
v 0.034378 1.228590 0.293881
v 0.011079 1.229386 0.295374
v -0.013430 1.229386 0.295374
v -0.030412 1.167108 0.137358
vt 0.729829 0.356215
vt 0.581627 0.914659
vt 0.694054 0.347994
vt 0.895505 0.937787
vt 0.816772 0.363156
vt 0.859436 0.361195
vt 0.964545 0.929372
vt 0.772113 0.361439
vt 0.649670 0.928341
vt 0.729971 0.937245
vt 0.814678 0.940500
vt 0.895932 0.355751
vn 0.0135 0.9306 -0.3657
vn 0.0186 0.9303 -0.3662
vn 0.0184 0.9304 -0.3662
vn -0.0135 0.9306 -0.3657
vn -0.0042 0.9309 -0.3652
vn -0.0186 0.9304 -0.3662
vn 0.0042 0.9309 -0.3652
vn 0.0135 0.9306 -0.3658
vn -0.0184 0.9304 -0.3662
usemtl dhd_button_p.038
s 1
f 1/1/1 2/2/2 3/3/3
f 4/4/4 5/5/5 6/6/4
f 6/6/4 7/7/6 4/4/4
f 8/8/7 9/9/8 1/1/1
f 5/5/5 10/10/7 8/8/7
f 1/1/1 9/9/8 2/2/2
f 4/4/4 11/11/5 5/5/5
f 6/6/4 12/12/9 7/7/6
f 8/8/7 10/10/7 9/9/8
f 5/5/5 11/11/5 10/10/7
