# Blender v3.0.0 OBJ File: ''
# www.blender.org
mtllib 22_base.mtl
o buttons.181
v -0.319583 1.122719 0.117500
v -0.165056 1.116979 0.054261
v -0.169130 1.112016 0.045740
v -0.258988 1.170515 0.196982
v -0.144546 1.133157 0.081165
v -0.272513 1.162734 0.184364
v -0.286671 1.153084 0.168486
v -0.159199 1.122519 0.063615
v -0.300077 1.142510 0.150902
v -0.311417 1.132047 0.133333
v -0.152132 1.128093 0.072885
v -0.137183 1.137215 0.087644
vt 0.964545 0.929372
vt 0.859436 0.361195
vt 0.895932 0.355751
vt 0.581627 0.914659
vt 0.729829 0.356215
vt 0.649670 0.928341
vt 0.729971 0.937245
vt 0.816772 0.363156
vt 0.814678 0.940500
vt 0.895505 0.937787
vt 0.772113 0.361439
vt 0.694054 0.347994
vn -0.1488 0.8837 -0.4438
vn -0.1465 0.8860 -0.4399
vn -0.1487 0.8838 -0.4436
vn -0.1285 0.8997 -0.4171
vn -0.1317 0.8976 -0.4206
vn -0.1373 0.8938 -0.4269
vn -0.1419 0.8902 -0.4329
vn -0.1464 0.8860 -0.4399
vn -0.1286 0.8996 -0.4173
usemtl dhd_button_p.047
s 1
f 1/1/1 2/2/2 3/3/3
f 4/4/4 5/5/5 6/6/5
f 7/7/6 8/8/7 9/9/7
f 8/8/7 10/10/8 9/9/7
f 6/6/5 11/11/6 7/7/6
f 1/1/1 10/10/8 2/2/2
f 4/4/4 12/12/9 5/5/5
f 7/7/6 11/11/6 8/8/7
f 8/8/7 2/2/2 10/10/8
f 6/6/5 5/5/5 11/11/6
