# Blender v3.0.0 OBJ File: ''
# www.blender.org
mtllib 23_base.mtl
o buttons.183
v -0.321142 1.120799 0.114305
v -0.174421 1.105900 0.035836
v -0.329121 1.111169 0.098612
v -0.336479 1.099668 0.079657
v -0.181617 1.093382 0.015161
v -0.342496 1.087424 0.059296
v -0.178445 1.099837 0.025896
v -0.346582 1.075634 0.039521
v -0.348338 1.065453 0.022268
v -0.183627 1.087166 0.004683
v -0.184278 1.081796 -0.004514
v -0.169940 1.110975 0.044009
vt 0.581627 0.914659
vt 0.729829 0.356215
vt 0.649670 0.928341
vt 0.729971 0.937245
vt 0.816772 0.363156
vt 0.814678 0.940500
vt 0.772113 0.361439
vt 0.895505 0.937787
vt 0.964545 0.929372
vt 0.859436 0.361195
vt 0.895932 0.355751
vt 0.694054 0.347994
vn -0.1560 0.8753 -0.4578
vn -0.1577 0.8728 -0.4620
vn -0.1577 0.8727 -0.4620
vn -0.1607 0.8682 -0.4695
vn -0.1627 0.8640 -0.4765
vn -0.1607 0.8682 -0.4696
vn -0.1644 0.8593 -0.4843
vn -0.1651 0.8567 -0.4887
vn -0.1644 0.8593 -0.4844
vn -0.1651 0.8568 -0.4885
vn -0.1560 0.8752 -0.4579
usemtl dhd_button_p.049
s 1
f 1/1/1 2/2/2 3/3/3
f 4/4/4 5/5/5 6/6/5
f 3/3/3 7/7/6 4/4/4
f 5/5/5 8/8/7 6/6/5
f 9/9/8 10/10/9 11/11/10
f 1/1/1 12/12/11 2/2/2
f 4/4/4 7/7/6 5/5/5
f 3/3/3 2/2/2 7/7/6
f 5/5/5 10/10/9 8/8/7
f 9/9/8 8/8/7 10/10/9
