# Blender v3.0.0 OBJ File: ''
# www.blender.org
mtllib 24_base.mtl
o buttons.016
v -0.349932 1.040813 -0.018218
v -0.184462 1.062073 -0.036905
v -0.347908 1.028225 -0.039151
v -0.344297 1.016395 -0.058994
v -0.350171 1.052925 0.001755
v -0.185529 1.068709 -0.025869
v -0.348603 1.063376 0.018813
v -0.185504 1.075120 -0.015350
v -0.339454 1.006479 -0.075805
v -0.182407 1.055861 -0.047377
v -0.179565 1.050680 -0.056260
v -0.184389 1.080677 -0.006377
vt 0.729971 0.937245
vt 0.816772 0.363156
vt 0.814678 0.940500
vt 0.895505 0.937787
vt 0.649670 0.928341
vt 0.772113 0.361439
vt 0.581627 0.914659
vt 0.729829 0.356215
vt 0.964545 0.929372
vt 0.859436 0.361195
vt 0.895932 0.355751
vt 0.694054 0.347994
vn -0.1666 0.8400 -0.5163
vn -0.1659 0.8357 -0.5235
vn -0.1645 0.8310 -0.5314
vn -0.1667 0.8448 -0.5084
vn -0.1666 0.8400 -0.5164
vn -0.1666 0.8475 -0.5039
vn -0.1635 0.8284 -0.5357
vn -0.1636 0.8285 -0.5356
vn -0.1666 0.8474 -0.5041
usemtl dhd_button_p.053
s 1
f 1/1/1 2/2/2 3/3/2
f 2/2/2 4/4/3 3/3/2
f 5/5/4 6/6/5 1/1/1
f 7/7/6 8/8/4 5/5/4
f 9/9/7 10/10/3 11/11/8
f 1/1/1 6/6/5 2/2/2
f 2/2/2 10/10/3 4/4/3
f 5/5/4 8/8/4 6/6/5
f 7/7/6 12/12/9 8/8/4
f 9/9/7 4/4/3 10/10/3
