# Blender v3.0.0 OBJ File: ''
# www.blender.org
mtllib 30_base.mtl
o buttons.159
v 0.133252 0.883400 -0.280164
v 0.081346 0.988108 -0.159909
v 0.154547 0.888273 -0.271890
v 0.211736 0.907313 -0.240717
v 0.103036 0.994829 -0.148872
v 0.111311 0.998417 -0.143173
v 0.092711 0.991277 -0.154639
v 0.195808 0.900845 -0.251152
v 0.176103 0.894285 -0.261893
v 0.114302 0.880141 -0.285905
v 0.070055 0.985632 -0.164168
v 0.059943 0.984092 -0.166996
vt 0.649670 0.928341
vt 0.772113 0.361439
vt 0.729971 0.937245
vt 0.964545 0.929372
vt 0.859436 0.361195
vt 0.895932 0.355751
vt 0.816772 0.363156
vt 0.895505 0.937787
vt 0.814678 0.940500
vt 0.581627 0.914659
vt 0.729829 0.356215
vt 0.694054 0.347994
vn 0.0672 0.7664 -0.6388
vn 0.0757 0.7684 -0.6355
vn 0.0952 0.7745 -0.6254
vn 0.0909 0.7730 -0.6279
vn 0.0950 0.7744 -0.6255
vn 0.0831 0.7704 -0.6321
vn 0.0909 0.7730 -0.6278
vn 0.0624 0.7654 -0.6405
vn 0.0672 0.7664 -0.6389
vn 0.0626 0.7654 -0.6405
usemtl dhd_button_p.005
s 1
f 1/1/1 2/2/2 3/3/2
f 4/4/3 5/5/4 6/6/5
f 7/7/6 8/8/7 9/9/6
f 3/3/2 7/7/6 9/9/6
f 10/10/8 11/11/9 1/1/1
f 1/1/1 11/11/9 2/2/2
f 4/4/3 8/8/7 5/5/4
f 7/7/6 5/5/4 8/8/7
f 3/3/2 2/2/2 7/7/6
f 10/10/8 12/12/10 11/11/9
