# Blender v3.0.0 OBJ File: ''
# www.blender.org
mtllib 36_base.mtl
o buttons.171
v 0.253976 1.172204 0.199790
v 0.126424 1.142185 0.096177
v 0.240320 1.179639 0.212476
v 0.107181 1.150522 0.110182
v 0.184189 1.202152 0.249917
v 0.203631 1.195384 0.238829
v 0.166549 1.207270 0.258106
v 0.096831 1.154054 0.115916
v 0.087341 1.156684 0.120022
v 0.117378 1.146432 0.103380
v 0.222972 1.187626 0.225928
v 0.133433 1.138197 0.089277
vt 0.581627 0.914659
vt 0.729829 0.356215
vt 0.649670 0.928341
vt 0.816772 0.363156
vt 0.895505 0.937787
vt 0.814678 0.940500
vt 0.964545 0.929372
vt 0.859436 0.361195
vt 0.895932 0.355751
vt 0.772113 0.361439
vt 0.729971 0.937245
vt 0.694054 0.347994
vn 0.1164 0.9065 -0.4059
vn 0.1127 0.9083 -0.4029
vn 0.0991 0.9141 -0.3931
vn 0.0914 0.9168 -0.3887
vn 0.0871 0.9182 -0.3863
vn 0.0873 0.9182 -0.3864
vn 0.1058 0.9115 -0.3975
vn 0.1163 0.9065 -0.4058
usemtl dhd_button_p.020
s 1
f 1/1/1 2/2/2 3/3/2
f 4/4/3 5/5/4 6/6/3
f 7/7/5 8/8/4 9/9/6
f 3/3/2 10/10/7 11/11/7
f 11/11/7 4/4/3 6/6/3
f 1/1/1 12/12/8 2/2/2
f 4/4/3 8/8/4 5/5/4
f 7/7/5 5/5/4 8/8/4
f 3/3/2 2/2/2 10/10/7
f 11/11/7 10/10/7 4/4/3
