# Blender v3.0.0 OBJ File: ''
# www.blender.org
mtllib 3_base.mtl
o buttons.202
v 0.541536 0.981132 -0.037109
v 0.368853 0.988770 -0.046740
v 0.372355 1.001229 -0.025827
v 0.544657 1.000542 -0.004830
v 0.375041 1.027255 0.017261
v 0.545860 1.019184 0.025941
v 0.374487 1.014491 -0.003774
v 0.373963 1.038273 0.035218
v 0.545028 1.035233 0.052191
v 0.536803 0.962852 -0.067737
v 0.364325 0.978331 -0.064465
v 0.530920 0.947495 -0.093715
vt 0.414018 0.047202
vt 0.481447 0.672453
vt 0.392270 0.667066
vt 0.276724 0.047203
vt 0.209233 0.672453
vt 0.146119 0.053655
vt 0.298471 0.667066
vt 0.133290 0.682698
vt 0.034987 0.065924
vt 0.544561 0.053654
vt 0.557272 0.682698
vt 0.655575 0.065924
vn 0.0666 0.8522 -0.5189
usemtl dhd_button_p.074
s 1
f 1/1/1 2/2/1 3/3/1
f 4/4/1 5/5/1 6/6/1
f 1/1/1 7/7/1 4/4/1
f 6/6/1 8/8/1 9/9/1
f 10/10/1 11/11/1 2/2/1
f 1/1/1 10/10/1 2/2/1
f 4/4/1 7/7/1 5/5/1
f 1/1/1 3/3/1 7/7/1
f 6/6/1 5/5/1 8/8/1
f 10/10/1 12/12/1 11/11/1
