# Blender v3.0.0 OBJ File: ''
# www.blender.org
mtllib 5_base.mtl
o buttons.206
v 0.466288 1.159783 0.259985
v 0.332668 1.113232 0.160239
v 0.320479 1.124154 0.178596
v 0.445616 1.176088 0.287101
v 0.291681 1.145561 0.214001
v 0.424467 1.191202 0.312004
v 0.306357 1.135295 0.197121
v 0.277891 1.153948 0.227584
v 0.404913 1.203644 0.332256
v 0.484460 1.143881 0.233311
v 0.341729 1.103595 0.143847
v 0.498353 1.129941 0.209689
vt 0.414018 0.047202
vt 0.481447 0.672453
vt 0.392270 0.667066
vt 0.276724 0.047203
vt 0.209233 0.672453
vt 0.146119 0.053655
vt 0.298471 0.667066
vt 0.133290 0.682698
vt 0.034987 0.065924
vt 0.544561 0.053654
vt 0.557272 0.682698
vt 0.655575 0.065924
vn 0.0560 0.8739 -0.4828
vn 0.0560 0.8739 -0.4829
usemtl dhd_button_p.078
s 1
f 1/1/1 2/2/1 3/3/1
f 4/4/1 5/5/1 6/6/1
f 1/1/1 7/7/2 4/4/1
f 6/6/1 8/8/1 9/9/2
f 10/10/1 11/11/1 2/2/1
f 1/1/1 10/10/1 2/2/1
f 4/4/1 7/7/2 5/5/1
f 1/1/1 3/3/1 7/7/2
f 6/6/1 5/5/1 8/8/1
f 10/10/1 12/12/1 11/11/1
