# Blender v3.0.0 OBJ File: ''
# www.blender.org
mtllib 9_base.mtl
o buttons.214
v -0.160561 1.283210 0.465244
v -0.087241 1.212472 0.325276
v -0.110940 1.209001 0.319695
v -0.196308 1.276886 0.454727
v -0.158117 1.199933 0.304424
v -0.229738 1.270107 0.443224
v -0.135363 1.204680 0.312510
v -0.176976 1.195225 0.296228
v -0.257579 1.263539 0.431863
v -0.125996 1.288461 0.473746
v -0.066585 1.214755 0.328706
v -0.095997 1.292126 0.479402
vt 0.414018 0.047202
vt 0.481447 0.672453
vt 0.392270 0.667066
vt 0.276724 0.047203
vt 0.209233 0.672453
vt 0.146119 0.053655
vt 0.298471 0.667066
vt 0.133290 0.682698
vt 0.034987 0.065924
vt 0.544561 0.053654
vt 0.557272 0.682698
vt 0.655575 0.065924
vn -0.0217 0.8877 -0.4600
usemtl dhd_button_p.086
s 1
f 1/1/1 2/2/1 3/3/1
f 4/4/1 5/5/1 6/6/1
f 1/1/1 7/7/1 4/4/1
f 6/6/1 8/8/1 9/9/1
f 10/10/1 11/11/1 2/2/1
f 1/1/1 10/10/1 2/2/1
f 4/4/1 7/7/1 5/5/1
f 1/1/1 3/3/1 7/7/1
f 6/6/1 5/5/1 8/8/1
f 10/10/1 12/12/1 11/11/1
