# Blender v3.1.2 OBJ File: ''
# www.blender.org
mtllib orlin_gate_light_broken.mtl
o broken_bulb_Circle.006
v -0.002380 0.562231 0.038105
v -0.002591 0.568398 0.039274
v -0.001816 0.568508 0.038733
v -0.001815 0.564136 0.037955
v -0.000283 0.562411 0.037263
v -0.000494 0.568570 0.038431
v 0.000827 0.568508 0.038733
v 0.000827 0.564137 0.037955
v 0.002491 0.563581 0.040573
v 0.002490 0.567973 0.041355
v 0.002168 0.567703 0.042677
v 0.002169 0.563300 0.041892
v -0.003157 0.563858 0.039254
v -0.003157 0.568243 0.040034
v 0.001603 0.568398 0.039274
v 0.001603 0.564022 0.038495
v -0.003157 0.563297 0.041892
v -0.003157 0.567703 0.042677
v -0.003479 0.567973 0.041355
v -0.003268 0.561788 0.040182
v -0.001815 0.563021 0.043191
v -0.001816 0.567437 0.043978
v -0.002591 0.567548 0.043436
v -0.002380 0.561347 0.042260
v 0.002168 0.568243 0.040034
v 0.002379 0.562072 0.038864
v 0.001603 0.567548 0.043436
v 0.001814 0.561349 0.042260
v 0.000827 0.563022 0.043191
v 0.000827 0.567438 0.043978
v -0.000494 0.567376 0.044280
v -0.000283 0.561169 0.043102
v -0.003479 0.543227 0.036303
v -0.003481 0.546734 0.037183
v -0.003275 0.549053 0.036227
v -0.003157 0.543497 0.034982
v -0.000494 0.542630 0.039228
v -0.000612 0.548153 0.040466
v -0.001818 0.546178 0.039801
v -0.001816 0.542692 0.038925
v 0.001603 0.542802 0.038384
v 0.001600 0.546295 0.039261
v 0.000825 0.546179 0.039801
v 0.000827 0.542692 0.038925
v -0.001816 0.543763 0.033681
v -0.001818 0.547292 0.034565
v -0.000612 0.549395 0.034626
v -0.000494 0.543824 0.033379
v 0.002168 0.543497 0.034982
v 0.002051 0.549056 0.036227
v 0.002488 0.546737 0.037183
v 0.002490 0.543227 0.036303
v 0.002168 0.542958 0.037624
v 0.002051 0.548495 0.038865
v 0.001603 0.543652 0.034222
v 0.001600 0.547179 0.035106
v -0.002591 0.542802 0.038384
v -0.002709 0.548331 0.039624
v -0.003159 0.546454 0.038502
v -0.003157 0.542958 0.037624
v 0.000827 0.543763 0.033681
v 0.000825 0.547294 0.034565
v -0.002594 0.547177 0.035105
v -0.002591 0.543652 0.034222
v -0.000494 0.563579 0.040573
v -0.000497 0.546736 0.037183
vt 0.995763 0.108563
vt 0.971389 0.111320
vt 0.971389 0.108563
vt 0.995763 0.061335
vt 0.971389 0.065263
vt 0.971389 0.061335
vt 0.971389 0.074813
vt 0.995763 0.078827
vt 0.971389 0.078827
vt 0.971388 0.105784
vt 0.995763 0.068020
vt 0.971389 0.068020
vt 0.971389 0.097756
vt 0.995763 0.101770
vt 0.971389 0.101770
vt 0.971388 0.092220
vt 0.995763 0.094977
vt 0.971388 0.094977
vt 0.995763 0.070800
vt 0.971389 0.070799
vt 0.995763 0.081606
vt 0.971389 0.081606
vt 0.971389 0.084364
vt 0.995763 0.088292
vt 0.971389 0.088292
vt 0.995763 0.115248
vt 0.971389 0.115248
vt 0.947015 0.101770
vt 0.922641 0.105784
vt 0.922641 0.101770
vt 0.922641 0.088292
vt 0.947015 0.092220
vt 0.922641 0.092219
vt 0.947015 0.081606
vt 0.922641 0.084364
vt 0.922641 0.081606
vt 0.947015 0.111320
vt 0.922641 0.115248
vt 0.922641 0.111320
vt 0.947015 0.084364
vt 0.922641 0.070799
vt 0.947015 0.074813
vt 0.922641 0.074813
vt 0.922641 0.078827
vt 0.947015 0.068020
vt 0.922641 0.068020
vt 0.922640 0.094977
vt 0.947015 0.097756
vt 0.922641 0.097756
vt 0.947015 0.065263
vt 0.922641 0.065263
vt 0.947015 0.108563
vt 0.922641 0.108563
vt 0.922641 0.061335
vt 0.971389 0.089147
vt 0.971389 0.086867
vt 0.971389 0.084976
vt 0.971389 0.087706
vt 0.971389 0.085345
vt 0.971389 0.083390
vt 0.971389 0.084657
vt 0.971389 0.083495
vt 0.971389 0.088616
vt 0.971389 0.088310
vt 0.971388 0.088833
vt 0.971389 0.083760
vt 0.971389 0.088544
vt 0.971389 0.083710
vt 0.971389 0.085531
vt 0.971388 0.088188
vt 0.947015 0.090810
vt 0.947014 0.105784
vt 0.947015 0.089147
vt 0.947015 0.088292
vt 0.947015 0.085137
vt 0.947015 0.084696
vt 0.947015 0.061335
vt 0.947015 0.087178
vt 0.947015 0.081959
vt 0.947015 0.070799
vt 0.947015 0.084257
vt 0.947015 0.078827
vt 0.947015 0.081168
vt 0.947015 0.090546
vt 0.947014 0.094977
vt 0.947015 0.089925
vt 0.947015 0.091316
vt 0.947015 0.081267
vt 0.947015 0.083453
vt 0.947015 0.081850
vt 0.947015 0.088527
vt 0.995763 0.111320
vt 0.995763 0.065263
vt 0.995763 0.074813
vt 0.995762 0.105784
vt 0.995763 0.097756
vt 0.995762 0.092220
vt 0.995763 0.084364
vt 0.947015 0.115248
vn -0.6962 0.1169 -0.7083
vn -0.4402 0.1546 -0.8845
vn -0.7063 0.1149 -0.6985
vn 0.0106 0.1819 -0.9833
vn 0.3903 0.1685 -0.9051
vn 0.0003 0.1817 -0.9834
vn 0.9999 0.0144 -0.0080
vn 0.9210 -0.0618 0.3846
vn 0.9004 -0.0679 0.4297
vn -0.9084 0.0583 -0.4140
vn 0.6699 0.1395 -0.7292
vn 0.6931 0.1382 -0.7075
vn -0.8993 -0.0968 0.4265
vn -0.9998 -0.0182 -0.0092
vn -0.9998 -0.0198 -0.0009
vn -0.4456 -0.1713 0.8787
vn -0.7021 -0.1430 0.6976
vn -0.7036 -0.1427 0.6961
vn 0.9010 0.0962 -0.4231
vn 0.9198 0.0891 -0.3822
vn 0.7137 -0.1136 0.6912
vn 0.6982 -0.1167 0.7063
vn 0.3958 -0.1594 0.9044
vn 0.0092 -0.1817 0.9833
vn -0.0002 -0.1819 0.9833
vn -0.9996 -0.0030 -0.0289
vn -0.8991 0.0885 -0.4287
vn -0.9999 -0.0117 0.0112
vn -0.0036 -0.2285 0.9735
vn -0.4058 -0.2140 0.8886
vn -0.4071 -0.2138 0.8880
vn 0.7610 -0.1459 0.6321
vn 0.3925 -0.2151 0.8942
vn 0.7303 -0.1565 0.6650
vn -0.3961 0.2118 -0.8934
vn -0.0051 0.2279 -0.9737
vn -0.4314 0.2099 -0.8774
vn 0.3406 -0.2180 0.9146
vn 0.9036 0.1089 -0.4142
vn 0.9998 0.0087 0.0187
vn 0.9999 0.0118 0.0056
vn 0.9148 -0.0807 0.3957
vn 0.7364 0.1655 -0.6560
vn 0.7017 0.1740 -0.6909
vn -0.7108 -0.1697 0.6826
vn -0.8830 -0.1154 0.4550
vn -0.9106 -0.1016 0.4006
vn 0.3885 0.2170 -0.8955
vn 0.4237 0.2145 -0.8800
vn -0.7016 0.1607 -0.6942
vn -0.6748 0.1696 -0.7182
vn 0.3739 -0.3960 -0.8387
vn -0.6924 -0.5503 -0.4667
vn -0.7623 -0.5935 0.2584
vn -0.6908 -0.6945 0.2011
vn 0.7636 -0.4345 -0.4777
vn 0.0005 -0.7496 0.6619
vn 0.4105 -0.2406 -0.8796
vn -0.6113 -0.3751 -0.6969
vn -0.3932 -0.3194 -0.8622
vn 0.8290 -0.4580 0.3210
vn 0.8290 -0.4581 0.3206
vn 0.3723 -0.7078 0.6004
vn 0.0001 -0.9780 -0.2084
vn -0.3914 -0.6482 0.6532
vn 0.0006 -0.9781 -0.2083
vn 0.7622 -0.5937 0.2581
vn 0.8303 -0.2840 -0.4794
vn -0.0003 0.3812 0.9245
vn -0.7779 0.5665 -0.2718
vn -0.0004 0.9781 0.2081
vn -0.7679 0.4265 0.4780
vn 0.7435 0.6231 -0.2429
vn -0.0001 0.3811 0.9245
vn -0.6510 0.2617 0.7125
vn -0.6619 0.4951 -0.5628
vn -0.4191 0.5378 -0.7315
vn 0.7959 0.3688 0.4802
vn -0.0005 0.9781 0.2080
vn -0.0003 0.9781 0.2084
vn 0.6429 0.5514 -0.5317
vn -0.0004 0.6916 -0.7223
vn 0.7331 0.4876 0.4741
vn -0.0006 0.9781 0.2083
vn -0.4269 0.1560 -0.8908
vn 0.4276 0.1643 -0.8889
vn 0.9995 0.0054 0.0312
vn -0.9075 0.0587 -0.4158
vn -0.9047 -0.0948 0.4154
vn -0.4355 -0.1721 0.8836
vn 0.3975 -0.1592 0.9037
vn -0.9213 0.0771 -0.3812
vn 0.0000 -0.2285 0.9736
vn -0.0005 0.2280 -0.9737
vn 0.9221 0.0997 -0.3738
vn 0.9200 -0.0779 0.3841
vn -0.7001 -0.1720 0.6931
usemtl orlin_gate.009
s 1
f 2/1/1 4/2/2 1/3/3
f 6/4/4 8/5/5 5/6/6
f 9/7/7 11/8/8 12/9/9
f 13/10/10 2/1/1 1/3/3
f 8/5/5 15/11/11 16/12/12
f 17/13/13 19/14/14 20/15/15
f 21/16/16 23/17/17 24/18/18
f 23/17/17 17/13/13 24/18/18
f 16/12/12 25/19/19 26/20/20
f 12/9/9 27/21/21 28/22/22
f 25/19/19 9/7/7 26/20/20
f 29/23/23 31/24/24 32/25/25
f 4/2/2 6/26/4 5/27/6
f 27/21/21 29/23/23 28/22/22
f 31/24/24 21/16/16 32/25/25
f 19/14/14 13/10/10 20/15/15
f 34/28/26 36/29/27 33/30/28
f 37/31/29 39/32/30 40/33/31
f 42/34/32 44/35/33 41/36/34
f 46/37/35 48/38/36 45/39/37
f 43/40/38 37/31/29 44/35/33
f 49/41/39 51/42/40 52/43/41
f 53/44/42 42/34/32 41/36/34
f 56/45/43 49/41/39 55/46/44
f 57/47/45 59/48/46 60/49/47
f 39/32/30 57/47/45 40/33/31
f 60/49/47 34/28/26 33/30/28
f 62/50/48 55/46/44 61/51/49
f 36/29/27 63/52/50 64/53/51
f 51/42/40 53/44/42 52/43/41
f 48/54/36 62/50/48 61/51/49
f 64/53/51 46/37/35 45/39/37
f 65/55/52 20/15/52 13/10/52
f 65/56/53 32/25/53 21/16/53
f 65/57/54 28/22/54 29/23/54
f 65/58/55 4/2/55 5/6/55
f 65/59/56 29/23/56 32/25/56
f 65/60/57 26/20/57 9/7/57
f 65/61/58 12/9/58 28/22/58
f 65/62/59 16/12/59 26/20/59
f 65/63/60 24/18/60 17/13/60
f 65/64/61 21/16/62 24/18/62
f 65/65/63 17/13/63 20/15/63
f 65/66/64 8/5/64 16/12/64
f 65/67/65 13/10/65 1/3/65
f 65/68/66 9/7/66 12/9/66
f 65/69/67 5/6/67 8/5/67
f 65/70/68 1/3/68 4/2/68
f 66/71/69 35/72/69 34/28/69
f 66/73/70 39/32/70 38/74/70
f 66/75/71 43/40/71 42/34/71
f 66/76/72 47/77/72 46/37/72
f 66/78/73 38/74/73 43/40/73
f 66/79/74 51/42/74 50/80/74
f 66/81/75 42/34/75 54/82/75
f 66/83/76 50/80/76 56/45/76
f 66/84/77 59/48/77 58/85/77
f 66/86/78 58/85/78 39/32/78
f 66/87/79 34/28/79 59/48/71
f 66/88/80 56/45/80 62/50/80
f 66/86/81 63/52/81 35/72/81
f 66/89/82 54/82/82 51/42/82
f 66/90/83 62/50/83 47/77/83
f 66/91/84 46/37/84 63/52/84
f 2/1/1 3/92/85 4/2/2
f 6/4/4 7/93/86 8/5/5
f 9/7/7 10/94/87 11/8/8
f 13/10/10 14/95/88 2/1/1
f 8/5/5 7/93/86 15/11/11
f 17/13/13 18/96/89 19/14/14
f 21/16/16 22/97/90 23/17/17
f 23/17/17 18/96/89 17/13/13
f 16/12/12 15/11/11 25/19/19
f 12/9/9 11/8/8 27/21/21
f 25/19/19 10/94/87 9/7/7
f 29/23/23 30/98/91 31/24/24
f 4/2/2 3/92/85 6/26/4
f 27/21/21 30/98/91 29/23/23
f 31/24/24 22/97/90 21/16/16
f 19/14/14 14/95/88 13/10/10
f 34/28/26 35/72/92 36/29/27
f 37/31/29 38/74/93 39/32/30
f 42/34/32 43/40/38 44/35/33
f 46/37/35 47/99/94 48/38/36
f 43/40/38 38/74/93 37/31/29
f 49/41/39 50/80/95 51/42/40
f 53/44/42 54/82/96 42/34/32
f 56/45/43 50/80/95 49/41/39
f 57/47/45 58/85/97 59/48/46
f 39/32/30 58/85/97 57/47/45
f 60/49/47 59/48/46 34/28/26
f 62/50/48 56/45/43 55/46/44
f 36/29/27 35/72/92 63/52/50
f 51/42/40 54/82/96 53/44/42
f 48/54/36 47/77/94 62/50/48
f 64/53/51 63/52/50 46/37/35
