# Blender 4.2.1 LTS
# www.blender.org
mtllib control_crystal.mtl
o brc
v -0.063782 0.847402 0.118601
v -0.035394 0.874799 0.164193
v 0.035587 0.874798 0.164197
v 0.028097 0.933796 0.128641
v 0.027814 0.879074 0.037593
v -0.027887 0.933790 0.128642
v 0.063976 0.847439 0.118672
v -0.027604 0.879080 0.037590
v -0.035387 0.924880 0.133997
v -0.035386 0.870172 0.042944
v 0.035593 0.870163 0.042949
v 0.063983 0.901489 0.088474
v -0.063774 0.901495 0.088473
v 0.035594 0.924887 0.133996
v 0.000128 0.953389 0.054937
v 0.035586 0.820082 0.073145
v -0.035393 0.820084 0.073144
vn 0.8887 -0.2237 -0.4002
vn 0.0001 0.2273 -0.9738
vn -0.8744 0.2362 0.4239
vn 0.6430 0.7648 -0.0407
vn -0.7303 0.2577 -0.6326
vn -0.0000 0.5163 0.8564
vn -0.6427 0.7650 -0.0409
vn -0.0001 0.9664 0.2570
vn 0.8819 0.2433 0.4037
vn -0.8816 -0.2436 -0.4042
vn 0.6578 0.3948 -0.6415
vn -0.0000 -0.5152 -0.8571
vn 0.8819 -0.2435 -0.4036
vn -0.8822 0.2432 0.4032
vn 0.7284 0.6769 0.1063
vn -0.6575 0.3951 -0.6415
vn -0.0000 0.5152 0.8571
vn -0.7283 0.6770 0.1064
vn 0.8744 0.2366 0.4237
vn -0.8887 -0.2230 -0.4007
vn 0.7304 0.2575 -0.6326
vn -0.0000 -0.5163 -0.8564
vt 0.182009 0.179461
vt 0.272041 0.061435
vt 0.272041 0.219013
vt 0.277508 0.156260
vt 0.277507 0.063321
vt 0.364783 0.109805
vt 0.092384 0.144362
vt 0.003230 0.257407
vt 0.000785 0.113799
vt 0.451736 0.156594
vt 0.367687 0.218784
vt 0.367690 0.000785
vt 0.273610 0.042196
vt 0.099882 0.184713
vt 0.144471 0.205623
vt 0.451741 0.062973
vt 0.171732 0.306524
vt 0.102564 0.021193
vt 0.129196 0.120128
vt 0.127035 0.000785
vt 0.259357 0.032204
vt 0.175322 0.136661
vt 0.455944 0.177508
vt 0.146745 0.326013
vt 0.013843 0.287274
vt 0.455950 0.042053
vt 0.273610 0.177384
s 1
usemtl crystals
f 7/1/1 11/2/1 12/3/1
f 5/4/2 8/5/2 15/6/2
f 1/7/3 9/8/3 13/9/3
f 4/10/4 12/11/4 15/6/4
f 13/12/5 8/5/5 10/13/5
f 9/8/6 2/14/6 3/15/6
f 13/12/7 6/16/7 15/6/7
f 6/16/8 4/10/8 15/6/8
f 7/1/9 14/17/9 3/15/9
f 1/7/10 10/18/10 17/19/10
f 12/11/11 5/4/11 15/6/11
f 8/20/12 5/21/12 11/2/12
f 7/1/13 16/22/13 11/2/13
f 1/7/14 2/14/14 9/8/14
f 4/10/15 14/23/15 12/11/15
f 13/12/16 15/6/16 8/5/16
f 3/15/6 14/17/6 9/8/6
f 14/17/17 4/24/17 9/8/17
f 4/24/17 6/25/17 9/8/17
f 13/12/18 9/26/18 6/16/18
f 7/1/19 12/3/19 14/17/19
f 1/7/20 13/9/20 10/18/20
f 12/11/21 11/27/21 5/4/21
f 11/2/22 16/22/22 17/19/22
f 17/19/22 10/18/22 11/2/22
f 10/18/12 8/20/12 11/2/12
