# Blender v3.1.2 OBJ File: ''
# www.blender.org
mtllib tank_inside.mtl
o tank_inside.001
v -0.025238 0.011301 0.028567
v -0.025238 0.213820 0.028567
v -0.030231 0.213820 0.023970
v -0.030231 0.011301 0.023970
v -0.039833 0.011301 0.006228
v -0.039833 0.213820 0.006228
v -0.039867 0.213820 0.000030
v -0.039867 0.011301 0.000030
v 0.037630 0.011301 0.012646
v 0.037630 0.213820 0.012646
v 0.034400 0.213820 0.018615
v 0.034400 0.011301 0.018615
v 0.000000 0.011301 0.037231
v 0.000000 0.213820 0.037231
v -0.006763 0.213820 0.036671
v -0.006763 0.011301 0.036671
v 0.019557 0.011301 0.032279
v 0.019557 0.213820 0.032279
v 0.013342 0.213820 0.035005
v 0.013342 0.011301 0.035005
v -0.034400 0.213820 0.018615
v -0.034400 0.011301 0.018615
v -0.013342 0.213820 0.035005
v -0.013342 0.011301 0.035005
v 0.006763 0.213820 0.036671
v 0.006763 0.011301 0.036671
v 0.030231 0.213820 0.023970
v 0.030231 0.011301 0.023970
v -0.019557 0.213820 0.032279
v -0.019557 0.011301 0.032279
v -0.037629 0.213820 0.012646
v -0.037629 0.011301 0.012646
v 0.039867 0.011301 0.000030
v 0.039867 0.213820 0.000030
v 0.039833 0.213820 0.006228
v 0.039833 0.011301 0.006228
v 0.025238 0.213820 0.028567
v 0.025238 0.011301 0.028567
vt 0.359044 1.000000
vt 0.325534 -0.000000
vt 0.359044 -0.000000
vt 0.225004 1.000000
vt 0.194402 0.000000
vt 0.225004 0.000000
vt 0.727656 1.000000
vt 0.694146 -0.000000
vt 0.727656 -0.000000
vt 0.493085 1.000000
vt 0.459575 -0.000000
vt 0.493085 0.000000
vt 0.593615 1.000000
vt 0.560105 -0.000000
vt 0.593615 -0.000000
vt 0.325534 1.000000
vt 0.292024 0.000000
vt 0.459575 1.000000
vt 0.426065 -0.000000
vt 0.560105 1.000000
vt 0.526595 -0.000000
vt 0.694146 1.000000
vt 0.660636 -0.000000
vt 0.426065 1.000000
vt 0.392554 -0.000000
vt 0.526595 1.000000
vt 0.292024 1.000000
vt 0.258514 0.000000
vt 0.791768 1.000000
vt 0.761166 -0.000000
vt 0.791768 0.000000
vt 0.660636 1.000000
vt 0.627126 -0.000000
vt 0.392554 1.000000
vt 0.258514 1.000000
vt 0.761166 1.000000
vt 0.627126 1.000000
vt 0.194402 1.000000
vn -0.6143 -0.0000 0.7891
vn -0.7357 -0.0000 0.6773
vn -0.9859 -0.0000 0.1673
vn -1.0000 -0.0000 0.0055
vn 0.9158 -0.0000 0.4017
vn 0.8371 -0.0000 0.5470
vn -0.0000 -0.0000 1.0000
vn -0.1646 -0.0000 0.9864
vn 0.4760 -0.0000 0.8795
vn 0.3247 -0.0000 0.9458
vn -0.8372 -0.0000 0.5469
vn -0.3247 -0.0000 0.9458
vn 0.1646 -0.0000 0.9864
vn 0.7357 -0.0000 0.6773
vn -0.4760 -0.0000 0.8795
vn -0.9158 -0.0000 0.4017
vn 1.0000 0.0000 0.0055
vn 0.9859 -0.0000 0.1673
vn 0.6143 -0.0000 0.7891
usemtl naquadah.001
s 1
f 2/1/1 4/2/2 1/3/1
f 6/4/3 8/5/4 5/6/3
f 10/7/5 12/8/6 9/9/5
f 14/10/7 16/11/8 13/12/7
f 18/13/9 20/14/10 17/15/9
f 3/16/2 22/17/11 4/2/2
f 15/18/8 24/19/12 16/11/8
f 19/20/10 26/21/13 20/14/10
f 11/22/6 28/23/14 12/8/6
f 23/24/12 30/25/15 24/19/12
f 25/26/13 13/12/7 26/21/13
f 21/27/11 32/28/16 22/17/11
f 34/29/17 36/30/18 33/31/17
f 27/32/14 38/33/19 28/23/14
f 29/34/15 1/3/1 30/25/15
f 31/35/16 5/6/3 32/28/16
f 35/36/18 9/9/5 36/30/18
f 37/37/19 17/15/9 38/33/19
f 2/1/1 3/16/2 4/2/2
f 6/4/3 7/38/4 8/5/4
f 10/7/5 11/22/6 12/8/6
f 14/10/7 15/18/8 16/11/8
f 18/13/9 19/20/10 20/14/10
f 3/16/2 21/27/11 22/17/11
f 15/18/8 23/24/12 24/19/12
f 19/20/10 25/26/13 26/21/13
f 11/22/6 27/32/14 28/23/14
f 23/24/12 29/34/15 30/25/15
f 25/26/13 14/10/7 13/12/7
f 21/27/11 31/35/16 32/28/16
f 34/29/17 35/36/18 36/30/18
f 27/32/14 37/37/19 38/33/19
f 29/34/15 2/1/1 1/3/1
f 31/35/16 6/4/3 5/6/3
f 35/36/18 10/7/5 9/9/5
f 37/37/19 18/13/9 17/15/9
