# Blender v3.1.2 OBJ File: ''
# www.blender.org
mtllib tank_base.mtl
o tank_base
v 0.007753 0.213820 0.042601
v 0.007753 0.225218 0.042601
v 0.000000 0.225218 0.043244
v 0.000000 0.213820 0.043244
v 0.015294 0.213820 0.040692
v 0.015294 0.225218 0.040692
v 0.022419 0.213820 0.037567
v 0.022419 0.225218 0.037567
v -0.045662 0.213820 0.007704
v -0.045662 0.225218 0.007704
v -0.046942 0.225218 0.000030
v -0.046942 0.213820 0.000030
v 0.028931 0.213820 0.033312
v 0.028931 0.225218 0.033312
v -0.043136 0.213820 0.015062
v -0.043136 0.225218 0.015062
v 0.034655 0.213820 0.028043
v 0.034655 0.225218 0.028043
v -0.039433 0.213820 0.021904
v -0.039433 0.225218 0.021904
v 0.039433 0.213820 0.021904
v 0.039433 0.225218 0.021904
v -0.034655 0.213820 0.028043
v -0.034655 0.225218 0.028043
v 0.043136 0.213820 0.015062
v 0.043136 0.225218 0.015062
v -0.028931 0.213820 0.033312
v -0.028931 0.225218 0.033312
v 0.045662 0.213820 0.007704
v 0.045662 0.225218 0.007704
v -0.022419 0.213820 0.037567
v -0.022419 0.225218 0.037567
v 0.046942 0.213820 0.000030
v 0.046942 0.225218 0.000030
v -0.015294 0.213820 0.040692
v -0.015294 0.225218 0.040692
v -0.007753 0.213820 0.042601
v -0.007753 0.225218 0.042601
v 0.000000 -0.000097 0.043244
v 0.000000 0.011301 0.043244
v -0.007753 0.011301 0.042601
v -0.007753 -0.000097 0.042601
v -0.046942 -0.000097 0.000030
v -0.045662 -0.000097 0.007704
v -0.045662 0.011301 0.007704
v -0.046942 0.011301 0.000030
v -0.015294 0.011301 0.040692
v -0.015294 -0.000097 0.040692
v -0.022419 0.011301 0.037567
v -0.022419 -0.000097 0.037567
v 0.046942 -0.000097 0.000030
v 0.046942 0.011301 0.000030
v 0.045662 0.011301 0.007704
v 0.045662 -0.000097 0.007704
v -0.028931 0.011301 0.033312
v -0.028931 -0.000097 0.033312
v 0.043136 0.011301 0.015062
v 0.043136 -0.000097 0.015062
v -0.034655 0.011301 0.028043
v -0.034655 -0.000097 0.028043
v 0.039433 0.011301 0.021904
v 0.039433 -0.000097 0.021904
v -0.039433 0.011301 0.021904
v -0.039433 -0.000097 0.021904
v 0.034655 0.011301 0.028043
v 0.034655 -0.000097 0.028043
v -0.043136 0.011301 0.015062
v -0.043136 -0.000097 0.015062
v 0.028931 0.011301 0.033312
v 0.028931 -0.000097 0.033312
v 0.022419 0.011301 0.037567
v 0.022419 -0.000097 0.037567
v 0.015294 -0.000097 0.040692
v 0.007753 -0.000097 0.042601
v 0.015294 0.011301 0.040692
v 0.007753 0.011301 0.042601
vt 0.060704 0.414312
vt 0.121404 0.372880
vt 0.121404 0.414312
vt 0.060704 0.455743
vt 0.121404 0.455743
vt 0.060704 0.497174
vt 0.121404 0.497174
vt 0.060704 0.041431
vt 0.121404 -0.000000
vt 0.121404 0.041431
vt 0.060704 0.538605
vt 0.121404 0.538605
vt 0.060704 0.082862
vt 0.121404 0.082862
vt 0.060704 0.580036
vt 0.121404 0.580036
vt 0.060704 0.124294
vt 0.121404 0.124294
vt 0.060704 0.621467
vt 0.121404 0.621467
vt 0.060704 0.165725
vt 0.121404 0.165725
vt 0.060704 0.662899
vt 0.121404 0.662899
vt 0.060704 0.207156
vt 0.121404 0.207156
vt 0.060704 0.704330
vt 0.121404 0.704330
vt 0.060704 0.248587
vt 0.121404 0.248587
vt 0.060704 0.745761
vt 0.121404 0.745761
vt 0.060704 0.290018
vt 0.121404 0.290018
vt 0.060704 0.331449
vt 0.121404 0.331449
vt 0.060704 0.372880
vt 0.060704 0.372881
vt 0.000000 0.414312
vt 0.000000 0.372881
vt 0.000000 0.704330
vt 0.060704 0.745761
vt 0.000000 0.745761
vt 0.298650 0.095921
vt 0.351545 0.250000
vt 0.298650 0.404079
vt 0.060704 0.414312
vt 0.000000 0.455743
vt 0.060704 0.455743
vt 0.000000 0.497174
vt 0.060704 0.000000
vt 0.000000 0.041431
vt 0.000000 0.000000
vt 0.060704 0.497174
vt 0.000000 0.538605
vt 0.060704 0.041431
vt 0.000000 0.082862
vt 0.060704 0.538605
vt 0.000000 0.580036
vt 0.060704 0.082862
vt 0.000000 0.124294
vt 0.060704 0.580036
vt 0.000000 0.621468
vt 0.060704 0.124294
vt 0.000000 0.165725
vt 0.060704 0.621468
vt -0.000000 0.662899
vt 0.060704 0.165725
vt 0.000000 0.207156
vt 0.060704 0.662899
vt 0.060704 0.207156
vt 0.000000 0.248587
vt 0.500731 0.434561
vt 0.351545 0.500000
vt 0.468035 0.039991
vt 0.060704 0.248587
vt 0.000000 0.290018
vt 0.060704 0.290018
vt 0.000000 0.331449
vt 0.060704 0.331449
vt 0.661739 0.020272
vt 0.758932 0.404079
vt 0.811828 0.250000
vt 0.298650 0.904079
vt 0.351545 0.750000
vt 0.298650 0.595921
vt 0.060704 -0.000000
vt 0.060704 0.704330
vt 0.121404 0.500000
vt 0.121404 0.000000
vt 0.162270 0.006819
vt 0.201457 0.020272
vt 0.237894 0.039991
vt 0.270589 0.065439
vt 0.321310 0.130605
vt 0.337953 0.168547
vt 0.348124 0.208710
vt 0.348124 0.291290
vt 0.337953 0.331453
vt 0.321310 0.369395
vt 0.270589 0.434561
vt 0.237894 0.460009
vt 0.201457 0.479728
vt 0.162270 0.493181
vt 0.578265 0.208710
vt 0.581687 0.250000
vt 0.578265 0.291290
vt 0.568094 0.331453
vt 0.551452 0.369395
vt 0.528791 0.404079
vt 0.468036 0.460009
vt 0.431598 0.479728
vt 0.392412 0.493181
vt 0.351545 -0.000000
vt 0.392411 0.006819
vt 0.431598 0.020272
vt 0.500731 0.065439
vt 0.528791 0.095921
vt 0.551452 0.130605
vt 0.568094 0.168547
vt 0.808406 0.208710
vt 0.798236 0.168547
vt 0.781593 0.130605
vt 0.758932 0.095920
vt 0.730872 0.065439
vt 0.698177 0.039991
vt 0.622553 0.006819
vt 0.581687 -0.000000
vt 0.581687 0.500000
vt 0.622553 0.493181
vt 0.661739 0.479728
vt 0.698177 0.460009
vt 0.730872 0.434561
vt 0.781593 0.369395
vt 0.798236 0.331453
vt 0.808406 0.291290
vt 0.121404 0.500000
vt 0.121404 1.000000
vt 0.162270 0.993181
vt 0.201457 0.979728
vt 0.237894 0.960009
vt 0.270589 0.934561
vt 0.321310 0.869395
vt 0.337953 0.831453
vt 0.348124 0.791290
vt 0.348124 0.708710
vt 0.337953 0.668547
vt 0.321310 0.630605
vt 0.270589 0.565439
vt 0.237894 0.539991
vt 0.201457 0.520272
vt 0.162270 0.506819
vn 0.1646 -0.0000 0.9864
vn -0.0000 -0.0000 1.0000
vn 0.3246 -0.0000 0.9458
vn 0.4760 -0.0000 0.8795
vn -0.9694 0.0000 0.2455
vn -0.9864 0.0000 0.1645
vn 0.6142 -0.0000 0.7891
vn -0.9158 0.0000 0.4017
vn 0.7357 -0.0000 0.6773
vn -0.8372 -0.0000 0.5470
vn 0.8372 0.0000 0.5470
vn -0.7357 -0.0000 0.6773
vn 0.9158 -0.0000 0.4017
vn -0.6142 -0.0000 0.7891
vn 0.9694 -0.0000 0.2455
vn 0.9694 -0.0000 0.2454
vn -0.4760 -0.0000 0.8795
vn 0.9864 -0.0000 0.1645
vn -0.3246 -0.0000 0.9458
vn -0.1646 -0.0000 0.9864
vn 0.0000 1.0000 -0.0000
vn -0.0000 -1.0000 -0.0000
usemtl tank_base
s 1
f 2/1/1 4/2/2 1/3/1
f 6/4/3 1/3/1 5/5/3
f 8/6/4 5/5/3 7/7/4
f 10/8/5 12/9/6 9/10/5
f 14/11/7 7/7/4 13/12/7
f 16/13/8 9/10/5 15/14/8
f 18/15/9 13/12/7 17/16/9
f 20/17/10 15/14/8 19/18/10
f 22/19/11 17/16/9 21/20/11
f 24/21/12 19/18/10 23/22/12
f 26/23/13 21/20/11 25/24/13
f 28/25/14 23/22/12 27/26/14
f 30/27/15 25/24/13 29/28/16
f 32/29/17 27/26/14 31/30/17
f 34/31/18 29/28/16 33/32/18
f 36/33/19 31/30/17 35/34/19
f 38/35/20 35/34/19 37/36/20
f 3/37/2 37/36/20 4/2/2
f 40/38/2 42/39/20 39/40/2
f 44/41/5 46/42/6 43/43/6
f 28/44/21 3/45/21 14/46/21
f 41/47/20 48/48/19 42/39/20
f 47/49/19 50/50/17 48/48/19
f 52/51/18 54/52/15 51/53/18
f 49/54/17 56/55/14 50/50/17
f 53/56/15 58/57/13 54/52/15
f 55/58/14 60/59/12 56/55/14
f 57/60/13 62/61/11 58/57/13
f 59/62/12 64/63/10 60/59/12
f 61/64/11 66/65/9 62/61/11
f 63/66/10 68/67/8 64/63/10
f 65/68/9 70/69/7 66/65/9
f 67/70/8 44/41/5 68/67/8
f 69/71/7 72/72/4 70/69/7
f 60/73/22 43/74/22 62/75/22
f 71/76/4 73/77/3 72/72/4
f 75/78/3 74/79/1 73/77/3
f 76/80/1 39/40/2 74/79/1
f 15/81/22 13/82/22 4/83/22
f 55/84/21 40/85/21 69/86/21
f 2/1/1 3/37/2 4/2/2
f 6/4/3 2/1/1 1/3/1
f 8/6/4 6/4/3 5/5/3
f 10/8/5 11/87/6 12/9/6
f 14/11/7 8/6/4 7/7/4
f 16/13/8 10/8/5 9/10/5
f 18/15/9 14/11/7 13/12/7
f 20/17/10 16/13/8 15/14/8
f 22/19/11 18/15/9 17/16/9
f 24/21/12 20/17/10 19/18/10
f 26/23/13 22/19/11 21/20/11
f 28/25/14 24/21/12 23/22/12
f 30/27/15 26/23/13 25/24/13
f 32/29/17 28/25/14 27/26/14
f 34/31/18 30/27/15 29/28/16
f 36/33/19 32/29/17 31/30/17
f 38/35/20 36/33/19 35/34/19
f 3/37/2 38/35/20 37/36/20
f 40/38/2 41/47/20 42/39/20
f 44/41/5 45/88/5 46/42/6
f 34/89/21 11/90/21 10/91/21
f 10/91/21 16/92/21 20/93/21
f 20/93/21 24/94/21 28/44/21
f 28/44/21 32/95/21 36/96/21
f 36/96/21 38/97/21 28/44/21
f 38/97/21 3/45/21 28/44/21
f 3/45/21 2/98/21 14/46/21
f 2/98/21 6/99/21 14/46/21
f 6/99/21 8/100/21 14/46/21
f 14/46/21 18/101/21 22/102/21
f 22/102/21 26/103/21 30/104/21
f 30/104/21 34/89/21 28/44/21
f 34/89/21 10/91/21 28/44/21
f 10/91/21 20/93/21 28/44/21
f 14/46/21 22/102/21 28/44/21
f 22/102/21 30/104/21 28/44/21
f 41/47/20 47/49/19 48/48/19
f 47/49/19 49/54/17 50/50/17
f 52/51/18 53/56/15 54/52/15
f 49/54/17 55/58/14 56/55/14
f 53/56/15 57/60/13 58/57/13
f 55/58/14 59/62/12 60/59/12
f 57/60/13 61/64/11 62/61/11
f 59/62/12 63/66/10 64/63/10
f 61/64/11 65/68/9 66/65/9
f 63/66/10 67/70/8 68/67/8
f 65/68/9 69/71/7 70/69/7
f 67/70/8 45/88/5 44/41/5
f 69/71/7 71/76/4 72/72/4
f 74/105/22 39/106/22 42/107/22
f 42/107/22 48/108/22 50/109/22
f 50/109/22 56/110/22 42/107/22
f 56/110/22 60/73/22 42/107/22
f 60/73/22 64/111/22 43/74/22
f 64/111/22 68/112/22 43/74/22
f 68/112/22 44/113/22 43/74/22
f 43/74/22 51/114/22 62/75/22
f 51/114/22 54/115/22 62/75/22
f 54/115/22 58/116/22 62/75/22
f 62/75/22 66/117/22 70/118/22
f 70/118/22 72/119/22 73/120/22
f 73/120/22 74/105/22 42/107/22
f 62/75/22 70/118/22 73/120/22
f 73/120/22 42/107/22 62/75/22
f 42/107/22 60/73/22 62/75/22
f 71/76/4 75/78/3 73/77/3
f 75/78/3 76/80/1 74/79/1
f 76/80/1 40/38/2 39/40/2
f 37/121/22 35/122/22 31/123/22
f 31/123/22 27/124/22 15/81/22
f 27/124/22 23/125/22 15/81/22
f 23/125/22 19/126/22 15/81/22
f 15/81/22 9/127/22 12/128/22
f 12/128/22 33/129/22 29/130/22
f 29/130/22 25/131/22 21/132/22
f 21/132/22 17/133/22 13/82/22
f 13/82/22 7/134/22 5/135/22
f 5/135/22 1/136/22 13/82/22
f 1/136/22 4/83/22 13/82/22
f 4/83/22 37/121/22 15/81/22
f 37/121/22 31/123/22 15/81/22
f 15/81/22 12/128/22 13/82/22
f 12/128/22 29/130/22 13/82/22
f 29/130/22 21/132/22 13/82/22
f 52/137/21 46/138/21 45/139/21
f 45/139/21 67/140/21 63/141/21
f 63/141/21 59/142/21 55/84/21
f 55/84/21 49/143/21 47/144/21
f 47/144/21 41/145/21 55/84/21
f 41/145/21 40/85/21 55/84/21
f 40/85/21 76/146/21 69/86/21
f 76/146/21 75/147/21 69/86/21
f 75/147/21 71/148/21 69/86/21
f 69/86/21 65/149/21 61/150/21
f 61/150/21 57/151/21 53/152/21
f 53/152/21 52/137/21 55/84/21
f 52/137/21 45/139/21 55/84/21
f 45/139/21 63/141/21 55/84/21
f 69/86/21 61/150/21 55/84/21
f 61/150/21 53/152/21 55/84/21
