# Blender 4.2.1 LTS
# www.blender.org
mtllib door.mtl
o door
v 0.055437 0.135635 -0.213666
v 0.076547 0.208602 -0.204962
v 0.100799 0.281762 -0.196163
v 0.126313 0.354366 -0.187410
v 0.149959 0.426928 -0.178993
v -0.055437 0.135635 -0.213666
v -0.076548 0.208602 -0.204962
v -0.100799 0.281762 -0.196163
v -0.126314 0.354366 -0.187410
v -0.149960 0.426928 -0.178993
v -0.170177 0.499105 -0.171012
v -0.000000 0.499105 -0.171012
v -0.009277 0.511456 -0.169790
v -0.040621 0.542097 -0.166757
v -0.075813 0.556769 -0.165305
v -0.111409 0.554037 -0.165575
v -0.143925 0.534167 -0.167542
v 0.170176 0.499105 -0.171013
v 0.009277 0.511456 -0.169790
v 0.143924 0.534167 -0.167542
v 0.111409 0.554037 -0.165576
v 0.075813 0.556769 -0.165305
v 0.040621 0.542097 -0.166757
v -0.035593 0.118621 -0.215664
v -0.012265 0.109676 -0.216715
v 0.012264 0.109676 -0.216715
v 0.035592 0.118621 -0.215664
v 0.055437 0.134521 -0.203728
v 0.076547 0.207489 -0.195024
v 0.100799 0.280648 -0.186225
v 0.126313 0.353253 -0.177472
v 0.149959 0.425815 -0.169055
v -0.055437 0.134521 -0.203728
v -0.076548 0.207489 -0.195024
v -0.100799 0.280648 -0.186225
v -0.126314 0.353253 -0.177472
v -0.149960 0.425815 -0.169055
v -0.170177 0.497992 -0.161074
v 0.170176 0.497992 -0.161075
v -0.040621 0.540983 -0.156819
v -0.009277 0.510343 -0.159852
v -0.075813 0.555656 -0.155367
v -0.111409 0.552923 -0.155637
v -0.143925 0.533054 -0.157604
v 0.143924 0.533054 -0.157604
v 0.111409 0.552923 -0.155638
v 0.075813 0.555656 -0.155367
v 0.040621 0.540983 -0.156819
v 0.009277 0.510343 -0.159852
v -0.000000 0.497992 -0.161075
v -0.035593 0.117508 -0.205726
v -0.012265 0.108563 -0.206777
v 0.012264 0.108563 -0.206777
v 0.035592 0.117508 -0.205726
vn -0.0000 0.1179 -0.9930
vn -0.0000 0.1190 -0.9929
vn -0.0000 0.1196 -0.9928
vn -0.0000 0.1170 -0.9931
vn -0.0000 0.1121 -0.9937
vn -0.0000 0.1057 -0.9944
vn -0.0000 0.1051 -0.9945
vn -0.0000 0.0985 -0.9951
vn -0.0000 -0.1166 0.9932
vn -0.0000 -0.1179 0.9930
vn -0.0000 -0.1190 0.9929
vn -0.0000 -0.1196 0.9928
vn -0.0000 -0.1170 0.9931
vn -0.0000 -0.1121 0.9937
vn -0.0000 -0.1051 0.9945
vn -0.0000 -0.1057 0.9944
vn -0.0000 -0.0985 0.9951
vn -0.9576 -0.2864 -0.0321
vn -0.9834 0.1805 0.0202
vn -0.9827 0.1840 0.0206
vn 0.1831 -0.9770 -0.1095
vn -0.1833 -0.9769 -0.1095
vn -0.1831 -0.9770 -0.1095
vn 0.9471 -0.3190 -0.0357
vn 0.9556 -0.2927 -0.0328
vn 0.9557 -0.2925 -0.0328
vn -0.1595 0.9811 0.1099
vn 0.3081 0.9454 0.1059
vn -0.1589 0.9812 0.1099
vn 0.9834 0.1804 0.0202
vn 0.9576 -0.2864 -0.0321
vn 0.9827 0.1840 0.0206
vn 0.5141 -0.8524 -0.0955
vn 0.1833 -0.9769 -0.1095
vn 0.9478 -0.3168 -0.0355
vn 0.9471 -0.3191 -0.0358
vn -0.5528 0.8281 0.0928
vn 0.5542 0.8272 0.0927
vn 0.7527 0.6542 0.0733
vn 0.5528 0.8281 0.0928
vn -0.5146 -0.8521 -0.0955
vn -0.8418 -0.5364 -0.0601
vn -0.5141 -0.8524 -0.0955
vn 0.9479 -0.3167 -0.0355
vn -0.7527 0.6542 0.0733
vn -0.5542 0.8272 0.0927
vn 0.1595 0.9811 0.1099
vn 0.1589 0.9812 0.1099
vn 0.8418 -0.5364 -0.0601
vn 0.5146 -0.8521 -0.0955
vn -0.8429 -0.5348 -0.0599
vn -0.9557 -0.2925 -0.0328
vn -0.0000 0.9938 0.1113
vn -0.7533 0.6535 0.0732
vn -0.3081 0.9454 0.1059
vn -0.9556 -0.2927 -0.0328
vn -0.9471 -0.3190 -0.0357
vn 0.7533 0.6535 0.0732
vn -0.6739 0.7342 0.0823
vn -0.3093 0.9451 0.1059
vn -0.9471 -0.3191 -0.0357
vn -0.9478 -0.3168 -0.0355
vn -0.6755 0.7328 0.0821
vn 0.6755 0.7328 0.0821
vn 0.6739 0.7342 0.0823
vn -0.9479 -0.3167 -0.0355
vn 0.8429 -0.5348 -0.0599
vn 0.3093 0.9451 0.1059
vn -0.0000 0.1166 -0.9932
vn -0.9576 -0.2863 -0.0321
vn 0.9576 -0.2863 -0.0321
vt 0.721195 0.112590
vt 0.717001 0.118835
vt 0.731578 0.115936
vt 0.731385 0.131087
vt 0.731338 0.123455
vt 0.712506 0.125004
vt 0.731568 0.138706
vt 0.731578 0.146260
vt 0.707910 0.131083
vt 0.703491 0.137210
vt 0.715344 0.148535
vt 0.731280 0.153671
vt 0.724111 0.157067
vt 0.727759 0.156178
vt 0.717844 0.153807
vt 0.699407 0.143400
vt 0.700802 0.147492
vt 0.714100 0.149418
vt 0.700748 0.159378
vt 0.699407 0.161581
vt 0.707415 0.157230
vt 0.699647 0.169099
vt 0.718479 0.170649
vt 0.713984 0.164480
vt 0.699417 0.184350
vt 0.699600 0.176732
vt 0.699407 0.191905
vt 0.723075 0.176727
vt 0.699705 0.199315
vt 0.715641 0.194180
vt 0.713141 0.199452
vt 0.715147 0.195622
vt 0.703226 0.201823
vt 0.731578 0.189045
vt 0.716885 0.195063
vt 0.669634 0.138511
vt 0.665618 0.144119
vt 0.666571 0.144241
vt 0.694664 0.113324
vt 0.692614 0.111445
vt 0.692459 0.112570
vt 0.698332 0.132453
vt 0.699202 0.124378
vt 0.698189 0.124427
vt 0.686063 0.158851
vt 0.689349 0.158890
vt 0.686225 0.157895
vt 0.696669 0.156377
vt 0.697757 0.148659
vt 0.695812 0.155846
vt 0.696427 0.114892
vt 0.695234 0.112410
vt 0.698322 0.140637
vt 0.699383 0.132451
vt 0.682463 0.157823
vt 0.674489 0.155372
vt 0.677261 0.158378
vt 0.675235 0.154794
vt 0.689830 0.111703
vt 0.688008 0.113699
vt 0.690123 0.112718
vt 0.699383 0.140683
vt 0.678563 0.159004
vt 0.682585 0.158766
vt 0.672028 0.152959
vt 0.672575 0.152190
vt 0.697529 0.117038
vt 0.697280 0.114274
vt 0.687380 0.112928
vt 0.683234 0.119701
vt 0.677658 0.159279
vt 0.678716 0.159903
vt 0.669768 0.150738
vt 0.682415 0.119080
vt 0.678527 0.126114
vt 0.676486 0.158891
vt 0.667583 0.147975
vt 0.669133 0.151444
vt 0.677700 0.125516
vt 0.673886 0.132401
vt 0.666631 0.148410
vt 0.693232 0.159136
vt 0.692763 0.158195
vt 0.673073 0.131829
vt 0.698483 0.116769
vt 0.689337 0.159869
vt 0.730237 0.113733
vt 0.723570 0.111585
vt 0.728324 0.112186
vt 0.726027 0.111445
vt 0.715838 0.149978
vt 0.720695 0.156250
vt 0.706495 0.151674
vt 0.710236 0.151355
vt 0.703245 0.150343
vt 0.709790 0.158235
vt 0.704958 0.157090
vt 0.702661 0.157830
vt 0.727494 0.182855
vt 0.706874 0.202711
vt 0.710290 0.201894
vt 0.720749 0.197000
vt 0.730183 0.193137
vt 0.724490 0.197319
vt 0.727740 0.195988
vt 0.668835 0.138025
vt 0.698780 0.148837
vt 0.677381 0.159888
s 1
usemtl dhd
f 6/1/1 7/2/2 1/3/1
f 7/2/2 3/4/3 2/5/2
f 8/6/3 4/7/4 3/4/3
f 5/8/5 9/9/4 10/10/5
f 12/11/6 18/12/7 5/8/5
f 21/13/8 20/14/8 23/15/8
f 11/16/7 17/17/8 13/18/8
f 54/19/9 28/20/10 51/21/9
f 29/22/11 35/23/12 34/24/11
f 31/25/13 35/23/12 30/26/12
f 32/27/14 36/28/13 31/25/13
f 32/27/14 39/29/15 50/30/16
f 48/31/17 49/32/17 45/33/17
f 38/34/15 50/30/16 41/35/17
f 10/36/18 38/37/19 11/38/20
f 26/39/21 52/40/22 25/41/23
f 3/42/24 29/43/25 2/44/26
f 47/45/27 21/46/28 22/47/29
f 39/48/30 5/49/31 18/50/32
f 27/51/33 53/52/34 26/39/21
f 4/53/35 30/54/36 3/42/24
f 23/55/37 47/45/27 22/47/29
f 40/56/38 13/57/39 14/58/40
f 51/59/41 6/60/42 24/61/43
f 5/49/31 31/62/44 4/53/35
f 19/63/45 48/64/46 23/55/37
f 42/65/47 14/58/40 15/66/48
f 1/67/49 54/68/50 27/51/33
f 33/69/51 7/70/52 6/60/42
f 12/71/53 49/72/54 19/63/45
f 16/73/55 42/65/47 15/66/48
f 34/74/56 8/75/57 7/70/52
f 41/76/58 12/71/53 13/57/39
f 17/77/59 43/78/60 16/73/55
f 35/79/61 9/80/62 8/75/57
f 11/38/20 44/81/63 17/77/59
f 45/82/64 18/50/32 20/83/65
f 36/84/66 10/36/18 9/80/62
f 52/40/22 24/61/43 25/41/23
f 2/44/26 28/85/67 1/67/49
f 46/86/68 20/83/65 21/46/28
f 7/2/2 2/5/2 1/3/1
f 1/3/1 27/87/69 24/88/69
f 27/87/69 26/89/69 24/88/69
f 26/89/69 25/90/69 24/88/69
f 24/88/69 6/1/1 1/3/1
f 7/2/2 8/6/3 3/4/3
f 8/6/3 9/9/4 4/7/4
f 5/8/5 4/7/4 9/9/4
f 5/8/5 10/10/5 12/11/6
f 10/10/5 11/16/7 12/11/6
f 20/14/8 18/12/7 19/91/8
f 18/12/7 12/11/6 19/91/8
f 19/91/8 23/15/8 20/14/8
f 23/15/8 22/92/8 21/13/8
f 15/93/8 14/94/8 16/95/8
f 14/94/8 13/18/8 17/17/8
f 16/95/8 14/94/8 17/17/8
f 13/18/8 12/11/6 11/16/7
f 28/20/10 29/22/11 34/24/11
f 34/24/11 33/96/10 28/20/10
f 33/96/10 51/21/9 28/20/10
f 51/21/9 52/97/9 53/98/9
f 53/98/9 54/19/9 51/21/9
f 29/22/11 30/26/12 35/23/12
f 31/25/13 36/28/13 35/23/12
f 32/27/14 37/99/14 36/28/13
f 38/34/15 37/99/14 50/30/16
f 37/99/14 32/27/14 50/30/16
f 50/30/16 39/29/15 49/32/17
f 39/29/15 45/33/17 49/32/17
f 45/33/17 46/100/17 47/101/17
f 47/101/17 48/31/17 45/33/17
f 41/35/17 40/102/17 44/103/17
f 40/102/17 42/104/17 44/103/17
f 42/104/17 43/105/17 44/103/17
f 44/103/17 38/34/15 41/35/17
f 10/36/18 37/106/70 38/37/19
f 26/39/21 53/52/34 52/40/22
f 3/42/24 30/54/36 29/43/25
f 47/45/27 46/86/68 21/46/28
f 39/48/30 32/107/71 5/49/31
f 27/51/33 54/68/50 53/52/34
f 4/53/35 31/62/44 30/54/36
f 23/55/37 48/64/46 47/45/27
f 40/56/38 41/76/58 13/57/39
f 51/59/41 33/69/51 6/60/42
f 5/49/31 32/107/71 31/62/44
f 19/63/45 49/72/54 48/64/46
f 42/65/47 40/56/38 14/58/40
f 1/67/49 28/85/67 54/68/50
f 33/69/51 34/74/56 7/70/52
f 12/71/53 50/108/53 49/72/54
f 16/73/55 43/78/60 42/65/47
f 34/74/56 35/79/61 8/75/57
f 41/76/58 50/108/53 12/71/53
f 17/77/59 44/81/63 43/78/60
f 35/79/61 36/84/66 9/80/62
f 11/38/20 38/37/19 44/81/63
f 45/82/64 39/48/30 18/50/32
f 36/84/66 37/106/70 10/36/18
f 52/40/22 51/59/41 24/61/43
f 2/44/26 29/43/25 28/85/67
f 46/86/68 45/82/64 20/83/65
