# WaveFront *.obj file (generated by Cinema 4D)

mtllib ./0_base.mtl

v 0.173636 0.876771 -0.307739
v 0.172356 0.871281 -0.302175
v 0.195065 0.877614 -0.291643
v 0.196345 0.883104 -0.297207
v 0.308711 0.771924 -0.370307
v 0.277939 0.762086 -0.386188
v 0.279233 0.767642 -0.391821
v 0.310045 0.777678 -0.376146
v 0.212246 0.745022 -0.415046
v 0.183756 0.739465 -0.425199
v 0.185166 0.745594 -0.431428
v 0.213580 0.750775 -0.420884
v 0.176849 0.871576 -0.312097
v 0.199956 0.878020 -0.301381
v 0.275658 0.772736 -0.387630
v 0.334004 0.781367 -0.355517
v 0.335414 0.787496 -0.361746
v 0.234379 0.897206 -0.276212
v 0.233020 0.891329 -0.270245
v 0.151371 0.871766 -0.316908
v 0.150064 0.866142 -0.311206
v 0.131730 0.868578 -0.323818
v 0.130371 0.862702 -0.317851
v 0.244700 0.752817 -0.401604
v 0.245993 0.758372 -0.407236
v 0.215968 0.884522 -0.280640
v 0.217276 0.890145 -0.286343
v 0.210703 0.756047 -0.416386
v 0.189771 0.752230 -0.424153
v 0.141057 0.864347 -0.326053
v 0.154128 0.866468 -0.321454
v 0.242744 0.763557 -0.402895
v 0.324813 0.789892 -0.361523
v 0.306118 0.782657 -0.372135
v 0.232705 0.889908 -0.283547
v 0.221314 0.885205 -0.290295
v 0.194137 0.833944 -0.344840
v 0.195232 0.839289 -0.339494
v 0.187096 0.840934 -0.339509
v 0.266160 0.823823 -0.340441
v 0.268505 0.803390 -0.370101
v 0.267455 0.798246 -0.364745
v 0.174791 0.832142 -0.350363
v 0.188669 0.834518 -0.355862
v 0.187619 0.829375 -0.350505
v 0.228920 0.798471 -0.372082
v 0.229970 0.803614 -0.377439
v 0.196281 0.844432 -0.344851
v 0.195187 0.839087 -0.350197
v 0.188145 0.846077 -0.344866
v 0.175841 0.837285 -0.355720
v 0.231501 0.805588 -0.364743
v 0.267210 0.828966 -0.345798
v 0.232551 0.810731 -0.370099
# 54 vertices

vn -0.481750 0.676625 0.556719
vn -0.480938 0.676844 0.557156
vn -0.428969 0.690313 0.582438
vn 0.523750 -0.663500 -0.534156
vn 0.476938 -0.678031 -0.559125
vn 0.523219 -0.663719 -0.534500
vn 0.384219 -0.699938 -0.601969
vn 0.356094 -0.705063 -0.613156
vn 0.383281 -0.700156 -0.602313
vn 0.139969 0.685750 -0.714188
vn 0.793375 0.334031 0.508781
vn 0.793375 0.333969 0.508875
vn 0.793375 0.333906 0.508875
vn -0.427938 0.690594 0.582969
vn -0.368375 0.702688 0.608594
vn -0.367063 0.702906 0.609156
vn -0.333594 0.708438 0.621844
vn 0.548594 -0.654688 -0.519938
vn 0.433688 -0.689219 -0.580281
vn 0.432938 -0.689438 -0.580594
vn -0.538469 0.658406 0.525781
vn -0.537625 0.658719 0.526125
vn 0.476281 -0.678156 -0.559531
vn -0.936625 -0.118688 -0.329469
vn -0.936719 -0.119000 -0.329188
vn -0.936594 -0.118375 -0.329781
vn -0.568125 0.647219 0.508094
vn 0.793500 0.334250 0.508438
vn -0.157875 -0.696594 -0.699750
vn -0.659375 -0.473563 -0.583875
vn -0.737188 0.553781 0.387094
vn -0.737188 0.553688 0.387188
vn 0.140188 0.700281 0.699844
vn -0.644156 0.610875 0.460281
vn -0.644094 0.610875 0.460281
vn 0.989438 -0.070188 0.126594
vn 0.979688 -0.200219 -0.000375
vn 0.124156 -0.727625 -0.674563
vn -0.936594 -0.118281 -0.329781
vn -0.333531 0.708531 0.621719
vn 0.665250 0.469063 0.580719
vn 0.665313 0.469000 0.580813
vn 0.124156 -0.727813 -0.674344
vn 0.979688 -0.200219 -0.000188
vn -0.158000 -0.696594 -0.699750
# 45 normals

vt 0.144753 0.907694 0.000000
vt 0.143248 0.907713 0.000000
vt 0.144895 0.912748 0.000000
vt 0.000000 1.000000 0.000000
vt 0.172757 0.901709 0.000000
vt 0.173961 0.908750 0.000000
vt 0.174396 0.901121 0.000000
vt 0.171821 0.923784 0.000000
vt 0.169056 0.928291 0.000000
vt 0.173546 0.924711 0.000000
vt 0.948907 0.941165 0.000000
vt 0.949861 0.967825 0.000000
vt 0.954362 0.967825 0.000000
vt 0.144040 0.899332 0.000000
vt 0.145313 0.900409 0.000000
vt 0.170908 0.895374 0.000000
vt 0.143248 0.912877 0.000000
vt 0.145403 0.917942 0.000000
vt 0.143583 0.918344 0.000000
vt 0.146196 0.921546 0.000000
vt 0.169934 0.897212 0.000000
vt 0.173722 0.916535 0.000000
vt 0.175437 0.916821 0.000000
vt 0.144939 0.903324 0.000000
vt 0.143467 0.903198 0.000000
vt 0.175652 0.908674 0.000000
vt 0.169673 0.929828 0.000000
vt 0.144970 0.922832 0.000000
vt 0.961032 0.968405 0.000000
vt 0.965258 0.941892 0.000000
vt 0.961402 0.941466 0.000000
vt 0.958653 0.968084 0.000000
vt 0.955317 0.941165 0.000000
vt 0.943182 0.968405 0.000000
vt 0.942819 0.941466 0.000000
vt 0.938957 0.941892 0.000000
vt 0.945567 0.968084 0.000000
vt 0.851832 0.313370 0.000000
vt 0.850274 0.313758 0.000000
vt 0.851991 0.315046 0.000000
vt 0.848653 0.302916 0.000000
vt 0.849907 0.302898 0.000000
vt 0.851432 0.315908 0.000000
vt 0.854184 0.315710 0.000000
vt 0.853451 0.314660 0.000000
vt 0.853936 0.314201 0.000000
vt 0.853440 0.303074 0.000000
vt 0.854914 0.296418 0.000000
vt 0.852123 0.303032 0.000000
vt 0.853603 0.297652 0.000000
vt 0.850746 0.297760 0.000000
vt 0.854914 0.314299 0.000000
vt 0.853454 0.313233 0.000000
vt 0.849741 0.296885 0.000000
vt 0.854708 0.313075 0.000000
# 55 texture coordinates

o buttons.060
usemtl dhd.002_1
f 1/3/3 3/2/2 4/1/1
f 5/7/6 7/6/5 8/5/4
f 9/10/9 11/9/8 12/8/7
f 13/13/10 14/12/10 15/11/10
f 16/16/13 18/15/12 19/14/11
f 20/18/15 2/17/14 1/3/3
f 22/20/17 21/19/16 20/18/15
f 16/16/18 8/5/4 17/21/18
f 24/23/20 12/8/7 25/22/19
f 4/1/1 26/25/22 27/24/21
f 6/26/23 25/22/19 7/6/5
f 23/28/26 11/9/25 10/27/24
f 27/24/21 19/14/27 18/15/27
f 28/31/10 29/30/10 30/29/10
f 28/31/10 30/29/10 31/32/10
f 15/11/10 32/33/10 13/13/10
f 32/33/10 28/31/10 31/32/10
f 13/13/10 32/33/10 31/32/10
f 33/36/10 34/35/10 35/34/10
f 34/35/10 15/11/10 36/37/10
f 36/37/10 15/11/10 14/12/10
f 36/37/10 35/34/10 34/35/10
f 16/16/13 17/21/28 18/15/12
f 9/10/9 10/27/8 11/9/8
f 43/40/29 44/39/29 45/38/29
f 46/42/30 44/39/30 47/41/30
f 27/24/21 26/25/22 19/14/27
f 43/40/32 50/44/32 51/43/31
f 38/46/33 50/44/33 39/45/33
f 52/49/34 53/48/35 54/47/34
f 42/51/36 53/48/36 40/50/36
f 37/53/37 48/52/37 38/46/37
f 46/42/38 41/54/38 42/51/38
f 23/28/26 22/20/39 11/9/25
f 22/20/17 23/28/40 21/19/16
f 52/49/41 49/55/41 37/53/41
f 6/26/23 24/23/20 25/22/19
f 5/7/6 6/26/23 7/6/5
f 38/46/33 48/52/33 50/44/33
f 1/3/3 2/17/14 3/2/2
f 16/16/18 5/7/6 8/5/4
f 52/49/42 54/47/42 49/55/42
f 20/18/15 21/19/16 2/17/14
f 24/23/20 9/10/9 12/8/7
f 46/42/43 47/41/43 41/54/43
f 37/53/44 49/55/44 48/52/44
f 42/51/36 41/54/36 53/48/36
f 52/49/34 40/50/35 53/48/35
f 43/40/45 51/43/45 44/39/45
f 46/42/30 45/38/30 44/39/30
f 4/1/1 3/2/2 26/25/22
f 43/40/32 39/45/32 50/44/32

