# Blender v3.0.0 OBJ File: ''
# www.blender.org
mtllib 11.mtl
o buttons.010
v -0.320903 1.172397 0.183882
v -0.335026 1.161258 0.165357
v -0.341150 1.161290 0.169692
v -0.326780 1.172625 0.188542
v -0.306289 1.182963 0.200606
v -0.311867 1.183407 0.205608
v -0.454162 1.177935 0.290488
v -0.433085 1.193408 0.315206
v -0.427428 1.193021 0.310293
v -0.448262 1.177726 0.285859
v -0.347275 1.150634 0.146843
v -0.353651 1.150449 0.150799
v -0.359763 1.144409 0.139684
v -0.302768 1.189367 0.214448
v -0.474834 1.161630 0.263373
v -0.468732 1.161580 0.259009
v -0.486766 1.146216 0.232457
v -0.493077 1.146088 0.236513
v -0.356453 1.141566 0.130153
v -0.497105 1.136447 0.214790
v -0.413123 1.202691 0.324952
v -0.292616 1.191919 0.213890
v -0.507108 1.132831 0.212539
v -0.413668 1.206534 0.335106
v -0.354191 1.188466 0.226714
v -0.355123 1.185044 0.218657
v -0.381491 1.179691 0.223351
v -0.435424 1.161093 0.213498
v -0.443756 1.154423 0.202319
v -0.454520 1.158162 0.219301
v -0.438989 1.162787 0.220280
v -0.432037 1.166370 0.224567
v -0.424382 1.169834 0.228062
v -0.421485 1.167529 0.220189
v -0.414521 1.173633 0.230877
v -0.403527 1.177267 0.232486
v -0.402228 1.174245 0.223899
v -0.394019 1.180081 0.233042
v -0.393884 1.176727 0.224418
v -0.345368 1.192693 0.231338
v -0.348320 1.184485 0.212511
vt 0.562199 0.024697
vt 0.413337 0.067561
vt 0.563493 0.067561
vt 0.702498 0.016223
vt 0.706665 0.058911
vt 0.596414 0.999907
vt 0.798378 0.947010
vt 0.595356 0.957044
vt 0.274233 0.016223
vt 0.270071 0.058913
vt 0.190497 0.048177
vt 0.786050 0.048185
vt 0.381473 0.957044
vt 0.380414 0.999906
vt 0.178350 0.947008
vt 0.154755 0.000105
vt 0.049505 0.932783
vt 0.927040 0.932788
vt 0.821790 0.000105
vt 0.801793 0.989757
vt 0.174938 0.989755
vt 0.000098 0.970451
vt 0.976447 0.970451
vt 0.388328 0.809240
vt 0.365632 0.801856
vt 0.387051 0.730978
vt 0.375378 0.574463
vt 0.346034 0.544553
vt 0.397745 0.524557
vt 0.395807 0.568528
vt 0.405914 0.590493
vt 0.413552 0.613951
vt 0.390215 0.617374
vt 0.418576 0.643170
vt 0.419816 0.674838
vt 0.394929 0.673372
vt 0.418506 0.701728
vt 0.393869 0.696990
vt 0.398827 0.836633
vt 0.346034 0.817216
vt 0.414629 0.024698
vn -0.2462 0.9020 -0.3547
vn -0.2463 0.9020 -0.3546
vn -0.2463 0.9020 -0.3547
vn -0.2462 0.9020 -0.3546
usemtl dhd_button_light.020
s 1
f 1/1/1 3/2/2 4/3/1
f 5/4/3 4/3/1 6/5/3
f 7/6/2 9/7/3 10/8/2
f 3/2/2 11/9/3 12/10/1
f 11/9/3 13/11/2 12/10/1
f 14/12/1 5/4/3 6/5/3
f 7/6/2 16/13/1 15/14/1
f 17/15/1 15/14/1 16/13/1
f 19/16/2 20/17/1 13/11/2
f 21/18/2 22/19/1 14/12/1
f 8/20/2 21/18/2 9/7/3
f 20/17/1 18/21/1 17/15/1
f 11/9/3 19/16/2 13/11/2
f 14/12/1 22/19/1 5/4/3
f 19/16/2 23/22/1 20/17/1
f 21/18/2 24/23/2 22/19/1
f 8/20/2 24/23/2 21/18/2
f 20/17/1 23/22/1 18/21/1
f 25/24/2 26/25/4 27/26/4
f 28/27/1 29/28/1 30/29/1
f 31/30/1 32/31/1 28/27/1
f 32/31/1 33/32/1 34/33/1
f 28/27/1 30/29/1 31/30/1
f 34/33/1 28/27/1 32/31/1
f 33/32/1 35/34/1 34/33/1
f 35/34/1 36/35/1 37/36/1
f 36/35/1 38/37/4 39/38/4
f 25/24/2 40/39/2 41/40/2
f 36/35/1 39/38/4 37/36/1
f 38/37/4 25/24/2 27/26/4
f 39/38/4 38/37/4 27/26/4
f 37/36/1 34/33/1 35/34/1
f 25/24/2 41/40/2 26/25/4
f 1/1/1 2/41/2 3/2/2
f 5/4/3 1/1/1 4/3/1
f 7/6/2 8/20/2 9/7/3
f 3/2/2 2/41/2 11/9/3
f 7/6/2 10/8/2 16/13/1
f 17/15/1 18/21/1 15/14/1
