# Blender v3.0.0 OBJ File: ''
# www.blender.org
mtllib 11_base.mtl
o buttons.071
v -0.347275 1.150634 0.146843
v -0.345179 1.143404 0.149875
v -0.354265 1.134002 0.133316
v -0.356453 1.141566 0.130153
v -0.504829 1.124937 0.215832
v -0.490934 1.138688 0.239612
v -0.493077 1.146088 0.236513
v -0.507108 1.132831 0.212539
v -0.452089 1.170795 0.293485
v -0.430942 1.186008 0.318305
v -0.433085 1.193408 0.315206
v -0.454162 1.177935 0.290488
v -0.326780 1.172625 0.188542
v -0.341150 1.161290 0.169692
v -0.468732 1.161580 0.259009
v -0.306289 1.182963 0.200606
v -0.304192 1.175734 0.203637
v -0.318854 1.165344 0.186845
v -0.320903 1.172397 0.183882
v -0.472761 1.154489 0.266370
v -0.474834 1.161630 0.263373
v -0.411389 1.198640 0.338399
v -0.413668 1.206534 0.335106
v -0.290428 1.184356 0.217053
v -0.292616 1.191919 0.213890
v -0.335026 1.161258 0.165357
v -0.332977 1.154204 0.168320
v -0.427428 1.193021 0.310293
v -0.413123 1.202691 0.324952
v -0.302768 1.189367 0.214448
v -0.311867 1.183407 0.205608
v -0.448262 1.177726 0.285859
v -0.497105 1.136447 0.214790
v -0.486766 1.146216 0.232457
v -0.359763 1.144409 0.139684
v -0.353651 1.150449 0.150799
v -0.379644 1.172926 0.226011
v -0.353276 1.178279 0.221317
v -0.352344 1.181701 0.229374
v -0.343521 1.185928 0.233998
v -0.348320 1.184485 0.212511
v -0.345368 1.192693 0.231338
v -0.419638 1.160764 0.222849
v -0.435424 1.161093 0.213498
v -0.421485 1.167529 0.220189
v -0.392037 1.169962 0.227078
v -0.402228 1.174245 0.223899
v -0.393884 1.176727 0.224418
v -0.437142 1.156022 0.222940
v -0.432037 1.166370 0.224567
v -0.438989 1.162787 0.220280
v -0.346473 1.177720 0.215171
v -0.355123 1.185044 0.218657
v -0.392173 1.173316 0.235702
v -0.403527 1.177267 0.232486
v -0.401680 1.170502 0.235146
v -0.354191 1.188466 0.226714
v -0.394019 1.180081 0.233042
v -0.400381 1.167480 0.226559
v -0.452673 1.151397 0.221961
v -0.454520 1.158162 0.219301
v -0.381491 1.179691 0.223351
v -0.412674 1.166868 0.233537
v -0.414521 1.173633 0.230877
v -0.424382 1.169834 0.228062
v -0.422535 1.163069 0.230722
v -0.430190 1.159605 0.227227
v -0.441909 1.147658 0.204979
v -0.443756 1.154423 0.202319
v -0.433577 1.154328 0.216158
vt 0.027317 0.594636
vt 0.026418 0.590643
vt 0.027692 0.591721
vt 0.053287 0.586685
vt 0.055136 0.593021
vt 0.052313 0.588524
vt 0.057815 0.608133
vt 0.054200 0.615096
vt 0.056101 0.607847
vt 0.016566 0.956516
vt 0.012065 0.956516
vt 0.011110 0.929857
vt 0.027782 0.609254
vt 0.025627 0.604188
vt 0.027274 0.604059
vt 0.058031 0.599986
vt 0.056340 0.600062
vt 0.055924 0.616023
vt 0.051434 0.619603
vt 0.027349 0.614144
vt 0.052052 0.621140
vt 0.027131 0.599005
vt 0.025846 0.594510
vt 0.025627 0.599025
vt 0.056775 0.592433
vt 0.028574 0.612858
vt 0.025962 0.609656
vt 0.023606 0.930157
vt 0.027462 0.930584
vt 0.023236 0.957097
vt 0.020857 0.956776
vt 0.017521 0.929857
vt 0.001160 0.930584
vt 0.005022 0.930157
vt 0.005386 0.957097
vt 0.007771 0.956775
vt 0.894573 0.222933
vt 0.894231 0.218335
vt 0.895464 0.218314
vt 0.895376 0.217076
vt 0.893237 0.216701
vt 0.895853 0.216298
vt 0.894457 0.229877
vt 0.892943 0.232535
vt 0.893222 0.229778
vt 0.894658 0.225036
vt 0.893438 0.226438
vt 0.893447 0.225058
vt 0.895323 0.232630
vt 0.896780 0.231498
vt 0.896492 0.232854
vt 0.893996 0.217515
vt 0.892943 0.218416
vt 0.896123 0.224910
vt 0.897316 0.226482
vt 0.896105 0.226448
vt 0.896787 0.217936
vt 0.897330 0.224866
vt 0.894631 0.226477
vt 0.895223 0.234191
vt 0.895712 0.235059
vt 0.893368 0.223012
vt 0.896032 0.228255
vt 0.897198 0.228350
vt 0.897018 0.230072
vt 0.895864 0.229922
vt 0.895640 0.231290
vt 0.894050 0.234194
vt 0.893443 0.234752
vt 0.894200 0.232493
vn 0.8496 0.0254 -0.5268
vn 0.8657 0.0418 -0.4988
vn -0.8551 -0.0310 0.5176
vn -0.8413 -0.0174 0.5403
vn -0.7867 0.0304 0.6166
vn -0.7552 0.0548 0.6532
vn -0.7872 0.0300 0.6160
vn -0.2462 0.9020 -0.3547
vn 0.7446 -0.0627 -0.6646
vn 0.7836 -0.0330 -0.6204
vn 0.7842 -0.0325 -0.6197
vn -0.4083 -0.4498 -0.7943
vn -0.4083 -0.4497 -0.7944
vn -0.4084 -0.4496 -0.7944
vn -0.8135 0.0079 0.5815
vn -0.8139 0.0076 0.5810
vn -0.7545 0.0553 0.6540
vn -0.7362 0.0684 0.6733
vn 0.6602 0.4440 0.6058
vn 0.6603 0.4438 0.6059
vn 0.6602 0.4439 0.6059
vn 0.8168 -0.0051 -0.5769
vn 0.8492 0.0250 -0.5275
vn 0.8163 -0.0055 -0.5776
vn -0.8410 -0.0171 0.5408
vn 0.7209 -0.0794 -0.6885
vn 0.7437 -0.0633 -0.6656
vn -0.2463 0.9020 -0.3547
vn 0.2462 -0.9020 0.3547
vn 0.2462 -0.9020 0.3546
vn 0.2463 -0.9020 0.3546
vn 0.9587 0.1730 -0.2257
vn 0.3895 -0.2430 -0.8884
vn 0.6674 -0.1076 -0.7369
vn 0.0810 -0.3455 -0.9349
vn 0.2159 -0.3057 -0.9273
vn -0.3763 0.2482 0.8926
vn -0.5296 0.1812 0.8286
vn -0.6251 -0.4275 -0.6531
vn -0.0426 0.3555 0.9337
vn -0.1929 0.3130 0.9300
vn -0.5240 0.1839 0.8316
vn 0.0664 0.3808 0.9223
vn -0.1554 0.3244 0.9331
vn -0.1554 0.3244 0.9330
vn -0.0393 -0.3749 -0.9262
vn -0.2955 0.2786 0.9138
vn -0.4195 0.2307 0.8780
vn -0.0855 -0.3847 -0.9191
vn -0.8138 -0.3912 -0.4297
vn 0.8054 -0.0131 -0.5925
vn 0.6673 -0.1076 -0.7369
vn 0.8055 -0.0131 -0.5925
vn -0.4084 -0.4494 -0.7945
vn -0.7362 0.0684 0.6734
vn 0.6603 0.4437 0.6059
usemtl dhd.014
s 1
f 1/1/1 3/2/2 4/3/2
f 5/4/3 7/5/4 8/6/3
f 9/7/5 11/8/6 12/9/7
f 13/10/8 14/11/8 15/12/8
f 16/13/9 18/14/10 19/15/11
f 5/4/12 4/3/13 3/2/14
f 20/16/15 12/9/7 21/17/16
f 10/18/17 23/19/18 11/8/6
f 24/20/19 23/19/20 22/21/21
f 26/22/22 2/23/23 1/1/1
f 19/15/11 27/24/24 26/22/22
f 6/25/25 21/17/16 7/5/4
f 25/26/26 17/27/27 16/13/9
f 28/28/8 29/29/28 30/30/28
f 28/28/8 30/30/28 31/31/8
f 15/12/8 32/32/8 13/10/8
f 32/32/8 28/28/8 31/31/8
f 13/10/8 32/32/8 31/31/8
f 33/33/8 34/34/8 35/35/28
f 34/34/8 15/12/8 36/36/28
f 36/36/28 15/12/8 14/11/8
f 36/36/28 35/35/28 34/34/8
f 37/37/29 38/38/30 39/39/31
f 40/40/32 41/41/32 42/42/32
f 43/43/33 44/44/34 45/45/33
f 46/46/35 47/47/36 48/48/35
f 49/49/37 50/50/38 51/51/37
f 52/52/39 53/53/39 41/41/39
f 54/54/40 55/55/41 56/56/41
f 40/40/42 57/57/42 39/39/42
f 54/54/40 57/57/43 58/58/40
f 43/43/33 47/47/36 59/59/36
f 60/60/44 51/51/37 61/61/45
f 37/37/46 48/48/35 62/62/46
f 63/63/47 55/55/41 64/64/47
f 63/63/47 65/65/48 66/66/48
f 38/38/49 62/62/46 53/53/49
f 66/66/48 50/50/38 67/67/38
f 68/68/50 61/61/50 69/69/50
f 68/68/51 44/44/34 70/70/52
f 60/60/29 68/68/29 70/70/29
f 60/60/29 70/70/29 49/49/29
f 70/70/29 43/43/29 67/67/29
f 49/49/29 70/70/29 67/67/29
f 66/66/29 67/67/29 43/43/29
f 43/43/29 59/59/29 63/63/29
f 63/63/29 66/66/29 43/43/29
f 54/54/29 56/56/29 46/46/29
f 56/56/29 63/63/29 59/59/29
f 46/46/29 56/56/29 59/59/29
f 52/52/31 40/40/31 39/39/31
f 39/39/31 54/54/29 37/37/29
f 37/37/29 54/54/29 46/46/29
f 38/38/30 52/52/31 39/39/31
f 40/40/32 52/52/32 41/41/32
f 43/43/33 70/70/52 44/44/34
f 46/46/35 59/59/36 47/47/36
f 49/49/37 67/67/38 50/50/38
f 52/52/39 38/38/39 53/53/39
f 54/54/40 58/58/40 55/55/41
f 40/40/42 42/42/42 57/57/42
f 54/54/40 39/39/43 57/57/43
f 43/43/33 45/45/33 47/47/36
f 60/60/44 49/49/37 51/51/37
f 37/37/46 46/46/35 48/48/35
f 63/63/47 56/56/41 55/55/41
f 63/63/47 64/64/47 65/65/48
f 38/38/49 37/37/46 62/62/46
f 66/66/48 65/65/48 50/50/38
f 68/68/50 60/60/50 61/61/50
f 68/68/51 69/69/53 44/44/34
f 1/1/1 2/23/23 3/2/2
f 5/4/3 6/25/25 7/5/4
f 9/7/5 10/18/17 11/8/6
f 16/13/9 17/27/27 18/14/10
f 5/4/12 8/6/54 4/3/13
f 20/16/15 9/7/5 12/9/7
f 10/18/17 22/21/55 23/19/18
f 24/20/19 25/26/56 23/19/20
f 26/22/22 27/24/24 2/23/23
f 19/15/11 18/14/10 27/24/24
f 6/25/25 20/16/15 21/17/16
f 25/26/26 24/20/26 17/27/27
