# Blender v3.0.0 OBJ File: ''
# www.blender.org
mtllib 12.mtl
o buttons.012
v -0.542383 1.057887 0.085567
v -0.549460 1.056608 0.087709
v -0.542280 1.074336 0.118204
v -0.535285 1.075412 0.115713
v -0.389715 1.098612 0.065459
v -0.382710 1.099708 0.063002
v -0.387367 1.087630 0.042070
v -0.394466 1.086287 0.044099
v -0.396144 1.079577 0.031870
v -0.522534 1.111402 0.178832
v -0.507919 1.123658 0.193523
v -0.515751 1.112085 0.175698
v -0.533002 1.093217 0.149603
v -0.526098 1.094108 0.146805
v -0.376371 1.112608 0.084453
v -0.383265 1.111737 0.087286
v -0.368971 1.125066 0.104325
v -0.375712 1.124451 0.107565
v -0.389886 1.077556 0.023708
v -0.545612 1.046951 0.065960
v -0.361234 1.135864 0.120671
v -0.370564 1.131636 0.118443
v -0.511902 1.127112 0.203029
v -0.553841 1.041767 0.061102
v -0.423047 1.118478 0.109615
v -0.430503 1.115668 0.108964
v -0.434663 1.119933 0.120198
v -0.458558 1.102532 0.101420
v -0.449986 1.107378 0.105380
v -0.450833 1.104042 0.099308
v -0.474934 1.090551 0.088441
v -0.500872 1.082215 0.089040
v -0.476304 1.092829 0.093877
v -0.461787 1.100438 0.099395
v -0.472535 1.098232 0.102125
v -0.470831 1.104943 0.114339
v -0.445609 1.110459 0.108609
v -0.451299 1.109291 0.110054
v -0.408322 1.126319 0.115455
v -0.403609 1.121867 0.103482
v -0.447091 1.104622 0.097984
v -0.439346 1.106212 0.096018
v -0.437300 1.114273 0.110689
v -0.424224 1.112666 0.098838
v -0.457732 1.105788 0.107347
v -0.504805 1.077343 0.081956
v -0.514263 1.080219 0.093937
v -0.513195 1.084428 0.101599
v -0.499602 1.087218 0.098147
v -0.473048 1.096207 0.098439
v -0.465646 1.092909 0.086980
vt 0.178351 0.947008
vt 0.380414 0.999906
vt 0.381472 0.957043
vt 0.413336 0.067563
vt 0.274233 0.016223
vt 0.270071 0.058914
vt 0.190497 0.048178
vt 0.801792 0.989756
vt 0.927039 0.932789
vt 0.798377 0.947010
vt 0.596413 0.999907
vt 0.595355 0.957044
vt 0.414628 0.024700
vt 0.563491 0.067561
vt 0.562198 0.024699
vt 0.702497 0.016223
vt 0.706665 0.058912
vt 0.154755 0.000105
vt 0.049505 0.932784
vt 0.821790 0.000106
vt 0.786049 0.048186
vt 0.174938 0.989755
vt 0.976446 0.970451
vt 0.000098 0.970451
vt 0.530834 0.690643
vt 0.535299 0.645281
vt 0.607795 0.644012
vt 0.608841 0.627604
vt 0.647689 0.674007
vt 0.607895 0.674062
vt 0.402365 0.758062
vt 0.393174 0.602948
vt 0.436314 0.751898
vt 0.658074 0.627449
vt 0.607895 0.586970
vt 0.658074 0.524592
vt 0.550163 0.555365
vt 0.565289 0.524771
vt 0.549513 0.789681
vt 0.471933 0.792679
vt 0.487695 0.524591
vt 0.467109 0.566230
vt 0.553368 0.608734
vt 0.467109 0.661353
vt 0.647689 0.627549
vt 0.346067 0.576734
vt 0.417656 0.524592
vt 0.467008 0.533868
vt 0.451833 0.613979
vt 0.467009 0.773110
vt 0.397713 0.813136
vn -0.2851 0.8563 -0.4307
vn -0.2850 0.8563 -0.4307
vn -0.2852 0.8563 -0.4306
vn -0.2852 0.8563 -0.4307
vn -0.2851 0.8563 -0.4306
usemtl dhd_button_light.023
s 1
f 1/1/1 3/2/1 4/3/1
f 5/4/2 7/5/1 8/6/1
f 7/5/1 9/7/1 8/6/1
f 10/8/3 11/9/3 12/10/3
f 13/11/1 12/10/3 14/12/1
f 6/13/1 16/14/1 15/15/4
f 17/16/1 16/14/1 18/17/1
f 13/11/1 4/3/1 3/2/1
f 19/18/1 20/19/4 9/7/1
f 11/9/3 21/20/4 22/21/4
f 22/21/4 17/16/1 18/17/1
f 20/19/4 2/22/1 1/1/1
f 7/5/1 19/18/1 9/7/1
f 10/8/3 23/23/3 11/9/3
f 19/18/1 24/24/4 20/19/4
f 11/9/3 23/23/3 21/20/4
f 22/21/4 21/20/4 17/16/1
f 20/19/4 24/24/4 2/22/1
f 25/25/1 26/26/1 27/27/5
f 28/28/1 29/29/1 30/30/1
f 31/31/1 32/32/5 33/33/1
f 34/34/1 35/35/1 36/36/1
f 37/37/4 38/38/1 27/27/5
f 25/25/1 39/39/3 40/40/4
f 41/41/5 37/37/4 42/42/4
f 37/37/4 27/27/5 43/43/3
f 43/43/3 42/42/4 37/37/4
f 40/40/4 44/44/1 25/25/1
f 44/44/1 26/26/1 25/25/1
f 26/26/1 43/43/3 27/27/5
f 28/28/1 45/45/1 29/29/1
f 46/46/5 47/47/5 32/32/5
f 47/47/5 48/48/1 49/49/5
f 32/32/5 47/47/5 49/49/5
f 33/33/1 50/50/5 51/51/5
f 33/33/1 51/51/5 31/31/1
f 31/31/1 46/46/5 32/32/5
f 1/1/1 2/22/1 3/2/1
f 5/4/2 6/13/1 7/5/1
f 13/11/1 10/8/3 12/10/3
f 6/13/1 5/4/2 16/14/1
f 17/16/1 15/15/4 16/14/1
f 13/11/1 14/12/1 4/3/1
