# WaveFront *.obj file (generated by Cinema 4D)

mtllib ./15.mtl

v -0.29688200354576 0.92540401220322 -0.22686199843884
v -0.27939400076866 0.9156140089035 -0.24314300715923
v -0.28451499342918 0.91113597154617 -0.24630899727345
v -0.3023099899292 0.92109698057175 -0.22974300384521
v -0.36487400531769 0.80542302131653 -0.33427399396896
v -0.3697290122509 0.8008159995079 -0.33766600489616
v -0.39532899856567 0.81340700387955 -0.31571298837662
v -0.39017999172211 0.81787002086639 -0.31257298588753
v -0.31246599555016 0.9355800151825 -0.21078599989414
v -0.31821298599243 0.93148201704025 -0.21333700418472
v -0.26171299815178 0.90716797113419 -0.25803399085999
v -0.26647299528122 0.90251797437668 -0.26150500774384
v -0.32630100846291 0.9378479719162 -0.20382300019264
v -0.44401699304581 0.84240198135376 -0.26850900053978
v -0.45185101032257 0.85654902458191 -0.25067201256752
v -0.43835300207138 0.84655600786209 -0.26587000489235
v -0.34785398840904 0.79833298921585 -0.34748500585556
v -0.42092698812485 0.82773697376251 -0.29188299179077
v -0.41552799940109 0.83205902576447 -0.28897601366043
v -0.24557100236416 0.90089398622513 -0.27007800340652
v -0.25572100281715 0.89833897352219 -0.26952600479126
v -0.32462000846863 0.94514602422714 -0.19648799300194
v -0.46233999729156 0.85596698522568 -0.24787800014019
v -0.34663400053978 0.79119497537613 -0.35559299588203
v -0.34559398889542 0.85663002729416 -0.29656198620796
v -0.34267500042915 0.87000274658203 -0.28306949138641
v -0.39367899298668 0.86206299066544 -0.27500399947166
v -0.34523299336433 0.88043600320816 -0.27096500992775
v -0.36736300587654 0.8761950135231 -0.26832601428032
v -0.34378901124001 0.88818699121475 -0.26306399703026
v -0.38644900918007 0.86344397068024 -0.27587199211121
v -0.3846510052681 0.85858798027039 -0.28170299530029
v -0.38990500569344 0.86232501268387 -0.27595299482346
v -0.38578701019287 0.8670009970665 -0.27224498987198
v -0.35774499177933 0.8682079911232 -0.28009098768234
v -0.3074109852314 0.89609599113464 -0.26639100909233
v -0.30585500597954 0.895063996315 -0.26801401376724
v -0.35709100961685 0.86403697729111 -0.2848100066185
v -0.39285200834274 0.86650997400284 -0.27047100663185
v -0.36147999763489 0.87271201610565 -0.27400800585747
v -0.39177599549294 0.85227102041244 -0.28620201349258
# 41 vertices

vn -0.21634374558926 0.71634376049042 -0.66328126192093
vn -0.21625000238419 0.71646875143051 -0.6631875038147
vn -0.21634374558926 0.71634376049042 -0.6631875038147
vn -0.21634374558926 0.71640622615814 -0.6631875038147
vn -0.21646875143051 0.71646875143051 -0.6631875038147
vn -0.21634374558926 0.71646875143051 -0.6631875038147
vn -0.21625000238419 0.71634376049042 -0.66328126192093
vn -0.21646875143051 0.71634376049042 -0.66328126192093
# 8 normals

vt 0.56349194049835 0.06756103038788 0
vt 0.41333699226379 0.06756198406219 0
vt 0.56219899654388 0.02469801902771 0
vt 0 1 0
vt 0.38147300481796 0.95704400539398 0
vt 0.38041400909424 0.99990600347519 0
vt 0.1783509850502 0.94700902700424 0
vt 0.70666491985321 0.05891299247742 0
vt 0.70249795913696 0.01622307300568 0
vt 0.27007097005844 0.05891406536102 0
vt 0.27423298358917 0.01622402667999 0
vt 0.78604996204376 0.04818606376648 0
vt 0.79837691783905 0.94701099395752 0
vt 0.92703998088837 0.93279004096985 0
vt 0.80179297924042 0.98975700139999 0
vt 0.174939006567 0.98975497484207 0
vt 0.04950499534607 0.93278300762177 0
vt 0.59535491466522 0.95704501867294 0
vt 0.59641396999359 0.99990701675415 0
vt 0.19049698114395 0.04817807674408 0
vt 0.15475499629974 0.00010502338409 0
vt 0.82178997993469 0.00010502338409 0
vt 0.97644591331482 0.97045201063156 0
vt 0.00009799998952 0.97045201063156 0
vt 0.46756196022034 0.52454203367233 0
vt 0.46756196022034 0.61229199171066 0
vt 0.49765300750732 0.54488199949265 0
vt 0.44345498085022 0.54248702526093 0
vt 0.41772300004959 0.55380803346634 0
vt 0.44309198856354 0.55430203676224 0
vt 0.40326994657516 0.69468301534653 0
vt 0.46756196022034 0.83320301771164 0
vt 0.41912698745728 0.64692103862762 0
vt 0.46028500795364 0.83664798736572 0
vt 0.3460179567337 0.6695140004158 0
vt 0.39875799417496 0.64380103349686 0
vt 0.41462898254395 0.02469897270203 0
vt 0.49533295631409 0.60420703887939 0
vt 0.39989399909973 0.52454203367233 0
vt 0.45850801467896 0.56065201759338 0
vt 0.46756196022034 0.5386900305748 0
vt 0.44829297065735 0.5307520031929 0
# 42 texture coordinates

o buttons.039
usemtl dhd_button_light.026
f 1/3/1 3/2/1 4/1/1
f 5/7/1 7/6/1 8/5/1
f 9/9/1 4/1/1 10/8/1
f 3/2/1 11/11/2 12/10/2
f 13/12/3 9/9/1 10/8/1
f 14/15/1 15/14/3 16/13/1
f 17/17/1 6/16/1 5/7/1
f 18/19/1 16/13/1 19/18/1
f 7/6/1 19/18/1 8/5/1
f 20/21/1 17/17/1 21/20/1
f 15/14/3 22/22/3 13/12/3
f 11/11/2 21/20/1 12/10/2
f 13/12/3 22/22/3 9/9/1
f 14/15/1 23/23/3 15/14/3
f 17/17/1 24/24/1 6/16/1
f 20/21/1 24/24/1 17/17/1
f 15/14/3 23/23/3 22/22/3
f 11/11/2 20/21/1 21/20/1
f 7/6/1 18/19/1 19/18/1
f 28/27/1 29/26/3 30/25/1
f 31/30/1 32/29/1 33/28/1
f 18/19/1 14/15/1 16/13/1
f 35/33/1 36/32/5 26/31/4
f 36/32/5 37/34/5 26/31/4
f 37/34/5 25/35/1 26/31/4
f 25/35/1 38/36/3 26/31/4
f 3/2/1 2/37/1 11/11/2
f 28/27/1 40/38/6 29/26/3
f 31/30/1 35/33/1 32/29/1
f 35/33/1 26/31/4 38/36/3
f 32/29/1 35/33/1 38/36/3
f 9/9/1 1/3/1 4/1/1
f 32/29/1 41/39/7 33/28/1
f 39/41/3 34/40/6 33/28/1
f 34/40/6 31/30/1 33/28/1
f 33/28/1 27/42/8 39/41/3
f 1/3/1 2/37/1 3/2/1
f 5/7/1 6/16/1 7/6/1

