# WaveFront *.obj file (generated by Cinema 4D)

mtllib ./15_base.mtl

v -0.44236800074577 0.83652299642563 -0.26287999749184
v -0.46057298779488 0.84969598054886 -0.24188700318336
v -0.46233999729156 0.85596698522568 -0.24787800014019
v -0.44401699304581 0.84240198135376 -0.26850900053978
v -0.32293298840523 0.93913799524307 -0.19074000418186
v -0.32462000846863 0.94514602422714 -0.19648799300194
v -0.36808100342751 0.79493701457977 -0.33203798532486
v -0.39374300837517 0.80773401260376 -0.31027600169182
v -0.39532899856567 0.81340700387955 -0.31571298837662
v -0.3697290122509 0.8008159995079 -0.33766600489616
v -0.27939400076866 0.9156140089035 -0.24314300715923
v -0.27782899141312 0.91000998020172 -0.23776899278164
v -0.26010599732399 0.90142500400543 -0.2525309920311
v -0.26171299815178 0.90716797113419 -0.25803399085999
v -0.29688200354576 0.92540401220322 -0.22686199843884
v -0.29531699419022 0.91979998350143 -0.2214889973402
v -0.4193400144577 0.82206398248672 -0.28644600510597
v -0.42092698812485 0.82773697376251 -0.29188299179077
v -0.24388299882412 0.89488500356674 -0.26432999968529
v -0.24557100236416 0.90089398622513 -0.27007800340652
v -0.3023099899292 0.92109698057175 -0.22974300384521
v -0.28451499342918 0.91113597154617 -0.24630899727345
v -0.39017999172211 0.81787002086639 -0.31257298588753
v -0.34486699104309 0.78492301702499 -0.34960201382637
v -0.34663400053978 0.79119497537613 -0.35559299588203
v -0.31246599555016 0.9355800151825 -0.21078599989414
v -0.31085899472237 0.9298369884491 -0.20528300106525
v -0.43835300207138 0.84655600786209 -0.26587000489235
v -0.45185101032257 0.85654902458191 -0.25067201256752
v -0.32630100846291 0.9378479719162 -0.20382300019264
v -0.31821298599243 0.93148201704025 -0.21333700418472
v -0.41552799940109 0.83205902576447 -0.28897601366043
v -0.34785398840904 0.79833298921585 -0.34748500585556
v -0.36487400531769 0.80542302131653 -0.33427399396896
v -0.25572100281715 0.89833897352219 -0.26952600479126
v -0.26647299528122 0.90251797437668 -0.26150500774384
v -0.32040199637413 0.8789370059967 -0.26937898993492
v -0.34333699941635 0.85652202367783 -0.28610700368881
v -0.34397101402283 0.85125702619553 -0.29158800840378
v -0.36574000120163 0.87082201242447 -0.26335200667381
v -0.34360998868942 0.87506300210953 -0.26599100232124
v -0.34216600656509 0.88281399011612 -0.25808998942375
v -0.38828200101852 0.85695201158524 -0.27097800374031
v -0.38302698731422 0.85321497917175 -0.27672898769379
v -0.38482600450516 0.85807001590729 -0.27089801430702
v -0.34378901124001 0.88818699121475 -0.26306399703026
v -0.36736300587654 0.8761950135231 -0.26832601428032
v -0.35985699295998 0.86733901500702 -0.26903301477432
v -0.34523299336433 0.88043600320816 -0.27096500992775
v -0.39205598831177 0.8566899895668 -0.27002999186516
v -0.38990500569344 0.86232501268387 -0.27595299482346
v -0.38416400551796 0.86162799596786 -0.26727101206779
v -0.39285200834274 0.86650997400284 -0.27047100663185
v -0.39122900366783 0.86113697290421 -0.26549598574638
v -0.30578801035881 0.89072299003601 -0.26141598820686
v -0.30585500597954 0.895063996315 -0.26801401376724
v -0.3074109852314 0.89609599113464 -0.26639100909233
v -0.35546800494194 0.85866302251816 -0.27983599901199
v -0.34559398889542 0.85663002729416 -0.29656198620796
v -0.36147999763489 0.87271201610565 -0.27400800585747
v -0.35774499177933 0.8682079911232 -0.28009098768234
v -0.38644900918007 0.86344397068024 -0.27587199211121
v -0.35612198710442 0.86283499002457 -0.27511700987816
v -0.39015299081802 0.84689801931381 -0.28122699260712
v -0.3846510052681 0.85858798027039 -0.28170299530029
v -0.39177599549294 0.85227102041244 -0.28620201349258
v -0.39367899298668 0.86206299066544 -0.27500399947166
v -0.38578701019287 0.8670009970665 -0.27224498987198
v -0.34997299313545 0.86079698801041 -0.27932500839233
v -0.35049599409103 0.8622630238533 -0.27757000923157
v -0.35709100961685 0.86403697729111 -0.2848100066185
v -0.30423200130463 0.88969099521637 -0.26303899288177
# 72 vertices

vn -0.75537502765656 -0.55118751525879 -0.35437500476837
vn -0.77428126335144 -0.53734374046326 -0.33418750762939
vn -0.75606250762939 -0.55065625905991 -0.35356250405312
vn -0.56284373998642 0.48246875405312 0.67109376192093
vn -0.56300002336502 0.48284375667572 0.67065626382828
vn -0.56300002336502 0.483000010252 0.67056250572205
vn -0.64668750762939 -0.6141562461853 -0.4522500038147
vn -0.68618750572205 -0.59406250715256 -0.41968750953674
vn -0.64715623855591 -0.61400002241135 -0.45187500119209
vn 0.63356250524521 0.62028127908707 0.46234375238419
vn 0.63415622711182 0.62000000476837 0.46184375882149
vn 0.68228125572205 0.59615623950958 0.42300000786781
vn 0.68296873569489 0.59587502479553 0.42250001430511
vn 0.72350001335144 0.57215625047684 0.38606250286102
vn -0.72000002861023 -0.5745000243187 -0.389250010252
vn -0.72046875953674 -0.57418751716614 -0.38874998688698
vn 0.60600000619888 0.63206249475479 0.48284375667572
vn 0.60600000619888 0.63215625286102 0.48284375667572
vn -0.21634374558926 0.71634376049042 -0.66328126192093
vn 0.78437501192093 -0.29896876215935 -0.54337501525879
vn 0.78450000286102 -0.29918751120567 -0.54315626621246
vn 0.7842812538147 -0.29859375953674 -0.54374998807907
vn 0.72415626049042 0.57178127765656 0.385343760252
vn 0.76615625619888 0.54315626621246 0.34318751096725
vn 0.76709377765656 0.54259377717972 0.34215626120567
vn 0.78868752717972 0.52600002288818 0.31834375858307
vn -0.62434375286102 -0.62424999475479 -0.46937501430511
vn -0.68674999475479 -0.59375 -0.41915625333786
vn 0.21634374558926 -0.71646875143051 0.6631875038147
vn 0.21646875143051 -0.71646875143051 0.6631875038147
vn 0.21634374558926 -0.71634376049042 0.6631875038147
vn 0.21634374558926 -0.71634376049042 0.66328126192093
vn -0.43465626239777 0.53756248950958 0.72250002622604
vn 0.40015625953674 -0.55446875095367 -0.7295937538147
vn -0.12956249713898 -0.69450002908707 -0.70778125524521
vn 0.12956249713898 0.69450002908707 0.70778125524521
vn 0.74665623903275 0.55909377336502 0.36028125882149
vn 0.74665623903275 0.55915623903275 0.36028125882149
vn -0.73925000429153 -0.56387501955032 -0.36787500977516
vn -0.71765625476837 -0.5772500038147 -0.389250010252
vn -0.00456249993294 0.67846876382828 0.73456251621246
vn -0.24965624511242 0.61609375476837 0.7469687461853
vn -0.47856250405312 0.51428127288818 0.71156251430511
vn 0.70375001430511 -0.35628125071526 -0.61456251144409
vn -0.96765625476837 -0.06750000268221 0.24278125166893
vn 0.96765625476837 0.06734374910593 -0.24300000071526
vn -0.96765625476837 -0.06759375333786 0.24278125166893
vn 0.96765625476837 0.06750000268221 -0.24278125166893
vn 0.04906250163913 -0.67034375667572 -0.74024999141693
vn 0.73837500810623 -0.32437500357628 -0.59115624427795
vn 0.73837500810623 -0.32425001263618 -0.59115624427795
vn 0.78868752717972 0.52600002288818 0.31828126311302
vn 0.21606250107288 -0.71634376049042 0.66337502002716
vn 0.21628125011921 -0.71646875143051 0.6631875038147
vn 0.40028125047684 -0.55456250905991 -0.7294687628746
vn -0.12974999845028 -0.69434374570847 -0.70778125524521
vn 0.12950000166893 0.69434374570847 0.70778125524521
vn -0.73934376239777 -0.56387501955032 -0.36787500977516
vn -0.7177500128746 -0.57715624570847 -0.389250010252
vn 0.70387500524521 -0.35628125071526 -0.61446875333786
vn 0.7842812538147 -0.29875001311302 -0.54359376430511
vn 0.04906250163913 -0.67046874761581 -0.74024999141693
vn -0.56306248903275 0.48328125476837 0.67034375667572
# 63 normals

vt 0.03971699625254 0.8991259932518 0
vt 0.04248299449682 0.89461803436279 0
vt 0.03799200057983 0.89819902181625 0
vt 0 1 0
vt 0.04186499863863 0.89308100938797 0
vt 0.06656800210476 0.90007698535919 0
vt 0.03878099471331 0.92120003700256 0
vt 0.03757699579 0.91415899991989 0
vt 0.03714200109243 0.92178899049759 0
vt 0.06659899652004 0.91958498954773 0
vt 0.06807099282742 0.91971200704575 0
vt 0.06678599119186 0.91521596908569 0
vt 0.06828999519348 0.91519600152969 0
vt 0.06664299964905 0.9101619720459 0
vt 0.03781599551439 0.90637397766113 0
vt 0.03610199689865 0.9060879945755 0
vt 0.06622499227524 0.92250001430511 0
vt 0.06749799847603 0.92357802391052 0
vt 0.15349698066711 0.95938897132874 0
vt 0.15254199504852 0.93273001909256 0
vt 0.14804199337959 0.93273001909256 0
vt 0.04062999784946 0.92753601074219 0
vt 0.06828999519348 0.9100329875946 0
vt 0.06613498926163 0.90496701002121 0
vt 0.06795500218868 0.9045649766922 0
vt 0.06534199416637 0.90136301517487 0
vt 0.04160399734974 0.92569798231125 0
vt 0.03588599711657 0.91423499584198 0
vt 0.14137098193169 0.93214899301529 0
vt 0.13714498281479 0.95866203308105 0
vt 0.1410019993782 0.95908898115158 0
vt 0.14374998211861 0.93247002363205 0
vt 0.14708697795868 0.95938897132874 0
vt 0.15922099351883 0.93214899301529 0
vt 0.15958499908447 0.95908898115158 0
vt 0.16344699263573 0.95866203308105 0
vt 0.15683600306511 0.93247103691101 0
vt 0.73268294334412 0.96923297643662 0
vt 0.73213195800781 0.96923100948334 0
vt 0.72910797595978 0.97188299894333 0
vt 0.98896396160126 0.81849598884583 0
vt 0.98981094360352 0.81818103790283 0
vt 0.98907697200775 0.81665503978729 0
vt 0.72872602939606 0.95957100391388 0
vt 0.73058891296387 0.96013998985291 0
vt 0.72909498214722 0.95888602733612 0
vt 0.98835492134094 0.81551504135132 0
vt 0.98753201961517 0.81999003887177 0
vt 0.99165093898773 0.81999003887177 0
vt 0.98979198932648 0.81679403781891 0
vt 0.72926998138428 0.95727401971817 0
vt 0.72856199741364 0.95840901136398 0
vt 0.72811591625214 0.95859599113464 0
vt 0.72721898555756 0.95803302526474 0
vt 0.72800099849701 0.95916700363159 0
vt 0.72701692581177 0.97481799125671 0
vt 0.7276599407196 0.97524100542068 0
vt 0.72802197933197 0.97365200519562 0
vt 0.73412394523621 0.96942400932312 0
vt 0.73114001750946 0.96656602621078 0
vt 0.99074995517731 0.81530702114105 0
vt 0.72733294963837 0.96027302742004 0
vt 0.72851002216339 0.96656900644302 0
vt 0.72981202602386 0.96658498048782 0
vt 0.73233497142792 0.96018600463867 0
vt 0.73115992546082 0.95881402492523 0
vt 0.73202991485596 0.9578310251236 0
vt 0.72832500934601 0.95724898576736 0
vt 0.72701692581177 0.95932298898697 0
vt 0.73269295692444 0.9661859869957 0
vt 0.72819900512695 0.97373700141907 0
vt 0.73019695281982 0.96762198209763 0
vt 0.73069393634796 0.96771097183228 0
# 73 texture coordinates

o buttons.075
usemtl dhd.018
f 1/3/3 3/2/2 4/1/1
f 5/6/6 3/2/5 2/5/4
f 7/9/9 9/8/8 10/7/7
f 11/12/12 13/11/11 14/10/10
f 15/14/14 12/13/13 11/12/12
f 17/16/16 4/1/1 18/15/15
f 14/10/10 19/18/18 20/17/17
f 21/21/19 22/20/19 23/19/19
f 24/22/22 20/17/21 19/18/20
f 26/24/24 16/23/23 15/14/14
f 6/26/26 27/25/25 26/24/24
f 24/22/27 10/7/7 25/27/27
f 8/28/28 18/15/15 9/8/8
f 28/31/19 29/30/19 30/29/19
f 28/31/19 30/29/19 31/32/19
f 23/19/19 32/33/19 21/21/19
f 32/33/19 28/31/19 31/32/19
f 21/21/19 32/33/19 31/32/19
f 33/36/19 34/35/19 35/34/19
f 34/35/19 23/19/19 36/37/19
f 36/37/19 23/19/19 22/20/19
f 36/37/19 35/34/19 34/35/19
f 37/40/31 38/39/30 39/38/29
f 40/43/32 41/42/32 42/41/32
f 43/46/32 44/45/32 45/44/32
f 40/43/33 46/48/33 47/47/33
f 48/50/34 49/49/34 41/42/34
f 50/52/35 51/51/35 43/46/35
f 52/55/36 53/54/36 54/53/36
f 55/58/38 56/57/38 57/56/37
f 58/60/39 59/59/39 39/38/39
f 40/43/40 60/61/40 48/50/40
f 45/44/41 61/63/42 62/62/41
f 55/58/43 61/63/42 63/64/42
f 64/66/44 65/65/44 44/45/44
f 43/46/45 66/67/45 64/66/45
f 42/41/46 49/49/46 46/48/46
f 54/53/47 67/68/47 50/52/47
f 52/55/48 62/62/48 68/69/48
f 8/28/28 17/16/16 18/15/15
f 44/45/49 71/70/49 58/60/49
f 72/71/50 59/59/51 56/57/50
f 24/22/27 7/9/9 10/7/7
f 6/26/26 5/6/52 27/25/25
f 26/24/24 27/25/25 16/23/23
f 55/58/30 63/64/32 37/40/31
f 63/64/32 70/72/31 37/40/31
f 39/38/29 72/71/30 37/40/31
f 72/71/30 55/58/30 37/40/31
f 69/73/53 58/60/32 38/39/30
f 58/60/32 39/38/29 38/39/30
f 40/43/32 48/50/32 41/42/32
f 70/72/31 63/64/32 58/60/32
f 63/64/32 45/44/32 44/45/32
f 70/72/31 58/60/32 69/73/53
f 45/44/32 52/55/32 43/46/32
f 52/55/32 54/53/31 43/46/32
f 54/53/31 50/52/54 43/46/32
f 43/46/32 64/66/32 44/45/32
f 44/45/32 58/60/32 63/64/32
f 40/43/33 42/41/33 46/48/33
f 48/50/55 60/61/55 49/49/55
f 50/52/56 67/68/56 51/51/56
f 52/55/57 68/69/57 53/54/57
f 55/58/38 72/71/38 56/57/38
f 58/60/58 71/70/58 59/59/58
f 40/43/59 47/47/59 60/61/59
f 45/44/41 63/64/42 61/63/42
f 55/58/43 57/56/43 61/63/42
f 64/66/60 66/67/60 65/65/60
f 43/46/45 51/51/45 66/67/45
f 42/41/46 41/42/46 49/49/46
f 54/53/45 53/54/45 67/68/45
f 52/55/48 45/44/48 62/62/48
f 24/22/22 25/27/61 20/17/21
f 44/45/62 65/65/62 71/70/62
f 72/71/50 39/38/51 59/59/51
f 14/10/10 13/11/11 19/18/18
f 17/16/16 1/3/3 4/1/1
f 15/14/14 16/23/23 12/13/13
f 1/3/3 2/5/2 3/2/2
f 5/6/6 6/26/63 3/2/5
f 7/9/9 8/28/28 9/8/8
f 11/12/12 12/13/13 13/11/11

