# WaveFront *.obj file (generated by Cinema 4D)

mtllib ./16.mtl

v -0.21894399821758 0.89005398750305 -0.28649500012398
v -0.198027998209 0.88301599025726 -0.29735198616982
v -0.2016389966011 0.87793201208115 -0.30152499675751
v -0.22298300266266 0.88511401414871 -0.2904460132122
v -0.24767599999905 0.75828397274017 -0.40738099813461
v -0.280916005373 0.76755398511887 -0.39196500182152
v -0.27734100818634 0.77264797687531 -0.38777500391006
v -0.24442699551582 0.76346898078918 -0.40303999185562
v -0.31171301007271 0.77758502960205 -0.37629699707031
v -0.30778500437737 0.78256398439407 -0.37228700518608
v -0.17531900107861 0.87668299674988 -0.30788400769234
v -0.17853200435638 0.87148797512054 -0.31224200129509
v -0.15303899347782 0.87167400121689 -0.3170599937439
v -0.15579600632191 0.86637699604034 -0.32160601019859
v -0.21237100660801 0.75595498085022 -0.41653800010681
v -0.21524800360203 0.75068300962448 -0.42103600502014
v -0.142697006464 0.86424899101257 -0.32621699571609
v -0.32645300030708 0.78979098796844 -0.36168900132179
v -0.13336999714375 0.86847901344299 -0.32398301362991
v -0.19141000509262 0.75213098526001 -0.42431798577309
v -0.23601800203323 0.89710599184036 -0.27637699246407
v -0.23434600234032 0.8898069858551 -0.28371301293373
v -0.33705401420593 0.78739601373672 -0.36191099882126
v -0.18680599331856 0.74549400806427 -0.43159300088882
v -0.22476699948311 0.82960897684097 -0.35389000177383
v -0.21553699672222 0.8332200050354 -0.35223299264908
v -0.21243399381638 0.82825899124146 -0.35760399699211
v -0.19349066913128 0.84265702962875 -0.34749266505241
v -0.18614299595356 0.83976399898529 -0.35171100497246
v -0.18590900301933 0.84901601076126 -0.3428730070591
v -0.22355900704861 0.78852599859238 -0.39357298612595
v -0.23701600730419 0.78965198993683 -0.38985401391983
v -0.23583400249481 0.79791802167892 -0.38214901089668
v -0.26780501008034 0.82669901847839 -0.34824800491333
v -0.25034001469612 0.82123500108719 -0.35691800713539
v -0.26497200131416 0.82937097549438 -0.34623798727989
v -0.2567490041256 0.82783401012421 -0.34932500123978
v -0.22872999310493 0.80188602209091 -0.37973099946976
v -0.23356699943542 0.8052020072937 -0.37560001015663
v -0.22733399271965 0.80593597888947 -0.37611699104309
v -0.22190199792385 0.82393997907639 -0.35989499092102
v -0.23039899766445 0.82165098190308 -0.36042699217796
v -0.23107199370861 0.82837200164795 -0.35384199023247
v -0.20438699424267 0.83978402614594 -0.34811499714851
v -0.20057399570942 0.84740197658539 -0.34154799580574
v -0.18378999829292 0.84574401378632 -0.34643000364304
v -0.19289700686932 0.84967398643494 -0.34087198972702
v -0.18977400660515 0.83627098798752 -0.35435301065445
v -0.20103099942207 0.83563297986984 -0.35275900363922
# 49 vertices

vn -0.13996875286102 0.68565624952316 -0.71428126096725
vn -0.13996875286102 0.68565624952316 -0.71418750286102
vn -0.13996875286102 0.68575000762939 -0.71418750286102
vn -0.13984374701977 0.68565624952316 -0.71428126096725
# 4 normals

vt 0.70666491985321 0.0589120388031 0
vt 0.56349194049835 0.06756103038788 0
vt 0.70249795913696 0.01622307300568 0
vt 0 1 0
vt 0.38147300481796 0.95704400539398 0
vt 0.59535491466522 0.95704501867294 0
vt 0.38041496276855 0.99990600347519 0
vt 0.79837691783905 0.94701200723648 0
vt 0.59641301631927 0.99990797042847 0
vt 0.41333699226379 0.06756198406219 0
vt 0.56219899654388 0.02469801902771 0
vt 0.27007097005844 0.05891406536102 0
vt 0.27423298358917 0.01622402667999 0
vt 0.1783509850502 0.94700902700424 0
vt 0.19049698114395 0.04817807674408 0
vt 0.92703998088837 0.93278896808624 0
vt 0.80179297924042 0.98975801467896 0
vt 0.04950499534607 0.93278402090073 0
vt 0.15475499629974 0.00010502338409 0
vt 0.78604996204376 0.0481870174408 0
vt 0.82178997993469 0.00010502338409 0
vt 0.174939006567 0.98975497484207 0
vt 0.97644698619843 0.97045201063156 0
vt 0.00009799998952 0.97045201063156 0
vt 0.52468299865723 0.71670401096344 0
vt 0.5531679391861 0.71215200424194 0
vt 0.5482360124588 0.67599201202393 0
vt 0.40874898433685 0.59894901514053 0
vt 0.37001895904541 0.58470803499222 0
vt 0.34601897001266 0.6295560002327 0
vt 0.54251897335052 0.57782000303268 0
vt 0.59320902824402 0.52454203367233 0
vt 0.58354902267456 0.56392502784729 0
vt 0.60235893726349 0.53756803274155 0
vt 0.41835099458694 0.6282399892807 0
vt 0.4361999630928 0.63802301883698 0
vt 0.44118797779083 0.61570602655411 0
vt 0.5171309709549 0.64684504270554 0
vt 0.51661896705627 0.67885702848434 0
vt 0.55086398124695 0.65280604362488 0
vt 0.568922996521 0.7995171546936 0
vt 0.60182797908783 0.78102600574493 0
vt 0.56988096237183 0.75854396820068 0
vt 0.41462898254395 0.02470004558563 0
vt 0.54500091075897 0.76496303081512 0
vt 0.53263795375824 0.80442297458649 0
vt 0.60235893726349 0.81019902229309 0
vt 0.58953893184662 0.83339601755142 0
vt 0.57065093517303 0.83664798736572 0
vt 0.5446959733963 0.82120203971863 0
# 50 texture coordinates

o buttons.040
usemtl dhd_button_light.027
f 1/3/2 3/2/1 4/1/1
f 5/7/1 7/6/2 8/5/1
f 6/9/2 10/8/1 7/6/2
f 2/11/1 12/10/3 3/2/1
f 12/10/3 13/13/3 14/12/3
f 15/14/3 5/7/1 8/5/1
f 13/13/3 17/15/3 14/12/3
f 9/17/1 18/16/3 10/8/1
f 19/19/3 20/18/3 17/15/3
f 18/16/3 21/21/3 22/20/3
f 22/20/3 1/3/2 4/1/1
f 20/18/3 16/22/3 15/14/3
f 13/13/3 19/19/3 17/15/3
f 9/17/1 23/23/3 18/16/3
f 19/19/3 24/24/3 20/18/3
f 18/16/3 23/23/3 21/21/3
f 22/20/3 21/21/3 1/3/2
f 20/18/3 24/24/3 16/22/3
f 25/27/3 26/26/1 27/25/1
f 15/14/3 16/22/3 5/7/1
f 31/30/3 32/29/3 33/28/3
f 33/28/3 34/32/3 35/31/3
f 34/32/3 36/34/1 37/33/3
f 34/32/3 37/33/3 35/31/3
f 38/35/4 31/30/3 33/28/3
f 39/37/1 40/36/1 38/35/4
f 41/39/3 42/38/3 25/27/3
f 42/38/3 35/31/3 43/40/3
f 25/27/3 42/38/3 43/40/3
f 39/37/1 38/35/4 33/28/3
f 27/25/1 41/39/3 25/27/3
f 35/31/3 39/37/1 33/28/3
f 44/43/3 45/42/3 28/41/3
f 12/10/3 11/44/3 13/13/3
f 28/41/3 48/46/3 49/45/3
f 2/11/1 11/44/3 12/10/3
f 26/26/1 44/43/3 49/45/3
f 44/43/3 28/41/3 49/45/3
f 49/45/3 27/25/1 26/26/1
f 35/31/3 37/33/3 43/40/3
f 6/9/2 9/17/1 10/8/1
f 28/41/3 45/42/3 47/47/1
f 47/47/1 30/48/3 28/41/3
f 30/48/3 46/49/3 28/41/3
f 46/49/3 29/50/3 28/41/3
f 29/50/3 48/46/3 28/41/3
f 5/7/1 6/9/2 7/6/2
f 1/3/2 2/11/1 3/2/1

