# Blender v3.0.0 OBJ File: ''
# www.blender.org
mtllib 17.mtl
o buttons.013
v -0.101803 0.862643 -0.332078
v -0.077822 0.859466 -0.336515
v -0.079226 0.853951 -0.341405
v -0.103698 0.857193 -0.336878
v -0.052353 0.857276 -0.340157
v -0.053310 0.851723 -0.345111
v -0.110571 0.734060 -0.447665
v -0.145738 0.738419 -0.441430
v -0.143972 0.743887 -0.436605
v -0.109209 0.739579 -0.442769
v -0.073292 0.730854 -0.452996
v -0.072295 0.736404 -0.448047
v -0.027889 0.856287 -0.342649
v -0.028346 0.850713 -0.347654
v -0.117104 0.859756 -0.333687
v -0.165787 0.747633 -0.431797
v -0.014332 0.734610 -0.453455
v -0.037549 0.729116 -0.456902
v -0.036962 0.734685 -0.451908
v -0.006824 0.856594 -0.343746
v -0.014316 0.850918 -0.348385
v -0.121949 0.866494 -0.327283
v -0.175351 0.743504 -0.434902
v -0.006842 0.729013 -0.459000
v -0.072654 0.793830 -0.406266
v -0.058051 0.771209 -0.427655
v -0.078938 0.793016 -0.406591
v -0.094694 0.812350 -0.388096
v -0.096827 0.829090 -0.372834
v -0.087963 0.813271 -0.387703
v -0.096182 0.781292 -0.416056
v -0.092521 0.779854 -0.417594
v -0.096061 0.776113 -0.420742
v -0.071277 0.812516 -0.389475
v -0.041628 0.820281 -0.384397
v -0.042722 0.809569 -0.394003
v -0.070824 0.806804 -0.394665
v -0.087178 0.809563 -0.391104
v -0.078358 0.809164 -0.392041
v -0.080128 0.796615 -0.403262
v -0.051837 0.774207 -0.425353
v -0.042949 0.773507 -0.426565
v -0.058845 0.765584 -0.432685
v -0.088948 0.797014 -0.402325
v -0.090586 0.793543 -0.405354
v -0.094567 0.791693 -0.406765
v -0.097149 0.794938 -0.403665
v -0.096201 0.791767 -0.406592
v -0.088116 0.836767 -0.366468
v -0.084671 0.836611 -0.366833
v -0.088638 0.833065 -0.369777
v -0.100996 0.831969 -0.369960
v -0.100765 0.833614 -0.368489
v -0.078262 0.779209 -0.419108
v -0.074288 0.771196 -0.426607
v -0.106136 0.786297 -0.410884
v -0.105614 0.789998 -0.407575
v -0.101527 0.788445 -0.409244
v -0.101743 0.786912 -0.410615
vt 0.702498 0.016223
vt 0.563493 0.067561
vt 0.706666 0.058912
vt 0.562200 0.024698
vt 0.413337 0.067562
vt 0.596415 0.999907
vt 0.798378 0.947011
vt 0.595356 0.957045
vt 0.381473 0.957044
vt 0.380415 0.999907
vt 0.274234 0.016224
vt 0.270071 0.058913
vt 0.786050 0.048186
vt 0.801793 0.989757
vt 0.927040 0.932790
vt 0.049505 0.932784
vt 0.174940 0.989755
vt 0.178352 0.947009
vt 0.154756 0.000105
vt 0.190497 0.048178
vt 0.821790 0.000105
vt 0.976447 0.970453
vt 0.000098 0.970453
vt 0.451916 0.648104
vt 0.395165 0.549643
vt 0.472410 0.643659
vt 0.531752 0.727382
vt 0.545044 0.801397
vt 0.509819 0.732361
vt 0.525111 0.589341
vt 0.512458 0.583442
vt 0.522780 0.566374
vt 0.454319 0.731221
vt 0.359089 0.769611
vt 0.358721 0.721922
vt 0.450692 0.705930
vt 0.505841 0.716009
vt 0.476503 0.715406
vt 0.477688 0.659475
vt 0.375717 0.563770
vt 0.346044 0.561842
vt 0.395698 0.524568
vt 0.507026 0.660077
vt 0.511151 0.644455
vt 0.523639 0.635719
vt 0.533393 0.649779
vt 0.529072 0.635828
vt 0.519076 0.836622
vt 0.507617 0.836389
vt 0.519425 0.820125
vt 0.559913 0.813624
vt 0.559761 0.820954
vt 0.465029 0.582471
vt 0.448893 0.547431
vt 0.559913 0.610236
vt 0.559564 0.626730
vt 0.545461 0.620382
vt 0.545605 0.613548
vt 0.414630 0.024699
vn -0.0484 0.6696 -0.7412
vn -0.0484 0.6695 -0.7412
vn -0.0484 0.6696 -0.7411
vn -0.0484 0.6697 -0.7411
vn -0.0483 0.6696 -0.7412
vn -0.0485 0.6696 -0.7412
vn -0.0483 0.6695 -0.7412
vn -0.0483 0.6696 -0.7411
vn -0.0482 0.6694 -0.7413
vn -0.0483 0.6695 -0.7413
vn -0.0484 0.6695 -0.7413
usemtl dhd_button_light.028
s 1
f 1/1/1 3/2/2 4/3/1
f 2/4/2 6/5/1 3/2/2
f 7/6/2 9/7/3 10/8/2
f 7/6/2 12/9/1 11/10/1
f 6/5/1 13/11/2 14/12/2
f 15/13/1 1/1/1 4/3/1
f 8/14/3 16/15/1 9/7/3
f 17/16/1 18/17/4 19/18/4
f 20/19/5 17/16/1 21/20/1
f 16/15/1 22/21/1 15/13/1
f 13/11/2 21/20/1 14/12/2
f 19/18/4 11/10/1 12/9/1
f 15/13/1 22/21/1 1/1/1
f 8/14/3 23/22/1 16/15/1
f 17/16/1 24/23/1 18/17/4
f 20/19/5 24/23/1 17/16/1
f 16/15/1 23/22/1 22/21/1
f 13/11/2 20/19/5 21/20/1
f 25/24/1 26/25/6 27/26/1
f 28/27/1 29/28/3 30/29/1
f 31/30/2 32/31/2 33/32/2
f 34/33/3 35/34/1 36/35/1
f 34/33/3 36/35/1 37/36/1
f 38/37/1 30/29/1 39/38/1
f 30/29/1 34/33/3 39/38/1
f 27/26/1 40/39/1 25/24/1
f 40/39/1 39/38/1 37/36/1
f 25/24/1 40/39/1 37/36/1
f 34/33/3 37/36/1 39/38/1
f 41/40/2 42/41/7 43/42/1
f 41/40/2 43/42/1 26/25/6
f 25/24/1 41/40/2 26/25/6
f 30/29/1 38/37/1 28/27/1
f 38/37/1 44/43/1 28/27/1
f 44/43/1 40/39/1 45/44/1
f 40/39/1 27/26/1 45/44/1
f 45/44/1 46/45/1 47/46/1
f 46/45/1 48/47/8 47/46/1
f 49/48/9 50/49/10 51/50/1
f 50/49/10 30/29/1 51/50/1
f 44/43/1 45/44/1 47/46/1
f 28/27/1 44/43/1 47/46/1
f 51/50/1 30/29/1 29/28/3
f 52/51/6 53/52/3 29/28/3
f 53/52/3 51/50/1 29/28/3
f 46/45/1 45/44/1 32/31/2
f 32/31/2 54/53/1 33/32/2
f 54/53/1 55/54/1 33/32/2
f 33/32/2 56/55/5 31/30/2
f 56/55/5 57/56/7 58/57/11
f 31/30/2 56/55/5 59/58/3
f 57/56/7 47/46/1 48/47/8
f 57/56/7 48/47/8 58/57/11
f 31/30/2 46/45/1 32/31/2
f 58/57/11 59/58/3 56/55/5
f 1/1/1 2/4/2 3/2/2
f 2/4/2 5/59/1 6/5/1
f 7/6/2 8/14/3 9/7/3
f 7/6/2 10/8/2 12/9/1
f 6/5/1 5/59/1 13/11/2
f 19/18/4 18/17/4 11/10/1
