# Blender v3.0.0 OBJ File: ''
# www.blender.org
mtllib 17_base.mtl
o buttons.014
v -0.027889 0.856287 -0.342649
v -0.027699 0.850861 -0.336617
v -0.006616 0.850921 -0.337440
v -0.006824 0.856594 -0.343746
v -0.145539 0.732866 -0.435258
v -0.175125 0.737585 -0.428325
v -0.175351 0.743504 -0.434902
v -0.145738 0.738419 -0.441430
v -0.037350 0.723563 -0.450730
v -0.073107 0.725495 -0.447037
v -0.073292 0.730854 -0.452996
v -0.037549 0.729116 -0.456902
v -0.121740 0.860821 -0.320977
v -0.121949 0.866494 -0.327283
v -0.052353 0.857276 -0.340157
v -0.052172 0.851981 -0.334270
v -0.110386 0.728701 -0.441706
v -0.110571 0.734060 -0.447665
v -0.006617 0.723094 -0.452422
v -0.006842 0.729013 -0.459000
v -0.077822 0.859466 -0.336515
v -0.077642 0.854171 -0.330627
v -0.101613 0.857217 -0.326047
v -0.101803 0.862643 -0.332078
v -0.079226 0.853951 -0.341405
v -0.053310 0.851723 -0.345111
v -0.072295 0.736404 -0.448047
v -0.143972 0.743887 -0.436605
v -0.165787 0.747633 -0.431797
v -0.117104 0.859756 -0.333687
v -0.103698 0.857193 -0.336878
v -0.109209 0.739579 -0.442769
v -0.014332 0.734610 -0.453455
v -0.036962 0.734685 -0.451908
v -0.014316 0.850918 -0.348385
v -0.028346 0.850713 -0.347654
v -0.072291 0.788808 -0.400707
v -0.078575 0.787994 -0.401032
v -0.057688 0.766188 -0.422096
v -0.088585 0.791992 -0.396766
v -0.096786 0.789917 -0.398106
v -0.090223 0.788521 -0.399795
v -0.101380 0.781890 -0.405056
v -0.101164 0.783424 -0.403685
v -0.105772 0.781275 -0.405325
v -0.070914 0.807494 -0.383916
v -0.087963 0.813271 -0.387703
v -0.087600 0.808249 -0.382144
v -0.088275 0.828044 -0.364218
v -0.088116 0.836767 -0.366468
v -0.088638 0.833065 -0.369777
v -0.077995 0.804142 -0.386482
v -0.080128 0.796615 -0.403262
v -0.079765 0.791593 -0.397703
v -0.084308 0.831590 -0.361274
v -0.084671 0.836611 -0.366833
v -0.094204 0.786671 -0.401206
v -0.096182 0.781292 -0.416056
v -0.095819 0.776270 -0.410497
v -0.092521 0.779854 -0.417594
v -0.090586 0.793543 -0.405354
v -0.042359 0.804547 -0.388444
v -0.041628 0.820281 -0.384397
v -0.041265 0.815259 -0.378838
v -0.051474 0.769185 -0.419794
v -0.042949 0.773507 -0.426565
v -0.051837 0.774207 -0.425353
v -0.096061 0.776113 -0.420742
v -0.095698 0.771092 -0.415183
v -0.105614 0.789998 -0.407575
v -0.106136 0.786297 -0.410884
v -0.058482 0.760562 -0.427126
v -0.042586 0.768486 -0.421006
v -0.086815 0.804541 -0.385545
v -0.078358 0.809164 -0.392041
v -0.092158 0.774832 -0.412035
v -0.078262 0.779209 -0.419108
v -0.058845 0.765584 -0.432685
v -0.088948 0.797014 -0.402325
v -0.096464 0.824068 -0.367275
v -0.094694 0.812350 -0.388096
v -0.094331 0.807328 -0.382537
v -0.073924 0.766174 -0.421048
v -0.077899 0.774187 -0.413549
v -0.078938 0.793016 -0.406591
v -0.097149 0.794938 -0.403665
v -0.074288 0.771196 -0.426607
v -0.100633 0.826948 -0.364401
v -0.100765 0.833614 -0.368489
v -0.100996 0.831969 -0.369960
v -0.070461 0.801782 -0.389106
v -0.072654 0.793830 -0.406266
v -0.070824 0.806804 -0.394665
v -0.096201 0.791767 -0.406592
v -0.094567 0.791693 -0.406765
v -0.105251 0.784976 -0.402016
v -0.058051 0.771209 -0.427655
v -0.087753 0.831745 -0.360909
v -0.096827 0.829090 -0.372834
v -0.087178 0.809563 -0.391104
v -0.095838 0.786745 -0.401033
v -0.101527 0.788445 -0.409244
v -0.071277 0.812516 -0.389475
v -0.042722 0.809569 -0.394003
v -0.100402 0.828592 -0.362931
v -0.101743 0.786912 -0.410615
vt 0.208687 0.921878
vt 0.209586 0.925870
vt 0.208313 0.924793
vt 0.180080 0.900491
vt 0.184570 0.896910
vt 0.181805 0.901418
vt 0.179229 0.924081
vt 0.179664 0.916452
vt 0.180869 0.923493
vt 0.208656 0.902370
vt 0.183953 0.895374
vt 0.208873 0.917508
vt 0.210159 0.922004
vt 0.177973 0.916528
vt 0.179903 0.908667
vt 0.178189 0.908380
vt 0.182717 0.929828
vt 0.183692 0.927990
vt 0.208731 0.912454
vt 0.210378 0.917489
vt 0.207430 0.903655
vt 0.210042 0.906858
vt 0.208222 0.907260
vt 0.210378 0.912325
vt 0.965436 0.898511
vt 0.960935 0.898511
vt 0.959981 0.871851
vt 0.972476 0.872152
vt 0.976332 0.872579
vt 0.972106 0.899092
vt 0.969727 0.898770
vt 0.966391 0.871852
vt 0.950031 0.872578
vt 0.953893 0.872152
vt 0.954256 0.899092
vt 0.956641 0.898770
vt 0.941843 0.222806
vt 0.940746 0.222676
vt 0.944570 0.217652
vt 0.938339 0.223430
vt 0.936543 0.222928
vt 0.937984 0.222392
vt 0.935707 0.221343
vt 0.935780 0.221523
vt 0.935353 0.221377
vt 0.942129 0.227688
vt 0.938688 0.229864
vt 0.937666 0.228217
vt 0.934992 0.232546
vt 0.934784 0.234068
vt 0.934183 0.233539
vt 0.940850 0.226792
vt 0.939736 0.224593
vt 0.940419 0.223605
vt 0.935333 0.233136
vt 0.935495 0.234136
vt 0.937117 0.221969
vt 0.936191 0.221140
vt 0.936160 0.220325
vt 0.937376 0.219555
vt 0.938559 0.221180
vt 0.946150 0.227888
vt 0.946893 0.229832
vt 0.945936 0.228864
vt 0.945213 0.218225
vt 0.947063 0.217131
vt 0.946345 0.218755
vt 0.934988 0.219472
vt 0.935774 0.219685
vt 0.934694 0.222021
vt 0.934602 0.221420
vt 0.944800 0.217127
vt 0.945699 0.217613
vt 0.938015 0.227126
vt 0.939716 0.225544
vt 0.936392 0.219783
vt 0.937556 0.218027
vt 0.944421 0.216298
vt 0.939148 0.224655
vt 0.934330 0.231282
vt 0.935095 0.227334
vt 0.936414 0.227709
vt 0.936328 0.218172
vt 0.936756 0.218546
vt 0.940225 0.221179
vt 0.935278 0.223257
vt 0.935958 0.217292
vt 0.933831 0.231708
vt 0.932998 0.232002
vt 0.932990 0.231671
vt 0.942391 0.226195
vt 0.943005 0.223043
vt 0.943564 0.225375
vt 0.936213 0.221235
vt 0.936227 0.221227
vt 0.935445 0.221759
vt 0.943819 0.217024
vt 0.935153 0.233122
vt 0.933253 0.230733
vt 0.939239 0.225468
vt 0.936751 0.222106
vt 0.936169 0.221228
vt 0.942110 0.229232
vt 0.947063 0.227424
vt 0.933852 0.231887
vt 0.936160 0.221208
vn 0.0602 0.7431 0.6665
vn 0.0240 0.7436 0.6682
vn -0.2363 -0.7261 -0.6457
vn -0.2650 -0.7212 -0.6400
vn -0.2351 -0.7263 -0.6459
vn -0.0785 -0.7424 -0.6654
vn -0.1326 -0.7390 -0.6605
vn -0.0778 -0.7424 -0.6654
vn -0.9502 0.2150 0.2257
vn 0.1271 0.7394 0.6612
vn 0.0611 0.7430 0.6665
vn -0.1333 -0.7390 -0.6604
vn -0.1813 -0.7340 -0.6545
vn -0.1822 -0.7339 -0.6544
vn -0.0481 -0.7433 -0.6672
vn 0.9997 0.0166 -0.0185
vn 0.9997 0.0167 -0.0186
vn 0.1867 0.7333 0.6538
vn 0.1280 0.7393 0.6611
vn 0.2883 0.7165 0.6352
vn 0.2535 0.7231 0.6425
vn 0.2520 0.7234 0.6428
vn 0.1877 0.7332 0.6536
vn -0.0484 0.6696 -0.7412
vn 0.0484 -0.6696 0.7412
vn 0.0483 -0.6695 0.7412
vn 0.0484 -0.6695 0.7412
vn -0.0973 0.7353 0.6707
vn 0.1039 0.7414 0.6630
vn -0.9933 0.0454 0.1059
vn 0.9933 -0.0454 -0.1059
vn -0.9922 0.0532 0.1129
vn 0.9933 -0.0456 -0.1060
vn 0.9959 -0.0240 -0.0867
vn 0.1478 0.7387 0.6576
vn 0.1479 0.7387 0.6577
vn -0.8136 -0.4569 -0.3595
vn -0.9933 0.0453 0.1059
vn -0.9933 0.0453 0.1060
vn 0.5308 -0.6114 -0.5869
vn -0.1040 -0.7414 -0.6630
vn -0.9933 0.0455 0.1059
vn 0.1040 0.7414 0.6630
vn -0.9944 -0.1019 -0.0272
vn -0.9988 -0.0284 0.0395
vn -0.9988 -0.0284 0.0396
vn 0.9390 0.2835 0.1948
vn -0.1039 -0.7414 -0.6630
vn -0.3281 -0.7116 -0.6213
vn -0.9934 0.0451 0.1056
vn -0.1038 -0.7414 -0.6630
vn -0.5951 0.5766 0.5598
vn -0.8221 -0.4482 -0.3511
vn 0.7945 0.4755 0.3777
vn 0.1036 0.7414 0.6630
vn -0.6968 -0.5543 -0.4553
vn 0.6219 -0.5605 -0.5469
vn 0.6219 -0.5604 -0.5469
vn -0.2947 0.6994 0.6511
vn -0.0974 0.7353 0.6707
vn 0.0882 -0.7363 -0.6709
vn 0.1040 0.7413 0.6631
vn 0.9934 -0.0453 -0.1058
vn 0.8136 0.4569 0.3596
vn 0.0483 -0.6696 0.7412
vn 0.0481 -0.6696 0.7412
vn 0.0484 -0.6696 0.7411
vn -0.9934 0.0453 0.1058
vn 0.5307 -0.6114 -0.5870
vn 0.9390 0.2835 0.1946
vn -0.5951 0.5767 0.5597
vn -0.8221 -0.4482 -0.3512
vn 0.1038 0.7415 0.6629
vn -0.6967 -0.5544 -0.4553
vn 0.1039 0.7415 0.6629
vn -0.2649 -0.7210 -0.6402
vn -0.9502 0.2151 0.2256
vn 0.9997 0.0167 -0.0187
vn 0.2883 0.7166 0.6351
usemtl dhd.020
s 1
f 1/1/1 3/2/2 4/3/2
f 5/4/3 7/5/4 8/6/5
f 9/7/6 11/8/7 12/9/8
f 13/10/9 7/5/9 6/11/9
f 15/12/10 2/13/11 1/1/1
f 10/14/12 18/15/13 11/8/7
f 17/16/14 8/6/5 18/15/13
f 19/17/15 12/9/8 20/18/15
f 19/17/16 4/3/17 3/2/16
f 21/19/18 16/20/19 15/12/10
f 14/21/20 23/22/21 24/23/22
f 24/23/22 22/24/23 21/19/18
f 25/25/24 26/26/24 27/27/24
f 28/28/24 29/29/24 30/30/24
f 28/28/24 30/30/24 31/31/24
f 27/27/24 32/32/24 25/25/24
f 32/32/24 28/28/24 31/31/24
f 25/25/24 32/32/24 31/31/24
f 33/33/24 34/34/24 35/35/24
f 34/34/24 27/27/24 36/36/24
f 36/36/24 27/27/24 26/26/24
f 36/36/24 35/35/24 34/34/24
f 37/37/25 38/38/25 39/39/26
f 40/40/25 41/41/26 42/42/25
f 43/43/26 44/44/27 45/45/27
f 46/46/28 47/47/29 48/48/29
f 49/49/30 50/50/30 51/51/30
f 52/52/30 53/53/30 54/54/30
f 55/55/31 47/47/31 56/56/31
f 57/57/32 58/58/32 59/59/32
f 42/42/33 60/60/33 61/61/33
f 62/62/34 63/63/34 64/64/34
f 65/65/35 66/66/35 67/67/36
f 45/45/37 68/68/37 69/69/37
f 45/45/38 70/70/38 71/71/39
f 72/72/40 66/66/40 73/73/40
f 74/74/41 75/75/41 52/52/41
f 76/76/29 77/77/29 60/60/29
f 39/39/42 78/78/42 72/72/42
f 40/40/43 53/53/43 79/79/43
f 80/80/44 81/81/45 82/82/46
f 83/83/47 77/77/47 84/84/47
f 38/38/48 61/61/41 85/85/48
f 82/82/46 86/86/30 41/41/30
f 69/69/49 87/87/49 83/83/49
f 88/88/50 89/89/50 90/90/50
f 91/91/31 92/92/31 93/93/31
f 57/57/51 94/94/51 95/95/51
f 41/41/52 70/70/52 96/96/52
f 38/38/53 97/97/53 39/39/53
f 65/65/54 92/92/54 37/37/54
f 55/55/55 50/50/55 98/98/55
f 88/88/56 99/99/56 80/80/56
f 74/74/31 79/79/31 100/100/31
f 101/101/57 102/102/57 94/94/58
f 64/64/59 103/103/60 46/46/28
f 91/91/61 104/104/61 62/62/61
f 105/105/29 51/51/29 89/89/62
f 44/44/63 106/106/63 102/102/63
f 43/43/64 58/58/64 106/106/64
f 62/62/25 64/64/25 46/46/25
f 46/46/25 48/48/25 52/52/25
f 48/48/25 74/74/25 52/52/25
f 52/52/25 54/54/25 91/91/25
f 54/54/25 38/38/25 37/37/25
f 91/91/25 54/54/25 37/37/25
f 91/91/25 62/62/25 46/46/25
f 91/91/25 46/46/25 52/52/25
f 39/39/26 72/72/27 65/65/25
f 72/72/27 73/73/25 65/65/25
f 65/65/25 37/37/25 39/39/26
f 40/40/25 74/74/25 82/82/65
f 74/74/25 48/48/25 82/82/65
f 48/48/25 55/55/27 49/49/25
f 55/55/27 98/98/27 49/49/25
f 49/49/25 105/105/25 80/80/25
f 105/105/25 88/88/66 80/80/25
f 38/38/25 54/54/25 42/42/25
f 54/54/25 40/40/25 42/42/25
f 48/48/25 49/49/25 80/80/25
f 82/82/65 48/48/25 80/80/25
f 82/82/65 41/41/26 40/40/25
f 41/41/26 101/101/26 57/57/27
f 41/41/26 57/57/27 42/42/25
f 76/76/67 42/42/25 57/57/27
f 76/76/67 57/57/27 59/59/67
f 83/83/67 84/84/67 69/69/67
f 84/84/67 76/76/67 69/69/67
f 96/96/27 45/45/27 44/44/27
f 45/45/27 69/69/67 59/59/67
f 43/43/26 45/45/27 59/59/67
f 101/101/26 41/41/26 96/96/27
f 44/44/27 101/101/26 96/96/27
f 69/69/67 76/76/67 59/59/67
f 46/46/28 103/103/60 47/47/43
f 49/49/30 98/98/30 50/50/30
f 52/52/30 75/75/30 53/53/30
f 55/55/31 48/48/31 47/47/31
f 57/57/32 95/95/32 58/58/32
f 42/42/33 76/76/33 60/60/33
f 62/62/34 104/104/34 63/63/34
f 65/65/35 73/73/35 66/66/35
f 45/45/37 71/71/37 68/68/37
f 45/45/38 96/96/68 70/70/38
f 72/72/69 78/78/69 66/66/69
f 74/74/41 100/100/41 75/75/41
f 76/76/29 84/84/29 77/77/29
f 39/39/42 97/97/42 78/78/42
f 40/40/43 54/54/43 53/53/43
f 80/80/44 99/99/44 81/81/45
f 83/83/70 87/87/70 77/77/70
f 38/38/48 42/42/41 61/61/41
f 82/82/46 81/81/45 86/86/30
f 69/69/49 68/68/49 87/87/49
f 88/88/50 105/105/50 89/89/50
f 91/91/31 37/37/31 92/92/31
f 57/57/51 101/101/51 94/94/51
f 41/41/71 86/86/71 70/70/71
f 38/38/72 85/85/72 97/97/72
f 65/65/54 67/67/54 92/92/54
f 55/55/73 56/56/73 50/50/73
f 88/88/74 90/90/74 99/99/74
f 74/74/31 40/40/31 79/79/31
f 101/101/57 44/44/57 102/102/57
f 64/64/59 63/63/59 103/103/60
f 91/91/61 93/93/61 104/104/61
f 105/105/29 49/49/75 51/51/29
f 44/44/63 43/43/63 106/106/63
f 43/43/64 59/59/64 58/58/64
f 1/1/1 2/13/11 3/2/2
f 5/4/3 6/11/76 7/5/4
f 9/7/6 10/14/12 11/8/7
f 13/10/9 14/21/77 7/5/9
f 15/12/10 16/20/19 2/13/11
f 10/14/12 17/16/14 18/15/13
f 17/16/14 5/4/3 8/6/5
f 19/17/15 9/7/6 12/9/8
f 19/17/16 20/18/78 4/3/17
f 21/19/18 22/24/23 16/20/19
f 14/21/20 13/10/79 23/22/21
f 24/23/22 23/22/21 22/24/23
