# WaveFront *.obj file (generated by Cinema 4D)

mtllib ./18.mtl

v 0.12035199999809 0.86652898788452 -0.32722601294518
v 0.16419099271297 0.74766898155212 -0.4317390024662
v 0.11550699919462 0.85979199409485 -0.33362901210785
v 0.01271999999881 0.85095202922821 -0.34832900762558
v 0.02626099996269 0.85631901025772 -0.3425959944725
v 0.02671699970961 0.85074502229691 -0.34760200977325
v 0.01273600012064 0.73464399576187 -0.45339900255203
v 0.00522800022736 0.8566290140152 -0.34369000792503
v 0.10017500072718 0.86267501115799 -0.33202600479126
v 0.10206899791956 0.85722500085831 -0.33682599663734
v 0.03592099994421 0.72914701700211 -0.45684999227524
v 0.0353339985013 0.73471701145172 -0.45185598731041
v 0.14410999417305 0.73845100402832 -0.44137799739838
v 0.14234499633312 0.74392002820969 -0.43655300140381
v 0.07757999747992 0.85398197174072 -0.34135499596596
v 0.07617799937725 0.85949701070786 -0.33646500110626
v 0.05070799961686 0.85730701684952 -0.34010699391365
v 0.0516650006175 0.8517529964447 -0.34506100416183
v 0.07164700329304 0.73088502883911 -0.45294600725174
v 0.07064999639988 0.73643499612808 -0.44799798727036
v 0.10892599821091 0.73409098386765 -0.44761499762535
v 0.10756400227547 0.73960900306702 -0.44271901249886
v 0.17375500500202 0.74353897571564 -0.43484601378441
v 0.00524599989876 0.72904801368713 -0.45894399285316
v 0.07277499884367 0.76336497068405 -0.43364998698235
v 0.04368500038981 0.77558100223541 -0.42451500892639
v 0.06197825074196 0.77516549825668 -0.42369499802589
v 0.07175700366497 0.77866297960281 -0.41989600658417
v 0.060327000916 0.82122898101807 -0.38218998908997
v 0.06505399942398 0.7821329832077 -0.41719999909401
v 0.10878700017929 0.80925500392914 -0.38984099030495
v 0.06827499717474 0.82311701774597 -0.37996500730515
v 0.06989800184965 0.82575297355652 -0.37747800350189
v 0.11668000370264 0.81591200828552 -0.38331198692322
v 0.09970699995756 0.80913901329041 -0.39054000377655
v 0.08528299629688 0.81218099594116 -0.38873299956322
# 36 vertices

vn 0.04834375157952 0.66959375143051 -0.7411875128746
vn 0.04834375157952 0.66959375143051 -0.74109375476837
vn 0.04834375157952 0.66946876049042 -0.7411875128746
vn 0.04840625077486 0.66949999332428 -0.7411562204361
vn 0.04850000143051 0.66946876049042 -0.7411875128746
# 5 normals

vt 0.78604793548584 0.04817199707031 0
vt 0.92704093456268 0.9327780008316 0
vt 0.82178997993469 0.00009906291962 0
vt 0 1 0
vt 0.26988101005554 0.05890607833862 0
vt 0.27404898405075 0.01621699333191 0
vt 0.19049498438835 0.04817998409271 0
vt 0.15475398302078 0.00009906291962 0
vt 0.04950600117445 0.93278402090073 0
vt 0.70647394657135 0.05890703201294 0
vt 0.70231199264526 0.01621806621552 0
vt 0.17816898226738 0.94700402021408 0
vt 0.17475298047066 0.98975002765656 0
vt 0.7981950044632 0.94700300693512 0
vt 0.80160796642303 0.98975002765656 0
vt 0.56320893764496 0.0675550699234 0
vt 0.41305297613144 0.0675550699234 0
vt 0.41434699296951 0.02469205856323 0
vt 0.38119095563889 0.95703798532486 0
vt 0.38013195991516 0.99990099668503 0
vt 0.59507393836975 0.95703798532486 0
vt 0.59613192081451 0.99990099668503 0
vt 0.97644793987274 0.97044599056244 0
vt 0.00009899999714 0.9704470038414 0
vt 0.41983020305634 0.79689204692841 0
vt 0.34605097770691 0.83661496639252 0
vt 0.49631595611572 0.83661496639252 0
vt 0.41217297315598 0.75174599885941 0
vt 0.44866698980331 0.75532400608063 0
vt 0.49638199806213 0.74490201473236 0
vt 0.51423096656799 0.74826902151108 0
vt 0.5462509393692 0.54980999231338 0
vt 0.40679198503494 0.54105401039124 0
vt 0.47270500659943 0.52457499504089 0
vt 0.49638199806213 0.52457499504089 0
vt 0.53557801246643 0.78059500455856 0
vt 0.56191694736481 0.02469301223755 0
# 37 texture coordinates

o buttons.018
usemtl dhd_button_light.031
f 1/3/1 2/2/1 3/1/1
f 4/7/1 5/6/1 6/5/1
f 7/9/1 8/8/1 4/7/1
f 9/11/1 3/1/1 10/10/1
f 11/13/2 7/9/1 12/12/2
f 2/2/1 13/15/3 14/14/3
f 15/16/3 9/11/1 10/10/1
f 17/18/3 15/16/3 18/17/3
f 5/6/1 18/17/3 6/5/1
f 19/20/3 12/12/2 20/19/3
f 14/14/3 21/22/1 22/21/1
f 21/22/1 20/19/3 22/21/1
f 1/3/1 23/23/1 2/2/1
f 4/7/1 8/8/1 5/6/1
f 7/9/1 24/24/1 8/8/1
f 9/11/1 1/3/1 3/1/1
f 11/13/2 24/24/1 7/9/1
f 2/2/1 23/23/1 13/15/3
f 25/27/2 26/26/1 27/25/4
f 28/29/5 27/25/4 30/28/5
f 31/32/3 32/31/1 33/30/3
f 21/22/1 19/20/3 20/19/3
f 26/26/1 30/28/5 27/25/4
f 14/14/3 13/15/3 21/22/1
f 27/25/4 28/29/5 25/27/2
f 19/20/3 11/13/2 12/12/2
f 5/6/1 17/18/3 18/17/3
f 30/28/5 36/33/1 28/29/5
f 36/33/1 35/34/1 28/29/5
f 33/30/3 34/35/3 31/32/3
f 31/32/3 29/36/1 32/31/1
f 15/16/3 16/37/3 9/11/1
f 17/18/3 16/37/3 15/16/3

