# WaveFront *.obj file (generated by Cinema 4D)

mtllib ./18_base.mtl

v 0.0516650006175 0.8517529964447 -0.34506100416183
v 0.07757999747992 0.85398197174072 -0.34135499596596
v 0.10756400227547 0.73960900306702 -0.44271901249886
v 0.17312799394131 0.73758500814438 -0.42832499742508
v 0.12035199999809 0.86652898788452 -0.32722601294518
v 0.11974400281906 0.86082100868225 -0.32097798585892
v 0.02626099996269 0.85631901025772 -0.3425959944725
v 0.05012699961662 0.85197699069977 -0.33427700400352
v 0.05070799961686 0.85730701684952 -0.34010699391365
v 0.14410999417305 0.73845100402832 -0.44137799739838
v 0.17375500500202 0.74353897571564 -0.43484601378441
v 0.10834100097418 0.72869700193405 -0.44171398878098
v 0.07164700329304 0.73088502883911 -0.45294600725174
v 0.10892599821091 0.73409098386765 -0.44761499762535
v 0.07106100022793 0.72549098730087 -0.44704499840736
v 0.03592099994421 0.72914701700211 -0.45684999227524
v 0.0046199997887 0.85092198848724 -0.33744099736214
v 0.00524599989876 0.72904801368713 -0.45894399285316
v 0.0046199997887 0.72309398651123 -0.45242300629616
v 0.07559599727392 0.85416799783707 -0.33063501119614
v 0.07617799937725 0.85949701070786 -0.33646500110626
v 0.03532100096345 0.72356098890305 -0.45073500275612
v 0.00522800022736 0.8566290140152 -0.34369000792503
v 0.02566999942064 0.85085898637772 -0.3366219997406
v 0.14351099729538 0.73286402225494 -0.43526300787926
v 0.09958499670029 0.85721498727798 -0.32605201005936
v 0.10017500072718 0.86267501115799 -0.33202600479126
v 0.0353339985013 0.73471701145172 -0.45185598731041
v 0.01273600012064 0.73464399576187 -0.45339900255203
v 0.01271999999881 0.85095202922821 -0.34832900762558
v 0.02671699970961 0.85074502229691 -0.34760200977325
v 0.07064999639988 0.73643499612808 -0.44799798727036
v 0.16419099271297 0.74766898155212 -0.4317390024662
v 0.14234499633312 0.74392002820969 -0.43655300140381
v 0.11550699919462 0.85979199409485 -0.33362901210785
v 0.10206899791956 0.85722500085831 -0.33682599663734
v 0.0655367821455 0.76472175121307 -0.42287400364876
v 0.05247678235173 0.77020674943924 -0.41877201199532
v 0.04332200065255 0.77055901288986 -0.41895601153374
v 0.07139399647713 0.77364200353622 -0.41433700919151
v 0.0993440002203 0.80411702394485 -0.3849810063839
v 0.08491999655962 0.80715900659561 -0.3831749856472
v 0.06953500211239 0.82073098421097 -0.37191900610924
v 0.06791199743748 0.81809598207474 -0.37440600991249
v 0.10842400044203 0.80423402786255 -0.38428199291229
v 0.05996299907565 0.81620699167252 -0.37663099169731
v 0.06827499717474 0.82311701774597 -0.37996500730515
v 0.060327000916 0.82122898101807 -0.38218998908997
v 0.09970699995756 0.80913901329041 -0.39054000377655
v 0.08528299629688 0.81218099594116 -0.38873299956322
v 0.07277499884367 0.76336497068405 -0.43364998698235
v 0.07175700366497 0.77866297960281 -0.41989600658417
v 0.06332178413868 0.77353179454803 -0.41506001353264
v 0.0650157853961 0.77254676818848 -0.41583898663521
v 0.06989800184965 0.82575297355652 -0.37747800350189
v 0.1163169965148 0.81089097261429 -0.37775298953056
v 0.10878700017929 0.80925500392914 -0.38984099030495
v 0.11668000370264 0.81591200828552 -0.38331198692322
v 0.06505399942398 0.7821329832077 -0.41719999909401
v 0.06469099968672 0.77711099386215 -0.41164100170136
v 0.07241199910641 0.7583429813385 -0.42809098958969
v 0.04368500038981 0.77558100223541 -0.42451500892639
# 62 vertices

vn 0.04834375157952 0.66959375143051 -0.7411875128746
vn 0.94787502288818 0.18406249582767 0.25996875762939
vn -0.12806250154972 0.73828125 0.6621875166893
vn -0.12706249952316 0.73828125 0.66234374046326
vn -0.06146875023842 0.73978126049042 0.6700000166893
vn 0.26459375023842 -0.7246875166893 -0.63615626096725
vn 0.23578125238419 -0.72874999046326 -0.64278125762939
vn 0.18206250667572 -0.73468750715256 -0.653500020504
vn 0.13334375619888 -0.73806250095367 -0.66134375333786
vn 0.18125000596046 -0.73478126525879 -0.65359377861023
vn 0.0788437500596 -0.73978126049042 -0.66806250810623
vn 0.13259375095367 -0.73806250095367 -0.66146874427795
vn -0.99750000238419 0.04728125035763 -0.0525625012815
vn -0.99750000238419 0.0475937500596 -0.05278125032783
vn -0.99737501144409 0.04778125137091 -0.0530937500298
vn -0.1875 0.73425000905991 0.65246874094009
vn -0.18656249344349 0.73425000905991 0.65256249904633
vn 0.04818750172853 -0.73987501859665 -0.6710000038147
vn 0.07768750190735 -0.73987501859665 -0.66815626621246
vn -0.05996875092387 0.73978126049042 0.67009377479553
vn -0.02409375086427 0.73906248807907 0.67306250333786
vn 0.235062494874 -0.72884374856949 -0.64300000667572
vn -0.25275000929832 0.72646874189377 0.63896876573563
vn -0.25196874141693 0.7265625 0.63918751478195
vn -0.287687510252 0.72087502479553 0.63059377670288
vn -0.04834375157952 -0.66946876049042 0.7411875128746
vn -0.04834375157952 -0.66959375143051 0.7411875128746
vn -0.04834375157952 -0.66959375143051 0.74109375476837
vn -0.34118750691414 0.70850002765656 0.61768752336502
vn 0.23328125476837 0.7138437628746 0.66025000810623
vn 0.23315624892712 0.7138437628746 0.66015625
vn 0.99759376049042 0.00425000023097 0.06896875053644
vn -0.287687510252 0.72087502479553 0.63050001859665
vn 0.76168751716614 -0.50475001335144 -0.40618750452995
vn -0.89709377288818 0.35528126358986 0.26234376430511
vn -0.91124999523163 0.33324998617172 0.24156250059605
vn -0.46184375882149 -0.64287501573563 -0.61100000143051
vn 0.23256249725819 0.71406251192093 0.66025000810623
vn 0.23250000178814 0.71406251192093 0.66015625
vn 0.83300000429153 -0.4365000128746 -0.33987501263618
vn -0.27715626358986 -0.70396876335144 -0.65384376049042
vn -0.41475000977516 0.68846875429153 0.59484374523163
vn -0.02400000020862 0.73934376239777 0.67284375429153
vn -0.04850000143051 -0.66959375143051 0.7411875128746
vn -0.34125000238419 0.70850002765656 0.61768752336502
vn 0.04809375107288 -0.73987501859665 -0.6710000038147
vn -0.89709377288818 0.35528126358986 0.26246875524521
vn -0.91134375333786 0.33315625786781 0.24156250059605
vn 0.23250000178814 0.71418750286102 0.66015625
vn -0.27715626358986 -0.70387500524521 -0.65396875143051
vn -0.99750000238419 0.0475937500596 -0.05287500098348
vn -0.99737501144409 0.04800000041723 -0.05318750068545
vn 0.94787502288818 0.18418750166893 0.25984373688698
vn 0.94787502288818 0.18424999713898 0.25984373688698
# 54 normals

vt 0.96457993984222 0.16513907909393 0
vt 0.96362495422363 0.13847899436951 0
vt 0.95912492275238 0.13847899436951 0
vt 0 1 0
vt 0.69308400154114 0.89922297000885 0
vt 0.69435691833496 0.90030002593994 0
vt 0.71995198726654 0.89526402950287 0
vt 0.6939389705658 0.91263902187347 0
vt 0.69229197502136 0.91276699304581 0
vt 0.69444692134857 0.9178329706192 0
vt 0.71897792816162 0.89710301160812 0
vt 0.72180092334747 0.90160000324249 0
vt 0.72300493717194 0.90864098072052 0
vt 0.72276592254639 0.91642600297928 0
vt 0.72469592094421 0.90856498479843 0
vt 0.72086501121521 0.92367398738861 0
vt 0.72447991371155 0.91671198606491 0
vt 0.71871697902679 0.92971897125244 0
vt 0.71809995174408 0.92818200588226 0
vt 0.69401395320892 0.92272299528122 0
vt 0.69379591941834 0.90758401155472 0
vt 0.69229197502136 0.90760397911072 0
vt 0.72258996963501 0.9246010184288 0
vt 0.692626953125 0.91823500394821 0
vt 0.69524002075195 0.92143702507019 0
vt 0.72343993186951 0.90101200342178 0
vt 0.69398295879364 0.90321499109268 0
vt 0.69251096248627 0.90308898687363 0
vt 0.95245397090912 0.13789808750153 0
vt 0.94822800159454 0.16441202163696 0
vt 0.95208394527435 0.16483807563782 0
vt 0.95483291149139 0.1382200717926 0
vt 0.95816898345947 0.16513907909393 0
vt 0.97030401229858 0.13789808750153 0
vt 0.97066795825958 0.16483807563782 0
vt 0.97452902793884 0.16441202163696 0
vt 0.96791899204254 0.1382200717926 0
vt 0.97821891307831 0.13923406600952 0
vt 0.97871398925781 0.13956797122955 0
vt 0.98007798194885 0.13953399658203 0
vt 0.97895193099976 0.14941108226776 0
vt 0.98050892353058 0.14947700500488 0
vt 0.98056793212891 0.14189898967743 0
vt 0.19543400406837 0.98549002408981 0
vt 0.19478797912598 0.98074400424957 0
vt 0.19426998496056 0.98093599081039 0
vt 0.19623997807503 0.97920799255371 0
vt 0.19409400224686 0.97935700416565 0
vt 0.19547000527382 0.98032200336456 0
vt 0.97788596153259 0.15055704116821 0
vt 0.98167097568512 0.15127599239349 0
vt 0.98190999031067 0.1419050693512 0
vt 0.98190999031067 0.1382520198822 0
vt 0.19270399212837 0.98752897977829 0
vt 0.19721400737762 0.98752897977829 0
vt 0.19407999515533 0.9859020113945 0
vt 0.97878301143646 0.14203608036041 0
vt 0.97728300094604 0.14216303825378 0
vt 0.97684991359711 0.13789808750153 0
vt 0.9808030128479 0.13901507854462 0
vt 0.19329699873924 0.98001599311829 0
vt 0.9796370267868 0.1410870552063 0
vt 0.97916293144226 0.14114606380463 0
# 63 texture coordinates

o buttons.017
usemtl dhd.023
f 1/3/1 2/2/1 3/1/1
f 4/7/2 5/6/2 6/5/2
f 7/10/5 8/9/4 9/8/3
f 4/7/6 10/12/7 11/11/6
f 12/15/10 13/14/9 14/13/8
f 15/17/12 16/16/11 13/14/9
f 17/20/15 18/19/14 19/18/13
f 9/8/3 20/22/17 21/21/16
f 22/23/19 18/19/18 16/16/11
f 23/25/21 24/24/20 7/10/5
f 25/26/22 14/13/8 10/12/7
f 21/21/16 26/28/24 27/27/23
f 27/27/23 6/5/25 5/6/25
f 28/31/1 29/30/1 30/29/1
f 28/31/1 30/29/1 31/32/1
f 3/1/1 32/33/1 1/3/1
f 32/33/1 28/31/1 31/32/1
f 1/3/1 32/33/1 31/32/1
f 33/36/1 34/35/1 35/34/1
f 34/35/1 3/1/1 36/37/1
f 36/37/1 3/1/1 2/2/1
f 36/37/1 35/34/1 34/35/1
f 37/40/26 38/39/27 39/38/26
f 40/43/27 41/42/27 42/41/27
f 43/46/28 44/45/26 45/44/27
f 46/49/29 47/48/29 48/47/29
f 42/41/30 49/51/31 50/50/30
f 40/43/32 51/53/32 52/52/32
f 27/27/23 26/28/24 6/5/33
f 56/56/34 57/55/34 58/54/34
f 42/41/35 59/58/35 60/57/35
f 43/46/36 47/48/36 44/45/36
f 61/60/37 62/59/37 51/53/37
f 43/46/38 58/54/39 55/61/38
f 40/43/40 49/51/40 41/42/40
f 46/49/41 57/55/41 45/44/41
f 60/57/42 62/59/42 39/38/42
f 21/21/16 20/22/17 26/28/24
f 25/26/22 12/15/10 14/13/8
f 23/25/43 17/20/43 24/24/20
f 40/43/27 54/62/44 37/40/26
f 38/39/27 53/63/28 60/57/27
f 61/60/26 40/43/27 37/40/26
f 38/39/27 60/57/27 39/38/26
f 61/60/26 37/40/26 39/38/26
f 42/41/27 60/57/27 40/43/27
f 60/57/27 53/63/28 54/62/44
f 40/43/27 60/57/27 54/62/44
f 45/44/27 56/56/27 43/46/28
f 44/45/26 46/49/26 45/44/27
f 46/49/29 44/45/45 47/48/29
f 42/41/30 41/42/31 49/51/31
f 40/43/32 61/60/32 51/53/32
f 22/23/19 19/18/46 18/19/18
f 56/56/34 45/44/34 57/55/34
f 42/41/47 50/50/47 59/58/47
f 43/46/48 55/61/48 47/48/48
f 61/60/37 39/38/37 62/59/37
f 43/46/38 56/56/49 58/54/39
f 40/43/40 52/52/40 49/51/40
f 46/49/50 48/47/50 57/55/50
f 60/57/42 59/58/42 62/59/42
f 9/8/3 8/9/4 20/22/17
f 17/20/52 23/25/51 18/19/14
f 15/17/12 22/23/19 16/16/11
f 4/7/53 11/11/54 5/6/53
f 7/10/5 24/24/20 8/9/4
f 4/7/6 25/26/22 10/12/7
f 12/15/10 15/17/12 13/14/9

