# Blender v3.0.0 OBJ File: ''
# www.blender.org
mtllib 2.mtl
o buttons.026
v 0.368476 0.978937 -0.133558
v 0.361820 0.982204 -0.132405
v 0.370390 0.994465 -0.112862
v 0.377221 0.991448 -0.113616
v 0.464879 0.868400 -0.230965
v 0.329435 0.950518 -0.187554
v 0.339311 0.949685 -0.184139
v 0.381170 0.998864 -0.102355
v 0.526558 0.940865 -0.110459
v 0.526467 0.926022 -0.129453
v 0.519680 0.929105 -0.128594
v 0.340289 0.959100 -0.171673
v 0.351448 0.970019 -0.152669
v 0.357921 0.966537 -0.154178
v 0.346534 0.955396 -0.173570
v 0.506940 0.911542 -0.156799
v 0.513579 0.908255 -0.157984
v 0.498397 0.890418 -0.187646
v 0.491907 0.893880 -0.186170
v 0.482407 0.874258 -0.215534
v 0.476100 0.877905 -0.213738
v 0.376320 1.005600 -0.095954
v 0.467174 0.861355 -0.238919
v 0.535799 0.941979 -0.104844
v 0.438689 0.946984 -0.155137
v 0.445957 0.929298 -0.174422
v 0.435402 0.930425 -0.177771
v 0.412180 0.925777 -0.194240
v 0.409776 0.939308 -0.178054
v 0.415451 0.934185 -0.182021
v 0.426099 0.945628 -0.162579
v 0.431612 0.939727 -0.167613
v 0.413792 0.940778 -0.174355
v 0.471407 0.943804 -0.144355
v 0.482070 0.944814 -0.138228
v 0.480955 0.934619 -0.151752
v 0.471588 0.939826 -0.149353
v 0.443879 0.949235 -0.149908
v 0.448758 0.943527 -0.154983
v 0.404102 0.958163 -0.156552
v 0.412331 0.970131 -0.137538
v 0.415514 0.962766 -0.145498
v 0.454578 0.926175 -0.174498
v 0.446634 0.925273 -0.179254
v 0.413708 0.958150 -0.152212
v 0.436900 0.927906 -0.180307
v 0.430999 0.926283 -0.185057
v 0.428666 0.928847 -0.182842
v 0.395911 0.941537 -0.181497
v 0.432443 0.943710 -0.162151
v 0.419406 0.935364 -0.178721
vt 0.563209 0.067555
vt 0.702312 0.016218
vt 0.706475 0.058907
vt 0.049505 0.932783
vt 0.154755 0.000099
vt 0.190495 0.048180
vt 0.786049 0.048172
vt 0.927041 0.932778
vt 0.801608 0.989750
vt 0.798195 0.947003
vt 0.274049 0.016217
vt 0.413053 0.067555
vt 0.269881 0.058906
vt 0.595073 0.957038
vt 0.380132 0.999901
vt 0.381190 0.957038
vt 0.178168 0.947004
vt 0.414347 0.024692
vt 0.596132 0.999901
vt 0.821791 0.000099
vt 0.174753 0.989751
vt 0.000099 0.970446
vt 0.976448 0.970446
vt 0.429655 0.695382
vt 0.522296 0.644642
vt 0.538948 0.684603
vt 0.574366 0.625662
vt 0.620293 0.557031
vt 0.621830 0.590495
vt 0.574366 0.642560
vt 0.611229 0.645834
vt 0.576473 0.711407
vt 0.376108 0.571943
vt 0.346057 0.534524
vt 0.411316 0.524582
vt 0.400195 0.565820
vt 0.404194 0.679583
vt 0.428434 0.653990
vt 0.438131 0.836609
vt 0.346057 0.823097
vt 0.384285 0.801398
vt 0.522250 0.608977
vt 0.545560 0.636649
vt 0.416745 0.801629
vt 0.551105 0.675690
vt 0.574287 0.694940
vt 0.563719 0.706949
vt 0.574366 0.524582
vt 0.593969 0.625740
vt 0.611229 0.712229
vt 0.561917 0.024693
vn 0.2693 0.7582 -0.5938
vn 0.2694 0.7582 -0.5938
vn 0.2694 0.7581 -0.5939
vn 0.2694 0.7582 -0.5937
vn 0.2693 0.7582 -0.5937
vn 0.2695 0.7582 -0.5938
vn 0.2695 0.7581 -0.5938
vn 0.2693 0.7582 -0.5939
usemtl dhd_button_light.004
s 1
f 1/1/1 3/2/1 4/3/1
f 5/4/2 6/5/1 7/6/1
f 3/2/1 8/7/2 4/3/1
f 9/8/2 10/9/1 11/10/1
f 12/11/1 14/12/2 15/13/1
f 16/14/2 18/15/2 19/16/2
f 18/15/2 21/17/1 19/16/2
f 13/18/2 1/1/1 14/12/2
f 11/10/1 17/19/2 16/14/2
f 22/20/2 9/8/2 8/7/2
f 7/6/1 12/11/1 15/13/1
f 20/21/1 5/4/2 21/17/1
f 5/4/2 23/22/2 6/5/1
f 3/2/1 22/20/2 8/7/2
f 9/8/2 24/23/2 10/9/1
f 22/20/2 24/23/2 9/8/2
f 7/6/1 6/5/1 12/11/1
f 20/21/1 23/22/2 5/4/2
f 25/24/2 26/25/2 27/26/3
f 28/27/1 29/28/1 30/29/1
f 31/30/1 32/31/1 33/32/2
f 34/33/2 35/34/2 36/35/2
f 34/33/2 36/35/2 37/36/4
f 38/37/2 34/33/2 39/38/2
f 34/33/2 37/36/4 39/38/2
f 40/39/1 41/40/2 42/41/2
f 42/41/2 38/37/2 25/24/2
f 38/37/2 39/38/2 25/24/2
f 26/25/2 43/42/2 44/43/2
f 45/44/5 40/39/1 42/41/2
f 25/24/2 45/44/5 42/41/2
f 26/25/2 44/43/2 46/45/3
f 46/45/3 47/46/6 48/47/7
f 46/45/3 48/47/7 27/26/3
f 39/38/2 26/25/2 25/24/2
f 26/25/2 46/45/3 27/26/3
f 28/27/1 49/48/1 29/28/1
f 50/49/8 32/31/1 31/30/1
f 32/31/1 51/50/2 33/32/2
f 1/1/1 2/51/1 3/2/1
f 12/11/1 13/18/2 14/12/2
f 16/14/2 17/19/2 18/15/2
f 18/15/2 20/21/1 21/17/1
f 13/18/2 2/51/1 1/1/1
f 11/10/1 10/9/1 17/19/2
