# Blender v3.1.2 OBJ File: ''
# www.blender.org
mtllib 22.mtl
o buttons.016
v -0.182172 1.182039 0.044895
v -0.176088 1.182364 0.040502
v -0.181963 1.176958 0.031082
v -0.188407 1.176423 0.034904
v -0.298798 1.191372 0.154706
v -0.284665 1.201237 0.170474
v -0.279215 1.200879 0.165323
v -0.292936 1.191096 0.150026
v -0.312203 1.180798 0.137122
v -0.306046 1.180755 0.132830
v -0.161452 1.193136 0.057986
v -0.169020 1.187939 0.049773
v -0.174758 1.187887 0.054620
v -0.166784 1.193478 0.063265
v -0.317168 1.170942 0.115538
v -0.323568 1.170550 0.119443
v -0.271042 1.206085 0.172822
v -0.322248 1.165693 0.105649
v -0.189704 1.175007 0.032183
v -0.331782 1.161631 0.103400
v -0.271187 1.209427 0.182882
v -0.164542 1.194859 0.065201
v -0.186070 1.172248 0.022434
v -0.154123 1.197447 0.064338
v -0.250736 1.192636 0.101343
v -0.257788 1.190596 0.101241
v -0.249150 1.194655 0.105418
v -0.198711 1.190151 0.056558
v -0.218334 1.181471 0.048472
v -0.214827 1.184822 0.054593
v -0.281517 1.181349 0.094709
v -0.266702 1.186611 0.097458
v -0.274107 1.186753 0.103282
v -0.268182 1.190231 0.107951
v -0.253173 1.195678 0.111039
v -0.250338 1.198555 0.116421
v -0.271126 1.197825 0.129841
v -0.255114 1.204733 0.135985
v -0.241745 1.201731 0.118339
v -0.220727 1.196136 0.088321
v -0.218876 1.197905 0.091552
v -0.212188 1.198253 0.087529
v -0.263365 1.188457 0.099794
v -0.222314 1.194116 0.084245
v -0.218424 1.192294 0.076648
v -0.224554 1.191975 0.080335
vt 0.529349 0.132953
vt 0.588487 0.090814
vt 0.593492 0.127531
vt 0.435504 0.918983
vt 0.324853 0.873876
vt 0.436840 0.881975
vt 0.556426 0.918984
vt 0.555091 0.881975
vt 0.403490 0.090814
vt 0.462474 0.132953
vt 0.398462 0.127528
vt 0.667198 0.873875
vt 0.320547 0.910669
vt 0.265191 0.864214
vt 0.727063 0.864201
vt 0.671497 0.910669
vt 0.464042 0.095932
vt 0.609635 0.124483
vt 0.769453 0.894863
vt 0.222803 0.894863
vt 0.382617 0.124520
vt 0.640204 0.081062
vt 0.352054 0.081062
vt 0.437615 0.631062
vt 0.419770 0.617823
vt 0.450598 0.624434
vt 0.468478 0.836648
vt 0.401546 0.818306
vt 0.423859 0.810504
vt 0.346018 0.587951
vt 0.389122 0.609754
vt 0.383513 0.581795
vt 0.408649 0.582054
vt 0.452989 0.603421
vt 0.471986 0.596083
vt 0.449747 0.524542
vt 0.503357 0.540585
vt 0.497703 0.607962
vt 0.483773 0.719282
vt 0.495550 0.715162
vt 0.503357 0.737483
vt 0.402632 0.610595
vt 0.470788 0.725911
vt 0.463689 0.751352
vt 0.456534 0.730897
vt 0.527786 0.095931
vn -0.2825 0.9005 -0.3305
vn -0.2785 0.8971 -0.3429
vn -0.2781 0.8998 -0.3363
vn -0.2468 0.9029 -0.3520
vn -0.2567 0.9033 -0.3437
vn -0.2467 0.9029 -0.3521
vn -0.2489 0.9012 -0.3549
vn -0.2660 0.9069 -0.3268
vn -0.2791 0.9033 -0.3259
vn -0.2724 0.9043 -0.3288
vn -0.2597 0.9010 -0.3476
vn -0.2583 0.9051 -0.3378
vn -0.2431 0.9182 -0.3128
vn -0.2856 0.8847 -0.3684
vn -0.2658 0.8992 -0.3476
vn -0.2790 0.9033 -0.3260
vn -0.2683 0.8977 -0.3495
vn -0.2889 0.8842 -0.3671
vn -0.2452 0.9186 -0.3098
vn -0.2572 0.9065 -0.3349
vn -0.2683 0.8961 -0.3536
vn -0.2532 0.9080 -0.3337
vn -0.2559 0.9021 -0.3473
vn -0.2559 0.9021 -0.3474
vn -0.2560 0.9021 -0.3473
vn -0.2560 0.9022 -0.3472
vn -0.2560 0.9021 -0.3474
vn -0.2559 0.9022 -0.3473
usemtl dhd_button_light.024
s 1
f 1/1/1 3/2/2 4/3/3
f 5/4/4 7/5/5 8/6/6
f 9/7/7 8/6/6 10/8/7
f 11/9/8 13/10/9 14/11/10
f 15/12/11 9/7/7 10/8/7
f 6/13/12 17/14/13 7/5/5
f 18/15/14 16/16/15 15/12/11
f 12/17/16 1/1/1 13/10/9
f 19/18/17 20/19/18 18/15/14
f 21/20/19 22/21/20 17/14/13
f 3/2/2 19/18/17 4/3/3
f 22/21/20 11/9/8 14/11/10
f 6/13/12 21/20/19 17/14/13
f 18/15/14 20/19/18 16/16/15
f 19/18/17 23/22/21 20/19/18
f 21/20/19 24/23/22 22/21/20
f 3/2/2 23/22/21 19/18/17
f 22/21/20 24/23/22 11/9/8
f 25/24/23 26/25/23 27/26/24
f 28/27/25 29/28/26 30/29/25
f 30/29/25 31/30/24 32/31/24
f 31/30/24 33/32/24 32/31/24
f 33/32/24 34/33/23 32/31/24
f 34/33/23 35/34/27 26/25/23
f 36/35/24 37/36/24 38/37/24
f 36/35/24 38/37/24 39/38/24
f 36/35/24 39/38/24 27/26/24
f 35/34/27 36/35/24 27/26/24
f 40/39/24 41/40/23 42/41/24
f 34/33/23 26/25/23 43/42/28
f 35/34/27 27/26/24 26/25/23
f 40/39/24 42/41/24 44/43/24
f 42/41/24 45/44/24 44/43/24
f 32/31/24 28/27/25 30/29/25
f 45/44/24 46/45/24 44/43/24
f 43/42/28 32/31/24 34/33/23
f 27/26/24 40/39/24 25/24/23
f 40/39/24 44/43/24 25/24/23
f 1/1/1 2/46/1 3/2/2
f 5/4/4 6/13/12 7/5/5
f 9/7/7 5/4/4 8/6/6
f 11/9/8 12/17/16 13/10/9
f 15/12/11 16/16/15 9/7/7
f 12/17/16 2/46/1 1/1/1
