# Blender v3.1.2 OBJ File: ''
# www.blender.org
mtllib 22_base.mtl
o buttons.052
v -0.321322 1.163087 0.122510
v -0.309962 1.173331 0.140185
v -0.312203 1.180798 0.137122
v -0.323568 1.170550 0.119443
v -0.296564 1.183901 0.157762
v -0.282441 1.193760 0.173522
v -0.284665 1.201237 0.170474
v -0.298798 1.191372 0.154706
v -0.329533 1.154169 0.106468
v -0.331782 1.161631 0.103400
v -0.161452 1.193136 0.057986
v -0.159204 1.185673 0.061054
v -0.166772 1.180476 0.052841
v -0.169020 1.187939 0.049773
v -0.173840 1.174902 0.043570
v -0.176088 1.182364 0.040502
v -0.268975 1.201945 0.185922
v -0.271187 1.209427 0.182882
v -0.186070 1.172248 0.022434
v -0.183822 1.164786 0.025502
v -0.181963 1.176958 0.031082
v -0.179714 1.169495 0.034150
v -0.182172 1.182039 0.044895
v -0.188407 1.176423 0.034904
v -0.317168 1.170942 0.115538
v -0.151875 1.189984 0.067406
v -0.154123 1.197447 0.064338
v -0.189704 1.175007 0.032183
v -0.322248 1.165693 0.105649
v -0.306046 1.180755 0.132830
v -0.292936 1.191096 0.150026
v -0.279215 1.200879 0.165323
v -0.174758 1.187887 0.054620
v -0.271042 1.206085 0.172822
v -0.166784 1.193478 0.063265
v -0.164542 1.194859 0.065201
v -0.279598 1.174583 0.097314
v -0.212907 1.178056 0.057198
v -0.264782 1.179845 0.100063
v -0.261445 1.181691 0.102399
v -0.266702 1.186611 0.097458
v -0.263365 1.188457 0.099794
v -0.218334 1.181471 0.048472
v -0.216415 1.174705 0.051078
v -0.248816 1.185870 0.103948
v -0.222314 1.194116 0.084245
v -0.220394 1.187350 0.086851
v -0.281517 1.181349 0.094709
v -0.214827 1.184822 0.054593
v -0.255869 1.183830 0.103847
v -0.250736 1.192636 0.101343
v -0.253194 1.197967 0.138590
v -0.271126 1.197825 0.129841
v -0.269207 1.191059 0.132446
v -0.216957 1.191139 0.094157
v -0.212188 1.198253 0.087529
v -0.218876 1.197905 0.091552
v -0.247230 1.187889 0.108023
v -0.220727 1.196136 0.088321
v -0.249150 1.194655 0.105418
v -0.266263 1.183465 0.110556
v -0.274107 1.186753 0.103282
v -0.272187 1.179987 0.105888
v -0.251253 1.188913 0.113645
v -0.250338 1.198555 0.116421
v -0.253173 1.195678 0.111039
v -0.210268 1.191487 0.090134
v -0.218424 1.192294 0.076648
v -0.268182 1.190231 0.107951
v -0.198711 1.190151 0.056558
v -0.196791 1.183385 0.059164
v -0.218808 1.189370 0.090926
v -0.224554 1.191975 0.080335
v -0.222635 1.185209 0.082940
v -0.248419 1.191789 0.119027
v -0.216505 1.185528 0.079253
v -0.241745 1.201731 0.118339
v -0.239825 1.194965 0.120945
v -0.255114 1.204733 0.135985
v -0.257788 1.190596 0.101241
vt 0.511189 0.894920
vt 0.514539 0.899615
vt 0.509838 0.896435
vt 0.520262 0.899087
vt 0.525353 0.900740
vt 0.520025 0.900929
vt 0.515379 0.897914
vt 0.508669 0.892685
vt 0.506970 0.892945
vt 0.527779 0.871007
vt 0.524911 0.871912
vt 0.525311 0.870179
vt 0.522279 0.871391
vt 0.522489 0.869514
vt 0.524919 0.898901
vt 0.529814 0.898523
vt 0.517045 0.870040
vt 0.519476 0.869268
vt 0.517868 0.871270
vt 0.519688 0.871147
vt 0.970244 0.407518
vt 0.972471 0.407330
vt 0.975030 0.433244
vt 0.528582 0.873222
vt 0.528222 0.897280
vt 0.529814 0.872146
vt 0.527137 0.872588
vt 0.973032 0.407224
vt 0.977109 0.432910
vt 0.971138 0.433525
vt 0.967032 0.433525
vt 0.963144 0.433245
vt 0.967922 0.407518
vt 0.961072 0.432910
vt 0.965700 0.407330
vt 0.965150 0.407226
vt 0.837573 0.610665
vt 0.831061 0.619930
vt 0.835542 0.610042
vt 0.835407 0.609002
vt 0.833911 0.609963
vt 0.833888 0.609240
vt 0.831453 0.621422
vt 0.830947 0.620540
vt 0.834178 0.606269
vt 0.827360 0.604891
vt 0.828009 0.603682
vt 0.838329 0.610873
vt 0.831979 0.620523
vt 0.834963 0.607738
vt 0.833008 0.607323
vt 0.838759 0.602412
vt 0.840415 0.603069
vt 0.839305 0.603026
vt 0.827946 0.602459
vt 0.827084 0.601768
vt 0.828154 0.601692
vt 0.834715 0.605414
vt 0.828754 0.601921
vt 0.834380 0.603676
vt 0.837008 0.608531
vt 0.838188 0.609394
vt 0.837228 0.609593
vt 0.836408 0.605534
vt 0.838192 0.605054
vt 0.837825 0.605902
vt 0.827437 0.602549
vt 0.826058 0.603327
vt 0.837991 0.608341
vt 0.828340 0.620254
vt 0.829746 0.619661
vt 0.828239 0.602957
vt 0.826568 0.604522
vt 0.827232 0.603714
vt 0.837294 0.604427
vt 0.827031 0.603364
vt 0.836415 0.602241
vt 0.836884 0.603104
vt 0.838944 0.601692
vt 0.833601 0.608317
vn -0.8545 -0.0445 0.5175
vn -0.8168 -0.0085 0.5769
vn -0.8548 -0.0448 0.5170
vn -0.7773 0.0248 0.6287
vn -0.7302 0.0602 0.6806
vn -0.7780 0.0242 0.6278
vn -0.8163 -0.0081 0.5776
vn -0.8733 -0.0645 0.4830
vn -0.8732 -0.0646 0.4830
vn 0.7176 -0.0688 -0.6931
vn 0.7735 -0.0273 -0.6332
vn 0.7744 -0.0266 -0.6322
vn 0.8193 0.0111 -0.5733
vn 0.8198 0.0116 -0.5725
vn -0.7290 0.0611 0.6818
vn -0.7012 0.0805 0.7084
vn -0.4086 -0.4497 -0.7943
vn 0.8633 0.0538 -0.5019
vn 0.8838 0.0766 -0.4615
vn 0.8839 0.0765 -0.4614
vn 0.8629 0.0535 -0.5025
vn -0.2559 0.9021 -0.3474
vn -0.2560 0.9021 -0.3474
vn 0.6593 0.4446 0.6064
vn 0.6593 0.4446 0.6063
vn 0.6593 0.4445 0.6064
vn 0.6826 -0.0924 -0.7249
vn 0.7160 -0.0699 -0.6946
vn -0.2559 0.9021 -0.3473
vn -0.2559 0.9022 -0.3473
vn -0.2558 0.9022 -0.3473
vn 0.2559 -0.9021 0.3474
vn 0.2559 -0.9021 0.3473
vn 0.4808 -0.1929 -0.8553
vn 0.6146 -0.1255 -0.7788
vn -0.8560 -0.0449 0.5150
vn -0.8560 -0.0448 0.5150
vn -0.4490 -0.4293 -0.7836
vn -0.4491 -0.4292 -0.7837
vn -0.4491 -0.4291 -0.7837
vn 0.2228 -0.2946 -0.9293
vn 0.1089 -0.3301 -0.9376
vn -0.4296 0.2158 0.8769
vn 0.4491 0.4291 0.7837
vn 0.4490 0.4292 0.7837
vn -0.4816 0.1926 0.8549
vn -0.7117 0.0674 0.6992
vn -0.8701 -0.0583 0.4894
vn -0.8700 -0.0584 0.4895
vn 0.8560 0.0446 -0.5150
vn 0.8560 0.0445 -0.5150
vn -0.2877 0.2721 0.9183
vn -0.4816 0.1926 0.8550
vn -0.7656 0.0303 0.6426
vn 0.4496 -0.2071 -0.8689
vn -0.8561 -0.0446 0.5149
vn -0.4788 -0.4305 -0.7651
vn -0.4788 -0.4304 -0.7652
vn 0.8561 0.0446 -0.5150
vn 0.7592 0.4100 0.5055
vn 0.7592 0.4101 0.5054
vn 0.4491 0.4292 0.7837
vn 0.2228 -0.2947 -0.9293
vn 0.2558 -0.9022 0.3473
vn 0.2559 -0.9022 0.3473
vn 0.2559 -0.9021 0.3475
vn 0.2560 -0.9021 0.3474
vn -0.8561 -0.0447 0.5149
vn 0.1091 -0.3302 -0.9376
vn -0.4296 0.2157 0.8769
vn 0.4496 -0.2068 -0.8690
vn 0.4490 0.4293 0.7836
usemtl dhd.032
s 1
f 1/1/1 3/2/2 4/3/3
f 5/4/4 7/5/5 8/6/6
f 2/7/7 8/6/6 3/2/2
f 9/8/8 4/3/3 10/9/9
f 11/10/10 13/11/11 14/12/12
f 14/12/12 15/13/13 16/14/14
f 6/15/15 18/16/16 7/5/5
f 19/17/17 9/8/17 10/9/17
f 21/18/18 20/19/19 19/17/20
f 16/14/14 22/20/21 21/18/18
f 23/21/22 24/22/23 25/23/22
f 26/24/24 18/16/25 17/25/26
f 27/26/27 12/27/28 11/10/10
f 28/28/23 29/29/22 24/22/23
f 29/29/22 25/23/22 24/22/23
f 25/23/22 30/30/22 23/21/22
f 30/30/22 31/31/22 23/21/22
f 31/31/22 32/32/22 33/33/22
f 32/32/22 34/34/29 35/35/30
f 31/31/22 33/33/22 23/21/22
f 34/34/29 36/36/31 35/35/30
f 35/35/30 33/33/22 32/32/22
f 37/37/32 38/38/33 39/39/32
f 40/40/34 41/41/35 42/42/34
f 38/38/36 43/43/36 44/44/37
f 45/45/38 46/46/38 47/47/38
f 38/38/39 48/48/40 49/49/39
f 50/50/41 51/51/42 45/45/42
f 52/52/43 53/53/43 54/54/43
f 55/55/44 56/56/44 57/57/44
f 58/58/45 59/59/44 60/60/45
f 61/61/46 62/62/47 63/63/47
f 64/64/48 65/65/48 66/66/49
f 67/67/50 68/68/51 56/56/50
f 64/64/52 69/69/53 61/61/46
f 37/37/54 62/62/47 48/48/54
f 44/44/55 70/70/55 71/71/55
f 55/55/56 59/59/56 72/72/56
f 47/47/56 73/73/56 74/74/56
f 75/75/57 53/53/58 65/65/57
f 76/76/40 73/73/40 68/68/40
f 58/58/59 77/77/59 78/78/59
f 52/52/60 77/77/61 79/79/60
f 71/71/62 41/41/62 39/39/62
f 50/50/41 42/42/34 80/80/63
f 47/47/32 74/74/64 76/76/65
f 76/76/65 67/67/32 47/47/32
f 67/67/32 55/55/64 72/72/66
f 67/67/32 72/72/66 47/47/32
f 47/47/32 72/72/66 45/45/67
f 72/72/66 58/58/32 45/45/67
f 78/78/32 52/52/32 75/75/32
f 52/52/32 54/54/32 75/75/32
f 50/50/32 45/45/67 58/58/32
f 58/58/32 78/78/32 75/75/32
f 64/64/32 61/61/32 50/50/32
f 61/61/32 63/63/32 39/39/32
f 40/40/32 61/61/32 39/39/32
f 58/58/32 75/75/32 64/64/32
f 40/40/32 50/50/32 61/61/32
f 50/50/32 58/58/32 64/64/32
f 63/63/32 37/37/32 39/39/32
f 38/38/33 44/44/65 71/71/33
f 38/38/33 71/71/33 39/39/32
f 40/40/34 39/39/35 41/41/35
f 38/38/68 49/49/68 43/43/68
f 45/45/39 51/51/39 46/46/39
f 38/38/39 37/37/40 48/48/40
f 50/50/41 80/80/63 51/51/69
f 52/52/70 79/79/70 53/53/70
f 55/55/44 67/67/45 56/56/44
f 58/58/45 72/72/44 59/59/44
f 61/61/46 69/69/53 62/62/47
f 64/64/48 75/75/48 65/65/48
f 67/67/50 76/76/51 68/68/51
f 64/64/52 66/66/52 69/69/53
f 37/37/54 63/63/47 62/62/47
f 44/44/71 43/43/71 70/70/71
f 55/55/56 57/57/56 59/59/56
f 47/47/56 46/46/56 73/73/56
f 75/75/57 54/54/58 53/53/58
f 76/76/40 74/74/40 73/73/40
f 58/58/50 60/60/50 77/77/50
f 52/52/60 78/78/61 77/77/61
f 71/71/72 70/70/72 41/41/72
f 50/50/41 40/40/34 42/42/34
f 1/1/1 2/7/7 3/2/2
f 5/4/4 6/15/15 7/5/5
f 2/7/7 5/4/4 8/6/6
f 9/8/8 1/1/1 4/3/3
f 11/10/10 12/27/28 13/11/11
f 14/12/12 13/11/11 15/13/13
f 6/15/15 17/25/16 18/16/16
f 19/17/17 20/19/17 9/8/17
f 21/18/18 22/20/21 20/19/19
f 16/14/14 15/13/13 22/20/21
f 26/24/24 27/26/26 18/16/25
f 27/26/27 26/24/27 12/27/28
