# Blender v3.1.2 OBJ File: ''
# www.blender.org
mtllib 23_base.mtl
o buttons.053
v -0.198001 1.156549 -0.002428
v -0.195480 1.149496 0.001322
v -0.198652 1.143041 -0.009413
v -0.201173 1.150094 -0.013163
v -0.359943 1.095050 0.008154
v -0.358132 1.104829 0.025629
v -0.360652 1.111883 0.021881
v -0.362464 1.102102 0.004404
v -0.193998 1.162741 0.007440
v -0.191477 1.155689 0.011190
v -0.200682 1.136955 -0.019964
v -0.203204 1.144007 -0.023714
v -0.354020 1.116405 0.045517
v -0.356537 1.123462 0.041774
v -0.348008 1.128643 0.065870
v -0.340686 1.140347 0.084697
v -0.343191 1.147416 0.080972
v -0.350520 1.135706 0.062135
v -0.203894 1.138886 -0.033048
v -0.201373 1.131833 -0.029298
v -0.332769 1.150370 0.100154
v -0.335267 1.157447 0.096441
v -0.208095 1.148650 -0.010630
v -0.210273 1.142310 -0.021825
v -0.353578 1.113433 0.019903
v -0.187034 1.161011 0.019226
v -0.189555 1.168064 0.015475
v -0.210506 1.140763 -0.024764
v -0.354753 1.107646 0.009120
v -0.349512 1.124553 0.039367
v -0.343628 1.136527 0.059279
v -0.336543 1.148099 0.077551
v -0.204768 1.155421 0.000631
v -0.331771 1.154418 0.086902
v -0.200568 1.162059 0.011017
v -0.199217 1.163750 0.013467
v -0.272449 1.142603 0.021981
v -0.287160 1.142176 0.031352
v -0.273800 1.137823 0.013339
v -0.236561 1.139297 -0.009591
v -0.247218 1.140185 -0.000403
v -0.269167 1.128082 -0.009408
v -0.244859 1.165414 0.030938
v -0.274672 1.149012 0.018783
v -0.301492 1.143494 0.026365
v -0.276023 1.144233 0.010142
v -0.289383 1.148586 0.028154
v -0.242636 1.159004 0.034136
v -0.238784 1.145707 -0.012788
v -0.250359 1.150416 0.022289
v -0.269480 1.147534 0.012212
v -0.252581 1.156826 0.019091
v -0.249441 1.146595 -0.003601
v -0.305575 1.142169 0.044139
v -0.295211 1.156449 0.047968
v -0.307798 1.148579 0.040941
v -0.292989 1.150039 0.051166
v -0.267257 1.141125 0.015410
v -0.266079 1.140875 -0.003501
v -0.299270 1.137084 0.029563
v -0.263856 1.134465 -0.000304
v -0.271389 1.134492 -0.012606
vt 0.930509 0.500632
vt 0.927477 0.501845
vt 0.927687 0.499967
vt 0.913867 0.523138
vt 0.915036 0.526888
vt 0.912167 0.523398
vt 0.932977 0.501460
vt 0.930109 0.502365
vt 0.924885 0.501601
vt 0.924674 0.499721
vt 0.916387 0.525373
vt 0.919736 0.530068
vt 0.925460 0.529540
vt 0.930550 0.531194
vt 0.925223 0.531382
vt 0.923065 0.501723
vt 0.930117 0.529354
vt 0.935012 0.528977
vt 0.970244 0.350275
vt 0.972471 0.350087
vt 0.975030 0.376001
vt 0.933780 0.503676
vt 0.933420 0.527733
vt 0.935012 0.502599
vt 0.932335 0.503041
vt 0.922242 0.500493
vt 0.920577 0.528367
vt 0.973032 0.349981
vt 0.977109 0.375666
vt 0.971138 0.376282
vt 0.967032 0.376282
vt 0.963144 0.376001
vt 0.967922 0.350275
vt 0.961072 0.375667
vt 0.965700 0.350087
vt 0.965149 0.349982
vt 0.053440 0.882866
vt 0.052483 0.879075
vt 0.055831 0.883193
vt 0.056912 0.889594
vt 0.056170 0.888307
vt 0.058502 0.886289
vt 0.050223 0.889859
vt 0.051767 0.882851
vt 0.055046 0.876453
vt 0.057282 0.882401
vt 0.051168 0.879373
vt 0.051818 0.888757
vt 0.057690 0.890742
vt 0.053272 0.887675
vt 0.055004 0.885898
vt 0.054537 0.887140
vt 0.055853 0.887682
vt 0.052619 0.875864
vt 0.050223 0.875629
vt 0.052792 0.874833
vt 0.051530 0.876337
vt 0.054761 0.884262
vt 0.056174 0.886484
vt 0.053930 0.877224
vt 0.057263 0.886281
vt 0.059623 0.886142
vn 0.9128 0.1184 -0.3909
vn 0.9326 0.1617 -0.3227
vn 0.9328 0.1623 -0.3218
vn -0.9496 -0.2212 0.2222
vn -0.9448 -0.1996 0.2597
vn -0.9495 -0.2213 0.2223
vn 0.8831 0.0688 -0.4642
vn 0.9124 0.1176 -0.3921
vn 0.9471 0.2091 -0.2436
vn 0.9471 0.2095 -0.2430
vn -0.9448 -0.1992 0.2602
vn -0.9316 -0.1589 0.3269
vn -0.9143 -0.1206 0.3867
vn -0.8901 -0.0790 0.4488
vn -0.9146 -0.1213 0.3858
vn -0.0902 -0.4925 -0.8656
vn -0.8895 -0.0779 0.4502
vn -0.8738 -0.0549 0.4832
vn -0.2964 0.8546 -0.4263
vn -0.2964 0.8546 -0.4264
vn 0.3805 0.5340 0.7550
vn 0.3805 0.5340 0.7551
vn 0.8628 0.0405 -0.5039
vn 0.8822 0.0675 -0.4661
vn 0.9516 0.2344 -0.1990
vn 0.9516 0.2344 -0.1989
vn -0.9314 -0.1584 0.3277
vn -0.2963 0.8546 -0.4263
vn -0.2963 0.8547 -0.4263
vn -0.2964 0.8546 -0.4265
vn 0.2964 -0.8546 0.4264
vn 0.2964 -0.8546 0.4263
vn 0.2963 -0.8546 0.4263
vn -0.4810 0.2521 0.8397
vn -0.4486 -0.5186 -0.7279
vn 0.4486 0.5187 0.7278
vn 0.9468 0.3216 -0.0134
vn 0.1341 -0.4047 -0.9046
vn 0.4806 -0.2524 -0.8398
vn -0.9468 -0.3214 0.0139
vn -0.5700 0.2000 0.7970
vn -0.5700 0.2000 0.7969
vn 0.9180 0.3781 0.1200
vn 0.9348 0.3510 0.0536
vn 0.9349 0.3510 0.0536
vn -0.8771 -0.4202 -0.2328
vn -0.1337 0.4048 0.9046
vn -0.1338 0.4049 0.9045
vn -0.9372 -0.3462 -0.0427
vn -0.9372 -0.3462 -0.0426
vn 0.2963 -0.8546 0.4264
vn 0.4486 0.5188 0.7278
vn 0.1342 -0.4048 -0.9045
vn 0.4806 -0.2523 -0.8398
vn -0.9469 -0.3213 0.0138
vn 0.9179 0.3782 0.1199
vn 0.9349 0.3509 0.0536
vn -0.8770 -0.4203 -0.2328
vn -0.9372 -0.3463 -0.0426
vn 0.8629 0.0404 -0.5038
usemtl dhd.031
s 1
f 1/1/1 3/2/2 4/3/3
f 5/4/4 7/5/5 8/6/6
f 9/7/7 2/8/8 1/1/1
f 4/3/3 11/9/9 12/10/10
f 6/11/11 14/12/12 7/5/5
f 15/13/13 17/14/14 18/15/15
f 8/6/16 20/16/16 5/4/16
f 16/17/17 22/18/18 17/14/14
f 23/19/19 24/20/20 25/21/20
f 26/22/21 22/18/22 21/23/22
f 27/24/23 10/25/24 9/7/7
f 12/10/10 20/16/25 19/26/26
f 13/27/27 18/15/15 14/12/12
f 28/28/20 29/29/20 24/20/20
f 29/29/20 25/21/20 24/20/20
f 25/21/20 30/30/20 23/19/19
f 30/30/20 31/31/19 23/19/19
f 31/31/19 32/32/28 33/33/19
f 32/32/28 34/34/29 35/35/20
f 31/31/19 33/33/19 23/19/19
f 34/34/29 36/36/30 35/35/20
f 35/35/20 33/33/19 32/32/28
f 37/37/31 38/38/32 39/39/31
f 40/40/32 41/41/32 42/42/33
f 37/37/34 43/43/34 44/44/34
f 39/39/35 45/45/35 46/46/35
f 37/37/36 47/47/36 38/38/36
f 40/40/37 43/43/37 48/48/37
f 42/42/38 49/49/38 40/40/38
f 50/50/39 51/51/39 52/52/39
f 50/50/40 53/53/40 41/41/40
f 54/54/41 55/55/42 56/56/41
f 38/38/43 55/55/43 57/57/43
f 58/58/44 59/59/45 51/51/44
f 54/54/46 45/45/46 60/60/46
f 61/61/47 53/53/48 59/59/47
f 42/42/49 46/46/50 62/62/49
f 39/39/31 42/42/33 61/61/33
f 58/58/51 50/50/33 37/37/31
f 50/50/33 48/48/33 37/37/31
f 39/39/31 61/61/33 58/58/51
f 54/54/32 60/60/32 38/38/32
f 60/60/32 39/39/31 38/38/32
f 38/38/32 57/57/32 54/54/32
f 58/58/51 37/37/31 39/39/31
f 40/40/32 48/48/33 50/50/33
f 41/41/32 61/61/33 42/42/33
f 40/40/32 50/50/33 41/41/32
f 37/37/34 48/48/34 43/43/34
f 39/39/35 60/60/35 45/45/35
f 37/37/52 44/44/52 47/47/52
f 40/40/37 49/49/37 43/43/37
f 42/42/53 62/62/53 49/49/53
f 50/50/39 58/58/54 51/51/39
f 50/50/55 52/52/55 53/53/55
f 54/54/41 57/57/42 55/55/42
f 38/38/56 47/47/56 55/55/56
f 58/58/44 61/61/57 59/59/45
f 54/54/58 56/56/58 45/45/58
f 61/61/47 41/41/48 53/53/48
f 42/42/49 39/39/59 46/46/50
f 1/1/1 2/8/8 3/2/2
f 5/4/4 6/11/11 7/5/5
f 9/7/7 10/25/24 2/8/8
f 4/3/3 3/2/2 11/9/9
f 6/11/11 13/27/27 14/12/12
f 15/13/13 16/17/17 17/14/14
f 8/6/16 19/26/16 20/16/16
f 16/17/17 21/23/18 22/18/18
f 26/22/21 27/24/21 22/18/22
f 27/24/23 26/22/60 10/25/24
f 12/10/10 11/9/9 20/16/25
f 13/27/27 15/13/13 18/15/15
