# Blender v3.1.2 OBJ File: ''
# www.blender.org
mtllib 24.mtl
o buttons.018
v -0.351780 1.052948 -0.080682
v -0.358762 1.050189 -0.080715
v -0.362343 1.061814 -0.060745
v -0.355211 1.064122 -0.061128
v -0.211577 1.112732 -0.070360
v -0.204566 1.115374 -0.070901
v -0.202532 1.109288 -0.081451
v -0.209460 1.106387 -0.081564
v -0.205629 1.128547 -0.049424
v -0.205633 1.122010 -0.059865
v -0.212696 1.119694 -0.058783
v -0.212724 1.126690 -0.047801
v -0.364367 1.074401 -0.039813
v -0.364636 1.086719 -0.019966
v -0.357511 1.088586 -0.021417
v -0.357190 1.076432 -0.040656
v -0.356656 1.095389 -0.011262
v -0.208604 1.104894 -0.084414
v -0.353976 1.040664 -0.097766
v -0.348922 1.047306 -0.091225
v -0.363124 1.097561 -0.003148
v -0.212411 1.128524 -0.045113
v -0.199731 1.104348 -0.090483
v -0.204554 1.134345 -0.040599
v -0.326553 1.096336 -0.042320
v -0.267537 1.110586 -0.055084
v -0.310464 1.096708 -0.051307
v -0.302623 1.076607 -0.087475
v -0.298213 1.086608 -0.074422
v -0.242702 1.123446 -0.049697
vt 0.667196 0.873874
vt 0.556424 0.918984
vt 0.555089 0.881975
vt 0.529347 0.132954
vt 0.588484 0.090814
vt 0.593490 0.127530
vt 0.403488 0.090813
vt 0.462472 0.132953
vt 0.398460 0.127527
vt 0.435502 0.918983
vt 0.324851 0.873876
vt 0.436838 0.881975
vt 0.464039 0.095931
vt 0.320545 0.910668
vt 0.265189 0.864214
vt 0.609632 0.124483
vt 0.769451 0.894862
vt 0.727061 0.864201
vt 0.222801 0.894863
vt 0.382614 0.124520
vt 0.671495 0.910668
vt 0.640202 0.081062
vt 0.352051 0.081062
vt 0.525436 0.524542
vt 0.493879 0.741210
vt 0.493882 0.581432
vt 0.346018 0.596571
vt 0.402034 0.618308
vt 0.525436 0.836648
vt 0.527784 0.095931
vn -0.3071 0.8007 -0.5144
vn -0.2948 0.8050 -0.5149
vn -0.2949 0.8050 -0.5149
vn -0.3339 0.7915 -0.5119
vn -0.3232 0.7907 -0.5199
vn -0.3273 0.7927 -0.5143
vn -0.3251 0.8023 -0.5006
vn -0.3345 0.7947 -0.5065
vn -0.3281 0.7980 -0.5055
vn -0.2952 0.8070 -0.5115
vn -0.3076 0.8035 -0.5097
vn -0.3125 0.8041 -0.5057
vn -0.3178 0.8190 -0.4778
vn -0.3119 0.7951 -0.5201
vn -0.3146 0.7774 -0.5446
vn -0.3114 0.7791 -0.5440
vn -0.3212 0.8184 -0.4765
vn -0.3136 0.8055 -0.5028
vn -0.3114 0.7971 -0.5174
vn -0.3092 0.7940 -0.5235
vn -0.3115 0.8081 -0.4998
vn -0.3047 0.8030 -0.5123
vn -0.3047 0.8030 -0.5122
vn -0.3047 0.8029 -0.5123
vn -0.3340 0.7915 -0.5119
usemtl dhd_button_light.022
s 1
f 1/1/1 3/2/2 4/3/3
f 5/4/4 7/5/5 8/6/6
f 9/7/7 11/8/8 12/9/9
f 13/10/10 15/11/11 16/12/10
f 10/13/8 5/4/4 11/8/8
f 14/14/12 17/15/13 15/11/11
f 7/5/5 18/16/14 8/6/6
f 3/2/2 16/12/10 4/3/3
f 18/16/14 19/17/15 20/18/16
f 21/19/17 22/20/18 17/15/13
f 20/18/16 2/21/19 1/1/1
f 22/20/18 9/7/7 12/9/9
f 14/14/12 21/19/17 17/15/13
f 7/5/5 23/22/20 18/16/14
f 18/16/14 23/22/20 19/17/15
f 21/19/17 24/23/21 22/20/18
f 20/18/16 19/17/15 2/21/19
f 22/20/18 24/23/21 9/7/7
f 25/24/22 26/25/22 27/26/23
f 28/27/24 27/26/23 29/28/22
f 25/24/22 30/29/22 26/25/22
f 28/27/24 25/24/22 27/26/23
f 29/28/22 26/25/22 28/27/24
f 26/25/22 30/29/22 28/27/24
f 1/1/1 2/21/19 3/2/2
f 5/4/4 6/30/25 7/5/5
f 9/7/7 10/13/8 11/8/8
f 13/10/10 14/14/12 15/11/11
f 10/13/8 6/30/25 5/4/4
f 3/2/2 13/10/10 16/12/10
