# Blender v3.1.2 OBJ File: ''
# www.blender.org
mtllib 25.mtl
o buttons.019
v -0.191090 1.088066 -0.116313
v -0.185900 1.081968 -0.126454
v -0.192239 1.078178 -0.127823
v -0.197684 1.084575 -0.117185
v -0.328991 1.002535 -0.159325
v -0.338837 1.014102 -0.140090
v -0.332154 1.017325 -0.138952
v -0.322526 1.006013 -0.157763
v -0.195085 1.094260 -0.106443
v -0.201937 1.091203 -0.106814
v -0.311970 0.996041 -0.175317
v -0.318103 0.992154 -0.177225
v -0.346675 1.025722 -0.121402
v -0.339844 1.028789 -0.120858
v -0.180022 1.076562 -0.135873
v -0.186058 1.072547 -0.137840
v -0.351739 1.036259 -0.105092
v -0.202696 1.092999 -0.104190
v -0.343000 1.035394 -0.111032
v -0.184205 1.071286 -0.140302
v -0.307237 0.983975 -0.192038
v -0.305389 0.991211 -0.184510
v -0.197494 1.099943 -0.097809
v -0.174032 1.072378 -0.143648
v -0.253179 1.060392 -0.134243
v -0.247608 1.052331 -0.147042
v -0.253866 1.048056 -0.149502
v -0.300779 1.045401 -0.130816
v -0.292694 1.058189 -0.118462
v -0.291541 1.053766 -0.124590
v -0.273860 1.052049 -0.135065
v -0.278255 1.048222 -0.137834
v -0.269787 1.047244 -0.143048
v -0.275556 1.045616 -0.142394
v -0.294038 1.049189 -0.129197
v -0.262681 1.041298 -0.153896
v -0.260755 1.046219 -0.148585
v -0.255304 1.045783 -0.151698
v -0.271778 1.041282 -0.149643
v -0.244604 1.045521 -0.157055
v -0.261999 1.037064 -0.159565
v -0.282221 1.035700 -0.151788
v -0.221000 1.070053 -0.137160
v -0.222804 1.067510 -0.139524
v -0.228517 1.067222 -0.137203
v -0.236145 1.071716 -0.127943
v -0.233585 1.067330 -0.134685
v -0.238031 1.068732 -0.130826
v -0.243669 1.052314 -0.148915
v -0.260543 1.058744 -0.132866
v -0.266224 1.060693 -0.127735
v -0.250755 1.064229 -0.130536
vt 0.464041 0.095932
vt 0.529349 0.132954
vt 0.462474 0.132953
vt 0.435504 0.918983
vt 0.555091 0.881976
vt 0.556426 0.918984
vt 0.403490 0.090814
vt 0.398462 0.127528
vt 0.667198 0.873875
vt 0.324853 0.873876
vt 0.436840 0.881975
vt 0.588487 0.090814
vt 0.593493 0.127531
vt 0.222803 0.894864
vt 0.382617 0.124520
vt 0.265191 0.864215
vt 0.609635 0.124484
vt 0.769453 0.894863
vt 0.727063 0.864202
vt 0.320547 0.910669
vt 0.671497 0.910669
vt 0.352054 0.081062
vt 0.640204 0.081063
vt 0.474139 0.710786
vt 0.417415 0.731614
vt 0.400642 0.706900
vt 0.452369 0.524542
vt 0.517909 0.557187
vt 0.489536 0.561226
vt 0.453630 0.629687
vt 0.436872 0.612249
vt 0.418736 0.645023
vt 0.417238 0.622468
vt 0.465509 0.551081
vt 0.372569 0.672019
vt 0.399502 0.679979
vt 0.388991 0.701097
vt 0.385609 0.636705
vt 0.371959 0.742603
vt 0.346018 0.674246
vt 0.366987 0.595620
vt 0.485987 0.836648
vt 0.473239 0.829395
vt 0.479754 0.807191
vt 0.517909 0.778022
vt 0.487729 0.787528
vt 0.502617 0.770408
vt 0.411620 0.746904
vt 0.474821 0.682040
vt 0.494793 0.660181
vt 0.493803 0.720574
vt 0.527786 0.095931
vn -0.3085 0.7394 -0.5984
vn -0.3059 0.7364 -0.6034
vn -0.3084 0.7394 -0.5984
vn -0.2719 0.7582 -0.5926
vn -0.2704 0.7563 -0.5957
vn -0.3024 0.7483 -0.5904
vn -0.3033 0.7436 -0.5959
vn -0.2814 0.7500 -0.5985
vn -0.2836 0.7527 -0.5942
vn -0.2720 0.7582 -0.5926
vn -0.2932 0.7378 -0.6080
vn -0.2990 0.7388 -0.6040
vn -0.3081 0.7643 -0.5665
vn -0.2915 0.7534 -0.5894
vn -0.3047 0.7654 -0.5668
vn -0.2833 0.7439 -0.6053
vn -0.2761 0.7266 -0.6291
vn -0.2736 0.7288 -0.6277
vn -0.2894 0.7523 -0.5918
vn -0.2840 0.7459 -0.6025
vn -0.2908 0.7563 -0.5860
vn -0.2797 0.7433 -0.6077
vn -0.2799 0.7527 -0.5960
vn -0.2800 0.7527 -0.5959
vn -0.2799 0.7527 -0.5959
vn -0.2798 0.7526 -0.5960
vn -0.2799 0.7526 -0.5960
vn -0.2801 0.7527 -0.5958
vn -0.2800 0.7526 -0.5959
vn -0.3058 0.7365 -0.6034
usemtl dhd_button_light.021
s 1
f 1/1/1 3/2/2 4/3/3
f 6/4/4 8/5/5 5/6/5
f 9/7/6 4/3/3 10/8/7
f 11/9/8 5/6/5 8/5/5
f 6/4/4 14/10/9 7/11/10
f 3/2/2 15/12/11 16/13/12
f 17/14/13 18/15/14 19/16/15
f 15/12/11 20/17/16 16/13/12
f 20/17/16 21/18/17 22/19/18
f 13/20/19 19/16/15 14/10/9
f 22/19/18 12/21/20 11/9/8
f 18/15/14 9/7/6 10/8/7
f 17/14/13 23/22/21 18/15/14
f 15/12/11 24/23/22 20/17/16
f 20/17/16 24/23/22 21/18/17
f 13/20/19 17/14/13 19/16/15
f 22/19/18 21/18/17 12/21/20
f 18/15/14 23/22/21 9/7/6
f 25/24/23 26/25/24 27/26/25
f 28/27/26 29/28/25 30/29/25
f 30/29/25 31/30/24 32/31/24
f 31/30/24 33/32/24 34/33/24
f 32/31/24 31/30/24 34/33/24
f 35/34/27 28/27/26 30/29/25
f 32/31/24 35/34/27 30/29/25
f 36/35/24 37/36/28 38/37/24
f 34/33/24 33/32/24 39/38/25
f 40/39/25 41/40/24 38/37/24
f 41/40/24 42/41/25 39/38/25
f 36/35/24 41/40/24 39/38/25
f 43/42/29 44/43/29 45/44/29
f 42/41/25 34/33/24 39/38/25
f 46/45/24 43/42/29 45/44/29
f 47/46/24 48/47/25 46/45/24
f 47/46/24 46/45/24 45/44/29
f 41/40/24 36/35/24 38/37/24
f 47/46/24 45/44/29 49/48/29
f 45/44/29 40/39/25 49/48/29
f 40/39/25 38/37/24 27/26/25
f 50/49/25 51/50/24 52/51/23
f 40/39/25 27/26/25 26/25/24
f 27/26/25 50/49/25 25/24/23
f 26/25/24 49/48/29 40/39/25
f 50/49/25 52/51/23 25/24/23
f 1/1/1 2/52/30 3/2/2
f 6/4/4 7/11/10 8/5/5
f 9/7/6 1/1/1 4/3/3
f 11/9/8 12/21/20 5/6/5
f 6/4/4 13/20/19 14/10/9
f 3/2/2 2/52/30 15/12/11
