# Blender v3.1.2 OBJ File: ''
# www.blender.org
mtllib 25_base.mtl
o buttons.055
v -0.344420 1.019495 -0.116277
v -0.349491 1.030050 -0.099939
v -0.351739 1.036259 -0.105092
v -0.346675 1.025722 -0.121402
v -0.195085 1.094260 -0.106443
v -0.192837 1.088051 -0.101290
v -0.188842 1.081857 -0.111160
v -0.191090 1.088066 -0.116313
v -0.195246 1.093734 -0.092656
v -0.197494 1.099943 -0.097809
v -0.326741 0.996321 -0.154179
v -0.336585 1.007882 -0.134953
v -0.338837 1.014102 -0.140090
v -0.328991 1.002535 -0.159325
v -0.315854 0.985944 -0.172074
v -0.318103 0.992154 -0.177225
v -0.304989 0.977767 -0.186885
v -0.307237 0.983975 -0.192038
v -0.174032 1.072378 -0.143648
v -0.171784 1.066169 -0.138495
v -0.183652 1.075759 -0.121301
v -0.185900 1.081968 -0.126454
v -0.192239 1.078178 -0.127823
v -0.186058 1.072547 -0.137840
v -0.311970 0.996041 -0.175317
v -0.180022 1.076562 -0.135873
v -0.177774 1.070353 -0.130720
v -0.184205 1.071286 -0.140302
v -0.305389 0.991211 -0.184510
v -0.322526 1.006013 -0.157763
v -0.332154 1.017325 -0.138952
v -0.339844 1.028789 -0.120858
v -0.197684 1.084575 -0.117185
v -0.343000 1.035394 -0.111032
v -0.201937 1.091203 -0.106814
v -0.202696 1.092999 -0.104190
v -0.258443 1.053099 -0.128396
v -0.251767 1.042411 -0.145032
v -0.251079 1.054747 -0.129773
v -0.241569 1.046669 -0.144446
v -0.233585 1.067330 -0.134685
v -0.243669 1.052314 -0.148915
v -0.245508 1.046686 -0.142573
v -0.247608 1.052331 -0.147042
v -0.260581 1.035653 -0.149427
v -0.260755 1.046219 -0.148585
v -0.262681 1.041298 -0.153896
v -0.276155 1.042577 -0.133365
v -0.275556 1.045616 -0.142394
v -0.273456 1.039971 -0.137924
v -0.264124 1.055048 -0.123266
v -0.260543 1.058744 -0.132866
v -0.242504 1.039876 -0.152585
v -0.228517 1.067222 -0.137203
v -0.226417 1.061577 -0.132734
v -0.220704 1.061865 -0.135055
v -0.222804 1.067510 -0.139524
v -0.271760 1.046404 -0.130596
v -0.291541 1.053766 -0.124590
v -0.289441 1.048121 -0.120121
v -0.231485 1.061685 -0.130216
v -0.238031 1.068732 -0.130826
v -0.290594 1.052544 -0.113992
v -0.300779 1.045401 -0.130816
v -0.298679 1.039755 -0.126346
v -0.253204 1.040138 -0.147229
v -0.258655 1.040574 -0.144116
v -0.291938 1.043544 -0.124728
v -0.294038 1.049189 -0.129197
v -0.282221 1.035700 -0.151788
v -0.280121 1.030055 -0.147318
v -0.234046 1.066071 -0.123474
v -0.235931 1.063087 -0.126356
v -0.261999 1.037064 -0.159565
v -0.244604 1.045521 -0.157055
v -0.218900 1.064407 -0.132690
v -0.236145 1.071716 -0.127943
v -0.269678 1.035637 -0.145174
v -0.269787 1.047244 -0.143048
v -0.267687 1.041599 -0.138578
v -0.273860 1.052049 -0.135065
v -0.250755 1.064229 -0.130536
v -0.248655 1.058584 -0.126067
v -0.253179 1.060392 -0.134243
v -0.278255 1.048222 -0.137834
v -0.253866 1.048056 -0.149502
v -0.259899 1.031419 -0.155095
v -0.292694 1.058189 -0.118462
v -0.255304 1.045783 -0.151698
v -0.221000 1.070053 -0.137160
v -0.271778 1.041282 -0.149643
v -0.266224 1.060693 -0.127735
vt 0.279794 0.922978
vt 0.282583 0.925870
vt 0.279242 0.924877
vt 0.280520 0.950796
vt 0.278407 0.953442
vt 0.277906 0.951522
vt 0.283863 0.950925
vt 0.283863 0.924944
vt 0.282276 0.949986
vt 0.281494 0.952631
vt 0.269155 0.924029
vt 0.274491 0.924725
vt 0.269678 0.925718
vt 0.264564 0.926168
vt 0.265583 0.927591
vt 0.261513 0.929496
vt 0.263107 0.930092
vt 0.274379 0.922903
vt 0.270008 0.953796
vt 0.275428 0.953853
vt 0.275167 0.951993
vt 0.970244 0.464762
vt 0.972471 0.464573
vt 0.975030 0.490488
vt 0.272730 0.952166
vt 0.271064 0.952088
vt 0.272668 0.954050
vt 0.973032 0.464468
vt 0.977109 0.490153
vt 0.971138 0.490769
vt 0.967032 0.490769
vt 0.963144 0.490488
vt 0.967922 0.464762
vt 0.961072 0.490153
vt 0.965700 0.464573
vt 0.965150 0.464469
vt 0.844386 0.614975
vt 0.847585 0.613421
vt 0.844845 0.615743
vt 0.848677 0.615550
vt 0.847999 0.619677
vt 0.847615 0.616708
vt 0.847716 0.615135
vt 0.847168 0.616436
vt 0.848595 0.610962
vt 0.847052 0.611529
vt 0.847346 0.610799
vt 0.847477 0.606278
vt 0.848995 0.606438
vt 0.848048 0.607156
vt 0.843771 0.615250
vt 0.843577 0.614069
vt 0.849567 0.614016
vt 0.850931 0.619660
vt 0.849692 0.619746
vt 0.850049 0.620336
vt 0.850751 0.620661
vt 0.846630 0.606595
vt 0.844454 0.604061
vt 0.845668 0.603720
vt 0.849011 0.619762
vt 0.847846 0.620368
vt 0.845261 0.603145
vt 0.847398 0.601692
vt 0.846505 0.603010
vt 0.847956 0.612820
vt 0.847739 0.611766
vt 0.846410 0.603436
vt 0.847674 0.603065
vt 0.850577 0.607869
vt 0.849761 0.608354
vt 0.848719 0.620349
vt 0.848647 0.620195
vt 0.850931 0.611004
vt 0.850795 0.614045
vt 0.849886 0.620502
vt 0.848219 0.621029
vt 0.848322 0.609001
vt 0.846412 0.608347
vt 0.847268 0.607780
vt 0.845643 0.607088
vt 0.844323 0.616774
vt 0.844398 0.615993
vt 0.844987 0.616677
vt 0.848556 0.605737
vt 0.846541 0.612547
vt 0.849627 0.611037
vt 0.844460 0.602635
vt 0.846803 0.612184
vt 0.850399 0.621137
vt 0.847086 0.609469
vt 0.842736 0.615412
vn -0.9142 -0.3972 -0.0803
vn -0.9264 -0.3737 -0.0462
vn -0.9136 -0.3982 -0.0818
vn 0.9194 0.3877 0.0661
vn 0.8892 0.4363 0.1378
vn 0.8886 0.4371 0.1391
vn -0.2669 0.5564 0.7869
vn 0.9333 0.3583 0.0246
vn 0.9201 0.3864 0.0641
vn -0.8574 -0.4749 -0.1986
vn -0.8864 -0.4400 -0.1441
vn -0.8569 -0.4753 -0.1993
vn -0.8195 -0.5114 -0.2588
vn -0.8191 -0.5117 -0.2592
vn -0.7963 -0.5302 -0.2914
vn -0.8869 -0.4393 -0.1431
vn 0.5403 -0.4129 -0.7332
vn 0.5404 -0.4129 -0.7332
vn 0.8546 0.4779 0.2030
vn 0.8541 0.4784 0.2039
vn -0.2800 0.7527 -0.5959
vn -0.2799 0.7526 -0.5960
vn 0.8090 0.5201 0.2738
vn 0.7815 0.5410 0.3109
vn 0.8094 0.5198 0.2732
vn -0.2798 0.7526 -0.5960
vn -0.2801 0.7529 -0.5955
vn 0.2799 -0.7526 0.5960
vn 0.2799 -0.7527 0.5959
vn -0.8542 0.0880 0.5125
vn 0.3255 0.6584 0.6786
vn 0.3255 0.6584 0.6787
vn -0.9249 -0.0453 0.3774
vn -0.8442 -0.4886 -0.2205
vn -0.6359 -0.6104 -0.4722
vn -0.7960 -0.5290 -0.2942
vn -0.7959 -0.5291 -0.2942
vn 0.8314 -0.1201 -0.5425
vn -0.2552 -0.6567 -0.7096
vn 0.4319 0.6531 0.6220
vn -0.6180 -0.6163 -0.4880
vn -0.6180 -0.6163 -0.4881
vn -0.8662 0.0696 0.4948
vn 0.4136 0.6547 0.6327
vn 0.4400 -0.4511 -0.7765
vn -0.8540 0.0883 0.5127
vn -0.8663 0.0695 0.4947
vn 0.3553 -0.4955 -0.7926
vn 0.4452 0.6517 0.6141
vn 0.9348 0.0725 -0.3477
vn 0.8724 0.4585 0.1692
vn 0.8663 -0.0694 -0.4947
vn 0.8956 0.4283 0.1201
vn -0.3928 -0.6562 -0.6443
vn -0.9052 -0.4138 -0.0975
vn -0.9052 -0.4137 -0.0975
vn -0.2322 -0.6554 -0.7187
vn 0.9481 0.3143 -0.0485
vn -0.8662 0.0696 0.4947
vn -0.8661 0.0697 0.4949
vn -0.8661 0.0697 0.4950
vn 0.8421 -0.1055 -0.5289
vn 0.3178 0.6584 0.6823
vn 0.0001 0.6207 0.7840
vn 0.2801 -0.7526 0.5959
vn 0.2801 -0.7527 0.5959
vn 0.2800 -0.7526 0.5959
vn 0.2800 -0.7527 0.5959
vn 0.2801 -0.7525 0.5961
vn 0.2798 -0.7528 0.5958
vn 0.2801 -0.7527 0.5958
vn 0.2801 -0.7528 0.5957
vn 0.3256 0.6584 0.6786
vn 0.8315 -0.1202 -0.5424
vn -0.6180 -0.6164 -0.4880
vn 0.4137 0.6547 0.6326
vn 0.4452 0.6517 0.6140
vn 0.8724 0.4585 0.1691
vn 0.8663 -0.0694 -0.4946
vn -0.2322 -0.6555 -0.7187
vn -0.8663 0.0696 0.4946
vn 0.8420 -0.1056 -0.5290
vn -0.9264 -0.3737 -0.0461
usemtl dhd.029
s 1
f 1/1/1 3/2/2 4/3/3
f 5/4/4 7/5/5 8/6/6
f 9/7/7 3/2/7 2/8/7
f 10/9/8 6/10/9 5/4/4
f 11/11/10 13/12/11 14/13/12
f 15/14/13 14/13/12 16/15/14
f 17/16/15 16/15/14 18/17/15
f 12/18/16 4/3/3 13/12/11
f 18/17/17 20/19/18 17/16/17
f 8/6/6 21/20/19 22/21/20
f 23/22/21 24/23/22 25/24/21
f 26/25/23 20/19/24 19/26/24
f 22/21/20 27/27/25 26/25/23
f 28/28/26 29/29/21 24/23/22
f 29/29/21 25/24/21 24/23/22
f 25/24/21 30/30/21 23/22/21
f 30/30/21 31/31/21 23/22/21
f 31/31/21 32/32/21 33/33/21
f 32/32/21 34/34/21 35/35/22
f 31/31/21 33/33/21 23/22/21
f 34/34/21 36/36/27 35/35/22
f 35/35/22 33/33/21 32/32/21
f 37/37/28 38/38/29 39/39/28
f 40/40/30 41/41/30 42/42/30
f 43/43/31 42/42/31 44/44/32
f 45/45/33 46/46/33 47/47/33
f 48/48/34 49/49/34 50/50/34
f 51/51/35 52/52/36 37/37/37
f 53/53/38 54/54/38 55/55/38
f 56/56/39 54/54/39 57/57/39
f 58/58/40 59/59/40 60/60/40
f 61/61/41 62/62/42 41/41/42
f 63/63/43 64/64/43 65/65/43
f 66/66/44 46/46/44 67/67/44
f 68/68/45 64/64/45 69/69/45
f 50/50/46 70/70/46 71/71/46
f 72/72/47 62/62/47 73/73/47
f 53/53/48 74/74/48 75/75/48
f 76/76/49 77/77/49 72/72/49
f 78/78/50 79/79/50 80/80/50
f 80/80/51 81/81/51 58/58/51
f 39/39/52 82/82/52 83/83/52
f 39/39/53 44/44/53 84/84/53
f 68/68/54 85/85/54 48/48/54
f 38/38/55 52/52/36 86/86/56
f 71/71/57 74/74/57 87/87/57
f 63/63/58 59/59/58 88/88/58
f 66/66/59 86/86/60 89/89/61
f 56/56/62 90/90/62 76/76/62
f 78/78/63 47/47/63 91/91/63
f 83/83/64 92/92/64 51/51/64
f 60/60/65 63/63/66 65/65/66
f 60/60/65 65/65/66 68/68/67
f 80/80/68 58/58/29 50/50/68
f 58/58/29 60/60/65 48/48/29
f 60/60/65 68/68/67 48/48/29
f 58/58/29 48/48/29 50/50/68
f 71/71/68 87/87/67 78/78/68
f 87/87/67 53/53/28 66/66/29
f 45/45/68 87/87/67 66/66/29
f 55/55/68 56/56/67 76/76/69
f 80/80/68 50/50/68 78/78/68
f 50/50/68 71/71/68 78/78/68
f 55/55/68 76/76/69 72/72/67
f 72/72/67 73/73/70 61/61/65
f 55/55/68 72/72/67 61/61/65
f 45/45/68 78/78/68 87/87/67
f 66/66/29 67/67/71 45/45/68
f 53/53/28 55/55/68 40/40/28
f 55/55/68 61/61/65 40/40/28
f 38/38/29 66/66/29 53/53/28
f 53/53/28 40/40/28 43/43/67
f 39/39/28 83/83/72 37/37/28
f 83/83/72 51/51/28 37/37/28
f 53/53/28 43/43/67 38/38/29
f 43/43/67 39/39/28 38/38/29
f 40/40/30 61/61/30 41/41/30
f 43/43/31 40/40/73 42/42/31
f 45/45/33 67/67/33 46/46/33
f 48/48/34 85/85/34 49/49/34
f 51/51/35 92/92/35 52/52/36
f 53/53/74 75/75/74 54/54/74
f 56/56/39 55/55/39 54/54/39
f 58/58/40 81/81/40 59/59/40
f 61/61/41 73/73/75 62/62/42
f 63/63/43 88/88/43 64/64/43
f 66/66/76 89/89/76 46/46/76
f 68/68/45 65/65/45 64/64/45
f 50/50/46 49/49/46 70/70/46
f 72/72/47 77/77/47 62/62/47
f 53/53/48 87/87/48 74/74/48
f 76/76/77 90/90/77 77/77/77
f 78/78/50 91/91/50 79/79/50
f 80/80/78 79/79/78 81/81/78
f 39/39/79 84/84/79 82/82/79
f 39/39/53 43/43/53 44/44/53
f 68/68/54 69/69/54 85/85/54
f 38/38/55 37/37/37 52/52/36
f 71/71/80 70/70/80 74/74/80
f 63/63/58 60/60/58 59/59/58
f 66/66/59 38/38/81 86/86/60
f 56/56/82 57/57/82 90/90/82
f 78/78/63 45/45/63 47/47/63
f 83/83/64 82/82/64 92/92/64
f 1/1/1 2/8/83 3/2/2
f 5/4/4 6/10/9 7/5/5
f 9/7/7 10/9/7 3/2/7
f 10/9/8 9/7/8 6/10/9
f 11/11/10 12/18/16 13/12/11
f 15/14/13 11/11/10 14/13/12
f 17/16/15 15/14/13 16/15/14
f 12/18/16 1/1/1 4/3/3
f 18/17/17 19/26/18 20/19/18
f 8/6/6 7/5/5 21/20/19
f 26/25/23 27/27/25 20/19/24
f 22/21/20 21/20/19 27/27/25
