# Blender v3.1.2 OBJ File: ''
# www.blender.org
mtllib 27_base.mtl
o buttons.057
v -0.104014 1.036211 -0.202547
v -0.102987 1.030582 -0.196431
v -0.091623 1.027412 -0.201701
v -0.092650 1.033042 -0.207818
v -0.122567 1.043672 -0.191385
v -0.121540 1.038042 -0.185269
v -0.113296 1.034244 -0.190768
v -0.114323 1.039874 -0.196885
v -0.081343 1.030676 -0.212181
v -0.080316 1.025047 -0.206064
v -0.070172 1.023717 -0.209092
v -0.071199 1.029346 -0.215209
v -0.220297 0.935410 -0.272801
v -0.219270 0.929781 -0.266684
v -0.140795 0.905509 -0.305835
v -0.162091 0.910193 -0.297409
v -0.163125 0.915826 -0.303520
v -0.141824 0.911140 -0.311950
v -0.121837 0.902608 -0.311872
v -0.122863 0.908238 -0.317988
v -0.183638 0.916200 -0.287418
v -0.184680 0.921837 -0.293523
v -0.203327 0.922943 -0.276840
v -0.204380 0.928586 -0.282938
v -0.095732 1.027585 -0.211958
v -0.083799 1.025158 -0.216646
v -0.139218 0.916572 -0.307472
v -0.080642 1.024784 -0.217634
v -0.127658 0.914952 -0.311327
v -0.159945 0.921010 -0.299121
v -0.181026 0.926889 -0.289344
v -0.200247 0.933592 -0.279168
v -0.107654 1.030910 -0.206429
v -0.210000 0.937914 -0.273140
v -0.118567 1.034855 -0.200521
v -0.121115 1.036065 -0.198869
v -0.170372 0.951449 -0.268422
v -0.136504 0.955428 -0.271518
v -0.153677 0.961002 -0.262816
v -0.135137 0.967992 -0.270391
v -0.154768 0.966082 -0.268224
v -0.118259 0.991521 -0.241292
v -0.114202 0.989388 -0.254515
v -0.113111 0.984308 -0.249107
v -0.104044 0.999191 -0.236955
v -0.105136 1.004271 -0.242363
v -0.131829 0.995630 -0.234693
v -0.132920 1.000711 -0.240101
v -0.122037 0.968623 -0.262040
v -0.134045 0.962912 -0.264983
v -0.132702 1.006541 -0.224267
v -0.171463 0.956529 -0.273830
v -0.127221 0.951183 -0.277378
v -0.137595 0.960508 -0.276926
v -0.128312 0.956264 -0.282786
v -0.119350 0.996602 -0.246700
v -0.125219 1.003031 -0.229075
v -0.133793 1.011622 -0.229675
v -0.123128 0.973704 -0.267448
v -0.113857 0.997472 -0.236589
v -0.114948 1.002553 -0.241997
v -0.127410 1.006368 -0.235898
v -0.126311 1.008111 -0.234483
v -0.126319 1.001288 -0.230490
vt 0.942289 0.754298
vt 0.939811 0.756629
vt 0.939550 0.754769
vt 0.946659 0.752761
vt 0.945878 0.755406
vt 0.944903 0.753571
vt 0.937113 0.754942
vt 0.934391 0.756571
vt 0.935447 0.754863
vt 0.948246 0.753701
vt 0.946966 0.728646
vt 0.948246 0.727719
vt 0.928947 0.728943
vt 0.934061 0.728494
vt 0.929966 0.730366
vt 0.942790 0.756218
vt 0.925896 0.732271
vt 0.927490 0.732867
vt 0.933538 0.726805
vt 0.938874 0.727501
vt 0.944177 0.725753
vt 0.943626 0.727652
vt 0.937051 0.756826
vt 0.970845 0.179816
vt 0.973072 0.179628
vt 0.975631 0.205543
vt 0.938762 0.725678
vt 0.973632 0.179522
vt 0.977710 0.205208
vt 0.971738 0.205823
vt 0.967633 0.205823
vt 0.963744 0.205543
vt 0.968523 0.179816
vt 0.961672 0.205208
vt 0.966300 0.179628
vt 0.965750 0.179524
vt 0.952045 0.791360
vt 0.956884 0.790106
vt 0.954189 0.793149
vt 0.958206 0.792195
vt 0.955289 0.793997
vt 0.954584 0.803617
vt 0.956235 0.804441
vt 0.955247 0.804347
vt 0.954647 0.804907
vt 0.954568 0.805541
vt 0.952850 0.802066
vt 0.954155 0.801652
vt 0.958731 0.790698
vt 0.957522 0.791275
vt 0.951562 0.803120
vt 0.950567 0.790413
vt 0.957863 0.789565
vt 0.956488 0.788918
vt 0.958311 0.788708
vt 0.955332 0.803089
vt 0.952083 0.803528
vt 0.950567 0.803712
vt 0.959481 0.790858
vt 0.954170 0.804423
vt 0.953810 0.805078
vt 0.952226 0.804472
vt 0.951843 0.804394
vt 0.952409 0.803411
vn 0.4896 0.6810 0.5446
vn 0.4163 0.7028 0.5769
vn 0.4153 0.7030 0.5773
vn 0.6102 0.6313 0.4787
vn 0.5700 0.6500 0.5026
vn 0.5680 0.6509 0.5037
vn 0.3297 0.7216 0.6087
vn 0.2818 0.7292 0.6237
vn -0.8009 0.3675 0.4728
vn -0.8009 0.3675 0.4727
vn -0.3486 -0.7180 -0.6025
vn -0.4209 -0.7014 -0.5753
vn -0.3480 -0.7181 -0.6027
vn 0.4910 0.6805 0.5439
vn -0.3072 -0.7253 -0.6161
vn -0.4217 -0.7011 -0.5750
vn -0.4844 -0.6824 -0.5474
vn -0.5535 -0.6568 -0.5122
vn -0.5885 -0.6417 -0.4918
vn -0.5519 -0.6574 -0.5130
vn 0.3304 0.7215 0.6085
vn 0.9430 -0.1505 -0.2967
vn 0.9430 -0.1504 -0.2968
vn -0.1455 0.6774 -0.7211
vn -0.4855 -0.6820 -0.5469
vn -0.1454 0.6774 -0.7211
vn -0.1453 0.6772 -0.7213
vn -0.1457 0.6775 -0.7209
vn 0.1455 -0.6774 0.7211
vn 0.0046 0.7293 0.6842
vn -0.2285 0.6861 0.6907
vn -0.8883 -0.4104 -0.2063
vn 0.8926 -0.2245 -0.3910
vn 0.8926 -0.2244 -0.3911
vn 0.8862 -0.2348 -0.3994
vn -0.4488 0.6043 0.6583
vn -0.8702 0.2592 0.4190
vn -0.5973 -0.6411 -0.4818
vn -0.5973 -0.6412 -0.4818
vn -0.5973 -0.6411 -0.4819
vn -0.4753 -0.6870 -0.5496
vn 0.0226 -0.7264 -0.6869
vn 0.6053 0.6374 0.4767
vn 0.9651 -0.0633 -0.2542
vn -0.0994 0.7151 0.6919
vn 0.8862 -0.2349 -0.3994
vn 0.8862 -0.2347 -0.3994
vn 0.8863 -0.2346 -0.3994
vn 0.4783 0.6862 0.5481
vn 0.4783 0.6861 0.5481
vn 0.1455 -0.6774 0.7210
vn 0.1455 -0.6775 0.7210
vn 0.1456 -0.6774 0.7211
vn 0.1454 -0.6774 0.7211
vn 0.6054 0.6375 0.4766
vn -0.0995 0.7151 0.6919
vn 0.8861 -0.2350 -0.3994
vn -0.5885 -0.6418 -0.4917
usemtl dhd.027
s 1
f 1/1/1 3/2/2 4/3/3
f 5/4/4 7/5/5 8/6/6
f 9/7/7 11/8/8 12/9/8
f 6/10/9 13/11/10 14/12/10
f 15/13/11 17/14/12 18/15/13
f 8/6/6 2/16/14 1/1/1
f 19/17/15 18/15/13 20/18/15
f 16/19/16 22/20/17 17/14/12
f 23/21/18 13/11/19 24/22/20
f 4/3/3 10/23/21 9/7/7
f 20/18/22 11/8/23 19/17/22
f 25/24/24 26/25/24 27/26/24
f 21/27/25 24/22/20 22/20/17
f 28/28/26 29/29/24 26/25/24
f 29/29/24 27/26/24 26/25/24
f 27/26/24 30/30/24 25/24/24
f 30/30/24 31/31/24 25/24/24
f 31/31/24 32/32/24 33/33/24
f 32/32/24 34/34/24 35/35/27
f 31/31/24 33/33/24 25/24/24
f 34/34/24 36/36/28 35/35/27
f 35/35/27 33/33/24 32/32/24
f 37/37/29 38/38/29 39/39/29
f 39/39/30 40/40/31 41/41/30
f 42/42/32 43/43/32 44/44/32
f 45/45/33 43/43/33 46/46/34
f 47/47/35 41/41/35 48/48/35
f 49/49/36 40/40/31 50/50/31
f 51/51/37 52/52/37 37/37/37
f 53/53/38 54/54/39 55/55/40
f 47/47/41 56/56/41 42/42/41
f 38/38/42 52/52/42 54/54/42
f 57/57/43 58/58/43 51/51/43
f 49/49/44 55/55/44 59/59/44
f 60/60/45 46/46/45 61/61/45
f 57/57/46 62/62/47 63/63/48
f 64/64/49 61/61/50 62/62/49
f 42/42/29 44/44/29 45/45/51
f 42/42/29 45/45/51 60/60/52
f 47/47/29 42/42/29 64/64/53
f 42/42/29 60/60/52 64/64/53
f 64/64/53 57/57/53 51/51/29
f 47/47/29 64/64/53 51/51/29
f 38/38/29 53/53/54 50/50/29
f 53/53/54 49/49/54 50/50/29
f 47/47/29 51/51/29 39/39/29
f 51/51/29 37/37/29 39/39/29
f 38/38/29 50/50/29 39/39/29
f 39/39/30 50/50/31 40/40/31
f 42/42/32 56/56/32 43/43/32
f 45/45/33 44/44/33 43/43/33
f 47/47/35 39/39/35 41/41/35
f 49/49/36 59/59/36 40/40/31
f 51/51/37 58/58/37 52/52/37
f 53/53/38 38/38/39 54/54/39
f 47/47/41 48/48/41 56/56/41
f 38/38/42 37/37/42 52/52/42
f 57/57/55 63/63/55 58/58/55
f 49/49/44 53/53/44 55/55/44
f 60/60/45 45/45/56 46/46/45
f 57/57/46 64/64/57 62/62/47
f 64/64/49 60/60/50 61/61/50
f 1/1/1 2/16/14 3/2/2
f 5/4/4 6/10/4 7/5/5
f 9/7/7 10/23/21 11/8/8
f 6/10/9 5/4/9 13/11/10
f 15/13/11 16/19/16 17/14/12
f 8/6/6 7/5/5 2/16/14
f 19/17/15 15/13/11 18/15/13
f 16/19/16 21/27/25 22/20/17
f 23/21/18 14/12/58 13/11/19
f 4/3/3 3/2/2 10/23/21
f 20/18/22 12/9/23 11/8/23
f 21/27/25 23/21/18 24/22/20
