# WaveFront *.obj file (generated by Cinema 4D)

mtllib ./28.mtl

v -0.02902100048959 1.01702797412872 -0.22951300442219
v -0.02817099913955 1.02282297611237 -0.22481000423431
v -0.01586700044572 1.02248799800873 -0.22579699754715
v -0.01602499932051 1.01674497127533 -0.23063600063324
v -0.07275900244713 0.89987099170685 -0.33005300164223
v -0.09546600282192 0.90297198295593 -0.32553198933601
v -0.0934439972043 0.90850800275803 -0.32088199257851
v -0.07131099700928 0.90536099672318 -0.32514399290085
v -0.04858399927616 0.89779198169708 -0.33351001143456
v -0.04766799882054 0.90332800149918 -0.32852500677109
v -0.05285599827766 1.02567005157471 -0.22050699591637
v -0.04091700166464 1.0239189863205 -0.22298799455166
v -0.04239200055599 1.01817798614502 -0.22760100662708
v -0.0550180003047 1.02009904384613 -0.22505900263786
v -0.01270100008696 1.01692795753479 -0.23069700598717
v -0.00520800007507 0.89739602804184 -0.33601799607277
v -0.01271999999881 0.9030510187149 -0.33111599087715
v -0.10506899654865 0.91099101305008 -0.31791099905968
v -0.11448299884796 0.9067929983139 -0.32039099931717
v -0.05809000134468 1.02082598209381 -0.22421100735664
v -0.02530699968338 0.8969389796257 -0.33556601405144
v -0.02499799989164 0.90262198448181 -0.33066999912262
v -0.00520800007507 1.0229469537735 -0.22585000097752
v -0.06281899660826 1.02790200710297 -0.21761099994183
v -0.04427399858832 0.96301299333572 -0.28613299131393
v -0.0397940017283 0.96526801586151 -0.2844449877739
v -0.03584200143814 0.95990300178528 -0.28944200277328
v -0.04936333373189 0.95280015468597 -0.2947970032692
v -0.07131099700928 0.93875199556351 -0.30571100115776
v -0.02952899970114 0.93920600414276 -0.30811700224876
v -0.05340399965644 0.9894580245018 -0.26219999790192
v -0.07239100337029 0.99433898925781 -0.25661998987198
v -0.06630899757147 0.98448199033737 -0.26572099328041
v -0.06161599978805 0.9737840294838 -0.27546998858452
v -0.05470599979162 0.96333700418472 -0.28514701128006
v -0.06339400261641 0.96139800548553 -0.28627198934555
v -0.02115700021386 0.9818559885025 -0.27107000350952
v -0.02637699991465 0.96992099285126 -0.2812440097332
v -0.0300820004195 0.97698199748993 -0.27476799488068
v -0.03388100117445 0.97011697292328 -0.28056699037552
v -0.0344830006361 0.99112898111343 -0.26199701428413
v -0.01614799909294 0.98590302467346 -0.26783800125122
v -0.02855399996042 0.98308098316193 -0.26949200034142
v -0.07238599658012 0.97349900007248 -0.27499800920486
# 44 vertices

vn -0.04896875098348 0.64168751239777 -0.76537501811981
vn -0.04234375059605 0.64409375190735 -0.7637500166893
vn -0.05209375172853 0.63659375905991 -0.76950001716614
vn -0.05065625160933 0.66815626621246 -0.7421875
vn -0.05346874892712 0.65859377384186 -0.75056248903275
vn -0.04675000160933 0.66784375905991 -0.74274998903275
vn -0.05925000086427 0.64256250858307 -0.76387500762939
vn -0.05828125029802 0.63706248998642 -0.76856249570847
vn -0.06465625017881 0.64600002765656 -0.76059377193451
vn -0.01374999992549 0.64865624904633 -0.7608437538147
vn -0.01315625011921 0.64600002765656 -0.76318752765656
vn -0.0415625013411 0.65328127145767 -0.75596874952316
vn -0.09015624970198 0.6552500128746 -0.75
vn -0.05828125029802 0.6553750038147 -0.75309377908707
vn -0.06165625154972 0.65484374761581 -0.75315624475479
vn -0.09175000339746 0.65275001525879 -0.75196874141693
vn -0.04800000041723 0.65818750858307 -0.75128126144409
vn -0.0447500012815 0.65428125858307 -0.75487500429153
vn -0.0376562513411 0.65474998950958 -0.75487500429153
vn -0.06484375149012 0.65709376335144 -0.75096875429153
vn -0.0502500012517 0.66056251525879 -0.74909377098084
vn -0.05034374818206 0.66056251525879 -0.74909377098084
vn -0.05028124898672 0.66056251525879 -0.74909377098084
vn -0.05209375172853 0.63659375905991 -0.76937502622604
vn -0.05034374818206 0.66046875715256 -0.74909377098084
# 25 normals

vt 0.59349298477173 0.12753105163574 0
vt 0.58848702907562 0.09081399440765 0
vt 0.52934896945953 0.1329540014267 0
vt 0 1 0
vt 0.4368399977684 0.88197499513626 0
vt 0.32485300302505 0.87387597560883 0
vt 0.43550395965576 0.9189829826355 0
vt 0.55509102344513 0.88197499513626 0
vt 0.55642592906952 0.91898399591446 0
vt 0.39846301078796 0.1275280714035 0
vt 0.46247398853302 0.13295304775238 0
vt 0.40349000692368 0.09081399440765 0
vt 0.46404200792313 0.09593200683594 0
vt 0.72706294059753 0.86420100927353 0
vt 0.76945197582245 0.89486199617386 0
vt 0.60963499546051 0.12448406219482 0
vt 0.26519095897675 0.86421400308609 0
vt 0.32054698467255 0.91066896915436 0
vt 0.38261699676514 0.12452006340027 0
vt 0.22280299663544 0.89486402273178 0
vt 0.66719794273376 0.87387502193451 0
vt 0.67149698734283 0.91066801548004 0
vt 0.64020395278931 0.08106207847595 0
vt 0.35205399990082 0.08106303215027 0
vt 0.50608801841736 0.72007602453232 0
vt 0.48850101232529 0.68971800804138 0
vt 0.46997201442719 0.70210599899292 0
vt 0.45020216703415 0.75912618637085 0
vt 0.52778601646423 0.09593105316162 0
vt 0.42587697505951 0.69965302944183 0
vt 0.38953095674515 0.71000403165817 0
vt 0.52753293514252 0.62455499172211 0
vt 0.54436099529266 0.66441702842712 0
vt 0.56439101696014 0.59773999452591 0
vt 0.51264894008636 0.66285902261734 0
vt 0.53295993804932 0.59040802717209 0
vt 0.58485591411591 0.57532602548599 0
vt 0.50657999515533 0.54486900568008 0
vt 0.39495396614075 0.64058601856232 0
vt 0.3495369553566 0.64153003692627 0
vt 0.37334799766541 0.58024704456329 0
vt 0.42698699235916 0.55309700965881 0
vt 0.3460179567337 0.52454203367233 0
vt 0.3599140048027 0.83664798736572 0
vt 0.53621292114258 0.83664798736572 0
# 45 texture coordinates

o buttons.022
usemtl dhd_button_light.018
f 1/3/3 3/2/2 4/1/1
f 5/7/4 7/6/5 8/5/4
f 9/9/6 8/5/4 10/8/6
f 11/12/9 13/11/8 14/10/7
f 12/13/8 1/3/3 13/11/8
f 15/16/12 16/15/11 17/14/10
f 6/18/14 18/17/13 7/6/5
f 19/20/16 20/19/15 18/17/13
f 17/14/10 21/22/18 22/21/17
f 3/2/2 15/16/12 4/1/1
f 20/19/15 11/12/9 14/10/7
f 22/21/17 9/9/6 10/8/6
f 15/16/12 23/23/19 16/15/11
f 6/18/14 19/20/16 18/17/13
f 19/20/16 24/24/20 20/19/15
f 17/14/10 16/15/11 21/22/18
f 3/2/2 23/23/19 15/16/12
f 20/19/15 24/24/20 11/12/9
f 25/27/21 26/26/22 27/25/21
f 22/21/17 21/22/18 9/9/6
f 27/25/21 28/28/23 25/27/21
f 12/13/8 2/29/24 1/3/3
f 11/12/9 12/13/8 13/11/8
f 28/28/23 36/31/25 35/30/25
f 9/9/6 5/7/4 8/5/4
f 37/34/22 38/33/21 39/32/22
f 38/33/21 27/25/21 40/35/21
f 41/38/25 42/37/22 43/36/22
f 42/37/22 37/34/22 43/36/22
f 36/31/25 44/40/21 34/39/21
f 44/40/21 33/41/21 34/39/21
f 33/41/21 32/43/21 31/42/21
f 33/41/21 31/42/21 34/39/21
f 39/32/22 43/36/22 37/34/22
f 40/35/21 39/32/22 38/33/21
f 36/31/25 34/39/21 35/30/25
f 26/26/22 40/35/21 27/25/21
f 28/28/23 35/30/25 25/27/21
f 5/7/4 6/18/14 7/6/5
f 1/3/3 2/29/24 3/2/2
f 29/44/21 36/31/25 28/28/23
f 28/28/23 27/25/21 30/45/21
f 29/44/21 28/28/23 30/45/21

