# WaveFront *.obj file (generated by Cinema 4D)

mtllib ./28_base.mtl

v -0.02817099913955 1.02282297611237 -0.22481000423431
v -0.02796000055969 1.01730000972748 -0.21851700544357
v -0.01565600000322 1.01696503162384 -0.21950300037861
v -0.01586700044572 1.02248799800873 -0.22579699754715
v -0.05285599827766 1.02567005157471 -0.22050699591637
v -0.05264500156045 1.02014601230621 -0.21421299874783
v -0.04070600122213 1.01839601993561 -0.21669399738312
v -0.04091700166464 1.0239189863205 -0.22298799455166
v -0.06260800361633 1.02237796783447 -0.21131800115108
v -0.06281899660826 1.02790200710297 -0.21761099994183
v -0.11448299884796 0.9067929983139 -0.32039099931717
v -0.11427199840546 0.90126997232437 -0.31409698724747
v -0.00499700009823 1.01742398738861 -0.21955700218678
v -0.00520800007507 1.0229469537735 -0.22585000097752
v -0.02509400062263 0.89141499996185 -0.32927298545837
v -0.0483639985323 0.89226597547531 -0.32721900939941
v -0.04858399927616 0.89779198169708 -0.33351001143456
v -0.02530699968338 0.8969389796257 -0.33556601405144
v -0.0725290030241 0.8943430185318 -0.32376599311829
v -0.09522300213575 0.89744102954864 -0.3192490041256
v -0.09546600282192 0.90297198295593 -0.32553198933601
v -0.07275900244713 0.89987099170685 -0.33005300164223
v -0.00520800007507 0.89739602804184 -0.33601799607277
v -0.00499700009823 0.89187300205231 -0.32972401380539
v -0.02902100048959 1.01702797412872 -0.22951300442219
v -0.01602499932051 1.01674497127533 -0.23063600063324
v -0.02499799989164 0.90262198448181 -0.33066999912262
v -0.01270100008696 1.01692795753479 -0.23069700598717
v -0.01271999999881 0.9030510187149 -0.33111599087715
v -0.04766799882054 0.90332800149918 -0.32852500677109
v -0.07131099700928 0.90536099672318 -0.32514399290085
v -0.0934439972043 0.90850800275803 -0.32088199257851
v -0.04239200055599 1.01817798614502 -0.22760100662708
v -0.10506899654865 0.91099101305008 -0.31791099905968
v -0.0550180003047 1.02009904384613 -0.22505900263786
v -0.05809000134468 1.02082598209381 -0.22421100735664
v -0.05432900041342 0.9583820104599 -0.27952900528908
v -0.06123900040984 0.96882897615433 -0.26985201239586
v -0.06301599740982 0.95644402503967 -0.28065401315689
v -0.07093299925327 0.93379801511765 -0.30009201169014
v -0.02915100008249 0.9342520236969 -0.30249899625778
v -0.05959299951792 0.93989098072052 -0.29548099637032
v -0.02970499917865 0.97202801704407 -0.26914998888969
v -0.03388100117445 0.97011697292328 -0.28056699037552
v -0.03350400179625 0.96516299247742 -0.27494901418686
v -0.05537300184369 0.95196199417114 -0.28512099385262
v -0.06593099981546 0.97952699661255 -0.26010298728943
v -0.05238199979067 0.95209497213364 -0.28520399332047
v -0.04389600083232 0.95805901288986 -0.28051498532295
v -0.04549900069833 0.95188099145889 -0.2858549952507
v -0.025999000296 0.9649670124054 -0.27562600374222
v -0.03584200143814 0.95990300178528 -0.28944200277328
v -0.02637699991465 0.96992099285126 -0.2812440097332
v -0.05302700027823 0.98450398445129 -0.25658199191093
v -0.07239100337029 0.99433898925781 -0.25661998987198
v -0.0720129981637 0.98938399553299 -0.25100201368332
v -0.07200899720192 0.96854400634766 -0.26938000321388
v -0.06630899757147 0.98448199033737 -0.26572099328041
v -0.07238599658012 0.97349900007248 -0.27499800920486
v -0.05340399965644 0.9894580245018 -0.26219999790192
v -0.02115700021386 0.9818559885025 -0.27107000350952
v -0.02077900059521 0.97690099477768 -0.26545199751854
v -0.04427399858832 0.96301299333572 -0.28613299131393
v -0.05470599979162 0.96333700418472 -0.28514701128006
v -0.03410499915481 0.98617500066757 -0.25637900829315
v -0.01614799909294 0.98590302467346 -0.26783800125122
v -0.0344830006361 0.99112898111343 -0.26199701428413
v -0.06339400261641 0.96139800548553 -0.28627198934555
v -0.07131099700928 0.93875199556351 -0.30571100115776
v -0.03546399995685 0.95494902133942 -0.2838239967823
v -0.02952899970114 0.93920600414276 -0.30811700224876
v -0.06161599978805 0.9737840294838 -0.27546998858452
v -0.04221399873495 0.95113098621368 -0.28673699498177
v -0.03885399922729 0.94011598825455 -0.29667600989342
v -0.01576999947429 0.98094797134399 -0.26221999526024
v -0.02855399996042 0.98308098316193 -0.26949200034142
v -0.0300820004195 0.97698199748993 -0.27476799488068
v -0.0397940017283 0.96526801586151 -0.2844449877739
v -0.0394169986248 0.960313975811 -0.27882701158524
v -0.02817600034177 0.97812700271606 -0.26387399435043
# 80 vertices

vn 0.02168750017881 0.75174999237061 0.65896874666214
vn 0.02250000089407 0.75174999237061 0.65896874666214
vn 0.1143437474966 0.74856251478195 0.65309375524521
vn 0.19768750667572 0.74009376764297 0.64278125762939
vn 0.19915625452995 0.73987501859665 0.64256250858307
vn 0.2881875038147 0.72450000047684 0.62618750333786
vn -0.95059376955032 0.21687500178814 0.22218750417233
vn 0.11556249856949 0.74846875667572 0.65296876430511
vn -0.02896874956787 0.75075000524521 0.65984374284744
vn -0.04125000163913 -0.75159376859665 -0.6582812666893
vn -0.12065625190735 -0.74784374237061 -0.65265625715256
vn -0.04184374958277 -0.75159376859665 -0.6582812666893
vn -0.19156250357628 -0.74056249856949 -0.64409375190735
vn -0.26918751001358 -0.72796875238419 -0.63050001859665
vn -0.19275000691414 -0.74034374952316 -0.64396876096725
vn 0.29046875238419 0.72396874427795 0.62565624713898
vn 0.33815625309944 0.71278125047684 0.61434376239777
vn 0.99965626001358 0.01659375056624 -0.01884374953806
vn 0.00224999990314 -0.75159376859665 -0.65959376096725
vn -0.12156250327826 -0.74778127670288 -0.65265625715256
vn -0.31237500905991 -0.71906250715256 -0.62065625190735
vn -0.27106249332428 -0.72765624523163 -0.63009375333786
vn -0.0502500012517 0.66056251525879 -0.74909377098084
vn -0.05015625059605 0.66056251525879 -0.74909377098084
vn -0.0500624999404 0.66056251525879 -0.74909377098084
vn -0.05034374818206 0.66056251525879 -0.74909377098084
vn -0.05034374818206 0.66056251525879 -0.7490000128746
vn 0.05034374818206 -0.66056251525879 0.74909377098084
vn 0.0502500012517 -0.66056251525879 0.74909377098084
vn -0.83465623855591 0.38409376144409 0.39468750357628
vn -0.95584374666214 0.18546874821186 0.22778125107288
vn -0.31237500905991 -0.71915626525879 -0.62056249380112
vn 0.88715624809265 -0.31465625762939 -0.33715623617172
vn 0.80565625429153 -0.41637501120567 -0.4213750064373
vn 0.36018750071526 0.71146875619888 0.60328125953674
vn -0.91968750953674 0.26175001263618 0.29256251454353
vn -0.91968750953674 0.26165625452995 0.29268750548363
vn -0.91968750953674 0.26165625452995 0.29256251454353
vn 0.8535937666893 -0.36078125238419 -0.37568750977516
vn 0.85356247425079 -0.36087501049042 -0.37568750977516
vn 0.08528125286102 0.75009375810623 0.65578126907349
vn 0.08518750220537 0.75009375810623 0.65578126907349
vn 0.3897500038147 0.70356249809265 0.59415626525879
vn 0.3897500038147 0.70346873998642 0.59415626525879
vn -0.96525001525879 0.1603437513113 0.20624999701977
vn -0.96525001525879 0.16028125584126 0.20624999701977
vn 0.97396874427795 0.19837500154972 0.109375
vn 0.89828127622604 0.35768750309944 0.25518751144409
vn -0.95584374666214 0.18546874821186 0.22765624523163
vn -0.98118752241135 0.10709375143051 0.1603437513113
vn -0.63106250762939 0.56028127670288 0.53634375333786
vn -0.63106250762939 0.56028127670288 0.53646874427795
vn -0.02984374947846 -0.75065624713898 -0.66000002622604
vn -0.87878125905991 -0.38568750023842 -0.28096875548363
vn -0.87706249952316 -0.38800001144409 -0.28309375047684
vn -0.87706249952316 -0.38784375786781 -0.28318750858307
vn -0.87706249952316 -0.38800001144409 -0.28318750858307
vn 0.71700000762939 -0.49809375405312 -0.48756250739098
vn 0.8535937666893 -0.36087501049042 -0.37559375166893
vn 0.92718750238419 -0.24796874821186 -0.28084376454353
vn -0.52996873855591 0.61796873807907 0.58068752288818
vn -0.90937501192093 -0.34037500619888 -0.238968744874
vn 0.05034374818206 -0.66046875715256 0.74909377098084
vn 0.0502500012517 -0.66046875715256 0.74909377098084
vn 0.36018750071526 0.71156251430511 0.60328125953674
vn -0.91968750953674 0.26187500357628 0.29234373569489
vn 0.08518750220537 0.75018751621246 0.65568751096725
vn 0.38984376192093 0.70346873998642 0.59415626525879
vn -0.98118752241135 0.10709375143051 0.16050000488758
vn -0.02978125028312 -0.75075000524521 -0.65984374284744
vn -0.87706249952316 -0.38784375786781 -0.28325000405312
vn 0.92718750238419 -0.24787500500679 -0.28084376454353
vn -0.52984374761581 0.6180624961853 0.58059376478195
# 73 normals

vt 0.93702900409698 0.69409400224686 0
vt 0.93709099292755 0.6922100186348 0
vt 0.9345920085907 0.69426703453064 0
vt 0 1 0
vt 0.93185293674469 0.69473803043365 0
vt 0.93135201931 0.69281798601151 0
vt 0.92923891544342 0.69546502828598 0
vt 0.92589592933655 0.72131699323654 0
vt 0.92717599868774 0.72039002180099 0
vt 0.92589592933655 0.69533503055573 0
vt 0.93433094024658 0.69240701198578 0
vt 0.93869495391846 0.69417202472687 0
vt 0.93975102901459 0.69246399402618 0
vt 0.94417595863342 0.71866899728775 0
vt 0.94008100032806 0.72054201364517 0
vt 0.9451949596405 0.72009301185608 0
vt 0.93526792526245 0.72153502702713 0
vt 0.93051695823669 0.72138398885727 0
vt 0.93537998199463 0.72335702180862 0
vt 0.92826402187347 0.69362902641296 0
vt 0.92748296260834 0.69627404212952 0
vt 0.94824600219727 0.71676403284073 0
vt 0.94665193557739 0.71616899967194 0
vt 0.94060397148132 0.72223103046417 0
vt 0.92996501922607 0.7232820391655 0
vt 0.96443796157837 0.50000202655792 0
vt 0.96699702739716 0.5259160399437 0
vt 0.96922397613525 0.52572798728943 0
vt 0.9623589515686 0.50033700466156 0
vt 0.96643602848053 0.52602201700211 0
vt 0.96833002567291 0.49972105026245 0
vt 0.97243595123291 0.49972105026245 0
vt 0.97154593467712 0.52572798728943 0
vt 0.97632396221161 0.50000202655792 0
vt 0.97376799583435 0.5259160399437 0
vt 0.97839593887329 0.5003359913826 0
vt 0.97431802749634 0.52602100372314 0
vt 0.9686039686203 0.79322201013565 0
vt 0.96528196334839 0.79233598709106 0
vt 0.96762895584106 0.79482197761536 0
vt 0.97203493118286 0.79487901926041 0
vt 0.97292792797089 0.79811900854111 0
vt 0.97314894199371 0.79391300678253 0
vt 0.9662150144577 0.79976403713226 0
vt 0.96519100666046 0.79891002178192 0
vt 0.96493995189667 0.80097603797913 0
vt 0.96746098995209 0.80199098587036 0
vt 0.96960699558258 0.80018496513367 0
vt 0.96662795543671 0.80100202560425 0
vt 0.96268796920776 0.78952097892761 0
vt 0.96180200576782 0.78874003887177 0
vt 0.96263301372528 0.79080301523209 0
vt 0.96679401397705 0.78982001543045 0
vt 0.9643679857254 0.78870797157288 0
vt 0.96614491939545 0.79080599546432 0
vt 0.96456301212311 0.80270200967789 0
vt 0.96529293060303 0.80379700660706 0
vt 0.96606194972992 0.79536801576614 0
vt 0.96622800827026 0.79702800512314 0
vt 0.96180200576782 0.80262899398804 0
vt 0.96417701244354 0.80451703071594 0
vt 0.96296501159668 0.8026750087738 0
vt 0.97403502464294 0.79318797588348 0
vt 0.96929895877838 0.79181301593781 0
vt 0.97411596775055 0.79899597167969 0
vt 0.96890997886658 0.79893398284912 0
vt 0.96445393562317 0.79319298267364 0
vt 0.9640519618988 0.80006700754166 0
vt 0.96306598186493 0.80099904537201 0
vt 0.9672189950943 0.79836601018906 0
vt 0.96596097946167 0.79778701066971 0
vt 0.9639139175415 0.80178904533386 0
vt 0.96407794952393 0.80318903923035 0
vt 0.96188199520111 0.79128301143646 0
vt 0.96756792068481 0.79728996753693 0
vt 0.96399700641632 0.79001599550247 0
vt 0.96962201595306 0.79749900102615 0
vt 0.96931898593903 0.79687404632568 0
vt 0.96948397159576 0.79499304294586 0
vt 0.96933102607727 0.79554599523544 0
vt 0.97214901447296 0.79744100570679 0
# 81 texture coordinates

o buttons.058
usemtl dhd.026
f 1/3/3 3/2/2 4/1/1
f 5/7/6 7/6/5 8/5/4
f 9/10/7 11/9/7 12/8/7
f 8/5/4 2/11/8 1/3/3
f 4/1/1 13/13/9 14/12/9
f 15/16/12 17/15/11 18/14/10
f 19/19/15 21/18/14 22/17/13
f 10/21/17 6/20/16 5/7/6
f 23/23/18 13/13/18 24/22/18
f 24/22/19 18/14/10 23/23/19
f 16/24/20 22/17/13 17/15/11
f 20/25/22 11/9/21 21/18/14
f 25/28/23 26/27/24 27/26/23
f 28/30/25 29/29/23 26/27/24
f 29/29/23 27/26/23 26/27/24
f 27/26/23 30/31/23 25/28/23
f 30/31/23 31/32/23 25/28/23
f 31/32/23 32/34/23 33/33/23
f 32/34/23 34/36/23 35/35/26
f 31/32/23 33/33/23 25/28/23
f 34/36/23 36/37/27 35/35/26
f 35/35/26 33/33/23 32/34/23
f 37/40/29 38/39/29 39/38/28
f 40/43/29 41/42/29 42/41/29
f 43/46/31 44/45/30 45/44/30
f 20/25/22 12/8/32 11/9/21
f 16/24/20 19/19/15 22/17/13
f 51/49/33 52/48/34 53/47/33
f 54/52/35 55/51/35 56/50/35
f 57/55/38 58/54/37 59/53/36
f 24/22/19 15/16/12 18/14/10
f 51/49/33 61/57/40 62/56/39
f 37/40/42 63/59/42 64/58/41
f 65/62/44 66/61/44 67/60/43
f 40/43/45 68/64/46 69/63/45
f 70/66/47 71/65/47 52/48/47
f 37/40/48 72/67/48 38/39/48
f 23/23/18 14/12/18 13/13/18
f 43/46/31 76/69/50 77/68/49
f 45/44/30 78/71/52 79/70/51
f 40/43/53 71/65/53 41/42/53
f 80/72/54 67/60/54 76/69/54
f 39/38/57 59/53/56 68/64/55
f 62/56/59 66/61/58 75/73/58
f 10/21/17 9/10/17 6/20/16
f 38/39/60 60/74/60 54/52/60
f 19/19/15 20/25/22 21/18/14
f 79/70/52 63/59/61 49/75/61
f 56/50/62 58/54/62 47/76/62
f 50/78/64 73/77/63 49/75/29
f 73/77/63 70/66/29 49/75/29
f 70/66/29 51/49/29 45/44/29
f 51/49/29 62/56/29 43/46/29
f 45/44/29 51/49/29 43/46/29
f 62/56/29 75/73/64 80/72/29
f 75/73/64 65/62/29 80/72/29
f 39/38/28 46/79/29 37/40/29
f 46/79/29 48/80/29 37/40/29
f 62/56/29 80/72/29 43/46/29
f 48/80/29 50/78/64 49/75/29
f 37/40/29 48/80/29 49/75/29
f 47/76/28 57/55/29 38/39/29
f 57/55/29 39/38/28 38/39/29
f 54/52/63 56/50/63 47/76/28
f 38/39/29 54/52/63 47/76/28
f 70/66/29 45/44/29 79/70/28
f 70/66/29 79/70/28 49/75/29
f 42/41/29 46/79/29 39/38/28
f 41/42/29 70/66/29 74/81/29
f 70/66/29 73/77/63 74/81/29
f 42/41/29 39/38/28 40/43/29
f 41/42/29 74/81/29 42/41/29
f 43/46/31 77/68/49 44/45/30
f 15/16/12 16/24/20 17/15/11
f 4/1/1 3/2/2 13/13/9
f 51/49/33 70/66/34 52/48/34
f 54/52/65 60/74/65 55/51/65
f 57/55/38 47/76/66 58/54/37
f 8/5/4 7/6/5 2/11/8
f 51/49/33 53/47/33 61/57/40
f 37/40/42 49/75/67 63/59/42
f 65/62/44 75/73/68 66/61/44
f 40/43/45 39/38/46 68/64/46
f 70/66/47 41/42/47 71/65/47
f 37/40/48 64/58/48 72/67/48
f 9/10/7 10/21/7 11/9/7
f 43/46/31 80/72/69 76/69/50
f 45/44/30 44/45/30 78/71/52
f 40/43/70 69/63/70 71/65/70
f 80/72/54 65/62/54 67/60/54
f 39/38/57 57/55/71 59/53/56
f 62/56/39 61/57/40 66/61/58
f 5/7/6 6/20/16 7/6/5
f 38/39/72 72/67/72 60/74/72
f 1/3/3 2/11/8 3/2/2
f 79/70/51 78/71/52 63/59/73
f 56/50/62 55/51/62 58/54/62

