# WaveFront *.obj file (generated by Cinema 4D)

mtllib ./29.mtl

v 0.02368500083685 0.89697098731995 -0.33551299571991
v 0.0111400000751 0.90308600664139 -0.33105900883675
v 0.02337699942291 0.90265500545502 -0.33061701059341
v 0.04072599858046 1.01820695400238 -0.22755399346352
v 0.0392509996891 1.02394795417786 -0.22294099628925
v 0.05121999979019 1.02569997310638 -0.22045600414276
v 0.05337800085545 1.02012896537781 -0.2250089943409
v 0.05650800094008 1.02086794376373 -0.22414700686932
v 0.11290299892426 0.90682899951935 -0.32033199071884
v 0.10348799824715 0.9110289812088 -0.31785100698471
v 0.00362799991854 0.89743202924728 -0.33595898747444
v 0.01112100016326 1.01695895195007 -0.230643004179
v 0.09384399652481 0.90300500392914 -0.32547900080681
v 0.09182299673557 0.90854102373123 -0.3208290040493
v 0.01423100009561 1.02251994609833 -0.22574500739574
v 0.01438399963081 1.01677703857422 -0.23058499395847
v 0.0265059992671 1.02285194396973 -0.22476300597191
v 0.0273550003767 1.01705694198608 -0.22946600615978
v 0.04693900048733 0.89782202243805 -0.33346000313759
v 0.04602399840951 0.9033579826355 -0.32847499847412
v 0.07111400365829 0.89990097284317 -0.33000299334526
v 0.06966599822044 0.9053909778595 -0.3250940144062
v 0.06123900040984 1.02793800830841 -0.21755200624466
v 0.00362799991854 1.02298295497894 -0.22579100728035
v 0.0679079964757 0.9415420293808 -0.30334600806236
v 0.05958599969745 0.93846100568771 -0.30662199854851
v 0.05743600055575 0.944669008255 -0.30129200220108
v 0.0417059995234 0.99483001232147 -0.25811499357224
v 0.05164140090346 0.98423838615417 -0.26678740978241
v 0.0281690005213 0.95326501131058 -0.29567700624466
v 0.04236999899149 0.9838479757309 -0.26775398850441
v 0.06580299884081 0.983039021492 -0.26689401268959
v 0.04286900162697 0.955825984478 -0.2924320101738
v 0.03456500172615 0.95973801612854 -0.28953900933266
v 0.05295399948955 0.97931200265884 -0.27104300260544
v 0.0610839985311 0.97730898857117 -0.2722629904747
v 0.06454899907112 0.97294497489929 -0.27587899565697
v 0.05762799829245 0.97123599052429 -0.27785098552704
v 0.06718499958515 0.96695899963379 -0.28098100423813
v 0.06901700049639 0.96112602949142 -0.28600099682808
v 0.06095499917865 0.95566201210022 -0.29136100411415
v 0.06987500190735 0.95484697818756 -0.29148098826408
v 0.06940600275993 0.94806402921677 -0.29749301075935
v 0.07464099675417 0.93565797805786 -0.30808201432228
v 0.06861799955368 0.93623697757721 -0.30797600746155
v 0.06324999779463 0.93221497535706 -0.31188300251961
v 0.05103899911046 0.9409059882164 -0.3050400018692
v 0.03073699958622 0.98164802789688 -0.27047601342201
v 0.03887100145221 0.97984898090363 -0.27151599526405
v 0.02179099991918 0.9537850022316 -0.29564800858498
v 0.02626500092447 0.97449398040771 -0.27708500623703
v 0.0359719991684 0.97466397285461 -0.27628299593925
v 0.02532799914479 0.95821899175644 -0.29150000214577
v 0.024299999699 0.96931999921799 -0.28177899122238
v 0.0343419983983 0.96526598930359 -0.28468000888824
v 0.03471700102091 0.96960699558258 -0.28082600235939
# 56 vertices

vn 0.04809375107288 0.65818750858307 -0.75128126144409
vn 0.01359375007451 0.64862501621246 -0.7608437538147
vn 0.04459375143051 0.65418750047684 -0.75496876239777
vn 0.05918750166893 0.64256250858307 -0.76387500762939
vn 0.06453125178814 0.64600002765656 -0.76059377193451
vn 0.05837500095367 0.63703125715256 -0.7685312628746
vn 0.06156250089407 0.65493750572205 -0.75309377908707
vn 0.0900312513113 0.6552500128746 -0.75
vn 0.09168750047684 0.65265625715256 -0.75193750858307
vn 0.04140625149012 0.65328127145767 -0.7559375166893
vn 0.01300000026822 0.64600002765656 -0.76318752765656
vn 0.05343750119209 0.65859377384186 -0.75053125619888
vn 0.0580625012517 0.6553750038147 -0.75309377908707
vn 0.04881250113249 0.641781270504 -0.76528126001358
vn 0.04234375059605 0.64409375190735 -0.7637500166893
vn 0.05209375172853 0.63659375905991 -0.76950001716614
vn 0.04675000160933 0.66784375905991 -0.74271875619888
vn 0.05065625160933 0.66815626621246 -0.7421875
vn 0.06475000083447 0.65709376335144 -0.75096875429153
vn 0.03750000149012 0.65471875667572 -0.75487500429153
vn 0.0502500012517 0.66056251525879 -0.74909377098084
vn 0.0502500012517 0.66046875715256 -0.74909377098084
vn 0.0502500012517 0.66034376621246 -0.74918752908707
vn 0.05015625059605 0.66046875715256 -0.74909377098084
vn 0.0502500012517 0.66056251525879 -0.7490000128746
vn 0.05046875029802 0.66046875715256 -0.74909377098084
# 26 normals

vt 0.32485300302505 0.87387597560883 0
vt 0.26519095897675 0.86421400308609 0
vt 0.32054597139359 0.91066896915436 0
vt 0 1 0
vt 0.59349298477173 0.12752997875214 0
vt 0.58848702907562 0.09081399440765 0
vt 0.52934896945953 0.13295304775238 0
vt 0.60963594913483 0.12448298931122 0
vt 0.72706294059753 0.86420202255249 0
vt 0.76945292949677 0.89486300945282 0
vt 0.38261699676514 0.12452101707458 0
vt 0.22280299663544 0.89486300945282 0
vt 0.66719794273376 0.87387502193451 0
vt 0.67149698734283 0.91066896915436 0
vt 0.398461997509 0.1275280714035 0
vt 0.40349000692368 0.09081399440765 0
vt 0.46247500181198 0.13295304775238 0
vt 0.4368399977684 0.88197499513626 0
vt 0.43550300598145 0.9189829826355 0
vt 0.55509197711945 0.88197499513626 0
vt 0.55642592906952 0.91898399591446 0
vt 0.46404200792313 0.09593105316162 0
vt 0.64020395278931 0.08106207847595 0
vt 0.35205399990082 0.08106207847595 0
vt 0.56675696372986 0.6183660030365 0
vt 0.59355092048645 0.59057801961899 0
vt 0.55634295940399 0.56870901584625 0
vt 0.34610396623611 0.83664798736572 0
vt 0.4014909863472 0.79941701889038 0
vt 0.37585175037384 0.76543819904327 0
vt 0.52778601646423 0.09593105316162 0
vt 0.39811199903488 0.74488300085068 0
vt 0.38781797885895 0.70767402648926 0
vt 0.4281849861145 0.70160502195358 0
vt 0.40167701244354 0.68072301149368 0
vt 0.42607897520065 0.65179002285004 0
vt 0.5006560087204 0.6397460103035 0
vt 0.45172798633575 0.62639802694321 0
vt 0.48217499256134 0.6032919883728 0
vt 0.51862394809723 0.58363503217697 0
vt 0.58210492134094 0.54924702644348 0
vt 0.56977498531342 0.52454203367233 0
vt 0.61668002605438 0.55692201852798 0
vt 0.60260701179504 0.63076901435852 0
vt 0.44255197048187 0.83664798736572 0
vt 0.43118798732758 0.80006504058838 0
vt 0.46552395820618 0.79468899965286 0
vt 0.49112796783447 0.83101600408554 0
vt 0.51852095127106 0.77117401361465 0
vt 0.52302098274231 0.82212799787521 0
vt 0.57810497283936 0.7831369638443 0
vt 0.49499797821045 0.78347200155258 0
vt 0.61015999317169 0.78255796432495 0
vt 0.59661793708801 0.75669097900391 0
vt 0.5458699464798 0.70895403623581 0
vt 0.54668092727661 0.75285804271698 0
vt 0.3460179567337 0.70786303281784 0
# 57 texture coordinates

o buttons.003
usemtl dhd_button_light.017
f 1/3/3 2/2/2 3/1/1
f 4/7/6 6/6/5 7/5/4
f 6/6/5 8/8/7 7/5/4
f 8/8/7 9/10/9 10/9/8
f 11/12/11 12/11/10 2/2/2
f 10/9/8 13/14/13 14/13/12
f 12/11/10 15/16/15 16/15/14
f 15/16/15 18/17/16 16/15/14
f 19/19/17 3/1/1 20/18/17
f 21/21/18 20/18/17 22/20/18
f 14/13/12 21/21/18 22/20/18
f 17/22/16 4/7/6 18/17/16
f 1/3/3 11/12/11 2/2/2
f 6/6/5 23/23/19 8/8/7
f 8/8/7 23/23/19 9/10/9
f 11/12/11 24/24/20 12/11/10
f 10/9/8 9/10/9 13/14/13
f 12/11/10 24/24/20 15/16/15
f 25/27/21 26/26/22 27/25/21
f 29/30/24 31/29/23 28/28/21
f 4/7/6 5/31/6 6/6/5
f 14/13/12 13/14/13 21/21/18
f 29/30/24 36/33/22 35/32/22
f 21/21/18 19/19/17 20/18/17
f 35/32/22 31/29/23 29/30/24
f 36/33/22 37/35/25 38/34/21
f 37/35/25 39/36/21 38/34/21
f 39/36/21 40/38/22 41/37/21
f 38/34/21 39/36/21 41/37/21
f 40/38/22 42/39/21 41/37/21
f 42/39/21 43/40/21 41/37/21
f 25/27/21 44/42/22 45/41/22
f 43/40/21 25/27/21 27/25/21
f 41/37/21 43/40/21 27/25/21
f 36/33/22 38/34/21 35/32/22
f 25/27/21 45/41/22 26/26/22
f 45/41/22 46/43/22 26/26/22
f 26/26/22 47/44/21 27/25/21
f 28/28/21 31/29/23 48/45/21
f 31/29/23 49/46/21 48/45/21
f 19/19/17 1/3/3 3/1/1
f 51/48/22 48/45/21 52/47/22
f 17/22/16 5/31/6 4/7/6
f 52/47/22 48/45/21 49/46/21
f 53/51/22 54/50/21 55/49/21
f 54/50/21 51/48/22 56/52/21
f 30/54/21 50/53/26 53/51/22
f 34/56/21 33/55/25 30/54/21
f 55/49/21 34/56/21 53/51/22
f 34/56/21 30/54/21 53/51/22
f 54/50/21 56/52/21 55/49/21
f 32/57/22 36/33/22 29/30/24
f 15/16/15 17/22/16 18/17/16
f 52/47/22 56/52/21 51/48/22
f 28/28/21 32/57/22 29/30/24

