# Blender v3.0.0 OBJ File: ''
# www.blender.org
mtllib 2_base.mtl
o buttons.062
v 0.511352 0.902076 -0.153388
v 0.496170 0.884240 -0.183049
v 0.498397 0.890418 -0.187646
v 0.513579 0.908255 -0.157984
v 0.329435 0.950518 -0.187554
v 0.327082 0.943985 -0.182679
v 0.338035 0.952847 -0.167018
v 0.340289 0.959100 -0.171673
v 0.524162 0.919625 -0.124685
v 0.526467 0.926022 -0.129453
v 0.357921 0.966537 -0.154178
v 0.368476 0.978937 -0.133558
v 0.506940 0.911542 -0.156799
v 0.351448 0.970019 -0.152669
v 0.349247 0.963913 -0.148130
v 0.359619 0.976099 -0.127865
v 0.361820 0.982204 -0.132405
v 0.533347 0.935167 -0.099751
v 0.535799 0.941979 -0.104844
v 0.480102 0.867861 -0.210767
v 0.482407 0.874258 -0.215534
v 0.370390 0.994465 -0.112862
v 0.368137 0.988212 -0.108207
v 0.373966 0.999066 -0.091079
v 0.376320 1.005600 -0.095954
v 0.467174 0.861355 -0.238919
v 0.464722 0.854543 -0.233826
v 0.476100 0.877905 -0.213738
v 0.464879 0.868400 -0.230965
v 0.339311 0.949685 -0.184139
v 0.346534 0.955396 -0.173570
v 0.491907 0.893880 -0.186170
v 0.526558 0.940865 -0.110459
v 0.519680 0.929105 -0.128594
v 0.381170 0.998864 -0.102355
v 0.377221 0.991448 -0.113616
v 0.443937 0.923611 -0.169969
v 0.446737 0.937840 -0.150530
v 0.436669 0.941297 -0.150683
v 0.407755 0.933621 -0.173601
v 0.410159 0.920091 -0.189786
v 0.413430 0.928498 -0.177568
v 0.411772 0.935092 -0.169901
v 0.429591 0.934041 -0.163159
v 0.424079 0.939941 -0.158126
v 0.413494 0.957080 -0.141044
v 0.412331 0.970131 -0.137538
v 0.410310 0.964445 -0.133084
v 0.441859 0.943549 -0.145454
v 0.415514 0.962766 -0.145498
v 0.428978 0.920597 -0.180603
v 0.436900 0.927906 -0.180307
v 0.434880 0.922220 -0.175854
v 0.402081 0.952477 -0.152099
v 0.404102 0.958163 -0.156552
v 0.448758 0.943527 -0.154983
v 0.413708 0.958150 -0.152212
v 0.411688 0.952463 -0.147758
v 0.471588 0.939826 -0.149353
v 0.469568 0.934139 -0.144899
v 0.417385 0.929677 -0.174268
v 0.413792 0.940778 -0.174355
v 0.419406 0.935364 -0.178721
v 0.409776 0.939308 -0.178054
v 0.478934 0.928932 -0.147298
v 0.482070 0.944814 -0.138228
v 0.480050 0.939127 -0.133775
v 0.415451 0.934185 -0.182021
v 0.395911 0.941537 -0.181497
v 0.412180 0.925777 -0.194240
v 0.469387 0.938117 -0.139902
v 0.471407 0.943804 -0.144355
v 0.443879 0.949235 -0.149908
v 0.480955 0.934619 -0.151752
v 0.454578 0.926175 -0.174498
v 0.445957 0.929298 -0.174422
v 0.428666 0.928847 -0.182842
v 0.430999 0.926283 -0.185057
v 0.393891 0.935851 -0.177043
v 0.446634 0.925273 -0.179254
v 0.444614 0.919587 -0.174800
v 0.432443 0.943710 -0.162151
v 0.426099 0.945628 -0.162579
v 0.438689 0.946984 -0.155137
v 0.426646 0.923160 -0.178389
v 0.435402 0.930425 -0.177771
v 0.433382 0.924738 -0.173318
v 0.452558 0.920489 -0.170044
v 0.430423 0.938023 -0.157697
v 0.431612 0.939727 -0.167613
vt 0.934048 0.291426
vt 0.932118 0.299287
vt 0.932356 0.291502
vt 0.904591 0.304299
vt 0.901979 0.301096
vt 0.903798 0.300694
vt 0.932792 0.283873
vt 0.931152 0.284461
vt 0.965436 0.868950
vt 0.960935 0.868950
vt 0.959981 0.842290
vt 0.903290 0.295500
vt 0.901643 0.290465
vt 0.903148 0.290446
vt 0.901643 0.295629
vt 0.929303 0.278126
vt 0.928329 0.279964
vt 0.933832 0.299574
vt 0.930216 0.306536
vt 0.903334 0.286076
vt 0.902435 0.282084
vt 0.903708 0.283161
vt 0.901862 0.285950
vt 0.903365 0.305584
vt 0.927451 0.311044
vt 0.928068 0.312580
vt 0.931941 0.307463
vt 0.972476 0.842591
vt 0.976332 0.843017
vt 0.972106 0.869531
vt 0.969727 0.869209
vt 0.966391 0.842290
vt 0.950031 0.843017
vt 0.953893 0.842591
vt 0.954256 0.869531
vt 0.956641 0.869209
vt 0.940056 0.536798
vt 0.944914 0.537449
vt 0.944852 0.539559
vt 0.960006 0.690508
vt 0.958897 0.689522
vt 0.959910 0.689769
vt 0.940088 0.272746
vt 0.940810 0.273950
vt 0.939921 0.274037
vt 0.947586 0.543749
vt 0.949177 0.545290
vt 0.947992 0.544553
vt 0.945897 0.538765
vt 0.948725 0.543476
vt 0.938063 0.538761
vt 0.937495 0.537744
vt 0.938653 0.538169
vt 0.946715 0.544840
vt 0.946373 0.545466
vt 0.944383 0.536118
vt 0.945772 0.544361
vt 0.946663 0.544046
vt 0.946526 0.533642
vt 0.947214 0.534146
vt 0.940730 0.272633
vt 0.938822 0.270934
vt 0.941972 0.271239
vt 0.961990 0.691151
vt 0.947570 0.533316
vt 0.949177 0.532971
vt 0.948166 0.533534
vt 0.961098 0.688522
vt 0.957804 0.693695
vt 0.957911 0.688522
vt 0.947823 0.534615
vt 0.948872 0.534879
vt 0.947271 0.538824
vt 0.947202 0.532668
vt 0.939173 0.535257
vt 0.940341 0.535629
vt 0.937656 0.539550
vt 0.937333 0.538979
vt 0.959103 0.690916
vt 0.938023 0.536200
vt 0.938993 0.536734
vt 0.940190 0.275712
vt 0.938866 0.274782
vt 0.943963 0.540755
vt 0.938230 0.538944
vt 0.939030 0.539925
vt 0.939111 0.538615
vt 0.939225 0.536082
vt 0.940391 0.274366
vt 0.941972 0.274996
vn 0.8851 -0.4373 -0.1590
vn 0.8659 -0.4594 -0.1979
vn 0.8854 -0.4370 -0.1584
vn -0.8149 0.5053 0.2840
vn -0.8328 0.4908 0.2561
vn -0.8335 0.4902 0.2549
vn 0.9043 -0.4112 -0.1145
vn 0.9046 -0.4108 -0.1139
vn 0.2694 0.7582 -0.5938
vn -0.8637 0.4617 0.2022
vn -0.8871 0.4349 0.1547
vn -0.8874 0.4344 0.1540
vn -0.8632 0.4621 0.2031
vn 0.9138 -0.3961 -0.0897
vn 0.9138 -0.3960 -0.0897
vn 0.8655 -0.4598 -0.1986
vn 0.8417 -0.4831 -0.2412
vn -0.9101 0.4021 0.0996
vn -0.9207 0.3839 0.0700
vn -0.9207 0.3840 0.0700
vn 0.2527 0.5193 0.8164
vn 0.2524 0.5186 0.8169
vn 0.2525 0.5190 0.8167
vn -0.9099 0.4026 0.1004
vn -0.5281 -0.3778 -0.7605
vn -0.5282 -0.3779 -0.7604
vn 0.8411 -0.4836 -0.2422
vn 0.8269 -0.4958 -0.2652
vn -0.2694 -0.7582 0.5938
vn -0.2693 -0.7582 0.5938
vn 0.9209 -0.0225 0.3892
vn 0.1656 0.5709 0.8041
vn 0.3586 0.4934 0.7925
vn 0.5892 -0.6175 -0.5212
vn -0.8995 0.4184 0.1260
vn -0.8995 0.4184 0.1259
vn 0.9561 -0.2845 0.0706
vn 0.3114 -0.6520 -0.6913
vn 0.0870 -0.6332 -0.7691
vn -0.7301 -0.2413 -0.6394
vn -0.7301 -0.2413 -0.6393
vn -0.7300 -0.2413 -0.6395
vn 0.7023 0.2671 0.6598
vn 0.9608 -0.2536 0.1119
vn 0.9386 -0.3446 -0.0142
vn -0.7318 -0.2396 -0.6380
vn -0.7319 -0.2397 -0.6379
vn -0.2350 0.6496 0.7230
vn -0.4251 0.6468 0.6332
vn 0.1656 0.5710 0.8041
vn 0.1657 0.5710 0.8041
vn -0.4472 -0.4476 -0.7744
vn 0.2085 0.5561 0.8046
vn 0.2084 0.5561 0.8046
vn 0.2085 0.5560 0.8046
vn -0.7783 -0.1917 -0.5979
vn -0.0889 0.6336 0.7685
vn -0.0754 -0.5982 -0.7978
vn 0.1226 0.5846 0.8020
vn 0.1226 0.5845 0.8021
vn 0.1223 0.5848 0.8019
vn -0.3215 -0.5104 -0.7976
vn -0.6667 0.5918 0.4531
vn -0.5575 0.6255 0.5459
vn -0.9560 0.2850 -0.0697
vn 0.4452 -0.6448 -0.6213
vn 0.9553 -0.2885 0.0650
vn 0.9553 -0.2884 0.0650
vn 0.6451 -0.5999 -0.4732
vn 0.6451 -0.6000 -0.4732
vn -0.2694 -0.7581 0.5938
vn -0.2694 -0.7582 0.5937
vn -0.2694 -0.7581 0.5939
vn 0.9210 -0.0224 0.3890
vn 0.5891 -0.6173 -0.5214
vn 0.9561 -0.2844 0.0704
vn 0.3114 -0.6521 -0.6913
vn -0.7302 -0.2413 -0.6392
vn 0.9608 -0.2537 0.1120
vn 0.9386 -0.3447 -0.0141
vn 0.2084 0.5562 0.8045
vn -0.0890 0.6335 0.7686
vn -0.0755 -0.5981 -0.7979
vn 0.1225 0.5846 0.8020
vn -0.6668 0.5917 0.4531
vn 0.9552 -0.2887 0.0649
vn 0.6452 -0.5998 -0.4732
vn -0.8149 0.5054 0.2839
vn 0.2526 0.5191 0.8165
vn -0.5280 -0.3775 -0.7607
vn 0.8269 -0.4959 -0.2651
usemtl dhd.004
s 1
f 1/1/1 3/2/2 4/3/3
f 5/4/4 7/5/5 8/6/6
f 9/7/7 4/3/3 10/8/8
f 11/9/9 12/10/9 13/11/9
f 14/12/10 16/13/11 17/14/12
f 8/6/6 15/15/13 14/12/10
f 18/16/14 10/8/8 19/17/15
f 2/18/16 21/19/17 3/2/2
f 22/20/18 24/21/19 25/22/20
f 18/16/21 25/22/22 24/21/23
f 17/14/12 23/23/24 22/20/18
f 6/24/25 26/25/26 27/26/26
f 20/27/27 26/25/28 21/19/17
f 28/28/9 29/29/9 30/30/9
f 28/28/9 30/30/9 31/31/9
f 13/11/9 32/32/9 11/9/9
f 32/32/9 28/28/9 31/31/9
f 11/9/9 32/32/9 31/31/9
f 33/33/9 34/34/9 35/35/9
f 34/34/9 13/11/9 36/36/9
f 36/36/9 13/11/9 12/10/9
f 36/36/9 35/35/9 34/34/9
f 37/37/29 38/38/29 39/39/30
f 40/40/29 41/41/29 42/42/30
f 43/43/29 44/44/29 45/45/29
f 46/46/31 47/47/31 48/48/31
f 49/49/32 50/50/33 46/46/33
f 51/51/34 52/52/34 53/53/34
f 54/54/35 47/47/36 55/55/35
f 37/37/37 56/56/37 38/38/37
f 54/54/38 57/57/38 58/58/38
f 38/38/39 59/59/39 60/60/39
f 61/61/40 62/62/41 63/63/42
f 42/42/43 64/64/43 40/40/43
f 65/65/44 66/66/44 67/67/44
f 41/41/45 68/68/45 42/42/45
f 41/41/46 69/69/47 70/70/46
f 71/71/48 66/66/49 72/72/48
f 49/49/50 72/72/48 73/73/51
f 60/60/52 74/74/52 65/65/52
f 37/37/53 75/75/54 76/76/55
f 51/51/56 77/77/56 78/78/56
f 40/40/57 69/69/57 79/79/57
f 53/53/58 80/80/58 81/81/58
f 45/45/59 82/82/60 83/83/61
f 39/39/62 57/57/62 84/84/62
f 45/45/63 62/62/63 43/43/63
f 85/85/64 86/86/64 77/77/64
f 87/87/65 84/84/65 86/86/65
f 88/88/66 80/80/66 75/75/66
f 89/89/67 90/90/67 82/82/68
f 44/44/69 63/63/69 90/90/70
f 46/46/29 48/48/29 54/54/29
f 46/46/29 54/54/29 58/58/71
f 49/49/29 46/46/29 39/39/30
f 46/46/29 58/58/71 39/39/30
f 65/65/29 67/67/29 71/71/29
f 71/71/29 49/49/29 38/38/29
f 49/49/29 39/39/30 38/38/29
f 87/87/72 85/85/29 53/53/29
f 85/85/29 51/51/73 53/53/29
f 60/60/29 65/65/29 71/71/29
f 38/38/29 60/60/29 71/71/29
f 53/53/29 81/81/29 37/37/29
f 81/81/29 88/88/29 37/37/29
f 39/39/30 87/87/72 37/37/29
f 87/87/72 53/53/29 37/37/29
f 40/40/29 79/79/29 41/41/29
f 61/61/71 44/44/29 43/43/29
f 44/44/29 89/89/29 45/45/29
f 46/46/74 50/50/74 47/47/74
f 49/49/50 73/73/51 50/50/33
f 51/51/75 78/78/75 52/52/75
f 54/54/35 48/48/36 47/47/36
f 37/37/76 76/76/76 56/56/76
f 54/54/77 55/55/77 57/57/77
f 38/38/39 56/56/39 59/59/39
f 61/61/40 43/43/78 62/62/41
f 42/42/43 68/68/43 64/64/43
f 65/65/79 74/74/79 66/66/79
f 41/41/80 70/70/80 68/68/80
f 41/41/46 79/79/47 69/69/47
f 71/71/48 67/67/49 66/66/49
f 49/49/50 71/71/48 72/72/48
f 60/60/52 59/59/52 74/74/52
f 37/37/53 88/88/81 75/75/54
f 51/51/56 85/85/56 77/77/56
f 40/40/82 64/64/82 69/69/82
f 53/53/83 52/52/83 80/80/83
f 45/45/59 89/89/84 82/82/60
f 39/39/62 58/58/62 57/57/62
f 45/45/85 83/83/85 62/62/85
f 85/85/64 87/87/64 86/86/64
f 87/87/65 39/39/65 84/84/65
f 88/88/66 81/81/66 80/80/66
f 89/89/67 44/44/86 90/90/67
f 44/44/69 61/61/87 63/63/69
f 1/1/1 2/18/16 3/2/2
f 5/4/4 6/24/88 7/5/5
f 9/7/7 1/1/1 4/3/3
f 14/12/10 15/15/13 16/13/11
f 8/6/6 7/5/5 15/15/13
f 18/16/14 9/7/7 10/8/8
f 2/18/16 20/27/27 21/19/17
f 22/20/18 23/23/24 24/21/19
f 18/16/21 19/17/89 25/22/22
f 17/14/12 16/13/11 23/23/24
f 6/24/25 5/4/90 26/25/26
f 20/27/27 27/26/91 26/25/28
