# Blender v3.0.0 OBJ File: ''
# www.blender.org
mtllib 3.mtl
o buttons.027
v 0.546327 1.020947 0.024137
v 0.553501 1.019064 0.025275
v 0.552224 1.000079 -0.005282
v 0.545065 1.002180 -0.006070
v 0.533139 0.954396 -0.087957
v 0.379214 1.011630 -0.085927
v 0.387744 1.012379 -0.079880
v 0.389812 1.060010 -0.003863
v 0.396348 1.065898 0.009120
v 0.396987 1.058197 -0.002614
v 0.545818 1.033254 0.043183
v 0.396358 1.044879 -0.023897
v 0.389196 1.046959 -0.024719
v 0.549103 0.980669 -0.037562
v 0.544443 0.962732 -0.068403
v 0.537368 0.965229 -0.068520
v 0.541974 0.982960 -0.038033
v 0.383624 1.021524 -0.067863
v 0.387063 1.033698 -0.046772
v 0.394188 1.031386 -0.046336
v 0.390678 1.018963 -0.067859
v 0.388852 1.071572 0.013755
v 0.538702 0.948026 -0.094787
v 0.552810 1.035765 0.051120
v 0.449523 1.029580 -0.032186
v 0.433760 1.023420 -0.050866
v 0.441931 1.038898 -0.021881
v 0.515125 1.007645 -0.029189
v 0.493225 1.012964 -0.033338
v 0.522505 1.008695 -0.023325
v 0.441915 1.014891 -0.059609
v 0.425591 1.022908 -0.056335
v 0.476032 1.022077 -0.028838
v 0.498030 1.030953 -0.002330
v 0.484183 1.017776 -0.030941
v 0.518424 1.028901 0.006090
v 0.507226 1.024015 -0.007979
v 0.521183 1.018983 -0.007916
v 0.512265 0.998935 -0.044508
v 0.498338 1.010093 -0.034930
v 0.510062 1.002818 -0.039665
v 0.440732 1.020007 -0.052247
vt 0.178351 0.947009
vt 0.380414 0.999907
vt 0.381473 0.957045
vt 0.927040 0.932789
vt 0.821791 0.000105
vt 0.786050 0.048186
vt 0.274233 0.016224
vt 0.190497 0.048178
vt 0.270071 0.058913
vt 0.049505 0.932784
vt 0.174938 0.989755
vt 0.413337 0.067562
vt 0.596414 0.999907
vt 0.798377 0.947010
vt 0.595355 0.957045
vt 0.702497 0.016223
vt 0.563492 0.067561
vt 0.706665 0.058912
vt 0.154755 0.000105
vt 0.801793 0.989757
vt 0.562199 0.024698
vt 0.976447 0.970452
vt 0.000098 0.970452
vt 0.442344 0.605919
vt 0.388242 0.551589
vt 0.485688 0.584932
vt 0.398750 0.811961
vt 0.401985 0.742333
vt 0.413719 0.836624
vt 0.350047 0.574755
vt 0.375348 0.524566
vt 0.432413 0.689751
vt 0.509496 0.765688
vt 0.418096 0.714688
vt 0.522869 0.831752
vt 0.481561 0.792943
vt 0.470222 0.836624
vt 0.346042 0.798903
vt 0.392024 0.757900
vt 0.365281 0.793308
vt 0.377500 0.573031
vt 0.414629 0.024699
vn 0.2931 0.8066 -0.5134
vn 0.2932 0.8065 -0.5133
vn 0.2932 0.8065 -0.5134
vn 0.2931 0.8066 -0.5133
vn 0.2932 0.8066 -0.5133
vn 0.2931 0.8065 -0.5134
usemtl dhd_button_light.005
s 1
f 1/1/1 3/2/2 4/3/2
f 5/4/3 6/5/1 7/6/1
f 8/7/3 9/8/4 10/9/3
f 11/10/1 2/11/1 1/1/1
f 12/12/3 8/7/3 10/9/3
f 14/13/1 16/14/4 17/15/1
f 18/16/4 20/17/1 21/18/4
f 3/2/2 17/15/1 4/3/2
f 22/19/4 11/10/1 9/8/4
f 7/6/1 18/16/4 21/18/4
f 15/20/5 5/4/3 16/14/4
f 19/21/1 12/12/3 20/17/1
f 5/4/3 23/22/3 6/5/1
f 8/7/3 22/19/4 9/8/4
f 11/10/1 24/23/1 2/11/1
f 22/19/4 24/23/1 11/10/1
f 7/6/1 6/5/1 18/16/4
f 15/20/5 23/22/3 5/4/3
f 25/24/1 26/25/6 27/26/4
f 28/27/4 29/28/5 30/29/4
f 31/30/6 32/31/6 26/25/6
f 33/32/1 34/33/3 35/34/1
f 34/33/3 36/35/6 37/36/6
f 35/34/1 34/33/3 37/36/6
f 36/35/6 38/37/6 37/36/6
f 35/34/1 29/28/5 39/38/4
f 29/28/5 40/39/1 39/38/4
f 40/39/1 41/40/5 39/38/4
f 39/38/4 25/24/1 35/34/1
f 42/41/6 31/30/6 26/25/6
f 25/24/1 42/41/6 26/25/6
f 27/26/4 33/32/1 25/24/1
f 33/32/1 35/34/1 25/24/1
f 28/27/4 40/39/1 29/28/5
f 30/29/4 39/38/4 28/27/4
f 39/38/4 41/40/5 28/27/4
f 1/1/1 2/11/1 3/2/2
f 12/12/3 13/42/3 8/7/3
f 14/13/1 15/20/5 16/14/4
f 18/16/4 19/21/1 20/17/1
f 3/2/2 14/13/1 17/15/1
f 19/21/1 13/42/3 12/12/3
