# Blender v3.1.2 OBJ File: ''
# www.blender.org
mtllib 30.mtl
o buttons.005
v 0.079667 1.030766 -0.212032
v 0.090948 1.033124 -0.207681
v 0.094030 1.027667 -0.211822
v 0.082120 1.025247 -0.216498
v 0.121238 0.908341 -0.317817
v 0.079019 1.024882 -0.217467
v 0.126033 0.915053 -0.311157
v 0.208374 0.938019 -0.272967
v 0.202717 0.928679 -0.282784
v 0.198585 0.933686 -0.279013
v 0.182997 0.921925 -0.293378
v 0.179343 0.926976 -0.289199
v 0.161442 0.915913 -0.303375
v 0.140161 0.911233 -0.311796
v 0.137557 0.916666 -0.307317
v 0.158263 0.921097 -0.298976
v 0.105951 1.030992 -0.206293
v 0.102313 1.036293 -0.202411
v 0.112648 1.039964 -0.196736
v 0.116888 1.034943 -0.200374
v 0.119486 1.036174 -0.198694
v 0.218672 0.935514 -0.272629
v 0.069574 1.029450 -0.215037
v 0.120942 1.043776 -0.191213
v 0.131176 0.982546 -0.257116
v 0.134116 0.989744 -0.249760
v 0.139181 0.984737 -0.253442
v 0.141507 0.939762 -0.295223
v 0.130046 0.948283 -0.289531
v 0.143936 0.947962 -0.287030
v 0.162003 0.972838 -0.260015
v 0.164638 0.975123 -0.257336
v 0.168106 0.973130 -0.258510
v 0.167170 0.963166 -0.268058
v 0.161030 0.967060 -0.265639
v 0.141484 0.975870 -0.261307
v 0.149246 0.978031 -0.257711
v 0.124166 0.989546 -0.251954
v 0.115477 1.004810 -0.239368
v 0.130435 0.995414 -0.245176
v 0.104260 1.010591 -0.236201
v 0.120707 1.013569 -0.230084
v 0.126873 1.010555 -0.231672
v 0.126945 1.007542 -0.234487
v 0.136790 0.938599 -0.297268
vt 0.403490 0.090814
vt 0.462475 0.132953
vt 0.398463 0.127528
vt 0.222803 0.894863
vt 0.382616 0.124521
vt 0.265191 0.864214
vt 0.727063 0.864201
vt 0.671497 0.910669
vt 0.667198 0.873875
vt 0.556426 0.918984
vt 0.555091 0.881976
vt 0.435504 0.918983
vt 0.324853 0.873876
vt 0.436840 0.881975
vt 0.529348 0.132953
vt 0.588487 0.090814
vt 0.593492 0.127531
vt 0.609635 0.124483
vt 0.769453 0.894863
vt 0.320546 0.910668
vt 0.464041 0.095931
vt 0.352054 0.081062
vt 0.640204 0.081062
vt 0.346018 0.687097
vt 0.379725 0.666449
vt 0.378327 0.696025
vt 0.469970 0.538040
vt 0.428365 0.576679
vt 0.428365 0.524542
vt 0.408443 0.789394
vt 0.424421 0.786482
vt 0.428364 0.801364
vt 0.391422 0.836648
vt 0.385684 0.808934
vt 0.355172 0.734138
vt 0.386627 0.742662
vt 0.348194 0.645896
vt 0.373398 0.570181
vt 0.387683 0.637353
vt 0.358366 0.524542
vt 0.419541 0.548592
vt 0.428364 0.573070
vt 0.418296 0.584496
vt 0.476382 0.556421
vt 0.527786 0.095931
vn 0.1448 0.6601 -0.7371
vn 0.1568 0.6545 -0.7396
vn 0.1520 0.6590 -0.7366
vn 0.1167 0.6572 -0.7447
vn 0.1405 0.6689 -0.7300
vn 0.1162 0.6599 -0.7423
vn 0.1844 0.6789 -0.7107
vn 0.1550 0.6737 -0.7226
vn 0.1492 0.6761 -0.7215
vn 0.1426 0.6849 -0.7146
vn 0.1427 0.6848 -0.7146
vn 0.1392 0.6839 -0.7162
vn 0.1444 0.6747 -0.7238
vn 0.1624 0.6561 -0.7370
vn 0.1646 0.6657 -0.7278
vn 0.1610 0.6615 -0.7325
vn 0.1583 0.6739 -0.7217
vn 0.1869 0.6767 -0.7121
vn 0.1430 0.6703 -0.7282
vn 0.1568 0.6546 -0.7396
vn 0.1361 0.6697 -0.7301
vn 0.1604 0.6766 -0.7187
vn 0.1455 0.6774 -0.7211
vn 0.1454 0.6774 -0.7211
vn 0.1454 0.6775 -0.7210
vn 0.1457 0.6775 -0.7209
vn 0.1456 0.6774 -0.7210
usemtl dhd_button_light.016
s 1
f 1/1/1 3/2/2 4/3/3
f 5/4/4 6/5/5 7/6/6
f 8/7/7 9/8/8 10/9/9
f 10/9/9 11/10/10 12/11/11
f 13/12/12 15/13/13 16/14/12
f 11/10/10 16/14/12 12/11/11
f 17/15/14 19/16/15 20/17/16
f 21/18/17 22/19/18 8/7/7
f 14/20/19 7/6/6 15/13/13
f 19/16/15 21/18/17 20/17/16
f 6/5/5 1/1/1 4/3/3
f 2/21/20 17/15/14 3/2/2
f 5/4/4 23/22/21 6/5/5
f 8/7/7 22/19/18 9/8/8
f 21/18/17 24/23/22 22/19/18
f 14/20/19 5/4/4 7/6/6
f 19/16/15 24/23/22 21/18/17
f 6/5/5 23/22/21 1/1/1
f 25/24/23 26/25/23 27/26/23
f 28/27/23 29/28/23 30/29/23
f 31/30/24 32/31/23 33/32/25
f 33/32/25 34/33/23 35/34/23
f 35/34/23 36/35/23 37/36/23
f 36/35/23 25/24/23 27/26/23
f 37/36/23 36/35/23 27/26/23
f 25/24/23 38/37/23 26/25/23
f 38/37/23 39/38/23 40/39/23
f 39/38/23 41/40/23 42/41/23
f 42/41/23 43/42/26 44/43/23
f 42/41/23 44/43/23 39/38/23
f 44/43/23 40/39/23 39/38/23
f 38/37/23 40/39/23 26/25/23
f 31/30/24 33/32/25 35/34/23
f 37/36/23 31/30/24 35/34/23
f 28/27/23 45/44/27 29/28/23
f 1/1/1 2/21/20 3/2/2
f 10/9/9 9/8/8 11/10/10
f 13/12/12 14/20/19 15/13/13
f 11/10/10 13/12/12 16/14/12
f 17/15/14 18/45/14 19/16/15
f 2/21/20 18/45/14 17/15/14
