# WaveFront *.obj file (generated by Cinema 4D)

mtllib ./31.mtl

v 0.14542700350285 1.05362296104431 -0.17359200119972
v 0.15417900681496 1.05852198600769 -0.16544499993324
v 0.15958799421787 1.05399799346924 -0.16803400218487
v 0.15040700137615 1.04885900020599 -0.17657999694347
v 0.25834199786186 0.95218402147293 -0.24305799603462
v 0.2413409948349 0.94421100616455 -0.2569540143013
v 0.23672200739384 0.94902300834656 -0.25350698828697
v 0.25324299931526 0.95665597915649 -0.23984199762344
v 0.22716100513935 0.94559800624847 -0.2603619992733
v 0.29056999087334 0.98109698295593 -0.20133000612259
v 0.28951498866081 0.97117900848389 -0.21210600435734
v 0.28371998667717 0.97533297538757 -0.2097550034523
v 0.2749420106411 0.96147698163986 -0.22760500013828
v 0.26947700977325 0.96574401855469 -0.22472900152206
v 0.13636299967766 1.04951500892639 -0.18085299432278
v 0.14084899425507 1.04459297657013 -0.18432700634003
v 0.16176100075245 1.06373298168182 -0.15720899403095
v 0.16762399673462 1.05958104133606 -0.15940199792385
v 0.16940699517727 1.0611879825592 -0.15709500014782
v 0.30063599348068 0.98034298419952 -0.19807900488377
v 0.22560200095177 0.93833899497986 -0.26793101429939
v 0.13824699819088 1.04373705387115 -0.18611100316048
v 0.16743099689484 1.06874597072601 -0.14968900382519
v 0.12787200510502 1.04660105705261 -0.18651500344276
v 0.17009299993515 1.04257500171661 -0.18784999847412
v 0.18809466063976 1.03265833854675 -0.19231699407101
v 0.18824400007725 1.01789605617523 -0.20793800055981
v 0.22958999872208 0.98431634902954 -0.22966666519642
v 0.21159499883652 0.99420702457428 -0.22522500157356
v 0.24737399816513 0.98927301168442 -0.2184180021286
v 0.22974699735641 0.96952801942825 -0.24531300365925
v 0.20587100088596 1.0376410484314 -0.18104299902916
# 32 vertices

vn 0.24456250667572 0.68909376859665 -0.68215626478195
vn 0.24881249666214 0.69150000810623 -0.67815625667572
vn 0.21631249785423 0.71450001001358 -0.66525000333786
vn 0.22493749856949 0.70659375190735 -0.6708750128746
vn 0.20600000023842 0.68759375810623 -0.69628125429153
vn 0.2256875038147 0.70203125476837 -0.67534375190735
vn 0.22878125309944 0.70853126049042 -0.66750001907349
vn 0.23481249809265 0.70712500810623 -0.66675001382828
vn 0.25856250524521 0.71700000762939 -0.64734375476837
vn 0.21906250715256 0.716000020504 -0.66275000572205
vn 0.23831249773502 0.69259375333786 -0.68075001239777
vn 0.2315312474966 0.69246876239777 -0.68315625190735
vn 0.24543750286102 0.69650000333786 -0.67412501573563
vn 0.24684375524521 0.70106250047684 -0.6690000295639
vn 0.26162499189377 0.71525001525879 -0.64800000190735
vn 0.2377812564373 0.70800000429153 -0.66500002145767
vn 0.22400000691414 0.70018750429153 -0.6778125166893
vn 0.20756250619888 0.68500000238419 -0.6982187628746
vn 0.23843750357628 0.71078127622604 -0.66165626049042
vn 0.21971875429153 0.70028126239777 -0.67912501096725
vn 0.22487500309944 0.70918750762939 -0.66806250810623
vn 0.22487500309944 0.70928126573563 -0.66806250810623
vn 0.22487500309944 0.70921874046326 -0.66806250810623
# 23 normals

vt 0.46247500181198 0.13295304775238 0
vt 0.52934896945953 0.13295304775238 0
vt 0.46404200792313 0.09593105316162 0
vt 0 1 0
vt 0.43683898448944 0.88197600841522 0
vt 0.32485300302505 0.87387597560883 0
vt 0.43550395965576 0.91898399591446 0
vt 0.26519095897675 0.86421400308609 0
vt 0.32054597139359 0.91066896915436 0
vt 0.66719794273376 0.87387502193451 0
vt 0.67149698734283 0.91066896915436 0
vt 0.72706294059753 0.86420202255249 0
vt 0.55509197711945 0.88197499513626 0
vt 0.55642700195312 0.91898399591446 0
vt 0.398461997509 0.1275280714035 0
vt 0.40349000692368 0.09081399440765 0
vt 0.59349298477173 0.12753105163574 0
vt 0.58848702907562 0.09081399440765 0
vt 0.76945292949677 0.89486300945282 0
vt 0.60963499546051 0.12448298931122 0
vt 0.38261598348618 0.12452006340027 0
vt 0.22280198335648 0.89486300945282 0
vt 0.64020502567291 0.08106207847595 0
vt 0.35205399990082 0.08106207847595 0
vt 0.50207102298737 0.70089304447174 0
vt 0.55404591560364 0.61142736673355 0
vt 0.50207102298737 0.52454203367233 0
vt 0.65812397003174 0.60790801048279 0
vt 0.50207102298737 0.60791802406311 0
vt 0.3460179567337 0.52454203367233 0
vt 0.39805227518082 0.61126601696014 0
vt 0.52778601646423 0.09593105316162 0
vt 0.3460179567337 0.70090103149414 0
# 33 texture coordinates

o buttons.006
usemtl dhd_button_light.015
f 1/3/1 3/2/2 4/1/1
f 5/7/3 7/6/4 8/5/3
f 6/9/6 9/8/5 7/6/4
f 10/12/9 11/11/8 12/10/7
f 12/10/7 13/14/10 14/13/10
f 15/16/12 4/1/1 16/15/11
f 5/7/3 14/13/10 13/14/10
f 3/2/2 17/18/14 18/17/13
f 19/20/16 20/19/15 10/12/9
f 21/22/18 22/21/17 9/8/5
f 17/18/14 19/20/16 18/17/13
f 22/21/17 15/16/12 16/15/11
f 6/9/6 21/22/18 9/8/5
f 10/12/9 20/19/15 11/11/8
f 19/20/16 23/23/19 20/19/15
f 21/22/18 24/24/20 22/21/17
f 17/18/14 23/23/19 19/20/16
f 22/21/17 24/24/20 15/16/12
f 25/27/22 26/26/21 27/25/21
f 12/10/7 11/11/8 13/14/10
f 26/26/21 25/27/22 32/28/22
f 28/31/23 29/30/21 30/29/22
f 3/2/2 2/32/2 17/18/14
f 28/31/23 31/33/22 29/30/21
f 5/7/3 8/5/3 14/13/10
f 15/16/12 1/3/1 4/1/1
f 32/28/22 27/25/21 26/26/21
f 5/7/3 6/9/6 7/6/4
f 30/29/22 31/33/22 28/31/23
f 1/3/1 2/32/2 3/2/2

