# WaveFront *.obj file (generated by Cinema 4D)

mtllib ./31_base.mtl

v 0.12585499882698 1.04057395458221 -0.18105900287628
v 0.12787200510502 1.04660105705261 -0.18651500344276
v 0.22560200095177 0.93833899497986 -0.26793101429939
v 0.22358499467373 0.93231201171875 -0.26247501373291
v 0.30063599348068 0.98034298419952 -0.19807900488377
v 0.16743099689484 1.06874597072601 -0.14968900382519
v 0.16541400551796 1.0627189874649 -0.14423300325871
v 0.29861798882484 0.97431600093842 -0.19262300431728
v 0.16176100075245 1.06373298168182 -0.15720899403095
v 0.15974399447441 1.05770599842072 -0.15175299346447
v 0.15958799421787 1.05399799346924 -0.16803400218487
v 0.16762399673462 1.05958104133606 -0.15940199792385
v 0.28371998667717 0.97533297538757 -0.2097550034523
v 0.23935200273991 0.93819397687912 -0.2514800131321
v 0.2413409948349 0.94421100616455 -0.2569540143013
v 0.25634199380875 0.9461629986763 -0.23759199678898
v 0.25834199786186 0.95218402147293 -0.24305799603462
v 0.27293199300766 0.95545202493668 -0.22214399278164
v 0.2749420106411 0.96147698163986 -0.22760500013828
v 0.28749999403954 0.96515297889709 -0.20664900541306
v 0.28951498866081 0.97117900848389 -0.21210600435734
v 0.15417900681496 1.05852198600769 -0.16544499993324
v 0.15216200053692 1.05249500274658 -0.15998899936676
v 0.14542700350285 1.05362296104431 -0.17359200119972
v 0.14340999722481 1.0475959777832 -0.16813600063324
v 0.13636299967766 1.04951500892639 -0.18085299432278
v 0.13434499502182 1.04348802566528 -0.17539699375629
v 0.16940699517727 1.0611879825592 -0.15709500014782
v 0.29056999087334 0.98109698295593 -0.20133000612259
v 0.26947700977325 0.96574401855469 -0.22472900152206
v 0.25324299931526 0.95665597915649 -0.23984199762344
v 0.23672200739384 0.94902300834656 -0.25350698828697
v 0.15040700137615 1.04885900020599 -0.17657999694347
v 0.22716100513935 0.94559800624847 -0.2603619992733
v 0.14084899425507 1.04459297657013 -0.18432700634003
v 0.13824699819088 1.04373705387115 -0.18611100316048
v 0.16840699315071 1.03725504875183 -0.18283900618553
v 0.18649600446224 1.01983404159546 -0.19524300098419
v 0.17729799449444 1.03234100341797 -0.18506200611591
v 0.20990900695324 0.98888802528381 -0.22021399438381
v 0.22799199819565 0.97149300575256 -0.23259299993515
v 0.21879300475121 0.98399901390076 -0.22241300344467
v 0.19542899727821 1.02984094619751 -0.18161299824715
v 0.18655699491501 1.01257705688477 -0.20292699337006
v 0.20418499410152 1.03232204914093 -0.17603200674057
v 0.23692500591278 0.98149901628494 -0.2189629971981
v 0.22806000709534 0.96420902013779 -0.2403029948473
v 0.24568800628185 0.98395299911499 -0.21340699493885
v 0.20587100088596 1.0376410484314 -0.18104299902916
v 0.21159499883652 0.99420702457428 -0.22522500157356
v 0.17009299993515 1.04257500171661 -0.18784999847412
v 0.24737399816513 0.98927301168442 -0.2184180021286
v 0.18824400007725 1.01789605617523 -0.20793800055981
v 0.22974699735641 0.96952801942825 -0.24531300365925
# 54 vertices

vn -0.77287501096725 -0.26365625858307 -0.57703125476837
vn 0.55315625667572 0.4495937526226 0.7012500166893
vn 0.55315625667572 0.44968751072884 0.7012500166893
vn -0.81312501430511 0.51581251621246 0.26925000548363
vn -0.78521877527237 0.53871876001358 0.30484375357628
vn 0.22487500309944 0.70928126573563 -0.66806250810623
vn 0.22493749856949 0.70928126573563 -0.66806250810623
vn 0.61909377574921 -0.63050001859665 -0.46809375286102
vn 0.58462500572205 -0.64318752288818 -0.49434375762939
vn 0.61762499809265 -0.63106250762939 -0.4691250026226
vn 0.67671877145767 -0.60525000095367 -0.41909375786781
vn 0.67581248283386 -0.60565626621246 -0.41984376311302
vn 0.72481250762939 -0.57950001955032 -0.37237501144409
vn 0.72437500953674 -0.57975000143051 -0.37309375405312
vn 0.77393752336502 -0.54728126525879 -0.31850001215935
vn 0.77353125810623 -0.54750001430511 -0.31900000572205
vn -0.78481251001358 0.53915625810623 0.30537500977516
vn -0.72881251573563 0.5771250128746 0.36815625429153
vn -0.72812497615814 0.57768750190735 0.3688437640667
vn -0.67231249809265 0.60759377479553 0.42268750071526
vn 0.79868751764297 -0.52818751335144 -0.2880625128746
vn -0.67121875286102 0.60815626382828 0.42359375953674
vn -0.60415625572205 0.63637501001358 0.4795937538147
vn -0.60221874713898 0.63703125715256 0.48100000619888
vn -0.56312501430511 0.65015625953674 0.50996875762939
vn 0.22493749856949 0.70928126573563 -0.66796875
vn 0.22487500309944 0.70918750762939 -0.66806250810623
vn 0.22471874952316 0.70918750762939 -0.66815626621246
vn -0.22487500309944 -0.70918750762939 0.66806250810623
vn -0.22487500309944 -0.70928126573563 0.66806250810623
vn -0.22493749856949 -0.70928126573563 0.66806250810623
vn 0.85509377717972 -0.47237500548363 -0.21362499892712
vn -0.56325000524521 0.65006250143051 0.50996875762939
vn -0.04162500053644 0.69193750619888 0.72068750858307
vn -0.04162500053644 0.69203126430511 0.72059375047684
vn -0.04162500053644 0.69193750619888 0.72059375047684
vn -0.8389687538147 -0.20762500166893 -0.50281250476837
vn 0.85509377717972 -0.47225001454353 -0.21362499892712
vn -0.8389687538147 -0.20762500166893 -0.50300002098084
vn -0.8389687538147 -0.20778125524521 -0.50281250476837
vn -0.0415625013411 0.69203126430511 0.72059375047684
vn 0.85509377717972 -0.47237500548363 -0.21359375119209
vn -0.8389687538147 -0.20778125524521 -0.50278127193451
# 43 normals

vt 0.31085598468781 0.95200902223587 0
vt 0.31213599443436 0.95108300447464 0
vt 0.31085598468781 0.92602801322937 0
vt 0 1 0
vt 0.33320599794388 0.94745701551437 0
vt 0.32471001148224 0.92315697669983 0
vt 0.33161199092865 0.94686102867126 0
vt 0.32365500926971 0.92486500740051 0
vt 0.3219889998436 0.9247869849205 0
vt 0.96347296237946 0.2784069776535 0
vt 0.96603202819824 0.30432105064392 0
vt 0.96825897693634 0.3041330575943 0
vt 0.31547600030899 0.9520760178566 0
vt 0.31492495536804 0.95397502183914 0
vt 0.32022798061371 0.95222699642181 0
vt 0.32033997774124 0.95405000448227 0
vt 0.32504099607468 0.95123398303986 0
vt 0.32556396722794 0.95292401313782 0
vt 0.32913601398468 0.9493619799614 0
vt 0.33015495538712 0.95078498125076 0
vt 0.3220499753952 0.92290300130844 0
vt 0.31955099105835 0.92496001720428 0
vt 0.31929099559784 0.92309999465942 0
vt 0.31681299209595 0.9254310131073 0
vt 0.31631195545197 0.92351001501083 0
vt 0.31419795751572 0.92615699768066 0
vt 0.31322395801544 0.92432200908661 0
vt 0.31244295835495 0.92696702480316 0
vt 0.96139395236969 0.27874100208282 0
vt 0.96547198295593 0.30442702770233 0
vt 0.96736598014832 0.27812600135803 0
vt 0.971470952034 0.27812600135803 0
vt 0.97058093547821 0.3041330575943 0
vt 0.9753589630127 0.2784069776535 0
vt 0.97280395030975 0.30432105064392 0
vt 0.97743093967438 0.27874100208282 0
vt 0.97335398197174 0.30442500114441 0
vt 0.91506695747375 0.53800803422928 0
vt 0.91673099994659 0.5373409986496 0
vt 0.91433894634247 0.53791302442551 0
vt 0.93793392181396 0.17260003089905 0
vt 0.939532995224 0.17137503623962 0
vt 0.93713891506195 0.17265701293945 0
vt 0.91692698001862 0.54022800922394 0
vt 0.91731691360474 0.53652000427246 0
vt 0.916463971138 0.53905999660492 0
vt 0.94050598144531 0.17486798763275 0
vt 0.93999695777893 0.17027902603149 0
vt 0.93963193893433 0.17352497577667 0
vt 0.91897296905518 0.54543304443359 0
vt 0.91216695308685 0.53775298595428 0
vt 0.91897296905518 0.53370302915573 0
vt 0.94185292720795 0.17702698707581 0
vt 0.94185292720795 0.16746008396149 0
vt 0.93350791931152 0.17289900779724 0
# 55 texture coordinates

o buttons.042
usemtl dhd.023
f 1/3/1 3/2/1 4/1/1
f 5/7/2 7/6/3 8/5/2
f 9/9/5 7/6/4 6/8/4
f 11/12/6 12/11/7 13/10/6
f 14/14/10 3/2/9 15/13/8
f 16/16/12 15/13/8 17/15/11
f 18/18/14 17/15/11 19/17/13
f 20/20/16 19/17/13 21/19/15
f 22/22/18 10/21/17 9/9/5
f 24/24/20 23/23/19 22/22/18
f 8/5/21 21/19/15 5/7/21
f 26/26/23 25/25/22 24/24/20
f 2/28/25 27/27/24 26/26/23
f 28/30/26 29/29/6 12/11/7
f 29/29/6 13/10/6 12/11/7
f 13/10/6 30/31/6 11/12/6
f 30/31/6 31/32/6 11/12/6
f 31/32/6 32/34/6 33/33/6
f 32/34/6 34/36/6 35/35/27
f 31/32/6 33/33/6 11/12/6
f 34/36/6 36/37/28 35/35/27
f 35/35/27 33/33/6 32/34/6
f 37/40/29 38/39/30 39/38/29
f 40/43/30 41/42/30 42/41/30
f 43/46/29 44/45/30 45/44/29
f 46/49/31 47/48/30 48/47/31
f 44/45/32 49/50/32 45/44/32
f 2/28/25 1/3/33 27/27/24
f 37/40/36 49/50/35 51/51/34
f 26/26/23 27/27/24 25/25/22
f 37/40/37 53/52/37 44/45/37
f 8/5/21 20/20/16 21/19/15
f 18/18/14 16/16/12 17/15/11
f 16/16/12 14/14/10 15/13/8
f 48/47/38 54/54/32 52/53/38
f 47/48/39 50/55/40 54/54/39
f 48/47/41 50/55/41 40/43/41
f 14/14/10 4/1/9 3/2/9
f 37/40/29 44/45/30 38/39/30
f 40/43/30 47/48/30 41/42/30
f 43/46/29 38/39/30 44/45/30
f 45/44/29 37/40/29 43/46/29
f 37/40/29 39/38/29 43/46/29
f 46/49/31 41/42/30 47/48/30
f 48/47/31 40/43/30 46/49/31
f 40/43/30 42/41/30 46/49/31
f 44/45/42 53/52/42 49/50/42
f 24/24/20 25/25/22 23/23/19
f 37/40/36 45/44/35 49/50/35
f 22/22/18 23/23/19 10/21/17
f 37/40/40 51/51/40 53/52/40
f 20/20/16 18/18/14 19/17/13
f 9/9/5 10/21/17 7/6/4
f 5/7/2 6/8/3 7/6/3
f 48/47/38 47/48/42 54/54/32
f 47/48/39 40/43/43 50/55/40
f 48/47/34 52/53/34 50/55/34
f 1/3/1 2/28/1 3/2/1

