# Blender v3.1.2 OBJ File: ''
# www.blender.org
mtllib 32.mtl
o buttons.007
v 0.327138 1.002703 -0.159045
v 0.316259 0.992333 -0.176928
v 0.310126 0.996221 -0.175019
v 0.320673 1.006181 -0.157483
v 0.303564 0.991409 -0.184180
v 0.341171 1.035595 -0.110701
v 0.344831 1.025901 -0.121105
v 0.338001 1.028969 -0.120560
v 0.193236 1.094432 -0.106156
v 0.200862 1.093201 -0.103859
v 0.200086 1.091373 -0.106532
v 0.182384 1.071481 -0.139973
v 0.178172 1.076735 -0.135587
v 0.184206 1.072717 -0.137557
v 0.184038 1.082126 -0.126191
v 0.189229 1.088224 -0.116050
v 0.195822 1.084733 -0.116922
v 0.190377 1.078336 -0.127561
v 0.336984 1.014270 -0.139810
v 0.330301 1.017493 -0.138672
v 0.349913 1.036458 -0.104761
v 0.305410 0.984175 -0.191707
v 0.195668 1.100142 -0.097478
v 0.172206 1.072577 -0.143317
v 0.300749 1.045788 -0.129403
v 0.300761 1.042456 -0.133606
v 0.295308 1.044219 -0.133941
v 0.296164 1.022531 -0.160933
v 0.290417 1.025945 -0.159321
v 0.294154 1.028471 -0.154374
v 0.219278 1.067910 -0.139738
v 0.212188 1.067131 -0.144052
v 0.219661 1.078035 -0.126768
v 0.307083 1.030298 -0.145993
v 0.224489 1.070555 -0.133948
v 0.252066 1.055289 -0.140274
v 0.260805 1.055278 -0.136183
v 0.267150 1.048156 -0.142196
v 0.271351 1.053976 -0.132873
v 0.300604 1.034180 -0.144132
v 0.297558 1.032407 -0.147803
v 0.282937 1.051610 -0.130418
v 0.280211 1.047372 -0.137051
v 0.291277 1.049194 -0.129551
v 0.310125 1.045235 -0.125697
v 0.307360 1.037832 -0.136347
v 0.301187 1.041120 -0.135094
vt 0.435502 0.918983
vt 0.324851 0.873876
vt 0.436838 0.881975
vt 0.320545 0.910668
vt 0.265189 0.864214
vt 0.727061 0.864201
vt 0.671495 0.910669
vt 0.667196 0.873875
vt 0.588486 0.090814
vt 0.609635 0.124483
vt 0.593492 0.127531
vt 0.382616 0.124520
vt 0.403489 0.090814
vt 0.398461 0.127528
vt 0.464041 0.095931
vt 0.529348 0.132953
vt 0.462474 0.132953
vt 0.555089 0.881975
vt 0.556424 0.918984
vt 0.769451 0.894863
vt 0.222801 0.894863
vt 0.640204 0.081062
vt 0.352053 0.081062
vt 0.359793 0.558439
vt 0.375898 0.555061
vt 0.376932 0.572645
vt 0.480389 0.548419
vt 0.473952 0.568506
vt 0.455171 0.560202
vt 0.395693 0.816871
vt 0.411903 0.836648
vt 0.346018 0.825911
vt 0.423643 0.524542
vt 0.373748 0.804409
vt 0.399235 0.709138
vt 0.383957 0.683785
vt 0.407286 0.658244
vt 0.371753 0.651896
vt 0.416222 0.547220
vt 0.430147 0.554277
vt 0.362873 0.615928
vt 0.388166 0.619582
vt 0.359929 0.589320
vt 0.346018 0.530695
vt 0.386698 0.531291
vt 0.381617 0.552487
vt 0.527785 0.095931
vn 0.2704 0.7563 -0.5957
vn 0.2814 0.7500 -0.5986
vn 0.2840 0.7459 -0.6025
vn 0.2735 0.7288 -0.6277
vn 0.3048 0.7654 -0.5668
vn 0.2895 0.7523 -0.5918
vn 0.2836 0.7526 -0.5942
vn 0.3023 0.7483 -0.5905
vn 0.2914 0.7535 -0.5894
vn 0.3032 0.7437 -0.5959
vn 0.2834 0.7439 -0.6053
vn 0.2933 0.7377 -0.6081
vn 0.2993 0.7389 -0.6037
vn 0.3059 0.7364 -0.6034
vn 0.3084 0.7394 -0.5984
vn 0.2720 0.7582 -0.5926
vn 0.3082 0.7643 -0.5665
vn 0.2761 0.7266 -0.6291
vn 0.2907 0.7563 -0.5861
vn 0.2797 0.7432 -0.6077
vn 0.2799 0.7527 -0.5959
vn 0.2800 0.7527 -0.5958
vn 0.2800 0.7527 -0.5959
vn 0.2800 0.7526 -0.5960
vn 0.2799 0.7528 -0.5958
vn 0.2800 0.7526 -0.5959
vn 0.2801 0.7529 -0.5956
usemtl dhd_button_light.014
s 1
f 1/1/1 3/2/2 4/3/1
f 2/4/3 5/5/4 3/2/2
f 6/6/5 7/7/6 8/8/7
f 9/9/8 10/10/9 11/11/10
f 12/12/11 13/13/12 14/14/13
f 15/15/14 17/16/15 18/17/14
f 1/1/1 20/18/16 19/19/16
f 8/8/7 19/19/16 20/18/16
f 17/16/15 9/9/8 11/11/10
f 13/13/12 18/17/14 14/14/13
f 10/10/9 21/20/17 6/6/5
f 22/21/18 12/12/11 5/5/4
f 2/4/3 22/21/18 5/5/4
f 6/6/5 21/20/17 7/7/6
f 9/9/8 23/22/19 10/10/9
f 12/12/11 24/23/20 13/13/12
f 10/10/9 23/22/19 21/20/17
f 22/21/18 24/23/20 12/12/11
f 25/24/21 26/25/22 27/26/23
f 28/27/23 29/28/23 30/29/21
f 31/30/21 32/31/21 33/32/23
f 34/33/21 28/27/23 30/29/21
f 31/30/21 33/32/23 35/34/23
f 36/35/23 37/36/24 38/37/23
f 37/36/24 39/38/24 38/37/23
f 31/30/21 35/34/23 36/35/23
f 40/39/25 34/33/21 41/40/21
f 34/33/21 30/29/21 41/40/21
f 30/29/21 31/30/21 36/35/23
f 39/38/24 42/41/26 43/42/24
f 42/41/26 44/43/23 43/42/24
f 44/43/23 25/24/21 27/26/23
f 43/42/24 44/43/23 27/26/23
f 25/24/21 45/44/21 26/25/22
f 45/44/21 46/45/21 26/25/22
f 46/45/21 47/46/27 26/25/22
f 39/38/24 43/42/24 38/37/23
f 41/40/21 30/29/21 38/37/23
f 30/29/21 36/35/23 38/37/23
f 1/1/1 2/4/3 3/2/2
f 15/15/14 16/47/15 17/16/15
f 1/1/1 4/3/1 20/18/16
f 8/8/7 7/7/6 19/19/16
f 17/16/15 16/47/15 9/9/8
f 13/13/12 15/15/14 18/17/14
