# WaveFront *.obj file (generated by Cinema 4D)

mtllib ./33.mtl

v 0.362399995327 1.07458400726318 -0.03950899839401
v 0.36037600040436 1.06199705600739 -0.06044099852443
v 0.35324400663376 1.06430602073669 -0.0608230009675
v 0.35522401332855 1.07661604881287 -0.04035200178623
v 0.35554599761963 1.08878099918365 -0.02109299972653
v 0.36267098784447 1.08691394329071 -0.01964199915528
v 0.20259800553322 1.11554598808289 -0.07061500102282
v 0.2036650031805 1.12218296527863 -0.05957899987698
v 0.21072800457478 1.11986601352692 -0.05849799886346
v 0.20960800349712 1.11290395259857 -0.07007499784231
v 0.35201498866081 1.0408810377121 -0.09740599989891
v 0.20665000379086 1.10510802268982 -0.08405400067568
v 0.34696400165558 1.04752194881439 -0.09086500108242
v 0.35469299554825 1.09560596942902 -0.01090299990028
v 0.2036630064249 1.12873494625092 -0.04911199957132
v 0.21044300496578 1.128741979599 -0.04475399851799
v 0.21075899899006 1.12687504291534 -0.04749299958348
v 0.35679799318314 1.05038404464722 -0.08039099723101
v 0.34981599450111 1.05314302444458 -0.08035799860954
v 0.20056599378586 1.10947597026825 -0.08113899827003
v 0.20749300718307 1.10657298564911 -0.08125600218773
v 0.36116299033165 1.09777796268463 -0.00278800004162
v 0.19776999950409 1.10456502437592 -0.09012299776077
v 0.20259299874306 1.13456094264984 -0.04023899883032
v 0.29018598794937 1.10001397132874 -0.05699700117111
v 0.31275999546051 1.09793877601624 -0.04682474955916
v 0.32916098833084 1.08065700531006 -0.06415800005198
v 0.26607349514961 1.10228204727173 -0.06778225302696
v 0.28863999247551 1.09995198249817 -0.0580140016973
v 0.24985699355602 1.11952102184296 -0.05040699988604
v 0.31427499651909 1.10881996154785 -0.02886899933219
v 0.26422500610352 1.09139895439148 -0.0859389975667
v 0.25995099544525 1.09360194206238 -0.08502800017595
v 0.31857201457024 1.10663998126984 -0.02973099984229
# 34 vertices

vn 0.2952187359333 0.80693751573563 -0.51146876811981
vn 0.29481250047684 0.80487501621246 -0.51484376192093
vn 0.3075937628746 0.80346876382828 -0.50965625047684
vn 0.33403125405312 0.79121875762939 -0.5120000243187
vn 0.33450001478195 0.79468750953674 -0.50646877288818
vn 0.33396875858307 0.79131251573563 -0.51181250810623
vn 0.31131249666214 0.77906250953674 -0.54403126239777
vn 0.31184375286102 0.79509377479553 -0.52006250619888
vn 0.31453123688698 0.77734375 -0.54468750953674
vn 0.3125 0.80409377813339 -0.50575000047684
vn 0.31781250238419 0.81887501478195 -0.47775000333786
vn 0.32803124189377 0.79793751239777 -0.50540626049042
vn 0.31356251239777 0.80543750524521 -0.50278127193451
vn 0.32506251335144 0.80228126049042 -0.50053125619888
vn 0.30706250667572 0.80065625905991 -0.51431250572205
vn 0.29481250047684 0.80500000715256 -0.51484376192093
vn 0.3272500038147 0.79262501001358 -0.51428127288818
vn 0.32303124666214 0.79068750143051 -0.51984375715256
vn 0.32115626335144 0.81834375858307 -0.47650000452995
vn 0.31131249666214 0.79706251621246 -0.51734375953674
vn 0.30912500619888 0.79381251335144 -0.52350002527237
vn 0.3115000128746 0.80803126096725 -0.49987500905991
vn 0.3046875 0.8028125166893 -0.51225000619888
vn 0.30459374189377 0.80293750762939 -0.51225000619888
vn 0.3046875 0.80293750762939 -0.51225000619888
vn 0.30465623736382 0.80284374952316 -0.51225000619888
vn 0.30456250905991 0.80293750762939 -0.51225000619888
# 27 normals

vt 0.55509102344513 0.88197499513626 0
vt 0.4368399977684 0.88197499513626 0
vt 0.55642592906952 0.91898399591446 0
vt 0 1 0
vt 0.66719794273376 0.87387502193451 0
vt 0.46247500181198 0.13295304775238 0
vt 0.52934992313385 0.13295304775238 0
vt 0.46404200792313 0.09593105316162 0
vt 0.26519095897675 0.86421400308609 0
vt 0.38261699676514 0.12452006340027 0
vt 0.22280299663544 0.89486300945282 0
vt 0.67149698734283 0.91066896915436 0
vt 0.72706294059753 0.86420100927353 0
vt 0.59349298477173 0.12752997875214 0
vt 0.60963594913483 0.12448298931122 0
vt 0.58848798274994 0.09081399440765 0
vt 0.32485300302505 0.87387502193451 0
vt 0.43550395965576 0.9189829826355 0
vt 0.39846301078796 0.1275269985199 0
vt 0.40349096059799 0.09081304073334 0
vt 0.76945292949677 0.89486300945282 0
vt 0.32054698467255 0.91066801548004 0
vt 0.35205501317978 0.08106207847595 0
vt 0.64020502567291 0.08106207847595 0
vt 0.3460179567337 0.71662902832031 0
vt 0.41466248035431 0.60820478200912 0
vt 0.3460179567337 0.52454203367233 0
vt 0.65777802467346 0.60186100006104 0
vt 0.65812397003174 0.58054602146149 0
vt 0.56978476047516 0.60814303159714 0
vt 0.52778697013855 0.09593105316162 0
vt 0.50207197666168 0.52454203367233 0
vt 0.50207197666168 0.71662700176239 0
vt 0.50207197666168 0.58053404092789 0
vt 0.5017249584198 0.60185199975967 0
# 35 texture coordinates

o buttons.008
usemtl dhd_button_light.013
f 1/3/1 3/2/2 4/1/1
f 5/5/3 1/3/1 4/1/1
f 7/8/6 9/7/5 10/6/4
f 11/11/9 12/10/8 13/9/7
f 14/13/11 6/12/10 5/5/3
f 15/16/14 16/15/13 17/14/12
f 2/18/16 19/17/15 3/2/2
f 20/20/18 10/6/4 21/19/17
f 9/7/5 15/16/14 17/14/12
f 16/15/13 22/21/19 14/13/11
f 18/22/20 13/9/7 19/17/15
f 12/10/8 20/20/18 21/19/17
f 11/11/9 23/23/21 12/10/8
f 14/13/11 22/21/19 6/12/10
f 15/16/14 24/24/22 16/15/13
f 16/15/13 24/24/22 22/21/19
f 18/22/20 11/11/9 13/9/7
f 12/10/8 23/23/21 20/20/18
f 25/27/25 26/26/24 27/25/23
f 5/5/3 6/12/10 1/3/1
f 28/30/26 32/29/23 33/28/23
f 9/7/5 8/31/5 15/16/14
f 20/20/18 7/8/6 10/6/4
f 28/30/26 30/33/23 29/32/27
f 30/33/23 28/30/26 33/28/23
f 1/3/1 2/18/16 3/2/2
f 26/26/24 25/27/25 31/34/27
f 28/30/26 29/32/27 32/29/23
f 7/8/6 8/31/5 9/7/5
f 31/34/27 34/35/27 26/26/24
f 34/35/27 27/25/23 26/26/24
f 2/18/16 18/22/20 19/17/15

