# WaveFront *.obj file (generated by Cinema 4D)

mtllib ./33_base.mtl

v 0.35782599449158 1.05517101287842 -0.05631300061941
v 0.35425201058388 1.04356396198273 -0.07625199854374
v 0.35679799318314 1.05038404464722 -0.08039099723101
v 0.36037600040436 1.06199705600739 -0.06044099852443
v 0.35984700918198 1.06775295734406 -0.03539000079036
v 0.362399995327 1.07458400726318 -0.03950899839401
v 0.2036630064249 1.12873494625092 -0.04911199957132
v 0.20110699534416 1.12189900875092 -0.04500100016594
v 0.20003700256348 1.12772595882416 -0.03612799942493
v 0.20259299874306 1.13456094264984 -0.04023899883032
v 0.21072800457478 1.11986601352692 -0.05849799886346
v 0.21075899899006 1.12687504291534 -0.04749299958348
v 0.35554599761963 1.08878099918365 -0.02109299972653
v 0.35860699415207 1.09094202518463 0.00132299994584
v 0.36011600494385 1.08007895946503 -0.01553000044078
v 0.36267098784447 1.08691394329071 -0.01964199915528
v 0.36116299033165 1.09777796268463 -0.00278800004162
v 0.20259800553322 1.11554598808289 -0.07061500102282
v 0.20004199445248 1.1087110042572 -0.06650400161743
v 0.20110900700092 1.11534702777863 -0.05546800047159
v 0.2036650031805 1.12218296527863 -0.05957899987698
v 0.34945800900459 1.03404498100281 -0.09329599887133
v 0.35201498866081 1.0408810377121 -0.09740599989891
v 0.19776999950409 1.10456502437592 -0.09012299776077
v 0.19521400332451 1.09772896766663 -0.08601199835539
v 0.19800999760628 1.10264003276825 -0.07702899724245
v 0.20056599378586 1.10947597026825 -0.08113899827003
v 0.21044300496578 1.128741979599 -0.04475399851799
v 0.35469299554825 1.09560596942902 -0.01090299990028
v 0.35522401332855 1.07661604881287 -0.04035200178623
v 0.35324400663376 1.06430602073669 -0.0608230009675
v 0.34981599450111 1.05314302444458 -0.08035799860954
v 0.20960800349712 1.11290395259857 -0.07007499784231
v 0.34696400165558 1.04752194881439 -0.09086500108242
v 0.20749300718307 1.10657298564911 -0.08125600218773
v 0.20665000379086 1.10510802268982 -0.08405400067568
v 0.28790101408958 1.09399199485779 -0.05315500125289
v 0.31816399097443 1.08285105228424 -0.05261899903417
v 0.29937499761581 1.09218204021454 -0.04916699975729
v 0.2562490105629 1.10533702373505 -0.05419699847698
v 0.2863549888134 1.09393000602722 -0.05417200177908
v 0.24757200479507 1.11349904537201 -0.04656400159001
v 0.26194000244141 1.08537697792053 -0.08209700137377
v 0.2749460041523 1.09590303897858 -0.05786399915814
v 0.2626020014286 1.0915789604187 -0.07198300212622
v 0.31280601024628 1.09599995613098 -0.03519700095057
v 0.31628701090813 1.10061800479889 -0.02588799968362
v 0.31155499815941 1.0966340303421 -0.03494700044394
v 0.32687601447105 1.07463502883911 -0.06031500175595
v 0.29018598794937 1.10001397132874 -0.05699700117111
v 0.32916098833084 1.08065700531006 -0.06415800005198
v 0.31198900938034 1.1027979850769 -0.02502599917352
v 0.31857201457024 1.10663998126984 -0.02973099984229
v 0.26135700941086 1.09222102165222 -0.07171700149775
v 0.25995099544525 1.09360194206238 -0.08502800017595
v 0.31427499651909 1.10881996154785 -0.02886899933219
v 0.28863999247551 1.09995198249817 -0.0580140016973
v 0.25766599178314 1.08757996559143 -0.08118599653244
v 0.26422500610352 1.09139895439148 -0.0859389975667
v 0.24985699355602 1.11952102184296 -0.05040699988604
# 60 vertices

vn 0.94615626335144 -0.31818750500679 0.05837500095367
vn 0.93456250429153 -0.35556250810623 -0.01096875034273
vn 0.94606250524521 -0.3186562359333 0.05725000053644
vn 0.95146876573563 -0.28275001049042 0.12078125029802
vn 0.95146876573563 -0.28318750858307 0.11996874958277
vn -0.94678127765656 0.20456250011921 -0.24850000441074
vn -0.95074999332428 0.23168750107288 -0.20584374666214
vn 0.3046875 0.80296874046326 -0.51225000619888
vn 0.3046875 0.80296874046326 -0.51215624809265
vn 0.3046875 0.80284374952316 -0.51225000619888
vn 0.94918751716614 -0.21896874904633 0.22609375417233
vn 0.95165622234344 -0.24184374511242 0.18915624916553
vn 0.94918751716614 -0.21887500584126 0.22609375417233
vn -0.95165622234344 0.279875010252 -0.12624999880791
vn -0.95159375667572 0.28046876192093 -0.12524999678135
vn -0.94534373283386 0.32150000333786 -0.0532812513411
vn -0.07484374940395 0.5342812538147 0.8418750166893
vn -0.07484374940395 0.53437501192093 0.8418750166893
vn 0.92518752813339 -0.37606251239777 -0.05009375140071
vn 0.93415623903275 -0.3564687371254 -0.01265625003725
vn -0.95074999332428 0.23209375143051 -0.20515625178814
vn -0.93065625429153 0.36478126049042 0.02800000086427
vn -0.93015623092651 0.36587500572205 0.03018750064075
vn -0.91868752241135 0.38784375786781 0.073875002563
vn -0.94515627622604 0.32218751311302 -0.0518437512219
vn -0.22265625 -0.4397499859333 -0.8700937628746
vn -0.22265625 -0.4397499859333 -0.87000000476837
vn -0.22265625 -0.43987500667572 -0.87000000476837
vn 0.95165622234344 -0.2421875 0.1885624974966
vn -0.3046875 -0.80296874046326 0.51215624809265
vn -0.3046875 -0.80284374952316 0.51225000619888
vn -0.3046875 -0.80296874046326 0.51225000619888
vn -0.30456250905991 -0.80296874046326 0.51225000619888
vn -0.30456250905991 -0.80296874046326 0.51215624809265
vn -0.35528126358986 -0.4033437371254 -0.84328126907349
vn -0.35518750548363 -0.40325000882149 -0.84328126907349
vn -0.35528126358986 -0.40325000882149 -0.84328126907349
vn -0.71178126335144 0.54925000667572 0.43765625357628
vn -0.71178126335144 0.54934376478195 0.43759375810623
vn -0.71178126335144 0.54925000667572 0.43759375810623
vn 0.70409375429153 -0.55206251144409 -0.44650000333786
vn -0.38009375333786 -0.39065626263618 -0.83834373950958
vn -0.92487502098084 0.12109375 -0.36028125882149
vn -0.92500001192093 0.12109375 -0.36028125882149
vn 0.92518752813339 -0.37618750333786 -0.05009375140071
vn 0.92206251621246 -0.1140000000596 0.36965626478195
vn 0.36956250667572 0.39609375596046 0.84046876430511
vn 0.36950001120567 0.3961875140667 0.84046876430511
vn 0.36587500572205 0.39800000190735 0.84125000238419
vn 0.36575001478195 0.39787501096725 0.84125000238419
vn 0.36575001478195 0.39800000190735 0.84125000238419
vn -0.71178126335144 0.54934376478195 0.4375
vn -0.92500001192093 0.12096875160933 -0.36028125882149
# 53 normals

vt 0.93526792526245 0.78847098350525 0
vt 0.93051695823669 0.78832000494003 0
vt 0.93537998199463 0.79029405117035 0
vt 0 1 0
vt 0.94008100032806 0.78747797012329 0
vt 0.94060397148132 0.78916800022125 0
vt 0.93869495391846 0.76110899448395 0
vt 0.93975102901459 0.75940096378326 0
vt 0.93702900409698 0.76103103160858 0
vt 0.91587102413177 0.94451498985291 0
vt 0.91842997074127 0.97043001651764 0
vt 0.92065691947937 0.97024202346802 0
vt 0.94665193557739 0.7831050157547 0
vt 0.94417595863342 0.78560602664948 0
vt 0.94824600219727 0.78370100259781 0
vt 0.9345920085907 0.76120400428772 0
vt 0.93433094024658 0.75934398174286 0
vt 0.93185293674469 0.76167500019073 0
vt 0.92717599868774 0.78732705116272 0
vt 0.92996501922607 0.79021900892258 0
vt 0.93709099292755 0.75914704799652 0
vt 0.92923891544342 0.7624009847641 0
vt 0.92826402187347 0.76056599617004 0
vt 0.92748296260834 0.7632110118866 0
vt 0.93135201931 0.75975400209427 0
vt 0.92589592933655 0.78825300931931 0
vt 0.92589592933655 0.76227200031281 0
vt 0.9451949596405 0.78702902793884 0
vt 0.9137909412384 0.94485002756119 0
vt 0.91786897182465 0.97053599357605 0
vt 0.91976296901703 0.9442350268364 0
vt 0.92386901378632 0.9442350268364 0
vt 0.92297899723053 0.97024202346802 0
vt 0.92775702476501 0.94451498985291 0
vt 0.92520093917847 0.97043001651764 0
vt 0.9298290014267 0.94485002756119 0
vt 0.92575097084045 0.97053402662277 0
vt 0.0463799983263 0.98296999931335 0
vt 0.04627700150013 0.98039400577545 0
vt 0.04569900035858 0.9841930270195 0
vt 0.95376396179199 0.97294199466705 0
vt 0.95425391197205 0.9779360294342 0
vt 0.95482993125916 0.9743310213089 0
vt 0.95729291439056 0.97558301687241 0
vt 0.95489501953125 0.9767490029335 0
vt 0.95895397663116 0.97590899467468 0
vt 0.04868900030851 0.98182600736618 0
vt 0.05015299469233 0.98147797584534 0
vt 0.04867900162935 0.98157799243927 0
vt 0.04403100162745 0.97715097665787 0
vt 0.04403100162745 0.98619401454926 0
vt 0.0451980009675 0.97892099618912 0
vt 0.05262299627066 0.9831759929657 0
vt 0.95247399806976 0.98089200258255 0
vt 0.96102201938629 0.97640198469162 0
vt 0.95897591114044 0.97513997554779 0
vt 0.96079397201538 0.97457200288773 0
vt 0.95247399806976 0.97072601318359 0
vt 0.05293799936771 0.98065602779388 0
vt 0.05021800100803 0.98216301202774 0
vt 0.95726299285889 0.97529399394989 0
# 61 texture coordinates

o buttons.044
usemtl dhd.021
f 1/3/3 3/2/2 4/1/1
f 5/6/5 4/1/1 6/5/4
f 7/9/7 9/8/6 10/7/6
f 11/12/10 12/11/9 13/10/8
f 14/15/13 16/14/12 17/13/11
f 18/18/16 20/17/15 21/16/14
f 17/13/17 9/8/18 14/15/17
f 2/20/20 23/19/19 3/2/2
f 21/16/14 8/21/21 7/9/7
f 24/24/24 26/23/23 27/22/22
f 27/22/22 19/25/25 18/18/16
f 25/27/28 23/19/27 22/26/26
f 15/28/29 6/5/4 16/14/12
f 28/30/9 29/29/10 12/11/9
f 29/29/10 13/10/8 12/11/9
f 13/10/8 30/31/8 11/12/10
f 30/31/8 31/32/10 11/12/10
f 31/32/10 32/34/8 33/33/10
f 32/34/8 34/36/8 35/35/8
f 31/32/10 33/33/10 11/12/10
f 34/36/8 36/37/9 35/35/8
f 35/35/8 33/33/10 32/34/8
f 37/40/32 38/39/31 39/38/30
f 40/43/32 41/42/33 42/41/32
f 43/46/31 44/45/32 45/44/31
f 46/49/32 47/48/34 48/47/33
f 49/52/37 50/51/36 51/50/35
f 15/28/29 5/6/5 6/5/4
f 25/27/28 24/24/28 23/19/27
f 27/22/22 26/23/23 19/25/25
f 37/40/40 56/53/39 50/51/38
f 43/46/41 57/54/41 41/42/41
f 58/56/42 59/55/42 43/46/42
f 24/24/24 25/27/24 26/23/23
f 21/16/14 20/17/15 8/21/21
f 58/56/43 60/58/44 55/57/43
f 2/20/20 22/26/45 23/19/19
f 49/52/46 53/59/46 47/48/46
f 52/60/48 53/59/47 56/53/47
f 42/41/51 57/54/50 60/58/49
f 17/13/17 10/7/18 9/8/18
f 18/18/16 19/25/25 20/17/15
f 37/40/32 49/52/31 38/39/31
f 40/43/32 44/45/32 41/42/33
f 54/61/33 40/43/32 58/56/31
f 40/43/32 42/41/32 58/56/31
f 58/56/31 43/46/31 45/44/31
f 54/61/33 58/56/31 45/44/31
f 43/46/31 41/42/33 44/45/32
f 49/52/31 47/48/34 38/39/31
f 47/48/34 52/60/34 48/47/33
f 38/39/31 47/48/34 46/49/32
f 52/60/34 37/40/32 39/38/30
f 52/60/34 39/38/30 48/47/33
f 49/52/37 37/40/36 50/51/36
f 14/15/13 15/28/29 16/14/12
f 7/9/7 8/21/21 9/8/6
f 5/6/5 1/3/3 4/1/1
f 37/40/40 52/60/52 56/53/39
f 43/46/41 59/55/41 57/54/41
f 58/56/42 55/57/42 59/55/42
f 1/3/3 2/20/20 3/2/2
f 42/41/51 41/42/50 57/54/50
f 58/56/43 42/41/53 60/58/44
f 52/60/48 47/48/48 53/59/47
f 49/52/46 51/50/46 53/59/46

