# Blender v3.1.2 OBJ File: ''
# www.blender.org
mtllib 34.mtl
o buttons.009
v 0.201118 1.144190 -0.023411
v 0.199095 1.150261 -0.012885
v 0.206017 1.148817 -0.010352
v 0.208188 1.142491 -0.021525
v 0.329670 1.154629 0.087251
v 0.341102 1.147606 0.081287
v 0.334454 1.148289 0.077867
v 0.208414 1.140972 -0.024412
v 0.348437 1.135884 0.062431
v 0.354454 1.123640 0.042069
v 0.347428 1.124731 0.039663
v 0.341544 1.136705 0.059575
v 0.358564 1.112072 0.022195
v 0.351489 1.113623 0.020219
v 0.202690 1.155589 0.000909
v 0.195923 1.156716 -0.002150
v 0.191912 1.162923 0.007743
v 0.198484 1.162239 0.011317
v 0.197111 1.163961 0.013814
v 0.333168 1.157658 0.096791
v 0.360364 1.102313 0.004754
v 0.352656 1.107857 0.009470
v 0.201794 1.139096 -0.032697
v 0.187456 1.168275 0.015826
v 0.297834 1.137624 0.013443
v 0.316196 1.128593 0.008103
v 0.306139 1.132421 0.008785
v 0.244969 1.144900 -0.008719
v 0.237544 1.148627 -0.006410
v 0.244985 1.147871 -0.002754
v 0.252986 1.142449 -0.008059
v 0.261742 1.144428 0.001994
v 0.258732 1.145176 0.001401
v 0.306658 1.128472 0.001230
v 0.278374 1.155191 0.035129
v 0.283765 1.157057 0.042618
v 0.277210 1.161118 0.046202
v 0.271753 1.153783 0.027704
v 0.266087 1.158758 0.033739
v 0.257658 1.146497 0.003302
v 0.284913 1.157741 0.044787
v 0.249222 1.140765 -0.014052
v 0.242496 1.143427 -0.013391
v 0.240283 1.150257 -0.001239
vt 0.403491 0.090814
vt 0.462476 0.132953
vt 0.398464 0.127528
vt 0.727063 0.864201
vt 0.671497 0.910669
vt 0.667198 0.873875
vt 0.382618 0.124520
vt 0.556426 0.918984
vt 0.436841 0.881975
vt 0.555091 0.881975
vt 0.435504 0.918983
vt 0.324854 0.873876
vt 0.529351 0.132954
vt 0.588488 0.090814
vt 0.593494 0.127531
vt 0.527787 0.095931
vt 0.464043 0.095932
vt 0.609636 0.124484
vt 0.769453 0.894863
vt 0.222803 0.894863
vt 0.265191 0.864214
vt 0.320547 0.910668
vt 0.352055 0.081063
vt 0.640205 0.081063
vt 0.546048 0.571373
vt 0.627708 0.524542
vt 0.592060 0.556677
vt 0.462864 0.814749
vt 0.429238 0.833252
vt 0.438772 0.797444
vt 0.486411 0.785652
vt 0.474358 0.726884
vt 0.466912 0.738804
vt 0.624331 0.576766
vt 0.394640 0.574650
vt 0.381960 0.534711
vt 0.346018 0.546572
vt 0.403037 0.618580
vt 0.360085 0.620342
vt 0.455707 0.736953
vt 0.376934 0.524542
vt 0.498353 0.815750
vt 0.473682 0.836648
vt 0.417266 0.809010
vn 0.3181 0.8458 -0.4283
vn 0.3261 0.8481 -0.4176
vn 0.3201 0.8483 -0.4218
vn 0.2966 0.8718 -0.3899
vn 0.3018 0.8569 -0.4179
vn 0.2983 0.8556 -0.4230
vn 0.3067 0.8482 -0.4318
vn 0.2865 0.8570 -0.4283
vn 0.2874 0.8550 -0.4316
vn 0.2996 0.8529 -0.4276
vn 0.3244 0.8514 -0.4122
vn 0.3124 0.8571 -0.4096
vn 0.3175 0.8535 -0.4132
vn 0.3244 0.8514 -0.4123
vn 0.3259 0.8482 -0.4175
vn 0.3017 0.8584 -0.4149
vn 0.2994 0.8718 -0.3877
vn 0.3191 0.8319 -0.4541
vn 0.3156 0.8330 -0.4544
vn 0.3051 0.8501 -0.4292
vn 0.3053 0.8467 -0.4357
vn 0.2985 0.8606 -0.4127
vn 0.2964 0.8547 -0.4263
vn 0.2964 0.8546 -0.4263
vn 0.2964 0.8546 -0.4264
vn 0.2963 0.8546 -0.4264
vn 0.2963 0.8546 -0.4263
vn 0.2963 0.8547 -0.4263
usemtl dhd_button_light.012
s 1
f 1/1/1 3/2/2 4/3/3
f 5/4/4 6/5/5 7/6/6
f 8/7/7 1/1/1 4/3/3
f 9/8/8 11/9/9 12/10/8
f 10/11/9 14/12/10 11/9/9
f 15/13/11 17/14/12 18/15/13
f 7/6/6 9/8/8 12/10/8
f 16/16/14 3/2/2 2/17/15
f 19/18/16 20/19/17 5/4/4
f 21/20/18 8/7/7 22/21/19
f 13/22/20 22/21/19 14/12/10
f 17/14/12 19/18/16 18/15/13
f 5/4/4 20/19/17 6/5/5
f 8/7/7 23/23/21 1/1/1
f 19/18/16 24/24/22 20/19/17
f 21/20/18 23/23/21 8/7/7
f 13/22/20 21/20/18 22/21/19
f 17/14/12 24/24/22 19/18/16
f 25/25/23 26/26/24 27/27/23
f 28/28/25 29/29/26 30/30/25
f 27/27/23 31/31/25 32/32/25
f 31/31/25 33/33/25 32/32/25
f 26/26/24 34/34/25 27/27/23
f 35/35/24 36/36/24 25/25/23
f 36/36/24 26/26/24 25/25/23
f 27/27/23 32/32/25 25/25/23
f 36/36/24 35/35/24 37/37/24
f 35/35/24 38/38/27 39/39/27
f 37/37/24 35/35/24 39/39/27
f 40/40/25 33/33/25 30/30/25
f 33/33/25 31/31/25 30/30/25
f 41/41/25 36/36/24 37/37/24
f 31/31/25 42/42/23 28/28/25
f 31/31/25 28/28/25 30/30/25
f 42/42/23 43/43/23 28/28/25
f 38/38/27 40/40/25 39/39/27
f 30/30/25 39/39/27 40/40/25
f 29/29/26 44/44/28 30/30/25
f 1/1/1 2/17/15 3/2/2
f 9/8/8 10/11/9 11/9/9
f 10/11/9 13/22/20 14/12/10
f 15/13/11 16/16/14 17/14/12
f 7/6/6 6/5/5 9/8/8
f 16/16/14 15/13/11 3/2/2
