# Blender v3.1.2 OBJ File: ''
# www.blender.org
mtllib 34_base.mtl
o buttons.045
v 0.346019 1.128625 0.065839
v 0.352035 1.116386 0.045487
v 0.354454 1.123640 0.042069
v 0.348437 1.135884 0.062431
v 0.333168 1.157658 0.096791
v 0.187456 1.168275 0.015826
v 0.185038 1.161011 0.019225
v 0.330750 1.150394 0.100191
v 0.191912 1.162923 0.007743
v 0.189495 1.155660 0.011143
v 0.199095 1.150261 -0.012885
v 0.196677 1.142998 -0.009485
v 0.193505 1.149453 0.001249
v 0.195923 1.156716 -0.002150
v 0.338685 1.140344 0.084688
v 0.341102 1.147606 0.081287
v 0.201118 1.144190 -0.023411
v 0.198700 1.136926 -0.020011
v 0.202690 1.155589 0.000909
v 0.198484 1.162239 0.011317
v 0.334454 1.148289 0.077867
v 0.199377 1.131833 -0.029298
v 0.201794 1.139096 -0.032697
v 0.360364 1.102313 0.004754
v 0.357945 1.095073 0.008197
v 0.356145 1.104825 0.025625
v 0.358564 1.112072 0.022195
v 0.197111 1.163961 0.013814
v 0.329670 1.154629 0.087251
v 0.341544 1.136705 0.059575
v 0.347428 1.124731 0.039663
v 0.351489 1.113623 0.020219
v 0.206017 1.148817 -0.010352
v 0.352656 1.107857 0.009470
v 0.208188 1.142491 -0.021525
v 0.208414 1.140972 -0.024412
v 0.303917 1.126011 0.011982
v 0.295611 1.131214 0.016640
v 0.259519 1.138018 0.005191
v 0.256510 1.138767 0.004599
v 0.255435 1.140087 0.006499
v 0.242762 1.141461 0.000444
v 0.240283 1.150257 -0.001239
v 0.238060 1.143847 0.001958
v 0.237544 1.148627 -0.006410
v 0.235322 1.142217 -0.003213
v 0.304435 1.122062 0.004428
v 0.306139 1.132421 0.008785
v 0.306658 1.128472 0.001230
v 0.242746 1.138490 -0.005522
v 0.242496 1.143427 -0.013391
v 0.240273 1.137018 -0.010193
v 0.244969 1.144900 -0.008719
v 0.316196 1.128593 0.008103
v 0.313973 1.122183 0.011300
v 0.249222 1.140765 -0.014052
v 0.246999 1.134355 -0.010854
v 0.269530 1.147373 0.030902
v 0.278374 1.155191 0.035129
v 0.276151 1.148781 0.038327
v 0.258732 1.145176 0.001401
v 0.257658 1.146497 0.003302
v 0.271753 1.153783 0.027704
v 0.250764 1.136039 -0.004862
v 0.263864 1.152348 0.036936
v 0.277210 1.161118 0.046202
v 0.266087 1.158758 0.033739
v 0.282690 1.151332 0.047985
v 0.274988 1.154709 0.049400
v 0.244985 1.147871 -0.002754
v 0.261742 1.144428 0.001994
v 0.297834 1.137624 0.013443
v 0.281542 1.150648 0.045815
v 0.283765 1.157057 0.042618
v 0.284913 1.157741 0.044787
v 0.252986 1.142449 -0.008059
vt 0.928227 0.811323
vt 0.923580 0.808309
vt 0.929067 0.809622
vt 0.936636 0.816293
vt 0.925738 0.837967
vt 0.934937 0.816552
vt 0.924129 0.839969
vt 0.926561 0.839198
vt 0.918294 0.839058
vt 0.921327 0.837846
vt 0.921116 0.839723
vt 0.932417 0.814318
vt 0.933767 0.812802
vt 0.915827 0.838230
vt 0.918694 0.837325
vt 0.963339 0.574117
vt 0.961112 0.574305
vt 0.958553 0.548391
vt 0.915023 0.836015
vt 0.913791 0.810714
vt 0.915384 0.811957
vt 0.918687 0.810337
vt 0.918253 0.808497
vt 0.913791 0.837091
vt 0.916469 0.836649
vt 0.923344 0.810150
vt 0.923918 0.838090
vt 0.960551 0.574411
vt 0.956474 0.548726
vt 0.962445 0.548110
vt 0.966551 0.548110
vt 0.970439 0.548391
vt 0.965661 0.574117
vt 0.972511 0.548725
vt 0.967883 0.574305
vt 0.968433 0.574410
vt 0.927540 0.794459
vt 0.929197 0.795349
vt 0.931885 0.800614
vt 0.932373 0.801069
vt 0.933010 0.801132
vt 0.933836 0.804064
vt 0.934770 0.805213
vt 0.934039 0.804879
vt 0.934107 0.805900
vt 0.933715 0.805081
vt 0.926653 0.794038
vt 0.926586 0.795206
vt 0.925896 0.794194
vt 0.932833 0.804689
vt 0.931854 0.805814
vt 0.932074 0.804985
vt 0.932656 0.805916
vt 0.926281 0.792615
vt 0.926941 0.793547
vt 0.930903 0.805058
vt 0.931796 0.804557
vt 0.935244 0.797127
vt 0.934017 0.796044
vt 0.934844 0.795286
vt 0.932626 0.799876
vt 0.932922 0.799816
vt 0.934064 0.797137
vt 0.931798 0.803526
vt 0.936627 0.796933
vt 0.937677 0.793775
vt 0.937863 0.797065
vt 0.935944 0.793753
vt 0.936429 0.794466
vt 0.935011 0.804469
vt 0.932450 0.799625
vt 0.931000 0.796570
vt 0.935553 0.793857
vt 0.935799 0.792615
vt 0.936196 0.792689
vt 0.930579 0.803963
vn 0.9140 -0.1228 0.3868
vn 0.9319 -0.1567 0.3270
vn 0.9137 -0.1224 0.3875
vn -0.3945 0.4940 0.7748
vn -0.3945 0.4939 0.7749
vn -0.8807 0.0741 -0.4678
vn -0.8605 0.0491 -0.5070
vn -0.8605 0.0492 -0.5070
vn -0.9331 0.1599 -0.3220
vn -0.9121 0.1203 -0.3919
vn -0.9118 0.1197 -0.3928
vn 0.8882 -0.0840 0.4517
vn 0.8879 -0.0837 0.4523
vn -0.9491 0.2032 -0.2408
vn -0.9335 0.1607 -0.3206
vn 0.2964 0.8546 -0.4263
vn 0.2964 0.8546 -0.4264
vn 0.8715 -0.0624 0.4864
vn 0.1043 -0.4525 -0.8856
vn 0.1043 -0.4526 -0.8856
vn 0.9468 -0.1947 0.2563
vn 0.9521 -0.2144 0.2183
vn 0.9465 -0.1939 0.2580
vn -0.9544 0.2269 -0.1940
vn -0.9494 0.2043 -0.2386
vn 0.9322 -0.1572 0.3260
vn -0.8810 0.0745 -0.4672
vn 0.2964 0.8546 -0.4265
vn 0.2964 0.8547 -0.4263
vn 0.2963 0.8546 -0.4265
vn -0.2964 -0.8547 0.4262
vn -0.2963 -0.8547 0.4263
vn -0.2964 -0.8546 0.4264
vn -0.2965 -0.8546 0.4264
vn 0.4213 0.2836 0.8615
vn -0.8420 0.4444 0.3058
vn -0.9532 0.2362 -0.1889
vn -0.9531 0.2363 -0.1890
vn -0.8420 0.4446 0.3057
vn -0.4131 -0.2877 -0.8640
vn 0.5040 -0.5191 -0.6903
vn -0.2341 -0.3678 -0.9000
vn 0.7623 -0.4806 -0.4335
vn 0.6913 -0.5000 -0.5216
vn 0.8572 -0.0411 0.5134
vn 0.8570 -0.0409 0.5136
vn 0.8232 -0.4549 -0.3397
vn 0.1787 -0.4881 -0.8543
vn -0.7620 0.4807 0.4339
vn -0.6910 0.5000 0.5220
vn 0.3107 0.3360 0.8892
vn -0.8229 0.4551 0.3401
vn -0.1790 0.4881 0.8542
vn -0.1194 0.4760 0.8713
vn -0.1193 0.4759 0.8713
vn -0.7648 -0.0549 -0.6419
vn -0.7649 -0.0549 -0.6418
vn 0.7534 0.0651 0.6543
vn 0.7534 0.0650 0.6543
vn -0.0592 0.4619 0.8849
vn -0.0595 0.4621 0.8848
vn 0.8421 -0.4445 -0.3054
vn 0.8027 -0.4647 -0.3737
vn 0.8028 -0.4646 -0.3737
vn -0.2963 -0.8546 0.4264
vn -0.2964 -0.8546 0.4263
vn -0.2965 -0.8546 0.4263
vn 0.4214 0.2836 0.8614
vn -0.8419 0.4445 0.3058
vn -0.8421 0.4444 0.3056
vn 0.5040 -0.5192 -0.6903
vn -0.2340 -0.3679 -0.8999
vn 0.8571 -0.0410 0.5134
vn 0.1787 -0.4880 -0.8543
vn 0.3106 0.3359 0.8892
vn 0.8421 -0.4445 -0.3055
vn 0.8029 -0.4648 -0.3732
vn 0.9521 -0.2143 0.2183
vn -0.9544 0.2268 -0.1940
usemtl dhd.020
s 1
f 1/1/1 3/2/2 4/3/3
f 5/4/4 7/5/5 8/6/4
f 9/7/6 7/5/7 6/8/8
f 11/9/9 13/10/10 14/11/11
f 15/12/12 4/3/3 16/13/13
f 17/14/14 12/15/15 11/9/9
f 19/16/16 20/17/17 21/18/16
f 8/6/18 16/13/13 5/4/18
f 22/19/19 24/20/20 25/21/20
f 26/22/21 24/20/22 27/23/23
f 23/24/24 18/25/25 17/14/14
f 2/26/26 27/23/23 3/2/2
f 14/11/11 10/27/27 9/7/6
f 28/28/28 29/29/16 20/17/17
f 29/29/16 21/18/16 20/17/17
f 21/18/16 30/30/16 19/16/16
f 30/30/16 31/31/16 19/16/16
f 31/31/16 32/32/29 33/33/16
f 32/32/29 34/34/29 35/35/17
f 31/31/16 33/33/16 19/16/16
f 34/34/29 36/36/30 35/35/17
f 35/35/17 33/33/16 32/32/29
f 37/37/31 38/38/32 39/39/33
f 40/40/34 41/41/32 42/42/33
f 42/42/35 43/43/35 44/44/35
f 44/44/36 45/45/36 46/46/36
f 47/47/37 48/48/37 49/49/38
f 50/50/39 51/51/39 52/52/39
f 46/46/40 53/53/40 50/50/40
f 47/47/41 54/54/41 55/55/41
f 52/52/42 56/56/42 57/57/42
f 58/58/43 59/59/44 60/60/44
f 41/41/45 61/61/46 62/62/45
f 58/58/43 62/62/47 63/63/43
f 64/64/48 48/48/48 37/37/48
f 65/65/49 66/66/50 67/67/49
f 68/68/51 66/66/51 69/69/51
f 42/42/52 67/67/49 70/70/52
f 38/38/53 71/71/54 39/39/55
f 38/38/56 59/59/57 72/72/56
f 73/73/58 54/54/59 74/74/58
f 40/40/60 71/71/54 61/61/61
f 73/73/62 75/75/62 68/68/62
f 64/64/63 56/56/63 76/76/64
f 40/40/34 64/64/65 39/39/33
f 64/64/65 37/37/31 39/39/33
f 37/37/31 47/47/33 55/55/33
f 55/55/33 73/73/65 38/38/32
f 73/73/65 60/60/65 38/38/32
f 37/37/31 55/55/33 38/38/32
f 58/58/66 60/60/65 65/65/33
f 60/60/65 73/73/65 69/69/65
f 73/73/65 68/68/31 69/69/65
f 69/69/65 65/65/33 60/60/65
f 65/65/33 42/42/33 41/41/32
f 58/58/66 65/65/33 41/41/32
f 42/42/33 44/44/66 46/46/33
f 50/50/33 52/52/67 57/57/33
f 42/42/33 46/46/33 50/50/33
f 42/42/33 50/50/33 64/64/65
f 50/50/33 57/57/33 64/64/65
f 64/64/65 40/40/34 42/42/33
f 42/42/68 70/70/68 43/43/68
f 44/44/69 43/43/69 45/45/69
f 47/47/37 37/37/37 48/48/37
f 50/50/70 53/53/70 51/51/70
f 46/46/40 45/45/40 53/53/40
f 47/47/71 49/49/71 54/54/71
f 52/52/72 51/51/72 56/56/72
f 58/58/43 63/63/43 59/59/44
f 41/41/45 40/40/73 61/61/46
f 58/58/43 41/41/47 62/62/47
f 64/64/74 76/76/74 48/48/74
f 65/65/49 69/69/50 66/66/50
f 68/68/75 75/75/75 66/66/75
f 42/42/52 65/65/49 67/67/49
f 38/38/53 72/72/53 71/71/54
f 38/38/56 60/60/57 59/59/57
f 73/73/58 55/55/59 54/54/59
f 40/40/60 39/39/55 71/71/54
f 73/73/76 74/74/76 75/75/76
f 64/64/63 57/57/77 56/56/63
f 1/1/1 2/26/26 3/2/2
f 5/4/4 6/8/5 7/5/5
f 9/7/6 10/27/27 7/5/7
f 11/9/9 12/15/15 13/10/10
f 15/12/12 1/1/1 4/3/3
f 17/14/14 18/25/25 12/15/15
f 8/6/18 15/12/12 16/13/13
f 22/19/19 23/24/20 24/20/20
f 26/22/21 25/21/78 24/20/22
f 23/24/24 22/19/79 18/25/25
f 2/26/26 26/22/21 27/23/23
f 14/11/11 13/10/10 10/27/27
