# Blender v3.1.2 OBJ File: ''
# www.blender.org
mtllib 35.mtl
o buttons.010
v 0.172579 1.188031 0.054860
v 0.166841 1.188084 0.050013
v 0.159256 1.193293 0.058248
v 0.164592 1.193633 0.063524
v 0.329555 1.161813 0.103702
v 0.187484 1.175189 0.032490
v 0.320024 1.165875 0.105953
v 0.268814 1.206267 0.173123
v 0.282462 1.201400 0.170746
v 0.277011 1.201043 0.165596
v 0.162310 1.195041 0.065499
v 0.173909 1.182509 0.040743
v 0.179993 1.182183 0.045135
v 0.310012 1.180952 0.137378
v 0.321365 1.170714 0.119715
v 0.314965 1.171106 0.115811
v 0.303855 1.180909 0.133086
v 0.179767 1.177115 0.031344
v 0.186213 1.176578 0.035162
v 0.296607 1.191525 0.154962
v 0.290745 1.191250 0.150282
v 0.268961 1.209609 0.183185
v 0.183843 1.172431 0.022737
v 0.151897 1.197629 0.064641
v 0.229233 1.184234 0.065150
v 0.221747 1.186662 0.065939
v 0.219513 1.189450 0.071536
v 0.256901 1.200022 0.126538
v 0.266707 1.198974 0.131042
v 0.263948 1.193803 0.115578
v 0.275306 1.197676 0.134005
v 0.272722 1.192315 0.118179
v 0.253753 1.194881 0.110866
v 0.247122 1.200459 0.120466
v 0.233035 1.199327 0.107148
v 0.239037 1.200237 0.113935
v 0.245211 1.194957 0.104771
v 0.228647 1.197069 0.098051
v 0.240834 1.193656 0.098166
v 0.198561 1.189304 0.055719
v 0.193016 1.196621 0.070636
v 0.203419 1.192220 0.066871
vt 0.529350 0.132953
vt 0.588487 0.090814
vt 0.593493 0.127531
vt 0.222803 0.894863
vt 0.382617 0.124520
vt 0.265191 0.864214
vt 0.727063 0.864201
vt 0.671497 0.910669
vt 0.667198 0.873875
vt 0.609636 0.124483
vt 0.464042 0.095931
vt 0.462475 0.132953
vt 0.435504 0.918983
vt 0.324853 0.873876
vt 0.436840 0.881975
vt 0.403491 0.090814
vt 0.398463 0.127528
vt 0.555091 0.881975
vt 0.556426 0.918984
vt 0.769453 0.894862
vt 0.320547 0.910668
vt 0.352054 0.081062
vt 0.640205 0.081062
vt 0.436622 0.755765
vt 0.418685 0.769305
vt 0.401054 0.762588
vt 0.355645 0.576703
vt 0.366462 0.547857
vt 0.395934 0.584458
vt 0.378203 0.524542
vt 0.408880 0.561515
vt 0.384756 0.614506
vt 0.348479 0.608640
vt 0.348628 0.663818
vt 0.346018 0.638076
vt 0.380309 0.643991
vt 0.360008 0.690935
vt 0.386005 0.666084
vt 0.392131 0.836648
vt 0.346018 0.817918
vt 0.377056 0.804458
vt 0.527786 0.095931
vn 0.2791 0.9033 -0.3259
vn 0.2661 0.9069 -0.3268
vn 0.2724 0.9042 -0.3288
vn 0.2889 0.8842 -0.3671
vn 0.2683 0.8977 -0.3494
vn 0.2856 0.8847 -0.3685
vn 0.2431 0.9182 -0.3127
vn 0.2584 0.9051 -0.3378
vn 0.2567 0.9033 -0.3437
vn 0.2572 0.9065 -0.3349
vn 0.2826 0.9005 -0.3305
vn 0.2489 0.9012 -0.3549
vn 0.2597 0.9010 -0.3476
vn 0.2783 0.8972 -0.3430
vn 0.2781 0.8998 -0.3362
vn 0.2468 0.9029 -0.3520
vn 0.2452 0.9186 -0.3098
vn 0.2658 0.8992 -0.3476
vn 0.2683 0.8961 -0.3536
vn 0.2532 0.9080 -0.3338
vn 0.2559 0.9021 -0.3473
vn 0.2560 0.9022 -0.3472
vn 0.2559 0.9022 -0.3473
vn 0.2560 0.9021 -0.3473
vn 0.2559 0.9021 -0.3474
usemtl dhd_button_light.011
s 1
f 1/1/1 3/2/2 4/3/3
f 5/4/4 6/5/5 7/6/6
f 8/7/7 9/8/8 10/9/9
f 3/2/2 11/10/10 4/3/3
f 12/11/11 1/1/1 13/12/11
f 14/13/12 16/14/13 17/15/12
f 18/16/14 13/12/11 19/17/15
f 14/13/12 21/18/16 20/19/16
f 10/9/9 20/19/16 21/18/16
f 11/10/10 22/20/17 8/7/7
f 15/21/18 7/6/6 16/14/13
f 6/5/5 18/16/14 19/17/15
f 5/4/4 23/22/19 6/5/5
f 8/7/7 22/20/17 9/8/8
f 3/2/2 24/23/20 11/10/10
f 11/10/10 24/23/20 22/20/17
f 15/21/18 5/4/4 7/6/6
f 6/5/5 23/22/19 18/16/14
f 25/24/21 26/25/22 27/26/23
f 28/27/24 29/28/21 30/29/21
f 29/28/21 31/30/25 32/31/21
f 30/29/21 29/28/21 32/31/21
f 30/29/21 33/32/25 28/27/24
f 34/33/25 28/27/24 33/32/25
f 35/34/24 36/35/25 37/36/21
f 36/35/25 34/33/25 33/32/25
f 37/36/21 36/35/25 33/32/25
f 27/26/23 38/37/25 39/38/25
f 38/37/25 35/34/24 39/38/25
f 40/39/25 41/40/25 42/41/21
f 39/38/25 35/34/24 37/36/21
f 40/39/25 42/41/21 26/25/22
f 42/41/21 27/26/23 26/25/22
f 39/38/25 25/24/21 27/26/23
f 1/1/1 2/42/1 3/2/2
f 12/11/11 2/42/1 1/1/1
f 14/13/12 15/21/18 16/14/13
f 18/16/14 12/11/11 13/12/11
f 14/13/12 17/15/12 21/18/16
f 10/9/9 9/8/8 20/19/16
