# Blender v3.0.0 OBJ File: ''
# www.blender.org
mtllib 3_base.mtl
o buttons.063
v 0.379214 1.011630 -0.085927
v 0.376724 1.004680 -0.081745
v 0.381243 1.014873 -0.063871
v 0.383624 1.021524 -0.067863
v 0.546751 0.974097 -0.033620
v 0.542007 0.955928 -0.064313
v 0.544443 0.962732 -0.068403
v 0.549103 0.980669 -0.037562
v 0.389812 1.060010 -0.003863
v 0.387431 1.053358 0.000130
v 0.386363 1.064622 0.017938
v 0.388852 1.071572 0.013755
v 0.389196 1.046959 -0.024719
v 0.386872 1.040465 -0.020827
v 0.549872 0.993507 -0.001341
v 0.552224 1.000079 -0.005282
v 0.536106 0.940780 -0.090416
v 0.538702 0.948026 -0.094787
v 0.394188 1.031386 -0.046336
v 0.396358 1.044879 -0.023897
v 0.545065 1.002180 -0.006070
v 0.387063 1.033698 -0.046772
v 0.384740 1.027203 -0.042880
v 0.550213 1.028518 0.055490
v 0.551065 1.012259 0.029365
v 0.553501 1.019064 0.025275
v 0.552810 1.035765 0.051120
v 0.537368 0.965229 -0.068520
v 0.533139 0.954396 -0.087957
v 0.387744 1.012379 -0.079880
v 0.390678 1.018963 -0.067859
v 0.541974 0.982960 -0.038033
v 0.545818 1.033254 0.043183
v 0.546327 1.020947 0.024137
v 0.396348 1.065898 0.009120
v 0.396987 1.058197 -0.002614
v 0.439732 1.032849 -0.018031
v 0.431561 1.017370 -0.047016
v 0.447325 1.023531 -0.028336
v 0.512926 1.001596 -0.025339
v 0.510067 0.992886 -0.040657
v 0.520307 1.002646 -0.019475
v 0.439716 1.008842 -0.055759
v 0.425591 1.022908 -0.056335
v 0.441915 1.014891 -0.059609
v 0.438533 1.013958 -0.048396
v 0.449523 1.029580 -0.032186
v 0.512265 0.998935 -0.044508
v 0.518985 1.012934 -0.004065
v 0.507226 1.024015 -0.007979
v 0.521183 1.018983 -0.007916
v 0.507863 0.996769 -0.035815
v 0.498338 1.010093 -0.034930
v 0.496139 1.004044 -0.031079
v 0.515125 1.007645 -0.029189
v 0.441931 1.038898 -0.021881
v 0.433760 1.023420 -0.050866
v 0.518424 1.028901 0.006090
v 0.516226 1.022851 0.009941
v 0.473833 1.016027 -0.024988
v 0.498030 1.030953 -0.002330
v 0.476032 1.022077 -0.028838
v 0.481984 1.011726 -0.027091
v 0.505028 1.017966 -0.004129
v 0.522505 1.008695 -0.023325
v 0.493225 1.012964 -0.033338
v 0.491026 1.006915 -0.029487
v 0.484183 1.017776 -0.030941
v 0.440732 1.020007 -0.052247
v 0.423393 1.016859 -0.052485
v 0.495831 1.024904 0.001520
v 0.510062 1.002818 -0.039665
vt 0.904869 0.205695
vt 0.902256 0.202493
vt 0.904076 0.202091
vt 0.934110 0.200970
vt 0.930494 0.207932
vt 0.932395 0.200684
vt 0.903612 0.187473
vt 0.902713 0.183481
vt 0.903986 0.184558
vt 0.903425 0.191842
vt 0.902140 0.187347
vt 0.934325 0.192823
vt 0.932634 0.192899
vt 0.932219 0.208860
vt 0.927728 0.212440
vt 0.238417 0.958809
vt 0.233917 0.958808
vt 0.232962 0.932149
vt 0.903568 0.196896
vt 0.901921 0.191862
vt 0.901921 0.197025
vt 0.929581 0.179522
vt 0.931430 0.185858
vt 0.928607 0.181361
vt 0.933069 0.185270
vt 0.903643 0.206981
vt 0.928346 0.213977
vt 0.245458 0.932450
vt 0.249314 0.932876
vt 0.245088 0.959389
vt 0.242709 0.959068
vt 0.239373 0.932149
vt 0.223013 0.932876
vt 0.226874 0.932450
vt 0.227238 0.959389
vt 0.229623 0.959068
vt 0.724727 0.302996
vt 0.725931 0.298252
vt 0.726850 0.302815
vt 0.733997 0.314442
vt 0.735229 0.313427
vt 0.733993 0.315188
vt 0.727163 0.297443
vt 0.725707 0.296214
vt 0.727772 0.296962
vt 0.726970 0.298246
vt 0.728245 0.302361
vt 0.736439 0.313336
vt 0.724762 0.315157
vt 0.726114 0.315038
vt 0.724751 0.315737
vt 0.734745 0.313485
vt 0.733987 0.313513
vt 0.733168 0.312670
vt 0.734079 0.313685
vt 0.723577 0.303222
vt 0.724693 0.297780
vt 0.723577 0.314858
vt 0.724245 0.314615
vt 0.728981 0.308825
vt 0.724172 0.312746
vt 0.727215 0.308814
vt 0.730296 0.310515
vt 0.725591 0.314299
vt 0.734310 0.316848
vt 0.731432 0.313097
vt 0.732361 0.312098
vt 0.730125 0.312258
vt 0.728120 0.298235
vt 0.726055 0.297222
vt 0.724913 0.313195
vt 0.734158 0.313617
vn -0.9343 0.3550 0.0338
vn -0.9410 0.3383 0.0024
vn -0.9413 0.3376 0.0011
vn 0.9508 -0.3036 0.0612
vn 0.9441 -0.3295 0.0141
vn 0.9509 -0.3032 0.0619
vn -0.9558 0.2417 -0.1672
vn -0.9546 0.2226 -0.1981
vn -0.9549 0.2761 -0.1095
vn -0.9558 0.2422 -0.1665
vn 0.9546 -0.2792 0.1041
vn 0.9546 -0.2788 0.1047
vn 0.9439 -0.3301 0.0131
vn 0.9389 -0.3440 -0.0126
vn 0.2931 0.8066 -0.5134
vn 0.2931 0.8066 -0.5133
vn -0.9504 0.3057 -0.0572
vn -0.9548 0.2765 -0.1087
vn -0.9503 0.3062 -0.0563
vn 0.9556 -0.2353 0.1776
vn 0.9560 -0.2508 0.1521
vn 0.9555 -0.2353 0.1776
vn -0.0752 0.5342 0.8420
vn -0.0752 0.5343 0.8419
vn -0.0753 0.5342 0.8420
vn 0.9560 -0.2512 0.1515
vn -0.2247 -0.4425 -0.8682
vn -0.2247 -0.4427 -0.8681
vn -0.2931 -0.8066 0.5133
vn -0.2932 -0.8066 0.5133
vn -0.3656 -0.4015 -0.8397
vn -0.3656 -0.4016 -0.8397
vn 0.8825 -0.4348 -0.1793
vn -0.3621 -0.4034 -0.8403
vn -0.1707 -0.4842 -0.8581
vn -0.1707 -0.4843 -0.8581
vn 0.5179 0.3175 0.7944
vn 0.1884 -0.5752 -0.7961
vn 0.1883 -0.5752 -0.7960
vn -0.9251 0.3748 0.0606
vn -0.9251 0.3749 0.0606
vn 0.9428 -0.1546 0.2952
vn -0.7291 0.5359 0.4257
vn -0.7291 0.5359 0.4256
vn 0.6558 -0.5603 -0.5059
vn 0.8675 -0.4501 -0.2120
vn -0.1883 0.5752 0.7960
vn 0.4185 0.3744 0.8274
vn 0.9471 -0.1715 0.2714
vn 0.3686 0.4001 0.8391
vn -0.4748 0.5888 0.6541
vn -0.2589 0.5839 0.7695
vn -0.8675 0.4502 0.2118
vn -0.2932 -0.8066 0.5132
vn -0.2931 -0.8066 0.5134
vn -0.2930 -0.8065 0.5135
vn -0.3657 -0.4016 -0.8397
vn 0.8825 -0.4349 -0.1792
vn -0.3621 -0.4033 -0.8404
vn -0.1706 -0.4842 -0.8582
vn 0.5178 0.3174 0.7944
vn 0.8675 -0.4501 -0.2119
vn -0.1884 0.5751 0.7961
vn 0.4186 0.3745 0.8273
vn 0.3685 0.4000 0.8391
vn -0.2589 0.5838 0.7695
vn -0.9343 0.3550 0.0337
vn -0.0751 0.5345 0.8418
usemtl dhd.005
s 1
f 1/1/1 3/2/2 4/3/3
f 5/4/4 7/5/5 8/6/6
f 9/7/7 11/8/8 12/9/8
f 13/10/9 10/11/10 9/7/7
f 15/12/11 8/6/6 16/13/12
f 6/14/13 18/15/14 7/5/5
f 19/16/15 20/17/15 21/18/16
f 22/19/17 14/20/18 13/10/9
f 4/3/3 23/21/19 22/19/17
f 24/22/20 26/23/21 27/24/22
f 24/22/23 12/9/24 11/8/25
f 25/25/26 16/13/12 26/23/21
f 2/26/27 18/15/28 17/27/27
f 28/28/16 29/29/16 30/30/16
f 28/28/16 30/30/16 31/31/16
f 21/18/16 32/32/15 19/16/15
f 32/32/15 28/28/16 31/31/16
f 19/16/15 32/32/15 31/31/16
f 33/33/16 34/34/16 35/35/15
f 34/34/16 21/18/16 36/36/15
f 36/36/15 21/18/16 20/17/15
f 36/36/15 35/35/15 34/34/16
f 37/37/29 38/38/30 39/39/29
f 40/40/29 41/41/29 42/42/29
f 43/43/31 44/44/32 45/45/31
f 46/46/33 47/47/33 39/39/33
f 39/39/34 48/48/34 41/41/34
f 49/49/35 50/50/35 51/51/36
f 52/52/37 53/53/37 54/54/37
f 40/40/38 53/53/39 55/55/38
f 38/38/40 56/56/41 57/57/40
f 49/49/42 58/58/42 59/59/42
f 60/60/43 61/61/44 62/62/43
f 63/63/45 50/50/45 64/64/45
f 41/41/46 65/65/46 42/42/46
f 42/42/47 66/66/47 67/67/47
f 67/67/48 68/68/48 63/63/48
f 43/43/49 69/69/49 46/46/49
f 60/60/50 56/56/50 37/37/50
f 70/70/51 57/57/51 44/44/51
f 59/59/52 61/61/52 71/71/52
f 40/40/53 72/72/53 52/52/53
f 38/38/30 70/70/54 43/43/30
f 38/38/30 43/43/30 46/46/29
f 59/59/29 71/71/55 64/64/29
f 71/71/55 60/60/30 63/63/30
f 64/64/29 49/49/30 59/59/29
f 54/54/56 67/67/29 41/41/29
f 67/67/29 63/63/30 41/41/29
f 63/63/30 64/64/29 71/71/55
f 52/52/30 54/54/56 41/41/29
f 39/39/29 41/41/29 63/63/30
f 38/38/30 46/46/29 39/39/29
f 63/63/30 60/60/30 39/39/29
f 60/60/30 37/37/29 39/39/29
f 40/40/29 52/52/30 41/41/29
f 42/42/29 67/67/29 40/40/29
f 67/67/29 54/54/56 40/40/29
f 43/43/31 70/70/57 44/44/32
f 46/46/58 69/69/58 47/47/58
f 39/39/59 47/47/59 48/48/59
f 49/49/35 64/64/60 50/50/35
f 52/52/61 72/72/61 53/53/61
f 40/40/38 54/54/39 53/53/39
f 38/38/40 37/37/41 56/56/41
f 49/49/42 51/51/42 58/58/42
f 60/60/43 71/71/44 61/61/44
f 63/63/45 68/68/45 50/50/45
f 41/41/62 48/48/62 65/65/62
f 42/42/63 65/65/63 66/66/63
f 67/67/64 66/66/64 68/68/64
f 43/43/49 45/45/49 69/69/49
f 60/60/65 62/62/65 56/56/65
f 70/70/51 38/38/51 57/57/51
f 59/59/66 58/58/66 61/61/66
f 40/40/53 55/55/53 72/72/53
f 1/1/1 2/26/67 3/2/2
f 5/4/4 6/14/13 7/5/5
f 9/7/7 10/11/10 11/8/8
f 13/10/9 14/20/18 10/11/10
f 15/12/11 5/4/4 8/6/6
f 6/14/13 17/27/14 18/15/14
f 22/19/17 23/21/19 14/20/18
f 4/3/3 3/2/2 23/21/19
f 24/22/20 25/25/26 26/23/21
f 24/22/23 27/24/68 12/9/24
f 25/25/26 15/12/11 16/13/12
f 2/26/27 1/1/27 18/15/28
