# Blender v3.0.0 OBJ File: ''
# www.blender.org
mtllib 4_base.mtl
o buttons.008
v 0.537975 1.067548 0.121788
v 0.545069 1.049582 0.091431
v 0.547373 1.056794 0.088019
v 0.540196 1.074514 0.118500
v 0.374288 1.112786 0.084749
v 0.372094 1.105903 0.087995
v 0.364634 1.118203 0.107965
v 0.366883 1.125252 0.104635
v 0.507347 1.119634 0.207014
v 0.509807 1.127315 0.203366
v 0.359138 1.136066 0.121008
v 0.356783 1.128699 0.124498
v 0.528697 1.086429 0.153187
v 0.530918 1.093395 0.149899
v 0.387631 1.098789 0.065754
v 0.381181 1.111915 0.087582
v 0.524015 1.094286 0.147100
v 0.380627 1.099886 0.063298
v 0.378433 1.093003 0.066544
v 0.549286 1.034289 0.065087
v 0.551745 1.041970 0.061439
v 0.385279 1.087817 0.042380
v 0.383030 1.080767 0.045710
v 0.387790 1.077759 0.024044
v 0.385435 1.070392 0.027534
v 0.518143 1.104377 0.182554
v 0.520446 1.111589 0.179142
v 0.540296 1.058073 0.085878
v 0.543517 1.047153 0.066297
v 0.394050 1.079780 0.032207
v 0.392379 1.086473 0.044409
v 0.533202 1.075590 0.116009
v 0.505822 1.123861 0.193860
v 0.513663 1.112271 0.176008
v 0.368467 1.131839 0.118779
v 0.373625 1.124637 0.107874
vt 0.140711 0.916822
vt 0.137096 0.923784
vt 0.138997 0.916535
vt 0.110027 0.907693
vt 0.108742 0.903198
vt 0.110213 0.903324
vt 0.136183 0.895374
vt 0.110588 0.900409
vt 0.109314 0.899332
vt 0.140927 0.908674
vt 0.139236 0.908750
vt 0.963632 0.128225
vt 0.959132 0.128225
vt 0.958177 0.101565
vt 0.110170 0.912747
vt 0.108523 0.907713
vt 0.138820 0.924711
vt 0.134330 0.928291
vt 0.110678 0.917942
vt 0.108523 0.912876
vt 0.111470 0.921546
vt 0.108858 0.918344
vt 0.138032 0.901709
vt 0.135209 0.897212
vt 0.110245 0.922832
vt 0.134948 0.929828
vt 0.139671 0.901121
vt 0.970673 0.101866
vt 0.974529 0.102293
vt 0.970303 0.128806
vt 0.967924 0.128484
vt 0.964588 0.101565
vt 0.948227 0.102292
vt 0.952089 0.101866
vt 0.952453 0.128806
vt 0.954838 0.128484
vn 0.9331 -0.1415 0.3306
vn 0.9441 -0.1672 0.2842
vn 0.9329 -0.1411 0.3313
vn -0.9189 0.1149 -0.3775
vn -0.8983 0.0827 -0.4316
vn -0.8980 0.0823 -0.4323
vn -0.3948 0.4938 0.7747
vn -0.3948 0.4938 0.7748
vn 0.9206 -0.1179 0.3722
vn 0.9204 -0.1175 0.3728
vn 0.2851 0.8563 -0.4307
vn 0.2851 0.8563 -0.4306
vn -0.8850 0.0644 -0.4612
vn -0.9341 0.1437 -0.3267
vn -0.9191 0.1153 -0.3767
vn 0.9443 -0.1677 0.2831
vn 0.9491 -0.1816 0.2574
vn -0.9471 0.1751 -0.2689
vn -0.9344 0.1442 -0.3258
vn -0.9525 0.1926 -0.2360
vn -0.9473 0.1758 -0.2676
vn 0.8937 -0.0763 0.4420
vn 0.9039 -0.0908 0.4181
vn 0.1031 -0.4529 -0.8856
vn 0.1031 -0.4531 -0.8855
vn 0.1031 -0.4530 -0.8855
vn 0.9041 -0.0912 0.4175
vn 0.2852 0.8563 -0.4307
vn -0.3948 0.4939 0.7747
vn -0.9525 0.1927 -0.2360
usemtl dhd.007
s 1
f 1/1/1 3/2/2 4/3/3
f 5/4/4 7/5/5 8/6/6
f 9/7/7 11/8/8 12/9/8
f 13/10/9 4/3/3 14/11/10
f 15/12/11 16/13/11 17/14/12
f 8/6/6 12/9/13 11/8/13
f 18/15/14 6/16/15 5/4/4
f 2/17/16 21/18/17 3/2/2
f 22/19/18 19/20/19 18/15/14
f 24/21/20 23/22/21 22/19/18
f 9/7/22 27/23/23 10/24/22
f 25/25/24 21/18/25 20/26/26
f 26/27/27 14/11/10 27/23/23
f 28/28/11 29/29/12 30/30/12
f 28/28/11 30/30/12 31/31/12
f 17/14/12 32/32/11 15/12/11
f 32/32/11 28/28/11 31/31/12
f 15/12/11 32/32/11 31/31/12
f 33/33/28 34/34/11 35/35/11
f 34/34/11 17/14/12 36/36/11
f 36/36/11 17/14/12 16/13/11
f 36/36/11 35/35/11 34/34/11
f 1/1/1 2/17/16 3/2/2
f 5/4/4 6/16/15 7/5/5
f 9/7/7 10/24/29 11/8/8
f 13/10/9 1/1/1 4/3/3
f 8/6/6 7/5/5 12/9/13
f 18/15/14 19/20/19 6/16/15
f 2/17/16 20/26/17 21/18/17
f 22/19/18 23/22/21 19/20/19
f 24/21/20 25/25/30 23/22/21
f 9/7/22 26/27/27 27/23/23
f 25/25/24 24/21/26 21/18/25
f 26/27/27 13/10/9 14/11/10
