# Blender v3.0.0 OBJ File: ''
# www.blender.org
mtllib 5_base.mtl
o buttons.065
v 0.409394 1.198640 0.338399
v 0.411450 1.206709 0.335397
v 0.290398 1.192094 0.214181
v 0.288432 1.184356 0.217053
v 0.345075 1.150795 0.147111
v 0.343201 1.143390 0.149851
v 0.331008 1.154183 0.168284
v 0.332835 1.161411 0.165612
v 0.470792 1.154468 0.266334
v 0.488956 1.138673 0.239588
v 0.490878 1.146249 0.236781
v 0.472643 1.161783 0.263628
v 0.352269 1.134002 0.133316
v 0.354235 1.141740 0.130444
v 0.504890 1.133006 0.212830
v 0.502834 1.124936 0.215832
v 0.428964 1.185994 0.318281
v 0.430885 1.193569 0.315473
v 0.450121 1.170773 0.293449
v 0.451971 1.178089 0.290744
v 0.338960 1.161443 0.169947
v 0.324589 1.172779 0.188797
v 0.446072 1.177879 0.286114
v 0.318712 1.172551 0.184138
v 0.316885 1.165322 0.186809
v 0.302214 1.175719 0.203614
v 0.304089 1.183124 0.200873
v 0.484566 1.146377 0.232725
v 0.494889 1.136621 0.215081
v 0.357547 1.144584 0.139975
v 0.351451 1.150609 0.151066
v 0.466541 1.161733 0.259264
v 0.410905 1.202865 0.325243
v 0.425227 1.193182 0.310560
v 0.300549 1.189542 0.214738
v 0.309667 1.183567 0.205875
v 0.368294 1.162792 0.193744
v 0.356651 1.163261 0.186853
v 0.372621 1.159092 0.187338
v 0.414161 1.181127 0.272218
v 0.418545 1.185491 0.286360
v 0.402742 1.187069 0.279401
v 0.407233 1.169625 0.238157
v 0.430891 1.176547 0.251040
v 0.409079 1.176390 0.235497
v 0.416008 1.187892 0.269558
v 0.420392 1.192256 0.283700
v 0.431021 1.173208 0.263783
v 0.429044 1.169782 0.253700
v 0.444728 1.165426 0.253511
v 0.445657 1.170240 0.245252
v 0.446574 1.172191 0.250851
v 0.394818 1.154317 0.190605
v 0.380727 1.164276 0.185003
v 0.378880 1.157511 0.187663
v 0.432867 1.179973 0.261123
v 0.381097 1.152003 0.175192
v 0.382944 1.158767 0.172532
v 0.408086 1.165709 0.228790
v 0.402062 1.157799 0.183343
v 0.409933 1.172474 0.226130
v 0.400215 1.151034 0.186003
v 0.351647 1.174487 0.190781
v 0.349800 1.167722 0.193441
v 0.357843 1.167039 0.176142
v 0.358498 1.170026 0.184193
v 0.436395 1.165364 0.247567
v 0.438242 1.172129 0.244907
v 0.404588 1.193834 0.276741
v 0.383658 1.177051 0.240674
v 0.370141 1.169557 0.191084
v 0.355996 1.160275 0.178802
v 0.349734 1.169113 0.175786
v 0.443810 1.163475 0.247912
v 0.380442 1.189732 0.249545
v 0.385505 1.183816 0.238014
v 0.404245 1.174430 0.227154
v 0.396665 1.161082 0.187945
v 0.395560 1.182221 0.262087
v 0.378595 1.182967 0.252205
v 0.374468 1.165857 0.184678
v 0.391458 1.173567 0.237228
v 0.393305 1.180331 0.234568
v 0.392600 1.177653 0.248414
v 0.394447 1.184418 0.245754
v 0.347887 1.162348 0.178446
v 0.402398 1.167665 0.229814
v 0.397407 1.188986 0.259427
vt 0.323898 0.886127
vt 0.298303 0.891163
vt 0.297030 0.890085
vt 0.298393 0.908696
vt 0.296238 0.903630
vt 0.297885 0.903501
vt 0.328426 0.907575
vt 0.324811 0.914537
vt 0.326712 0.907289
vt 0.297960 0.913586
vt 0.322045 0.919045
vt 0.322663 0.920582
vt 0.325747 0.892463
vt 0.322924 0.887966
vt 0.327386 0.891875
vt 0.326951 0.899504
vt 0.328642 0.899428
vt 0.965972 0.785806
vt 0.961472 0.785806
vt 0.960517 0.759147
vt 0.297742 0.898447
vt 0.296457 0.893951
vt 0.297929 0.894078
vt 0.296238 0.898467
vt 0.299186 0.912300
vt 0.296573 0.909098
vt 0.326536 0.915465
vt 0.973013 0.759448
vt 0.976869 0.759874
vt 0.972643 0.786387
vt 0.970263 0.786066
vt 0.966928 0.759147
vt 0.950567 0.759874
vt 0.954429 0.759447
vt 0.954793 0.786387
vt 0.957178 0.786065
vt 0.015742 0.973950
vt 0.016846 0.975614
vt 0.015098 0.974698
vt 0.957960 0.579023
vt 0.958109 0.579067
vt 0.957988 0.579142
vt 0.006820 0.964970
vt 0.004622 0.960422
vt 0.007373 0.963608
vt 0.956473 0.576732
vt 0.959958 0.578904
vt 0.003259 0.960289
vt 0.003786 0.961221
vt 0.002208 0.960841
vt 0.001295 0.961221
vt 0.001585 0.960465
vt 0.003404 0.974221
vt 0.003625 0.977104
vt 0.002997 0.976097
vt 0.003317 0.959418
vt 0.002300 0.976101
vt 0.001707 0.976728
vt 0.005808 0.966639
vt 0.001160 0.973949
vt 0.004353 0.966694
vt 0.002294 0.974116
vt 0.018410 0.974727
vt 0.017742 0.975142
vt 0.017336 0.977104
vt 0.016324 0.976554
vt 0.002590 0.961691
vt 0.001687 0.962141
vt 0.956473 0.582472
vt 0.011843 0.966076
vt 0.016586 0.973262
vt 0.017456 0.976261
vt 0.018656 0.976679
vt 0.002088 0.961174
vt 0.013301 0.964249
vt 0.013080 0.965930
vt 0.007613 0.968254
vt 0.004542 0.974712
vt 0.011921 0.963471
vt 0.012414 0.964405
vt 0.014447 0.975342
vt 0.010225 0.966663
vt 0.009650 0.968025
vt 0.010639 0.964411
vt 0.010363 0.963346
vt 0.017768 0.976059
vt 0.006848 0.966922
vt 0.011977 0.962700
vn -0.6715 0.4025 0.6221
vn -0.6718 0.4017 0.6224
vn -0.8503 0.0206 -0.5259
vn -0.8172 -0.0065 -0.5763
vn -0.8167 -0.0069 -0.5771
vn 0.8142 0.0087 0.5805
vn 0.8418 -0.0136 0.5396
vn 0.8138 0.0090 0.5811
vn 0.4198 -0.4077 -0.8109
vn 0.4197 -0.4084 -0.8106
vn 0.4197 -0.4081 -0.8107
vn 0.7351 0.0638 0.6750
vn 0.7538 0.0517 0.6551
vn 0.7542 0.0514 0.6546
vn 0.7865 0.0292 0.6169
vn 0.7869 0.0289 0.6164
vn 0.2462 0.9020 -0.3547
vn -0.7833 -0.0315 -0.6209
vn -0.7433 -0.0584 -0.6664
vn -0.7428 -0.0588 -0.6670
vn -0.7838 -0.0311 -0.6202
vn -0.7195 -0.0735 -0.6906
vn -0.8674 0.0361 -0.4963
vn -0.8510 0.0212 -0.5248
vn 0.8424 -0.0141 0.5387
vn 0.8564 -0.0264 0.5156
vn 0.2463 0.9020 -0.3547
vn -0.2462 -0.9020 0.3547
vn -0.2463 -0.9020 0.3547
vn -0.5255 0.4317 0.7331
vn 0.9267 -0.3264 -0.1866
vn 0.9267 -0.3264 -0.1865
vn -0.9519 0.2940 0.0867
vn 0.9571 -0.2840 -0.0579
vn 0.9571 -0.2839 -0.0578
vn -0.0921 0.3861 0.9179
vn 0.6392 0.1240 0.7590
vn -0.9558 0.1654 -0.2430
vn 0.9539 -0.2903 -0.0759
vn 0.4279 -0.4295 -0.7952
vn 0.0771 0.3466 0.9349
vn 0.9662 -0.2572 0.0168
vn 0.4949 -0.4317 -0.7541
vn -0.3297 0.4220 0.8445
vn -0.9220 0.3309 0.2013
vn -0.0495 -0.3538 -0.9340
vn -0.0468 -0.3544 -0.9339
vn -0.8983 0.0750 -0.4329
vn -0.9523 0.2932 0.0843
vn -0.4402 0.4301 0.7882
vn -0.0631 -0.3502 -0.9345
vn 0.9073 -0.3433 -0.2430
vn 0.6176 0.1360 0.7746
vn -0.9618 0.2725 0.0251
vn -0.6066 -0.1419 -0.7822
vn -0.6067 -0.1419 -0.7822
vn 0.9481 -0.3001 -0.1050
vn -0.5825 -0.1548 -0.7980
vn -0.5825 -0.1547 -0.7980
vn -0.2462 -0.9020 0.3548
vn -0.2462 -0.9020 0.3546
vn -0.2463 -0.9020 0.3546
vn -0.9519 0.2939 0.0867
vn 0.9570 -0.2841 -0.0579
vn 0.6392 0.1235 0.7590
vn 0.4279 -0.4296 -0.7952
vn 0.0771 0.3465 0.9349
vn -0.3297 0.4221 0.8445
vn -0.0494 -0.3538 -0.9340
vn 0.9073 -0.3432 -0.2430
vn 0.6176 0.1361 0.7746
vn -0.6717 0.4021 0.6222
vn 0.4198 -0.4079 -0.8108
vn -0.8674 0.0362 -0.4963
usemtl dhd.008
s 1
f 1/1/1 3/2/2 4/3/2
f 5/4/3 7/5/4 8/6/5
f 9/7/6 11/8/7 12/9/8
f 13/10/9 15/11/10 16/12/11
f 1/1/12 18/13/13 2/14/12
f 17/15/14 20/16/15 18/13/13
f 19/17/16 12/9/8 20/16/15
f 21/18/17 22/19/17 23/20/17
f 24/21/18 26/22/19 27/23/20
f 8/6/5 25/24/21 24/21/18
f 27/23/20 4/3/22 3/2/22
f 14/25/23 6/26/24 5/4/3
f 10/27/25 15/11/26 11/8/7
f 28/28/17 29/29/17 30/30/17
f 28/28/17 30/30/17 31/31/17
f 23/20/17 32/32/17 21/18/17
f 32/32/17 28/28/17 31/31/17
f 21/18/17 32/32/17 31/31/17
f 33/33/17 34/34/17 35/35/27
f 34/34/17 23/20/17 36/36/27
f 36/36/27 23/20/17 22/19/17
f 36/36/27 35/35/27 34/34/17
f 37/37/28 38/38/28 39/39/28
f 40/40/29 41/41/29 42/42/29
f 43/43/30 44/44/30 45/45/30
f 41/41/31 46/46/31 47/47/32
f 48/48/33 44/44/33 49/49/33
f 50/50/34 51/51/34 52/52/35
f 53/53/36 54/54/36 55/55/36
f 50/50/37 56/56/37 48/48/37
f 57/57/38 54/54/38 58/58/38
f 59/59/39 60/60/39 61/61/39
f 57/57/40 60/60/40 62/62/40
f 37/37/41 63/63/41 64/64/41
f 38/38/42 65/65/42 66/66/42
f 67/67/43 61/61/43 68/68/43
f 41/41/44 69/69/44 42/42/44
f 70/70/45 71/71/45 37/37/45
f 72/72/46 73/73/46 65/65/46
f 67/67/47 51/51/47 74/74/47
f 70/70/48 75/75/48 76/76/48
f 53/53/49 77/77/49 78/78/49
f 79/79/50 75/75/50 80/80/50
f 39/39/51 66/66/51 81/81/51
f 82/82/52 81/81/52 83/83/52
f 84/84/53 45/45/53 85/85/53
f 64/64/54 73/73/54 86/86/54
f 87/87/55 83/83/56 77/77/55
f 84/84/57 88/88/57 79/79/57
f 40/40/58 69/69/58 46/46/59
f 50/50/29 48/48/60 49/49/28
f 50/50/29 49/49/28 67/67/61
f 49/49/28 43/43/62 67/67/61
f 67/67/61 74/74/29 50/50/29
f 59/59/29 67/67/61 43/43/62
f 55/55/61 57/57/61 53/53/29
f 57/57/61 62/62/29 53/53/29
f 62/62/29 59/59/29 53/53/29
f 59/59/29 43/43/62 87/87/29
f 53/53/29 59/59/29 87/87/29
f 84/84/28 79/79/28 80/80/28
f 43/43/62 84/84/28 82/82/61
f 84/84/28 80/80/28 70/70/61
f 84/84/28 70/70/61 82/82/61
f 82/82/61 87/87/29 43/43/62
f 86/86/61 72/72/61 38/38/28
f 64/64/29 86/86/61 38/38/28
f 82/82/61 70/70/61 37/37/28
f 37/37/28 64/64/29 38/38/28
f 39/39/28 82/82/61 37/37/28
f 43/43/30 49/49/30 44/44/30
f 41/41/31 40/40/31 46/46/31
f 48/48/63 56/56/63 44/44/63
f 50/50/34 74/74/64 51/51/34
f 53/53/36 78/78/36 54/54/36
f 50/50/65 52/52/65 56/56/65
f 57/57/38 55/55/38 54/54/38
f 59/59/39 62/62/39 60/60/39
f 57/57/66 58/58/66 60/60/66
f 37/37/67 71/71/67 63/63/67
f 38/38/42 72/72/42 65/65/42
f 67/67/43 59/59/43 61/61/43
f 41/41/68 47/47/68 69/69/68
f 70/70/45 76/76/45 71/71/45
f 72/72/46 86/86/69 73/73/46
f 67/67/47 68/68/47 51/51/47
f 70/70/48 80/80/48 75/75/48
f 53/53/49 87/87/49 77/77/49
f 79/79/50 88/88/50 75/75/50
f 39/39/51 38/38/51 66/66/51
f 82/82/52 39/39/70 81/81/52
f 84/84/53 43/43/71 45/45/53
f 64/64/54 63/63/54 73/73/54
f 87/87/55 82/82/56 83/83/56
f 84/84/57 85/85/57 88/88/57
f 40/40/58 42/42/58 69/69/58
f 1/1/1 2/14/72 3/2/2
f 5/4/3 6/26/24 7/5/4
f 9/7/6 10/27/25 11/8/7
f 13/10/9 14/25/73 15/11/10
f 1/1/12 17/15/14 18/13/13
f 17/15/14 19/17/16 20/16/15
f 19/17/16 9/7/6 12/9/8
f 24/21/18 25/24/21 26/22/19
f 8/6/5 7/5/4 25/24/21
f 27/23/20 26/22/19 4/3/22
f 14/25/23 13/10/74 6/26/24
f 10/27/25 16/12/26 15/11/26
