# Blender v3.0.0 OBJ File: ''
# www.blender.org
mtllib 6.mtl
o buttons.030
v 0.353764 1.233021 0.382095
v 0.381080 1.221403 0.361762
v 0.376218 1.220571 0.356108
v 0.349215 1.232055 0.376208
v 0.323938 1.244984 0.401989
v 0.319682 1.243901 0.395907
v 0.208234 1.227352 0.274424
v 0.199954 1.232754 0.286598
v 0.212044 1.228603 0.280768
v 0.392523 1.213105 0.342272
v 0.271351 1.261707 0.423095
v 0.294523 1.256122 0.419497
v 0.290603 1.254911 0.413214
v 0.232715 1.220875 0.268780
v 0.228491 1.219779 0.262677
v 0.267369 1.203633 0.234980
v 0.248867 1.211606 0.249085
v 0.253449 1.212559 0.254950
v 0.272330 1.204422 0.240556
v 0.190080 1.233584 0.283178
v 0.282186 1.196640 0.221742
v 0.282189 1.199769 0.231747
v 0.403214 1.211269 0.342980
v 0.268398 1.265344 0.432905
v 0.271073 1.236834 0.317859
v 0.243850 1.240534 0.312937
v 0.283106 1.239485 0.333740
v 0.320835 1.232903 0.335914
v 0.321961 1.234655 0.342207
v 0.328753 1.232424 0.339254
v 0.339032 1.232846 0.346926
v 0.342556 1.226714 0.329492
v 0.329278 1.229221 0.329336
v 0.325412 1.228281 0.323950
v 0.319390 1.230097 0.326053
v 0.281660 1.234698 0.317546
v 0.303664 1.230431 0.317443
v 0.301926 1.228630 0.310616
v 0.293445 1.231202 0.313620
v 0.279958 1.232030 0.307968
v 0.283943 1.242254 0.343107
v 0.298063 1.236368 0.332977
v 0.286130 1.237481 0.329193
vt 0.596414 0.999907
vt 0.798377 0.947010
vt 0.595355 0.957045
vt 0.381472 0.957044
vt 0.380414 0.999907
vt 0.274232 0.016224
vt 0.190496 0.048179
vt 0.270070 0.058914
vt 0.801793 0.989757
vt 0.927040 0.932789
vt 0.049505 0.932784
vt 0.174938 0.989756
vt 0.178351 0.947010
vt 0.413336 0.067562
vt 0.702496 0.016223
vt 0.563492 0.067561
vt 0.706664 0.058912
vt 0.562198 0.024698
vt 0.154755 0.000106
vt 0.821790 0.000105
vt 0.786049 0.048186
vt 0.976447 0.970452
vt 0.000098 0.970452
vt 0.381474 0.610708
vt 0.376171 0.524561
vt 0.428121 0.651786
vt 0.420446 0.770159
vt 0.440352 0.775055
vt 0.428160 0.795633
vt 0.448955 0.829434
vt 0.391224 0.836629
vt 0.395894 0.795103
vt 0.379988 0.781842
vt 0.389134 0.763486
vt 0.376334 0.643722
vt 0.367429 0.712461
vt 0.346037 0.705536
vt 0.359051 0.679691
vt 0.346037 0.636309
vt 0.458076 0.656451
vt 0.419827 0.698358
vt 0.412244 0.660242
vt 0.414628 0.024699
vn 0.1807 0.9387 -0.2936
vn 0.1806 0.9387 -0.2936
vn 0.1807 0.9387 -0.2937
vn 0.1806 0.9387 -0.2937
vn 0.1806 0.9387 -0.2935
usemtl dhd_button_light.014
s 1
f 1/1/1 3/2/1 4/3/2
f 1/1/1 6/4/1 5/5/1
f 7/6/1 8/7/2 9/8/1
f 2/9/1 10/10/2 3/2/1
f 11/11/1 12/12/3 13/13/1
f 14/14/1 7/6/1 9/8/1
f 13/13/1 5/5/1 6/4/1
f 16/15/1 18/16/4 19/17/1
f 17/18/4 14/14/1 18/16/4
f 20/19/2 11/11/1 8/7/2
f 10/10/2 21/20/1 22/21/1
f 22/21/1 16/15/1 19/17/1
f 7/6/1 20/19/2 8/7/2
f 2/9/1 23/22/2 10/10/2
f 11/11/1 24/23/1 12/12/3
f 20/19/2 24/23/1 11/11/1
f 10/10/2 23/22/2 21/20/1
f 22/21/1 21/20/1 16/15/1
f 25/24/1 26/25/1 27/26/1
f 28/27/2 29/28/1 30/29/2
f 30/29/2 31/30/4 32/31/1
f 33/32/1 34/33/5 35/34/1
f 30/29/2 32/31/1 33/32/1
f 36/35/1 28/27/2 37/36/1
f 28/27/2 30/29/2 33/32/1
f 28/27/2 33/32/1 35/34/1
f 28/27/2 35/34/1 37/36/1
f 37/36/1 38/37/1 39/38/1
f 39/38/1 40/39/1 36/35/1
f 40/39/1 26/25/1 25/24/1
f 36/35/1 40/39/1 25/24/1
f 27/26/1 41/40/2 42/41/2
f 37/36/1 39/38/1 36/35/1
f 27/26/1 42/41/2 43/42/1
f 27/26/1 43/42/1 25/24/1
f 1/1/1 2/9/1 3/2/1
f 1/1/1 4/3/2 6/4/1
f 14/14/1 15/43/1 7/6/1
f 13/13/1 12/12/3 5/5/1
f 16/15/1 17/18/4 18/16/4
f 17/18/4 15/43/1 14/14/1
