# Blender v3.0.0 OBJ File: ''
# www.blender.org
mtllib 6_base.mtl
o buttons.066
v 0.266968 1.256974 0.435408
v 0.293192 1.248266 0.421840
v 0.294523 1.256122 0.419497
v 0.268398 1.265344 0.432905
v 0.352485 1.225436 0.384353
v 0.379749 1.213548 0.364104
v 0.381080 1.221403 0.361762
v 0.353764 1.233021 0.382095
v 0.190080 1.233584 0.283178
v 0.188717 1.225559 0.285574
v 0.280822 1.188616 0.224137
v 0.282186 1.196640 0.221742
v 0.403214 1.211269 0.342980
v 0.401784 1.202900 0.345483
v 0.322659 1.237399 0.404247
v 0.323938 1.244984 0.401989
v 0.253449 1.212559 0.254950
v 0.232715 1.220875 0.268780
v 0.319682 1.243901 0.395907
v 0.267369 1.203633 0.234980
v 0.266072 1.195956 0.237267
v 0.247606 1.204112 0.251315
v 0.248867 1.211606 0.249085
v 0.227229 1.212285 0.264906
v 0.228491 1.219779 0.262677
v 0.208234 1.227352 0.274424
v 0.206937 1.219675 0.276711
v 0.376218 1.220571 0.356108
v 0.392523 1.213105 0.342272
v 0.282189 1.199769 0.231747
v 0.272330 1.204422 0.240556
v 0.349215 1.232055 0.376208
v 0.271351 1.261707 0.423095
v 0.290603 1.254911 0.413214
v 0.199954 1.232754 0.286598
v 0.212044 1.228603 0.280768
v 0.319480 1.225863 0.338116
v 0.280305 1.227658 0.319748
v 0.302309 1.223391 0.319645
v 0.271073 1.236834 0.317859
v 0.269718 1.229793 0.320062
v 0.327923 1.222181 0.331539
v 0.325412 1.228281 0.323950
v 0.329278 1.229221 0.329336
v 0.282588 1.235214 0.345309
v 0.283106 1.239485 0.333740
v 0.281751 1.232445 0.335942
v 0.320606 1.227615 0.344409
v 0.328753 1.232424 0.339254
v 0.321961 1.234655 0.342207
v 0.242495 1.233493 0.315139
v 0.279958 1.232030 0.307968
v 0.278603 1.224990 0.310170
v 0.320835 1.232903 0.335914
v 0.243850 1.240534 0.312937
v 0.337677 1.225806 0.349128
v 0.327398 1.225384 0.341456
v 0.298063 1.236368 0.332977
v 0.283943 1.242254 0.343107
v 0.342556 1.226714 0.329492
v 0.341201 1.219674 0.331694
v 0.284775 1.230440 0.331395
v 0.296708 1.229328 0.335179
v 0.292091 1.224161 0.315822
v 0.301926 1.228630 0.310616
v 0.300571 1.221590 0.312819
v 0.293445 1.231202 0.313620
v 0.281660 1.234698 0.317546
v 0.318035 1.223057 0.328255
v 0.303664 1.230431 0.317443
v 0.319390 1.230097 0.326053
v 0.324057 1.221240 0.326152
v 0.339032 1.232846 0.346926
v 0.286130 1.237481 0.329193
vt 0.880693 0.619340
vt 0.878844 0.613004
vt 0.881667 0.617502
vt 0.876165 0.597892
vt 0.879780 0.590930
vt 0.877879 0.598178
vt 0.906289 0.614305
vt 0.907562 0.615382
vt 0.906631 0.591881
vt 0.882546 0.586422
vt 0.881929 0.584885
vt 0.878056 0.590003
vt 0.877205 0.613593
vt 0.877640 0.605963
vt 0.875949 0.606039
vt 0.965972 0.722777
vt 0.961472 0.722777
vt 0.960517 0.696117
vt 0.906198 0.596771
vt 0.908353 0.601837
vt 0.906707 0.601966
vt 0.908353 0.607000
vt 0.906849 0.607020
vt 0.905406 0.593167
vt 0.908018 0.596369
vt 0.906663 0.611390
vt 0.908134 0.611516
vt 0.973013 0.696418
vt 0.976869 0.696844
vt 0.972643 0.723357
vt 0.970263 0.723036
vt 0.966928 0.696117
vt 0.950567 0.696844
vt 0.954429 0.696418
vt 0.954793 0.723357
vt 0.957178 0.723036
vt 0.966034 0.541913
vt 0.966884 0.534335
vt 0.968069 0.538061
vt 0.965205 0.533118
vt 0.966292 0.532096
vt 0.967635 0.542797
vt 0.968890 0.542020
vt 0.968725 0.542938
vt 0.961581 0.530411
vt 0.962629 0.528996
vt 0.962756 0.530595
vt 0.965584 0.542641
vt 0.965073 0.543886
vt 0.964698 0.542602
vt 0.968666 0.529694
vt 0.969468 0.533881
vt 0.968150 0.533883
vt 0.964900 0.541713
vt 0.969494 0.528758
vt 0.966662 0.544601
vt 0.966174 0.543248
vt 0.960554 0.532299
vt 0.960873 0.529734
vt 0.968538 0.544800
vt 0.967683 0.544147
vt 0.962691 0.531426
vt 0.961604 0.531430
vt 0.968134 0.536162
vt 0.969494 0.537388
vt 0.968650 0.537290
vt 0.969340 0.536112
vt 0.965619 0.534517
vt 0.967559 0.541084
vt 0.969177 0.538332
vt 0.968813 0.541074
vt 0.968010 0.541998
vt 0.966350 0.545379
vt 0.962487 0.532566
vn 0.4967 0.1697 0.8512
vn 0.5220 0.1614 0.8376
vn 0.6071 0.1309 0.7837
vn 0.6484 0.1146 0.7527
vn 0.6065 0.1312 0.7842
vn -0.8757 0.2691 0.4009
vn -0.8758 0.2685 0.4011
vn -0.8757 0.2688 0.4010
vn 0.6909 -0.3121 -0.6521
vn 0.6908 -0.3129 -0.6518
vn 0.6909 -0.3127 -0.6519
vn 0.6492 0.1142 0.7520
vn 0.6710 0.1049 0.7340
vn 0.5225 0.1612 0.8372
vn 0.5673 0.1456 0.8105
vn 0.5679 0.1454 0.8102
vn 0.1807 0.9387 -0.2936
vn -0.6613 -0.1094 -0.7421
vn -0.6115 -0.1294 -0.7806
vn -0.6107 -0.1297 -0.7812
vn -0.5635 -0.1469 -0.8129
vn -0.5628 -0.1472 -0.8134
vn -0.6884 -0.0976 -0.7188
vn -0.6624 -0.1089 -0.7412
vn -0.5071 -0.1663 -0.8457
vn -0.4760 -0.1764 -0.8616
vn -0.5078 -0.1660 -0.8453
vn -0.1807 -0.9387 0.2936
vn -0.1806 -0.9387 0.2936
vn -0.1550 0.3220 0.9340
vn 0.0853 0.2825 0.9555
vn 0.7963 -0.3148 -0.5165
vn 0.7965 -0.3145 -0.5164
vn -0.9798 0.1977 0.0291
vn 0.4431 0.1888 0.8764
vn -0.1913 -0.2593 -0.9467
vn -0.9688 0.2214 0.1117
vn -0.4325 0.3439 0.8335
vn -0.5708 0.3432 0.7459
vn 0.6125 0.1262 0.7804
vn -0.0437 -0.2906 -0.9559
vn 0.4222 -0.3436 -0.8388
vn 0.2567 -0.3332 -0.9073
vn -0.3820 -0.2082 -0.9004
vn -0.3820 -0.2079 -0.9005
vn 0.3456 -0.3400 -0.8746
vn -0.3860 0.3422 0.8567
vn 0.4453 -0.3442 -0.8266
vn 0.4452 -0.3442 -0.8266
vn 0.9541 -0.2398 -0.1796
vn -0.3781 -0.2093 -0.9018
vn 0.9655 -0.1124 0.2347
vn 0.5742 -0.3431 -0.7433
vn 0.4223 -0.3436 -0.8388
vn -0.1807 -0.9387 0.2937
vn -0.1806 -0.9387 0.2937
vn 0.0852 0.2825 0.9555
vn 0.4430 0.1888 0.8764
vn -0.1913 -0.2592 -0.9467
vn -0.0437 -0.2907 -0.9558
vn 0.2566 -0.3331 -0.9073
vn -0.3820 -0.2081 -0.9004
vn 0.3456 -0.3401 -0.8746
vn 0.9540 -0.2398 -0.1796
vn -0.8756 0.2695 0.4009
vn 0.6909 -0.3124 -0.6520
vn -0.6884 -0.0975 -0.7188
usemtl dhd.009
s 1
f 1/1/1 3/2/2 4/3/1
f 5/4/3 7/5/4 8/6/5
f 1/1/6 9/7/7 10/8/8
f 11/9/9 13/10/10 14/11/11
f 6/12/12 13/10/13 7/5/4
f 2/13/14 16/14/15 3/2/2
f 15/15/16 8/6/5 16/14/15
f 17/16/17 18/17/17 19/18/17
f 20/19/18 22/20/19 23/21/20
f 23/21/20 24/22/21 25/23/22
f 12/24/23 21/25/24 20/19/18
f 26/26/25 10/8/26 9/7/26
f 25/23/22 27/27/27 26/26/25
f 28/28/17 29/29/17 30/30/17
f 28/28/17 30/30/17 31/31/17
f 19/18/17 32/32/17 17/16/17
f 32/32/17 28/28/17 31/31/17
f 17/16/17 32/32/17 31/31/17
f 33/33/17 34/34/17 35/35/17
f 34/34/17 19/18/17 36/36/17
f 36/36/17 19/18/17 18/17/17
f 36/36/17 35/35/17 34/34/17
f 37/37/28 38/38/28 39/39/29
f 38/38/30 40/40/31 41/41/31
f 42/42/32 43/43/32 44/44/33
f 45/45/34 46/46/34 47/47/34
f 48/48/35 49/49/35 50/50/35
f 51/51/36 52/52/36 53/53/36
f 37/37/37 50/50/37 54/54/37
f 51/51/38 46/46/38 55/55/38
f 56/56/39 49/49/39 57/57/39
f 45/45/40 58/58/40 59/59/40
f 42/42/41 60/60/41 61/61/41
f 62/62/42 58/58/43 63/63/43
f 64/64/44 65/65/45 66/66/45
f 53/53/46 67/67/46 64/64/46
f 38/38/30 54/54/47 68/68/30
f 69/69/48 70/70/49 71/71/48
f 39/39/50 65/65/50 70/70/50
f 69/69/51 43/43/51 72/72/51
f 56/56/52 60/60/52 73/73/52
f 62/62/42 40/40/53 74/74/54
f 62/62/55 63/63/56 47/47/55
f 63/63/56 45/45/29 47/47/55
f 41/41/28 62/62/55 47/47/55
f 51/51/28 53/53/28 41/41/28
f 53/53/28 64/64/55 38/38/28
f 64/64/55 66/66/56 39/39/29
f 69/69/28 72/72/55 42/42/28
f 64/64/55 39/39/29 38/38/28
f 39/39/29 69/69/28 37/37/28
f 41/41/28 47/47/55 51/51/28
f 38/38/28 41/41/28 53/53/28
f 42/42/28 61/61/29 57/57/29
f 61/61/29 56/56/56 57/57/29
f 57/57/29 48/48/28 37/37/28
f 69/69/28 42/42/28 37/37/28
f 42/42/28 57/57/29 37/37/28
f 38/38/30 68/68/30 40/40/57
f 42/42/32 72/72/32 43/43/32
f 45/45/34 59/59/34 46/46/34
f 48/48/35 57/57/58 49/49/35
f 51/51/59 55/55/59 52/52/59
f 37/37/37 48/48/37 50/50/37
f 51/51/38 47/47/38 46/46/38
f 56/56/39 73/73/39 49/49/39
f 45/45/40 63/63/40 58/58/40
f 42/42/60 44/44/60 60/60/60
f 62/62/42 74/74/54 58/58/61
f 64/64/62 67/67/62 65/65/62
f 53/53/63 52/52/63 67/67/63
f 38/38/30 37/37/47 54/54/47
f 69/69/48 39/39/49 70/70/49
f 39/39/50 66/66/64 65/65/50
f 69/69/51 71/71/51 43/43/51
f 56/56/52 61/61/52 60/60/52
f 62/62/42 41/41/53 40/40/53
f 1/1/1 2/13/14 3/2/2
f 5/4/3 6/12/12 7/5/4
f 1/1/6 4/3/65 9/7/7
f 11/9/9 12/24/66 13/10/10
f 6/12/12 14/11/13 13/10/13
f 2/13/14 15/15/16 16/14/15
f 15/15/16 5/4/3 8/6/5
f 20/19/18 21/25/24 22/20/19
f 23/21/20 22/20/19 24/22/21
f 12/24/23 11/9/67 21/25/24
f 26/26/25 27/27/27 10/8/26
f 25/23/22 24/22/21 27/27/27
