# WaveFront *.obj file (generated by Cinema 4D)

mtllib ./7.mtl

v 0.196440 1.280507 0.461063
v 0.229879 1.274114 0.449418
v 0.226992 1.272615 0.442656
v 0.193938 1.278935 0.454167
v 0.160693 1.286831 0.471580
v 0.158541 1.285197 0.464581
v 0.115514 1.250992 0.318865
v 0.113400 1.249351 0.311855
v 0.089705 1.253145 0.317317
v 0.091334 1.254863 0.324439
v 0.069057 1.256040 0.320522
v 0.102284 1.294009 0.476813
v 0.077582 1.256792 0.326573
v 0.247513 1.268316 0.434087
v 0.160581 1.240605 0.296465
v 0.137823 1.245030 0.304669
v 0.140364 1.246596 0.311553
v 0.163589 1.242080 0.303181
v 0.124380 1.290769 0.472845
v 0.126137 1.292467 0.479939
v 0.179449 1.236510 0.288044
v 0.176145 1.239355 0.297577
v 0.096153 1.296865 0.485323
v 0.257735 1.268278 0.437785
v 0.173431 1.268078 0.375829
v 0.169624 1.259074 0.340297
v 0.165988 1.267952 0.372554
v 0.122515 1.281623 0.407990
v 0.127993 1.281908 0.411129
v 0.135197 1.280963 0.410260
v 0.152958 1.273141 0.387312
v 0.151783 1.278090 0.405612
v 0.129197 1.288844 0.437850
v 0.176039 1.256590 0.333298
v 0.157557 1.258817 0.334789
v 0.139216 1.272893 0.381204
v 0.136205 1.289885 0.444427
v 0.129952 1.290630 0.444900
v 0.162572 1.259872 0.340669
v 0.144125 1.277553 0.400700
v 0.133409 1.287361 0.433817
v 0.140160 1.275126 0.390017
v 0.140236 1.285523 0.429423
v 0.135690 1.288667 0.439620
v 0.151813 1.286744 0.438399
# 45 vertices

vn 0.095469 0.962438 -0.254063
vn 0.095469 0.962438 -0.253938
vn 0.095594 0.962438 -0.253938
vn 0.095594 0.962438 -0.254063
vn 0.095469 0.962406 -0.254156
vn 0.095594 0.962406 -0.254156
vn 0.095500 0.962406 -0.254063
vn 0.095375 0.962438 -0.254063
# 8 normals

vt 0.595355 0.957045 0.000000
vt 0.798377 0.947010 0.000000
vt 0.596413 0.999907 0.000000
vt 0.000000 1.000000 0.000000
vt 0.380414 0.999907 0.000000
vt 0.381472 0.957045 0.000000
vt 0.270069 0.058914 0.000000
vt 0.274231 0.016225 0.000000
vt 0.413335 0.067562 0.000000
vt 0.190495 0.048179 0.000000
vt 0.049505 0.932785 0.000000
vt 0.154753 0.000106 0.000000
vt 0.927040 0.932789 0.000000
vt 0.801792 0.989756 0.000000
vt 0.706663 0.058912 0.000000
vt 0.563491 0.067561 0.000000
vt 0.702495 0.016223 0.000000
vt 0.178351 0.947010 0.000000
vt 0.562197 0.024698 0.000000
vt 0.414627 0.024700 0.000000
vt 0.786048 0.048186 0.000000
vt 0.821788 0.000105 0.000000
vt 0.174938 0.989757 0.000000
vt 0.000098 0.970453 0.000000
vt 0.976446 0.970452 0.000000
vt 0.419584 0.732097 0.000000
vt 0.401898 0.814063 0.000000
vt 0.439777 0.730418 0.000000
vt 0.377750 0.613719 0.000000
vt 0.361490 0.605470 0.000000
vt 0.346035 0.608487 0.000000
vt 0.400903 0.684934 0.000000
vt 0.413028 0.639188 0.000000
vt 0.368996 0.817271 0.000000
vt 0.411312 0.836630 0.000000
vt 0.385594 0.807156 0.000000
vt 0.363573 0.688183 0.000000
vt 0.390996 0.644686 0.000000
vt 0.372966 0.667438 0.000000
vt 0.405209 0.571147 0.000000
vt 0.439777 0.559043 0.000000
vt 0.402800 0.542349 0.000000
vt 0.392706 0.554600 0.000000
vt 0.407924 0.531033 0.000000
vt 0.393584 0.524559 0.000000
vt 0.386069 0.541156 0.000000
# 46 texture coordinates

o buttons.031
usemtl dhd_button_light.015_1
f 1/3/1 3/2/1 4/1/1
f 1/3/1 6/6/2 5/5/2
f 7/9/1 9/8/2 10/7/3
f 11/12/1 12/11/4 13/10/1
f 2/14/5 14/13/1 3/2/1
f 15/17/1 17/16/5 18/15/1
f 19/18/2 5/5/2 6/6/2
f 8/20/1 17/16/5 16/19/5
f 14/13/1 21/22/1 22/21/1
f 9/8/2 13/10/1 10/7/3
f 22/21/1 15/17/1 18/15/1
f 12/11/4 20/23/2 19/18/2
f 11/12/1 23/24/4 12/11/4
f 2/14/5 24/25/1 14/13/1
f 14/13/1 24/25/1 21/22/1
f 9/8/2 11/12/1 13/10/1
f 22/21/1 21/22/1 15/17/1
f 12/11/4 23/24/4 20/23/2
f 25/28/1 26/27/1 27/26/1
f 28/31/4 29/30/6 30/29/4
f 8/20/1 7/9/1 17/16/5
f 32/33/1 25/28/1 31/32/7
f 26/27/1 34/35/1 35/34/1
f 19/18/2 20/23/2 5/5/2
f 15/17/1 16/19/5 17/16/5
f 31/32/7 25/28/1 27/26/1
f 26/27/1 35/34/1 39/36/1
f 27/26/1 36/37/4 31/32/7
f 26/27/1 39/36/1 27/26/1
f 40/38/1 32/33/1 31/32/7
f 7/9/1 8/20/1 9/8/2
f 30/29/4 40/38/1 42/39/1
f 40/38/1 31/32/7 42/39/1
f 1/3/1 4/1/1 6/6/2
f 31/32/7 36/37/4 42/39/1
f 1/3/1 2/14/5 3/2/1
f 44/42/1 45/41/5 43/40/1
f 44/42/1 43/40/1 41/43/1
f 43/40/1 30/29/4 29/30/6
f 41/43/1 43/40/1 29/30/6
f 38/45/1 37/44/8 44/42/1
f 41/43/1 33/46/1 44/42/1
f 33/46/1 38/45/1 44/42/1
f 42/39/1 28/31/4 30/29/4

