# WaveFront *.obj file (generated by Cinema 4D)

mtllib ./7_base.mtl

v 0.178835 1.228315 0.290157
v 0.179449 1.236510 0.288044
v 0.257735 1.268278 0.437785
v 0.257087 1.259730 0.439991
v 0.160581 1.240605 0.296465
v 0.160003 1.232767 0.298483
v 0.137263 1.237380 0.306639
v 0.137823 1.245030 0.304669
v 0.195871 1.272763 0.463056
v 0.229282 1.266093 0.451485
v 0.229879 1.274114 0.449418
v 0.196440 1.280507 0.461063
v 0.125540 1.284447 0.482006
v 0.160125 1.279087 0.473574
v 0.160693 1.286831 0.471580
v 0.126137 1.292467 0.479939
v 0.140364 1.246596 0.311553
v 0.115514 1.250992 0.318865
v 0.158541 1.285197 0.464581
v 0.089705 1.253145 0.317317
v 0.089127 1.245306 0.319336
v 0.068443 1.247845 0.322635
v 0.069057 1.256040 0.320522
v 0.095505 1.288317 0.487529
v 0.096153 1.296865 0.485323
v 0.112841 1.241700 0.313824
v 0.113400 1.249351 0.311855
v 0.226992 1.272615 0.442656
v 0.247513 1.268316 0.434087
v 0.176145 1.239355 0.297577
v 0.163589 1.242080 0.303181
v 0.193938 1.278935 0.454167
v 0.102284 1.294009 0.476813
v 0.124380 1.290769 0.472845
v 0.077582 1.256792 0.326573
v 0.091334 1.254863 0.324439
v 0.165272 1.260734 0.374460
v 0.168908 1.251856 0.342203
v 0.172715 1.260860 0.377735
v 0.139519 1.278305 0.431329
v 0.134973 1.281448 0.441526
v 0.132692 1.280142 0.435722
v 0.176039 1.256590 0.333298
v 0.169624 1.259074 0.340297
v 0.151783 1.278090 0.405612
v 0.151067 1.270872 0.407518
v 0.161856 1.252654 0.342575
v 0.165988 1.267952 0.372554
v 0.162572 1.259872 0.340669
v 0.127276 1.274689 0.413035
v 0.133409 1.287361 0.433817
v 0.127993 1.281908 0.411129
v 0.121799 1.274404 0.409896
v 0.140160 1.275126 0.390017
v 0.139444 1.267908 0.391923
v 0.152241 1.265923 0.389217
v 0.140236 1.285523 0.429423
v 0.151096 1.279526 0.440305
v 0.122515 1.281623 0.407990
v 0.144125 1.277553 0.400700
v 0.129197 1.288844 0.437850
v 0.143409 1.270335 0.402606
v 0.135197 1.280963 0.410260
v 0.134481 1.273745 0.412166
v 0.128480 1.281625 0.439756
v 0.129952 1.290630 0.444900
v 0.156840 1.251599 0.336694
v 0.157557 1.258817 0.334789
v 0.135488 1.282666 0.446333
v 0.129236 1.283412 0.446806
v 0.173431 1.268078 0.375829
v 0.135690 1.288667 0.439620
v 0.136205 1.289885 0.444427
v 0.139216 1.272893 0.381204
v 0.138500 1.265674 0.383110
v 0.151813 1.286744 0.438399
v 0.175323 1.249371 0.335204
# 77 vertices

vn 0.887031 -0.177188 -0.426156
vn 0.887125 -0.176781 -0.426313
vn -0.338469 -0.211281 -0.916875
vn -0.339438 -0.211125 -0.916531
vn -0.400594 -0.200656 -0.893969
vn 0.333438 0.211875 0.918594
vn 0.384594 0.203313 0.900375
vn 0.334250 0.211750 0.918281
vn -0.402000 -0.200406 -0.893406
vn -0.434656 -0.194188 -0.879313
vn 0.233531 0.226281 0.945625
vn 0.286563 0.219094 0.932594
vn 0.234281 0.226125 0.945406
vn 0.287250 0.218938 0.932469
vn 0.095469 0.962438 -0.254063
vn -0.180937 -0.232719 -0.955500
vn -0.216469 -0.228406 -0.949094
vn 0.412750 0.198188 0.888969
vn 0.385688 0.203125 0.899938
vn -0.984781 0.108844 0.134844
vn -0.984781 0.108938 0.134844
vn -0.281281 -0.219750 -0.934094
vn -0.282156 -0.219688 -0.933781
vn 0.204563 0.230000 0.951375
vn -0.217281 -0.228375 -0.949000
vn 0.095594 0.962438 -0.254063
vn -0.095469 -0.962438 0.254063
vn 0.750625 0.097938 0.653313
vn 0.817906 0.069688 0.571063
vn -0.990000 0.118281 0.076063
vn -0.969375 0.148000 0.195719
vn -0.969375 0.147969 0.195875
vn -0.728500 -0.106375 -0.676625
vn -0.707656 -0.113688 -0.697250
vn -0.707781 -0.113781 -0.697156
vn 0.744781 0.100281 0.659688
vn -0.990000 0.118375 0.075938
vn -0.990000 0.118375 0.076063
vn -0.759844 0.235375 0.605875
vn 0.102063 0.244438 0.964250
vn 0.990000 -0.118281 -0.076063
vn 0.990000 -0.118375 -0.076063
vn 0.102156 0.244375 0.964250
vn 0.102156 0.244438 0.964250
vn -0.107094 -0.243813 -0.963844
vn -0.335375 -0.209281 -0.918500
vn -0.533625 0.264969 0.803031
vn -0.489563 0.267625 0.829844
vn 0.608781 -0.258500 -0.750000
vn -0.984781 0.109063 0.134844
vn 0.412750 0.198406 0.888875
vn 0.964063 -0.153094 -0.216906
vn -0.095469 -0.962406 0.254094
vn 0.964063 -0.152938 -0.217094
vn -0.095469 -0.962406 0.254156
vn 0.887125 -0.176375 -0.426375
vn -0.095594 -0.962406 0.254156
vn -0.095594 -0.962438 0.254063
vn -0.990000 0.118281 0.076156
vn 0.102063 0.244375 0.964281
vn -0.107094 -0.243625 -0.963844
vn -0.489469 0.267625 0.829844
# 62 normals

vt 0.267492 0.886127 0.000000
vt 0.268110 0.887664 0.000000
vt 0.292195 0.893124 0.000000
vt 0.000000 1.000000 0.000000
vt 0.292270 0.903208 0.000000
vt 0.293917 0.903079 0.000000
vt 0.291762 0.898013 0.000000
vt 0.263443 0.899420 0.000000
vt 0.265344 0.892172 0.000000
vt 0.261729 0.899134 0.000000
vt 0.293582 0.897611 0.000000
vt 0.290969 0.894409 0.000000
vt 0.264408 0.914246 0.000000
vt 0.263204 0.907205 0.000000
vt 0.262769 0.914835 0.000000
vt 0.261513 0.907281 0.000000
vt 0.960517 0.725678 0.000000
vt 0.961472 0.752338 0.000000
vt 0.965972 0.752338 0.000000
vt 0.291852 0.915547 0.000000
vt 0.293125 0.916624 0.000000
vt 0.292226 0.912632 0.000000
vt 0.263619 0.891245 0.000000
vt 0.266257 0.920582 0.000000
vt 0.292413 0.908262 0.000000
vt 0.293917 0.908243 0.000000
vt 0.267231 0.918744 0.000000
vt 0.293698 0.912758 0.000000
vt 0.972643 0.752919 0.000000
vt 0.976869 0.726405 0.000000
vt 0.973013 0.725979 0.000000
vt 0.970263 0.752597 0.000000
vt 0.966928 0.725678 0.000000
vt 0.954793 0.752919 0.000000
vt 0.954429 0.725979 0.000000
vt 0.950567 0.726405 0.000000
vt 0.957178 0.752597 0.000000
vt 0.252826 0.946938 0.000000
vt 0.253672 0.953517 0.000000
vt 0.254343 0.947155 0.000000
vt 0.254377 0.934061 0.000000
vt 0.253894 0.933245 0.000000
vt 0.253401 0.934959 0.000000
vt 0.252137 0.953938 0.000000
vt 0.252846 0.956108 0.000000
vt 0.253079 0.941867 0.000000
vt 0.252032 0.941433 0.000000
vt 0.256072 0.953516 0.000000
vt 0.255666 0.947390 0.000000
vt 0.254743 0.953571 0.000000
vt 0.256702 0.937354 0.000000
vt 0.255388 0.933862 0.000000
vt 0.255667 0.937987 0.000000
vt 0.255999 0.942050 0.000000
vt 0.257363 0.941950 0.000000
vt 0.256315 0.938467 0.000000
vt 0.255297 0.933181 0.000000
vt 0.254360 0.938215 0.000000
vt 0.253140 0.938248 0.000000
vt 0.254144 0.940867 0.000000
vt 0.254940 0.932336 0.000000
vt 0.254568 0.933321 0.000000
vt 0.255781 0.954942 0.000000
vt 0.254983 0.954338 0.000000
vt 0.254435 0.932938 0.000000
vt 0.254175 0.932833 0.000000
vt 0.251635 0.946967 0.000000
vt 0.254095 0.932149 0.000000
vt 0.253420 0.932384 0.000000
vt 0.256415 0.943308 0.000000
vt 0.257490 0.943380 0.000000
vt 0.251635 0.933518 0.000000
vt 0.253748 0.954605 0.000000
vt 0.252793 0.940293 0.000000
vt 0.257183 0.938031 0.000000
vt 0.252634 0.933796 0.000000
vt 0.252416 0.935302 0.000000
vt 0.254548 0.943571 0.000000
# 78 texture coordinates

o buttons.067
usemtl dhd.010_1
f 1/3/2 3/2/1 4/1/1
f 5/7/5 7/6/4 8/5/3
f 9/10/8 11/9/7 12/8/6
f 2/12/10 6/11/9 5/7/5
f 13/15/13 15/14/12 16/13/11
f 14/16/14 12/8/6 15/14/12
f 17/19/15 18/18/15 19/17/15
f 20/22/17 22/21/16 23/20/16
f 10/23/19 3/2/18 11/9/7
f 24/24/20 23/20/21 22/21/20
f 8/5/3 26/26/23 27/25/22
f 24/24/24 16/13/11 25/27/24
f 27/25/22 21/28/25 20/22/17
f 28/31/15 29/30/15 30/29/15
f 28/31/15 30/29/15 31/32/15
f 19/17/15 32/33/15 17/19/15
f 32/33/15 28/31/15 31/32/15
f 17/19/15 32/33/15 31/32/15
f 33/36/15 34/35/15 35/34/26
f 34/35/15 19/17/15 36/37/15
f 36/37/15 19/17/15 18/18/15
f 36/37/15 35/34/26 34/35/15
f 37/40/27 38/39/27 39/38/27
f 40/43/27 41/42/27 42/41/27
f 38/39/28 43/45/28 44/44/28
f 39/38/29 45/47/29 46/46/29
f 47/50/30 48/49/30 49/48/30
f 50/53/31 51/52/32 52/51/31
f 53/56/33 54/55/33 55/54/33
f 27/25/22 26/26/23 21/28/25
f 24/24/24 13/15/13 16/13/11
f 42/41/35 61/57/34 51/52/34
f 62/60/36 63/59/36 64/58/36
f 65/62/38 66/61/38 61/57/37
f 67/64/39 49/48/39 68/63/39
f 69/66/40 66/61/40 70/65/40
f 39/38/41 44/44/41 71/67/41
f 69/66/42 72/69/42 73/68/42
f 55/54/30 74/71/30 75/70/30
f 41/42/43 76/72/44 72/69/43
f 67/64/45 43/45/45 77/73/45
f 37/40/46 74/71/46 48/49/46
f 62/60/47 45/47/47 60/74/47
f 50/53/48 59/75/48 53/56/48
f 40/43/49 76/72/49 58/76/49
f 8/5/3 7/6/4 26/26/23
f 24/24/20 25/27/50 23/20/21
f 10/23/19 4/1/51 3/2/18
f 20/22/17 21/28/25 22/21/16
f 64/58/52 57/77/52 40/43/52
f 39/38/27 46/46/27 56/78/53
f 64/58/54 63/59/54 57/77/54
f 67/64/27 77/73/55 38/39/27
f 39/38/27 56/78/53 37/40/27
f 1/3/2 2/12/56 3/2/1
f 5/7/5 6/11/9 7/6/4
f 56/78/53 75/70/55 37/40/27
f 47/50/27 67/64/27 38/39/27
f 37/40/27 47/50/27 38/39/27
f 56/78/53 46/46/27 62/60/27
f 9/10/8 10/23/19 11/9/7
f 75/70/55 56/78/53 55/54/27
f 2/12/10 1/3/10 6/11/9
f 40/43/49 57/77/49 76/72/49
f 56/78/53 62/60/27 55/54/27
f 62/60/27 64/58/27 55/54/27
f 50/53/27 53/56/27 64/58/27
f 53/56/27 55/54/27 64/58/27
f 70/65/57 65/62/55 41/42/27
f 65/62/55 42/41/27 41/42/27
f 69/66/58 70/65/57 41/42/27
f 42/41/27 50/53/27 40/43/27
f 50/53/27 64/58/27 40/43/27
f 40/43/27 58/76/27 41/42/27
f 38/39/28 77/73/28 43/45/28
f 39/38/29 71/67/29 45/47/29
f 47/50/30 37/40/30 48/49/30
f 50/53/31 42/41/32 51/52/32
f 53/56/33 59/75/33 54/55/33
f 14/16/14 9/10/8 12/8/6
f 13/15/13 14/16/14 15/14/12
f 42/41/35 65/62/35 61/57/34
f 62/60/36 60/74/36 63/59/36
f 65/62/38 70/65/59 66/61/38
f 67/64/39 47/50/39 49/48/39
f 69/66/60 73/68/60 66/61/60
f 39/38/41 38/39/41 44/44/41
f 69/66/42 41/42/42 72/69/42
f 55/54/30 54/55/30 74/71/30
f 41/42/43 58/76/44 76/72/44
f 67/64/61 68/63/61 43/45/61
f 37/40/46 75/70/46 74/71/46
f 62/60/47 46/46/47 45/47/47
f 50/53/62 52/51/62 59/75/62

