# WaveFront *.obj file (generated by Cinema 4D)

mtllib ./9_base.mtl

v -0.162930 1.240543 0.296361
v -0.161968 1.232773 0.298493
v -0.180831 1.228315 0.290157
v -0.181828 1.236442 0.287931
v -0.071436 1.255972 0.320409
v -0.070439 1.247845 0.322634
v -0.091092 1.245312 0.319345
v -0.092054 1.253082 0.317213
v -0.197820 1.272771 0.463071
v -0.162073 1.279096 0.473587
v -0.163026 1.286772 0.471481
v -0.198773 1.280447 0.460964
v -0.127505 1.284452 0.482016
v -0.128485 1.292405 0.479836
v -0.117846 1.250933 0.318765
v -0.142697 1.246536 0.311455
v -0.196270 1.278875 0.454068
v -0.114789 1.241709 0.313837
v -0.115733 1.249291 0.311755
v -0.259082 1.259731 0.439992
v -0.231247 1.266099 0.451494
v -0.232227 1.274052 0.449314
v -0.260115 1.268211 0.437672
v -0.097500 1.288317 0.487530
v -0.098532 1.296797 0.485211
v -0.140155 1.244971 0.304570
v -0.139212 1.237388 0.306652
v -0.126729 1.290706 0.472741
v -0.104664 1.293941 0.476701
v -0.079962 1.256724 0.326462
v -0.093682 1.254801 0.324335
v -0.160874 1.285137 0.464482
v -0.249892 1.268248 0.433973
v -0.229341 1.272553 0.442552
v -0.178523 1.239287 0.297463
v -0.165937 1.242018 0.303077
v -0.170425 1.267628 0.401757
v -0.147879 1.269254 0.399442
v -0.178953 1.270803 0.416989
v -0.185180 1.259970 0.378299
v -0.167759 1.258296 0.365411
v -0.179866 1.260936 0.379962
v -0.121710 1.275462 0.413119
v -0.124477 1.276857 0.389930
v -0.122426 1.282680 0.411213
v -0.165118 1.262656 0.351419
v -0.164402 1.255438 0.353325
v -0.141006 1.270509 0.401613
v -0.141723 1.277727 0.399707
v -0.185897 1.267188 0.376393
v -0.162462 1.265254 0.360260
v -0.171142 1.274846 0.399851
v -0.148595 1.276472 0.397536
v -0.131980 1.266966 0.355288
v -0.131264 1.259748 0.357194
v -0.161746 1.258036 0.362166
v -0.132253 1.268474 0.361101
v -0.128146 1.258329 0.350650
v -0.128862 1.265548 0.348744
v -0.131537 1.261256 0.363007
v -0.129346 1.269882 0.365341
v -0.118155 1.268559 0.356124
v -0.117439 1.261340 0.358030
v -0.148867 1.274181 0.388960
v -0.148151 1.266963 0.390866
v -0.176346 1.267060 0.401831
v -0.167475 1.259168 0.368607
v -0.123761 1.269639 0.391836
v -0.179670 1.278022 0.415083
v -0.138008 1.276102 0.392154
v -0.137292 1.268883 0.394059
v -0.128630 1.262663 0.367247
v -0.173508 1.265835 0.396125
# 73 vertices

vn 0.433844 -0.188094 -0.881063
vn 0.401094 -0.195906 -0.894813
vn 0.217969 -0.233094 -0.947688
vn 0.216469 -0.233281 -0.947937
vn 0.181281 -0.238969 -0.953906
vn -0.334062 0.210688 0.918688
vn -0.287469 0.220031 0.932094
vn -0.333375 0.210750 0.918906
vn -0.234781 0.229875 0.944438
vn -0.286656 0.220188 0.932312
vn -0.095469 0.962438 -0.254063
vn 0.282375 -0.221188 -0.933438
vn 0.281344 -0.221375 -0.933688
vn -0.412156 0.193375 0.890281
vn -0.384969 0.199594 0.901031
vn -0.384375 0.199656 0.901250
vn -0.204875 0.234844 0.950156
vn -0.233688 0.230062 0.944656
vn -0.882688 -0.221250 -0.414469
vn -0.882688 -0.221375 -0.414469
vn -0.882688 -0.221250 -0.414594
vn 0.400281 -0.196063 -0.895156
vn 0.339281 -0.209562 -0.916969
vn 0.980344 0.153844 0.123156
vn 0.980375 0.153688 0.123156
vn 0.980344 0.153844 0.123062
vn 0.338375 -0.209750 -0.917313
vn 0.095469 -0.962438 0.254063
vn 0.095375 -0.962438 0.254063
vn 0.991094 0.068156 -0.114188
vn -0.767812 -0.233688 -0.596438
vn -0.435469 0.189094 0.880094
vn -0.536094 0.165344 0.827781
vn -0.983500 -0.052094 0.172875
vn 0.973312 0.143750 0.178563
vn 0.973312 0.143688 0.178594
vn -0.329188 0.210344 0.920469
vn 0.143281 -0.239344 -0.960281
vn -0.053594 0.249969 0.966750
vn -0.901469 -0.191781 -0.387937
vn -0.901438 -0.191844 -0.387937
vn -0.832687 0.062688 0.550094
vn 0.589406 -0.151063 -0.793500
vn -0.429344 -0.270156 -0.861750
vn 0.483813 0.268000 0.833094
vn 0.086438 -0.246156 -0.965344
vn 0.086344 -0.246156 -0.965344
vn 0.310156 -0.213781 -0.926313
vn 0.980344 0.153688 0.123250
vn 0.632375 0.255781 0.731188
vn -0.141781 -0.265875 -0.953469
vn 0.086469 -0.246281 -0.965281
vn 0.095469 -0.962406 0.254156
vn 0.095375 -0.962438 0.253938
vn -0.767875 -0.233750 -0.596344
vn -0.983563 -0.051937 0.172875
vn -0.901469 -0.191844 -0.387844
vn 0.589375 -0.151094 -0.793531
vn -0.429406 -0.270156 -0.861719
vn 0.310250 -0.213781 -0.926281
vn -0.141844 -0.265656 -0.953531
vn 0.181156 -0.238875 -0.953969
# 62 normals

vt 0.869260 0.184558 0.000000
vt 0.867987 0.183480 0.000000
vt 0.868886 0.187473 0.000000
vt 0.000000 1.000000 0.000000
vt 0.869351 0.202091 0.000000
vt 0.867531 0.202493 0.000000
vt 0.870143 0.205695 0.000000
vt 0.897909 0.192899 0.000000
vt 0.897670 0.200684 0.000000
vt 0.899600 0.192823 0.000000
vt 0.895769 0.207933 0.000000
vt 0.899384 0.200970 0.000000
vt 0.090149 0.959389 0.000000
vt 0.089194 0.932730 0.000000
vt 0.084694 0.932730 0.000000
vt 0.868843 0.196896 0.000000
vt 0.867196 0.197025 0.000000
vt 0.893882 0.181361 0.000000
vt 0.896705 0.185858 0.000000
vt 0.894856 0.179522 0.000000
vt 0.898344 0.185270 0.000000
vt 0.893003 0.212440 0.000000
vt 0.897493 0.208860 0.000000
vt 0.867415 0.187346 0.000000
vt 0.868700 0.191842 0.000000
vt 0.893621 0.213977 0.000000
vt 0.868918 0.206981 0.000000
vt 0.867196 0.191862 0.000000
vt 0.078023 0.932149 0.000000
vt 0.073798 0.958662 0.000000
vt 0.077654 0.959089 0.000000
vt 0.080403 0.932471 0.000000
vt 0.083739 0.959389 0.000000
vt 0.095873 0.932149 0.000000
vt 0.096237 0.959089 0.000000
vt 0.100099 0.958662 0.000000
vt 0.093488 0.932471 0.000000
vt 0.740002 0.307173 0.000000
vt 0.745242 0.311276 0.000000
vt 0.743081 0.306360 0.000000
vt 0.741606 0.301905 0.000000
vt 0.743904 0.300787 0.000000
vt 0.741208 0.301622 0.000000
vt 0.747565 0.316581 0.000000
vt 0.750199 0.313985 0.000000
vt 0.747788 0.315178 0.000000
vt 0.744651 0.299008 0.000000
vt 0.744086 0.298089 0.000000
vt 0.744795 0.313558 0.000000
vt 0.745914 0.312712 0.000000
vt 0.739941 0.301047 0.000000
vt 0.744545 0.305898 0.000000
vt 0.745868 0.300714 0.000000
vt 0.743867 0.312470 0.000000
vt 0.748575 0.297352 0.000000
vt 0.748157 0.296403 0.000000
vt 0.749357 0.298743 0.000000
vt 0.745060 0.300046 0.000000
vt 0.749108 0.296214 0.000000
vt 0.749090 0.296844 0.000000
vt 0.749951 0.298389 0.000000
vt 0.748820 0.297961 0.000000
vt 0.749581 0.297220 0.000000
vt 0.750199 0.296875 0.000000
vt 0.746651 0.310459 0.000000
vt 0.747677 0.309743 0.000000
vt 0.738760 0.307646 0.000000
vt 0.747535 0.312352 0.000000
vt 0.748838 0.311618 0.000000
vt 0.749386 0.297842 0.000000
vt 0.748667 0.313919 0.000000
vt 0.741378 0.305548 0.000000
vt 0.743010 0.304618 0.000000
vt 0.744048 0.301430 0.000000
# 74 texture coordinates

o buttons.069
usemtl dhd.012_1
f 1/3/2 3/2/1 4/1/1
f 5/7/5 7/6/4 8/5/3
f 9/10/8 11/9/7 12/8/6
f 10/12/10 14/11/9 11/9/7
f 15/15/11 16/14/11 17/13/11
f 8/5/3 18/17/13 19/16/12
f 20/20/14 22/19/15 23/18/14
f 21/21/16 12/8/6 22/19/15
f 13/23/18 25/22/17 14/11/9
f 20/20/21 4/1/20 3/2/19
f 26/25/23 2/24/22 1/3/2
f 6/27/26 25/22/25 24/26/24
f 19/16/12 27/28/27 26/25/23
f 28/31/11 29/30/11 30/29/11
f 28/31/11 30/29/11 31/32/11
f 17/13/11 32/33/11 15/15/11
f 32/33/11 28/31/11 31/32/11
f 15/15/11 32/33/11 31/32/11
f 33/36/11 34/35/11 35/34/11
f 34/35/11 17/13/11 36/37/11
f 36/37/11 17/13/11 16/14/11
f 36/37/11 35/34/11 34/35/11
f 37/40/28 38/39/28 39/38/28
f 40/43/28 41/42/28 42/41/29
f 43/46/30 44/45/30 45/44/30
f 40/43/31 46/48/31 47/47/31
f 48/50/32 45/44/33 49/49/32
f 39/38/34 50/51/34 40/43/34
f 37/40/35 51/53/36 52/52/35
f 38/39/37 49/49/32 53/54/37
f 47/47/38 54/56/38 55/55/38
f 56/58/39 57/57/39 51/53/39
f 58/60/41 54/56/41 59/59/40
f 60/62/42 61/61/42 57/57/42
f 58/60/43 62/64/43 63/63/43
f 37/40/44 64/66/44 65/65/44
f 19/16/12 18/17/13 27/28/27
f 39/38/45 53/54/45 69/67/45
f 65/65/48 70/69/47 71/68/46
f 6/27/26 5/7/49 25/22/25
f 26/25/23 27/28/27 2/24/22
f 63/63/50 61/61/50 72/70/50
f 71/68/52 44/45/51 68/71/51
f 20/20/21 23/18/21 4/1/20
f 13/23/18 24/26/17 25/22/17
f 39/38/28 66/72/28 37/40/28
f 66/72/28 73/73/28 37/40/28
f 67/74/28 41/42/28 56/58/28
f 41/42/28 47/47/28 56/58/28
f 55/55/53 58/60/53 63/63/29
f 63/63/29 72/70/54 60/62/28
f 63/63/29 60/62/28 55/55/53
f 60/62/28 56/58/28 55/55/53
f 37/40/28 65/65/28 38/39/28
f 65/65/28 71/68/28 38/39/28
f 47/47/28 55/55/53 56/58/28
f 71/68/28 68/71/28 48/50/28
f 38/39/28 71/68/28 48/50/28
f 56/58/28 37/40/28 67/74/28
f 68/71/28 43/46/28 48/50/28
f 73/73/28 67/74/28 37/40/28
f 42/41/29 66/72/28 40/43/28
f 66/72/28 39/38/28 40/43/28
f 40/43/28 47/47/28 41/42/28
f 43/46/30 68/71/30 44/45/30
f 40/43/55 50/51/55 46/48/55
f 48/50/32 43/46/33 45/44/33
f 39/38/56 69/67/56 50/51/56
f 37/40/35 56/58/36 51/53/36
f 38/39/37 48/50/32 49/49/32
f 47/47/38 46/48/38 54/56/38
f 56/58/39 60/62/39 57/57/39
f 58/60/41 55/55/57 54/56/41
f 60/62/42 72/70/42 61/61/42
f 58/60/58 59/59/58 62/64/58
f 37/40/59 52/52/59 64/66/59
f 21/21/16 9/10/8 12/8/6
f 39/38/45 38/39/45 53/54/45
f 65/65/48 64/66/60 70/69/47
f 20/20/14 21/21/16 22/19/15
f 8/5/3 7/6/4 18/17/13
f 63/63/50 62/64/50 61/61/50
f 71/68/46 70/69/47 44/45/61
f 10/12/10 13/23/18 14/11/9
f 9/10/8 10/12/10 11/9/7
f 1/3/2 2/24/22 3/2/1
f 5/7/5 6/27/62 7/6/4

