# Blender 5.0.0
# www.blender.org
mtllib stargate_movie_origin_0.mtl
o ringorigin_0
v -0.000000 4.078362 0.083659
v -0.054753 4.077995 0.083659
v -0.109496 4.076892 0.083659
v -0.164219 4.075055 0.083659
v -0.218913 4.072483 0.083659
v -0.273567 4.069178 0.083659
v -0.018071 4.278164 0.101220
v -0.018709 4.349610 0.111048
v 0.273567 4.069178 0.083659
v 0.218913 4.072483 0.083659
v 0.164219 4.075055 0.083659
v 0.109496 4.076892 0.083659
v 0.054753 4.077995 0.083659
v -0.060474 4.504101 0.142119
v -0.000000 4.504506 0.142119
v -0.120937 4.502882 0.142119
v -0.181378 4.500854 0.142119
v -0.241787 4.498013 0.142119
v -0.302152 4.494361 0.142119
v -0.048397 4.348900 0.110950
v -0.047576 4.423627 0.121230
v 0.302152 4.494361 0.142119
v 0.241787 4.498013 0.142119
v 0.181378 4.500854 0.142119
v 0.120937 4.502882 0.142119
v 0.060474 4.504101 0.142119
v -0.300869 4.067158 0.083659
v 0.355445 4.062752 0.083659
v 0.300869 4.067158 0.083659
v -0.332307 4.492131 0.142119
v 0.392585 4.487264 0.142119
v 0.332307 4.492131 0.142119
v 0.303495 4.066963 0.083659
v 0.335207 4.491916 0.142119
v 0.353514 4.062921 0.083659
v 0.390452 4.487451 0.142119
v 0.324750 4.065276 0.083659
v 0.358683 4.490052 0.142119
v 0.331572 4.064725 0.083659
v 0.366217 4.489444 0.142119
v 0.346921 4.063486 0.083659
v 0.383170 4.488075 0.142119
v 0.310253 4.066446 0.083659
v 0.342671 4.491345 0.142119
v 0.353604 4.064039 0.075486
v 0.355535 4.063869 0.075486
v 0.390543 4.488568 0.133946
v 0.392675 4.488381 0.133946
v 0.300960 4.068275 0.075486
v 0.332397 4.493248 0.133946
v 0.303586 4.068081 0.075486
v 0.335298 4.493034 0.133946
v 0.310343 4.067564 0.075486
v 0.324840 4.066394 0.075486
v 0.342761 4.492463 0.133946
v 0.358773 4.491170 0.133946
v 0.331662 4.065843 0.075486
v 0.366307 4.490561 0.133946
v 0.347011 4.064604 0.075486
v 0.383261 4.489193 0.133946
v -0.100709 4.195569 0.089858
v -0.136811 4.182913 0.088117
v -0.085656 4.132804 0.081224
v -0.070769 4.180934 0.087845
v -0.000826 4.249160 0.097230
v 0.075790 4.182372 0.088042
v 0.088076 4.132313 0.081156
v 0.140929 4.186898 0.088665
v 0.100300 4.198249 0.090226
v 0.016373 4.276794 0.101031
v 0.016899 4.348845 0.110943
v 0.043261 4.348820 0.110939
v 0.043655 4.424719 0.121380
v 0.088076 4.130956 0.091015
v 0.075790 4.181023 0.097848
v 0.111600 4.155244 0.094412
v 0.112626 4.193443 0.099654
v 0.100300 4.196892 0.100093
v 0.056364 4.197966 0.100119
v 0.056895 4.237532 0.105547
v 0.043261 4.347488 0.120619
v 0.016373 4.275462 0.110713
v -0.000000 4.247108 0.106808
v -0.000000 4.422874 0.130921
v 0.016899 4.347517 0.120598
v 0.043655 4.423391 0.131032
v -0.018709 4.348281 0.120705
v -0.018071 4.276832 0.110903
v -0.000826 4.247828 0.106908
v -0.056901 4.238015 0.105613
v -0.048397 4.347568 0.120634
v -0.047576 4.422298 0.130886
v -0.056306 4.193700 0.099533
v -0.085656 4.131449 0.091076
v -0.070769 4.179587 0.097638
v -0.100709 4.194211 0.099726
v -0.111645 4.156898 0.094638
v -0.112535 4.190061 0.099190
v -0.136811 4.181536 0.098132
v 0.140929 4.185518 0.098697
vn 0.9962 -0.0866 -0.0008
vn -0.0100 -0.1355 0.9907
vn 0.0064 -0.1358 0.9907
vn 0.0082 -0.1357 0.9907
vn 0.0100 -0.1355 0.9907
vn -0.0082 -0.1357 0.9907
vn -0.0064 -0.1358 0.9907
vn -0.0109 -0.1355 0.9907
vn -0.0116 -0.1354 0.9907
vn -0.9964 0.0850 0.0006
vn -0.0104 -0.1355 0.9907
vn -0.9972 0.0745 -0.0008
vn -0.0119 -0.1354 0.9907
vn 0.9967 -0.0813 -0.0001
vn 0.9973 -0.0739 0.0009
vn -0.9962 0.0870 0.0009
vn -0.9968 0.0796 -0.0001
vn 0.9971 -0.0762 0.0006
vn -0.0000 -0.1363 0.9907
vn -0.0027 -0.1359 0.9907
vn -0.0009 -0.1359 0.9907
vn 0.0009 -0.1359 0.9907
vn 0.0027 -0.1359 0.9907
vn 0.0046 -0.1358 0.9907
vn -0.0046 -0.1358 0.9907
vn -1.0000 0.0072 0.0010
vn -0.9561 0.2903 0.0399
vn 0.0010 0.9907 0.1363
vn -0.7016 0.7059 0.0971
vn 0.9999 -0.0108 -0.0015
vn -1.0000 0.0051 0.0007
vn 0.6606 0.7437 0.1023
vn -0.0241 0.9904 0.1362
vn 0.0121 -0.9906 -0.1363
vn 0.9717 0.2340 0.0322
vn 1.0000 0.0088 0.0012
vn -0.7217 0.6858 0.0943
vn 0.7102 -0.6974 -0.0959
vn -0.2714 -0.9535 -0.1312
vn 0.3336 -0.9339 -0.1285
vn -0.6867 -0.7201 -0.0991
vn 0.7031 0.7045 0.0969
vn -0.0118 -0.1354 0.9907
vn 0.0008 -0.1359 0.9907
vn -0.9561 0.2902 0.0399
vn 0.6604 0.7439 0.1023
vn -0.6867 -0.7202 -0.0991
vn 0.7031 0.7044 0.0969
vt 0.001567 0.035250
vt 0.096591 0.963739
vt 0.001567 0.963739
vt 0.415285 0.499566
vt 0.118954 0.458798
vt 0.117420 0.479728
vt 0.411243 0.803404
vt 0.114909 0.857239
vt 0.413012 0.841364
vt 0.415285 0.879297
vt 0.117420 0.899135
vt 0.118954 0.920065
vt 0.416673 0.898246
vt 0.114909 0.521624
vt 0.413012 0.537499
vt 0.411243 0.575459
vt 0.112956 0.563550
vt 0.384863 0.981858
vt 0.112595 0.985173
vt 0.112616 0.980388
vt 0.384822 0.990897
vt 0.112591 0.985388
vt 0.384841 0.986708
vt 0.001567 0.035251
vt 0.096591 0.963739
vt 0.096591 0.035251
vt 0.384884 0.977114
vt 0.112615 0.980173
vt 0.112635 0.975435
vt 0.001567 0.035250
vt 0.096591 0.035249
vt 0.732248 0.242565
vt 0.995423 0.240974
vt 0.995423 0.242731
vt 0.732251 0.241110
vt 0.732251 0.242721
vt 0.872236 0.277492
vt 0.882107 0.569395
vt 0.871205 0.569403
vt 0.869884 0.277492
vt 0.859433 0.569395
vt 0.859433 0.277483
vt 0.001567 0.035262
vt 0.096591 0.963738
vt 0.001567 0.963739
vt 0.001567 0.035249
vt 0.096591 0.963739
vt 0.001567 0.963739
vt 0.001567 0.035251
vt 0.096591 0.035251
vt 0.001567 0.035261
vt 0.096591 0.963739
vt 0.096591 0.035261
vt 0.001567 0.035253
vt 0.096591 0.963739
vt 0.867400 0.416011
vt 0.866426 0.440261
vt 0.917633 0.440632
vt 0.111561 0.605498
vt 0.110723 0.647461
vt 0.297462 0.649945
vt 0.409980 0.613438
vt 0.355092 0.611978
vt 0.372113 0.628304
vt 0.408969 0.689431
vt 0.325179 0.650314
vt 0.290758 0.689431
vt 0.297462 0.649945
vt 0.220436 0.659407
vt 0.220379 0.723020
vt 0.168029 0.722450
vt 0.110723 0.731402
vt 0.328167 0.728510
vt 0.371768 0.748879
vt 0.409222 0.727431
vt 0.338050 0.738547
vt 0.297124 0.728922
vt 0.111561 0.773365
vt 0.330702 0.767534
vt 0.353934 0.766916
vt 0.336663 0.784382
vt 0.333872 0.591623
vt 0.328333 0.611266
vt 0.001927 0.407843
vt 0.072728 0.361519
vt 0.001927 0.361519
vt 0.001927 0.821776
vt 0.072728 0.789412
vt 0.001927 0.789412
vt 0.072728 0.424633
vt 0.072728 0.407842
vt 0.001927 0.834703
vt 0.001927 0.884293
vt 0.072728 0.884293
vt 0.001927 0.531541
vt 0.072728 0.579586
vt 0.072728 0.531540
vt 0.001927 0.473430
vt 0.001927 0.424633
vt 0.001927 0.162867
vt 0.001927 0.179347
vt 0.072728 0.179348
vt 0.001927 0.598501
vt 0.072728 0.598501
vt 0.001927 0.501237
vt 0.072728 0.212469
vt 0.072728 0.644436
vt 0.001927 0.234113
vt 0.072728 0.261097
vt 0.001927 0.679568
vt 0.072728 0.719203
vt 0.001927 0.279827
vt 0.072728 0.287984
vt 0.001927 0.727192
vt 0.072728 0.743593
vt 0.001927 0.326014
vt 0.001927 0.766135
vt 0.096591 0.035250
vt 0.416673 0.480617
vt 0.112956 0.815313
vt 0.384844 0.986190
vt 0.112570 0.990014
vt 0.001567 0.963740
vt 0.384865 0.981404
vt 0.001567 0.963739
vt 0.732248 0.240974
vt 0.995424 0.240952
vt 0.882107 0.277483
vt 0.870976 0.569404
vt 0.096591 0.035262
vt 0.096591 0.035249
vt 0.001567 0.963738
vt 0.001567 0.963739
vt 0.096591 0.035252
vt 0.799321 0.482095
vt 0.763743 0.490745
vt 0.810605 0.499352
vt 0.802537 0.527957
vt 0.846787 0.428152
vt 0.799705 0.332410
vt 0.764093 0.368426
vt 0.808700 0.357828
vt 0.798299 0.378908
vt 0.917615 0.459192
vt 0.971556 0.459470
vt 0.918176 0.415562
vt 0.970780 0.395237
vt 0.917672 0.394659
vt 0.325920 0.619820
vt 0.328333 0.611266
vt 0.337043 0.636831
vt 0.325179 0.650314
vt 0.409222 0.651432
vt 0.110444 0.689431
vt 0.167264 0.659133
vt 0.167630 0.689431
vt 0.220418 0.677703
vt 0.270894 0.678068
vt 0.297124 0.728922
vt 0.269934 0.701973
vt 0.219882 0.702416
vt 0.167630 0.689431
vt 0.290254 0.690005
vt 0.353934 0.766916
vt 0.409980 0.765425
vt 0.328167 0.728510
vt 0.327798 0.759326
vt 0.330702 0.767534
vt 0.355092 0.611978
vt 0.072728 0.821776
vt 0.001927 0.579586
vt 0.072728 0.473430
vt 0.072728 0.114348
vt 0.001927 0.114347
vt 0.001927 0.115048
vt 0.001927 0.212469
vt 0.001927 0.644436
vt 0.001927 0.261098
vt 0.001927 0.719203
vt 0.001927 0.287984
vt 0.001927 0.743593
s 0
usemtl emrysRing
f 35/1/1 47/2/1 36/3/1
f 9/4/2 32/5/2 22/6/2
f 4/7/3 18/8/3 5/9/3
f 6/10/4 18/8/4 19/11/4
f 6/10/5 30/12/5 27/13/5
f 9/4/6 23/14/6 10/15/6
f 11/16/7 23/14/7 24/17/7
f 37/18/8 40/19/8 38/20/8
f 35/21/9 42/22/9 41/23/9
f 41/24/10 60/25/10 59/26/10
f 33/27/11 44/28/11 34/29/11
f 33/30/12 52/25/12 51/31/12
f 45/32/13 48/33/13 47/34/13
f 51/35/2 50/34/2 49/36/2
f 53/37/8 56/38/8 55/39/8
f 59/40/8 58/41/8 57/42/8
f 39/43/14 58/44/14 40/45/14
f 29/46/15 50/47/15 32/48/15
f 28/49/16 48/25/16 46/50/16
f 37/51/17 56/52/17 54/53/17
f 43/54/18 55/55/18 44/3/18
f 7/56/19 70/57/19 71/58/19
f 25/59/20 26/60/20 80/61/20
f 12/62/20 76/63/20 74/64/20
f 1/65/21 79/66/21 83/67/21
f 80/68/21 26/60/21 81/69/21
f 91/70/22 92/71/22 14/72/22
f 83/67/22 93/73/22 1/65/22
f 94/74/23 2/75/23 95/76/23
f 90/77/23 16/78/23 98/79/23
f 4/7/24 97/80/24 99/81/24
f 100/82/25 24/17/25 77/83/25
f 85/84/26 70/85/26 82/86/26
f 95/87/27 63/88/27 94/89/27
f 85/84/28 72/90/28 71/91/28
f 93/92/29 89/93/29 65/94/29
f 92/95/30 20/96/30 21/97/30
f 86/98/31 72/90/31 81/99/31
f 79/100/32 75/101/32 66/102/32
f 20/96/33 87/103/33 8/104/33
f 84/105/34 92/95/34 21/97/34
f 75/101/35 67/106/35 66/102/35
f 87/103/36 7/107/36 8/104/36
f 76/108/37 68/109/37 67/106/37
f 90/110/38 61/111/38 7/107/38
f 77/112/39 69/113/39 68/109/39
f 98/114/40 62/115/40 61/111/40
f 80/116/41 82/86/41 70/85/41
f 97/117/42 94/89/42 63/88/42
f 35/1/1 45/118/1 47/2/1
f 9/4/2 29/119/2 32/5/2
f 4/7/3 17/120/3 18/8/3
f 6/10/4 5/9/4 18/8/4
f 6/10/5 19/11/5 30/12/5
f 9/4/6 22/6/6 23/14/6
f 11/16/7 10/15/7 23/14/7
f 37/18/8 39/121/8 40/19/8
f 35/21/9 36/122/9 42/22/9
f 41/24/10 42/123/10 60/25/10
f 33/27/11 43/124/11 44/28/11
f 33/30/12 34/125/12 52/25/12
f 45/32/43 46/126/43 48/33/43
f 51/35/2 52/127/2 50/34/2
f 53/37/8 54/128/8 56/38/8
f 59/40/8 60/129/8 58/41/8
f 39/43/14 57/130/14 58/44/14
f 29/46/15 49/131/15 50/47/15
f 28/49/16 31/132/16 48/25/16
f 37/51/17 38/133/17 56/52/17
f 43/54/18 53/134/18 55/55/18
f 66/135/19 67/136/19 69/137/19
f 67/136/19 68/138/19 69/137/19
f 65/139/19 66/135/19 70/57/19
f 66/135/19 69/137/19 70/57/19
f 62/140/19 63/141/19 61/142/19
f 63/141/19 64/143/19 61/142/19
f 64/143/19 65/139/19 7/56/19
f 65/139/19 70/57/19 7/56/19
f 71/58/19 72/144/19 73/145/19
f 7/56/19 61/142/19 64/143/19
f 71/58/19 73/145/19 8/146/19
f 73/145/19 21/147/19 8/146/19
f 21/147/19 20/148/19 8/146/19
f 8/146/19 7/56/19 71/58/19
f 80/61/20 78/149/20 77/150/20
f 77/150/20 25/59/20 80/61/20
f 75/151/20 79/152/20 74/64/20
f 79/152/20 13/153/20 74/64/20
f 13/153/20 12/62/20 74/64/20
f 1/65/21 13/153/21 79/66/21
f 26/60/21 15/154/21 86/155/21
f 15/154/21 84/156/21 86/155/21
f 85/157/21 82/158/21 81/69/21
f 82/158/21 80/68/21 81/69/21
f 26/60/21 86/155/21 81/69/21
f 90/159/22 88/160/22 91/70/22
f 88/160/22 87/161/22 91/70/22
f 84/162/22 15/154/22 92/71/22
f 15/154/22 14/72/22 92/71/22
f 90/159/22 91/70/22 14/72/22
f 89/163/44 93/73/44 83/67/44
f 93/73/22 2/75/22 1/65/22
f 94/74/23 97/164/23 3/165/23
f 3/165/23 2/75/23 94/74/23
f 2/75/23 93/166/23 95/76/23
f 98/79/23 96/167/23 90/77/23
f 90/77/23 14/72/23 16/78/23
f 99/81/24 98/168/24 17/120/24
f 98/168/24 16/78/24 17/120/24
f 17/120/24 4/7/24 99/81/24
f 4/7/24 3/165/24 97/80/24
f 100/82/25 76/169/25 11/16/25
f 76/169/25 12/62/25 11/16/25
f 11/16/25 24/17/25 100/82/25
f 24/17/25 25/59/25 77/83/25
f 85/84/26 71/91/26 70/85/26
f 95/87/45 64/170/45 63/88/45
f 85/84/28 81/99/28 72/90/28
f 65/94/29 64/170/29 93/92/29
f 64/170/29 95/87/29 93/92/29
f 92/95/30 91/171/30 20/96/30
f 86/98/31 73/172/31 72/90/31
f 66/102/32 65/173/32 79/100/32
f 65/173/46 89/174/46 83/175/46
f 65/173/32 83/175/32 79/100/32
f 20/96/33 91/171/33 87/103/33
f 21/97/34 73/172/34 84/105/34
f 73/172/34 86/98/34 84/105/34
f 75/101/35 74/176/35 67/106/35
f 87/103/36 88/177/36 7/107/36
f 67/106/37 74/176/37 76/108/37
f 76/108/37 100/178/37 68/109/37
f 7/107/38 88/177/38 90/110/38
f 90/110/38 96/179/38 61/111/38
f 68/109/39 100/178/39 77/112/39
f 77/112/39 78/180/39 69/113/39
f 61/111/40 96/179/40 98/114/40
f 98/114/40 99/181/40 62/115/40
f 70/85/41 69/113/41 80/116/41
f 69/113/47 78/180/47 80/116/47
f 63/88/48 62/115/48 97/117/48
f 62/115/48 99/181/48 97/117/48
