# Blender 5.2.0 LTS
# www.blender.org
mtllib stargate_movie_origin_3.mtl
o ringorigin_3
v -0.000000 2.471735 0.050702
v -0.033184 2.471512 0.050702
v -0.066361 2.470844 0.050702
v -0.099527 2.469730 0.050702
v -0.132674 2.468172 0.050702
v -0.165798 2.466168 0.050702
v 0.165798 2.466168 0.050702
v 0.132674 2.468172 0.050702
v 0.099527 2.469730 0.050702
v 0.066361 2.470844 0.050702
v 0.033184 2.471512 0.050702
v -0.036651 2.729758 0.086133
v -0.000000 2.730004 0.086133
v -0.073295 2.729020 0.086133
v -0.109926 2.727790 0.086133
v -0.146537 2.726068 0.086133
v -0.183122 2.723855 0.086133
v 0.183122 2.723855 0.086133
v 0.146537 2.726068 0.086133
v 0.109926 2.727790 0.086133
v 0.073295 2.729020 0.086133
v 0.036651 2.729758 0.086133
v -0.182345 2.464944 0.050702
v 0.215421 2.462274 0.050702
v 0.182345 2.464944 0.050702
v -0.201398 2.722503 0.086133
v 0.237930 2.719554 0.086133
v 0.201398 2.722503 0.086133
v 0.183937 2.464826 0.050702
v 0.203156 2.722373 0.086133
v 0.214251 2.462376 0.050702
v 0.236638 2.719667 0.086133
v 0.196818 2.463804 0.050702
v 0.217383 2.721244 0.086133
v 0.200953 2.463470 0.050702
v 0.221950 2.720875 0.086133
v 0.210255 2.462719 0.050702
v 0.232224 2.720046 0.086133
v 0.188032 2.464513 0.050702
v 0.207680 2.722027 0.086133
v 0.214306 2.463054 0.045749
v 0.215476 2.462951 0.045749
v 0.236693 2.720345 0.081179
v 0.237985 2.720231 0.081179
v 0.182400 2.465621 0.045749
v 0.201453 2.723181 0.081179
v 0.183991 2.465504 0.045749
v 0.203211 2.723051 0.081179
v 0.188087 2.465190 0.045749
v 0.196873 2.464481 0.045749
v 0.207734 2.722705 0.081179
v 0.217438 2.721921 0.081179
v 0.201007 2.464147 0.045749
v 0.222005 2.721552 0.081179
v 0.210310 2.463396 0.045749
v 0.232279 2.720723 0.081179
v -0.018149 2.577182 0.058963
v 0.001322 2.573363 0.058437
v -0.034663 2.588093 0.060464
v -0.045705 2.604433 0.062711
v -0.049594 2.623716 0.065364
v -0.045739 2.643005 0.068017
v -0.034726 2.659365 0.070268
v -0.018232 2.670304 0.071773
v 0.001233 2.674157 0.072303
v 0.020704 2.670338 0.071777
v 0.037217 2.659427 0.070277
v 0.048260 2.643087 0.068029
v 0.052149 2.623804 0.065376
v 0.048294 2.604515 0.062723
v 0.037281 2.588155 0.060472
v 0.020787 2.577216 0.058967
v -0.089704 2.566300 0.057466
v -0.073669 2.556715 0.056147
v 0.075682 2.556169 0.056072
v 0.092843 2.566187 0.057450
v 0.092966 2.530437 0.052532
v 0.077398 2.540505 0.053917
v -0.073440 2.540688 0.053942
v -0.089779 2.530497 0.052541
v 0.068209 2.539660 0.060146
v 0.068630 2.555339 0.062298
v 0.052149 2.622958 0.071527
v 0.048294 2.603669 0.068871
v 0.048260 2.642244 0.074162
v 0.034099 2.539714 0.060059
v 0.034311 2.555478 0.062222
v 0.034715 2.585612 0.066357
v 0.037281 2.587313 0.066597
v 0.035709 2.659586 0.076506
v 0.037217 2.658589 0.076373
v 0.020787 2.576376 0.065077
v -0.000000 2.673080 0.078324
v 0.001233 2.673324 0.078359
v -0.000000 2.572784 0.064565
v -0.000000 2.555607 0.062208
v 0.001322 2.572525 0.064530
v 0.020704 2.669502 0.077852
v -0.000000 2.539759 0.060034
v -0.018149 2.576342 0.065070
v -0.035676 2.657116 0.076167
v -0.034726 2.658527 0.076359
v -0.034314 2.555728 0.062257
v -0.034663 2.587251 0.066581
v -0.034739 2.587364 0.066597
v -0.018232 2.669469 0.077845
v -0.034100 2.539796 0.060071
v -0.045705 2.603588 0.068853
v -0.045739 2.642163 0.074144
v -0.068214 2.539825 0.060169
v -0.068644 2.555841 0.062367
v -0.049594 2.622870 0.071508
v -0.089779 2.529626 0.058870
v -0.089704 2.565432 0.063779
v -0.073440 2.539828 0.060193
v -0.073669 2.555856 0.062392
v 0.092966 2.529564 0.058876
v 0.092843 2.565317 0.063778
v 0.075682 2.555309 0.062326
v 0.077398 2.539643 0.060186
vn 0.9962 -0.0866 -0.0008
vn -0.0100 -0.1355 0.9907
vn 0.0064 -0.1358 0.9907
vn 0.0082 -0.1357 0.9907
vn 0.0100 -0.1355 0.9907
vn -0.0082 -0.1357 0.9907
vn -0.0064 -0.1358 0.9907
vn -0.0109 -0.1355 0.9907
vn -0.0116 -0.1354 0.9907
vn -0.9964 0.0850 0.0006
vn -0.0104 -0.1355 0.9907
vn -0.9972 0.0745 -0.0008
vn -0.0119 -0.1354 0.9907
vn 0.9967 -0.0813 -0.0001
vn 0.9973 -0.0739 0.0009
vn -0.9962 0.0870 0.0009
vn -0.9968 0.0796 -0.0001
vn 0.9971 -0.0762 0.0006
vn -0.0000 -0.1363 0.9907
vn -0.0027 -0.1359 0.9907
vn -0.0009 -0.1359 0.9907
vn 0.0009 -0.1359 0.9907
vn 0.0027 -0.1359 0.9907
vn 0.0046 -0.1358 0.9907
vn -0.0046 -0.1358 0.9907
vn -0.1943 -0.9718 -0.1337
vn 1.0000 -0.0021 -0.0003
vn 0.5548 0.8242 0.1134
vn -0.5166 -0.8482 -0.1167
vn -0.5549 -0.8242 -0.1134
vn 0.8310 0.5511 0.0758
vn -0.0037 -0.9907 -0.1362
vn -0.8310 -0.5511 -0.0758
vn 0.9806 0.1941 0.0267
vn 0.5077 -0.8535 -0.1174
vn -0.9806 -0.1941 -0.0267
vn 0.9810 -0.1924 -0.0265
vn -1.0000 -0.0034 -0.0005
vn -0.9810 0.1924 0.0265
vn 0.8320 -0.5497 -0.0756
vn 0.5466 0.8296 0.1141
vn -0.8320 0.5497 0.0756
vn 0.5563 -0.8232 -0.1132
vn 0.0012 0.9907 0.1363
vn -0.5563 0.8232 0.1132
vn 0.1960 -0.9715 -0.1336
vn -0.5328 0.8384 0.1153
vn 0.1942 0.9718 0.1337
vn -0.1960 0.9715 0.1336
vn -0.0118 -0.1354 0.9907
vn -0.0028 -0.1359 0.9907
vn 0.0008 -0.1359 0.9907
vn -0.0045 -0.1358 0.9907
vn -0.1942 -0.9718 -0.1337
vn -0.5548 -0.8242 -0.1134
vn 0.8319 0.5497 0.0756
vn -0.0037 -0.9907 -0.1363
vn -0.0038 -0.9907 -0.1363
vn 0.8320 -0.5496 -0.0756
vn 0.8319 -0.5497 -0.0756
vn -0.8319 0.5497 0.0756
vn 0.1955 -0.9715 -0.1336
vn 0.1959 -0.9715 -0.1336
vn 0.1941 0.9718 0.1337
vt 0.001567 0.035250
vt 0.096591 0.963739
vt 0.001567 0.963739
vt 0.415285 0.499566
vt 0.118954 0.458798
vt 0.117420 0.479728
vt 0.411243 0.803404
vt 0.114909 0.857239
vt 0.413012 0.841364
vt 0.415285 0.879297
vt 0.117420 0.899135
vt 0.118954 0.920065
vt 0.416673 0.898246
vt 0.114909 0.521624
vt 0.413012 0.537499
vt 0.411243 0.575459
vt 0.112956 0.563550
vt 0.384863 0.981858
vt 0.112595 0.985173
vt 0.112616 0.980388
vt 0.384822 0.990897
vt 0.112591 0.985388
vt 0.384841 0.986708
vt 0.001567 0.035251
vt 0.096591 0.963739
vt 0.096591 0.035251
vt 0.384884 0.977114
vt 0.112615 0.980173
vt 0.112635 0.975435
vt 0.001567 0.035250
vt 0.096591 0.035249
vt 0.000000 0.000000
vt 0.872236 0.277492
vt 0.882107 0.569395
vt 0.871205 0.569403
vt 0.869884 0.277492
vt 0.859433 0.569395
vt 0.859433 0.277483
vt 0.001567 0.035262
vt 0.096591 0.963738
vt 0.001567 0.963739
vt 0.001567 0.035249
vt 0.096591 0.963739
vt 0.001567 0.963739
vt 0.001567 0.035251
vt 0.096591 0.035251
vt 0.001567 0.035261
vt 0.096591 0.963739
vt 0.096591 0.035261
vt 0.001567 0.035253
vt 0.096591 0.963739
vt 0.925164 0.438565
vt 0.888691 0.383979
vt 0.834105 0.420453
vt 0.830693 0.499387
vt 0.831151 0.363100
vt 0.816388 0.363314
vt 0.330390 0.650383
vt 0.409980 0.613438
vt 0.330438 0.611322
vt 0.234162 0.629713
vt 0.256460 0.634128
vt 0.312314 0.610840
vt 0.175958 0.688020
vt 0.180373 0.665723
vt 0.110444 0.689431
vt 0.288015 0.665628
vt 0.292469 0.687917
vt 0.312024 0.689431
vt 0.330342 0.689431
vt 0.409222 0.651432
vt 0.330390 0.650383
vt 0.288054 0.710215
vt 0.275443 0.729125
vt 0.311879 0.728726
vt 0.193057 0.729198
vt 0.180412 0.710309
vt 0.110723 0.731402
vt 0.409222 0.727431
vt 0.330294 0.728481
vt 0.234265 0.746224
vt 0.211968 0.741809
vt 0.111561 0.773365
vt 0.409980 0.765425
vt 0.330295 0.728481
vt 0.330247 0.767546
vt 0.300633 0.792155
vt 0.112956 0.815313
vt 0.300763 0.583112
vt 0.001707 0.387918
vt 0.096081 0.421185
vt 0.001707 0.421185
vt 0.001707 0.182350
vt 0.096081 0.121778
vt 0.096081 0.182350
vt 0.001707 0.155045
vt 0.096081 0.188313
vt 0.001707 0.188313
vt 0.001707 0.213738
vt 0.096081 0.213738
vt 0.001707 0.451413
vt 0.096081 0.454453
vt 0.001707 0.188543
vt 0.096081 0.221580
vt 0.096081 0.464053
vt 0.001707 0.394714
vt 0.001707 0.337208
vt 0.001707 0.454453
vt 0.096081 0.487720
vt 0.001707 0.487720
vt 0.001707 0.221580
vt 0.096081 0.254848
vt 0.001707 0.254848
vt 0.001707 0.464053
vt 0.096081 0.497437
vt 0.001707 0.497437
vt 0.096081 0.520988
vt 0.001707 0.520988
vt 0.001707 0.288116
vt 0.096081 0.288116
vt 0.096081 0.557920
vt 0.001707 0.557920
vt 0.001707 0.554256
vt 0.096081 0.554256
vt 0.001707 0.318514
vt 0.096081 0.321383
vt 0.001707 0.589081
vt 0.096081 0.589081
vt 0.001707 0.587523
vt 0.096081 0.587523
vt 0.001707 0.354650
vt 0.096081 0.354650
vt 0.001707 0.718801
vt 0.001707 0.661650
vt 0.001707 0.592697
vt 0.001707 0.385811
vt 0.096081 0.387918
vt 0.001707 0.841887
vt 0.096081 0.874247
vt 0.001707 0.874247
vt 0.001707 0.124037
vt 0.096081 0.121778
vt 0.096081 0.155045
vt 0.001707 0.654058
vt 0.096081 0.620790
vt 0.096081 0.654058
vt 0.096591 0.035250
vt 0.416673 0.480617
vt 0.384844 0.986190
vt 0.112570 0.990014
vt 0.001567 0.963740
vt 0.384865 0.981404
vt 0.001567 0.963739
vt 0.882107 0.277483
vt 0.870976 0.569404
vt 0.096591 0.035262
vt 0.096591 0.035249
vt 0.001567 0.963738
vt 0.001567 0.963739
vt 0.096591 0.035252
vt 0.870578 0.475038
vt 0.888691 0.475038
vt 0.905425 0.468107
vt 0.918233 0.455299
vt 0.925164 0.420452
vt 0.918233 0.403718
vt 0.905425 0.390910
vt 0.870578 0.383979
vt 0.853844 0.390911
vt 0.841036 0.403718
vt 0.834105 0.438565
vt 0.841036 0.455299
vt 0.853844 0.468107
vt 0.816265 0.500957
vt 0.806995 0.515167
vt 0.839926 0.515044
vt 0.839975 0.348465
vt 0.806995 0.348407
vt 0.275370 0.646739
vt 0.277337 0.649677
vt 0.312169 0.650141
vt 0.111561 0.605498
vt 0.110723 0.647461
vt 0.191833 0.648540
vt 0.211873 0.634167
vt 0.192985 0.646812
vt 0.191832 0.648540
vt 0.176241 0.689431
vt 0.292170 0.689431
vt 0.312169 0.650141
vt 0.277337 0.649677
vt 0.408969 0.689431
vt 0.275312 0.729213
vt 0.292170 0.689431
vt 0.176241 0.689431
vt 0.194688 0.730285
vt 0.311734 0.768039
vt 0.311879 0.728726
vt 0.275312 0.729213
vt 0.256555 0.741770
vt 0.194688 0.730285
vt 0.311712 0.773793
vt 0.311733 0.768039
vt 0.342019 0.792242
vt 0.330247 0.767546
vt 0.330239 0.773530
vt 0.342089 0.582971
vt 0.330450 0.600800
vt 0.330437 0.611322
vt 0.312314 0.610840
vt 0.312344 0.602764
vt 0.001707 0.121778
vt 0.001707 0.452234
vt 0.001707 0.222159
vt 0.001707 0.279696
vt 0.001707 0.321383
vt 0.096081 0.841887
vt 0.001707 0.833128
vt 0.001707 0.775954
vt 0.001707 0.604481
vt 0.001707 0.620790
s 0
usemtl emrysRing
f 31/1/1 43/2/1 32/3/1
f 7/4/2 28/5/2 18/6/2
f 4/7/3 16/8/3 5/9/3
f 6/10/4 16/8/4 17/11/4
f 6/10/5 26/12/5 23/13/5
f 7/4/6 19/14/6 8/15/6
f 9/16/7 19/14/7 20/17/7
f 33/18/8 36/19/8 34/20/8
f 31/21/9 38/22/9 37/23/9
f 37/24/10 56/25/10 55/26/10
f 29/27/11 40/28/11 30/29/11
f 29/30/12 48/25/12 47/31/12
f 41/32/13 44/32/13 43/32/13
f 47/32/2 46/32/2 45/32/2
f 49/33/8 52/34/8 51/35/8
f 55/36/8 54/37/8 53/38/8
f 35/39/14 54/40/14 36/41/14
f 25/42/15 46/43/15 28/44/15
f 24/45/16 44/25/16 42/46/16
f 33/47/17 52/48/17 50/49/17
f 39/50/18 51/51/18 40/3/18
f 71/52/19 67/53/19 63/54/19
f 75/55/19 74/56/19 79/57/19
f 86/58/20 10/59/20 81/60/20
f 83/61/20 84/62/20 82/63/20
f 94/64/21 98/65/21 13/66/21
f 92/67/21 97/68/21 96/69/21
f 99/70/21 11/71/21 86/72/21
f 100/73/22 104/74/22 103/75/22
f 102/76/22 106/77/22 12/78/22
f 2/79/22 99/70/22 107/80/22
f 112/81/23 109/82/23 14/83/23
f 3/84/23 107/85/23 110/86/23
f 114/87/24 15/88/24 4/7/24
f 9/16/25 20/17/25 118/89/25
f 94/90/26 66/91/26 98/92/26
f 114/93/27 80/94/27 73/95/27
f 100/96/28 59/97/28 104/98/28
f 116/99/29 73/95/29 74/100/29
f 90/101/30 66/91/30 67/102/30
f 105/103/31 59/97/31 60/104/31
f 75/105/32 87/106/32 96/107/32
f 91/108/33 68/109/33 85/110/33
f 108/111/34 61/112/34 112/113/34
f 119/114/35 76/115/35 118/116/35
f 85/110/36 69/117/36 83/118/36
f 109/119/37 61/112/37 62/120/37
f 118/116/38 77/121/38 117/122/38
f 84/123/39 69/117/39 70/124/39
f 101/125/40 62/120/40 63/126/40
f 120/127/41 77/121/41 78/128/41
f 89/129/42 70/124/42 71/130/42
f 106/131/43 63/126/43 64/132/43
f 99/133/44 86/134/44 78/128/44
f 88/135/45 89/129/45 71/130/45
f 93/136/46 64/132/46 65/137/46
f 115/138/47 80/139/47 113/140/47
f 95/141/48 58/142/48 57/143/48
f 97/144/49 72/145/49 58/146/49
f 31/1/1 41/147/1 43/2/1
f 7/4/2 25/148/2 28/5/2
f 4/7/3 15/88/3 16/8/3
f 6/10/4 5/9/4 16/8/4
f 6/10/5 17/11/5 26/12/5
f 7/4/6 18/6/6 19/14/6
f 9/16/7 8/15/7 19/14/7
f 33/18/8 35/149/8 36/19/8
f 31/21/9 32/150/9 38/22/9
f 37/24/10 38/151/10 56/25/10
f 29/27/11 39/152/11 40/28/11
f 29/30/12 30/153/12 48/25/12
f 41/32/50 42/32/50 44/32/50
f 47/32/2 48/32/2 46/32/2
f 49/33/8 50/154/8 52/34/8
f 55/36/8 56/155/8 54/37/8
f 35/39/14 53/156/14 54/40/14
f 25/42/15 45/157/15 46/43/15
f 24/45/16 27/158/16 44/25/16
f 33/47/17 34/159/17 52/48/17
f 39/50/18 49/160/18 51/51/18
f 59/161/19 57/162/19 58/163/19
f 58/163/19 72/164/19 59/161/19
f 72/164/19 71/52/19 59/161/19
f 71/52/19 70/165/19 69/166/19
f 69/166/19 68/167/19 71/52/19
f 68/167/19 67/53/19 71/52/19
f 67/53/19 66/168/19 65/169/19
f 65/169/19 64/170/19 67/53/19
f 64/170/19 63/54/19 67/53/19
f 63/54/19 62/171/19 61/172/19
f 61/172/19 60/173/19 63/54/19
f 60/173/19 59/161/19 63/54/19
f 59/161/19 71/52/19 63/54/19
f 78/174/19 77/175/19 76/176/19
f 78/174/19 76/176/19 75/55/19
f 73/177/19 80/178/19 79/57/19
f 79/57/19 78/174/19 75/55/19
f 74/56/19 73/177/19 79/57/19
f 86/58/20 11/71/20 10/59/20
f 89/179/20 88/180/20 87/181/20
f 82/63/20 21/182/20 83/61/20
f 21/182/20 22/183/20 90/184/20
f 85/185/20 21/182/20 91/186/20
f 90/184/51 91/186/51 21/182/51
f 89/179/20 87/181/20 82/63/20
f 84/62/20 89/179/20 82/63/20
f 21/182/20 85/185/20 83/61/20
f 98/65/21 90/187/21 22/183/21
f 22/183/21 13/66/21 98/65/21
f 13/66/21 93/188/21 94/64/21
f 97/68/21 95/189/21 96/69/21
f 96/69/21 87/190/21 92/67/21
f 87/190/21 88/191/21 92/67/21
f 99/70/21 1/192/21 11/71/21
f 104/74/52 105/193/52 103/75/52
f 103/75/22 96/69/22 100/73/22
f 96/69/22 95/194/22 100/73/22
f 106/77/22 93/195/22 13/66/22
f 13/66/22 12/78/22 106/77/22
f 12/78/22 101/196/22 102/76/22
f 2/79/22 1/192/22 99/70/22
f 111/197/23 103/198/23 105/199/23
f 111/197/23 105/199/23 108/200/23
f 12/78/23 14/83/23 101/201/23
f 14/83/23 111/197/23 112/81/23
f 109/82/23 101/201/23 14/83/23
f 111/197/23 108/200/23 112/81/23
f 3/84/23 2/79/23 107/85/23
f 114/87/24 116/202/24 111/203/24
f 111/203/24 14/83/24 114/87/24
f 14/83/24 15/88/24 114/87/24
f 4/7/24 3/84/24 113/204/24
f 3/84/24 110/205/24 113/204/24
f 110/205/24 115/206/24 113/204/24
f 113/204/24 114/87/24 4/7/24
f 117/207/25 120/208/25 81/209/25
f 81/209/25 10/59/25 117/207/25
f 10/59/25 9/16/25 117/207/25
f 20/17/25 21/182/25 118/89/25
f 21/182/25 82/210/25 118/89/25
f 82/210/53 119/211/53 118/89/53
f 118/89/25 117/207/25 9/16/25
f 94/90/54 65/137/54 66/91/54
f 114/93/27 113/212/27 80/94/27
f 100/96/28 57/143/28 59/97/28
f 116/99/29 114/93/29 73/95/29
f 67/102/55 91/108/55 90/101/55
f 90/101/55 98/92/55 66/91/55
f 60/104/31 108/111/31 105/103/31
f 105/103/56 104/98/56 59/97/56
f 75/105/57 119/114/57 82/213/57
f 75/105/57 82/213/57 87/106/57
f 116/99/58 74/100/58 111/214/58
f 74/100/57 75/105/57 96/107/57
f 111/214/57 74/100/57 103/215/57
f 103/215/57 74/100/57 96/107/57
f 91/108/33 67/102/33 68/109/33
f 108/111/34 60/104/34 61/112/34
f 119/114/35 75/105/35 76/115/35
f 85/110/36 68/109/36 69/117/36
f 109/119/37 112/113/37 61/112/37
f 118/116/38 76/115/38 77/121/38
f 84/123/39 83/118/39 69/117/39
f 63/126/59 102/216/59 101/125/59
f 101/125/60 109/119/60 62/120/60
f 120/127/41 117/122/41 77/121/41
f 89/129/61 84/123/61 70/124/61
f 106/131/43 102/216/43 63/126/43
f 78/128/44 79/217/44 99/133/44
f 79/217/44 115/138/44 110/218/44
f 79/217/44 110/218/44 107/219/44
f 81/220/44 120/127/44 78/128/44
f 86/134/44 81/220/44 78/128/44
f 79/217/44 107/219/44 99/133/44
f 71/130/45 72/145/45 88/135/45
f 72/145/45 92/221/45 88/135/45
f 65/137/62 94/90/62 93/136/62
f 93/136/63 106/131/63 64/132/63
f 115/138/47 79/217/47 80/139/47
f 57/143/48 100/96/48 95/141/48
f 95/141/64 97/212/64 58/142/64
f 97/144/49 92/221/49 72/145/49
