# Blender v3.0.0 OBJ File: ''
# www.blender.org
mtllib chevron_moving.mtl
o movie_chevron_1.001
v 0.009630 4.286572 0.167668
v 0.009630 4.286572 0.139978
v 0.097155 4.286572 0.139978
v 0.097155 4.286572 0.167668
v -0.097155 4.286572 0.167668
v -0.097155 4.286572 0.139978
v -0.007401 4.286572 0.139978
v -0.007401 4.286572 0.167668
v 0.001114 4.286572 0.139978
v 0.001114 4.286572 0.157578
v -0.007403 4.371942 0.202737
v -0.086412 4.371942 0.202737
v 0.086412 4.371942 0.202737
v 0.009629 4.371941 0.202737
v 0.001113 4.389377 0.199681
v 0.001113 4.416129 0.193165
v 0.009629 4.416130 0.193165
v 0.068678 4.416130 0.193165
v 0.111701 4.547914 0.220255
v 0.111701 4.547908 0.193542
v 0.068678 4.416123 0.166451
v -0.007403 4.416130 0.193165
v -0.068398 4.416130 0.193165
v 0.009629 4.416123 0.166451
v 0.001113 4.416123 0.166451
v -0.007403 4.416123 0.166451
v -0.068398 4.416123 0.166452
v 0.143869 4.547914 0.239022
v 0.257574 4.547915 0.193589
v 0.257574 4.547915 0.220255
v 0.119691 4.572290 0.225759
v 0.151858 4.572289 0.244526
v 0.160350 4.598343 0.249662
v 0.128182 4.598343 0.230896
v 0.272608 4.572290 0.225759
v 0.288588 4.598343 0.230896
v 0.272608 4.572290 0.199093
v 0.288588 4.598343 0.204230
v 0.119691 4.572283 0.199045
v 0.128182 4.598337 0.204182
v 0.213533 4.859739 0.284832
v 0.245700 4.859739 0.303598
v 0.274389 4.859735 0.258134
v 0.213533 4.859733 0.258118
v 0.449200 4.859739 0.284832
v 0.449200 4.859739 0.258166
v 0.144927 4.649615 0.241536
v 0.136411 4.623558 0.236033
v 0.168579 4.623558 0.254799
v 0.177095 4.649615 0.260303
v 0.304074 4.623559 0.236033
v 0.320099 4.649615 0.241536
v 0.304074 4.623559 0.209367
v 0.320099 4.649615 0.214870
v 0.144927 4.649609 0.214823
v 0.136411 4.623552 0.209319
v 0.152892 4.673987 0.246673
v 0.185060 4.673987 0.265440
v 0.193839 4.700884 0.270943
v 0.161671 4.700884 0.252177
v 0.335088 4.673989 0.246673
v 0.351607 4.700884 0.252177
v 0.335088 4.673989 0.220007
v 0.351607 4.700884 0.225511
v 0.152892 4.673981 0.219959
v 0.161671 4.700878 0.225463
v 0.170188 4.726942 0.257680
v 0.202356 4.726942 0.276447
v 0.210321 4.751315 0.281584
v 0.178153 4.751315 0.262817
v 0.367635 4.726943 0.257680
v 0.382623 4.751315 0.262817
v 0.367635 4.726943 0.231014
v 0.382623 4.751315 0.236151
v 0.170188 4.726935 0.230967
v 0.178153 4.751308 0.236103
v 0.186096 4.775692 0.267587
v 0.218264 4.775691 0.286354
v 0.226516 4.800905 0.291857
v 0.194348 4.800905 0.273091
v 0.397569 4.775692 0.267587
v 0.413099 4.800906 0.273091
v 0.397569 4.775692 0.240921
v 0.413099 4.800906 0.246425
v 0.186096 4.775686 0.240873
v 0.194348 4.800899 0.246377
v 0.202312 4.825276 0.278227
v 0.234480 4.825275 0.296994
v 0.428086 4.825276 0.278227
v 0.428086 4.825276 0.251561
v 0.202312 4.825269 0.251514
v 0.209872 4.825275 0.272992
v 0.209872 4.825270 0.251517
v 0.420527 4.825276 0.270891
v 0.235744 4.825274 0.288525
v 0.420527 4.825277 0.251560
v 0.119260 4.547914 0.214975
v 0.119260 4.547909 0.193545
v 0.250015 4.547915 0.213255
v 0.144927 4.547914 0.230470
v 0.250015 4.547916 0.193587
v 0.127250 4.572284 0.199079
v 0.127250 4.572289 0.220504
v 0.227580 4.800875 0.283398
v 0.201896 4.800875 0.267857
v 0.152958 4.572288 0.235982
v 0.265049 4.572290 0.218714
v 0.405614 4.800878 0.246454
v 0.405614 4.800876 0.265797
v 0.201896 4.800870 0.246411
v 0.265049 4.572290 0.199122
v 0.135738 4.598342 0.225564
v 0.135738 4.598338 0.204151
v 0.281028 4.598342 0.223818
v 0.161443 4.598342 0.241132
v 0.281028 4.598344 0.204258
v 0.152486 4.649616 0.236253
v 0.152486 4.649611 0.214829
v 0.312539 4.649615 0.234383
v 0.178235 4.649614 0.251791
v 0.312539 4.649616 0.214899
v 0.160449 4.673983 0.219944
v 0.160449 4.673987 0.241382
v 0.186259 4.673987 0.256895
v 0.327528 4.673988 0.239492
v 0.327528 4.673989 0.220036
v 0.169231 4.700878 0.246939
v 0.169231 4.700873 0.225506
v 0.343767 4.700879 0.245001
v 0.194913 4.700878 0.262466
v 0.343767 4.700880 0.225549
v 0.177733 4.726904 0.230975
v 0.177733 4.726909 0.252419
v 0.203543 4.726909 0.267942
v 0.360177 4.726910 0.250443
v 0.360177 4.726911 0.231018
v 0.185712 4.751317 0.257531
v 0.185712 4.751313 0.236098
v 0.374673 4.751319 0.255536
v 0.211275 4.751317 0.273073
v 0.374673 4.751319 0.236141
v 0.193666 4.775688 0.241030
v 0.193666 4.775692 0.262476
v 0.219405 4.775692 0.278011
v 0.389951 4.775693 0.260442
v 0.389951 4.775693 0.241073
v 0.143972 4.623553 0.209354
v 0.143972 4.623558 0.230792
v 0.169727 4.623558 0.246276
v 0.296514 4.623559 0.228908
v 0.296514 4.623559 0.209395
v -0.111701 4.547908 0.193542
v -0.111701 4.547915 0.220256
v -0.143869 4.547915 0.239022
v -0.257574 4.547916 0.220256
v -0.257574 4.547916 0.193590
v -0.119691 4.572290 0.225759
v -0.128182 4.598343 0.230896
v -0.160350 4.598343 0.249663
v -0.151858 4.572289 0.244526
v -0.288588 4.598344 0.230896
v -0.272608 4.572290 0.225759
v -0.288588 4.598344 0.204230
v -0.272608 4.572290 0.199093
v -0.119691 4.572284 0.199046
v -0.128182 4.598337 0.204182
v -0.213533 4.859740 0.284832
v -0.213533 4.859733 0.258118
v -0.274390 4.859735 0.258134
v -0.245701 4.859739 0.303599
v -0.449200 4.859739 0.284832
v -0.449200 4.859739 0.258166
v -0.144927 4.649615 0.241536
v -0.177095 4.649615 0.260303
v -0.168579 4.623559 0.254799
v -0.136411 4.623559 0.236033
v -0.320099 4.649616 0.241536
v -0.304074 4.623559 0.236033
v -0.320099 4.649616 0.214870
v -0.304074 4.623559 0.209367
v -0.144927 4.649609 0.214823
v -0.136411 4.623552 0.209319
v -0.152892 4.673988 0.246673
v -0.161672 4.700884 0.252177
v -0.193839 4.700884 0.270944
v -0.185060 4.673988 0.265440
v -0.351608 4.700884 0.252177
v -0.335088 4.673989 0.246673
v -0.351608 4.700884 0.225511
v -0.335088 4.673989 0.220007
v -0.152892 4.673982 0.219960
v -0.161672 4.700878 0.225463
v -0.170188 4.726943 0.257681
v -0.178153 4.751315 0.262817
v -0.210321 4.751315 0.281584
v -0.202356 4.726942 0.276447
v -0.382623 4.751316 0.262817
v -0.367635 4.726943 0.257681
v -0.382623 4.751316 0.236151
v -0.367635 4.726943 0.231015
v -0.170188 4.726936 0.230967
v -0.178153 4.751308 0.236104
v -0.186096 4.775692 0.267587
v -0.194348 4.800905 0.273091
v -0.226516 4.800905 0.291857
v -0.218264 4.775692 0.286354
v -0.413099 4.800907 0.273091
v -0.397570 4.775692 0.267587
v -0.413099 4.800907 0.246425
v -0.397570 4.775692 0.240921
v -0.186096 4.775686 0.240873
v -0.194348 4.800899 0.246377
v -0.202312 4.825276 0.278228
v -0.234480 4.825276 0.296994
v -0.428086 4.825277 0.278228
v -0.428086 4.825277 0.251561
v -0.202312 4.825270 0.251514
v -0.209872 4.825275 0.272992
v -0.209872 4.825271 0.251517
v -0.420527 4.825276 0.270891
v -0.235744 4.825275 0.288525
v -0.420527 4.825277 0.251560
v -0.119260 4.547914 0.214975
v -0.119260 4.547909 0.193545
v -0.250015 4.547915 0.213255
v -0.144928 4.547914 0.230470
v -0.250015 4.547916 0.193587
v -0.127250 4.572285 0.199079
v -0.127250 4.572289 0.220504
v -0.227580 4.800875 0.283398
v -0.201896 4.800875 0.267857
v -0.152958 4.572288 0.235982
v -0.265049 4.572290 0.218715
v -0.405614 4.800878 0.246454
v -0.405614 4.800877 0.265797
v -0.201896 4.800870 0.246411
v -0.265049 4.572290 0.199122
v -0.135738 4.598343 0.225565
v -0.135738 4.598338 0.204151
v -0.281028 4.598343 0.223818
v -0.161443 4.598342 0.241132
v -0.281028 4.598344 0.204259
v -0.152486 4.649616 0.236253
v -0.152486 4.649611 0.214830
v -0.312540 4.649615 0.234383
v -0.178235 4.649614 0.251791
v -0.312540 4.649616 0.214899
v -0.160449 4.673983 0.219945
v -0.160449 4.673987 0.241382
v -0.186259 4.673987 0.256896
v -0.327528 4.673988 0.239492
v -0.327528 4.673990 0.220036
v -0.169231 4.700878 0.246940
v -0.169231 4.700874 0.225506
v -0.343767 4.700879 0.245002
v -0.194913 4.700878 0.262466
v -0.343767 4.700880 0.225549
v -0.177733 4.726904 0.230976
v -0.177733 4.726909 0.252420
v -0.203543 4.726909 0.267942
v -0.360177 4.726911 0.250443
v -0.360177 4.726912 0.231018
v -0.185712 4.751318 0.257531
v -0.185712 4.751313 0.236099
v -0.374674 4.751319 0.255536
v -0.211275 4.751318 0.273073
v -0.374674 4.751319 0.236141
v -0.193666 4.775688 0.241031
v -0.193666 4.775693 0.262476
v -0.219405 4.775692 0.278011
v -0.389951 4.775693 0.260442
v -0.389951 4.775694 0.241073
v -0.143972 4.623553 0.209354
v -0.143972 4.623559 0.230793
v -0.169727 4.623558 0.246276
v -0.296514 4.623559 0.228908
v -0.296514 4.623560 0.209395
v 0.009630 4.286572 0.167567
v 0.097155 4.286572 0.167567
v 0.097155 4.286572 0.139894
v 0.009630 4.286572 0.139894
v -0.097155 4.286572 0.167567
v -0.007401 4.286572 0.167567
v -0.007401 4.286572 0.139894
v -0.097155 4.286572 0.139894
v 0.001114 4.286572 0.157484
v 0.001114 4.286572 0.139894
v -0.086412 4.371942 0.202615
v -0.007403 4.371942 0.202615
v 0.009629 4.371941 0.202615
v 0.086412 4.371942 0.202615
v 0.001113 4.389377 0.199561
v 0.001113 4.416129 0.193049
v 0.009629 4.416130 0.193049
v 0.068678 4.416130 0.193049
v 0.068678 4.416123 0.166351
v 0.111701 4.547908 0.193426
v 0.111701 4.547914 0.220123
v -0.068398 4.416130 0.193049
v -0.007403 4.416130 0.193049
v 0.001113 4.416123 0.166352
v 0.009629 4.416123 0.166351
v -0.068398 4.416123 0.166352
v -0.007403 4.416123 0.166351
v 0.143869 4.547914 0.238879
v 0.257574 4.547915 0.220123
v 0.257574 4.547915 0.193473
v 0.119691 4.572290 0.225624
v 0.128182 4.598343 0.230757
v 0.160350 4.598343 0.249513
v 0.151858 4.572289 0.244379
v 0.288588 4.598343 0.230757
v 0.272608 4.572290 0.225624
v 0.288588 4.598343 0.204107
v 0.272608 4.572290 0.198974
v 0.119691 4.572283 0.198926
v 0.128182 4.598337 0.204060
v 0.213533 4.859739 0.284661
v 0.213533 4.859733 0.257963
v 0.274389 4.859735 0.257979
v 0.245700 4.859739 0.303416
v 0.449200 4.859739 0.284661
v 0.449200 4.859739 0.258011
v 0.144927 4.649615 0.241391
v 0.177095 4.649615 0.260147
v 0.168579 4.623558 0.254646
v 0.136411 4.623558 0.235891
v 0.320099 4.649615 0.241391
v 0.304074 4.623559 0.235891
v 0.320099 4.649615 0.214741
v 0.304074 4.623559 0.209241
v 0.144927 4.649609 0.214694
v 0.136411 4.623552 0.209193
v 0.152892 4.673987 0.246525
v 0.161671 4.700884 0.252025
v 0.193839 4.700884 0.270781
v 0.185060 4.673987 0.265280
v 0.351607 4.700884 0.252025
v 0.335088 4.673989 0.246525
v 0.351607 4.700884 0.225375
v 0.335088 4.673989 0.219875
v 0.152892 4.673981 0.219827
v 0.161671 4.700878 0.225328
v 0.170188 4.726942 0.257526
v 0.178153 4.751315 0.262659
v 0.210321 4.751315 0.281415
v 0.202356 4.726942 0.276281
v 0.382623 4.751315 0.262659
v 0.367635 4.726943 0.257526
v 0.382623 4.751315 0.236009
v 0.367635 4.726943 0.230876
v 0.170188 4.726935 0.230828
v 0.178153 4.751308 0.235962
v 0.186096 4.775692 0.267426
v 0.194348 4.800905 0.272927
v 0.226516 4.800905 0.291682
v 0.218264 4.775691 0.286182
v 0.413099 4.800906 0.272927
v 0.397569 4.775692 0.267426
v 0.413099 4.800906 0.246277
v 0.397569 4.775692 0.240776
v 0.186096 4.775686 0.240729
v 0.194348 4.800899 0.246229
v 0.202312 4.825276 0.278060
v 0.234480 4.825275 0.296816
v 0.428086 4.825276 0.278060
v 0.428086 4.825276 0.251410
v 0.202312 4.825269 0.251363
v 0.209872 4.825275 0.272828
v 0.209872 4.825270 0.251366
v 0.420527 4.825276 0.270728
v 0.235744 4.825274 0.288352
v 0.420527 4.825277 0.251409
v 0.119260 4.547914 0.214846
v 0.119260 4.547909 0.193429
v 0.250015 4.547915 0.213127
v 0.144927 4.547914 0.230332
v 0.250015 4.547916 0.193471
v 0.127250 4.572284 0.198960
v 0.127250 4.572289 0.220372
v 0.227580 4.800875 0.283228
v 0.201896 4.800875 0.267696
v 0.152958 4.572288 0.235841
v 0.265049 4.572290 0.218583
v 0.405614 4.800878 0.246306
v 0.405614 4.800876 0.265637
v 0.201896 4.800870 0.246263
v 0.265049 4.572290 0.199002
v 0.135738 4.598342 0.225429
v 0.135738 4.598338 0.204028
v 0.281028 4.598342 0.223684
v 0.161443 4.598342 0.240987
v 0.281028 4.598344 0.204136
v 0.152486 4.649616 0.236111
v 0.152486 4.649611 0.214700
v 0.312539 4.649615 0.234242
v 0.178235 4.649614 0.251640
v 0.312539 4.649616 0.214770
v 0.160449 4.673983 0.219812
v 0.160449 4.673987 0.241237
v 0.186259 4.673987 0.256741
v 0.327528 4.673988 0.239348
v 0.327528 4.673989 0.219904
v 0.169231 4.700878 0.246791
v 0.169231 4.700873 0.225371
v 0.343767 4.700879 0.244854
v 0.194913 4.700878 0.262308
v 0.343767 4.700880 0.225413
v 0.177733 4.726904 0.230837
v 0.177733 4.726909 0.252268
v 0.203543 4.726909 0.267781
v 0.360177 4.726910 0.250292
v 0.360177 4.726911 0.230879
v 0.185712 4.751317 0.257376
v 0.185712 4.751313 0.235957
v 0.374673 4.751319 0.255383
v 0.211275 4.751317 0.272909
v 0.374673 4.751319 0.235999
v 0.193666 4.775688 0.240886
v 0.193666 4.775692 0.262319
v 0.219405 4.775692 0.277844
v 0.389951 4.775693 0.260286
v 0.389951 4.775693 0.240928
v 0.143972 4.623553 0.209228
v 0.143972 4.623558 0.230654
v 0.169727 4.623558 0.246128
v 0.296514 4.623559 0.228771
v 0.296514 4.623559 0.209269
v -0.111701 4.547915 0.220124
v -0.111701 4.547908 0.193426
v -0.143869 4.547915 0.238879
v -0.257574 4.547916 0.193474
v -0.257574 4.547916 0.220124
v -0.119691 4.572290 0.225624
v -0.151858 4.572289 0.244379
v -0.160350 4.598343 0.249513
v -0.128182 4.598343 0.230758
v -0.272608 4.572290 0.225624
v -0.288588 4.598344 0.230758
v -0.272608 4.572290 0.198974
v -0.288588 4.598344 0.204108
v -0.119691 4.572284 0.198926
v -0.128182 4.598337 0.204060
v -0.213533 4.859740 0.284661
v -0.245701 4.859739 0.303416
v -0.274390 4.859735 0.257979
v -0.213533 4.859733 0.257963
v -0.449200 4.859739 0.284661
v -0.449200 4.859739 0.258011
v -0.144927 4.649615 0.241392
v -0.136411 4.623559 0.235891
v -0.168579 4.623559 0.254646
v -0.177095 4.649615 0.260147
v -0.304074 4.623559 0.235891
v -0.320099 4.649616 0.241392
v -0.304074 4.623559 0.209241
v -0.320099 4.649616 0.214741
v -0.144927 4.649609 0.214694
v -0.136411 4.623552 0.209193
v -0.152892 4.673988 0.246525
v -0.185060 4.673988 0.265280
v -0.193839 4.700884 0.270781
v -0.161672 4.700884 0.252026
v -0.335088 4.673989 0.246525
v -0.351608 4.700884 0.252026
v -0.335088 4.673989 0.219875
v -0.351608 4.700884 0.225376
v -0.152892 4.673982 0.219828
v -0.161672 4.700878 0.225328
v -0.170188 4.726943 0.257526
v -0.202356 4.726942 0.276281
v -0.210321 4.751315 0.281415
v -0.178153 4.751315 0.262660
v -0.367635 4.726943 0.257526
v -0.382623 4.751316 0.262660
v -0.367635 4.726943 0.230876
v -0.382623 4.751316 0.236010
v -0.170188 4.726936 0.230828
v -0.178153 4.751308 0.235962
v -0.186096 4.775692 0.267427
v -0.218264 4.775692 0.286182
v -0.226516 4.800905 0.291682
v -0.194348 4.800905 0.272927
v -0.397570 4.775692 0.267426
v -0.413099 4.800907 0.272927
v -0.397570 4.775692 0.240776
v -0.413099 4.800907 0.246277
v -0.186096 4.775686 0.240729
v -0.194348 4.800899 0.246229
v -0.202312 4.825276 0.278061
v -0.234480 4.825276 0.296816
v -0.428086 4.825277 0.278061
v -0.428086 4.825277 0.251411
v -0.202312 4.825270 0.251363
v -0.209872 4.825275 0.272828
v -0.209872 4.825271 0.251366
v -0.420527 4.825276 0.270728
v -0.235744 4.825275 0.288352
v -0.420527 4.825277 0.251409
v -0.119260 4.547914 0.214846
v -0.119260 4.547909 0.193429
v -0.250015 4.547915 0.213127
v -0.144928 4.547914 0.230332
v -0.250015 4.547916 0.193471
v -0.127250 4.572285 0.198960
v -0.127250 4.572289 0.220372
v -0.227580 4.800875 0.283228
v -0.201896 4.800875 0.267696
v -0.152958 4.572288 0.235841
v -0.265049 4.572290 0.218583
v -0.405614 4.800878 0.246306
v -0.405614 4.800877 0.265637
v -0.201896 4.800870 0.246263
v -0.265049 4.572290 0.199002
v -0.135738 4.598343 0.225429
v -0.135738 4.598338 0.204028
v -0.281028 4.598343 0.223684
v -0.161443 4.598342 0.240987
v -0.281028 4.598344 0.204136
v -0.152486 4.649616 0.236111
v -0.152486 4.649611 0.214701
v -0.312540 4.649615 0.234242
v -0.178235 4.649614 0.251640
v -0.312540 4.649616 0.214770
v -0.160449 4.673983 0.219813
v -0.160449 4.673987 0.241237
v -0.186259 4.673987 0.256741
v -0.327528 4.673988 0.239348
v -0.327528 4.673990 0.219904
v -0.169231 4.700878 0.246791
v -0.169231 4.700874 0.225371
v -0.343767 4.700879 0.244855
v -0.194913 4.700878 0.262309
v -0.343767 4.700880 0.225413
v -0.177733 4.726904 0.230837
v -0.177733 4.726909 0.252268
v -0.203543 4.726909 0.267781
v -0.360177 4.726911 0.250293
v -0.360177 4.726912 0.230880
v -0.185712 4.751318 0.257377
v -0.185712 4.751313 0.235957
v -0.374674 4.751319 0.255383
v -0.211275 4.751318 0.272910
v -0.374674 4.751319 0.236000
v -0.193666 4.775688 0.240886
v -0.193666 4.775693 0.262319
v -0.219405 4.775692 0.277844
v -0.389951 4.775693 0.260286
v -0.389951 4.775694 0.240929
v -0.143972 4.623553 0.209229
v -0.143972 4.623559 0.230654
v -0.169727 4.623558 0.246128
v -0.296514 4.623559 0.228771
v -0.296514 4.623560 0.209270
vt 0.107075 0.401403
vt 0.098186 0.429502
vt 0.098186 0.401403
vt 0.107075 0.367120
vt 0.098186 0.395935
vt 0.098186 0.367120
vt 0.107075 0.395935
vt 0.101425 0.398669
vt 0.960982 0.927702
vt 0.931326 0.902366
vt 0.960952 0.898887
vt 0.931326 0.957881
vt 0.960982 0.933263
vt 0.960952 0.961362
vt 0.744976 0.856142
vt 0.749081 0.825288
vt 0.749053 0.860954
vt 0.925677 0.930481
vt 0.916837 0.933215
vt 0.916838 0.930481
vt 0.786504 0.644282
vt 0.768685 0.685064
vt 0.778655 0.640825
vt 0.931353 0.927732
vt 0.916817 0.908165
vt 0.753137 0.856149
vt 0.931353 0.933230
vt 0.916817 0.952172
vt 0.744976 0.791199
vt 0.753552 0.788465
vt 0.753552 0.791199
vt 0.753552 0.785731
vt 0.744976 0.766149
vt 0.753552 0.766149
vt 0.744976 0.788465
vt 0.107075 0.398669
vt 0.744976 0.810156
vt 0.753552 0.810156
vt 0.916837 0.927747
vt 0.786471 0.695169
vt 0.799768 0.636086
vt 0.818637 0.612983
vt 0.827394 0.711393
vt 0.818961 0.712868
vt 0.889135 0.778361
vt 0.895979 0.788363
vt 0.887212 0.790161
vt 0.892031 0.739237
vt 0.897904 0.776563
vt 0.896249 0.728000
vt 0.901069 0.735075
vt 0.896123 0.796938
vt 0.887355 0.798737
vt 0.862342 0.017893
vt 0.847741 0.007566
vt 0.856317 0.007566
vt 0.856317 0.083226
vt 0.847746 0.027104
vt 0.613117 0.864764
vt 0.606258 0.854827
vt 0.615039 0.852963
vt 0.609290 0.811017
vt 0.618322 0.806776
vt 0.613368 0.799793
vt 0.613209 0.873340
vt 0.604336 0.866628
vt 0.316763 0.832743
vt 0.324004 0.842573
vt 0.314967 0.844563
vt 0.319940 0.784306
vt 0.325800 0.830752
vt 0.324243 0.772890
vt 0.329215 0.779859
vt 0.324214 0.851147
vt 0.315177 0.853137
vt 0.831282 0.792301
vt 0.837709 0.802273
vt 0.829521 0.804127
vt 0.834571 0.739000
vt 0.839471 0.790447
vt 0.837912 0.728000
vt 0.842961 0.734913
vt 0.837922 0.810846
vt 0.829733 0.812700
vt 0.461909 0.301076
vt 0.468634 0.310943
vt 0.460160 0.312903
vt 0.465285 0.243294
vt 0.470383 0.299116
vt 0.468833 0.232161
vt 0.473958 0.239018
vt 0.468827 0.319517
vt 0.460353 0.321477
vt 0.779345 0.307336
vt 0.789331 0.316456
vt 0.777825 0.319196
vt 0.782847 0.244988
vt 0.790850 0.304597
vt 0.789578 0.232161
vt 0.794599 0.239094
vt 0.789788 0.325020
vt 0.778282 0.327760
vt 0.580462 0.885949
vt 0.573566 0.888376
vt 0.573567 0.885949
vt 0.579787 0.818319
vt 0.588167 0.878048
vt 0.585448 0.877643
vt 0.573581 0.815892
vt 0.573581 0.818319
vt 0.719887 0.944731
vt 0.713006 0.942304
vt 0.721582 0.942304
vt 0.719335 0.986709
vt 0.727607 0.952632
vt 0.721582 0.989136
vt 0.724861 0.952972
vt 0.713021 0.989136
vt 0.713020 0.986709
vt 0.522339 0.961314
vt 0.514118 0.956190
vt 0.522358 0.954436
vt 0.696665 0.782588
vt 0.689720 0.775064
vt 0.697874 0.773027
vt 0.523975 0.944939
vt 0.517804 0.912577
vt 0.526278 0.908601
vt 0.689566 0.849155
vt 0.694124 0.839967
vt 0.697874 0.844917
vt 0.807487 0.834872
vt 0.800591 0.832448
vt 0.809167 0.832448
vt 0.806825 0.900274
vt 0.815192 0.842776
vt 0.809167 0.902677
vt 0.812476 0.843117
vt 0.800606 0.902677
vt 0.800615 0.900274
vt 0.979595 0.865209
vt 0.972706 0.867636
vt 0.972717 0.865209
vt 0.979020 0.820970
vt 0.987307 0.857309
vt 0.984564 0.856956
vt 0.981282 0.867636
vt 0.972721 0.818543
vt 0.981282 0.818543
vt 0.969504 0.009992
vt 0.962639 0.007566
vt 0.971216 0.007566
vt 0.968943 0.056636
vt 0.977240 0.017893
vt 0.971216 0.059063
vt 0.974502 0.018244
vt 0.962655 0.059063
vt 0.962664 0.056636
vt 0.964049 0.536957
vt 0.957169 0.534530
vt 0.965745 0.534530
vt 0.963448 0.588341
vt 0.971770 0.544858
vt 0.965745 0.590768
vt 0.969037 0.545223
vt 0.957184 0.590768
vt 0.957193 0.588341
vt 0.959128 0.288227
vt 0.952250 0.290653
vt 0.952246 0.288227
vt 0.958521 0.234588
vt 0.966852 0.280326
vt 0.964108 0.279941
vt 0.960827 0.290653
vt 0.952266 0.232161
vt 0.960827 0.232161
vt 0.939791 0.009993
vt 0.932896 0.007566
vt 0.941472 0.007566
vt 0.939168 0.066027
vt 0.947497 0.017893
vt 0.941472 0.068544
vt 0.944775 0.018238
vt 0.932911 0.068544
vt 0.932923 0.066027
vt 0.929399 0.293128
vt 0.922512 0.295550
vt 0.922515 0.293128
vt 0.928766 0.234555
vt 0.937113 0.285223
vt 0.934383 0.284842
vt 0.931089 0.295550
vt 0.922528 0.232161
vt 0.931089 0.232161
vt 0.665512 0.866714
vt 0.658633 0.864287
vt 0.667209 0.864287
vt 0.664871 0.927379
vt 0.673234 0.874614
vt 0.667209 0.929931
vt 0.670502 0.874921
vt 0.658648 0.929931
vt 0.658645 0.927379
vt 0.904499 0.676914
vt 0.897563 0.679344
vt 0.897614 0.676914
vt 0.903846 0.613898
vt 0.912164 0.669017
vt 0.909486 0.668651
vt 0.906139 0.679344
vt 0.897578 0.611452
vt 0.906139 0.611452
vt 0.775476 0.213663
vt 0.768582 0.216090
vt 0.768593 0.213663
vt 0.774871 0.164690
vt 0.783183 0.205763
vt 0.780447 0.205394
vt 0.777158 0.216090
vt 0.768597 0.162263
vt 0.777158 0.162263
vt 0.522587 0.903508
vt 0.514099 0.907464
vt 0.266814 0.868269
vt 0.261776 0.877560
vt 0.258125 0.872451
vt 0.749524 0.371573
vt 0.744850 0.380725
vt 0.741145 0.375685
vt 0.878661 0.611452
vt 0.873505 0.621000
vt 0.869730 0.616025
vt 0.130529 0.777257
vt 0.125963 0.786531
vt 0.122207 0.781565
vt 0.688505 0.784675
vt 0.685818 0.844208
vt 0.131575 0.837193
vt 0.134279 0.782217
vt 0.879779 0.666950
vt 0.882431 0.616420
vt 0.750698 0.422233
vt 0.753223 0.376606
vt 0.268005 0.914378
vt 0.270456 0.873367
vt 0.515735 0.946702
vt 0.259539 0.916288
vt 0.266592 0.923921
vt 0.258125 0.925832
vt 0.742518 0.424141
vt 0.749323 0.431802
vt 0.741145 0.433698
vt 0.871050 0.669054
vt 0.878454 0.676528
vt 0.869730 0.678598
vt 0.123425 0.839229
vt 0.130351 0.846766
vt 0.122207 0.848756
vt 0.689394 0.768177
vt 0.130688 0.853643
vt 0.878697 0.683408
vt 0.749530 0.438681
vt 0.266779 0.930802
vt 0.048521 0.757229
vt 0.066281 0.798067
vt 0.058427 0.801510
vt 0.048489 0.808159
vt 0.035192 0.749075
vt 0.016323 0.725972
vt 0.007566 0.824383
vt 0.007566 0.724442
vt 0.896595 0.828916
vt 0.889751 0.838918
vt 0.887827 0.827118
vt 0.898519 0.840717
vt 0.892647 0.878042
vt 0.896864 0.889279
vt 0.887827 0.885117
vt 0.896739 0.820341
vt 0.887971 0.818543
vt 0.404552 0.787916
vt 0.389951 0.798243
vt 0.395976 0.787916
vt 0.395976 0.863575
vt 0.404547 0.807454
vt 0.404537 0.863575
vt 0.872442 0.242601
vt 0.865584 0.252537
vt 0.863661 0.240737
vt 0.874364 0.254402
vt 0.868615 0.296348
vt 0.872693 0.307571
vt 0.877647 0.300589
vt 0.872535 0.234025
vt 0.863754 0.232161
vt 0.722043 0.776713
vt 0.714801 0.786544
vt 0.713006 0.774723
vt 0.723838 0.788534
vt 0.717978 0.834980
vt 0.722281 0.846396
vt 0.713006 0.841950
vt 0.722252 0.768140
vt 0.713216 0.766149
vt 0.435227 0.768814
vt 0.428799 0.778786
vt 0.427039 0.766960
vt 0.436988 0.780640
vt 0.432088 0.832086
vt 0.435429 0.843086
vt 0.427039 0.838999
vt 0.435439 0.760240
vt 0.427251 0.758386
vt 0.809066 0.738534
vt 0.802340 0.748402
vt 0.800591 0.736574
vt 0.810815 0.750362
vt 0.805716 0.806182
vt 0.809264 0.817316
vt 0.800591 0.813040
vt 0.809259 0.729960
vt 0.800784 0.728000
vt 0.780190 0.739304
vt 0.770204 0.748423
vt 0.768684 0.736564
vt 0.781709 0.751163
vt 0.773706 0.810772
vt 0.780437 0.823599
vt 0.768684 0.817706
vt 0.780647 0.730740
vt 0.769141 0.728000
vt 0.865799 0.888599
vt 0.872695 0.891026
vt 0.864119 0.891026
vt 0.866474 0.820970
vt 0.858094 0.880699
vt 0.864119 0.818543
vt 0.860813 0.880293
vt 0.872680 0.818543
vt 0.872680 0.820970
vt 0.666351 0.947490
vt 0.673232 0.945063
vt 0.673231 0.947490
vt 0.666903 0.989468
vt 0.658631 0.955390
vt 0.661377 0.955730
vt 0.673217 0.991895
vt 0.673218 0.989468
vt 0.954176 0.729756
vt 0.945955 0.734880
vt 0.945937 0.728000
vt 0.837683 0.359331
vt 0.844628 0.351807
vt 0.845843 0.361418
vt 0.955813 0.746131
vt 0.949641 0.778493
vt 0.947572 0.744369
vt 0.840224 0.416710
vt 0.844782 0.425898
vt 0.836474 0.421660
vt 0.900484 0.234584
vt 0.907380 0.232161
vt 0.907369 0.234584
vt 0.901145 0.299986
vt 0.892779 0.242488
vt 0.895495 0.242830
vt 0.907364 0.302389
vt 0.907355 0.299987
vt 0.987848 0.777093
vt 0.980959 0.774666
vt 0.987837 0.774666
vt 0.973247 0.766766
vt 0.981533 0.730427
vt 0.975990 0.766413
vt 0.987833 0.728000
vt 0.987824 0.730427
vt 0.045046 0.926440
vt 0.051911 0.924014
vt 0.051921 0.926440
vt 0.045607 0.973084
vt 0.037310 0.934341
vt 0.040048 0.934692
vt 0.051895 0.975511
vt 0.051886 0.973084
vt 0.964751 0.613879
vt 0.971631 0.611452
vt 0.971629 0.613879
vt 0.965351 0.665263
vt 0.957030 0.621780
vt 0.959762 0.622145
vt 0.971616 0.667690
vt 0.971606 0.665263
vt 0.585744 0.962000
vt 0.578867 0.959574
vt 0.585749 0.959574
vt 0.571143 0.951673
vt 0.579474 0.905935
vt 0.573886 0.951288
vt 0.585729 0.903508
vt 0.585720 0.905935
vt 0.612042 0.892763
vt 0.618937 0.890336
vt 0.618923 0.892763
vt 0.612664 0.948797
vt 0.604336 0.900664
vt 0.607057 0.901008
vt 0.618922 0.951314
vt 0.618909 0.948797
vt 0.937114 0.406281
vt 0.930227 0.403859
vt 0.937111 0.403859
vt 0.922513 0.395954
vt 0.930862 0.345286
vt 0.925243 0.395573
vt 0.937099 0.342892
vt 0.937098 0.345286
vt 0.434760 0.860645
vt 0.441640 0.858218
vt 0.441641 0.860645
vt 0.435401 0.921310
vt 0.427038 0.868546
vt 0.429771 0.868852
vt 0.433063 0.858218
vt 0.441624 0.923862
vt 0.441627 0.921310
vt 0.022167 0.908882
vt 0.015232 0.906451
vt 0.022117 0.906451
vt 0.007566 0.898554
vt 0.015885 0.843435
vt 0.010245 0.898188
vt 0.022152 0.840989
vt 0.022103 0.843435
vt 0.723716 0.216090
vt 0.716822 0.213663
vt 0.723705 0.213663
vt 0.709115 0.205763
vt 0.717427 0.164690
vt 0.711852 0.205394
vt 0.723701 0.162263
vt 0.723692 0.164690
vt 0.954424 0.787562
vt 0.945937 0.783606
vt 0.319895 0.923413
vt 0.324933 0.932704
vt 0.316245 0.928523
vt 0.834588 0.887680
vt 0.839262 0.896832
vt 0.830884 0.892720
vt 0.490041 0.880366
vt 0.495198 0.889914
vt 0.486267 0.885341
vt 0.846420 0.525853
vt 0.850986 0.535127
vt 0.842665 0.530819
vt 0.852033 0.475191
vt 0.843883 0.473155
vt 0.496315 0.834417
vt 0.487587 0.832313
vt 0.840436 0.846172
vt 0.832257 0.844264
vt 0.326125 0.886596
vt 0.317658 0.884685
vt 0.954195 0.736634
vt 0.324712 0.877052
vt 0.839061 0.836603
vt 0.494990 0.824839
vt 0.850809 0.465617
vt 0.844953 0.344920
vt 0.836474 0.349770
vt 0.836799 0.342892
vt 0.851145 0.458741
vt 0.842665 0.463628
vt 0.843001 0.456755
vt 0.495233 0.817959
vt 0.486267 0.822769
vt 0.486509 0.815892
vt 0.839269 0.829724
vt 0.830884 0.834707
vt 0.831091 0.827832
vt 0.324898 0.870172
vt 0.316245 0.875142
vt 0.316431 0.868269
vt 0.015999 0.825857
vt 0.098186 0.429502
vt 0.107075 0.401403
vt 0.098186 0.401403
vt 0.098186 0.395935
vt 0.107075 0.367120
vt 0.098186 0.367120
vt 0.101425 0.398669
vt 0.107075 0.395935
vt 0.960982 0.927702
vt 0.931326 0.902366
vt 0.931353 0.927732
vt 0.960982 0.933263
vt 0.931326 0.957881
vt 0.960952 0.961362
vt 0.744976 0.856142
vt 0.749081 0.825288
vt 0.745023 0.826513
vt 0.916837 0.933215
vt 0.925677 0.930481
vt 0.916838 0.930481
vt 0.786504 0.644282
vt 0.768685 0.685064
vt 0.776534 0.688521
vt 0.916817 0.908165
vt 0.916837 0.927747
vt 0.753137 0.856149
vt 0.753137 0.826519
vt 0.916817 0.952172
vt 0.931353 0.933230
vt 0.753552 0.791199
vt 0.744976 0.788465
vt 0.744976 0.791199
vt 0.753552 0.785731
vt 0.744976 0.766149
vt 0.744976 0.785731
vt 0.753552 0.788465
vt 0.107075 0.398669
vt 0.744976 0.810156
vt 0.753552 0.810156
vt 0.786471 0.695169
vt 0.799768 0.636086
vt 0.818637 0.612983
vt 0.827394 0.711393
vt 0.827394 0.611452
vt 0.895979 0.788363
vt 0.889135 0.778361
vt 0.887212 0.790161
vt 0.897904 0.776563
vt 0.892031 0.739237
vt 0.896249 0.728000
vt 0.887212 0.732162
vt 0.896123 0.796938
vt 0.887355 0.798737
vt 0.847741 0.007566
vt 0.862342 0.017893
vt 0.856317 0.007566
vt 0.856317 0.083226
vt 0.847746 0.027104
vt 0.847756 0.083226
vt 0.613117 0.864764
vt 0.606258 0.854827
vt 0.604336 0.866628
vt 0.615039 0.852963
vt 0.609290 0.811017
vt 0.613368 0.799793
vt 0.618322 0.806776
vt 0.613209 0.873340
vt 0.604429 0.875204
vt 0.324004 0.842573
vt 0.316763 0.832743
vt 0.314967 0.844563
vt 0.325800 0.830752
vt 0.319940 0.784306
vt 0.324243 0.772890
vt 0.314967 0.777337
vt 0.324214 0.851147
vt 0.315177 0.853137
vt 0.837709 0.802273
vt 0.831282 0.792301
vt 0.829521 0.804127
vt 0.839471 0.790447
vt 0.834571 0.739000
vt 0.837912 0.728000
vt 0.829521 0.732087
vt 0.837922 0.810846
vt 0.829733 0.812700
vt 0.468634 0.310943
vt 0.461909 0.301076
vt 0.460160 0.312903
vt 0.470383 0.299116
vt 0.465285 0.243294
vt 0.468833 0.232161
vt 0.460160 0.236437
vt 0.468827 0.319517
vt 0.460353 0.321477
vt 0.789331 0.316456
vt 0.779345 0.307336
vt 0.777825 0.319196
vt 0.790850 0.304597
vt 0.782847 0.244988
vt 0.789578 0.232161
vt 0.777825 0.238054
vt 0.789788 0.325020
vt 0.778282 0.327760
vt 0.580462 0.885949
vt 0.573566 0.888376
vt 0.582142 0.888376
vt 0.579787 0.818319
vt 0.588167 0.878048
vt 0.582142 0.815892
vt 0.585448 0.877643
vt 0.573581 0.815892
vt 0.573581 0.818319
vt 0.719887 0.944731
vt 0.713006 0.942304
vt 0.713007 0.944731
vt 0.719335 0.986709
vt 0.727607 0.952632
vt 0.724861 0.952972
vt 0.713021 0.989136
vt 0.713020 0.986709
vt 0.522339 0.961314
vt 0.514118 0.956190
vt 0.514099 0.963070
vt 0.696665 0.782588
vt 0.689720 0.775064
vt 0.688505 0.784675
vt 0.523975 0.944939
vt 0.517804 0.912577
vt 0.515735 0.946702
vt 0.694124 0.839967
vt 0.689566 0.849155
vt 0.697874 0.844917
vt 0.807487 0.834872
vt 0.800591 0.832448
vt 0.800602 0.834872
vt 0.806825 0.900274
vt 0.815192 0.842776
vt 0.812476 0.843117
vt 0.800606 0.902677
vt 0.800615 0.900274
vt 0.972706 0.867636
vt 0.979595 0.865209
vt 0.972717 0.865209
vt 0.987307 0.857309
vt 0.979020 0.820970
vt 0.984564 0.856956
vt 0.972721 0.818543
vt 0.972730 0.820970
vt 0.969504 0.009992
vt 0.962639 0.007566
vt 0.962629 0.009992
vt 0.968943 0.056636
vt 0.977240 0.017893
vt 0.974502 0.018244
vt 0.962655 0.059063
vt 0.962664 0.056636
vt 0.964049 0.536957
vt 0.957169 0.534530
vt 0.957171 0.536957
vt 0.963448 0.588341
vt 0.971770 0.544858
vt 0.969037 0.545223
vt 0.957184 0.590768
vt 0.957193 0.588341
vt 0.952250 0.290653
vt 0.959128 0.288227
vt 0.952246 0.288227
vt 0.966852 0.280326
vt 0.958521 0.234588
vt 0.964108 0.279941
vt 0.952266 0.232161
vt 0.952275 0.234588
vt 0.939791 0.009993
vt 0.932896 0.007566
vt 0.932910 0.009993
vt 0.939168 0.066027
vt 0.947497 0.017893
vt 0.944775 0.018238
vt 0.932911 0.068544
vt 0.932923 0.066027
vt 0.922512 0.295550
vt 0.929399 0.293128
vt 0.922515 0.293128
vt 0.937113 0.285223
vt 0.928766 0.234555
vt 0.934383 0.284842
vt 0.922528 0.232161
vt 0.922529 0.234555
vt 0.665512 0.866714
vt 0.658633 0.864287
vt 0.658631 0.866714
vt 0.664871 0.927379
vt 0.673234 0.874614
vt 0.670502 0.874921
vt 0.667209 0.864287
vt 0.658648 0.929931
vt 0.658645 0.927379
vt 0.897563 0.679344
vt 0.904499 0.676914
vt 0.897614 0.676914
vt 0.912164 0.669017
vt 0.903846 0.613898
vt 0.909486 0.668651
vt 0.897578 0.611452
vt 0.897627 0.613898
vt 0.768582 0.216090
vt 0.775476 0.213663
vt 0.768593 0.213663
vt 0.783183 0.205763
vt 0.774871 0.164690
vt 0.780447 0.205394
vt 0.768597 0.162263
vt 0.768606 0.164690
vt 0.522587 0.903508
vt 0.514099 0.907464
vt 0.261776 0.877560
vt 0.266814 0.868269
vt 0.258125 0.872451
vt 0.744850 0.380725
vt 0.749524 0.371573
vt 0.741145 0.375685
vt 0.873505 0.621000
vt 0.878661 0.611452
vt 0.869730 0.616025
vt 0.125963 0.786531
vt 0.130529 0.777257
vt 0.122207 0.781565
vt 0.131575 0.837193
vt 0.123425 0.839229
vt 0.879779 0.666950
vt 0.871050 0.669054
vt 0.750698 0.422233
vt 0.742518 0.424141
vt 0.268005 0.914378
vt 0.259539 0.916288
vt 0.522358 0.954436
vt 0.266592 0.923921
vt 0.749323 0.431802
vt 0.878454 0.676528
vt 0.130351 0.846766
vt 0.689394 0.768177
vt 0.697874 0.773027
vt 0.697549 0.766149
vt 0.130688 0.853643
vt 0.122207 0.848756
vt 0.122544 0.855629
vt 0.878697 0.683408
vt 0.869730 0.678598
vt 0.869973 0.685475
vt 0.749530 0.438681
vt 0.741145 0.433698
vt 0.741353 0.440572
vt 0.266779 0.930802
vt 0.258125 0.925832
vt 0.258312 0.932704
vt 0.818961 0.712868
vt 0.048521 0.757229
vt 0.066281 0.798067
vt 0.056376 0.753786
vt 0.048489 0.808159
vt 0.035192 0.749075
vt 0.016323 0.725972
vt 0.007566 0.824383
vt 0.015999 0.825857
vt 0.889751 0.838918
vt 0.896595 0.828916
vt 0.887827 0.827118
vt 0.892647 0.878042
vt 0.898519 0.840717
vt 0.896864 0.889279
vt 0.901685 0.882204
vt 0.896739 0.820341
vt 0.887971 0.818543
vt 0.389951 0.798243
vt 0.404552 0.787916
vt 0.395976 0.787916
vt 0.395976 0.863575
vt 0.404547 0.807454
vt 0.872442 0.242601
vt 0.865584 0.252537
vt 0.874364 0.254402
vt 0.868615 0.296348
vt 0.877647 0.300589
vt 0.872693 0.307571
vt 0.872535 0.234025
vt 0.863661 0.240737
vt 0.714801 0.786544
vt 0.722043 0.776713
vt 0.713006 0.774723
vt 0.717978 0.834980
vt 0.723838 0.788534
vt 0.722281 0.846396
vt 0.727253 0.839427
vt 0.722252 0.768140
vt 0.713216 0.766149
vt 0.428799 0.778786
vt 0.435227 0.768814
vt 0.427039 0.766960
vt 0.432088 0.832086
vt 0.436988 0.780640
vt 0.435429 0.843086
vt 0.440479 0.836173
vt 0.435439 0.760240
vt 0.427251 0.758386
vt 0.802340 0.748402
vt 0.809066 0.738534
vt 0.800591 0.736574
vt 0.805716 0.806182
vt 0.810815 0.750362
vt 0.809264 0.817316
vt 0.814389 0.810459
vt 0.809259 0.729960
vt 0.800784 0.728000
vt 0.770204 0.748423
vt 0.780190 0.739304
vt 0.768684 0.736564
vt 0.773706 0.810772
vt 0.781709 0.751163
vt 0.780437 0.823599
vt 0.785458 0.816665
vt 0.780647 0.730740
vt 0.769141 0.728000
vt 0.865799 0.888599
vt 0.872695 0.891026
vt 0.872694 0.888599
vt 0.866474 0.820970
vt 0.858094 0.880699
vt 0.860813 0.880293
vt 0.872680 0.818543
vt 0.872680 0.820970
vt 0.666351 0.947490
vt 0.673232 0.945063
vt 0.664656 0.945063
vt 0.666903 0.989468
vt 0.658631 0.955390
vt 0.664656 0.991895
vt 0.661377 0.955730
vt 0.673217 0.991895
vt 0.673218 0.989468
vt 0.954176 0.729756
vt 0.945955 0.734880
vt 0.954195 0.736634
vt 0.837683 0.359331
vt 0.844628 0.351807
vt 0.836474 0.349770
vt 0.955813 0.746131
vt 0.949641 0.778493
vt 0.958115 0.782469
vt 0.844782 0.425898
vt 0.840224 0.416710
vt 0.836474 0.421660
vt 0.900484 0.234584
vt 0.907380 0.232161
vt 0.898804 0.232161
vt 0.901145 0.299986
vt 0.892779 0.242488
vt 0.898803 0.302389
vt 0.895495 0.242830
vt 0.907364 0.302389
vt 0.907355 0.299987
vt 0.980959 0.774666
vt 0.987848 0.777093
vt 0.987837 0.774666
vt 0.981533 0.730427
vt 0.973247 0.766766
vt 0.975990 0.766413
vt 0.979272 0.777093
vt 0.987833 0.728000
vt 0.979272 0.728000
vt 0.045046 0.926440
vt 0.051911 0.924014
vt 0.043334 0.924014
vt 0.045607 0.973084
vt 0.037310 0.934341
vt 0.043334 0.975511
vt 0.040048 0.934692
vt 0.051895 0.975511
vt 0.051886 0.973084
vt 0.964751 0.613879
vt 0.971631 0.611452
vt 0.963055 0.611452
vt 0.965351 0.665263
vt 0.957030 0.621780
vt 0.963055 0.667690
vt 0.959762 0.622145
vt 0.971616 0.667690
vt 0.971606 0.665263
vt 0.578867 0.959574
vt 0.585744 0.962000
vt 0.585749 0.959574
vt 0.579474 0.905935
vt 0.571143 0.951673
vt 0.573886 0.951288
vt 0.577168 0.962000
vt 0.585729 0.903508
vt 0.577168 0.903508
vt 0.612042 0.892763
vt 0.618937 0.890336
vt 0.610361 0.890336
vt 0.612664 0.948797
vt 0.604336 0.900664
vt 0.610361 0.951314
vt 0.607057 0.901008
vt 0.618922 0.951314
vt 0.618909 0.948797
vt 0.930227 0.403859
vt 0.937114 0.406281
vt 0.937111 0.403859
vt 0.930862 0.345286
vt 0.922513 0.395954
vt 0.925243 0.395573
vt 0.928537 0.406281
vt 0.937099 0.342892
vt 0.928538 0.342892
vt 0.434760 0.860645
vt 0.441640 0.858218
vt 0.433063 0.858218
vt 0.435401 0.921310
vt 0.427038 0.868546
vt 0.433063 0.923862
vt 0.429771 0.868852
vt 0.441624 0.923862
vt 0.441627 0.921310
vt 0.015232 0.906451
vt 0.022167 0.908882
vt 0.022117 0.906451
vt 0.015885 0.843435
vt 0.007566 0.898554
vt 0.010245 0.898188
vt 0.013591 0.908882
vt 0.022152 0.840989
vt 0.013591 0.840989
vt 0.716822 0.213663
vt 0.723716 0.216090
vt 0.723705 0.213663
vt 0.717427 0.164690
vt 0.709115 0.205763
vt 0.711852 0.205394
vt 0.715140 0.216090
vt 0.723701 0.162263
vt 0.715140 0.162263
vt 0.954424 0.787562
vt 0.945937 0.783606
vt 0.324933 0.932704
vt 0.319895 0.923413
vt 0.316245 0.928523
vt 0.839262 0.896832
vt 0.834588 0.887680
vt 0.830884 0.892720
vt 0.495198 0.889914
vt 0.490041 0.880366
vt 0.486267 0.885341
vt 0.850986 0.535127
vt 0.846420 0.525853
vt 0.842665 0.530819
vt 0.845843 0.361418
vt 0.848529 0.420951
vt 0.852033 0.475191
vt 0.854737 0.530167
vt 0.496315 0.834417
vt 0.498967 0.884946
vt 0.840436 0.846172
vt 0.842961 0.891799
vt 0.326125 0.886596
vt 0.328575 0.927607
vt 0.947572 0.744369
vt 0.317658 0.884685
vt 0.324712 0.877052
vt 0.316245 0.875142
vt 0.832257 0.844264
vt 0.839061 0.836603
vt 0.830884 0.834707
vt 0.487587 0.832313
vt 0.494990 0.824839
vt 0.486267 0.822769
vt 0.843883 0.473155
vt 0.850809 0.465617
vt 0.842665 0.463628
vt 0.844953 0.344920
vt 0.851145 0.458741
vt 0.495233 0.817959
vt 0.839269 0.829724
vt 0.324898 0.870172
vt 0.107075 0.429502
vt 0.745023 0.826513
vt 0.776534 0.688521
vt 0.753137 0.826519
vt 0.744976 0.785731
vt 0.827394 0.611452
vt 0.887212 0.732162
vt 0.847756 0.083226
vt 0.604336 0.804035
vt 0.604429 0.875204
vt 0.314967 0.777337
vt 0.829521 0.732087
vt 0.460160 0.236437
vt 0.777825 0.238054
vt 0.582142 0.888376
vt 0.582142 0.815892
vt 0.713007 0.944731
vt 0.514099 0.963070
vt 0.800602 0.834872
vt 0.972730 0.820970
vt 0.962629 0.009992
vt 0.957171 0.536957
vt 0.952275 0.234588
vt 0.932910 0.009993
vt 0.922529 0.234555
vt 0.658631 0.866714
vt 0.897627 0.613898
vt 0.768606 0.164690
vt 0.697549 0.766149
vt 0.122544 0.855629
vt 0.869973 0.685475
vt 0.741353 0.440572
vt 0.258312 0.932704
vt 0.056376 0.753786
vt 0.901685 0.882204
vt 0.863661 0.303330
vt 0.727253 0.839427
vt 0.440479 0.836173
vt 0.814389 0.810459
vt 0.785458 0.816665
vt 0.872694 0.888599
vt 0.664656 0.945063
vt 0.664656 0.991895
vt 0.958115 0.782469
vt 0.848529 0.420951
vt 0.898804 0.232161
vt 0.898803 0.302389
vt 0.979272 0.777093
vt 0.979272 0.728000
vt 0.043334 0.924014
vt 0.043334 0.975511
vt 0.963055 0.611452
vt 0.963055 0.667690
vt 0.577168 0.962000
vt 0.577168 0.903508
vt 0.610361 0.890336
vt 0.610361 0.951314
vt 0.928537 0.406281
vt 0.928538 0.342892
vt 0.433063 0.923862
vt 0.013591 0.908882
vt 0.013591 0.840989
vt 0.715140 0.216090
vt 0.715140 0.162263
vt 0.328575 0.927607
vt 0.842961 0.891799
vt 0.498967 0.884946
vt 0.854737 0.530167
vt 0.107075 0.429502
vt 0.960952 0.898887
vt 0.749053 0.860954
vt 0.778655 0.640825
vt 0.753552 0.766149
vt 0.901069 0.735075
vt 0.604336 0.804035
vt 0.329215 0.779859
vt 0.842961 0.734913
vt 0.473958 0.239018
vt 0.794599 0.239094
vt 0.573567 0.885949
vt 0.721582 0.942304
vt 0.721582 0.989136
vt 0.526278 0.908601
vt 0.685818 0.844208
vt 0.809167 0.832448
vt 0.809167 0.902677
vt 0.981282 0.867636
vt 0.981282 0.818543
vt 0.971216 0.007566
vt 0.971216 0.059063
vt 0.965745 0.534530
vt 0.965745 0.590768
vt 0.960827 0.290653
vt 0.960827 0.232161
vt 0.941472 0.007566
vt 0.941472 0.068544
vt 0.931089 0.295550
vt 0.931089 0.232161
vt 0.667209 0.929931
vt 0.906139 0.679344
vt 0.906139 0.611452
vt 0.777158 0.216090
vt 0.777158 0.162263
vt 0.270456 0.873367
vt 0.753223 0.376606
vt 0.882431 0.616420
vt 0.134279 0.782217
vt 0.058427 0.801510
vt 0.007566 0.724442
vt 0.887827 0.885117
vt 0.404537 0.863575
vt 0.863661 0.303330
vt 0.863754 0.232161
vt 0.713006 0.841950
vt 0.427039 0.838999
vt 0.800591 0.813040
vt 0.768684 0.817706
vt 0.864119 0.891026
vt 0.864119 0.818543
vt 0.673231 0.947490
vt 0.945937 0.728000
vt 0.907369 0.234584
vt 0.987824 0.730427
vt 0.051921 0.926440
vt 0.971629 0.613879
vt 0.585720 0.905935
vt 0.618923 0.892763
vt 0.937098 0.345286
vt 0.441641 0.860645
vt 0.022103 0.843435
vt 0.723692 0.164690
vt 0.836799 0.342892
vt 0.843001 0.456755
vt 0.486509 0.815892
vt 0.831091 0.827832
vt 0.316431 0.868269
vn 0.0000 -1.0000 0.0000
vn 0.0000 -0.3800 0.9250
vn 0.7408 -0.2549 0.6215
vn 0.7407 -0.2549 0.6216
vn 0.0000 0.2212 0.9752
vn 0.0257 0.2164 0.9760
vn -0.9506 0.3104 -0.0001
vn -0.0114 0.2138 0.9768
vn 0.0000 0.2117 0.9773
vn -0.7407 -0.2549 0.6216
vn -0.7408 -0.2549 0.6215
vn 0.0114 0.2138 0.9768
vn -0.0000 1.0000 -0.0003
vn -0.0001 1.0000 -0.0003
vn -0.0257 0.2164 0.9760
vn -0.5030 -0.0138 0.8642
vn -0.5030 -0.0137 0.8642
vn 0.8523 -0.5231 0.0000
vn 0.2651 -0.2978 0.9171
vn 0.1758 -0.2884 0.9412
vn 0.3922 -0.3069 0.8672
vn -0.5039 -0.0060 0.8637
vn -0.5039 -0.0061 0.8637
vn 0.1441 -0.2561 0.9558
vn 0.8524 -0.5228 0.0000
vn -0.9508 0.3099 -0.0001
vn 0.0000 1.0000 -0.0001
vn 0.0001 1.0000 -0.0002
vn -0.0000 1.0000 -0.0000
vn -0.5038 -0.0177 0.8636
vn -0.5038 -0.0178 0.8636
vn 0.1289 -0.2627 0.9562
vn 0.8518 -0.5239 0.0000
vn -0.9505 0.3107 -0.0001
vn -0.5039 -0.0123 0.8637
vn 0.1171 -0.2517 0.9607
vn 0.1172 -0.2517 0.9607
vn 0.8521 -0.5234 0.0000
vn -0.9506 0.3103 -0.0001
vn -0.5038 -0.0174 0.8636
vn 0.1069 -0.2530 0.9615
vn 0.8518 -0.5238 0.0000
vn -0.9505 0.3106 -0.0001
vn -0.5038 -0.0236 0.8635
vn 0.0986 -0.2564 0.9615
vn 0.8515 -0.5244 0.0000
vn -0.9504 0.3111 -0.0001
vn -0.5039 -0.0015 0.8638
vn 0.0916 -0.2287 0.9692
vn 0.8527 -0.5224 0.0000
vn -0.9509 0.3096 -0.0001
vn -0.0000 -1.0000 0.0002
vn 0.0001 -1.0000 0.0002
vn -0.0000 -1.0000 0.0001
vn -0.0001 -1.0000 -0.0000
vn -0.0001 -1.0000 -0.0001
vn -0.0001 1.0000 -0.0001
vn -0.0001 1.0000 -0.0002
vn 0.0001 1.0000 0.0000
vn 0.0001 1.0000 0.0001
vn -0.9502 0.3115 -0.0001
vn -0.5160 -0.0092 0.8565
vn -0.5163 -0.0095 0.8563
vn -0.5162 -0.0094 0.8564
vn 0.1504 -0.2842 0.9469
vn 0.1503 -0.2843 0.9469
vn 0.1503 -0.2842 0.9469
vn 0.8532 -0.5215 -0.0000
vn 0.8532 -0.5215 -0.0001
vn 0.0029 1.0000 -0.0016
vn 0.0038 1.0000 -0.0003
vn 0.0027 1.0000 -0.0018
vn -0.0022 1.0000 -0.0018
vn 0.0007 1.0000 -0.0035
vn -0.0021 1.0000 -0.0019
vn 0.0009 1.0000 -0.0035
vn -0.0038 1.0000 0.0001
vn 0.0002 -1.0000 0.0002
vn 0.0000 1.0000 -0.0002
vn -0.0001 1.0000 -0.0000
vn -0.0002 1.0000 -0.0001
vn -0.0003 1.0000 -0.0002
vn -0.0002 1.0000 -0.0000
vn 0.0001 1.0000 -0.0001
vn 0.0001 -1.0000 0.0001
vn 0.0003 -1.0000 0.0001
vn 0.0001 -1.0000 0.0000
vn 0.0005 1.0000 -0.0004
vn 0.0007 1.0000 -0.0002
vn 0.0005 1.0000 -0.0005
vn -0.0003 1.0000 -0.0003
vn 0.0001 1.0000 -0.0007
vn 0.0002 1.0000 -0.0007
vn -0.0005 1.0000 0.0000
vn -0.0031 -1.0000 0.0018
vn -0.0041 -1.0000 0.0003
vn 0.0025 -1.0000 0.0021
vn -0.0008 -1.0000 0.0037
vn -0.0009 -1.0000 0.0037
vn -0.0030 -1.0000 0.0020
vn 0.0043 -1.0000 0.0000
vn 0.0023 -1.0000 0.0022
vn -0.0003 1.0000 -0.0000
vn -0.0006 1.0000 -0.0002
vn 0.0003 1.0000 0.0003
vn -0.0000 1.0000 0.0002
vn -0.0001 1.0000 0.0002
vn 0.0005 1.0000 0.0000
vn 0.0003 -1.0000 0.0002
vn 0.0000 -1.0000 -0.0001
vn 0.0001 -1.0000 0.0003
vn 0.8511 -0.5250 -0.0000
vn 0.8521 -0.5233 -0.0000
vn 0.8521 -0.5233 -0.0001
vn 0.8459 -0.5333 -0.0000
vn 0.8473 -0.5311 0.0000
vn 0.0937 -0.2463 0.9646
vn 0.0937 -0.2464 0.9646
vn 0.1014 -0.2435 0.9646
vn 0.1100 -0.2544 0.9608
vn 0.1211 -0.2580 0.9585
vn 0.1347 -0.2576 0.9568
vn 0.1347 -0.2577 0.9568
vn -0.5161 -0.0242 0.8562
vn -0.5162 -0.0243 0.8561
vn -0.5162 -0.0243 0.8562
vn -0.5165 -0.0068 0.8562
vn -0.5167 -0.0070 0.8561
vn -0.5166 -0.0069 0.8562
vn -0.5158 -0.0106 0.8566
vn -0.5160 -0.0107 0.8565
vn -0.5159 -0.0106 0.8566
vn -0.5163 -0.0102 0.8563
vn -0.5164 -0.0103 0.8563
vn -0.5163 -0.0103 0.8563
vn -0.5180 -0.0023 0.8554
vn -0.5183 -0.0026 0.8552
vn -0.5182 -0.0025 0.8553
vn -0.9507 0.3102 -0.0001
vn -0.9506 0.3105 -0.0001
vn 0.1560 -0.2860 0.9454
vn 0.9500 0.3122 -0.0001
vn 0.5011 -0.0141 0.8653
vn -0.8523 -0.5231 0.0000
vn -0.2651 -0.2978 0.9171
vn -0.3922 -0.3069 0.8672
vn -0.1758 -0.2884 0.9412
vn 0.5039 -0.0061 0.8637
vn -0.1441 -0.2561 0.9558
vn -0.1441 -0.2562 0.9558
vn -0.8524 -0.5228 0.0000
vn 0.9508 0.3099 -0.0001
vn -0.0002 1.0000 -0.0002
vn 0.5038 -0.0177 0.8636
vn -0.1289 -0.2627 0.9562
vn -0.8518 -0.5239 0.0000
vn 0.9505 0.3107 -0.0001
vn 0.5039 -0.0123 0.8637
vn -0.1171 -0.2517 0.9607
vn -0.8521 -0.5234 0.0000
vn 0.9506 0.3103 -0.0001
vn 0.5038 -0.0174 0.8636
vn 0.5038 -0.0173 0.8636
vn -0.1069 -0.2530 0.9615
vn -0.8518 -0.5238 0.0000
vn 0.5038 -0.0236 0.8635
vn -0.0986 -0.2564 0.9615
vn -0.8515 -0.5244 0.0000
vn 0.9504 0.3111 -0.0001
vn 0.5039 -0.0015 0.8638
vn -0.0916 -0.2287 0.9692
vn -0.8527 -0.5224 0.0000
vn 0.9509 0.3096 -0.0001
vn -0.0001 -1.0000 0.0002
vn 0.0000 1.0000 0.0001
vn 0.9502 0.3115 -0.0001
vn 0.9503 0.3115 -0.0001
vn 0.5160 -0.0092 0.8565
vn 0.5163 -0.0095 0.8563
vn 0.5162 -0.0094 0.8564
vn -0.1504 -0.2842 0.9469
vn -0.1503 -0.2842 0.9469
vn -0.1503 -0.2843 0.9469
vn -0.8532 -0.5215 -0.0000
vn -0.0029 1.0000 -0.0016
vn -0.0038 1.0000 -0.0003
vn -0.0039 1.0000 -0.0003
vn 0.0022 1.0000 -0.0018
vn -0.0007 1.0000 -0.0034
vn -0.0009 1.0000 -0.0034
vn 0.0039 1.0000 0.0001
vn 0.0002 1.0000 -0.0001
vn 0.0003 1.0000 -0.0002
vn -0.0001 -1.0000 0.0001
vn 0.0001 -1.0000 -0.0001
vn -0.0005 1.0000 -0.0004
vn 0.0003 1.0000 -0.0003
vn -0.0001 1.0000 -0.0007
vn -0.0002 1.0000 -0.0007
vn 0.0042 -1.0000 0.0002
vn 0.0032 -1.0000 0.0018
vn 0.0008 -1.0000 0.0038
vn -0.0024 -1.0000 0.0019
vn 0.0009 -1.0000 0.0038
vn -0.0042 -1.0000 -0.0001
vn 0.0004 1.0000 0.0000
vn 0.0007 1.0000 -0.0003
vn -0.0002 1.0000 0.0002
vn 0.0001 1.0000 0.0003
vn 0.0004 1.0000 0.0001
vn -0.0004 1.0000 0.0000
vn -0.0003 -1.0000 0.0002
vn -0.0002 -1.0000 0.0001
vn 0.0002 -1.0000 -0.0000
vn 0.0003 -1.0000 -0.0001
vn -0.0001 -1.0000 0.0003
vn -0.8511 -0.5250 -0.0000
vn -0.8521 -0.5233 -0.0000
vn -0.8459 -0.5333 -0.0000
vn -0.8460 -0.5333 0.0000
vn -0.8473 -0.5311 -0.0000
vn -0.0937 -0.2464 0.9646
vn -0.0937 -0.2463 0.9646
vn -0.1014 -0.2435 0.9646
vn -0.1100 -0.2544 0.9608
vn -0.1211 -0.2580 0.9585
vn -0.1347 -0.2576 0.9568
vn -0.1347 -0.2577 0.9568
vn 0.5161 -0.0242 0.8562
vn 0.5162 -0.0243 0.8561
vn 0.5167 -0.0070 0.8561
vn 0.5165 -0.0068 0.8563
vn 0.5166 -0.0069 0.8562
vn 0.5158 -0.0106 0.8566
vn 0.5160 -0.0107 0.8565
vn 0.5159 -0.0107 0.8566
vn 0.5163 -0.0102 0.8564
vn 0.5164 -0.0103 0.8563
vn 0.5163 -0.0103 0.8564
vn 0.5180 -0.0023 0.8554
vn 0.5183 -0.0026 0.8552
vn 0.5181 -0.0024 0.8553
vn 0.9507 0.3102 -0.0001
vn 0.9506 0.3105 -0.0001
vn 0.9505 0.3106 -0.0001
vn 0.9506 0.3104 -0.0001
vn -0.1560 -0.2860 0.9454
vn 0.0000 0.3798 -0.9251
vn -0.7405 0.2549 -0.6218
vn -0.7405 0.2548 -0.6218
vn -0.0257 -0.2162 -0.9760
vn -0.0000 -0.2210 -0.9753
vn 0.9506 -0.3104 0.0001
vn 0.0114 -0.2137 -0.9768
vn 0.0000 -0.2116 -0.9774
vn 0.0257 -0.2162 -0.9760
vn 0.7405 0.2549 -0.6218
vn -0.0114 -0.2137 -0.9768
vn 0.0000 -1.0000 0.0003
vn 0.5027 0.0138 -0.8644
vn 0.5028 0.0137 -0.8643
vn -0.8523 0.5231 0.0000
vn -0.2650 0.2976 -0.9172
vn -0.3920 0.3067 -0.8673
vn -0.1757 0.2883 -0.9413
vn 0.5037 0.0060 -0.8639
vn 0.5037 0.0061 -0.8639
vn -0.1440 0.2560 -0.9559
vn -0.8524 0.5228 0.0000
vn 0.9508 -0.3099 0.0001
vn 0.5036 0.0177 -0.8637
vn -0.1288 0.2625 -0.9563
vn -0.8518 0.5239 0.0000
vn 0.9505 -0.3107 0.0001
vn 0.5037 0.0123 -0.8638
vn -0.1171 0.2515 -0.9607
vn -0.8521 0.5234 0.0000
vn 0.9506 -0.3103 0.0001
vn 0.5036 0.0173 -0.8638
vn 0.5036 0.0174 -0.8638
vn -0.1069 0.2528 -0.9616
vn -0.8518 0.5238 0.0000
vn 0.9505 -0.3106 0.0001
vn 0.5035 0.0236 -0.8636
vn 0.5036 0.0236 -0.8636
vn -0.0986 0.2563 -0.9616
vn -0.8515 0.5244 0.0000
vn 0.9504 -0.3111 0.0001
vn 0.5037 0.0015 -0.8639
vn -0.0916 0.2286 -0.9692
vn -0.8527 0.5224 0.0000
vn 0.9509 -0.3096 0.0001
vn 0.9502 -0.3115 0.0001
vn 0.5158 0.0092 -0.8567
vn 0.5161 0.0095 -0.8565
vn 0.5160 0.0094 -0.8566
vn -0.1503 0.2841 -0.9469
vn -0.8532 0.5215 0.0000
vn -0.8532 0.5215 0.0001
vn -0.0029 -1.0000 0.0016
vn -0.0038 -1.0000 0.0003
vn -0.0039 -1.0000 0.0003
vn 0.0022 -1.0000 0.0018
vn -0.0007 -1.0000 0.0035
vn -0.0009 -1.0000 0.0035
vn 0.0038 -1.0000 -0.0001
vn 0.0002 -1.0000 0.0001
vn -0.0003 1.0000 -0.0001
vn -0.0005 -1.0000 0.0004
vn -0.0007 -1.0000 0.0002
vn 0.0003 -1.0000 0.0003
vn -0.0001 -1.0000 0.0007
vn -0.0002 -1.0000 0.0007
vn 0.0005 -1.0000 -0.0000
vn 0.0041 1.0000 -0.0003
vn 0.0031 1.0000 -0.0018
vn 0.0008 1.0000 -0.0037
vn -0.0025 1.0000 -0.0020
vn 0.0009 1.0000 -0.0037
vn -0.0043 1.0000 0.0000
vn 0.0003 -1.0000 0.0000
vn 0.0006 -1.0000 0.0002
vn 0.0007 -1.0000 0.0002
vn -0.0003 -1.0000 -0.0003
vn 0.0000 -1.0000 -0.0002
vn 0.0001 -1.0000 -0.0002
vn -0.0005 -1.0000 0.0000
vn -0.8511 0.5250 0.0000
vn -0.8521 0.5233 0.0000
vn -0.8521 0.5233 0.0001
vn -0.8459 0.5333 0.0000
vn -0.8473 0.5311 0.0000
vn -0.0936 0.2462 -0.9647
vn -0.1013 0.2433 -0.9646
vn -0.1013 0.2434 -0.9646
vn -0.1099 0.2542 -0.9609
vn -0.1210 0.2578 -0.9586
vn -0.1210 0.2579 -0.9586
vn -0.1346 0.2575 -0.9569
vn 0.5159 0.0242 -0.8563
vn 0.5160 0.0243 -0.8563
vn 0.5163 0.0068 -0.8564
vn 0.5165 0.0070 -0.8563
vn 0.5164 0.0069 -0.8563
vn 0.5156 0.0105 -0.8568
vn 0.5157 0.0107 -0.8567
vn 0.5161 0.0102 -0.8565
vn 0.5162 0.0103 -0.8564
vn 0.5161 0.0103 -0.8565
vn 0.5181 0.0026 -0.8553
vn 0.5178 0.0024 -0.8555
vn 0.5179 0.0025 -0.8555
vn 0.9507 -0.3102 0.0001
vn 0.9506 -0.3105 0.0001
vn -0.1560 0.2859 -0.9455
vn -0.9500 -0.3122 0.0001
vn -0.5009 0.0141 -0.8654
vn 0.8523 0.5231 0.0000
vn 0.2650 0.2976 -0.9172
vn 0.1757 0.2883 -0.9413
vn 0.3920 0.3067 -0.8673
vn -0.5037 0.0061 -0.8639
vn 0.1440 0.2560 -0.9559
vn 0.8524 0.5228 0.0000
vn -0.9508 -0.3099 0.0001
vn -0.5036 0.0178 -0.8638
vn 0.1288 0.2625 -0.9563
vn 0.1288 0.2626 -0.9563
vn 0.8518 0.5239 0.0000
vn -0.9505 -0.3107 0.0001
vn -0.5036 0.0123 -0.8638
vn 0.1171 0.2516 -0.9607
vn 0.1171 0.2515 -0.9607
vn 0.8521 0.5234 0.0000
vn -0.9506 -0.3103 0.0001
vn -0.5036 0.0174 -0.8638
vn 0.1068 0.2529 -0.9616
vn 0.1069 0.2528 -0.9616
vn 0.8518 0.5238 0.0000
vn -0.5035 0.0236 -0.8637
vn 0.0986 0.2563 -0.9616
vn 0.0986 0.2562 -0.9616
vn 0.8515 0.5244 0.0000
vn -0.9504 -0.3111 0.0001
vn -0.5037 0.0014 -0.8639
vn 0.0915 0.2286 -0.9692
vn 0.0916 0.2286 -0.9692
vn 0.8527 0.5224 0.0000
vn -0.9509 -0.3096 0.0001
vn -0.9502 -0.3115 0.0001
vn -0.5160 0.0094 -0.8565
vn -0.5161 0.0095 -0.8565
vn -0.5160 0.0094 -0.8566
vn 0.1503 0.2841 -0.9469
vn 0.8532 0.5215 0.0000
vn 0.0029 -1.0000 0.0016
vn 0.0038 -1.0000 0.0003
vn 0.0027 -1.0000 0.0018
vn -0.0022 -1.0000 0.0018
vn 0.0007 -1.0000 0.0034
vn -0.0021 -1.0000 0.0019
vn 0.0009 -1.0000 0.0034
vn -0.0039 -1.0000 -0.0001
vn -0.0002 -1.0000 0.0000
vn -0.0001 1.0000 0.0001
vn 0.0005 -1.0000 0.0004
vn -0.0003 -1.0000 0.0003
vn 0.0001 -1.0000 0.0006
vn 0.0002 -1.0000 0.0007
vn -0.0032 1.0000 -0.0018
vn -0.0042 1.0000 -0.0002
vn 0.0024 1.0000 -0.0019
vn -0.0008 1.0000 -0.0038
vn -0.0009 1.0000 -0.0038
vn -0.0031 1.0000 -0.0020
vn 0.0042 1.0000 0.0001
vn 0.0023 1.0000 -0.0021
vn -0.0004 -1.0000 -0.0000
vn -0.0007 -1.0000 0.0003
vn -0.0004 -1.0000 -0.0001
vn 0.0002 -1.0000 -0.0002
vn -0.0001 -1.0000 -0.0003
vn 0.0004 -1.0000 0.0000
vn 0.0001 1.0000 -0.0003
vn 0.8511 0.5250 0.0000
vn 0.8521 0.5233 0.0000
vn 0.8459 0.5333 0.0000
vn 0.8473 0.5311 0.0000
vn 0.0936 0.2462 -0.9647
vn 0.1014 0.2433 -0.9646
vn 0.1013 0.2433 -0.9646
vn 0.1099 0.2542 -0.9609
vn 0.1210 0.2578 -0.9586
vn 0.1210 0.2579 -0.9586
vn 0.1346 0.2575 -0.9569
vn -0.5159 0.0242 -0.8563
vn -0.5160 0.0243 -0.8563
vn -0.5159 0.0243 -0.8563
vn -0.5163 0.0068 -0.8564
vn -0.5165 0.0070 -0.8563
vn -0.5164 0.0069 -0.8563
vn -0.5156 0.0105 -0.8568
vn -0.5157 0.0107 -0.8567
vn -0.5161 0.0102 -0.8565
vn -0.5162 0.0103 -0.8564
vn -0.5161 0.0103 -0.8565
vn -0.5181 0.0026 -0.8553
vn -0.5180 0.0026 -0.8554
vn -0.5179 0.0025 -0.8554
vn -0.9507 -0.3102 0.0001
vn -0.9506 -0.3105 0.0001
vn -0.9505 -0.3106 0.0001
vn -0.9506 -0.3104 0.0001
vn 0.1560 0.2859 -0.9455
vn -0.5029 -0.0138 0.8642
vn -0.5039 -0.0060 0.8638
vn -0.5038 -0.0123 0.8637
vn 0.8533 -0.5215 -0.0000
vn 0.0039 1.0000 -0.0003
vn -0.0007 1.0000 -0.0002
vn -0.5167 -0.0069 0.8562
vn -0.5181 -0.0024 0.8553
vn 0.5038 -0.0178 0.8636
vn -0.0027 1.0000 -0.0018
vn 0.0021 1.0000 -0.0019
vn 0.0002 1.0000 -0.0000
vn 0.0031 -1.0000 0.0020
vn -0.0023 -1.0000 0.0020
vn -0.8518 -0.5238 -0.0001
vn 0.5159 -0.0106 0.8566
vn 0.5163 -0.0103 0.8563
vn 0.5182 -0.0025 0.8553
vn -0.7406 0.2548 -0.6218
vn 0.5036 0.0178 -0.8637
vn -0.1068 0.2529 -0.9616
vn 0.5035 0.0236 -0.8637
vn -0.8533 0.5215 0.0000
vn -0.0027 -1.0000 0.0018
vn 0.0021 -1.0000 0.0019
vn 0.0030 1.0000 -0.0020
vn -0.0023 1.0000 -0.0022
vn 0.5161 0.0245 -0.8562
vn 0.5156 0.0106 -0.8567
vn -0.5008 0.0141 -0.8654
vn -0.5037 0.0123 -0.8638
vn -0.9503 -0.3115 0.0001
vn 0.1503 0.2841 -0.9470
vn 0.0039 -1.0000 0.0003
vn -0.0003 1.0000 0.0001
vn 0.8518 0.5238 0.0001
vn -0.5161 0.0103 -0.8564
vn -0.5179 0.0024 -0.8555
usemtl emrysChevron.005
s 1
f 2/1/1 4/2/1 1/3/1
f 6/4/1 8/5/1 5/6/1
f 7/7/1 10/8/1 8/5/1
f 8/9/2 12/10/2 5/11/2
f 13/12/2 1/13/2 4/14/2
f 11/15/3 10/16/4 15/17/4
f 15/18/5 17/19/6 16/20/5
f 18/21/7 20/22/7 21/23/7
f 11/24/8 23/25/9 12/10/9
f 10/16/10 14/26/11 15/17/10
f 14/27/12 18/28/9 17/19/6
f 24/29/13 16/30/13 17/31/14
f 22/32/13 27/33/13 23/34/13
f 25/35/13 22/32/13 16/30/13
f 2/1/1 10/8/1 9/36/1
f 21/37/13 17/31/14 18/38/13
f 15/18/5 22/39/15 11/24/8
f 28/40/16 18/21/17 13/41/16
f 4/42/18 29/43/18 30/44/18
f 4/42/19 28/40/20 13/41/21
f 32/45/22 34/46/23 31/47/23
f 35/48/24 33/49/24 32/45/24
f 35/48/25 38/50/25 36/51/25
f 31/47/26 40/52/26 39/53/26
f 42/54/27 44/55/27 41/56/28
f 45/57/29 43/58/27 42/54/27
f 47/59/30 49/60/30 50/61/31
f 50/61/32 51/62/32 52/63/32
f 51/62/33 54/64/33 52/63/33
f 55/65/34 48/66/34 47/59/34
f 58/67/35 60/68/35 57/69/35
f 61/70/36 59/71/37 58/67/37
f 61/70/38 64/72/38 62/73/38
f 57/69/39 66/74/39 65/75/39
f 68/76/40 70/77/40 67/78/40
f 71/79/41 69/80/41 68/76/41
f 71/79/42 74/81/42 72/82/42
f 67/78/43 76/83/43 75/84/43
f 78/85/44 80/86/44 77/87/44
f 81/88/45 79/89/45 78/85/45
f 81/88/46 84/90/46 82/91/46
f 77/87/47 86/92/47 85/93/47
f 88/94/48 41/95/48 87/96/48
f 89/97/49 42/98/49 88/94/49
f 89/97/50 46/99/50 45/100/50
f 87/96/51 44/101/51 91/102/51
f 92/103/52 91/104/53 93/105/53
f 94/106/1 88/107/54 95/108/54
f 88/107/54 92/103/52 95/108/54
f 90/109/55 94/106/1 96/110/56
f 97/111/57 20/112/58 19/113/57
f 99/114/29 28/115/29 30/116/29
f 97/111/57 28/115/29 100/117/29
f 99/114/29 29/118/59 101/119/60
f 102/120/61 97/121/61 103/122/61
f 104/123/62 92/124/63 105/125/64
f 106/126/65 99/127/66 107/128/67
f 96/129/68 109/130/68 108/131/69
f 105/132/70 86/133/71 80/134/72
f 109/135/73 79/136/74 82/137/75
f 105/132/70 79/136/74 104/138/76
f 109/135/73 84/139/77 108/140/77
f 103/141/52 39/142/78 102/143/78
f 107/144/1 32/145/54 106/146/54
f 103/141/52 32/145/54 31/147/52
f 107/144/1 37/148/1 35/149/1
f 112/150/79 40/151/58 34/152/79
f 114/153/80 33/154/27 36/155/57
f 112/150/79 33/154/27 115/156/27
f 114/153/80 38/157/60 116/158/60
f 117/159/81 55/160/82 47/161/83
f 119/162/29 50/163/29 52/164/27
f 117/159/81 50/163/29 120/165/84
f 119/162/29 54/166/59 121/167/59
f 123/168/85 65/169/78 122/170/86
f 125/171/87 58/172/1 124/173/1
f 123/168/85 58/172/1 57/174/53
f 125/171/87 63/175/1 61/176/85
f 127/177/88 66/178/89 60/179/90
f 129/180/91 59/181/92 62/182/91
f 127/177/88 59/181/92 130/183/93
f 129/180/91 64/184/94 131/185/94
f 133/186/95 75/187/96 132/188/96
f 135/189/97 68/190/98 134/191/99
f 133/186/95 68/190/98 67/192/100
f 135/189/97 73/193/101 71/194/102
f 137/195/103 76/196/104 70/197/103
f 139/198/105 69/199/106 72/200/105
f 140/201/107 70/197/103 69/199/106
f 139/198/105 74/202/108 141/203/108
f 143/204/85 85/205/109 142/206/109
f 145/207/56 78/208/110 144/209/110
f 143/204/85 78/208/110 77/210/85
f 145/207/56 83/211/55 81/212/56
f 148/213/85 56/214/111 147/215/111
f 150/216/1 49/217/1 149/218/1
f 148/213/85 49/217/1 48/219/85
f 150/216/1 53/220/1 51/221/1
f 111/222/112 99/127/112 101/223/112
f 151/224/113 114/225/113 116/226/114
f 126/227/42 119/228/42 121/229/42
f 136/230/115 129/231/115 131/232/115
f 146/233/116 139/234/116 141/235/116
f 95/236/117 109/130/118 94/237/118
f 144/238/119 139/234/119 145/239/119
f 134/240/120 129/231/120 135/241/120
f 124/242/121 119/228/121 125/243/121
f 149/244/122 114/225/123 150/245/122
f 100/246/124 103/122/125 97/121/126
f 115/247/127 148/248/128 112/249/129
f 120/250/130 123/251/131 117/252/132
f 130/253/133 133/254/134 127/255/135
f 140/256/136 143/257/137 137/258/138
f 93/259/34 105/125/34 92/124/34
f 142/260/139 137/258/139 143/257/139
f 132/261/140 127/255/140 133/254/140
f 122/262/43 117/252/43 123/251/43
f 147/263/7 112/249/7 148/248/7
f 30/44/141 28/40/20 4/42/19
f 23/264/142 152/265/142 153/266/142
f 23/264/143 154/267/143 12/268/143
f 5/269/144 156/270/144 6/271/144
f 5/269/145 12/268/146 154/267/147
f 158/272/148 160/273/148 157/274/148
f 159/275/149 162/276/150 160/273/149
f 162/276/151 163/277/151 164/278/151
f 166/279/152 157/274/152 165/280/152
f 168/281/79 170/282/27 167/283/153
f 171/284/29 169/285/27 172/286/29
f 173/287/154 175/288/154 176/289/154
f 174/290/155 178/291/155 175/288/155
f 179/292/156 178/291/156 177/293/156
f 181/294/157 176/289/157 182/295/157
f 184/296/158 186/297/158 183/298/158
f 185/299/159 188/300/159 186/297/159
f 188/300/160 189/301/160 190/302/160
f 192/303/161 183/298/161 191/304/161
f 194/305/162 196/306/162 193/307/163
f 195/308/164 198/309/164 196/306/164
f 198/309/165 199/310/165 200/311/165
f 202/312/157 193/307/157 201/313/157
f 204/314/166 206/315/166 203/316/166
f 205/317/167 208/318/167 206/315/167
f 208/318/168 209/319/168 210/320/168
f 212/321/169 203/316/169 211/322/169
f 167/323/170 214/324/170 213/325/170
f 170/326/171 215/327/171 214/324/171
f 215/327/172 172/328/172 216/329/172
f 168/330/173 213/325/173 217/331/173
f 218/332/52 217/333/174 213/334/52
f 220/335/55 214/336/54 215/337/55
f 218/332/52 214/336/54 221/338/54
f 220/335/55 216/339/1 222/340/110
f 223/341/79 152/342/28 224/343/28
f 225/344/84 154/345/27 226/346/27
f 154/345/27 223/341/79 226/346/27
f 156/347/29 225/344/84 227/348/175
f 228/349/176 223/350/176 224/351/177
f 230/352/178 218/353/179 221/354/180
f 232/355/181 225/356/182 226/357/183
f 235/358/184 222/359/184 234/360/184
f 231/361/185 212/362/186 236/363/187
f 235/364/188 205/365/189 230/366/190
f 205/365/189 231/361/185 230/366/190
f 209/367/191 235/364/188 234/368/191
f 165/369/174 229/370/52 228/371/174
f 160/372/54 233/373/1 232/374/54
f 229/370/52 160/372/54 232/374/54
f 233/373/1 164/375/1 237/376/1
f 238/377/84 166/378/28 239/379/28
f 240/380/84 159/381/79 241/382/79
f 159/381/79 238/377/84 241/382/79
f 163/383/29 240/380/84 242/384/175
f 243/385/192 181/386/193 244/387/193
f 245/388/59 174/389/29 246/390/57
f 174/389/29 243/385/192 246/390/57
f 179/391/29 245/388/59 247/392/175
f 191/393/174 249/394/52 248/395/194
f 186/396/54 251/397/55 250/398/54
f 249/394/52 186/396/54 250/398/54
f 251/397/55 190/399/195 252/400/195
f 253/401/196 192/402/104 254/403/104
f 255/404/197 185/405/198 256/406/199
f 185/405/198 253/401/196 256/406/199
f 189/407/108 255/404/197 257/408/108
f 201/409/200 259/410/201 258/411/200
f 196/412/202 261/413/203 260/414/204
f 259/410/201 196/412/202 260/414/204
f 261/413/203 200/415/205 262/416/205
f 263/417/206 202/418/207 264/419/207
f 265/420/208 195/421/209 266/422/209
f 266/422/209 194/423/210 263/417/206
f 199/424/211 265/420/208 267/425/211
f 211/426/212 269/427/213 268/428/212
f 206/429/1 271/430/195 270/431/1
f 269/427/213 206/429/1 270/431/1
f 271/430/195 210/432/214 272/433/215
f 182/434/216 274/435/194 273/436/216
f 175/437/54 276/438/1 275/439/54
f 274/435/194 175/437/54 275/439/54
f 276/438/1 180/440/87 277/441/195
f 225/356/217 237/442/217 227/443/217
f 240/444/218 277/445/218 242/446/218
f 245/447/165 252/448/165 247/449/165
f 255/450/219 262/451/219 257/452/220
f 265/453/221 272/454/221 267/455/221
f 221/354/222 235/358/223 230/352/222
f 270/456/224 265/453/224 266/457/224
f 260/458/225 255/450/225 256/459/225
f 250/460/226 245/447/226 246/461/226
f 275/462/227 240/444/228 241/463/227
f 226/357/229 229/464/230 232/355/229
f 241/463/231 274/465/232 275/462/233
f 246/461/234 249/466/235 250/460/236
f 256/459/237 259/467/238 260/458/239
f 266/457/240 269/468/241 270/456/242
f 219/469/157 231/470/157 236/471/157
f 268/472/243 263/473/243 264/474/243
f 258/475/244 253/476/244 254/477/244
f 248/478/245 243/479/245 244/480/245
f 273/481/246 238/482/246 239/483/246
f 155/484/247 5/269/145 154/267/147
f 279/485/29 281/486/29 278/487/29
f 283/488/29 285/489/29 282/490/29
f 286/491/29 284/492/29 283/488/29
f 283/493/248 288/494/248 289/495/248
f 278/496/248 291/497/248 279/498/248
f 289/499/249 286/500/249 283/501/250
f 294/502/251 292/503/252 293/504/252
f 295/505/253 297/506/253 298/507/253
f 289/495/254 299/508/255 300/509/256
f 286/500/257 290/510/257 278/511/257
f 295/512/255 290/513/258 294/502/251
f 294/514/259 301/515/259 302/516/259
f 300/517/259 303/518/259 304/519/259
f 300/517/259 301/515/259 293/520/259
f 286/491/29 281/486/29 287/521/29
f 294/514/259 296/522/259 295/523/259
f 292/503/252 300/509/256 293/504/252
f 295/505/260 305/524/261 291/525/260
f 279/526/262 307/527/262 280/528/262
f 279/526/263 291/525/264 305/524/265
f 309/529/266 311/530/267 308/531/266
f 310/532/268 313/533/268 311/530/268
f 313/533/269 314/534/269 315/535/269
f 317/536/270 308/531/270 316/537/270
f 319/538/54 321/539/54 318/540/215
f 322/541/1 320/542/54 323/543/1
f 324/544/271 326/545/271 327/546/271
f 325/547/272 329/548/272 326/545/272
f 330/549/273 329/548/273 328/550/273
f 332/551/274 327/546/274 333/552/274
f 335/553/275 337/554/275 334/555/275
f 336/556/276 339/557/276 337/554/276
f 339/557/277 340/558/277 341/559/277
f 343/560/278 334/555/278 342/561/278
f 345/562/279 347/563/280 344/564/279
f 346/565/281 349/566/281 347/563/281
f 349/566/282 350/567/282 351/568/282
f 353/569/283 344/564/283 352/570/283
f 355/571/284 357/572/284 354/573/285
f 356/574/286 359/575/286 357/572/286
f 359/575/287 360/576/287 361/577/287
f 363/578/288 354/573/288 362/579/288
f 318/580/289 365/581/289 364/582/289
f 321/583/290 366/584/290 365/581/290
f 366/584/291 323/585/291 367/586/291
f 319/587/292 364/582/292 368/588/292
f 369/589/79 368/590/58 364/591/79
f 371/592/29 365/593/27 366/594/29
f 369/589/79 365/593/27 372/595/27
f 371/592/29 367/596/59 373/597/60
f 374/598/85 297/599/53 375/600/53
f 376/601/1 305/602/1 377/603/259
f 305/602/1 374/598/85 377/603/259
f 307/604/55 376/601/1 378/605/56
f 379/606/293 374/607/293 375/608/293
f 381/609/294 369/610/295 372/611/296
f 383/612/297 376/613/297 377/614/297
f 386/615/298 373/616/298 385/617/299
f 382/618/300 363/619/301 387/620/302
f 386/621/303 356/622/304 381/623/305
f 356/622/304 382/618/300 381/623/305
f 360/624/306 386/621/303 385/625/306
f 316/626/153 380/627/79 379/628/153
f 311/629/27 384/630/29 383/631/27
f 380/627/79 311/629/27 383/631/27
f 384/630/29 315/632/29 388/633/29
f 389/634/52 317/635/53 390/636/53
f 391/637/87 310/638/54 392/639/54
f 310/638/54 389/634/52 392/639/54
f 314/640/56 391/637/87 393/641/56
f 394/642/307 332/643/109 395/644/109
f 396/645/1 325/646/1 397/647/194
f 325/646/1 394/642/307 397/647/194
f 330/648/55 396/645/1 398/649/55
f 342/650/153 400/651/57 399/652/308
f 337/653/29 402/654/80 401/655/29
f 400/651/57 337/653/29 401/655/29
f 402/654/80 341/656/29 403/657/175
f 404/658/309 343/659/310 405/660/310
f 406/661/311 336/662/312 407/663/313
f 336/662/312 404/658/309 407/663/313
f 340/664/314 406/661/311 408/665/314
f 352/666/315 410/667/316 409/668/315
f 347/669/317 412/670/318 411/671/319
f 410/667/316 347/669/317 411/671/319
f 412/670/318 351/672/320 413/673/320
f 414/674/321 353/675/322 415/676/323
f 416/677/324 346/678/325 417/679/326
f 417/679/326 345/680/321 414/674/321
f 350/681/327 416/677/324 418/682/327
f 362/683/82 420/684/57 419/685/82
f 357/686/175 422/687/60 421/688/106
f 420/684/57 357/686/175 421/688/106
f 422/687/60 361/689/59 423/690/59
f 333/691/14 425/692/57 424/693/14
f 326/694/29 427/695/29 426/696/29
f 425/692/57 326/694/29 426/696/29
f 427/695/29 331/697/29 428/698/29
f 376/613/328 388/699/328 378/700/328
f 391/701/329 428/702/329 393/703/330
f 396/704/282 403/705/282 398/706/282
f 406/707/331 413/708/331 408/709/331
f 416/710/332 423/711/332 418/712/332
f 372/611/333 386/615/333 381/609/333
f 421/713/334 416/710/335 417/714/334
f 411/715/336 406/707/336 407/716/336
f 401/717/337 396/704/338 397/718/337
f 426/719/339 391/701/339 392/720/339
f 377/614/340 380/721/341 383/612/340
f 392/720/342 425/722/343 426/719/344
f 397/718/345 400/723/346 401/717/346
f 407/716/347 410/724/348 411/715/349
f 417/714/350 420/725/351 421/713/352
f 370/726/274 382/727/274 387/728/274
f 419/729/353 414/730/353 415/731/353
f 409/732/354 404/733/354 405/734/354
f 399/735/283 394/736/283 395/737/283
f 424/738/253 389/739/253 390/740/253
f 306/741/355 279/526/263 305/524/265
f 299/742/356 430/743/356 303/744/356
f 431/745/357 299/742/357 288/746/357
f 282/747/358 432/748/358 433/749/358
f 282/747/359 431/745/360 288/746/361
f 435/750/362 437/751/362 434/752/362
f 438/753/363 436/754/363 435/750/363
f 438/753/364 441/755/364 439/756/364
f 434/752/365 443/757/365 442/758/365
f 445/759/54 447/760/52 444/761/78
f 448/762/1 446/763/54 445/759/54
f 450/764/366 452/765/366 453/766/366
f 453/766/367 454/767/368 455/768/367
f 454/767/369 457/769/369 455/768/369
f 458/770/370 451/771/370 450/764/370
f 461/772/371 463/773/371 460/774/371
f 464/775/372 462/776/373 461/772/372
f 464/775/374 467/777/374 465/778/374
f 460/774/375 469/779/375 468/780/375
f 471/781/376 473/782/376 470/783/376
f 474/784/377 472/785/378 471/781/377
f 474/784/379 477/786/379 475/787/379
f 470/783/370 479/788/370 478/789/370
f 481/790/380 483/791/380 480/792/380
f 484/793/381 482/794/382 481/790/381
f 484/793/383 487/795/383 485/796/383
f 480/792/384 489/797/384 488/798/384
f 491/799/385 444/800/385 490/801/385
f 492/802/386 445/803/387 491/799/386
f 492/802/388 449/804/388 448/805/388
f 490/801/389 447/806/389 494/807/389
f 495/808/79 494/809/28 496/810/28
f 497/811/59 491/812/27 498/813/27
f 491/812/27 495/808/79 498/813/27
f 493/814/29 497/811/59 499/815/175
f 500/816/52 430/817/174 429/818/52
f 502/819/194 431/820/54 433/821/194
f 500/816/52 431/820/54 503/822/54
f 502/819/194 432/823/1 504/824/110
f 505/825/390 500/826/390 506/827/390
f 507/828/391 495/829/392 508/830/393
f 509/831/394 502/832/394 510/833/394
f 499/834/395 512/835/395 511/836/395
f 508/837/396 489/838/397 483/839/398
f 512/840/399 482/841/400 485/842/401
f 508/837/396 482/841/400 507/843/402
f 512/840/399 487/844/403 511/845/403
f 506/846/79 442/847/28 505/848/28
f 510/849/29 435/850/27 509/851/27
f 506/846/79 435/850/27 434/852/79
f 510/849/29 440/853/29 438/854/29
f 515/855/194 443/856/174 437/857/194
f 517/858/194 436/859/52 439/860/194
f 515/855/194 436/859/52 518/861/52
f 517/858/194 441/862/1 519/863/110
f 520/864/213 458/865/212 450/866/404
f 522/867/55 453/868/1 455/869/194
f 520/864/213 453/868/1 523/870/85
f 522/867/55 457/871/1 524/872/110
f 526/873/79 468/874/28 525/875/84
f 528/876/59 461/877/27 527/878/27
f 526/873/79 461/877/27 460/879/79
f 528/876/59 466/880/405 464/881/84
f 530/882/406 469/883/322 463/884/406
f 532/885/407 462/886/408 465/887/407
f 530/882/406 462/886/408 533/888/409
f 532/885/407 467/889/327 534/890/327
f 536/891/410 478/892/411 535/893/411
f 538/894/412 471/895/413 537/896/414
f 536/891/410 471/895/413 470/897/415
f 538/894/412 476/898/416 474/899/417
f 540/900/418 479/901/419 473/902/420
f 542/903/421 472/904/422 475/905/421
f 543/906/422 473/902/420 472/904/422
f 542/903/421 477/907/423 544/908/423
f 546/909/192 488/910/193 545/911/193
f 548/912/405 481/913/29 547/914/29
f 546/909/192 481/913/29 480/915/192
f 548/912/405 486/916/83 484/917/405
f 551/918/84 459/919/424 550/920/424
f 553/921/29 452/922/27 552/923/27
f 551/918/84 452/922/27 451/924/84
f 553/921/29 456/925/80 454/926/29
f 514/927/425 502/832/425 504/928/425
f 554/929/426 517/930/426 519/931/426
f 529/932/379 522/933/379 524/934/379
f 539/935/427 532/936/427 534/937/427
f 549/938/428 542/939/428 544/940/428
f 498/941/429 512/835/429 497/942/429
f 547/943/430 542/939/430 548/944/431
f 537/945/432 532/936/432 538/946/432
f 527/947/433 522/933/434 528/948/434
f 552/949/435 517/930/435 553/950/435
f 503/951/436 506/827/437 500/826/438
f 518/952/439 551/953/440 515/954/441
f 523/955/442 526/956/443 520/957/443
f 533/958/444 536/959/445 530/960/446
f 543/961/447 546/962/448 540/963/449
f 496/964/370 508/830/370 495/829/370
f 545/965/450 540/963/450 546/962/450
f 535/966/451 530/960/451 536/959/451
f 525/967/452 520/957/452 526/956/452
f 550/968/453 515/954/453 551/953/453
f 433/749/454 431/745/360 282/747/359
f 2/1/1 3/969/1 4/2/1
f 6/4/1 7/7/1 8/5/1
f 7/7/1 9/36/1 10/8/1
f 8/9/2 11/24/2 12/10/2
f 13/12/2 14/27/2 1/13/2
f 11/15/3 8/970/4 10/16/4
f 15/18/5 14/27/12 17/19/6
f 18/21/7 19/971/7 20/22/7
f 11/24/8 22/39/15 23/25/9
f 10/16/10 1/972/10 14/26/11
f 14/27/12 13/12/9 18/28/9
f 24/29/13 25/35/13 16/30/13
f 22/32/13 26/973/13 27/33/13
f 25/35/13 26/973/13 22/32/13
f 2/1/1 1/3/1 10/8/1
f 21/37/13 24/29/13 17/31/14
f 15/18/5 16/20/5 22/39/15
f 28/40/16 19/971/455 18/21/17
f 4/42/18 3/974/18 29/43/18
f 32/45/22 33/49/456 34/46/23
f 35/48/24 36/51/24 33/49/24
f 35/48/25 37/975/25 38/50/25
f 31/47/26 34/46/26 40/52/26
f 42/54/27 43/58/27 44/55/27
f 45/57/29 46/976/29 43/58/27
f 47/59/30 48/66/30 49/60/30
f 50/61/32 49/60/32 51/62/32
f 51/62/33 53/977/33 54/64/33
f 55/65/34 56/978/34 48/66/34
f 58/67/35 59/71/457 60/68/35
f 61/70/36 62/73/36 59/71/37
f 61/70/38 63/979/38 64/72/38
f 57/69/39 60/68/39 66/74/39
f 68/76/40 69/80/40 70/77/40
f 71/79/41 72/82/41 69/80/41
f 71/79/42 73/980/42 74/81/42
f 67/78/43 70/77/43 76/83/43
f 78/85/44 79/89/44 80/86/44
f 81/88/45 82/91/45 79/89/45
f 81/88/46 83/981/46 84/90/46
f 77/87/47 80/86/47 86/92/47
f 88/94/48 42/98/48 41/95/48
f 89/97/49 45/100/49 42/98/49
f 89/97/50 90/982/50 46/99/50
f 87/96/51 41/95/51 44/101/51
f 92/103/52 87/983/52 91/104/53
f 94/106/1 89/984/1 88/107/54
f 88/107/54 87/983/52 92/103/52
f 90/109/55 89/984/1 94/106/1
f 97/111/57 98/985/58 20/112/58
f 99/114/29 100/117/29 28/115/29
f 97/111/57 19/113/57 28/115/29
f 99/114/29 30/116/29 29/118/59
f 102/120/61 98/986/61 97/121/61
f 104/123/62 95/236/64 92/124/63
f 106/126/65 100/246/65 99/127/66
f 96/129/68 94/237/458 109/130/68
f 105/132/70 110/987/459 86/133/71
f 109/135/73 104/138/76 79/136/74
f 105/132/70 80/134/72 79/136/74
f 109/135/73 82/137/75 84/139/77
f 103/141/52 31/147/52 39/142/78
f 107/144/1 35/149/1 32/145/54
f 103/141/52 106/146/54 32/145/54
f 107/144/1 111/988/1 37/148/1
f 112/150/79 113/989/58 40/151/58
f 114/153/80 115/156/27 33/154/27
f 112/150/79 34/152/79 33/154/27
f 114/153/80 36/155/57 38/157/60
f 117/159/81 118/990/82 55/160/82
f 119/162/29 120/165/84 50/163/29
f 117/159/81 47/161/83 50/163/29
f 119/162/29 52/164/27 54/166/59
f 123/168/85 57/174/53 65/169/78
f 125/171/87 61/176/85 58/172/1
f 123/168/85 124/173/1 58/172/1
f 125/171/87 126/991/110 63/175/1
f 127/177/88 128/992/89 66/178/89
f 129/180/91 130/183/93 59/181/92
f 127/177/88 60/179/90 59/181/92
f 129/180/91 62/182/91 64/184/94
f 133/186/95 67/192/100 75/187/96
f 135/189/97 71/194/102 68/190/98
f 133/186/95 134/191/99 68/190/98
f 135/189/97 136/993/101 73/193/101
f 137/195/103 138/994/460 76/196/104
f 139/198/105 140/201/107 69/199/106
f 140/201/107 137/195/103 70/197/103
f 139/198/105 72/200/105 74/202/108
f 143/204/85 77/210/85 85/205/109
f 145/207/56 81/212/56 78/208/110
f 143/204/85 144/209/110 78/208/110
f 145/207/56 146/995/55 83/211/55
f 148/213/85 48/219/85 56/214/111
f 150/216/1 51/221/1 49/217/1
f 148/213/85 149/218/1 49/217/1
f 150/216/1 151/996/1 53/220/1
f 111/222/112 107/128/112 99/127/112
f 151/224/113 150/245/113 114/225/113
f 126/227/42 125/243/42 119/228/42
f 136/230/115 135/241/115 129/231/115
f 146/233/116 145/239/116 139/234/116
f 95/236/117 104/123/117 109/130/118
f 144/238/119 140/256/119 139/234/119
f 134/240/120 130/253/120 129/231/120
f 124/242/121 120/250/121 119/228/121
f 149/244/122 115/247/123 114/225/123
f 100/246/124 106/126/125 103/122/125
f 115/247/127 149/244/461 148/248/128
f 120/250/130 124/242/132 123/251/131
f 130/253/133 134/240/134 133/254/134
f 140/256/136 144/238/462 143/257/137
f 93/259/34 110/997/34 105/125/34
f 142/260/139 138/998/139 137/258/139
f 132/261/140 128/999/140 127/255/140
f 122/262/43 118/1000/43 117/252/43
f 147/263/7 113/1001/7 112/249/7
f 23/264/142 27/1002/142 152/265/142
f 23/264/143 153/266/143 154/267/143
f 5/269/144 155/484/144 156/270/144
f 158/272/148 159/275/148 160/273/148
f 159/275/149 161/1003/150 162/276/150
f 162/276/151 161/1003/151 163/277/151
f 166/279/152 158/272/152 157/274/152
f 168/281/79 169/285/27 170/282/27
f 171/284/29 170/282/27 169/285/27
f 173/287/154 174/290/463 175/288/154
f 174/290/155 177/293/155 178/291/155
f 179/292/156 180/1004/156 178/291/156
f 181/294/157 173/287/157 176/289/157
f 184/296/158 185/299/158 186/297/158
f 185/299/159 187/1005/159 188/300/159
f 188/300/160 187/1005/160 189/301/160
f 192/303/161 184/296/161 183/298/161
f 194/305/162 195/308/162 196/306/162
f 195/308/164 197/1006/164 198/309/164
f 198/309/165 197/1006/165 199/310/165
f 202/312/157 194/305/157 193/307/157
f 204/314/166 205/317/166 206/315/166
f 205/317/167 207/1007/167 208/318/167
f 208/318/168 207/1007/168 209/319/168
f 212/321/169 204/314/169 203/316/169
f 167/323/170 170/326/170 214/324/170
f 170/326/171 171/1008/171 215/327/171
f 215/327/172 171/1008/172 172/328/172
f 168/330/173 167/323/173 213/325/173
f 218/332/52 219/1009/174 217/333/174
f 220/335/55 221/338/54 214/336/54
f 218/332/52 213/334/52 214/336/54
f 220/335/55 215/337/55 216/339/1
f 223/341/79 153/1010/79 152/342/28
f 225/344/84 155/1011/84 154/345/27
f 154/345/27 153/1010/79 223/341/79
f 156/347/29 155/1011/84 225/344/84
f 228/349/176 229/464/176 223/350/176
f 230/352/178 231/470/180 218/353/179
f 232/355/181 233/1012/183 225/356/182
f 235/358/184 220/1013/184 222/359/184
f 231/361/185 204/1014/464 212/362/186
f 235/364/188 207/1015/465 205/365/189
f 205/365/189 204/1014/464 231/361/185
f 209/367/191 207/1015/465 235/364/188
f 165/369/174 157/1016/52 229/370/52
f 160/372/54 162/1017/1 233/373/1
f 229/370/52 157/1016/52 160/372/54
f 233/373/1 162/1017/1 164/375/1
f 238/377/84 158/1018/84 166/378/28
f 240/380/84 161/1019/84 159/381/79
f 159/381/79 158/1018/84 238/377/84
f 163/383/29 161/1019/84 240/380/84
f 243/385/192 173/1020/466 181/386/193
f 245/388/59 177/1021/84 174/389/29
f 174/389/29 173/1020/466 243/385/192
f 179/391/29 177/1021/84 245/388/59
f 191/393/174 183/1022/52 249/394/52
f 186/396/54 188/1023/194 251/397/55
f 249/394/52 183/1022/52 186/396/54
f 251/397/55 188/1023/194 190/399/195
f 253/401/196 184/1024/196 192/402/104
f 255/404/197 187/1025/197 185/405/198
f 185/405/198 184/1024/196 253/401/196
f 189/407/108 187/1025/197 255/404/197
f 201/409/200 193/1026/467 259/410/201
f 196/412/202 198/1027/468 261/413/203
f 259/410/201 193/1026/467 196/412/202
f 261/413/203 198/1027/468 200/415/205
f 263/417/206 194/423/210 202/418/207
f 265/420/208 197/1028/208 195/421/209
f 266/422/209 195/421/209 194/423/210
f 199/424/211 197/1028/208 265/420/208
f 211/426/212 203/1029/213 269/427/213
f 206/429/1 208/1030/195 271/430/195
f 269/427/213 203/1029/213 206/429/1
f 271/430/195 208/1030/195 210/432/214
f 182/434/216 176/1031/194 274/435/194
f 175/437/54 178/1032/1 276/438/1
f 274/435/194 176/1031/194 175/437/54
f 276/438/1 178/1032/1 180/440/87
f 225/356/217 233/1012/217 237/442/217
f 240/444/218 276/1033/218 277/445/218
f 245/447/165 251/1034/469 252/448/165
f 255/450/219 261/1035/219 262/451/219
f 265/453/221 271/1036/221 272/454/221
f 221/354/222 220/1013/223 235/358/223
f 270/456/224 271/1036/224 265/453/224
f 260/458/225 261/1035/225 255/450/225
f 250/460/226 251/1034/226 245/447/226
f 275/462/227 276/1033/228 240/444/228
f 226/357/229 223/350/230 229/464/230
f 241/463/231 238/482/233 274/465/232
f 246/461/234 243/479/470 249/466/235
f 256/459/237 253/476/471 259/467/238
f 266/457/240 263/473/472 269/468/241
f 219/469/157 218/353/157 231/470/157
f 268/472/243 269/468/243 263/473/243
f 258/475/244 259/467/244 253/476/244
f 248/478/245 249/466/245 243/479/245
f 273/481/246 274/465/246 238/482/246
f 279/485/29 280/1037/29 281/486/29
f 283/488/29 284/492/29 285/489/29
f 286/491/29 287/521/29 284/492/29
f 283/493/248 282/1038/248 288/494/248
f 278/496/248 290/513/248 291/497/248
f 289/499/249 292/1039/473 286/500/249
f 294/502/251 290/513/258 292/503/252
f 295/505/253 296/1040/253 297/506/253
f 289/495/254 288/494/255 299/508/255
f 286/500/257 292/1039/257 290/510/257
f 295/512/255 291/497/255 290/513/258
f 294/514/259 293/520/259 301/515/259
f 300/517/259 299/1041/259 303/518/259
f 300/517/259 304/519/259 301/515/259
f 286/491/29 278/487/29 281/486/29
f 294/514/259 302/516/259 296/522/259
f 292/503/252 289/495/254 300/509/256
f 295/505/260 298/507/261 305/524/261
f 279/526/262 306/741/262 307/527/262
f 309/529/266 310/532/267 311/530/267
f 310/532/268 312/1042/268 313/533/268
f 313/533/269 312/1042/269 314/534/269
f 317/536/270 309/529/270 308/531/270
f 319/538/54 320/542/54 321/539/54
f 322/541/1 321/539/54 320/542/54
f 324/544/271 325/547/474 326/545/271
f 325/547/272 328/550/272 329/548/272
f 330/549/273 331/1043/273 329/548/273
f 332/551/274 324/544/274 327/546/274
f 335/553/275 336/556/275 337/554/275
f 336/556/276 338/1044/276 339/557/276
f 339/557/277 338/1044/277 340/558/277
f 343/560/278 335/553/278 334/555/278
f 345/562/279 346/565/280 347/563/280
f 346/565/281 348/1045/475 349/566/281
f 349/566/282 348/1045/282 350/567/282
f 353/569/283 345/562/283 344/564/283
f 355/571/284 356/574/476 357/572/284
f 356/574/286 358/1046/286 359/575/286
f 359/575/287 358/1046/287 360/576/287
f 363/578/288 355/571/288 354/573/288
f 318/580/289 321/583/289 365/581/289
f 321/583/290 322/1047/290 366/584/290
f 366/584/291 322/1047/291 323/585/291
f 319/587/292 318/580/292 364/582/292
f 369/589/79 370/1048/58 368/590/58
f 371/592/29 372/595/27 365/593/27
f 369/589/79 364/591/79 365/593/27
f 371/592/29 366/594/29 367/596/59
f 374/598/85 298/1049/85 297/599/53
f 376/601/1 306/1050/1 305/602/1
f 305/602/1 298/1049/85 374/598/85
f 307/604/55 306/1050/1 376/601/1
f 379/606/293 380/721/293 374/607/293
f 381/609/294 382/727/296 369/610/295
f 383/612/297 384/1051/297 376/613/297
f 386/615/298 371/1052/477 373/616/298
f 382/618/300 355/1053/478 363/619/301
f 386/621/303 358/1054/479 356/622/304
f 356/622/304 355/1053/478 382/618/300
f 360/624/306 358/1054/479 386/621/303
f 316/626/153 308/1055/79 380/627/79
f 311/629/27 313/1056/29 384/630/29
f 380/627/79 308/1055/79 311/629/27
f 384/630/29 313/1056/29 315/632/29
f 389/634/52 309/1057/52 317/635/53
f 391/637/87 312/1058/85 310/638/54
f 310/638/54 309/1057/52 389/634/52
f 314/640/56 312/1058/85 391/637/87
f 394/642/307 324/1059/214 332/643/109
f 396/645/1 328/1060/54 325/646/1
f 325/646/1 324/1059/214 394/642/307
f 330/648/55 328/1060/54 396/645/1
f 342/650/153 334/1061/58 400/651/57
f 337/653/29 339/1062/57 402/654/80
f 400/651/57 334/1061/58 337/653/29
f 402/654/80 339/1062/57 341/656/29
f 404/658/309 335/1063/309 343/659/310
f 406/661/311 338/1064/311 336/662/312
f 336/662/312 335/1063/309 404/658/309
f 340/664/314 338/1064/311 406/661/311
f 352/666/315 344/1065/480 410/667/316
f 347/669/317 349/1066/481 412/670/318
f 410/667/316 344/1065/480 347/669/317
f 412/670/318 349/1066/481 351/672/320
f 414/674/321 345/680/321 353/675/322
f 416/677/324 348/1067/324 346/678/325
f 417/679/326 346/678/325 345/680/321
f 350/681/327 348/1067/324 416/677/324
f 362/683/82 354/1068/57 420/684/57
f 357/686/175 359/1069/60 422/687/60
f 420/684/57 354/1068/57 357/686/175
f 422/687/60 359/1069/60 361/689/59
f 333/691/14 327/1070/57 425/692/57
f 326/694/29 329/1071/29 427/695/29
f 425/692/57 327/1070/57 326/694/29
f 427/695/29 329/1071/29 331/697/29
f 376/613/328 384/1051/328 388/699/328
f 391/701/329 427/1072/329 428/702/329
f 396/704/282 402/1073/282 403/705/282
f 406/707/331 412/1074/331 413/708/331
f 416/710/332 422/1075/332 423/711/332
f 372/611/333 371/1052/333 386/615/333
f 421/713/334 422/1075/334 416/710/335
f 411/715/336 412/1074/336 406/707/336
f 401/717/337 402/1073/338 396/704/338
f 426/719/339 427/1072/339 391/701/339
f 377/614/340 374/607/482 380/721/341
f 392/720/342 389/739/344 425/722/343
f 397/718/345 394/736/483 400/723/346
f 407/716/347 404/733/348 410/724/348
f 417/714/350 414/730/351 420/725/351
f 370/726/274 369/610/274 382/727/274
f 419/729/353 420/725/353 414/730/353
f 409/732/354 410/724/354 404/733/354
f 399/735/283 400/723/283 394/736/283
f 424/738/253 425/722/253 389/739/253
f 299/742/356 429/1076/356 430/743/356
f 431/745/357 429/1076/484 299/742/357
f 282/747/358 285/1077/358 432/748/358
f 435/750/362 436/754/362 437/751/362
f 438/753/363 439/756/363 436/754/363
f 438/753/364 440/1078/364 441/755/364
f 434/752/365 437/751/365 443/757/365
f 445/759/54 446/763/54 447/760/52
f 448/762/1 449/1079/1 446/763/54
f 450/764/366 451/771/366 452/765/366
f 453/766/367 452/765/368 454/767/368
f 454/767/369 456/1080/369 457/769/369
f 458/770/370 459/1081/370 451/771/370
f 461/772/371 462/776/485 463/773/371
f 464/775/372 465/778/372 462/776/373
f 464/775/374 466/1082/374 467/777/374
f 460/774/375 463/773/375 469/779/375
f 471/781/376 472/785/376 473/782/376
f 474/784/377 475/787/377 472/785/378
f 474/784/379 476/1083/379 477/786/379
f 470/783/370 473/782/370 479/788/370
f 481/790/380 482/794/380 483/791/380
f 484/793/381 485/796/381 482/794/382
f 484/793/383 486/1084/383 487/795/383
f 480/792/384 483/791/384 489/797/384
f 491/799/385 445/803/385 444/800/385
f 492/802/386 448/805/387 445/803/387
f 492/802/388 493/1085/388 449/804/388
f 490/801/389 444/800/389 447/806/389
f 495/808/79 490/1086/79 494/809/28
f 497/811/59 492/1087/59 491/812/27
f 491/812/27 490/1086/79 495/808/79
f 493/814/29 492/1087/59 497/811/59
f 500/816/52 501/1088/174 430/817/174
f 502/819/194 503/822/54 431/820/54
f 500/816/52 429/818/52 431/820/54
f 502/819/194 433/821/194 432/823/1
f 505/825/390 501/1089/486 500/826/390
f 507/828/391 498/941/391 495/829/392
f 509/831/394 503/951/487 502/832/394
f 499/834/395 497/942/395 512/835/395
f 508/837/396 513/1090/488 489/838/397
f 512/840/399 507/843/402 482/841/400
f 508/837/396 483/839/398 482/841/400
f 512/840/399 485/842/401 487/844/403
f 506/846/79 434/852/79 442/847/28
f 510/849/29 438/854/29 435/850/27
f 506/846/79 509/851/27 435/850/27
f 510/849/29 514/1091/29 440/853/29
f 515/855/194 516/1092/174 443/856/174
f 517/858/194 518/861/52 436/859/52
f 515/855/194 437/857/194 436/859/52
f 517/858/194 439/860/194 441/862/1
f 520/864/213 521/1093/212 458/865/212
f 522/867/55 523/870/85 453/868/1
f 520/864/213 450/866/404 453/868/1
f 522/867/55 455/869/194 457/871/1
f 526/873/79 460/879/79 468/874/28
f 528/876/59 464/881/84 461/877/27
f 526/873/79 527/878/27 461/877/27
f 528/876/59 529/1094/405 466/880/405
f 530/882/406 531/1095/322 469/883/322
f 532/885/407 533/888/409 462/886/408
f 530/882/406 463/884/406 462/886/408
f 532/885/407 465/887/407 467/889/327
f 536/891/410 470/897/415 478/892/411
f 538/894/412 474/899/417 471/895/413
f 536/891/410 537/896/414 471/895/413
f 538/894/412 539/1096/416 476/898/416
f 540/900/418 541/1097/419 479/901/419
f 542/903/421 543/906/422 472/904/422
f 543/906/422 540/900/418 473/902/420
f 542/903/421 475/905/421 477/907/423
f 546/909/192 480/915/192 488/910/193
f 548/912/405 484/917/405 481/913/29
f 546/909/192 547/914/29 481/913/29
f 548/912/405 549/1098/489 486/916/83
f 551/918/84 451/924/84 459/919/424
f 553/921/29 454/926/29 452/922/27
f 551/918/84 552/923/27 452/922/27
f 553/921/29 554/1099/405 456/925/80
f 514/927/425 510/833/425 502/832/425
f 554/929/426 553/950/426 517/930/426
f 529/932/379 528/948/490 522/933/379
f 539/935/427 538/946/427 532/936/427
f 549/938/428 548/944/428 542/939/428
f 498/941/429 507/828/429 512/835/429
f 547/943/430 543/961/430 542/939/430
f 537/945/432 533/958/432 532/936/432
f 527/947/433 523/955/433 522/933/434
f 552/949/435 518/952/435 517/930/435
f 503/951/436 509/831/438 506/827/437
f 518/952/439 552/949/441 551/953/440
f 523/955/442 527/947/443 526/956/443
f 533/958/444 537/945/491 536/959/445
f 543/961/447 547/943/492 546/962/448
f 496/964/370 513/1100/370 508/830/370
f 545/965/450 541/1101/450 540/963/450
f 535/966/451 531/1102/451 530/960/451
f 525/967/452 521/1103/452 520/957/452
f 550/968/453 516/1104/453 515/954/453
