# Blender 5.2.0 LTS
# www.blender.org
mtllib stargate_movie_chevron_part1.mtl
o movie_chevron
v -0.096727 2.962894 0.217261
v 0.096904 2.962894 0.217261
v 0.127945 3.057190 0.158917
v 0.148702 3.054349 0.001387
v -0.127768 3.057190 0.158917
v -0.148525 3.054349 0.001387
v -0.116837 2.960048 0.216735
v -0.032928 2.725618 0.165825
v 0.117014 2.960048 0.216735
v 0.033105 2.725619 0.165825
v -0.148525 3.057221 0.160356
v 0.148702 3.057221 0.160356
v -0.127768 3.054787 0.001387
v 0.127945 3.054787 0.001387
v -0.025370 2.746008 0.177165
v 0.025547 2.746009 0.177165
v -0.017830 2.772038 0.163250
v 0.018026 2.772032 0.163250
v -0.108825 3.042311 0.001542
v 0.109002 3.042311 0.001542
v -0.080058 2.959863 0.197905
v 0.080215 2.959871 0.197904
v -0.107349 3.039448 0.147781
v 0.107544 3.039442 0.147781
v -0.017989 2.771265 0.168214
v -0.081474 2.960409 0.203167
v 0.081651 2.960410 0.203167
v 0.018166 2.771265 0.168214
v -0.108984 3.044218 0.150597
v 0.109161 3.044218 0.150597
v -0.108807 3.037125 0.001622
v 0.108988 3.037122 0.001622
v -0.032928 2.725743 0.115301
v 0.033105 2.725744 0.115301
v 0.116702 2.957065 0.001385
v 0.116361 2.957202 0.107209
v -0.116529 2.957065 0.001385
v -0.115932 2.957202 0.107209
v 0.029284 2.780260 0.170634
v -0.029847 2.780262 0.169895
v -0.040495 2.725599 0.173392
v 0.040672 2.725600 0.173392
v 0.040672 2.725763 0.107734
v -0.040495 2.725762 0.107734
v 0.000088 2.735848 0.140588
v 0.022570 2.739610 0.140869
v 0.000369 2.739667 0.118106
v -0.030651 2.735789 0.164108
v 0.030828 2.735790 0.164108
v -0.030651 2.735906 0.117068
v 0.030828 2.735907 0.117068
v -0.000579 2.780202 0.194075
v 0.000089 2.696509 0.140490
v -0.000651 2.780187 0.199830
v -0.000647 2.785194 0.199533
v -0.026934 2.780269 0.167054
v 0.026443 2.780268 0.167720
v -0.029690 2.785268 0.169755
v 0.029131 2.785267 0.170489
v 0.000088 2.785341 0.140711
v -0.000281 2.738348 0.170160
v 0.000458 2.738495 0.111029
v 0.014686 2.738384 0.155562
v -0.014879 2.738385 0.155192
v 0.023241 2.738437 0.134388
v 0.023078 2.738405 0.147377
v 0.019494 2.724019 0.140801
v -0.023064 2.738406 0.146801
v -0.022902 2.738438 0.133812
v -0.019317 2.724020 0.140316
v 0.155104 2.975861 0.061504
v 0.171565 3.051210 0.061504
v 0.362163 3.039228 0.045278
v 0.362163 3.039228 0.141731
v 0.556881 3.016604 0.045278
v 0.556881 3.016604 0.141731
v 0.769327 2.980212 0.045278
v 0.769327 2.980212 0.141731
v 0.350648 2.975503 0.141731
v 0.558565 2.975018 0.141731
v 0.765453 2.974492 0.045278
v 0.765453 2.974492 0.141731
v 0.184900 2.976772 0.141731
v 0.156392 2.976541 0.128046
v 0.172878 3.051263 0.128046
v 0.202353 3.049389 0.141731
v 0.358327 2.975814 0.045278
v 0.561890 2.975153 0.045278
v 0.199715 3.049412 0.045278
v 0.182237 2.975595 0.045278
v -0.182238 2.975595 0.045278
v -0.199716 3.049412 0.045278
v -0.561890 2.975153 0.045278
v -0.358327 2.975814 0.045278
v -0.202353 3.049389 0.141731
v -0.172879 3.051263 0.128046
v -0.156392 2.976541 0.128046
v -0.184900 2.976772 0.141731
v -0.765453 2.974492 0.141731
v -0.765453 2.974492 0.045278
v -0.558565 2.975018 0.141731
v -0.350649 2.975503 0.141731
v -0.769327 2.980212 0.141731
v -0.769327 2.980212 0.045278
v -0.556882 3.016604 0.141731
v -0.556882 3.016604 0.045278
v -0.362164 3.039228 0.141731
v -0.362164 3.039228 0.045278
v -0.171565 3.051210 0.061504
v -0.155104 2.975861 0.061504
v -0.020135 2.771269 -0.001336
v -0.108807 3.037125 0.001622
v 0.082622 2.958141 0.001336
v -0.082481 2.958128 0.001336
v -0.111034 3.048283 0.043596
v 0.111211 3.048283 0.043596
v -0.111034 3.048283 -0.043596
v 0.111211 3.048283 -0.043596
v -0.020215 2.768217 -0.043596
v 0.020247 2.768217 -0.043596
v -0.020215 2.768217 0.043596
v 0.020247 2.768217 0.043596
v -0.020129 2.771272 0.001336
v 0.020312 2.771269 0.001336
v 0.020306 2.771272 -0.001336
v 0.082658 2.958128 -0.001336
v -0.082445 2.958141 -0.001336
v 0.108984 3.037125 -0.001622
v -0.030651 2.735907 -0.117068
v 0.030828 2.735906 -0.117068
v -0.030651 2.735790 -0.164108
v 0.030828 2.735789 -0.164108
v 0.000089 2.735848 -0.140588
v 0.040672 2.725762 -0.107734
v -0.040495 2.725763 -0.107734
v -0.040495 2.725600 -0.173392
v 0.040672 2.725599 -0.173392
v 0.116109 2.957202 -0.107209
v 0.116706 2.957065 -0.001385
v -0.116184 2.957202 -0.107209
v -0.116525 2.957065 -0.001385
v -0.032928 2.725744 -0.115301
v 0.033105 2.725743 -0.115301
v -0.108811 3.037122 -0.001622
v 0.108984 3.037125 -0.001622
v -0.108984 3.044218 -0.150597
v 0.109161 3.044218 -0.150597
v -0.017989 2.771265 -0.168214
v -0.081474 2.960410 -0.203167
v 0.081651 2.960409 -0.203167
v 0.018167 2.771265 -0.168214
v -0.107367 3.039442 -0.147781
v 0.107526 3.039448 -0.147781
v -0.080038 2.959871 -0.197904
v 0.080235 2.959863 -0.197905
v -0.108825 3.042311 -0.001542
v 0.109002 3.042311 -0.001542
v -0.017849 2.772032 -0.163250
v 0.018007 2.772038 -0.163250
v -0.025370 2.746009 -0.177165
v 0.025547 2.746008 -0.177165
v -0.127768 3.054787 -0.001387
v 0.127945 3.054787 -0.001387
v -0.148525 3.057221 -0.160356
v 0.148702 3.057221 -0.160356
v -0.032928 2.725619 -0.165825
v -0.116837 2.960048 -0.216735
v 0.033105 2.725618 -0.165825
v 0.117014 2.960048 -0.216735
v 0.148702 3.054349 -0.001387
v 0.127945 3.057190 -0.158917
v -0.148525 3.054349 -0.001387
v -0.127768 3.057190 -0.158917
v -0.096727 2.962894 -0.217261
v 0.096904 2.962894 -0.217261
v 0.155104 2.975861 -0.061504
v 0.171565 3.051210 -0.061504
v 0.362163 3.039228 -0.045278
v 0.362163 3.039228 -0.141731
v 0.556881 3.016604 -0.045278
v 0.556881 3.016604 -0.141731
v 0.769327 2.980212 -0.045278
v 0.769327 2.980212 -0.141731
v 0.350648 2.975503 -0.141731
v 0.558565 2.975018 -0.141731
v 0.765453 2.974492 -0.045278
v 0.765453 2.974492 -0.141731
v 0.184900 2.976772 -0.141731
v 0.156392 2.976541 -0.128046
v 0.172878 3.051263 -0.128046
v 0.202353 3.049389 -0.141731
v 0.358327 2.975814 -0.045278
v 0.561890 2.975153 -0.045278
v 0.199715 3.049412 -0.045278
v 0.182237 2.975595 -0.045278
v -0.155104 2.975861 -0.061504
v -0.171565 3.051210 -0.061504
v -0.362164 3.039228 -0.045278
v -0.362164 3.039228 -0.141731
v -0.556882 3.016604 -0.045278
v -0.556882 3.016604 -0.141731
v -0.769327 2.980212 -0.045278
v -0.769327 2.980212 -0.141731
v -0.350649 2.975503 -0.141731
v -0.558565 2.975018 -0.141731
v -0.765453 2.974492 -0.045278
v -0.765453 2.974492 -0.141731
v -0.184900 2.976772 -0.141731
v -0.156392 2.976541 -0.128046
v -0.172879 3.051263 -0.128046
v -0.202353 3.049389 -0.141731
v -0.358327 2.975814 -0.045278
v -0.561890 2.975153 -0.045278
v -0.199716 3.049412 -0.045278
v -0.182238 2.975595 -0.045278
v -0.029284 2.780260 -0.170634
v 0.029847 2.780262 -0.169895
v 0.000579 2.780202 -0.194075
v -0.000089 2.696509 -0.140490
v 0.000650 2.780187 -0.199830
v 0.000647 2.785194 -0.199533
v 0.026933 2.780269 -0.167054
v -0.026443 2.780268 -0.167720
v 0.029690 2.785268 -0.169755
v -0.029131 2.785267 -0.170489
v -0.000088 2.785341 -0.140711
v 0.000281 2.738348 -0.170160
v -0.000458 2.738495 -0.111029
v -0.014687 2.738384 -0.155562
v 0.014879 2.738385 -0.155192
v -0.023241 2.738437 -0.134388
v -0.023079 2.738405 -0.147377
v -0.019495 2.724019 -0.140801
v 0.023064 2.738406 -0.146801
v 0.022901 2.738438 -0.133812
v 0.019317 2.724020 -0.140316
vn -0.9504 -0.3110 0.0025
vn -0.9508 -0.3099 -0.0008
vn -0.9508 -0.3098 -0.0005
vn 0.9506 -0.3103 0.0032
vn 0.9503 -0.3114 0.0045
vn 0.9509 -0.3096 0.0041
vn -0.0000 -0.1713 0.9852
vn -0.0000 -0.1818 0.9833
vn -0.0015 0.9998 -0.0178
vn -0.0193 0.9997 -0.0155
vn 0.0002 0.9998 -0.0181
vn 0.0015 0.9998 -0.0178
vn 0.0193 0.9997 -0.0155
vn 0.0211 0.9997 -0.0153
vn 0.0778 0.5034 0.8605
vn -0.0450 0.5147 0.8562
vn 0.0935 0.5014 0.8601
vn 0.0450 0.5147 0.8562
vn -0.0778 0.5034 0.8605
vn -0.0935 0.5014 0.8601
vn 0.6814 0.0942 0.7258
vn 0.6548 0.0766 0.7519
vn 0.6839 0.0959 0.7232
vn -0.6548 0.0766 0.7519
vn -0.6814 0.0942 0.7258
vn -0.6839 0.0959 0.7232
vn 0.5515 0.8341 -0.0103
vn 0.5633 0.8261 -0.0124
vn 0.5501 0.8350 -0.0101
vn -0.5633 0.8261 -0.0124
vn -0.5515 0.8341 -0.0103
vn -0.5501 0.8350 -0.0101
vn -0.6237 0.5496 0.5558
vn -0.6134 0.5539 0.5629
vn -0.6250 0.5491 0.5549
vn 0.6134 0.5539 0.5629
vn 0.6237 0.5496 0.5558
vn 0.6250 0.5491 0.5549
vn 0.9361 0.2732 0.2216
vn 0.9505 0.3003 0.0798
vn 0.9506 0.3006 0.0774
vn -0.9355 0.2723 0.2253
vn -0.9507 0.3008 0.0760
vn -0.9351 0.2719 0.2273
vn 0.9471 0.3208 0.0062
vn 0.9999 0.0105 -0.0099
vn 0.9467 0.3220 0.0040
vn -0.9480 0.3183 0.0048
vn -0.9999 0.0095 -0.0098
vn -0.9999 0.0025 -0.0099
vn -0.8861 0.4231 0.1895
vn -0.9476 0.3194 0.0025
vn 0.8876 0.4213 0.1865
vn 0.8841 0.4252 0.1938
vn -0.0000 0.9881 0.1539
vn 0.0001 0.9882 0.1529
vn 0.0002 0.9883 0.1528
vn 0.5534 -0.6111 0.5659
vn 0.5535 -0.6111 0.5659
vn -0.0000 -1.0000 -0.0025
vn 0.9758 -0.2185 -0.0005
vn -0.9758 -0.2185 -0.0005
vn -0.0000 -0.1664 -0.9861
vn -0.0000 1.0000 0.0025
vn -0.5675 -0.6110 0.5519
vn -0.5674 -0.6110 0.5519
vn 0.6248 -0.4480 0.6395
vn -0.6406 -0.4479 0.6237
vn 0.9690 -0.2467 0.0115
vn -0.9690 -0.2466 -0.0127
vn 0.6406 -0.4448 -0.6259
vn -0.6248 -0.4448 -0.6417
vn 0.0893 0.9960 -0.0003
vn 0.1422 0.9898 -0.0000
vn 0.1688 0.9856 -0.0000
vn -0.0000 -0.0000 1.0000
vn 0.8280 -0.5607 -0.0000
vn -0.2504 0.0564 0.9665
vn -0.8050 0.1814 0.5648
vn -0.8472 0.1862 0.4975
vn -0.9766 0.2145 0.0180
vn -0.9768 0.2134 0.0167
vn -0.1899 0.0456 0.9807
vn 0.0631 0.9980 -0.0016
vn 0.0633 0.9980 -0.0013
vn 0.0627 0.9980 -0.0015
vn -0.0000 -0.0000 -1.0000
vn -0.2286 0.0541 -0.9720
vn -0.2977 0.0663 -0.9524
vn -0.0030 -1.0000 -0.0013
vn -0.0030 -1.0000 -0.0004
vn -0.0028 -1.0000 -0.0018
vn -0.0008 -1.0000 -0.0030
vn -0.0039 -0.9999 0.0118
vn -0.0016 -0.9999 0.0119
vn -0.0038 -1.0000 0.0092
vn -0.4950 0.1150 -0.8613
vn -0.5093 0.1113 -0.8534
vn -0.0019 -1.0000 -0.0007
vn 0.0030 -1.0000 -0.0004
vn 0.0030 -1.0000 -0.0013
vn 0.0028 -1.0000 -0.0018
vn 0.1899 0.0456 0.9807
vn 0.2504 0.0564 0.9665
vn 0.8050 0.1814 0.5648
vn -0.0893 0.9960 -0.0003
vn -0.1422 0.9898 -0.0000
vn -0.0895 0.9960 -0.0000
vn 0.0038 -1.0000 0.0092
vn 0.0019 -1.0000 -0.0007
vn 0.0008 -1.0000 -0.0030
vn -0.0631 0.9980 -0.0016
vn -0.0633 0.9980 -0.0013
vn -0.0644 0.9979 -0.0021
vn 0.0016 -0.9999 0.0119
vn 0.0039 -0.9999 0.0118
vn 0.9766 0.2145 0.0180
vn 0.8472 0.1862 0.4975
vn 0.9768 0.2134 0.0167
vn 0.2286 0.0541 -0.9720
vn -0.1688 0.9856 -0.0000
vn -0.8280 -0.5607 -0.0000
vn 0.4950 0.1150 -0.8613
vn 0.2977 0.0663 -0.9524
vn -0.0627 0.9980 -0.0015
vn -0.9484 0.3167 0.0147
vn -0.9485 0.3165 0.0146
vn -0.9485 0.3166 0.0145
vn -0.0000 1.0000 -0.0000
vn 0.9511 -0.3089 -0.0000
vn -0.9512 -0.3085 -0.0000
vn -0.0000 0.3340 0.9426
vn 0.0001 1.0000 -0.0047
vn 0.0002 1.0000 -0.0047
vn -0.0000 -1.0000 0.0025
vn -0.0000 -0.1664 0.9861
vn -0.0000 -0.1818 -0.9833
vn -0.9486 0.3162 0.0145
vn -0.0000 0.3340 -0.9426
vn -0.9758 -0.2185 0.0005
vn -0.5875 0.8092 0.0090
vn -0.9471 0.3208 -0.0062
vn -0.9999 0.0105 0.0099
vn -0.9467 0.3220 -0.0040
vn 0.9485 0.3166 0.0145
vn 0.9485 0.3165 0.0146
vn 0.9484 0.3167 0.0144
vn -0.0001 1.0000 0.0047
vn -0.0002 1.0000 0.0047
vn 0.9758 -0.2185 0.0005
vn -0.9361 0.2732 -0.2216
vn -0.9505 0.3003 -0.0798
vn -0.9506 0.3006 -0.0774
vn -0.5515 0.8341 0.0103
vn -0.5633 0.8261 0.0124
vn -0.5501 0.8350 0.0101
vn 0.6548 0.0766 -0.7519
vn 0.6814 0.0942 -0.7258
vn 0.6839 0.0959 -0.7232
vn -0.6814 0.0942 -0.7258
vn -0.6548 0.0766 -0.7519
vn -0.6839 0.0959 -0.7232
vn -0.0015 0.9998 0.0178
vn -0.0193 0.9997 0.0155
vn -0.0211 0.9997 0.0153
vn -0.0450 0.5147 -0.8562
vn 0.0778 0.5034 -0.8605
vn 0.0935 0.5014 -0.8601
vn 0.6237 0.5496 -0.5558
vn 0.6134 0.5539 -0.5629
vn 0.6250 0.5491 -0.5549
vn -0.0000 0.9881 -0.1539
vn -0.0001 0.9882 -0.1529
vn -0.0002 0.9883 -0.1528
vn 0.9480 0.3183 -0.0048
vn 0.8861 0.4231 -0.1895
vn 0.9476 0.3194 -0.0025
vn 0.0015 0.9998 0.0178
vn 0.0193 0.9997 0.0155
vn -0.0002 0.9998 0.0181
vn -0.8876 0.4213 -0.1865
vn -0.8841 0.4252 -0.1938
vn -0.0000 -0.1713 -0.9852
vn -0.9506 -0.3103 -0.0032
vn -0.9503 -0.3114 -0.0045
vn -0.9509 -0.3096 -0.0041
vn 0.9504 -0.3110 -0.0025
vn 0.9508 -0.3099 0.0008
vn 0.9508 -0.3098 0.0005
vn 0.9999 0.0095 0.0098
vn 0.9999 0.0025 0.0099
vn -0.6134 0.5539 -0.5629
vn -0.6237 0.5496 -0.5558
vn -0.6250 0.5491 -0.5549
vn 0.5633 0.8261 0.0124
vn 0.5515 0.8341 0.0103
vn 0.5501 0.8350 0.0101
vn 0.9485 0.3165 -0.0146
vn 0.5875 0.8092 -0.0090
vn -0.9485 0.3166 -0.0145
vn -0.9484 0.3167 -0.0144
vn 0.9486 0.3162 -0.0145
vn 0.9485 0.3166 -0.0145
vn 0.9355 0.2723 -0.2253
vn 0.9507 0.3008 -0.0760
vn 0.9351 0.2719 -0.2273
vn -0.9485 0.3165 -0.0146
vn -0.0778 0.5034 -0.8605
vn 0.0450 0.5147 -0.8562
vn -0.0935 0.5014 -0.8601
vn 0.9484 0.3167 -0.0147
vn 0.0893 0.9960 0.0003
vn 0.0895 0.9960 -0.0000
vn -0.2504 0.0564 -0.9665
vn -0.8050 0.1814 -0.5648
vn -0.1899 0.0456 -0.9807
vn -0.9766 0.2145 -0.0180
vn -0.8472 0.1862 -0.4975
vn -0.9768 0.2134 -0.0167
vn 0.0631 0.9980 0.0016
vn 0.0633 0.9980 0.0013
vn 0.0644 0.9979 0.0021
vn -0.2286 0.0541 0.9720
vn -0.0030 -1.0000 0.0004
vn -0.0030 -1.0000 0.0013
vn -0.0028 -1.0000 0.0018
vn -0.0008 -1.0000 0.0030
vn -0.0016 -0.9999 -0.0119
vn -0.0039 -0.9999 -0.0118
vn -0.0038 -1.0000 -0.0092
vn -0.4950 0.1150 0.8613
vn -0.2977 0.0663 0.9524
vn -0.0019 -1.0000 0.0007
vn 0.0627 0.9980 0.0015
vn -0.0893 0.9960 0.0003
vn 0.2504 0.0564 -0.9665
vn 0.8050 0.1814 -0.5648
vn 0.8472 0.1862 -0.4975
vn 0.9766 0.2145 -0.0180
vn 0.9768 0.2134 -0.0167
vn 0.1899 0.0456 -0.9807
vn -0.0631 0.9980 0.0016
vn -0.0633 0.9980 0.0013
vn -0.0627 0.9980 0.0015
vn 0.2286 0.0541 0.9720
vn 0.2977 0.0663 0.9524
vn 0.0030 -1.0000 0.0013
vn 0.0030 -1.0000 0.0004
vn 0.0028 -1.0000 0.0018
vn 0.0008 -1.0000 0.0030
vn 0.0039 -0.9999 -0.0118
vn 0.0016 -0.9999 -0.0119
vn 0.0038 -1.0000 -0.0092
vn 0.4950 0.1150 0.8613
vn 0.5093 0.1113 0.8534
vn 0.0019 -1.0000 0.0007
vn -0.5534 -0.6111 -0.5659
vn -0.5535 -0.6111 -0.5659
vn -0.0000 1.0000 -0.0025
vn 0.5675 -0.6110 -0.5519
vn 0.5674 -0.6110 -0.5519
vn -0.6248 -0.4480 -0.6395
vn 0.6406 -0.4479 -0.6237
vn -0.9690 -0.2467 -0.0115
vn 0.9690 -0.2466 0.0127
vn -0.6406 -0.4448 0.6259
vn 0.6248 -0.4448 0.6417
vn -0.9508 -0.3098 0.0002
vn -0.9503 -0.3113 0.0031
vn -0.9499 -0.3125 0.0057
vn -0.9499 -0.3124 0.0058
vn 0.9509 -0.3095 0.0024
vn 0.9505 -0.3106 -0.0000
vn 0.9505 -0.3108 -0.0008
vn 0.9499 -0.3125 0.0035
vn -0.0211 0.9997 -0.0153
vn -0.0002 0.9998 -0.0181
vn -0.0600 0.5155 0.8548
vn 0.0600 0.5155 0.8548
vn 0.6536 0.0758 0.7530
vn -0.6536 0.0758 0.7530
vn 0.5644 0.8254 -0.0126
vn -0.5644 0.8254 -0.0126
vn -0.6116 0.5546 0.5642
vn 0.6116 0.5546 0.5642
vn 0.9358 0.2728 0.2235
vn -0.9507 0.3012 0.0735
vn 0.9999 0.0034 -0.0100
vn -0.8824 0.4272 0.1970
vn -0.0000 0.9881 0.1540
vn 0.0644 0.9979 -0.0021
vn -0.0032 -1.0000 -0.0000
vn 0.0032 -0.9999 0.0102
vn 0.0032 -1.0000 -0.0000
vn -0.0032 -0.9999 0.0102
vn 0.5093 0.1113 -0.8534
vn -0.9485 0.3165 0.0150
vn -0.9999 0.0034 0.0100
vn 0.9485 0.3163 0.0149
vn -0.9358 0.2728 -0.2235
vn -0.5644 0.8254 0.0126
vn 0.6536 0.0758 -0.7530
vn -0.6536 0.0758 -0.7530
vn 0.0002 0.9998 0.0181
vn -0.0600 0.5155 -0.8548
vn 0.6116 0.5546 -0.5642
vn -0.0000 0.9881 -0.1540
vn 0.8824 0.4272 -0.1970
vn 0.0211 0.9997 0.0153
vn -0.9509 -0.3095 -0.0024
vn -0.9505 -0.3106 -0.0000
vn -0.9505 -0.3108 0.0008
vn -0.9499 -0.3125 -0.0035
vn 0.9508 -0.3098 -0.0002
vn 0.9503 -0.3113 -0.0031
vn 0.9499 -0.3125 -0.0057
vn 0.9499 -0.3124 -0.0058
vn -0.6116 0.5546 -0.5642
vn 0.5644 0.8254 0.0126
vn 0.9507 0.3012 -0.0735
vn -0.9485 0.3163 -0.0149
vn 0.0600 0.5155 -0.8548
vn 0.9485 0.3165 -0.0150
vn 0.0032 -0.9999 -0.0102
vn -0.5093 0.1113 0.8534
vn -0.0644 0.9979 0.0021
vn -0.0032 -0.9999 -0.0102
vt 0.548269 0.368370
vt 0.548564 0.232247
vt 0.585280 0.232161
vt 0.580994 0.143819
vt 0.640172 0.201073
vt 0.551275 0.202601
vt 0.633454 0.799793
vt 0.639222 0.835446
vt 0.633454 0.836719
vt 0.509582 0.677422
vt 0.458434 0.799142
vt 0.501124 0.665816
vt 0.538055 0.677422
vt 0.589203 0.799142
vt 0.577958 0.800760
vt 0.821339 0.232965
vt 0.809731 0.321071
vt 0.809731 0.232161
vt 0.809734 0.343697
vt 0.821342 0.431803
vt 0.809731 0.431798
vt 0.917764 0.009460
vt 0.906464 0.071957
vt 0.906562 0.007566
vt 0.917768 0.162750
vt 0.906563 0.100235
vt 0.917768 0.098358
vt 0.546513 0.665816
vt 0.484733 0.602313
vt 0.471356 0.484013
vt 0.493876 0.595019
vt 0.486650 0.470789
vt 0.601777 0.501117
vt 0.593239 0.509111
vt 0.615340 0.650683
vt 0.532001 0.637958
vt 0.615359 0.637999
vt 0.630220 0.553038
vt 0.630771 0.637341
vt 0.618217 0.635528
vt 0.643499 0.550164
vt 0.527238 0.650683
vt 0.627534 0.320690
vt 0.696567 0.232161
vt 0.698803 0.233864
vt 0.078804 0.456842
vt 0.009802 0.368287
vt 0.081693 0.455816
vt 0.627777 0.375453
vt 0.697367 0.418440
vt 0.624991 0.377085
vt 0.078582 0.511605
vt 0.009004 0.554612
vt 0.007566 0.552092
vt 0.081369 0.513236
vt 0.624648 0.319665
vt 0.374361 0.793019
vt 0.371551 0.772890
vt 0.374360 0.772969
vt 0.636985 0.854004
vt 0.633454 0.875112
vt 0.633454 0.851851
vt 0.875149 0.554490
vt 0.879381 0.595647
vt 0.875149 0.591416
vt 0.846896 0.591416
vt 0.842665 0.595648
vt 0.842665 0.550259
vt 0.879381 0.550259
vt 0.846896 0.554490
vt 0.877474 0.184226
vt 0.883300 0.211506
vt 0.877474 0.212480
vt 0.697874 0.864287
vt 0.692047 0.891566
vt 0.692047 0.865261
vt 0.103953 0.513703
vt 0.098186 0.549355
vt 0.098186 0.514976
vt 0.919617 0.197831
vt 0.932769 0.180641
vt 0.932769 0.215021
vt 0.906464 0.215021
vt 0.906464 0.180641
vt 0.151687 0.950818
vt 0.172795 0.948542
vt 0.172795 0.950818
vt 0.975507 0.415391
vt 0.952246 0.438651
vt 0.952246 0.415391
vt 0.801847 0.183371
vt 0.798315 0.162263
vt 0.801847 0.162263
vt 0.149411 0.971926
vt 0.149411 0.948542
vt 0.821943 0.965644
vt 0.800591 0.946492
vt 0.811267 0.941727
vt 0.952246 0.390727
vt 0.973598 0.371575
vt 0.973598 0.400258
vt 0.661961 0.210910
vt 0.655304 0.213819
vt 0.655304 0.204749
vt 0.684357 0.213819
vt 0.677093 0.213819
vt 0.680725 0.205508
vt 0.962922 0.366809
vt 0.959583 0.355463
vt 0.973598 0.342892
vt 0.800591 0.917809
vt 0.814606 0.930380
vt 0.973692 0.711505
vt 0.959677 0.695393
vt 0.973692 0.682822
vt 0.237601 0.960484
vt 0.223586 0.976597
vt 0.223586 0.947914
vt 0.374818 0.237716
vt 0.320882 0.128097
vt 0.374818 0.128097
vt 0.320882 0.007566
vt 0.374818 0.007566
vt 0.101696 0.235760
vt 0.067582 0.125362
vt 0.090818 0.126682
vt 0.102049 0.498571
vt 0.098186 0.444634
vt 0.102049 0.444634
vt 0.072404 0.007566
vt 0.069170 0.009680
vt 0.065162 0.334304
vt 0.107075 0.343372
vt 0.065162 0.351988
vt 0.285588 0.990924
vt 0.322805 0.948321
vt 0.322803 0.991450
vt 0.065961 0.241618
vt 0.105923 0.325206
vt 0.365744 0.344509
vt 0.320882 0.327262
vt 0.374819 0.328735
vt 0.016167 0.237374
vt 0.023828 0.353155
vt 0.020541 0.351124
vt 0.049216 0.033291
vt 0.011792 0.123625
vt 0.007566 0.025246
vt 0.039209 0.233610
vt 0.176146 0.235043
vt 0.122207 0.348875
vt 0.122209 0.233183
vt 0.176148 0.121209
vt 0.122207 0.024226
vt 0.167074 0.007566
vt 0.176148 0.022740
vt 0.050030 0.015112
vt 0.007566 0.007566
vt 0.122211 0.116915
vt 0.320882 0.237716
vt 0.328534 0.343778
vt 0.047312 0.124291
vt 0.212177 0.185624
vt 0.301203 0.297005
vt 0.191280 0.295987
vt 0.713936 0.232161
vt 0.762693 0.356441
vt 0.713936 0.356441
vt 0.827532 0.458401
vt 0.772425 0.461028
vt 0.768685 0.456755
vt 0.827532 0.579173
vt 0.824245 0.463121
vt 0.768685 0.577527
vt 0.823792 0.574900
vt 0.771973 0.572807
vt 0.479972 0.456755
vt 0.458434 0.475377
vt 0.305750 0.164297
vt 0.212177 0.165575
vt 0.218662 0.343410
vt 0.300449 0.343560
vt 0.300403 0.343559
vt 0.301210 0.054201
vt 0.191288 0.055211
vt 0.218673 0.007790
vt 0.300414 0.007566
vt 0.609516 0.370041
vt 0.577988 0.427196
vt 0.489090 0.425669
vt 0.489090 0.368401
vt 0.519747 0.145446
vt 0.543984 0.007566
vt 0.580700 0.007653
vt 0.640172 0.143805
vt 0.639222 0.801066
vt 0.469679 0.800760
vt 0.821342 0.321067
vt 0.821342 0.342892
vt 0.917764 0.074734
vt 0.906464 0.165509
vt 0.007566 0.369990
vt 0.698803 0.415921
vt 0.371551 0.793109
vt 0.636985 0.875112
vt 0.883300 0.185200
vt 0.697874 0.892540
vt 0.103953 0.550628
vt 0.975507 0.438651
vt 0.798315 0.185524
vt 0.151687 0.971926
vt 0.800591 0.975175
vt 0.956936 0.364138
vt 0.817253 0.939055
vt 0.957030 0.704068
vt 0.240248 0.969159
vt 0.098186 0.498571
vt 0.285588 0.948134
vt 0.176144 0.348876
vt 0.129862 0.008284
vt 0.305750 0.186910
vt 0.762693 0.232161
s 1
usemtl emrysChevron
f 38/1/1 44/2/2 41/3/3
f 36/4/4 4/5/5 12/6/6
f 34/7/7 50/8/7 33/9/7
f 15/10/8 7/11/8 41/12/8
f 16/13/8 9/14/8 2/15/8
f 5/16/9 6/17/10 11/18/11
f 3/19/12 4/20/13 14/21/14
f 9/22/15 3/23/16 2/24/17
f 5/25/18 7/26/19 1/27/20
f 15/10/8 42/28/8 16/13/8
f 1/29/21 25/30/22 26/31/23
f 28/32/24 2/33/25 27/34/26
f 13/35/27 29/36/28 19/37/29
f 30/38/30 14/39/31 20/40/32
f 30/38/33 2/33/34 3/41/35
f 1/29/36 29/36/37 5/42/38
f 21/43/39 25/44/40 17/45/41
f 22/46/42 28/47/43 27/48/44
f 23/49/45 19/50/46 29/51/47
f 24/52/48 20/53/49 32/54/50
f 24/52/48 27/48/51 30/55/52
f 23/49/45 26/56/53 21/43/54
f 17/57/55 28/58/56 18/59/57
f 52/60/58 59/61/59 55/62/58
f 10/63/60 41/64/60 8/65/60
f 33/66/60 41/64/60 44/67/60
f 10/63/60 43/68/60 42/69/60
f 33/66/60 43/68/60 34/70/60
f 33/71/61 48/72/61 8/73/61
f 34/74/62 49/75/62 51/76/62
f 10/77/63 48/78/63 49/79/63
f 45/80/60 49/81/60 48/82/60
f 45/80/60 48/82/60 50/83/60
f 45/80/60 51/84/60 49/81/60
f 45/80/60 50/83/60 51/84/60
f 52/85/64 39/86/64 57/87/64
f 60/88/64 55/89/64 59/90/64
f 52/91/65 58/92/66 56/93/66
f 52/85/64 40/94/64 54/95/64
f 39/96/67 61/97/67 63/98/67
f 40/99/68 61/100/68 54/101/68
f 65/102/69 66/103/69 67/104/69
f 68/105/70 69/106/70 70/107/70
f 64/108/68 70/109/68 53/110/68
f 53/111/67 63/98/67 61/97/67
f 67/112/67 63/98/67 53/111/67
f 62/113/71 67/114/71 53/115/71
f 70/116/72 62/117/72 53/118/72
f 61/100/68 64/108/68 53/110/68
f 73/119/73 76/120/74 75/121/74
f 75/121/74 78/122/75 77/123/75
f 74/124/76 80/125/76 76/126/76
f 78/127/77 81/128/77 77/129/77
f 78/130/76 80/125/76 82/131/76
f 83/132/78 85/133/79 84/134/80
f 84/135/80 72/136/81 71/137/82
f 79/138/76 86/139/83 83/132/78
f 72/140/84 86/141/85 89/142/86
f 88/143/87 77/144/87 81/145/87
f 89/146/88 87/147/87 90/148/89
f 87/147/87 75/149/87 88/143/87
f 88/150/90 82/151/91 80/152/92
f 80/152/92 87/153/93 88/150/90
f 83/154/94 71/155/95 90/156/96
f 72/157/97 90/148/89 71/158/98
f 79/159/99 90/156/96 87/153/93
f 86/141/85 73/119/73 89/142/86
f 99/151/100 93/150/101 101/152/102
f 95/139/103 102/138/76 98/132/104
f 93/143/87 104/144/87 106/149/87
f 103/130/76 101/125/76 105/126/76
f 98/132/104 96/133/105 95/139/103
f 108/119/106 105/120/107 107/160/108
f 91/156/109 102/159/110 94/153/111
f 109/140/112 95/141/113 96/161/114
f 110/155/115 98/154/116 91/156/109
f 109/136/117 97/135/118 110/137/119
f 92/146/120 94/147/87 108/162/87
f 106/149/87 94/147/87 93/143/87
f 106/121/107 103/122/121 105/120/107
f 100/128/122 103/127/122 104/129/122
f 109/157/123 91/148/124 92/146/120
f 108/119/106 95/141/113 92/142/125
f 101/125/76 107/124/76 105/126/76
f 94/153/111 101/152/102 93/150/101
f 159/163/126 126/164/127 155/165/128
s 0
f 117/166/129 116/167/129 118/168/129
f 116/169/130 120/170/130 118/171/130
f 115/172/76 122/173/76 116/169/76
f 117/174/131 121/175/131 115/172/131
f 117/174/87 120/170/87 119/176/87
s 1
f 16/177/132 25/30/132 15/178/132
f 124/179/133 17/163/134 18/180/134
f 143/66/135 135/68/135 142/70/135
f 166/77/136 132/78/136 131/79/136
f 160/13/137 167/14/137 174/15/137
f 126/164/127 153/181/138 155/165/128
f 160/177/139 151/30/139 161/178/139
f 143/71/140 132/72/140 168/73/140
f 133/80/135 131/81/135 132/82/135
f 133/80/135 129/84/135 131/81/135
f 126/164/127 128/182/129 145/183/141
f 153/49/142 157/50/143 147/51/144
f 127/184/145 158/180/146 154/185/147
f 111/179/148 159/163/149 158/180/149
f 142/74/150 131/75/150 129/76/150
f 133/80/135 132/82/135 130/83/135
f 133/80/135 130/83/135 129/84/135
f 127/184/145 152/186/147 144/187/147
f 155/43/151 151/44/152 159/45/153
f 163/35/154 147/36/155 157/37/156
f 148/32/157 174/33/158 149/34/159
f 175/29/160 151/30/161 150/31/162
f 173/19/163 172/20/164 162/21/165
f 171/25/166 169/26/167 175/27/168
f 146/38/169 174/33/170 173/41/171
f 143/66/135 137/64/135 134/67/135
f 159/57/172 148/58/173 158/59/174
f 152/52/175 149/48/176 146/55/177
f 171/16/178 170/17/179 165/18/180
f 166/63/135 137/64/135 168/65/135
f 153/49/142 150/56/181 155/43/182
f 166/63/135 135/68/135 136/69/135
f 142/7/183 130/8/183 143/9/183
f 161/10/137 169/11/137 137/12/137
f 140/4/184 172/5/185 164/6/186
f 138/1/187 134/2/188 137/3/189
f 161/10/137 136/28/137 160/13/137
f 152/52/175 156/53/190 144/54/191
f 175/29/192 147/36/193 171/42/194
f 146/38/195 162/39/196 156/40/197
f 114/164/198 112/182/129 31/183/199
f 113/184/200 24/186/201 32/187/201
f 114/164/198 23/181/202 21/165/203
f 154/46/204 148/47/205 149/48/206
f 113/184/200 18/180/207 22/185/201
f 167/22/208 173/23/209 174/24/210
f 17/163/211 114/164/198 21/165/203
f 178/119/212 181/120/74 179/160/213
f 180/121/74 183/122/75 181/120/74
f 185/125/87 179/124/87 181/126/87
f 186/128/77 183/127/77 182/129/77
f 183/130/87 185/125/87 181/126/87
f 188/132/214 190/133/215 191/139/216
f 177/136/217 189/135/218 176/137/219
f 191/139/216 184/138/87 188/132/214
f 177/140/220 191/141/221 190/161/222
f 193/143/76 182/144/76 180/149/76
f 194/146/223 192/147/76 178/162/76
f 180/149/76 192/147/76 193/143/76
f 187/151/224 193/150/225 185/152/226
f 192/153/227 185/152/226 193/150/225
f 176/155/228 188/154/229 195/156/230
f 177/157/231 195/148/232 194/146/223
f 195/156/230 184/159/233 192/153/227
f 178/119/212 191/141/221 194/142/234
f 198/119/235 201/120/107 200/121/107
f 200/121/107 203/122/121 202/123/121
f 199/124/87 205/125/87 201/126/87
f 203/127/122 206/128/122 202/129/122
f 203/130/87 205/125/87 207/131/87
f 208/132/236 210/133/237 209/134/238
f 209/135/238 197/136/239 196/137/240
f 204/138/87 211/139/241 208/132/236
f 197/140/242 211/141/243 214/142/244
f 213/143/76 202/144/76 206/145/76
f 214/146/245 212/147/76 215/148/246
f 212/147/76 200/149/76 213/143/76
f 213/150/247 207/151/248 205/152/249
f 205/152/249 212/153/250 213/150/247
f 208/154/251 196/155/252 215/156/253
f 197/157/254 215/148/246 196/158/255
f 204/159/256 215/156/253 212/153/250
f 211/141/243 198/119/235 214/142/244
f 218/60/257 225/61/258 221/62/257
f 218/85/259 216/86/259 223/87/259
f 226/88/259 221/89/259 225/90/259
f 218/91/260 224/92/261 222/93/261
f 218/85/259 217/94/259 220/95/259
f 216/96/262 227/97/262 229/98/262
f 217/99/263 227/100/263 220/101/263
f 231/102/264 232/103/264 233/104/264
f 234/105/265 235/106/265 236/107/265
f 230/108/263 236/109/263 219/110/263
f 219/111/262 229/98/262 227/97/262
f 233/112/262 229/98/262 219/111/262
f 228/113/266 233/114/266 219/115/266
f 236/116/267 228/117/267 219/118/267
f 227/100/263 230/108/263 219/110/263
f 41/3/3 7/188/268 38/1/1
f 7/188/268 11/189/269 38/1/1
f 11/189/269 6/190/270 38/1/1
f 6/190/270 37/191/271 38/1/1
f 12/6/6 9/192/272 36/4/4
f 9/192/272 42/193/273 36/4/4
f 42/193/273 43/194/274 36/4/4
f 36/4/4 35/195/275 4/5/5
f 34/7/7 51/196/7 50/8/7
f 15/10/8 1/197/8 7/11/8
f 16/13/8 42/28/8 9/14/8
f 5/16/9 13/198/276 6/17/10
f 3/19/12 12/199/277 4/20/13
f 9/22/15 12/200/278 3/23/16
f 5/25/18 11/201/279 7/26/19
f 15/10/8 41/12/8 42/28/8
f 1/29/21 15/178/280 25/30/22
f 28/32/24 16/177/281 2/33/25
f 13/35/27 5/42/282 29/36/28
f 30/38/30 3/41/283 14/39/31
f 30/38/33 27/34/284 2/33/34
f 1/29/36 26/31/285 29/36/37
f 21/43/39 26/56/286 25/44/40
f 22/46/42 18/202/287 28/47/43
f 23/49/45 31/203/288 19/50/46
f 24/52/48 30/55/52 20/53/49
f 24/52/48 22/46/289 27/48/51
f 23/49/45 29/51/47 26/56/53
f 17/57/55 25/204/290 28/58/56
f 52/60/58 57/205/59 59/61/59
f 10/63/60 42/69/60 41/64/60
f 33/66/60 8/65/60 41/64/60
f 10/63/60 34/70/60 43/68/60
f 33/66/60 44/67/60 43/68/60
f 33/71/61 50/206/61 48/72/61
f 34/74/62 10/207/62 49/75/62
f 10/77/63 8/208/63 48/78/63
f 52/85/64 54/95/64 39/86/64
f 60/88/64 58/209/64 55/89/64
f 52/91/65 55/210/65 58/92/66
f 52/85/64 56/211/64 40/94/64
f 39/96/67 54/212/67 61/97/67
f 40/99/68 64/108/68 61/100/68
f 64/108/68 68/213/68 70/109/68
f 67/112/67 66/214/67 63/98/67
f 62/113/71 65/215/71 67/114/71
f 70/116/72 69/216/72 62/117/72
f 73/119/73 74/160/213 76/120/74
f 75/121/74 76/120/74 78/122/75
f 74/124/76 79/138/76 80/125/76
f 78/127/77 82/217/77 81/128/77
f 78/130/76 76/126/76 80/125/76
f 83/132/78 86/139/83 85/133/79
f 84/135/80 85/218/79 72/136/81
f 79/138/76 74/124/76 86/139/83
f 72/140/84 85/161/291 86/141/85
f 88/143/87 75/149/87 77/144/87
f 89/146/88 73/162/87 87/147/87
f 87/147/87 73/162/87 75/149/87
f 88/150/90 81/219/292 82/151/91
f 80/152/92 79/159/99 87/153/93
f 83/154/94 84/220/293 71/155/95
f 72/157/97 89/146/88 90/148/89
f 79/159/99 83/154/94 90/156/96
f 86/141/85 74/160/213 73/119/73
f 99/151/100 100/219/294 93/150/101
f 95/139/103 107/124/76 102/138/76
f 93/143/87 100/145/87 104/144/87
f 103/130/76 99/131/76 101/125/76
f 98/132/104 97/134/118 96/133/105
f 108/119/106 106/121/107 105/120/107
f 91/156/109 98/154/116 102/159/110
f 109/140/112 92/142/125 95/141/113
f 110/155/115 97/220/295 98/154/116
f 109/136/117 96/218/105 97/135/118
f 92/146/120 91/148/124 94/147/87
f 106/149/87 108/162/87 94/147/87
f 106/121/107 104/123/121 103/122/121
f 100/128/122 99/217/122 103/127/122
f 109/157/123 110/158/296 91/148/124
f 108/119/106 107/160/108 95/141/113
f 101/125/76 102/138/76 107/124/76
f 94/153/111 102/159/110 101/152/102
f 159/163/126 125/221/297 126/164/127
s 0
f 117/166/129 115/222/129 116/167/129
f 116/169/130 122/173/130 120/170/130
f 115/172/76 121/175/76 122/173/76
f 117/174/131 119/176/131 121/175/131
f 117/174/87 118/171/87 120/170/87
s 1
f 16/177/132 28/32/132 25/30/132
f 124/179/133 123/221/133 17/163/134
f 143/66/135 134/67/135 135/68/135
f 166/77/136 168/208/136 132/78/136
f 160/13/137 136/28/137 167/14/137
f 126/164/127 145/183/141 153/181/138
f 160/177/139 148/32/139 151/30/139
f 143/71/140 130/206/140 132/72/140
f 153/49/142 145/203/298 157/50/143
f 127/184/145 111/179/299 158/180/146
f 111/179/148 125/221/148 159/163/149
f 142/74/150 166/207/150 131/75/150
f 127/184/145 154/185/147 152/186/147
f 155/43/151 150/56/300 151/44/152
f 163/35/154 171/42/301 147/36/155
f 148/32/157 160/177/302 174/33/158
f 175/29/160 161/178/303 151/30/161
f 173/19/163 164/199/304 172/20/164
f 171/25/166 165/201/305 169/26/167
f 146/38/169 149/34/306 174/33/170
f 143/66/135 168/65/135 137/64/135
f 159/57/172 151/204/307 148/58/173
f 152/52/175 154/46/308 149/48/176
f 171/16/178 163/198/309 170/17/179
f 166/63/135 136/69/135 137/64/135
f 153/49/142 147/51/144 150/56/181
f 166/63/135 142/70/135 135/68/135
f 142/7/183 129/196/183 130/8/183
f 161/10/137 175/197/137 169/11/137
f 164/6/186 167/192/310 140/4/184
f 167/192/310 136/193/311 140/4/184
f 136/193/311 135/194/312 140/4/184
f 140/4/184 141/195/313 172/5/185
f 137/3/189 169/188/314 138/1/187
f 169/188/314 165/189/315 138/1/187
f 165/189/315 170/190/316 138/1/187
f 170/190/316 139/191/317 138/1/187
f 161/10/137 137/12/137 136/28/137
f 152/52/175 146/55/177 156/53/190
f 175/29/192 150/31/318 147/36/193
f 146/38/195 173/41/319 162/39/196
f 113/184/200 22/185/201 24/186/201
f 114/164/198 31/183/199 23/181/202
f 154/46/204 158/202/320 148/47/205
f 113/184/200 124/179/321 18/180/207
f 167/22/208 164/200/322 173/23/209
f 17/163/211 123/221/323 114/164/198
f 178/119/212 180/121/74 181/120/74
f 180/121/74 182/123/75 183/122/75
f 185/125/87 184/138/87 179/124/87
f 186/128/77 187/217/77 183/127/77
f 183/130/87 187/131/87 185/125/87
f 188/132/214 189/134/218 190/133/215
f 177/136/217 190/218/215 189/135/218
f 191/139/216 179/124/87 184/138/87
f 177/140/220 194/142/234 191/141/221
f 193/143/76 186/145/76 182/144/76
f 194/146/223 195/148/232 192/147/76
f 180/149/76 178/162/76 192/147/76
f 187/151/224 186/219/292 193/150/225
f 192/153/227 184/159/233 185/152/226
f 176/155/228 189/220/324 188/154/229
f 177/157/231 176/158/325 195/148/232
f 195/156/230 188/154/229 184/159/233
f 178/119/212 179/160/213 191/141/221
f 198/119/235 199/160/108 201/120/107
f 200/121/107 201/120/107 203/122/121
f 199/124/87 204/138/87 205/125/87
f 203/127/122 207/217/122 206/128/122
f 203/130/87 201/126/87 205/125/87
f 208/132/236 211/139/241 210/133/237
f 209/135/238 210/218/237 197/136/239
f 204/138/87 199/124/87 211/139/241
f 197/140/242 210/161/326 211/141/243
f 213/143/76 200/149/76 202/144/76
f 214/146/245 198/162/76 212/147/76
f 212/147/76 198/162/76 200/149/76
f 213/150/247 206/219/294 207/151/248
f 205/152/249 204/159/256 212/153/250
f 208/154/251 209/220/327 196/155/252
f 197/157/254 214/146/245 215/148/246
f 204/159/256 208/154/251 215/156/253
f 211/141/243 199/160/108 198/119/235
f 218/60/257 223/205/258 225/61/258
f 218/85/259 220/95/259 216/86/259
f 226/88/259 224/209/259 221/89/259
f 218/91/260 221/210/260 224/92/261
f 218/85/259 222/211/259 217/94/259
f 216/96/262 220/212/262 227/97/262
f 217/99/263 230/108/263 227/100/263
f 230/108/263 234/213/263 236/109/263
f 233/112/262 232/214/262 229/98/262
f 228/113/266 231/215/266 233/114/266
f 236/116/267 235/216/267 228/117/267
l 47 46
