# Blender v3.0.0 OBJ File: ''
# www.blender.org
mtllib chevron_back.mtl
o movie_chevron_1.002
v -0.009630 4.286572 -0.167664
v -0.009630 4.286572 -0.139974
v -0.097156 4.286572 -0.139974
v -0.097156 4.286572 -0.167664
v 0.097155 4.286572 -0.167664
v 0.097155 4.286572 -0.139974
v 0.007401 4.286572 -0.139974
v 0.007401 4.286572 -0.167664
v -0.001115 4.286572 -0.139974
v -0.001115 4.286572 -0.157574
v 0.007403 4.371942 -0.202733
v 0.086412 4.371942 -0.202733
v -0.086413 4.371942 -0.202733
v -0.009629 4.371941 -0.202733
v -0.001113 4.389377 -0.199677
v -0.001113 4.416129 -0.193161
v -0.009629 4.416130 -0.193161
v -0.068678 4.416130 -0.193161
v -0.111701 4.547914 -0.220251
v -0.111701 4.547908 -0.193538
v -0.068678 4.416123 -0.166447
v 0.007403 4.416130 -0.193161
v 0.068397 4.416130 -0.193161
v -0.009629 4.416123 -0.166447
v -0.001113 4.416123 -0.166447
v 0.007403 4.416123 -0.166447
v 0.068397 4.416123 -0.166448
v -0.143869 4.547914 -0.239018
v -0.257575 4.547915 -0.193585
v -0.257575 4.547915 -0.220251
v -0.119691 4.572290 -0.225755
v -0.151859 4.572289 -0.244522
v -0.160351 4.598343 -0.249658
v -0.128182 4.598343 -0.230892
v -0.272609 4.572290 -0.225755
v -0.288588 4.598343 -0.230892
v -0.272609 4.572290 -0.199089
v -0.288588 4.598343 -0.204226
v -0.119691 4.572283 -0.199041
v -0.128182 4.598337 -0.204178
v -0.213533 4.859739 -0.284828
v -0.245701 4.859739 -0.303594
v -0.274390 4.859735 -0.258130
v -0.213533 4.859733 -0.258114
v -0.449200 4.859739 -0.284828
v -0.449200 4.859739 -0.258162
v -0.144928 4.649615 -0.241532
v -0.136412 4.623558 -0.236029
v -0.168579 4.623558 -0.254795
v -0.177096 4.649615 -0.260299
v -0.304074 4.623559 -0.236029
v -0.320099 4.649615 -0.241532
v -0.304074 4.623559 -0.209363
v -0.320099 4.649615 -0.214866
v -0.144928 4.649609 -0.214819
v -0.136412 4.623552 -0.209315
v -0.152893 4.673987 -0.246669
v -0.185061 4.673987 -0.265436
v -0.193840 4.700884 -0.270939
v -0.161672 4.700884 -0.252173
v -0.335088 4.673989 -0.246669
v -0.351608 4.700884 -0.252173
v -0.335088 4.673989 -0.220003
v -0.351608 4.700884 -0.225507
v -0.152893 4.673981 -0.219955
v -0.161672 4.700878 -0.225459
v -0.170188 4.726942 -0.257676
v -0.202356 4.726942 -0.276443
v -0.210322 4.751315 -0.281580
v -0.178153 4.751315 -0.262813
v -0.367635 4.726943 -0.257676
v -0.382624 4.751315 -0.262813
v -0.367635 4.726943 -0.231010
v -0.382624 4.751315 -0.236147
v -0.170188 4.726935 -0.230963
v -0.178153 4.751308 -0.236099
v -0.186096 4.775692 -0.267583
v -0.218264 4.775691 -0.286350
v -0.226516 4.800905 -0.291853
v -0.194348 4.800905 -0.273087
v -0.397570 4.775692 -0.267583
v -0.413099 4.800906 -0.273087
v -0.397570 4.775692 -0.240917
v -0.413099 4.800906 -0.246421
v -0.186096 4.775686 -0.240869
v -0.194348 4.800899 -0.246373
v -0.202313 4.825276 -0.278223
v -0.234481 4.825275 -0.296990
v -0.428087 4.825276 -0.278223
v -0.428087 4.825276 -0.251557
v -0.202313 4.825269 -0.251510
v -0.209872 4.825275 -0.272988
v -0.209872 4.825270 -0.251513
v -0.420527 4.825276 -0.270887
v -0.235744 4.825274 -0.288521
v -0.420527 4.825277 -0.251556
v -0.119261 4.547914 -0.214971
v -0.119261 4.547909 -0.193541
v -0.250015 4.547915 -0.213251
v -0.144928 4.547914 -0.230466
v -0.250015 4.547916 -0.193583
v -0.127251 4.572284 -0.199075
v -0.127251 4.572289 -0.220500
v -0.227581 4.800875 -0.283394
v -0.201897 4.800875 -0.267853
v -0.152959 4.572288 -0.235978
v -0.265049 4.572290 -0.218710
v -0.405615 4.800878 -0.246450
v -0.405615 4.800876 -0.265793
v -0.201897 4.800870 -0.246407
v -0.265049 4.572290 -0.199118
v -0.135738 4.598342 -0.225560
v -0.135738 4.598338 -0.204147
v -0.281029 4.598342 -0.223814
v -0.161443 4.598342 -0.241128
v -0.281029 4.598344 -0.204254
v -0.152487 4.649616 -0.236249
v -0.152487 4.649611 -0.214825
v -0.312540 4.649615 -0.234379
v -0.178235 4.649614 -0.251787
v -0.312540 4.649616 -0.214895
v -0.160450 4.673983 -0.219940
v -0.160450 4.673987 -0.241378
v -0.186259 4.673987 -0.256891
v -0.327529 4.673988 -0.239488
v -0.327529 4.673989 -0.220032
v -0.169231 4.700878 -0.246935
v -0.169231 4.700873 -0.225502
v -0.343767 4.700879 -0.244997
v -0.194914 4.700878 -0.262462
v -0.343767 4.700880 -0.225545
v -0.177734 4.726904 -0.230971
v -0.177734 4.726909 -0.252415
v -0.203543 4.726909 -0.267938
v -0.360177 4.726910 -0.250439
v -0.360177 4.726911 -0.231014
v -0.185713 4.751317 -0.257527
v -0.185713 4.751313 -0.236094
v -0.374674 4.751319 -0.255532
v -0.211276 4.751317 -0.273069
v -0.374674 4.751319 -0.236137
v -0.193666 4.775688 -0.241026
v -0.193666 4.775692 -0.262472
v -0.219406 4.775692 -0.278007
v -0.389951 4.775693 -0.260438
v -0.389951 4.775693 -0.241069
v -0.143972 4.623553 -0.209350
v -0.143972 4.623558 -0.230788
v -0.169728 4.623558 -0.246272
v -0.296515 4.623559 -0.228904
v -0.296515 4.623559 -0.209391
v 0.111700 4.547908 -0.193538
v 0.111700 4.547915 -0.220252
v 0.143868 4.547915 -0.239018
v 0.257574 4.547916 -0.220252
v 0.257574 4.547916 -0.193586
v 0.119690 4.572290 -0.225755
v 0.128182 4.598343 -0.230892
v 0.160350 4.598343 -0.249659
v 0.151858 4.572289 -0.244522
v 0.288587 4.598344 -0.230892
v 0.272608 4.572290 -0.225755
v 0.288587 4.598344 -0.204226
v 0.272608 4.572290 -0.199089
v 0.119690 4.572284 -0.199042
v 0.128182 4.598337 -0.204178
v 0.213532 4.859740 -0.284828
v 0.213532 4.859733 -0.258114
v 0.274389 4.859735 -0.258130
v 0.245700 4.859739 -0.303595
v 0.449199 4.859739 -0.284828
v 0.449199 4.859739 -0.258162
v 0.144927 4.649615 -0.241532
v 0.177095 4.649615 -0.260299
v 0.168578 4.623559 -0.254795
v 0.136411 4.623559 -0.236029
v 0.320098 4.649616 -0.241532
v 0.304073 4.623559 -0.236029
v 0.320098 4.649616 -0.214866
v 0.304073 4.623559 -0.209363
v 0.144927 4.649609 -0.214819
v 0.136411 4.623552 -0.209315
v 0.152892 4.673988 -0.246669
v 0.161671 4.700884 -0.252173
v 0.193839 4.700884 -0.270940
v 0.185060 4.673988 -0.265436
v 0.351607 4.700884 -0.252173
v 0.335087 4.673989 -0.246669
v 0.351607 4.700884 -0.225507
v 0.335087 4.673989 -0.220003
v 0.152892 4.673982 -0.219956
v 0.161671 4.700878 -0.225459
v 0.170187 4.726943 -0.257677
v 0.178152 4.751315 -0.262813
v 0.210321 4.751315 -0.281580
v 0.202355 4.726942 -0.276443
v 0.382623 4.751316 -0.262813
v 0.367634 4.726943 -0.257677
v 0.382623 4.751316 -0.236147
v 0.367634 4.726943 -0.231011
v 0.170187 4.726936 -0.230963
v 0.178152 4.751308 -0.236100
v 0.186095 4.775692 -0.267583
v 0.194347 4.800905 -0.273087
v 0.226515 4.800905 -0.291853
v 0.218263 4.775692 -0.286350
v 0.413098 4.800907 -0.273087
v 0.397569 4.775692 -0.267583
v 0.413098 4.800907 -0.246421
v 0.397569 4.775692 -0.240917
v 0.186095 4.775686 -0.240869
v 0.194347 4.800899 -0.246373
v 0.202312 4.825276 -0.278224
v 0.234480 4.825276 -0.296990
v 0.428086 4.825277 -0.278224
v 0.428086 4.825277 -0.251557
v 0.202312 4.825270 -0.251510
v 0.209871 4.825275 -0.272988
v 0.209871 4.825271 -0.251513
v 0.420526 4.825276 -0.270887
v 0.235743 4.825275 -0.288521
v 0.420526 4.825277 -0.251556
v 0.119260 4.547914 -0.214971
v 0.119260 4.547909 -0.193541
v 0.250014 4.547915 -0.213251
v 0.144927 4.547914 -0.230466
v 0.250014 4.547916 -0.193583
v 0.127250 4.572285 -0.199075
v 0.127250 4.572289 -0.220500
v 0.227580 4.800875 -0.283394
v 0.201896 4.800875 -0.267853
v 0.152958 4.572288 -0.235978
v 0.265048 4.572290 -0.218711
v 0.405614 4.800878 -0.246450
v 0.405614 4.800877 -0.265793
v 0.201896 4.800870 -0.246407
v 0.265048 4.572290 -0.199118
v 0.135737 4.598343 -0.225561
v 0.135737 4.598338 -0.204147
v 0.281028 4.598343 -0.223814
v 0.161442 4.598342 -0.241128
v 0.281028 4.598344 -0.204255
v 0.152486 4.649616 -0.236249
v 0.152486 4.649611 -0.214826
v 0.312539 4.649615 -0.234379
v 0.178234 4.649614 -0.251787
v 0.312539 4.649616 -0.214895
v 0.160449 4.673983 -0.219941
v 0.160449 4.673987 -0.241378
v 0.186258 4.673987 -0.256892
v 0.327528 4.673988 -0.239488
v 0.327528 4.673990 -0.220032
v 0.169230 4.700878 -0.246936
v 0.169230 4.700874 -0.225502
v 0.343766 4.700879 -0.244998
v 0.194913 4.700878 -0.262462
v 0.343766 4.700880 -0.225545
v 0.177733 4.726904 -0.230972
v 0.177733 4.726909 -0.252416
v 0.203542 4.726909 -0.267938
v 0.360176 4.726911 -0.250439
v 0.360176 4.726912 -0.231014
v 0.185712 4.751318 -0.257527
v 0.185712 4.751313 -0.236095
v 0.374673 4.751319 -0.255532
v 0.211275 4.751318 -0.273069
v 0.374673 4.751319 -0.236137
v 0.193665 4.775688 -0.241027
v 0.193665 4.775693 -0.262472
v 0.219405 4.775692 -0.278007
v 0.389950 4.775693 -0.260438
v 0.389950 4.775694 -0.241069
v 0.143971 4.623553 -0.209350
v 0.143971 4.623559 -0.230789
v 0.169727 4.623558 -0.246272
v 0.296514 4.623559 -0.228904
v 0.296514 4.623560 -0.209391
v -0.009630 4.286572 -0.167563
v -0.097156 4.286572 -0.167563
v -0.097156 4.286572 -0.139890
v -0.009630 4.286572 -0.139890
v 0.097155 4.286572 -0.167563
v 0.007401 4.286572 -0.167563
v 0.007401 4.286572 -0.139890
v 0.097155 4.286572 -0.139890
v -0.001115 4.286572 -0.157480
v -0.001115 4.286572 -0.139890
v 0.086412 4.371942 -0.202611
v 0.007403 4.371942 -0.202611
v -0.009629 4.371941 -0.202611
v -0.086413 4.371942 -0.202611
v -0.001113 4.389377 -0.199557
v -0.001113 4.416129 -0.193045
v -0.009629 4.416130 -0.193045
v -0.068678 4.416130 -0.193045
v -0.068678 4.416123 -0.166347
v -0.111701 4.547908 -0.193422
v -0.111701 4.547914 -0.220119
v 0.068397 4.416130 -0.193045
v 0.007403 4.416130 -0.193045
v -0.001113 4.416123 -0.166348
v -0.009629 4.416123 -0.166347
v 0.068397 4.416123 -0.166348
v 0.007403 4.416123 -0.166347
v -0.143869 4.547914 -0.238875
v -0.257575 4.547915 -0.220119
v -0.257575 4.547915 -0.193469
v -0.119691 4.572290 -0.225620
v -0.128182 4.598343 -0.230753
v -0.160351 4.598343 -0.249509
v -0.151859 4.572289 -0.244375
v -0.288588 4.598343 -0.230753
v -0.272609 4.572290 -0.225620
v -0.288588 4.598343 -0.204103
v -0.272609 4.572290 -0.198970
v -0.119691 4.572283 -0.198922
v -0.128182 4.598337 -0.204056
v -0.213533 4.859739 -0.284657
v -0.213533 4.859733 -0.257959
v -0.274390 4.859735 -0.257975
v -0.245701 4.859739 -0.303412
v -0.449200 4.859739 -0.284657
v -0.449200 4.859739 -0.258007
v -0.144928 4.649615 -0.241387
v -0.177096 4.649615 -0.260143
v -0.168579 4.623558 -0.254642
v -0.136412 4.623558 -0.235887
v -0.320099 4.649615 -0.241387
v -0.304074 4.623559 -0.235887
v -0.320099 4.649615 -0.214737
v -0.304074 4.623559 -0.209237
v -0.144928 4.649609 -0.214690
v -0.136412 4.623552 -0.209189
v -0.152893 4.673987 -0.246521
v -0.161672 4.700884 -0.252021
v -0.193840 4.700884 -0.270777
v -0.185061 4.673987 -0.265276
v -0.351608 4.700884 -0.252021
v -0.335088 4.673989 -0.246521
v -0.351608 4.700884 -0.225371
v -0.335088 4.673989 -0.219871
v -0.152893 4.673981 -0.219823
v -0.161672 4.700878 -0.225324
v -0.170188 4.726942 -0.257522
v -0.178153 4.751315 -0.262655
v -0.210322 4.751315 -0.281411
v -0.202356 4.726942 -0.276277
v -0.382624 4.751315 -0.262655
v -0.367635 4.726943 -0.257522
v -0.382624 4.751315 -0.236005
v -0.367635 4.726943 -0.230872
v -0.170188 4.726935 -0.230824
v -0.178153 4.751308 -0.235958
v -0.186096 4.775692 -0.267422
v -0.194348 4.800905 -0.272923
v -0.226516 4.800905 -0.291678
v -0.218264 4.775691 -0.286178
v -0.413099 4.800906 -0.272923
v -0.397570 4.775692 -0.267422
v -0.413099 4.800906 -0.246273
v -0.397570 4.775692 -0.240772
v -0.186096 4.775686 -0.240725
v -0.194348 4.800899 -0.246225
v -0.202313 4.825276 -0.278056
v -0.234481 4.825275 -0.296812
v -0.428087 4.825276 -0.278056
v -0.428087 4.825276 -0.251406
v -0.202313 4.825269 -0.251359
v -0.209872 4.825275 -0.272824
v -0.209872 4.825270 -0.251362
v -0.420527 4.825276 -0.270724
v -0.235744 4.825274 -0.288348
v -0.420527 4.825277 -0.251405
v -0.119261 4.547914 -0.214842
v -0.119261 4.547909 -0.193425
v -0.250015 4.547915 -0.213123
v -0.144928 4.547914 -0.230328
v -0.250015 4.547916 -0.193467
v -0.127251 4.572284 -0.198956
v -0.127251 4.572289 -0.220368
v -0.227581 4.800875 -0.283224
v -0.201897 4.800875 -0.267692
v -0.152959 4.572288 -0.235837
v -0.265049 4.572290 -0.218579
v -0.405615 4.800878 -0.246302
v -0.405615 4.800876 -0.265633
v -0.201897 4.800870 -0.246259
v -0.265049 4.572290 -0.198998
v -0.135738 4.598342 -0.225425
v -0.135738 4.598338 -0.204024
v -0.281029 4.598342 -0.223680
v -0.161443 4.598342 -0.240983
v -0.281029 4.598344 -0.204132
v -0.152487 4.649616 -0.236107
v -0.152487 4.649611 -0.214696
v -0.312540 4.649615 -0.234238
v -0.178235 4.649614 -0.251636
v -0.312540 4.649616 -0.214766
v -0.160450 4.673983 -0.219808
v -0.160450 4.673987 -0.241233
v -0.186259 4.673987 -0.256737
v -0.327529 4.673988 -0.239344
v -0.327529 4.673989 -0.219900
v -0.169231 4.700878 -0.246787
v -0.169231 4.700873 -0.225367
v -0.343767 4.700879 -0.244850
v -0.194914 4.700878 -0.262304
v -0.343767 4.700880 -0.225409
v -0.177734 4.726904 -0.230833
v -0.177734 4.726909 -0.252264
v -0.203543 4.726909 -0.267777
v -0.360177 4.726910 -0.250288
v -0.360177 4.726911 -0.230875
v -0.185713 4.751317 -0.257372
v -0.185713 4.751313 -0.235953
v -0.374674 4.751319 -0.255379
v -0.211276 4.751317 -0.272905
v -0.374674 4.751319 -0.235995
v -0.193666 4.775688 -0.240882
v -0.193666 4.775692 -0.262315
v -0.219406 4.775692 -0.277840
v -0.389951 4.775693 -0.260282
v -0.389951 4.775693 -0.240924
v -0.143972 4.623553 -0.209224
v -0.143972 4.623558 -0.230650
v -0.169728 4.623558 -0.246124
v -0.296515 4.623559 -0.228767
v -0.296515 4.623559 -0.209265
v 0.111700 4.547915 -0.220120
v 0.111700 4.547908 -0.193422
v 0.143868 4.547915 -0.238875
v 0.257574 4.547916 -0.193470
v 0.257574 4.547916 -0.220120
v 0.119690 4.572290 -0.225620
v 0.151858 4.572289 -0.244375
v 0.160350 4.598343 -0.249509
v 0.128182 4.598343 -0.230754
v 0.272608 4.572290 -0.225620
v 0.288587 4.598344 -0.230754
v 0.272608 4.572290 -0.198970
v 0.288587 4.598344 -0.204104
v 0.119690 4.572284 -0.198922
v 0.128182 4.598337 -0.204056
v 0.213532 4.859740 -0.284657
v 0.245700 4.859739 -0.303412
v 0.274389 4.859735 -0.257975
v 0.213532 4.859733 -0.257959
v 0.449199 4.859739 -0.284657
v 0.449199 4.859739 -0.258007
v 0.144927 4.649615 -0.241388
v 0.136411 4.623559 -0.235887
v 0.168578 4.623559 -0.254642
v 0.177095 4.649615 -0.260143
v 0.304073 4.623559 -0.235887
v 0.320098 4.649616 -0.241388
v 0.304073 4.623559 -0.209237
v 0.320098 4.649616 -0.214737
v 0.144927 4.649609 -0.214690
v 0.136411 4.623552 -0.209189
v 0.152892 4.673988 -0.246521
v 0.185060 4.673988 -0.265276
v 0.193839 4.700884 -0.270777
v 0.161671 4.700884 -0.252022
v 0.335087 4.673989 -0.246521
v 0.351607 4.700884 -0.252022
v 0.335087 4.673989 -0.219871
v 0.351607 4.700884 -0.225372
v 0.152892 4.673982 -0.219824
v 0.161671 4.700878 -0.225324
v 0.170187 4.726943 -0.257522
v 0.202355 4.726942 -0.276277
v 0.210321 4.751315 -0.281411
v 0.178152 4.751315 -0.262656
v 0.367634 4.726943 -0.257522
v 0.382623 4.751316 -0.262656
v 0.367634 4.726943 -0.230872
v 0.382623 4.751316 -0.236006
v 0.170187 4.726936 -0.230824
v 0.178152 4.751308 -0.235958
v 0.186095 4.775692 -0.267423
v 0.218263 4.775692 -0.286178
v 0.226515 4.800905 -0.291678
v 0.194347 4.800905 -0.272923
v 0.397569 4.775692 -0.267422
v 0.413098 4.800907 -0.272923
v 0.397569 4.775692 -0.240772
v 0.413098 4.800907 -0.246273
v 0.186095 4.775686 -0.240725
v 0.194347 4.800899 -0.246225
v 0.202312 4.825276 -0.278057
v 0.234480 4.825276 -0.296812
v 0.428086 4.825277 -0.278057
v 0.428086 4.825277 -0.251407
v 0.202312 4.825270 -0.251359
v 0.209871 4.825275 -0.272824
v 0.209871 4.825271 -0.251362
v 0.420526 4.825276 -0.270724
v 0.235743 4.825275 -0.288348
v 0.420526 4.825277 -0.251405
v 0.119260 4.547914 -0.214842
v 0.119260 4.547909 -0.193425
v 0.250014 4.547915 -0.213123
v 0.144927 4.547914 -0.230328
v 0.250014 4.547916 -0.193467
v 0.127250 4.572285 -0.198956
v 0.127250 4.572289 -0.220368
v 0.227580 4.800875 -0.283224
v 0.201896 4.800875 -0.267692
v 0.152958 4.572288 -0.235837
v 0.265048 4.572290 -0.218579
v 0.405614 4.800878 -0.246302
v 0.405614 4.800877 -0.265633
v 0.201896 4.800870 -0.246259
v 0.265048 4.572290 -0.198998
v 0.135737 4.598343 -0.225425
v 0.135737 4.598338 -0.204024
v 0.281028 4.598343 -0.223680
v 0.161442 4.598342 -0.240983
v 0.281028 4.598344 -0.204132
v 0.152486 4.649616 -0.236107
v 0.152486 4.649611 -0.214697
v 0.312539 4.649615 -0.234238
v 0.178234 4.649614 -0.251636
v 0.312539 4.649616 -0.214766
v 0.160449 4.673983 -0.219809
v 0.160449 4.673987 -0.241233
v 0.186258 4.673987 -0.256737
v 0.327528 4.673988 -0.239344
v 0.327528 4.673990 -0.219900
v 0.169230 4.700878 -0.246787
v 0.169230 4.700874 -0.225367
v 0.343766 4.700879 -0.244851
v 0.194913 4.700878 -0.262305
v 0.343766 4.700880 -0.225409
v 0.177733 4.726904 -0.230833
v 0.177733 4.726909 -0.252264
v 0.203542 4.726909 -0.267777
v 0.360176 4.726911 -0.250289
v 0.360176 4.726912 -0.230876
v 0.185712 4.751318 -0.257373
v 0.185712 4.751313 -0.235953
v 0.374673 4.751319 -0.255379
v 0.211275 4.751318 -0.272906
v 0.374673 4.751319 -0.235996
v 0.193665 4.775688 -0.240882
v 0.193665 4.775693 -0.262315
v 0.219405 4.775692 -0.277840
v 0.389950 4.775693 -0.260282
v 0.389950 4.775694 -0.240925
v 0.143971 4.623553 -0.209225
v 0.143971 4.623559 -0.230650
v 0.169727 4.623558 -0.246124
v 0.296514 4.623559 -0.228767
v 0.296514 4.623560 -0.209266
vt 0.107075 0.401403
vt 0.098186 0.429502
vt 0.098186 0.401403
vt 0.107075 0.367120
vt 0.098186 0.395935
vt 0.098186 0.367120
vt 0.107075 0.395935
vt 0.101425 0.398669
vt 0.960982 0.927702
vt 0.931326 0.902366
vt 0.960952 0.898887
vt 0.931326 0.957881
vt 0.960982 0.933263
vt 0.960952 0.961362
vt 0.744976 0.856142
vt 0.749081 0.825288
vt 0.749053 0.860954
vt 0.925677 0.930481
vt 0.916837 0.933215
vt 0.916838 0.930481
vt 0.786504 0.644282
vt 0.768685 0.685064
vt 0.778655 0.640825
vt 0.931353 0.927732
vt 0.916817 0.908165
vt 0.753137 0.856149
vt 0.931353 0.933230
vt 0.916817 0.952172
vt 0.744976 0.791199
vt 0.753552 0.788465
vt 0.753552 0.791199
vt 0.753552 0.785731
vt 0.744976 0.766149
vt 0.753552 0.766149
vt 0.744976 0.788465
vt 0.107075 0.398669
vt 0.744976 0.810156
vt 0.753552 0.810156
vt 0.916837 0.927747
vt 0.786471 0.695169
vt 0.799768 0.636086
vt 0.818637 0.612983
vt 0.827394 0.711393
vt 0.818961 0.712868
vt 0.889135 0.778361
vt 0.895979 0.788363
vt 0.887212 0.790161
vt 0.892031 0.739237
vt 0.897904 0.776563
vt 0.896249 0.728000
vt 0.901069 0.735075
vt 0.896123 0.796938
vt 0.887355 0.798737
vt 0.862342 0.017893
vt 0.847741 0.007566
vt 0.856317 0.007566
vt 0.856317 0.083226
vt 0.847746 0.027104
vt 0.613117 0.864764
vt 0.606258 0.854827
vt 0.615039 0.852963
vt 0.609290 0.811017
vt 0.618322 0.806776
vt 0.613368 0.799793
vt 0.613209 0.873340
vt 0.604336 0.866628
vt 0.316763 0.832743
vt 0.324004 0.842573
vt 0.314967 0.844563
vt 0.319940 0.784306
vt 0.325800 0.830752
vt 0.324243 0.772890
vt 0.329215 0.779859
vt 0.324214 0.851147
vt 0.315177 0.853137
vt 0.831282 0.792301
vt 0.837709 0.802273
vt 0.829521 0.804127
vt 0.834571 0.739000
vt 0.839471 0.790447
vt 0.837912 0.728000
vt 0.842961 0.734913
vt 0.837922 0.810846
vt 0.829733 0.812700
vt 0.461909 0.301076
vt 0.468634 0.310943
vt 0.460160 0.312903
vt 0.465285 0.243294
vt 0.470383 0.299116
vt 0.468833 0.232161
vt 0.473958 0.239018
vt 0.468827 0.319517
vt 0.460353 0.321477
vt 0.779345 0.307336
vt 0.789331 0.316456
vt 0.777825 0.319196
vt 0.782847 0.244988
vt 0.790850 0.304597
vt 0.789578 0.232161
vt 0.794599 0.239094
vt 0.789788 0.325020
vt 0.778282 0.327760
vt 0.580462 0.885949
vt 0.573566 0.888376
vt 0.573567 0.885949
vt 0.579787 0.818319
vt 0.588167 0.878048
vt 0.585448 0.877643
vt 0.573581 0.815892
vt 0.573581 0.818319
vt 0.719887 0.944731
vt 0.713006 0.942304
vt 0.721582 0.942304
vt 0.719335 0.986709
vt 0.727607 0.952632
vt 0.721582 0.989136
vt 0.724861 0.952972
vt 0.713021 0.989136
vt 0.713020 0.986709
vt 0.522339 0.961314
vt 0.514118 0.956190
vt 0.522358 0.954436
vt 0.696665 0.782588
vt 0.689720 0.775064
vt 0.697874 0.773027
vt 0.523975 0.944939
vt 0.517804 0.912577
vt 0.526278 0.908601
vt 0.689566 0.849155
vt 0.694124 0.839967
vt 0.697874 0.844917
vt 0.807487 0.834872
vt 0.800591 0.832448
vt 0.809167 0.832448
vt 0.806825 0.900274
vt 0.815192 0.842776
vt 0.809167 0.902677
vt 0.812476 0.843117
vt 0.800606 0.902677
vt 0.800615 0.900274
vt 0.979595 0.865209
vt 0.972706 0.867636
vt 0.972717 0.865209
vt 0.979020 0.820970
vt 0.987307 0.857309
vt 0.984564 0.856956
vt 0.981282 0.867636
vt 0.972721 0.818543
vt 0.981282 0.818543
vt 0.969504 0.009992
vt 0.962639 0.007566
vt 0.971216 0.007566
vt 0.968943 0.056636
vt 0.977240 0.017893
vt 0.971216 0.059063
vt 0.974502 0.018244
vt 0.962655 0.059063
vt 0.962664 0.056636
vt 0.964049 0.536957
vt 0.957169 0.534530
vt 0.965745 0.534530
vt 0.963448 0.588341
vt 0.971770 0.544858
vt 0.965745 0.590768
vt 0.969037 0.545223
vt 0.957184 0.590768
vt 0.957193 0.588341
vt 0.959128 0.288227
vt 0.952250 0.290653
vt 0.952246 0.288227
vt 0.958521 0.234588
vt 0.966852 0.280326
vt 0.964108 0.279941
vt 0.960827 0.290653
vt 0.952266 0.232161
vt 0.960827 0.232161
vt 0.939791 0.009993
vt 0.932896 0.007566
vt 0.941472 0.007566
vt 0.939168 0.066027
vt 0.947497 0.017893
vt 0.941472 0.068544
vt 0.944775 0.018238
vt 0.932911 0.068544
vt 0.932923 0.066027
vt 0.929399 0.293128
vt 0.922512 0.295550
vt 0.922515 0.293128
vt 0.928766 0.234555
vt 0.937113 0.285223
vt 0.934383 0.284842
vt 0.931089 0.295550
vt 0.922528 0.232161
vt 0.931089 0.232161
vt 0.665512 0.866714
vt 0.658633 0.864287
vt 0.667209 0.864287
vt 0.664871 0.927379
vt 0.673234 0.874614
vt 0.667209 0.929931
vt 0.670502 0.874921
vt 0.658648 0.929931
vt 0.658645 0.927379
vt 0.904499 0.676914
vt 0.897563 0.679344
vt 0.897614 0.676914
vt 0.903846 0.613898
vt 0.912164 0.669017
vt 0.909486 0.668651
vt 0.906139 0.679344
vt 0.897578 0.611452
vt 0.906139 0.611452
vt 0.775476 0.213663
vt 0.768582 0.216090
vt 0.768593 0.213663
vt 0.774871 0.164690
vt 0.783183 0.205763
vt 0.780447 0.205394
vt 0.777158 0.216090
vt 0.768597 0.162263
vt 0.777158 0.162263
vt 0.522587 0.903508
vt 0.514099 0.907464
vt 0.266814 0.868269
vt 0.261776 0.877560
vt 0.258125 0.872451
vt 0.749524 0.371573
vt 0.744850 0.380725
vt 0.741145 0.375685
vt 0.878661 0.611452
vt 0.873505 0.621000
vt 0.869730 0.616025
vt 0.130529 0.777257
vt 0.125963 0.786531
vt 0.122207 0.781565
vt 0.688505 0.784675
vt 0.685818 0.844208
vt 0.131575 0.837193
vt 0.134279 0.782217
vt 0.879779 0.666950
vt 0.882431 0.616420
vt 0.750698 0.422233
vt 0.753223 0.376606
vt 0.268005 0.914378
vt 0.270456 0.873367
vt 0.515735 0.946702
vt 0.259539 0.916288
vt 0.266592 0.923921
vt 0.258125 0.925832
vt 0.742518 0.424141
vt 0.749323 0.431802
vt 0.741145 0.433698
vt 0.871050 0.669054
vt 0.878454 0.676528
vt 0.869730 0.678598
vt 0.123425 0.839229
vt 0.130351 0.846766
vt 0.122207 0.848756
vt 0.689394 0.768177
vt 0.130688 0.853643
vt 0.878697 0.683408
vt 0.749530 0.438681
vt 0.266779 0.930802
vt 0.048521 0.757229
vt 0.066281 0.798067
vt 0.058427 0.801510
vt 0.048489 0.808159
vt 0.035192 0.749075
vt 0.016323 0.725972
vt 0.007566 0.824383
vt 0.007566 0.724442
vt 0.896595 0.828916
vt 0.889751 0.838918
vt 0.887827 0.827118
vt 0.898519 0.840717
vt 0.892647 0.878042
vt 0.896864 0.889279
vt 0.887827 0.885117
vt 0.896739 0.820341
vt 0.887971 0.818543
vt 0.404552 0.787916
vt 0.389951 0.798243
vt 0.395976 0.787916
vt 0.395976 0.863575
vt 0.404547 0.807454
vt 0.404537 0.863575
vt 0.872442 0.242601
vt 0.865584 0.252537
vt 0.863661 0.240737
vt 0.874364 0.254402
vt 0.868615 0.296348
vt 0.872693 0.307571
vt 0.877647 0.300589
vt 0.872535 0.234025
vt 0.863754 0.232161
vt 0.722043 0.776713
vt 0.714801 0.786544
vt 0.713006 0.774723
vt 0.723838 0.788534
vt 0.717978 0.834980
vt 0.722281 0.846396
vt 0.713006 0.841950
vt 0.722252 0.768140
vt 0.713216 0.766149
vt 0.435227 0.768814
vt 0.428799 0.778786
vt 0.427039 0.766960
vt 0.436988 0.780640
vt 0.432088 0.832086
vt 0.435429 0.843086
vt 0.427039 0.838999
vt 0.435439 0.760240
vt 0.427251 0.758386
vt 0.809066 0.738534
vt 0.802340 0.748402
vt 0.800591 0.736574
vt 0.810815 0.750362
vt 0.805716 0.806182
vt 0.809264 0.817316
vt 0.800591 0.813040
vt 0.809259 0.729960
vt 0.800784 0.728000
vt 0.780190 0.739304
vt 0.770204 0.748423
vt 0.768684 0.736564
vt 0.781709 0.751163
vt 0.773706 0.810772
vt 0.780437 0.823599
vt 0.768684 0.817706
vt 0.780647 0.730740
vt 0.769141 0.728000
vt 0.865799 0.888599
vt 0.872695 0.891026
vt 0.864119 0.891026
vt 0.866474 0.820970
vt 0.858094 0.880699
vt 0.864119 0.818543
vt 0.860813 0.880293
vt 0.872680 0.818543
vt 0.872680 0.820970
vt 0.666351 0.947490
vt 0.673232 0.945063
vt 0.673231 0.947490
vt 0.666903 0.989468
vt 0.658631 0.955390
vt 0.661377 0.955730
vt 0.673217 0.991895
vt 0.673218 0.989468
vt 0.954176 0.729756
vt 0.945955 0.734880
vt 0.945937 0.728000
vt 0.837683 0.359331
vt 0.844628 0.351807
vt 0.845843 0.361418
vt 0.955813 0.746131
vt 0.949641 0.778493
vt 0.947572 0.744369
vt 0.840224 0.416710
vt 0.844782 0.425898
vt 0.836474 0.421660
vt 0.900484 0.234584
vt 0.907380 0.232161
vt 0.907369 0.234584
vt 0.901145 0.299986
vt 0.892779 0.242488
vt 0.895495 0.242830
vt 0.907364 0.302389
vt 0.907355 0.299987
vt 0.987848 0.777093
vt 0.980959 0.774666
vt 0.987837 0.774666
vt 0.973247 0.766766
vt 0.981533 0.730427
vt 0.975990 0.766413
vt 0.987833 0.728000
vt 0.987824 0.730427
vt 0.045046 0.926440
vt 0.051911 0.924014
vt 0.051921 0.926440
vt 0.045607 0.973084
vt 0.037310 0.934341
vt 0.040048 0.934692
vt 0.051895 0.975511
vt 0.051886 0.973084
vt 0.964751 0.613879
vt 0.971631 0.611452
vt 0.971629 0.613879
vt 0.965351 0.665263
vt 0.957030 0.621780
vt 0.959762 0.622145
vt 0.971616 0.667690
vt 0.971606 0.665263
vt 0.585744 0.962000
vt 0.578867 0.959574
vt 0.585749 0.959574
vt 0.571143 0.951673
vt 0.579474 0.905935
vt 0.573886 0.951288
vt 0.585729 0.903508
vt 0.585720 0.905935
vt 0.612042 0.892763
vt 0.618937 0.890336
vt 0.618923 0.892763
vt 0.612664 0.948797
vt 0.604336 0.900664
vt 0.607057 0.901008
vt 0.618922 0.951314
vt 0.618909 0.948797
vt 0.937114 0.406281
vt 0.930227 0.403859
vt 0.937111 0.403859
vt 0.922513 0.395954
vt 0.930862 0.345286
vt 0.925243 0.395573
vt 0.937099 0.342892
vt 0.937098 0.345286
vt 0.434760 0.860645
vt 0.441640 0.858218
vt 0.441641 0.860645
vt 0.435401 0.921310
vt 0.427038 0.868546
vt 0.429771 0.868852
vt 0.433063 0.858218
vt 0.441624 0.923862
vt 0.441627 0.921310
vt 0.022167 0.908882
vt 0.015232 0.906451
vt 0.022117 0.906451
vt 0.007566 0.898554
vt 0.015885 0.843435
vt 0.010245 0.898188
vt 0.022152 0.840989
vt 0.022103 0.843435
vt 0.723716 0.216090
vt 0.716822 0.213663
vt 0.723705 0.213663
vt 0.709115 0.205763
vt 0.717427 0.164690
vt 0.711852 0.205394
vt 0.723701 0.162263
vt 0.723692 0.164690
vt 0.954424 0.787562
vt 0.945937 0.783606
vt 0.319895 0.923413
vt 0.324933 0.932704
vt 0.316245 0.928523
vt 0.834588 0.887680
vt 0.839262 0.896832
vt 0.830884 0.892720
vt 0.490041 0.880366
vt 0.495198 0.889914
vt 0.486267 0.885341
vt 0.846420 0.525853
vt 0.850986 0.535127
vt 0.842665 0.530819
vt 0.852033 0.475191
vt 0.843883 0.473155
vt 0.496315 0.834417
vt 0.487587 0.832313
vt 0.840436 0.846172
vt 0.832257 0.844264
vt 0.326125 0.886596
vt 0.317658 0.884685
vt 0.954195 0.736634
vt 0.324712 0.877052
vt 0.839061 0.836603
vt 0.494990 0.824839
vt 0.850809 0.465617
vt 0.844953 0.344920
vt 0.836474 0.349770
vt 0.836799 0.342892
vt 0.851145 0.458741
vt 0.842665 0.463628
vt 0.843001 0.456755
vt 0.495233 0.817959
vt 0.486267 0.822769
vt 0.486509 0.815892
vt 0.839269 0.829724
vt 0.830884 0.834707
vt 0.831091 0.827832
vt 0.324898 0.870172
vt 0.316245 0.875142
vt 0.316431 0.868269
vt 0.015999 0.825857
vt 0.098186 0.429502
vt 0.107075 0.401403
vt 0.098186 0.401403
vt 0.098186 0.395935
vt 0.107075 0.367120
vt 0.098186 0.367120
vt 0.101425 0.398669
vt 0.107075 0.395935
vt 0.960982 0.927702
vt 0.931326 0.902366
vt 0.931353 0.927732
vt 0.960982 0.933263
vt 0.931326 0.957881
vt 0.960952 0.961362
vt 0.744976 0.856142
vt 0.749081 0.825288
vt 0.745023 0.826513
vt 0.916837 0.933215
vt 0.925677 0.930481
vt 0.916838 0.930481
vt 0.786504 0.644282
vt 0.768685 0.685064
vt 0.776534 0.688521
vt 0.916817 0.908165
vt 0.916837 0.927747
vt 0.753137 0.856149
vt 0.753137 0.826519
vt 0.916817 0.952172
vt 0.931353 0.933230
vt 0.753552 0.791199
vt 0.744976 0.788465
vt 0.744976 0.791199
vt 0.753552 0.785731
vt 0.744976 0.766149
vt 0.744976 0.785731
vt 0.753552 0.788465
vt 0.107075 0.398669
vt 0.744976 0.810156
vt 0.753552 0.810156
vt 0.786471 0.695169
vt 0.799768 0.636086
vt 0.818637 0.612983
vt 0.827394 0.711393
vt 0.827394 0.611452
vt 0.895979 0.788363
vt 0.889135 0.778361
vt 0.887212 0.790161
vt 0.897904 0.776563
vt 0.892031 0.739237
vt 0.896249 0.728000
vt 0.887212 0.732162
vt 0.896123 0.796938
vt 0.887355 0.798737
vt 0.847741 0.007566
vt 0.862342 0.017893
vt 0.856317 0.007566
vt 0.856317 0.083226
vt 0.847746 0.027104
vt 0.847756 0.083226
vt 0.613117 0.864764
vt 0.606258 0.854827
vt 0.604336 0.866628
vt 0.615039 0.852963
vt 0.609290 0.811017
vt 0.613368 0.799793
vt 0.618322 0.806776
vt 0.613209 0.873340
vt 0.604429 0.875204
vt 0.324004 0.842573
vt 0.316763 0.832743
vt 0.314967 0.844563
vt 0.325800 0.830752
vt 0.319940 0.784306
vt 0.324243 0.772890
vt 0.314967 0.777337
vt 0.324214 0.851147
vt 0.315177 0.853137
vt 0.837709 0.802273
vt 0.831282 0.792301
vt 0.829521 0.804127
vt 0.839471 0.790447
vt 0.834571 0.739000
vt 0.837912 0.728000
vt 0.829521 0.732087
vt 0.837922 0.810846
vt 0.829733 0.812700
vt 0.468634 0.310943
vt 0.461909 0.301076
vt 0.460160 0.312903
vt 0.470383 0.299116
vt 0.465285 0.243294
vt 0.468833 0.232161
vt 0.460160 0.236437
vt 0.468827 0.319517
vt 0.460353 0.321477
vt 0.789331 0.316456
vt 0.779345 0.307336
vt 0.777825 0.319196
vt 0.790850 0.304597
vt 0.782847 0.244988
vt 0.789578 0.232161
vt 0.777825 0.238054
vt 0.789788 0.325020
vt 0.778282 0.327760
vt 0.580462 0.885949
vt 0.573566 0.888376
vt 0.582142 0.888376
vt 0.579787 0.818319
vt 0.588167 0.878048
vt 0.582142 0.815892
vt 0.585448 0.877643
vt 0.573581 0.815892
vt 0.573581 0.818319
vt 0.719887 0.944731
vt 0.713006 0.942304
vt 0.713007 0.944731
vt 0.719335 0.986709
vt 0.727607 0.952632
vt 0.724861 0.952972
vt 0.713021 0.989136
vt 0.713020 0.986709
vt 0.522339 0.961314
vt 0.514118 0.956190
vt 0.514099 0.963070
vt 0.696665 0.782588
vt 0.689720 0.775064
vt 0.688505 0.784675
vt 0.523975 0.944939
vt 0.517804 0.912577
vt 0.515735 0.946702
vt 0.694124 0.839967
vt 0.689566 0.849155
vt 0.697874 0.844917
vt 0.807487 0.834872
vt 0.800591 0.832448
vt 0.800602 0.834872
vt 0.806825 0.900274
vt 0.815192 0.842776
vt 0.812476 0.843117
vt 0.800606 0.902677
vt 0.800615 0.900274
vt 0.972706 0.867636
vt 0.979595 0.865209
vt 0.972717 0.865209
vt 0.987307 0.857309
vt 0.979020 0.820970
vt 0.984564 0.856956
vt 0.972721 0.818543
vt 0.972730 0.820970
vt 0.969504 0.009992
vt 0.962639 0.007566
vt 0.962629 0.009992
vt 0.968943 0.056636
vt 0.977240 0.017893
vt 0.974502 0.018244
vt 0.962655 0.059063
vt 0.962664 0.056636
vt 0.964049 0.536957
vt 0.957169 0.534530
vt 0.957171 0.536957
vt 0.963448 0.588341
vt 0.971770 0.544858
vt 0.969037 0.545223
vt 0.957184 0.590768
vt 0.957193 0.588341
vt 0.952250 0.290653
vt 0.959128 0.288227
vt 0.952246 0.288227
vt 0.966852 0.280326
vt 0.958521 0.234588
vt 0.964108 0.279941
vt 0.952266 0.232161
vt 0.952275 0.234588
vt 0.939791 0.009993
vt 0.932896 0.007566
vt 0.932910 0.009993
vt 0.939168 0.066027
vt 0.947497 0.017893
vt 0.944775 0.018238
vt 0.932911 0.068544
vt 0.932923 0.066027
vt 0.922512 0.295550
vt 0.929399 0.293128
vt 0.922515 0.293128
vt 0.937113 0.285223
vt 0.928766 0.234555
vt 0.934383 0.284842
vt 0.922528 0.232161
vt 0.922529 0.234555
vt 0.665512 0.866714
vt 0.658633 0.864287
vt 0.658631 0.866714
vt 0.664871 0.927379
vt 0.673234 0.874614
vt 0.670502 0.874921
vt 0.667209 0.864287
vt 0.658648 0.929931
vt 0.658645 0.927379
vt 0.897563 0.679344
vt 0.904499 0.676914
vt 0.897614 0.676914
vt 0.912164 0.669017
vt 0.903846 0.613898
vt 0.909486 0.668651
vt 0.897578 0.611452
vt 0.897627 0.613898
vt 0.768582 0.216090
vt 0.775476 0.213663
vt 0.768593 0.213663
vt 0.783183 0.205763
vt 0.774871 0.164690
vt 0.780447 0.205394
vt 0.768597 0.162263
vt 0.768606 0.164690
vt 0.522587 0.903508
vt 0.514099 0.907464
vt 0.261776 0.877560
vt 0.266814 0.868269
vt 0.258125 0.872451
vt 0.744850 0.380725
vt 0.749524 0.371573
vt 0.741145 0.375685
vt 0.873505 0.621000
vt 0.878661 0.611452
vt 0.869730 0.616025
vt 0.125963 0.786531
vt 0.130529 0.777257
vt 0.122207 0.781565
vt 0.131575 0.837193
vt 0.123425 0.839229
vt 0.879779 0.666950
vt 0.871050 0.669054
vt 0.750698 0.422233
vt 0.742518 0.424141
vt 0.268005 0.914378
vt 0.259539 0.916288
vt 0.522358 0.954436
vt 0.266592 0.923921
vt 0.749323 0.431802
vt 0.878454 0.676528
vt 0.130351 0.846766
vt 0.689394 0.768177
vt 0.697874 0.773027
vt 0.697549 0.766149
vt 0.130688 0.853643
vt 0.122207 0.848756
vt 0.122544 0.855629
vt 0.878697 0.683408
vt 0.869730 0.678598
vt 0.869973 0.685475
vt 0.749530 0.438681
vt 0.741145 0.433698
vt 0.741353 0.440572
vt 0.266779 0.930802
vt 0.258125 0.925832
vt 0.258312 0.932704
vt 0.818961 0.712868
vt 0.048521 0.757229
vt 0.066281 0.798067
vt 0.056376 0.753786
vt 0.048489 0.808159
vt 0.035192 0.749075
vt 0.016323 0.725972
vt 0.007566 0.824383
vt 0.015999 0.825857
vt 0.889751 0.838918
vt 0.896595 0.828916
vt 0.887827 0.827118
vt 0.892647 0.878042
vt 0.898519 0.840717
vt 0.896864 0.889279
vt 0.901685 0.882204
vt 0.896739 0.820341
vt 0.887971 0.818543
vt 0.389951 0.798243
vt 0.404552 0.787916
vt 0.395976 0.787916
vt 0.395976 0.863575
vt 0.404547 0.807454
vt 0.872442 0.242601
vt 0.865584 0.252537
vt 0.874364 0.254402
vt 0.868615 0.296348
vt 0.877647 0.300589
vt 0.872693 0.307571
vt 0.872535 0.234025
vt 0.863661 0.240737
vt 0.714801 0.786544
vt 0.722043 0.776713
vt 0.713006 0.774723
vt 0.717978 0.834980
vt 0.723838 0.788534
vt 0.722281 0.846396
vt 0.727253 0.839427
vt 0.722252 0.768140
vt 0.713216 0.766149
vt 0.428799 0.778786
vt 0.435227 0.768814
vt 0.427039 0.766960
vt 0.432088 0.832086
vt 0.436988 0.780640
vt 0.435429 0.843086
vt 0.440479 0.836173
vt 0.435439 0.760240
vt 0.427251 0.758386
vt 0.802340 0.748402
vt 0.809066 0.738534
vt 0.800591 0.736574
vt 0.805716 0.806182
vt 0.810815 0.750362
vt 0.809264 0.817316
vt 0.814389 0.810459
vt 0.809259 0.729960
vt 0.800784 0.728000
vt 0.770204 0.748423
vt 0.780190 0.739304
vt 0.768684 0.736564
vt 0.773706 0.810772
vt 0.781709 0.751163
vt 0.780437 0.823599
vt 0.785458 0.816665
vt 0.780647 0.730740
vt 0.769141 0.728000
vt 0.865799 0.888599
vt 0.872695 0.891026
vt 0.872694 0.888599
vt 0.866474 0.820970
vt 0.858094 0.880699
vt 0.860813 0.880293
vt 0.872680 0.818543
vt 0.872680 0.820970
vt 0.666351 0.947490
vt 0.673232 0.945063
vt 0.664656 0.945063
vt 0.666903 0.989468
vt 0.658631 0.955390
vt 0.664656 0.991895
vt 0.661377 0.955730
vt 0.673217 0.991895
vt 0.673218 0.989468
vt 0.954176 0.729756
vt 0.945955 0.734880
vt 0.954195 0.736634
vt 0.837683 0.359331
vt 0.844628 0.351807
vt 0.836474 0.349770
vt 0.955813 0.746131
vt 0.949641 0.778493
vt 0.958115 0.782469
vt 0.844782 0.425898
vt 0.840224 0.416710
vt 0.836474 0.421660
vt 0.900484 0.234584
vt 0.907380 0.232161
vt 0.898804 0.232161
vt 0.901145 0.299986
vt 0.892779 0.242488
vt 0.898803 0.302389
vt 0.895495 0.242830
vt 0.907364 0.302389
vt 0.907355 0.299987
vt 0.980959 0.774666
vt 0.987848 0.777093
vt 0.987837 0.774666
vt 0.981533 0.730427
vt 0.973247 0.766766
vt 0.975990 0.766413
vt 0.979272 0.777093
vt 0.987833 0.728000
vt 0.979272 0.728000
vt 0.045046 0.926440
vt 0.051911 0.924014
vt 0.043334 0.924014
vt 0.045607 0.973084
vt 0.037310 0.934341
vt 0.043334 0.975511
vt 0.040048 0.934692
vt 0.051895 0.975511
vt 0.051886 0.973084
vt 0.964751 0.613879
vt 0.971631 0.611452
vt 0.963055 0.611452
vt 0.965351 0.665263
vt 0.957030 0.621780
vt 0.963055 0.667690
vt 0.959762 0.622145
vt 0.971616 0.667690
vt 0.971606 0.665263
vt 0.578867 0.959574
vt 0.585744 0.962000
vt 0.585749 0.959574
vt 0.579474 0.905935
vt 0.571143 0.951673
vt 0.573886 0.951288
vt 0.577168 0.962000
vt 0.585729 0.903508
vt 0.577168 0.903508
vt 0.612042 0.892763
vt 0.618937 0.890336
vt 0.610361 0.890336
vt 0.612664 0.948797
vt 0.604336 0.900664
vt 0.610361 0.951314
vt 0.607057 0.901008
vt 0.618922 0.951314
vt 0.618909 0.948797
vt 0.930227 0.403859
vt 0.937114 0.406281
vt 0.937111 0.403859
vt 0.930862 0.345286
vt 0.922513 0.395954
vt 0.925243 0.395573
vt 0.928537 0.406281
vt 0.937099 0.342892
vt 0.928538 0.342892
vt 0.434760 0.860645
vt 0.441640 0.858218
vt 0.433063 0.858218
vt 0.435401 0.921310
vt 0.427038 0.868546
vt 0.433063 0.923862
vt 0.429771 0.868852
vt 0.441624 0.923862
vt 0.441627 0.921310
vt 0.015232 0.906451
vt 0.022167 0.908882
vt 0.022117 0.906451
vt 0.015885 0.843435
vt 0.007566 0.898554
vt 0.010245 0.898188
vt 0.013591 0.908882
vt 0.022152 0.840989
vt 0.013591 0.840989
vt 0.716822 0.213663
vt 0.723716 0.216090
vt 0.723705 0.213663
vt 0.717427 0.164690
vt 0.709115 0.205763
vt 0.711852 0.205394
vt 0.715140 0.216090
vt 0.723701 0.162263
vt 0.715140 0.162263
vt 0.954424 0.787562
vt 0.945937 0.783606
vt 0.324933 0.932704
vt 0.319895 0.923413
vt 0.316245 0.928523
vt 0.839262 0.896832
vt 0.834588 0.887680
vt 0.830884 0.892720
vt 0.495198 0.889914
vt 0.490041 0.880366
vt 0.486267 0.885341
vt 0.850986 0.535127
vt 0.846420 0.525853
vt 0.842665 0.530819
vt 0.845843 0.361418
vt 0.848529 0.420951
vt 0.852033 0.475191
vt 0.854737 0.530167
vt 0.496315 0.834417
vt 0.498967 0.884946
vt 0.840436 0.846172
vt 0.842961 0.891799
vt 0.326125 0.886596
vt 0.328575 0.927607
vt 0.947572 0.744369
vt 0.317658 0.884685
vt 0.324712 0.877052
vt 0.316245 0.875142
vt 0.832257 0.844264
vt 0.839061 0.836603
vt 0.830884 0.834707
vt 0.487587 0.832313
vt 0.494990 0.824839
vt 0.486267 0.822769
vt 0.843883 0.473155
vt 0.850809 0.465617
vt 0.842665 0.463628
vt 0.844953 0.344920
vt 0.851145 0.458741
vt 0.495233 0.817959
vt 0.839269 0.829724
vt 0.324898 0.870172
vt 0.107075 0.429502
vt 0.745023 0.826513
vt 0.776534 0.688521
vt 0.753137 0.826519
vt 0.744976 0.785731
vt 0.827394 0.611452
vt 0.887212 0.732162
vt 0.847756 0.083226
vt 0.604336 0.804035
vt 0.604429 0.875204
vt 0.314967 0.777337
vt 0.829521 0.732087
vt 0.460160 0.236437
vt 0.777825 0.238054
vt 0.582142 0.888376
vt 0.582142 0.815892
vt 0.713007 0.944731
vt 0.514099 0.963070
vt 0.800602 0.834872
vt 0.972730 0.820970
vt 0.962629 0.009992
vt 0.957171 0.536957
vt 0.952275 0.234588
vt 0.932910 0.009993
vt 0.922529 0.234555
vt 0.658631 0.866714
vt 0.897627 0.613898
vt 0.768606 0.164690
vt 0.697549 0.766149
vt 0.122544 0.855629
vt 0.869973 0.685475
vt 0.741353 0.440572
vt 0.258312 0.932704
vt 0.056376 0.753786
vt 0.901685 0.882204
vt 0.863661 0.303330
vt 0.727253 0.839427
vt 0.440479 0.836173
vt 0.814389 0.810459
vt 0.785458 0.816665
vt 0.872694 0.888599
vt 0.664656 0.945063
vt 0.664656 0.991895
vt 0.958115 0.782469
vt 0.848529 0.420951
vt 0.898804 0.232161
vt 0.898803 0.302389
vt 0.979272 0.777093
vt 0.979272 0.728000
vt 0.043334 0.924014
vt 0.043334 0.975511
vt 0.963055 0.611452
vt 0.963055 0.667690
vt 0.577168 0.962000
vt 0.577168 0.903508
vt 0.610361 0.890336
vt 0.610361 0.951314
vt 0.928537 0.406281
vt 0.928538 0.342892
vt 0.433063 0.923862
vt 0.013591 0.908882
vt 0.013591 0.840989
vt 0.715140 0.216090
vt 0.715140 0.162263
vt 0.328575 0.927607
vt 0.842961 0.891799
vt 0.498967 0.884946
vt 0.854737 0.530167
vt 0.107075 0.429502
vt 0.960952 0.898887
vt 0.749053 0.860954
vt 0.778655 0.640825
vt 0.753552 0.766149
vt 0.901069 0.735075
vt 0.604336 0.804035
vt 0.329215 0.779859
vt 0.842961 0.734913
vt 0.473958 0.239018
vt 0.794599 0.239094
vt 0.573567 0.885949
vt 0.721582 0.942304
vt 0.721582 0.989136
vt 0.526278 0.908601
vt 0.685818 0.844208
vt 0.809167 0.832448
vt 0.809167 0.902677
vt 0.981282 0.867636
vt 0.981282 0.818543
vt 0.971216 0.007566
vt 0.971216 0.059063
vt 0.965745 0.534530
vt 0.965745 0.590768
vt 0.960827 0.290653
vt 0.960827 0.232161
vt 0.941472 0.007566
vt 0.941472 0.068544
vt 0.931089 0.295550
vt 0.931089 0.232161
vt 0.667209 0.929931
vt 0.906139 0.679344
vt 0.906139 0.611452
vt 0.777158 0.216090
vt 0.777158 0.162263
vt 0.270456 0.873367
vt 0.753223 0.376606
vt 0.882431 0.616420
vt 0.134279 0.782217
vt 0.058427 0.801510
vt 0.007566 0.724442
vt 0.887827 0.885117
vt 0.404537 0.863575
vt 0.863661 0.303330
vt 0.863754 0.232161
vt 0.713006 0.841950
vt 0.427039 0.838999
vt 0.800591 0.813040
vt 0.768684 0.817706
vt 0.864119 0.891026
vt 0.864119 0.818543
vt 0.673231 0.947490
vt 0.945937 0.728000
vt 0.907369 0.234584
vt 0.987824 0.730427
vt 0.051921 0.926440
vt 0.971629 0.613879
vt 0.585720 0.905935
vt 0.618923 0.892763
vt 0.937098 0.345286
vt 0.441641 0.860645
vt 0.022103 0.843435
vt 0.723692 0.164690
vt 0.836799 0.342892
vt 0.843001 0.456755
vt 0.486509 0.815892
vt 0.831091 0.827832
vt 0.316431 0.868269
vn 0.0000 -1.0000 0.0000
vn 0.0000 -0.3800 -0.9250
vn -0.7407 -0.2549 -0.6216
vn -0.0000 0.2212 -0.9752
vn -0.0257 0.2164 -0.9760
vn 0.9506 0.3104 0.0001
vn 0.0115 0.2138 -0.9768
vn 0.0000 0.2117 -0.9773
vn 0.7407 -0.2549 -0.6216
vn 0.7408 -0.2549 -0.6215
vn -0.0114 0.2138 -0.9768
vn 0.0000 1.0000 0.0003
vn 0.0001 1.0000 0.0003
vn 0.0257 0.2164 -0.9760
vn 0.5030 -0.0138 -0.8642
vn 0.5029 -0.0138 -0.8642
vn -0.8523 -0.5231 0.0000
vn -0.2651 -0.2978 -0.9171
vn -0.1758 -0.2884 -0.9412
vn -0.3922 -0.3069 -0.8672
vn 0.5039 -0.0061 -0.8638
vn 0.5039 -0.0061 -0.8637
vn -0.1441 -0.2561 -0.9558
vn -0.1441 -0.2561 -0.9559
vn -0.8524 -0.5228 0.0000
vn 0.9508 0.3099 0.0001
vn -0.0000 1.0000 0.0001
vn -0.0001 1.0000 0.0002
vn 0.0000 1.0000 0.0000
vn 0.5038 -0.0177 -0.8636
vn -0.1289 -0.2627 -0.9562
vn -0.8518 -0.5239 0.0000
vn 0.9505 0.3107 0.0001
vn 0.5039 -0.0123 -0.8637
vn -0.1171 -0.2517 -0.9607
vn -0.1172 -0.2517 -0.9607
vn -0.8521 -0.5234 0.0000
vn 0.9506 0.3103 0.0001
vn 0.5038 -0.0174 -0.8636
vn -0.1069 -0.2530 -0.9615
vn 0.9505 0.3106 0.0001
vn 0.5038 -0.0236 -0.8635
vn -0.0986 -0.2564 -0.9615
vn -0.8515 -0.5244 0.0000
vn 0.9504 0.3111 0.0001
vn 0.5039 -0.0015 -0.8638
vn 0.5039 -0.0015 -0.8637
vn -0.0916 -0.2287 -0.9692
vn -0.8527 -0.5224 0.0000
vn 0.9509 0.3096 0.0001
vn 0.0000 -1.0000 -0.0002
vn -0.0001 -1.0000 -0.0002
vn 0.0000 -1.0000 -0.0001
vn 0.0001 -1.0000 0.0000
vn 0.0001 -1.0000 0.0001
vn 0.0001 1.0000 0.0001
vn 0.0001 1.0000 0.0002
vn -0.0001 1.0000 0.0000
vn 0.9502 0.3115 0.0001
vn 0.5163 -0.0095 -0.8564
vn 0.5163 -0.0095 -0.8563
vn 0.5162 -0.0094 -0.8564
vn -0.1504 -0.2842 -0.9469
vn -0.1503 -0.2843 -0.9469
vn -0.1503 -0.2842 -0.9469
vn -0.8533 -0.5215 0.0000
vn -0.8533 -0.5215 0.0001
vn -0.0029 1.0000 0.0016
vn -0.0038 1.0000 0.0002
vn -0.0027 1.0000 0.0018
vn 0.0022 1.0000 0.0018
vn -0.0007 1.0000 0.0035
vn 0.0021 1.0000 0.0019
vn -0.0009 1.0000 0.0034
vn 0.0038 1.0000 -0.0001
vn -0.0002 -1.0000 -0.0002
vn -0.0002 -1.0000 -0.0001
vn -0.0000 1.0000 0.0002
vn -0.0001 1.0000 -0.0001
vn 0.0002 1.0000 0.0001
vn 0.0003 1.0000 0.0002
vn 0.0002 1.0000 0.0000
vn -0.0001 1.0000 0.0001
vn -0.0001 -1.0000 -0.0001
vn -0.0003 -1.0000 -0.0002
vn -0.0001 -1.0000 -0.0000
vn -0.0005 1.0000 0.0004
vn -0.0007 1.0000 0.0003
vn 0.0003 1.0000 0.0003
vn -0.0001 1.0000 0.0007
vn -0.0002 1.0000 0.0007
vn 0.0005 1.0000 -0.0000
vn 0.0031 -1.0000 -0.0018
vn 0.0041 -1.0000 -0.0003
vn -0.0025 -1.0000 -0.0021
vn 0.0008 -1.0000 -0.0037
vn 0.0009 -1.0000 -0.0038
vn 0.0030 -1.0000 -0.0020
vn -0.0043 -1.0000 0.0000
vn -0.0023 -1.0000 -0.0022
vn 0.0003 1.0000 0.0001
vn 0.0006 1.0000 0.0002
vn 0.0003 1.0000 0.0000
vn -0.0003 1.0000 -0.0002
vn 0.0000 1.0000 -0.0002
vn 0.0001 1.0000 -0.0002
vn -0.0005 1.0000 0.0000
vn -0.0000 -1.0000 0.0001
vn -0.8511 -0.5250 0.0000
vn -0.8521 -0.5233 0.0000
vn -0.8521 -0.5233 0.0001
vn -0.8518 -0.5238 0.0000
vn -0.8459 -0.5333 0.0000
vn -0.8473 -0.5311 0.0000
vn -0.0937 -0.2463 -0.9646
vn -0.0937 -0.2464 -0.9646
vn -0.1014 -0.2435 -0.9646
vn -0.1100 -0.2544 -0.9608
vn -0.1211 -0.2580 -0.9585
vn -0.1347 -0.2576 -0.9568
vn 0.5161 -0.0242 -0.8562
vn 0.5162 -0.0243 -0.8561
vn 0.5165 -0.0068 -0.8563
vn 0.5167 -0.0070 -0.8561
vn 0.5166 -0.0069 -0.8562
vn 0.5158 -0.0105 -0.8566
vn 0.5160 -0.0107 -0.8565
vn 0.5159 -0.0106 -0.8566
vn 0.5163 -0.0102 -0.8563
vn 0.5164 -0.0103 -0.8563
vn 0.5180 -0.0023 -0.8554
vn 0.5183 -0.0026 -0.8552
vn 0.5182 -0.0025 -0.8553
vn 0.9507 0.3102 0.0001
vn 0.9506 0.3105 0.0001
vn -0.1560 -0.2860 -0.9454
vn -0.9500 0.3122 0.0001
vn -0.5010 -0.0142 -0.8653
vn -0.5011 -0.0141 -0.8653
vn 0.8523 -0.5231 0.0000
vn 0.2651 -0.2978 -0.9171
vn 0.3922 -0.3069 -0.8672
vn 0.1758 -0.2884 -0.9412
vn -0.5039 -0.0061 -0.8637
vn 0.1441 -0.2561 -0.9558
vn 0.1441 -0.2562 -0.9558
vn 0.8524 -0.5228 0.0000
vn -0.9508 0.3099 0.0001
vn 0.0002 1.0000 0.0002
vn -0.5038 -0.0177 -0.8636
vn 0.1289 -0.2627 -0.9562
vn 0.1289 -0.2626 -0.9562
vn 0.8518 -0.5239 0.0000
vn -0.9505 0.3107 0.0001
vn -0.5039 -0.0123 -0.8637
vn 0.1172 -0.2517 -0.9607
vn 0.8521 -0.5234 0.0000
vn -0.9506 0.3103 0.0001
vn -0.5038 -0.0173 -0.8636
vn 0.1069 -0.2530 -0.9615
vn 0.8518 -0.5238 0.0000
vn -0.5038 -0.0236 -0.8635
vn 0.0986 -0.2564 -0.9615
vn 0.8515 -0.5244 0.0000
vn -0.9504 0.3111 0.0001
vn -0.5039 -0.0015 -0.8638
vn 0.0916 -0.2287 -0.9692
vn 0.8527 -0.5224 0.0000
vn -0.9509 0.3096 0.0001
vn 0.0001 -1.0000 -0.0002
vn -0.0000 1.0000 -0.0001
vn -0.9502 0.3115 0.0001
vn -0.9503 0.3115 0.0001
vn -0.5163 -0.0096 -0.8563
vn -0.5163 -0.0095 -0.8563
vn -0.5162 -0.0094 -0.8564
vn 0.1503 -0.2843 -0.9469
vn 0.1503 -0.2842 -0.9469
vn 0.8533 -0.5215 0.0000
vn 0.0029 1.0000 0.0016
vn 0.0038 1.0000 0.0003
vn 0.0039 1.0000 0.0003
vn -0.0022 1.0000 0.0018
vn 0.0007 1.0000 0.0034
vn 0.0009 1.0000 0.0034
vn -0.0039 1.0000 -0.0000
vn -0.0039 1.0000 -0.0001
vn 0.0001 -1.0000 -0.0001
vn -0.0002 1.0000 0.0001
vn -0.0003 1.0000 0.0002
vn -0.0001 -1.0000 0.0001
vn 0.0005 1.0000 0.0004
vn -0.0003 1.0000 0.0003
vn 0.0001 1.0000 0.0007
vn 0.0002 1.0000 0.0007
vn -0.0042 -1.0000 -0.0002
vn -0.0028 -1.0000 -0.0018
vn -0.0008 -1.0000 -0.0039
vn 0.0024 -1.0000 -0.0019
vn -0.0009 -1.0000 -0.0039
vn 0.0042 -1.0000 0.0001
vn -0.0004 1.0000 0.0000
vn 0.0002 1.0000 -0.0002
vn -0.0001 1.0000 -0.0003
vn 0.0008 1.0000 -0.0000
vn 0.0003 -1.0000 -0.0002
vn 0.0002 -1.0000 -0.0001
vn -0.0002 -1.0000 0.0000
vn -0.0003 -1.0000 0.0001
vn 0.8511 -0.5250 0.0000
vn 0.8521 -0.5233 0.0000
vn 0.8459 -0.5333 0.0000
vn 0.8473 -0.5311 0.0000
vn 0.0937 -0.2464 -0.9646
vn 0.0937 -0.2463 -0.9646
vn 0.1014 -0.2435 -0.9646
vn 0.1100 -0.2544 -0.9608
vn 0.1211 -0.2580 -0.9585
vn 0.1347 -0.2576 -0.9568
vn 0.1347 -0.2577 -0.9568
vn -0.5161 -0.0242 -0.8562
vn -0.5162 -0.0243 -0.8561
vn -0.5165 -0.0068 -0.8563
vn -0.5167 -0.0070 -0.8561
vn -0.5166 -0.0069 -0.8562
vn -0.5158 -0.0106 -0.8566
vn -0.5160 -0.0107 -0.8565
vn -0.5159 -0.0106 -0.8566
vn -0.5163 -0.0102 -0.8564
vn -0.5164 -0.0103 -0.8563
vn -0.5163 -0.0103 -0.8563
vn -0.5180 -0.0023 -0.8554
vn -0.5183 -0.0026 -0.8552
vn -0.5181 -0.0025 -0.8553
vn -0.9507 0.3102 0.0001
vn -0.9506 0.3105 0.0001
vn -0.9505 0.3106 0.0001
vn -0.9506 0.3104 0.0001
vn 0.1560 -0.2860 -0.9454
vn 0.0000 0.3798 0.9251
vn 0.7405 0.2549 0.6218
vn 0.7405 0.2549 0.6219
vn 0.0257 -0.2162 0.9760
vn 0.0000 -0.2210 0.9753
vn -0.9506 -0.3104 -0.0001
vn -0.0114 -0.2137 0.9768
vn 0.0000 -0.2116 0.9774
vn -0.0257 -0.2162 0.9760
vn -0.7406 0.2549 0.6218
vn -0.7405 0.2549 0.6218
vn 0.0114 -0.2137 0.9768
vn -0.0000 -1.0000 -0.0003
vn -0.5027 0.0137 0.8643
vn -0.5027 0.0138 0.8644
vn 0.8523 0.5231 0.0000
vn 0.2650 0.2976 0.9172
vn 0.3920 0.3067 0.8673
vn 0.1757 0.2883 0.9413
vn -0.5037 0.0061 0.8639
vn 0.1440 0.2560 0.9559
vn 0.8524 0.5228 0.0000
vn -0.9508 -0.3099 -0.0001
vn -0.5036 0.0177 0.8637
vn 0.1288 0.2625 0.9563
vn 0.8518 0.5239 0.0000
vn -0.9505 -0.3107 -0.0001
vn -0.5036 0.0123 0.8638
vn 0.1171 0.2515 0.9607
vn 0.8521 0.5234 0.0000
vn -0.9506 -0.3103 -0.0001
vn -0.5036 0.0173 0.8638
vn 0.1069 0.2528 0.9616
vn 0.1068 0.2528 0.9616
vn -0.9505 -0.3106 -0.0001
vn -0.5035 0.0236 0.8636
vn -0.5036 0.0236 0.8636
vn 0.0986 0.2563 0.9616
vn 0.8515 0.5244 0.0000
vn -0.9504 -0.3111 -0.0001
vn -0.5037 0.0015 0.8639
vn 0.0916 0.2286 0.9692
vn 0.0915 0.2286 0.9692
vn 0.8527 0.5224 0.0000
vn -0.9509 -0.3096 -0.0001
vn -0.9502 -0.3115 -0.0001
vn -0.5158 0.0092 0.8566
vn -0.5161 0.0095 0.8565
vn -0.5159 0.0094 0.8566
vn 0.1503 0.2841 0.9469
vn 0.1503 0.2841 0.9470
vn 0.8533 0.5215 -0.0000
vn 0.8533 0.5215 -0.0001
vn 0.0029 -1.0000 -0.0016
vn 0.0038 -1.0000 -0.0002
vn 0.0039 -1.0000 -0.0002
vn -0.0022 -1.0000 -0.0018
vn 0.0007 -1.0000 -0.0035
vn 0.0009 -1.0000 -0.0035
vn -0.0038 -1.0000 0.0001
vn 0.0005 -1.0000 -0.0004
vn 0.0007 -1.0000 -0.0003
vn -0.0003 -1.0000 -0.0003
vn 0.0001 -1.0000 -0.0007
vn 0.0002 -1.0000 -0.0007
vn -0.0005 -1.0000 0.0000
vn -0.0041 1.0000 0.0003
vn -0.0031 1.0000 0.0018
vn -0.0008 1.0000 0.0037
vn 0.0025 1.0000 0.0020
vn -0.0009 1.0000 0.0037
vn 0.0043 1.0000 0.0000
vn -0.0003 -1.0000 -0.0001
vn -0.0006 -1.0000 -0.0002
vn -0.0007 -1.0000 -0.0002
vn 0.0003 -1.0000 0.0002
vn -0.0000 -1.0000 0.0002
vn -0.0001 -1.0000 0.0002
vn -0.0003 -1.0000 -0.0000
vn 0.0005 -1.0000 0.0000
vn 0.8511 0.5250 -0.0000
vn 0.8521 0.5233 -0.0000
vn 0.8521 0.5233 -0.0001
vn 0.8518 0.5238 -0.0000
vn 0.8459 0.5333 -0.0000
vn 0.8473 0.5311 0.0000
vn 0.0936 0.2462 0.9647
vn 0.1013 0.2433 0.9646
vn 0.1099 0.2542 0.9609
vn 0.1210 0.2578 0.9586
vn 0.1210 0.2579 0.9586
vn 0.1346 0.2575 0.9569
vn -0.5159 0.0242 0.8563
vn -0.5160 0.0243 0.8563
vn -0.5165 0.0070 0.8563
vn -0.5164 0.0068 0.8563
vn -0.5156 0.0105 0.8568
vn -0.5158 0.0107 0.8567
vn -0.5156 0.0106 0.8567
vn -0.5161 0.0103 0.8565
vn -0.5162 0.0103 0.8564
vn -0.5161 0.0102 0.8565
vn -0.5177 0.0023 0.8555
vn -0.5177 0.0023 0.8556
vn -0.5179 0.0025 0.8555
vn -0.9507 -0.3102 -0.0001
vn -0.9506 -0.3105 -0.0001
vn 0.1560 0.2859 0.9455
vn 0.9500 -0.3122 -0.0001
vn 0.5009 0.0141 0.8654
vn 0.5008 0.0141 0.8654
vn -0.8523 0.5231 0.0000
vn -0.2650 0.2976 0.9172
vn -0.1757 0.2883 0.9413
vn -0.3920 0.3067 0.8673
vn 0.5037 0.0061 0.8639
vn -0.1440 0.2560 0.9559
vn -0.8524 0.5228 0.0000
vn 0.9508 -0.3099 -0.0001
vn 0.5036 0.0178 0.8638
vn 0.5036 0.0177 0.8638
vn -0.1288 0.2626 0.9563
vn -0.1288 0.2625 0.9563
vn -0.8518 0.5239 0.0000
vn 0.9505 -0.3107 -0.0001
vn 0.5036 0.0123 0.8638
vn -0.1171 0.2516 0.9607
vn -0.1171 0.2515 0.9607
vn -0.8521 0.5234 0.0000
vn 0.9506 -0.3103 -0.0001
vn 0.5036 0.0174 0.8638
vn -0.1068 0.2529 0.9616
vn -0.1069 0.2529 0.9616
vn -0.8518 0.5238 0.0000
vn 0.5035 0.0236 0.8637
vn -0.0986 0.2563 0.9616
vn -0.8515 0.5244 0.0000
vn 0.9504 -0.3111 -0.0001
vn 0.5037 0.0015 0.8639
vn -0.0915 0.2286 0.9692
vn -0.0916 0.2286 0.9692
vn -0.8527 0.5224 0.0000
vn 0.9509 -0.3096 -0.0001
vn 0.9502 -0.3115 -0.0001
vn 0.5158 0.0092 0.8566
vn 0.5161 0.0095 0.8565
vn 0.5160 0.0094 0.8566
vn -0.1503 0.2841 0.9469
vn -0.8533 0.5215 -0.0000
vn -0.0029 -1.0000 -0.0016
vn -0.0038 -1.0000 -0.0003
vn -0.0027 -1.0000 -0.0018
vn 0.0022 -1.0000 -0.0018
vn -0.0007 -1.0000 -0.0034
vn 0.0021 -1.0000 -0.0019
vn -0.0009 -1.0000 -0.0034
vn 0.0039 -1.0000 0.0000
vn 0.0039 -1.0000 0.0001
vn 0.0002 -1.0000 -0.0000
vn 0.0001 1.0000 -0.0001
vn -0.0005 -1.0000 -0.0004
vn 0.0003 -1.0000 -0.0003
vn -0.0001 -1.0000 -0.0007
vn -0.0002 -1.0000 -0.0007
vn 0.0028 1.0000 0.0018
vn 0.0042 1.0000 0.0002
vn -0.0024 1.0000 0.0019
vn 0.0008 1.0000 0.0038
vn 0.0009 1.0000 0.0038
vn 0.0031 1.0000 0.0020
vn -0.0042 1.0000 -0.0001
vn -0.0023 1.0000 0.0021
vn 0.0004 -1.0000 -0.0000
vn -0.0002 -1.0000 0.0002
vn 0.0001 -1.0000 0.0003
vn -0.0004 -1.0000 0.0000
vn 0.0001 1.0000 -0.0000
vn -0.8511 0.5250 -0.0000
vn -0.8521 0.5233 -0.0000
vn -0.8459 0.5333 -0.0000
vn -0.8473 0.5311 -0.0000
vn -0.0936 0.2462 0.9647
vn -0.1014 0.2433 0.9646
vn -0.1013 0.2433 0.9646
vn -0.1099 0.2542 0.9609
vn -0.1210 0.2578 0.9586
vn -0.1210 0.2579 0.9586
vn -0.1346 0.2575 0.9569
vn 0.5159 0.0242 0.8563
vn 0.5160 0.0243 0.8563
vn 0.5161 0.0245 0.8562
vn 0.5163 0.0068 0.8564
vn 0.5165 0.0070 0.8563
vn 0.5164 0.0069 0.8563
vn 0.5156 0.0105 0.8568
vn 0.5158 0.0107 0.8567
vn 0.5158 0.0107 0.8566
vn 0.5161 0.0102 0.8565
vn 0.5162 0.0103 0.8564
vn 0.5180 0.0025 0.8554
vn 0.5180 0.0026 0.8554
vn 0.5179 0.0025 0.8554
vn 0.9507 -0.3102 -0.0001
vn 0.9506 -0.3105 -0.0001
vn 0.9505 -0.3106 -0.0001
vn 0.9506 -0.3104 -0.0001
vn -0.1560 0.2859 0.9455
vn 0.5030 -0.0137 -0.8642
vn 0.5039 -0.0060 -0.8638
vn 0.5038 -0.0123 -0.8637
vn -0.0039 1.0000 0.0002
vn 0.0004 1.0000 0.0003
vn 0.5166 -0.0068 -0.8562
vn 0.5181 -0.0024 -0.8553
vn 0.1171 -0.2517 -0.9607
vn -0.5038 -0.0174 -0.8636
vn 0.0027 1.0000 0.0018
vn -0.0021 1.0000 0.0019
vn -0.0002 1.0000 0.0000
vn -0.0031 -1.0000 -0.0020
vn 0.0023 -1.0000 -0.0020
vn 0.8518 -0.5238 0.0001
vn 0.8460 -0.5333 0.0000
vn -0.5159 -0.0107 -0.8566
vn -0.5182 -0.0025 -0.8553
vn -0.5028 0.0137 0.8643
vn 0.1068 0.2529 0.9616
vn -0.5035 0.0236 0.8637
vn 0.0027 -1.0000 -0.0018
vn -0.0021 -1.0000 -0.0019
vn -0.0030 1.0000 0.0020
vn 0.0023 1.0000 0.0022
vn -0.5161 0.0245 0.8562
vn -0.5164 0.0069 0.8563
vn -0.5157 0.0106 0.8567
vn -0.5179 0.0025 0.8554
vn 0.9503 -0.3115 -0.0001
vn 0.5160 0.0094 0.8565
vn -0.1503 0.2841 0.9470
vn -0.0039 -1.0000 -0.0003
vn 0.0003 1.0000 -0.0001
vn -0.8518 0.5238 -0.0001
vn -0.8460 0.5333 -0.0000
vn 0.5156 0.0106 0.8567
vn 0.5179 0.0024 0.8555
usemtl emrysChevron.002
s 1
f 2/1/1 4/2/1 1/3/1
f 6/4/1 8/5/1 5/6/1
f 7/7/1 10/8/1 8/5/1
f 8/9/2 12/10/2 5/11/2
f 13/12/2 1/13/2 4/14/2
f 11/15/3 10/16/3 15/17/3
f 15/18/4 17/19/5 16/20/4
f 18/21/6 20/22/6 21/23/6
f 11/24/7 23/25/8 12/10/8
f 10/16/9 14/26/10 15/17/10
f 14/27/11 18/28/8 17/19/5
f 24/29/12 16/30/12 17/31/13
f 22/32/12 27/33/12 23/34/12
f 25/35/12 22/32/12 16/30/12
f 2/1/1 10/8/1 9/36/1
f 21/37/12 17/31/13 18/38/12
f 15/18/4 22/39/14 11/24/7
f 28/40/15 18/21/16 13/41/16
f 4/42/17 29/43/17 30/44/17
f 4/42/18 28/40/19 13/41/20
f 32/45/21 34/46/22 31/47/22
f 35/48/23 33/49/23 32/45/24
f 35/48/25 38/50/25 36/51/25
f 31/47/26 40/52/26 39/53/26
f 42/54/27 44/55/27 41/56/28
f 45/57/29 43/58/27 42/54/27
f 47/59/30 49/60/30 50/61/30
f 50/61/31 51/62/31 52/63/31
f 51/62/32 54/64/32 52/63/32
f 55/65/33 48/66/33 47/59/33
f 58/67/34 60/68/34 57/69/34
f 61/70/35 59/71/36 58/67/36
f 61/70/37 64/72/37 62/73/37
f 57/69/38 66/74/38 65/75/38
f 68/76/39 70/77/39 67/78/39
f 71/79/40 69/80/40 68/76/40
f 71/79/32 74/81/32 72/82/32
f 67/78/41 76/83/41 75/84/41
f 78/85/42 80/86/42 77/87/42
f 81/88/43 79/89/43 78/85/43
f 81/88/44 84/90/44 82/91/44
f 77/87/45 86/92/45 85/93/45
f 88/94/46 41/95/46 87/96/47
f 89/97/48 42/98/48 88/94/48
f 89/97/49 46/99/49 45/100/49
f 87/96/50 44/101/50 91/102/50
f 92/103/51 91/104/52 93/105/52
f 94/106/1 88/107/53 95/108/53
f 88/107/53 92/103/51 95/108/53
f 90/109/54 94/106/1 96/110/55
f 97/111/56 20/112/57 19/113/56
f 99/114/29 28/115/29 30/116/29
f 97/111/56 28/115/29 100/117/29
f 99/114/29 29/118/58 101/119/58
f 102/120/59 97/121/59 103/122/59
f 104/123/60 92/124/61 105/125/62
f 106/126/63 99/127/64 107/128/65
f 96/129/66 109/130/66 108/131/67
f 105/132/68 86/133/69 80/134/70
f 109/135/71 79/136/72 82/137/73
f 105/132/68 79/136/72 104/138/74
f 109/135/71 84/139/75 108/140/75
f 103/141/53 39/142/76 102/143/77
f 107/144/1 32/145/53 106/146/53
f 103/141/53 32/145/53 31/147/53
f 107/144/1 37/148/1 35/149/1
f 112/150/78 40/151/57 34/152/78
f 114/153/56 33/154/27 36/155/56
f 112/150/78 33/154/27 115/156/27
f 114/153/56 38/157/79 116/158/79
f 117/159/80 55/160/81 47/161/82
f 119/162/29 50/163/29 52/164/29
f 117/159/80 50/163/29 120/165/83
f 119/162/29 54/166/58 121/167/79
f 123/168/84 65/169/76 122/170/85
f 125/171/86 58/172/1 124/173/1
f 123/168/84 58/172/1 57/174/84
f 125/171/86 63/175/1 61/176/84
f 127/177/87 66/178/88 60/179/87
f 129/180/89 59/181/90 62/182/89
f 127/177/87 59/181/90 130/183/91
f 129/180/89 64/184/92 131/185/92
f 133/186/93 75/187/94 132/188/94
f 135/189/95 68/190/96 134/191/97
f 133/186/93 68/190/96 67/192/98
f 135/189/95 73/193/99 71/194/100
f 137/195/101 76/196/102 70/197/103
f 139/198/104 69/199/105 72/200/104
f 140/201/106 70/197/103 69/199/105
f 139/198/104 74/202/107 141/203/107
f 143/204/84 85/205/85 142/206/85
f 145/207/55 78/208/108 144/209/108
f 143/204/84 78/208/108 77/210/84
f 145/207/55 83/211/54 81/212/55
f 148/213/84 56/214/52 147/215/52
f 150/216/1 49/217/1 149/218/1
f 148/213/84 49/217/1 48/219/84
f 150/216/1 53/220/1 51/221/1
f 111/222/109 99/127/109 101/223/109
f 151/224/110 114/225/110 116/226/111
f 126/227/112 119/228/112 121/229/112
f 136/230/113 129/231/113 131/232/113
f 146/233/114 139/234/114 141/235/114
f 95/236/115 109/130/116 94/237/116
f 144/238/117 139/234/117 145/239/117
f 134/240/118 129/231/118 135/241/118
f 124/242/119 119/228/119 125/243/119
f 149/244/120 114/225/120 150/245/120
f 100/246/121 103/122/122 97/121/122
f 115/247/123 148/248/124 112/249/125
f 120/250/126 123/251/127 117/252/128
f 130/253/129 133/254/130 127/255/130
f 140/256/131 143/257/132 137/258/133
f 93/259/33 105/125/33 92/124/33
f 142/260/134 137/258/134 143/257/134
f 132/261/135 127/255/135 133/254/135
f 122/262/41 117/252/41 123/251/41
f 147/263/6 112/249/6 148/248/6
f 30/44/136 28/40/19 4/42/18
f 23/264/137 152/265/137 153/266/137
f 23/264/138 154/267/139 12/268/139
f 5/269/140 156/270/140 6/271/140
f 5/269/141 12/268/142 154/267/143
f 158/272/144 160/273/144 157/274/144
f 159/275/145 162/276/146 160/273/145
f 162/276/147 163/277/147 164/278/147
f 166/279/148 157/274/148 165/280/148
f 168/281/78 170/282/27 167/283/149
f 171/284/29 169/285/27 172/286/29
f 173/287/150 175/288/150 176/289/150
f 174/290/151 178/291/151 175/288/152
f 179/292/153 178/291/153 177/293/153
f 181/294/154 176/289/154 182/295/154
f 184/296/155 186/297/155 183/298/155
f 185/299/156 188/300/156 186/297/156
f 188/300/157 189/301/157 190/302/157
f 192/303/158 183/298/158 191/304/158
f 194/305/159 196/306/159 193/307/159
f 195/308/160 198/309/160 196/306/160
f 198/309/161 199/310/161 200/311/161
f 202/312/154 193/307/154 201/313/154
f 204/314/162 206/315/162 203/316/162
f 205/317/163 208/318/163 206/315/163
f 208/318/164 209/319/164 210/320/164
f 212/321/165 203/316/165 211/322/165
f 167/323/166 214/324/166 213/325/166
f 170/326/167 215/327/167 214/324/167
f 215/327/168 172/328/168 216/329/168
f 168/330/169 213/325/169 217/331/169
f 218/332/51 217/333/170 213/334/51
f 220/335/54 214/336/53 215/337/54
f 218/332/51 214/336/53 221/338/53
f 220/335/54 216/339/1 222/340/108
f 223/341/78 152/342/28 224/343/28
f 225/344/83 154/345/27 226/346/27
f 154/345/27 223/341/78 226/346/27
f 156/347/29 225/344/83 227/348/171
f 228/349/172 223/350/172 224/351/173
f 230/352/174 218/353/175 221/354/176
f 232/355/177 225/356/178 226/357/177
f 235/358/179 222/359/179 234/360/179
f 231/361/180 212/362/181 236/363/182
f 235/364/183 205/365/184 230/366/185
f 205/365/184 231/361/180 230/366/185
f 209/367/186 235/364/183 234/368/187
f 165/369/170 229/370/53 228/371/188
f 160/372/1 233/373/1 232/374/53
f 229/370/53 160/372/1 232/374/53
f 233/373/1 164/375/1 237/376/1
f 238/377/83 166/378/28 239/379/28
f 240/380/83 159/381/27 241/382/27
f 159/381/27 238/377/83 241/382/27
f 163/383/29 240/380/83 242/384/171
f 243/385/189 181/386/190 244/387/190
f 245/388/58 174/389/29 246/390/56
f 174/389/29 243/385/189 246/390/56
f 179/391/29 245/388/58 247/392/171
f 191/393/170 249/394/51 248/395/188
f 186/396/53 251/397/188 250/398/53
f 249/394/51 186/396/53 250/398/53
f 251/397/188 190/399/191 252/400/191
f 253/401/192 192/402/102 254/403/102
f 255/404/193 185/405/194 256/406/195
f 185/405/194 253/401/192 256/406/195
f 189/407/107 255/404/193 257/408/107
f 201/409/196 259/410/197 258/411/196
f 196/412/198 261/413/199 260/414/200
f 259/410/197 196/412/198 260/414/200
f 261/413/199 200/415/201 262/416/201
f 263/417/202 202/418/88 264/419/88
f 265/420/203 195/421/204 266/422/204
f 266/422/204 194/423/202 263/417/202
f 199/424/205 265/420/203 267/425/205
f 211/426/206 269/427/207 268/428/206
f 206/429/1 271/430/191 270/431/1
f 269/427/207 206/429/1 270/431/1
f 271/430/191 210/432/208 272/433/209
f 182/434/170 274/435/170 273/436/170
f 175/437/53 276/438/1 275/439/53
f 274/435/170 175/437/53 275/439/53
f 276/438/1 180/440/86 277/441/191
f 225/356/210 237/442/210 227/443/210
f 240/444/211 277/445/211 242/446/211
f 245/447/161 252/448/161 247/449/161
f 255/450/212 262/451/212 257/452/212
f 265/453/213 272/454/213 267/455/213
f 221/354/214 235/358/214 230/352/215
f 270/456/216 265/453/216 266/457/216
f 260/458/217 255/450/217 256/459/217
f 250/460/218 245/447/218 246/461/218
f 275/462/219 240/444/220 241/463/220
f 226/357/221 229/464/222 232/355/222
f 241/463/223 274/465/224 275/462/225
f 246/461/226 249/466/227 250/460/228
f 256/459/229 259/467/230 260/458/231
f 266/457/232 269/468/233 270/456/234
f 219/469/154 231/470/154 236/471/154
f 268/472/235 263/473/235 264/474/235
f 258/475/236 253/476/236 254/477/236
f 248/478/237 243/479/237 244/480/237
f 273/481/238 238/482/238 239/483/238
f 155/484/239 5/269/141 154/267/143
f 279/485/29 281/486/29 278/487/29
f 283/488/29 285/489/29 282/490/29
f 286/491/29 284/492/29 283/488/29
f 283/493/240 288/494/240 289/495/240
f 278/496/240 291/497/240 279/498/240
f 289/499/241 286/500/242 283/501/242
f 294/502/243 292/503/244 293/504/244
f 295/505/245 297/506/245 298/507/245
f 289/495/246 299/508/247 300/509/248
f 286/500/249 290/510/250 278/511/249
f 295/512/247 290/513/251 294/502/243
f 294/514/252 301/515/252 302/516/252
f 300/517/252 303/518/252 304/519/252
f 300/517/252 301/515/252 293/520/252
f 286/491/29 281/486/29 287/521/29
f 294/514/252 296/522/252 295/523/252
f 292/503/244 300/509/248 293/504/244
f 295/505/253 305/524/253 291/525/254
f 279/526/255 307/527/255 280/528/255
f 279/526/256 291/525/257 305/524/258
f 309/529/259 311/530/259 308/531/259
f 310/532/260 313/533/260 311/530/260
f 313/533/261 314/534/261 315/535/261
f 317/536/262 308/531/262 316/537/262
f 319/538/53 321/539/53 318/540/170
f 322/541/1 320/542/53 323/543/1
f 324/544/263 326/545/263 327/546/263
f 325/547/264 329/548/264 326/545/264
f 330/549/265 329/548/265 328/550/265
f 332/551/266 327/546/266 333/552/266
f 335/553/267 337/554/267 334/555/267
f 336/556/268 339/557/268 337/554/268
f 339/557/269 340/558/269 341/559/269
f 343/560/270 334/555/270 342/561/270
f 345/562/271 347/563/271 344/564/271
f 346/565/272 349/566/273 347/563/272
f 349/566/265 350/567/265 351/568/265
f 353/569/274 344/564/274 352/570/274
f 355/571/275 357/572/275 354/573/276
f 356/574/277 359/575/277 357/572/277
f 359/575/278 360/576/278 361/577/278
f 363/578/279 354/573/279 362/579/279
f 318/580/280 365/581/280 364/582/280
f 321/583/281 366/584/282 365/581/281
f 366/584/283 323/585/283 367/586/283
f 319/587/284 364/582/284 368/588/284
f 369/589/78 368/590/57 364/591/78
f 371/592/29 365/593/27 366/594/29
f 369/589/78 365/593/27 372/595/27
f 371/592/29 367/596/82 373/597/82
f 374/598/84 297/599/52 375/600/52
f 376/601/1 305/602/1 377/603/1
f 305/602/1 374/598/84 377/603/1
f 307/604/54 376/601/1 378/605/54
f 379/606/285 374/607/285 375/608/285
f 381/609/286 369/610/287 372/611/288
f 383/612/289 376/613/290 377/614/290
f 386/615/291 373/616/291 385/617/292
f 382/618/293 363/619/294 387/620/295
f 386/621/296 356/622/297 381/623/298
f 356/622/297 382/618/293 381/623/298
f 360/624/299 386/621/296 385/625/299
f 316/626/149 380/627/27 379/628/80
f 311/629/29 384/630/29 383/631/27
f 380/627/27 311/629/29 383/631/27
f 384/630/29 315/632/29 388/633/29
f 389/634/51 317/635/52 390/636/52
f 391/637/84 310/638/53 392/639/53
f 310/638/53 389/634/51 392/639/53
f 314/640/55 391/637/84 393/641/55
f 394/642/77 332/643/85 395/644/85
f 396/645/1 325/646/1 397/647/188
f 325/646/1 394/642/77 397/647/188
f 330/648/54 396/645/1 398/649/55
f 342/650/149 400/651/56 399/652/81
f 337/653/29 402/654/56 401/655/29
f 400/651/56 337/653/29 401/655/29
f 402/654/56 341/656/29 403/657/171
f 404/658/300 343/659/301 405/660/301
f 406/661/302 336/662/303 407/663/304
f 336/662/303 404/658/300 407/663/304
f 340/664/305 406/661/302 408/665/305
f 352/666/306 410/667/307 409/668/306
f 347/669/308 412/670/309 411/671/310
f 410/667/307 347/669/308 411/671/310
f 412/670/309 351/672/311 413/673/311
f 414/674/312 353/675/313 415/676/314
f 416/677/315 346/678/316 417/679/317
f 417/679/317 345/680/318 414/674/312
f 350/681/319 416/677/315 418/682/319
f 362/683/81 420/684/56 419/685/81
f 357/686/171 422/687/79 421/688/105
f 420/684/56 357/686/171 421/688/105
f 422/687/79 361/689/58 423/690/58
f 333/691/57 425/692/56 424/693/57
f 326/694/29 427/695/29 426/696/29
f 425/692/56 326/694/29 426/696/29
f 427/695/29 331/697/29 428/698/29
f 376/613/320 388/699/320 378/700/320
f 391/701/321 428/702/321 393/703/322
f 396/704/323 403/705/323 398/706/323
f 406/707/324 413/708/324 408/709/324
f 416/710/325 423/711/325 418/712/325
f 372/611/326 386/615/326 381/609/326
f 421/713/327 416/710/327 417/714/327
f 411/715/328 406/707/328 407/716/328
f 401/717/329 396/704/330 397/718/329
f 426/719/331 391/701/331 392/720/331
f 377/614/332 380/721/333 383/612/332
f 392/720/334 425/722/334 426/719/335
f 397/718/336 400/723/337 401/717/338
f 407/716/339 410/724/340 411/715/341
f 417/714/342 420/725/343 421/713/344
f 370/726/266 382/727/266 387/728/266
f 419/729/345 414/730/345 415/731/345
f 409/732/346 404/733/346 405/734/346
f 399/735/274 394/736/274 395/737/274
f 424/738/245 389/739/245 390/740/245
f 306/741/347 279/526/256 305/524/258
f 299/742/348 430/743/348 303/744/348
f 431/745/349 299/742/349 288/746/350
f 282/747/351 432/748/351 433/749/351
f 282/747/352 431/745/353 288/746/354
f 435/750/355 437/751/355 434/752/355
f 438/753/356 436/754/356 435/750/356
f 438/753/357 441/755/357 439/756/357
f 434/752/358 443/757/358 442/758/358
f 445/759/53 447/760/53 444/761/76
f 448/762/1 446/763/53 445/759/53
f 450/764/359 452/765/359 453/766/360
f 453/766/361 454/767/361 455/768/362
f 454/767/363 457/769/363 455/768/363
f 458/770/364 451/771/364 450/764/364
f 461/772/365 463/773/365 460/774/365
f 464/775/366 462/776/367 461/772/367
f 464/775/368 467/777/368 465/778/368
f 460/774/369 469/779/369 468/780/369
f 471/781/370 473/782/370 470/783/370
f 474/784/371 472/785/372 471/781/371
f 474/784/373 477/786/373 475/787/373
f 470/783/364 479/788/364 478/789/364
f 481/790/374 483/791/374 480/792/374
f 484/793/375 482/794/375 481/790/375
f 484/793/376 487/795/376 485/796/376
f 480/792/377 489/797/377 488/798/377
f 491/799/378 444/800/378 490/801/378
f 492/802/379 445/803/380 491/799/379
f 492/802/381 449/804/381 448/805/381
f 490/801/382 447/806/382 494/807/382
f 495/808/78 494/809/28 496/810/28
f 497/811/58 491/812/27 498/813/27
f 491/812/27 495/808/78 498/813/27
f 493/814/29 497/811/58 499/815/171
f 500/816/51 430/817/170 429/818/51
f 502/819/188 431/820/53 433/821/188
f 500/816/51 431/820/53 503/822/53
f 502/819/188 432/823/1 504/824/108
f 505/825/383 500/826/383 506/827/383
f 507/828/384 495/829/385 508/830/386
f 509/831/387 502/832/387 510/833/387
f 499/834/388 512/835/388 511/836/388
f 508/837/389 489/838/390 483/839/391
f 512/840/392 482/841/393 485/842/394
f 508/837/389 482/841/393 507/843/395
f 512/840/392 487/844/396 511/845/397
f 506/846/27 442/847/28 505/848/83
f 510/849/29 435/850/27 509/851/27
f 506/846/27 435/850/27 434/852/27
f 510/849/29 440/853/29 438/854/29
f 515/855/188 443/856/170 437/857/188
f 517/858/188 436/859/53 439/860/188
f 515/855/188 436/859/53 518/861/53
f 517/858/188 441/862/1 519/863/108
f 520/864/207 458/865/206 450/866/398
f 522/867/54 453/868/1 455/869/188
f 520/864/207 453/868/1 523/870/84
f 522/867/54 457/871/1 524/872/108
f 526/873/78 468/874/28 525/875/83
f 528/876/58 461/877/27 527/878/27
f 526/873/78 461/877/27 460/879/78
f 528/876/58 466/880/399 464/881/83
f 530/882/400 469/883/313 463/884/400
f 532/885/401 462/886/402 465/887/401
f 530/882/400 462/886/402 533/888/403
f 532/885/401 467/889/319 534/890/319
f 536/891/404 478/892/405 535/893/405
f 538/894/406 471/895/407 537/896/408
f 536/891/404 471/895/407 470/897/409
f 538/894/406 476/898/410 474/899/411
f 540/900/412 479/901/301 473/902/412
f 542/903/413 472/904/414 475/905/413
f 543/906/414 473/902/412 472/904/414
f 542/903/413 477/907/415 544/908/415
f 546/909/189 488/910/190 545/911/190
f 548/912/416 481/913/29 547/914/29
f 546/909/189 481/913/29 480/915/189
f 548/912/416 486/916/82 484/917/416
f 551/918/28 459/919/28 550/920/28
f 553/921/29 452/922/27 552/923/27
f 551/918/28 452/922/27 451/924/83
f 553/921/29 456/925/416 454/926/29
f 514/927/417 502/832/417 504/928/417
f 554/929/418 517/930/418 519/931/418
f 529/932/373 522/933/373 524/934/373
f 539/935/419 532/936/419 534/937/419
f 549/938/420 542/939/420 544/940/420
f 498/941/421 512/835/421 497/942/421
f 547/943/422 542/939/422 548/944/423
f 537/945/424 532/936/424 538/946/424
f 527/947/425 522/933/426 528/948/426
f 552/949/427 517/930/427 553/950/427
f 503/951/428 506/827/429 500/826/430
f 518/952/431 551/953/432 515/954/433
f 523/955/434 526/956/435 520/957/436
f 533/958/437 536/959/438 530/960/438
f 543/961/439 546/962/440 540/963/441
f 496/964/364 508/830/364 495/829/364
f 545/965/442 540/963/442 546/962/442
f 535/966/443 530/960/443 536/959/443
f 525/967/444 520/957/444 526/956/444
f 550/968/445 515/954/445 551/953/445
f 433/749/446 431/745/353 282/747/352
f 2/1/1 3/969/1 4/2/1
f 6/4/1 7/7/1 8/5/1
f 7/7/1 9/36/1 10/8/1
f 8/9/2 11/24/2 12/10/2
f 13/12/2 14/27/2 1/13/2
f 11/15/3 8/970/3 10/16/3
f 15/18/4 14/27/11 17/19/5
f 18/21/6 19/971/6 20/22/6
f 11/24/7 22/39/14 23/25/8
f 10/16/9 1/972/9 14/26/10
f 14/27/11 13/12/8 18/28/8
f 24/29/12 25/35/12 16/30/12
f 22/32/12 26/973/12 27/33/12
f 25/35/12 26/973/12 22/32/12
f 2/1/1 1/3/1 10/8/1
f 21/37/12 24/29/12 17/31/13
f 15/18/4 16/20/4 22/39/14
f 28/40/15 19/971/447 18/21/16
f 4/42/17 3/974/17 29/43/17
f 32/45/21 33/49/448 34/46/22
f 35/48/23 36/51/23 33/49/23
f 35/48/25 37/975/25 38/50/25
f 31/47/26 34/46/26 40/52/26
f 42/54/27 43/58/27 44/55/27
f 45/57/29 46/976/29 43/58/27
f 47/59/30 48/66/30 49/60/30
f 50/61/31 49/60/31 51/62/31
f 51/62/32 53/977/32 54/64/32
f 55/65/33 56/978/33 48/66/33
f 58/67/34 59/71/449 60/68/34
f 61/70/35 62/73/36 59/71/36
f 61/70/37 63/979/37 64/72/37
f 57/69/38 60/68/38 66/74/38
f 68/76/39 69/80/39 70/77/39
f 71/79/40 72/82/40 69/80/40
f 71/79/32 73/980/32 74/81/32
f 67/78/41 70/77/41 76/83/41
f 78/85/42 79/89/42 80/86/42
f 81/88/43 82/91/43 79/89/43
f 81/88/44 83/981/44 84/90/44
f 77/87/45 80/86/45 86/92/45
f 88/94/46 42/98/46 41/95/46
f 89/97/48 45/100/48 42/98/48
f 89/97/49 90/982/49 46/99/49
f 87/96/50 41/95/50 44/101/50
f 92/103/51 87/983/51 91/104/52
f 94/106/1 89/984/1 88/107/53
f 88/107/53 87/983/51 92/103/51
f 90/109/54 89/984/1 94/106/1
f 97/111/56 98/985/57 20/112/57
f 99/114/29 100/117/29 28/115/29
f 97/111/56 19/113/56 28/115/29
f 99/114/29 30/116/29 29/118/58
f 102/120/59 98/986/59 97/121/59
f 104/123/60 95/236/62 92/124/61
f 106/126/63 100/246/63 99/127/64
f 96/129/66 94/237/66 109/130/66
f 105/132/68 110/987/450 86/133/69
f 109/135/71 104/138/74 79/136/72
f 105/132/68 80/134/70 79/136/72
f 109/135/71 82/137/73 84/139/75
f 103/141/53 31/147/53 39/142/76
f 107/144/1 35/149/1 32/145/53
f 103/141/53 106/146/53 32/145/53
f 107/144/1 111/988/1 37/148/1
f 112/150/78 113/989/57 40/151/57
f 114/153/56 115/156/27 33/154/27
f 112/150/78 34/152/78 33/154/27
f 114/153/56 36/155/56 38/157/79
f 117/159/80 118/990/81 55/160/81
f 119/162/29 120/165/83 50/163/29
f 117/159/80 47/161/82 50/163/29
f 119/162/29 52/164/29 54/166/58
f 123/168/84 57/174/84 65/169/76
f 125/171/86 61/176/84 58/172/1
f 123/168/84 124/173/1 58/172/1
f 125/171/86 126/991/108 63/175/1
f 127/177/87 128/992/88 66/178/88
f 129/180/89 130/183/91 59/181/90
f 127/177/87 60/179/87 59/181/90
f 129/180/89 62/182/89 64/184/92
f 133/186/93 67/192/98 75/187/94
f 135/189/95 71/194/100 68/190/96
f 133/186/93 134/191/97 68/190/96
f 135/189/95 136/993/99 73/193/99
f 137/195/101 138/994/451 76/196/102
f 139/198/104 140/201/106 69/199/105
f 140/201/106 137/195/101 70/197/103
f 139/198/104 72/200/104 74/202/107
f 143/204/84 77/210/84 85/205/85
f 145/207/55 81/212/55 78/208/108
f 143/204/84 144/209/108 78/208/108
f 145/207/55 146/995/54 83/211/54
f 148/213/84 48/219/84 56/214/52
f 150/216/1 51/221/1 49/217/1
f 148/213/84 149/218/1 49/217/1
f 150/216/1 151/996/1 53/220/1
f 111/222/109 107/128/109 99/127/109
f 151/224/110 150/245/110 114/225/110
f 126/227/112 125/243/112 119/228/112
f 136/230/113 135/241/113 129/231/113
f 146/233/114 145/239/114 139/234/114
f 95/236/115 104/123/115 109/130/116
f 144/238/117 140/256/117 139/234/117
f 134/240/118 130/253/118 129/231/118
f 124/242/119 120/250/119 119/228/119
f 149/244/120 115/247/120 114/225/120
f 100/246/121 106/126/122 103/122/122
f 115/247/123 149/244/452 148/248/124
f 120/250/126 124/242/128 123/251/127
f 130/253/129 134/240/129 133/254/130
f 140/256/131 144/238/453 143/257/132
f 93/259/33 110/997/33 105/125/33
f 142/260/134 138/998/134 137/258/134
f 132/261/135 128/999/135 127/255/135
f 122/262/41 118/1000/41 117/252/41
f 147/263/6 113/1001/6 112/249/6
f 23/264/137 27/1002/137 152/265/137
f 23/264/138 153/266/139 154/267/139
f 5/269/140 155/484/140 156/270/140
f 158/272/144 159/275/144 160/273/144
f 159/275/145 161/1003/145 162/276/146
f 162/276/147 161/1003/147 163/277/147
f 166/279/148 158/272/148 157/274/148
f 168/281/78 169/285/27 170/282/27
f 171/284/29 170/282/27 169/285/27
f 173/287/150 174/290/150 175/288/150
f 174/290/151 177/293/151 178/291/151
f 179/292/153 180/1004/153 178/291/153
f 181/294/154 173/287/154 176/289/154
f 184/296/155 185/299/155 186/297/155
f 185/299/156 187/1005/454 188/300/156
f 188/300/157 187/1005/157 189/301/157
f 192/303/158 184/296/158 183/298/158
f 194/305/159 195/308/455 196/306/159
f 195/308/160 197/1006/160 198/309/160
f 198/309/161 197/1006/161 199/310/161
f 202/312/154 194/305/154 193/307/154
f 204/314/162 205/317/162 206/315/162
f 205/317/163 207/1007/163 208/318/163
f 208/318/164 207/1007/164 209/319/164
f 212/321/165 204/314/165 203/316/165
f 167/323/166 170/326/166 214/324/166
f 170/326/167 171/1008/167 215/327/167
f 215/327/168 171/1008/168 172/328/168
f 168/330/169 167/323/169 213/325/169
f 218/332/51 219/1009/170 217/333/170
f 220/335/54 221/338/53 214/336/53
f 218/332/51 213/334/51 214/336/53
f 220/335/54 215/337/54 216/339/1
f 223/341/78 153/1010/78 152/342/28
f 225/344/83 155/1011/83 154/345/27
f 154/345/27 153/1010/78 223/341/78
f 156/347/29 155/1011/83 225/344/83
f 228/349/172 229/464/172 223/350/172
f 230/352/174 231/470/176 218/353/175
f 232/355/177 233/1012/177 225/356/178
f 235/358/179 220/1013/179 222/359/179
f 231/361/180 204/1014/456 212/362/181
f 235/364/183 207/1015/457 205/365/184
f 205/365/184 204/1014/456 231/361/180
f 209/367/186 207/1015/457 235/364/183
f 165/369/170 157/1016/53 229/370/53
f 160/372/1 162/1017/1 233/373/1
f 229/370/53 157/1016/53 160/372/1
f 233/373/1 162/1017/1 164/375/1
f 238/377/83 158/1018/83 166/378/28
f 240/380/83 161/1019/83 159/381/27
f 159/381/27 158/1018/83 238/377/83
f 163/383/29 161/1019/83 240/380/83
f 243/385/189 173/1020/458 181/386/190
f 245/388/58 177/1021/83 174/389/29
f 174/389/29 173/1020/458 243/385/189
f 179/391/29 177/1021/83 245/388/58
f 191/393/170 183/1022/51 249/394/51
f 186/396/53 188/1023/188 251/397/188
f 249/394/51 183/1022/51 186/396/53
f 251/397/188 188/1023/188 190/399/191
f 253/401/192 184/1024/192 192/402/102
f 255/404/193 187/1025/193 185/405/194
f 185/405/194 184/1024/192 253/401/192
f 189/407/107 187/1025/193 255/404/193
f 201/409/196 193/1026/459 259/410/197
f 196/412/198 198/1027/460 261/413/199
f 259/410/197 193/1026/459 196/412/198
f 261/413/199 198/1027/460 200/415/201
f 263/417/202 194/423/202 202/418/88
f 265/420/203 197/1028/203 195/421/204
f 266/422/204 195/421/204 194/423/202
f 199/424/205 197/1028/203 265/420/203
f 211/426/206 203/1029/207 269/427/207
f 206/429/1 208/1030/191 271/430/191
f 269/427/207 203/1029/207 206/429/1
f 271/430/191 208/1030/191 210/432/208
f 182/434/170 176/1031/188 274/435/170
f 175/437/53 178/1032/1 276/438/1
f 274/435/170 176/1031/188 175/437/53
f 276/438/1 178/1032/1 180/440/86
f 225/356/210 233/1012/210 237/442/210
f 240/444/211 276/1033/211 277/445/211
f 245/447/161 251/1034/461 252/448/161
f 255/450/212 261/1035/462 262/451/212
f 265/453/213 271/1036/213 272/454/213
f 221/354/214 220/1013/214 235/358/214
f 270/456/216 271/1036/216 265/453/216
f 260/458/217 261/1035/217 255/450/217
f 250/460/218 251/1034/218 245/447/218
f 275/462/219 276/1033/220 240/444/220
f 226/357/221 223/350/222 229/464/222
f 241/463/223 238/482/225 274/465/224
f 246/461/226 243/479/463 249/466/227
f 256/459/229 253/476/230 259/467/230
f 266/457/232 263/473/464 269/468/233
f 219/469/154 218/353/154 231/470/154
f 268/472/235 269/468/235 263/473/235
f 258/475/236 259/467/236 253/476/236
f 248/478/237 249/466/237 243/479/237
f 273/481/238 274/465/238 238/482/238
f 279/485/29 280/1037/29 281/486/29
f 283/488/29 284/492/29 285/489/29
f 286/491/29 287/521/29 284/492/29
f 283/493/240 282/1038/240 288/494/240
f 278/496/240 290/513/240 291/497/240
f 289/499/241 292/1039/242 286/500/242
f 294/502/243 290/513/251 292/503/244
f 295/505/245 296/1040/245 297/506/245
f 289/495/246 288/494/247 299/508/247
f 286/500/249 292/1039/250 290/510/250
f 295/512/247 291/497/247 290/513/251
f 294/514/252 293/520/252 301/515/252
f 300/517/252 299/1041/252 303/518/252
f 300/517/252 304/519/252 301/515/252
f 286/491/29 278/487/29 281/486/29
f 294/514/252 302/516/252 296/522/252
f 292/503/244 289/495/246 300/509/248
f 295/505/253 298/507/465 305/524/253
f 279/526/255 306/741/255 307/527/255
f 309/529/259 310/532/259 311/530/259
f 310/532/260 312/1042/260 313/533/260
f 313/533/261 312/1042/261 314/534/261
f 317/536/262 309/529/262 308/531/262
f 319/538/53 320/542/53 321/539/53
f 322/541/1 321/539/53 320/542/53
f 324/544/263 325/547/263 326/545/263
f 325/547/264 328/550/264 329/548/264
f 330/549/265 331/1043/265 329/548/265
f 332/551/266 324/544/266 327/546/266
f 335/553/267 336/556/267 337/554/267
f 336/556/268 338/1044/268 339/557/268
f 339/557/269 338/1044/269 340/558/269
f 343/560/270 335/553/270 334/555/270
f 345/562/271 346/565/271 347/563/271
f 346/565/272 348/1045/466 349/566/273
f 349/566/265 348/1045/265 350/567/265
f 353/569/274 345/562/274 344/564/274
f 355/571/275 356/574/467 357/572/275
f 356/574/277 358/1046/277 359/575/277
f 359/575/278 358/1046/278 360/576/278
f 363/578/279 355/571/279 354/573/279
f 318/580/280 321/583/280 365/581/280
f 321/583/281 322/1047/281 366/584/282
f 366/584/283 322/1047/283 323/585/283
f 319/587/284 318/580/284 364/582/284
f 369/589/78 370/1048/57 368/590/57
f 371/592/29 372/595/27 365/593/27
f 369/589/78 364/591/78 365/593/27
f 371/592/29 366/594/29 367/596/82
f 374/598/84 298/1049/84 297/599/52
f 376/601/1 306/1050/1 305/602/1
f 305/602/1 298/1049/84 374/598/84
f 307/604/54 306/1050/1 376/601/1
f 379/606/285 380/721/285 374/607/285
f 381/609/286 382/727/288 369/610/287
f 383/612/289 384/1051/289 376/613/290
f 386/615/291 371/1052/291 373/616/291
f 382/618/293 355/1053/468 363/619/294
f 386/621/296 358/1054/469 356/622/297
f 356/622/297 355/1053/468 382/618/293
f 360/624/299 358/1054/469 386/621/296
f 316/626/149 308/1055/27 380/627/27
f 311/629/29 313/1056/29 384/630/29
f 380/627/27 308/1055/27 311/629/29
f 384/630/29 313/1056/29 315/632/29
f 389/634/51 309/1057/51 317/635/52
f 391/637/84 312/1058/84 310/638/53
f 310/638/53 309/1057/51 389/634/51
f 314/640/55 312/1058/84 391/637/84
f 394/642/77 324/1059/208 332/643/85
f 396/645/1 328/1060/1 325/646/1
f 325/646/1 324/1059/208 394/642/77
f 330/648/54 328/1060/1 396/645/1
f 342/650/149 334/1061/56 400/651/56
f 337/653/29 339/1062/56 402/654/56
f 400/651/56 334/1061/56 337/653/29
f 402/654/56 339/1062/56 341/656/29
f 404/658/300 335/1063/300 343/659/301
f 406/661/302 338/1064/302 336/662/303
f 336/662/303 335/1063/300 404/658/300
f 340/664/305 338/1064/302 406/661/302
f 352/666/306 344/1065/470 410/667/307
f 347/669/308 349/1066/471 412/670/309
f 410/667/307 344/1065/470 347/669/308
f 412/670/309 349/1066/471 351/672/311
f 414/674/312 345/680/318 353/675/313
f 416/677/315 348/1067/315 346/678/316
f 417/679/317 346/678/316 345/680/318
f 350/681/319 348/1067/315 416/677/315
f 362/683/81 354/1068/56 420/684/56
f 357/686/171 359/1069/79 422/687/79
f 420/684/56 354/1068/56 357/686/171
f 422/687/79 359/1069/79 361/689/58
f 333/691/57 327/1070/56 425/692/56
f 326/694/29 329/1071/29 427/695/29
f 425/692/56 327/1070/56 326/694/29
f 427/695/29 329/1071/29 331/697/29
f 376/613/320 384/1051/320 388/699/320
f 391/701/321 427/1072/321 428/702/321
f 396/704/323 402/1073/323 403/705/323
f 406/707/324 412/1074/324 413/708/324
f 416/710/325 422/1075/325 423/711/325
f 372/611/326 371/1052/326 386/615/326
f 421/713/327 422/1075/327 416/710/327
f 411/715/328 412/1074/328 406/707/328
f 401/717/329 402/1073/330 396/704/330
f 426/719/331 427/1072/331 391/701/331
f 377/614/332 374/607/472 380/721/333
f 392/720/334 389/739/473 425/722/334
f 397/718/336 394/736/474 400/723/337
f 407/716/339 404/733/339 410/724/340
f 417/714/342 414/730/475 420/725/343
f 370/726/266 369/610/266 382/727/266
f 419/729/345 420/725/345 414/730/345
f 409/732/346 410/724/346 404/733/346
f 399/735/274 400/723/274 394/736/274
f 424/738/245 425/722/245 389/739/245
f 299/742/348 429/1076/348 430/743/348
f 431/745/349 429/1076/350 299/742/349
f 282/747/351 285/1077/351 432/748/351
f 435/750/355 436/754/355 437/751/355
f 438/753/356 439/756/356 436/754/356
f 438/753/357 440/1078/357 441/755/357
f 434/752/358 437/751/358 443/757/358
f 445/759/53 446/763/53 447/760/53
f 448/762/1 449/1079/1 446/763/53
f 450/764/359 451/771/359 452/765/359
f 453/766/361 452/765/361 454/767/361
f 454/767/363 456/1080/363 457/769/363
f 458/770/364 459/1081/364 451/771/364
f 461/772/365 462/776/365 463/773/365
f 464/775/366 465/778/366 462/776/367
f 464/775/368 466/1082/368 467/777/368
f 460/774/369 463/773/369 469/779/369
f 471/781/370 472/785/370 473/782/370
f 474/784/371 475/787/371 472/785/372
f 474/784/373 476/1083/363 477/786/373
f 470/783/364 473/782/364 479/788/364
f 481/790/374 482/794/374 483/791/374
f 484/793/375 485/796/375 482/794/375
f 484/793/376 486/1084/376 487/795/376
f 480/792/377 483/791/377 489/797/377
f 491/799/378 445/803/378 444/800/378
f 492/802/379 448/805/380 445/803/380
f 492/802/381 493/1085/381 449/804/381
f 490/801/382 444/800/382 447/806/382
f 495/808/78 490/1086/78 494/809/28
f 497/811/58 492/1087/58 491/812/27
f 491/812/27 490/1086/78 495/808/78
f 493/814/29 492/1087/58 497/811/58
f 500/816/51 501/1088/170 430/817/170
f 502/819/188 503/822/53 431/820/53
f 500/816/51 429/818/51 431/820/53
f 502/819/188 433/821/188 432/823/1
f 505/825/383 501/1089/476 500/826/383
f 507/828/384 498/941/477 495/829/385
f 509/831/387 503/951/478 502/832/387
f 499/834/388 497/942/388 512/835/388
f 508/837/389 513/1090/479 489/838/390
f 512/840/392 507/843/395 482/841/393
f 508/837/389 483/839/391 482/841/393
f 512/840/392 485/842/394 487/844/396
f 506/846/27 434/852/27 442/847/28
f 510/849/29 438/854/29 435/850/27
f 506/846/27 509/851/27 435/850/27
f 510/849/29 514/1091/29 440/853/29
f 515/855/188 516/1092/170 443/856/170
f 517/858/188 518/861/53 436/859/53
f 515/855/188 437/857/188 436/859/53
f 517/858/188 439/860/188 441/862/1
f 520/864/207 521/1093/206 458/865/206
f 522/867/54 523/870/84 453/868/1
f 520/864/207 450/866/398 453/868/1
f 522/867/54 455/869/188 457/871/1
f 526/873/78 460/879/78 468/874/28
f 528/876/58 464/881/83 461/877/27
f 526/873/78 527/878/27 461/877/27
f 528/876/58 529/1094/399 466/880/399
f 530/882/400 531/1095/313 469/883/313
f 532/885/401 533/888/403 462/886/402
f 530/882/400 463/884/400 462/886/402
f 532/885/401 465/887/401 467/889/319
f 536/891/404 470/897/409 478/892/405
f 538/894/406 474/899/411 471/895/407
f 536/891/404 537/896/408 471/895/407
f 538/894/406 539/1096/410 476/898/410
f 540/900/412 541/1097/301 479/901/301
f 542/903/413 543/906/414 472/904/414
f 543/906/414 540/900/412 473/902/412
f 542/903/413 475/905/413 477/907/415
f 546/909/189 480/915/189 488/910/190
f 548/912/416 484/917/416 481/913/29
f 546/909/189 547/914/29 481/913/29
f 548/912/416 549/1098/480 486/916/82
f 551/918/28 451/924/83 459/919/28
f 553/921/29 454/926/29 452/922/27
f 551/918/28 552/923/27 452/922/27
f 553/921/29 554/1099/399 456/925/416
f 514/927/417 510/833/417 502/832/417
f 554/929/418 553/950/418 517/930/418
f 529/932/373 528/948/481 522/933/373
f 539/935/419 538/946/482 532/936/419
f 549/938/420 548/944/420 542/939/420
f 498/941/421 507/828/421 512/835/421
f 547/943/422 543/961/422 542/939/422
f 537/945/424 533/958/424 532/936/424
f 527/947/425 523/955/425 522/933/426
f 552/949/427 518/952/427 517/930/427
f 503/951/428 509/831/428 506/827/429
f 518/952/431 552/949/433 551/953/432
f 523/955/434 527/947/483 526/956/435
f 533/958/437 537/945/437 536/959/438
f 543/961/439 547/943/484 546/962/440
f 496/964/364 513/1100/364 508/830/364
f 545/965/442 541/1101/442 540/963/442
f 535/966/443 531/1102/443 530/960/443
f 525/967/444 521/1103/444 520/957/444
f 550/968/445 516/1104/445 515/954/445
