# Blender v3.0.0 OBJ File: ''
# www.blender.org
mtllib chevron_light.mtl
o movie_chevron_2
v -0.184209 5.041270 0.073252
v 0.184713 5.043580 0.261241
v 0.184501 5.041270 0.073252
v -0.184421 5.043580 0.261241
v 0.139689 4.891480 0.358981
v -0.139397 4.891479 0.358982
v 0.048981 4.631030 0.310867
v -0.048689 4.631029 0.310867
v 0.048980 4.631030 0.192753
v -0.134794 4.898143 0.063644
v -0.048689 4.631029 0.192753
v 0.135085 4.898144 0.063644
v 0.184501 5.041270 -0.073250
v -0.184421 5.043580 -0.261239
v -0.184209 5.041270 -0.073250
v 0.184713 5.043580 -0.261239
v -0.139397 4.891480 -0.358979
v 0.139689 4.891479 -0.358980
v -0.048688 4.631030 -0.310865
v 0.048981 4.631029 -0.310865
v -0.048688 4.631030 -0.192751
v 0.135086 4.898143 -0.063642
v 0.048981 4.631029 -0.192751
v -0.134793 4.898144 -0.063642
vt 0.122275 0.567617
vt 0.240818 0.507207
vt 0.240750 0.567617
vt 0.122207 0.507207
vt 0.226351 0.449113
vt 0.136674 0.449113
vt 0.197204 0.364009
vt 0.331137 0.578382
vt 0.299754 0.616335
vt 0.299754 0.578382
vt 0.358804 0.711665
vt 0.331137 0.616335
vt 0.712044 0.611452
vt 0.658631 0.700071
vt 0.674091 0.611452
vt 0.102488 0.658363
vt 0.049075 0.569744
vt 0.087027 0.569744
vt 0.374683 0.757758
vt 0.272087 0.711665
vt 0.007566 0.659913
vt 0.071044 0.709309
vt 0.010638 0.708567
vt 0.753552 0.701620
vt 0.690075 0.751017
vt 0.122275 0.567617
vt 0.240818 0.507207
vt 0.240750 0.567617
vt 0.122207 0.507207
vt 0.226351 0.449113
vt 0.136674 0.449113
vt 0.197204 0.364009
vt 0.331137 0.578382
vt 0.299754 0.616335
vt 0.299754 0.578382
vt 0.358804 0.711665
vt 0.331137 0.616335
vt 0.712044 0.611452
vt 0.658631 0.700071
vt 0.674091 0.611452
vt 0.102488 0.658363
vt 0.049075 0.569744
vt 0.087027 0.569744
vt 0.374683 0.757758
vt 0.272087 0.711665
vt 0.007566 0.659913
vt 0.071044 0.709309
vt 0.010638 0.708567
vt 0.753552 0.701620
vt 0.690075 0.751017
vt 0.165821 0.364008
vt 0.256208 0.757758
vt 0.750480 0.750275
vt 0.165821 0.364008
vt 0.256208 0.757758
vt 0.750480 0.750275
vn 0.0000 0.9999 -0.0123
vn 0.0000 0.5406 0.8413
vn 0.0000 -0.1817 0.9834
vn 0.0000 -1.0000 -0.0000
vn 0.0000 -0.4352 -0.9003
vn 0.9464 -0.3228 -0.0107
vn 0.9505 -0.3101 -0.0184
vn 0.9444 -0.3289 -0.0000
vn -0.9505 -0.3101 -0.0184
vn -0.9464 -0.3228 -0.0107
vn -0.9444 -0.3289 0.0000
vn -0.0000 0.0670 -0.9978
vn -0.9491 -0.3145 -0.0139
vn -0.9520 -0.3058 -0.0140
vn -0.9452 -0.3265 0.0029
vn 0.9491 -0.3146 -0.0139
vn 0.9520 -0.3058 -0.0140
vn 0.0000 0.9999 0.0123
vn -0.0000 0.5406 -0.8413
vn -0.0000 -0.1817 -0.9834
vn -0.0000 -0.4352 0.9003
vn -0.9464 -0.3228 0.0107
vn -0.9505 -0.3101 0.0184
vn 0.9505 -0.3101 0.0184
vn 0.9464 -0.3228 0.0107
vn 0.0000 0.0670 0.9978
vn 0.9491 -0.3145 0.0139
vn 0.9520 -0.3058 0.0140
vn 0.9452 -0.3265 -0.0029
vn -0.9491 -0.3146 0.0139
vn -0.9520 -0.3058 0.0140
vn 0.9452 -0.3265 0.0029
vn -0.9452 -0.3265 -0.0029
usemtl emrysChevron
s 1
f 1/1/1 2/2/1 3/3/1
f 4/4/2 5/5/2 2/2/2
f 6/6/3 7/7/3 5/5/3
f 8/8/4 9/9/4 7/10/4
f 10/11/5 9/9/5 11/12/5
f 9/13/6 5/14/7 7/15/8
f 6/16/9 11/17/10 8/18/11
f 1/19/12 12/20/12 10/11/12
f 10/21/13 4/22/14 1/23/15
f 12/24/16 2/25/17 5/14/7
f 13/26/18 14/27/18 15/28/18
f 16/29/19 17/30/19 14/27/19
f 18/31/20 19/32/20 17/30/20
f 20/33/4 21/34/4 19/35/4
f 22/36/21 21/34/21 23/37/21
f 21/38/22 17/39/23 19/40/11
f 18/41/24 23/42/25 20/43/8
f 13/44/26 24/45/26 22/36/26
f 22/46/27 16/47/28 13/48/29
f 24/49/30 14/50/31 17/39/23
f 1/1/1 4/4/1 2/2/1
f 4/4/2 6/6/2 5/5/2
f 6/6/3 8/51/3 7/7/3
f 8/8/4 11/12/4 9/9/4
f 10/11/5 12/20/5 9/9/5
f 9/13/6 12/24/16 5/14/7
f 6/16/9 10/21/13 11/17/10
f 1/19/12 3/52/12 12/20/12
f 10/21/13 6/16/9 4/22/14
f 12/24/16 3/53/32 2/25/17
f 13/26/18 16/29/18 14/27/18
f 16/29/19 18/31/19 17/30/19
f 18/31/20 20/54/20 19/32/20
f 20/33/4 23/37/4 21/34/4
f 22/36/21 24/45/21 21/34/21
f 21/38/22 24/49/30 17/39/23
f 18/41/24 22/46/27 23/42/25
f 13/44/26 15/55/26 24/45/26
f 22/46/27 18/41/24 16/47/28
f 24/49/30 15/56/33 14/50/31
