# Blender v3.0.0 OBJ File: ''
# www.blender.org
mtllib chevron_moving_top.mtl
o movie_chevron_main.003
v 0.061882 2.727822 0.130713
v 0.066526 2.742227 0.117297
v 0.061882 2.727822 0.115579
v 0.081214 2.727822 0.142049
v 0.066526 2.742231 0.133487
v 0.145672 2.727822 0.130729
v 0.154934 2.742232 0.117326
v 0.154934 2.742232 0.133487
v 0.090863 2.757004 0.148196
v 0.076514 2.772794 0.139936
v 0.071368 2.757004 0.136823
v 0.164045 2.757004 0.136823
v 0.096010 2.772794 0.151309
v 0.173730 2.772794 0.123774
v 0.173730 2.772794 0.139936
v 0.076514 2.772790 0.123746
v 0.071368 2.757000 0.120632
v 0.147738 2.931216 0.183998
v 0.128242 2.931212 0.156434
v 0.128242 2.931216 0.172624
v 0.271071 2.931216 0.172624
v 0.165125 2.931213 0.156443
v 0.086663 2.803868 0.146384
v 0.100997 2.788076 0.154423
v 0.106158 2.803868 0.157758
v 0.183115 2.788077 0.143049
v 0.192827 2.803868 0.146384
v 0.192827 2.803868 0.130223
v 0.086663 2.803864 0.130194
v 0.081502 2.788076 0.143049
v 0.110986 2.818639 0.160871
v 0.096811 2.834940 0.152833
v 0.091490 2.818639 0.149498
v 0.201912 2.818640 0.149498
v 0.116306 2.834940 0.164207
v 0.211924 2.834940 0.136672
v 0.211924 2.834940 0.152833
v 0.096811 2.834936 0.136643
v 0.091490 2.818635 0.133307
v 0.121468 2.850733 0.167542
v 0.106800 2.865504 0.159282
v 0.101972 2.850733 0.156169
v 0.221637 2.850733 0.156169
v 0.126296 2.865504 0.170656
v 0.230721 2.865505 0.143121
v 0.230721 2.865505 0.159282
v 0.106800 2.865500 0.143092
v 0.101972 2.850729 0.139979
v 0.131109 2.880278 0.173546
v 0.116615 2.895559 0.165508
v 0.111614 2.880278 0.162173
v 0.239779 2.880278 0.162173
v 0.136110 2.895559 0.176882
v 0.249191 2.895560 0.149347
v 0.249191 2.895560 0.165508
v 0.116615 2.895555 0.149318
v 0.111614 2.880275 0.145983
v 0.140937 2.910329 0.179995
v 0.121442 2.910329 0.168621
v 0.258274 2.910330 0.168621
v 0.271071 2.931216 0.156463
v 0.121442 2.910325 0.152431
v 0.126023 2.910329 0.165448
v 0.126023 2.910326 0.152433
v 0.253693 2.910329 0.164175
v 0.141703 2.910328 0.174862
v 0.258274 2.910330 0.152460
v 0.253693 2.910330 0.152459
v 0.071107 2.742231 0.130287
v 0.150352 2.742231 0.129244
v 0.086021 2.742231 0.144861
v 0.086663 2.742231 0.139678
v 0.150352 2.742232 0.117324
v 0.075949 2.757001 0.120653
v 0.075949 2.757004 0.133638
v 0.136755 2.895540 0.171755
v 0.121190 2.895541 0.162336
v 0.091530 2.757003 0.143018
v 0.159464 2.757004 0.132553
v 0.244655 2.895541 0.161088
v 0.244655 2.895542 0.149365
v 0.164045 2.757004 0.120661
v 0.081094 2.772794 0.136705
v 0.169148 2.772794 0.135646
v 0.096672 2.772794 0.146139
v 0.169148 2.772794 0.123792
v 0.091244 2.803869 0.143182
v 0.188246 2.803868 0.142049
v 0.106849 2.803867 0.152599
v 0.188246 2.803869 0.130241
v 0.096070 2.818639 0.146291
v 0.096070 2.818636 0.133298
v 0.197330 2.818640 0.145145
v 0.111712 2.818639 0.155693
v 0.201912 2.818640 0.133336
v 0.101392 2.834936 0.149659
v 0.207171 2.834937 0.148484
v 0.116957 2.834936 0.159069
v 0.207171 2.834938 0.136695
v 0.106545 2.850713 0.152980
v 0.106545 2.850710 0.139984
v 0.217117 2.850713 0.151782
v 0.122187 2.850713 0.162388
v 0.221637 2.850733 0.140007
v 0.111381 2.865506 0.156078
v 0.225903 2.865507 0.154869
v 0.126874 2.865506 0.165498
v 0.225903 2.865507 0.143115
v 0.116201 2.880279 0.159075
v 0.116201 2.880276 0.146078
v 0.235162 2.880279 0.157842
v 0.131801 2.880278 0.168490
v 0.239779 2.880278 0.146011
v 0.086084 2.788076 0.139873
v 0.081502 2.788072 0.126859
v 0.086084 2.788073 0.126880
v 0.178534 2.788076 0.138731
v 0.101693 2.788076 0.149257
v 0.183115 2.788077 0.126888
v 0.159464 2.757004 0.120679
v 0.178534 2.788077 0.126905
v 0.197330 2.818640 0.133354
v 0.217117 2.850714 0.140010
v 0.235162 2.880279 0.146104
v -0.083558 2.727822 0.115100
v -0.148016 2.727822 0.130729
v -0.148016 2.727822 0.113503
v -0.064204 2.727822 0.130713
v -0.068869 2.742228 0.117297
v -0.068869 2.742231 0.133487
v -0.083558 2.727822 0.142049
v -0.088365 2.742231 0.144861
v -0.157277 2.742232 0.117326
v -0.078858 2.772794 0.139936
v -0.093207 2.757004 0.148196
v -0.073712 2.757004 0.136823
v -0.098354 2.772794 0.151310
v -0.166389 2.757004 0.136823
v -0.176074 2.772794 0.123775
v -0.166389 2.757004 0.120661
v -0.078858 2.772790 0.123746
v -0.073712 2.757000 0.120633
v -0.130586 2.931212 0.156434
v -0.150081 2.931216 0.183998
v -0.130586 2.931216 0.172624
v -0.273414 2.931216 0.172624
v -0.167469 2.931214 0.156444
v -0.273414 2.931216 0.156463
v -0.089006 2.803868 0.146385
v -0.103341 2.788076 0.154423
v -0.083845 2.788076 0.143049
v -0.108502 2.803868 0.157758
v -0.185459 2.788077 0.143049
v -0.195171 2.803869 0.130223
v -0.195171 2.803869 0.146385
v -0.089006 2.803864 0.130194
v -0.083845 2.788072 0.126859
v -0.099155 2.834940 0.152833
v -0.113330 2.818640 0.160871
v -0.093834 2.818640 0.149498
v -0.118650 2.834940 0.164207
v -0.204255 2.818640 0.149498
v -0.214267 2.834940 0.136672
v -0.204255 2.818640 0.133336
v -0.099155 2.834936 0.136643
v -0.093834 2.818636 0.133308
v -0.109143 2.865504 0.159282
v -0.123812 2.850733 0.167543
v -0.104316 2.850733 0.156169
v -0.128639 2.865505 0.170656
v -0.223981 2.850734 0.156169
v -0.233065 2.865505 0.143121
v -0.223981 2.850734 0.140008
v -0.109143 2.865500 0.143092
v -0.104316 2.850729 0.139979
v -0.118959 2.895559 0.165508
v -0.133453 2.880278 0.173547
v -0.113957 2.880279 0.162173
v -0.138454 2.895559 0.176882
v -0.242123 2.880278 0.162173
v -0.251535 2.895560 0.149347
v -0.242123 2.880278 0.146012
v -0.118959 2.895555 0.149318
v -0.113957 2.880275 0.145983
v -0.143281 2.910329 0.179995
v -0.123785 2.910329 0.168622
v -0.260618 2.910330 0.168622
v -0.260618 2.910330 0.152460
v -0.123785 2.910325 0.152431
v -0.128367 2.910329 0.165449
v -0.256037 2.910330 0.164175
v -0.144047 2.910329 0.174863
v -0.256037 2.910330 0.152459
v -0.073451 2.742231 0.130287
v -0.073451 2.742228 0.117299
v -0.152696 2.742232 0.129244
v -0.089007 2.742231 0.139678
v -0.152696 2.742232 0.117324
v -0.078293 2.757001 0.120653
v -0.139099 2.895541 0.171755
v -0.093874 2.757003 0.143018
v -0.246999 2.895542 0.161088
v -0.246999 2.895542 0.149365
v -0.123533 2.895541 0.162336
v -0.123533 2.895538 0.149339
v -0.078293 2.757004 0.133638
v -0.161807 2.757004 0.132553
v -0.161807 2.757004 0.120679
v -0.083437 2.772794 0.136705
v -0.083437 2.772791 0.123727
v -0.171492 2.772794 0.135646
v -0.099016 2.772794 0.146140
v -0.171492 2.772795 0.123792
v -0.093588 2.803869 0.143183
v -0.093588 2.803866 0.130199
v -0.190590 2.803868 0.142049
v -0.109193 2.803868 0.152599
v -0.190590 2.803869 0.130241
v -0.098414 2.818639 0.146291
v -0.098414 2.818636 0.133299
v -0.199674 2.818640 0.145145
v -0.114056 2.818639 0.155693
v -0.199674 2.818640 0.133354
v -0.103736 2.834937 0.149659
v -0.103736 2.834934 0.136669
v -0.209515 2.834937 0.148485
v -0.119301 2.834937 0.159069
v -0.209515 2.834938 0.136695
v -0.108889 2.850713 0.152980
v -0.108889 2.850710 0.139984
v -0.219461 2.850714 0.151782
v -0.124531 2.850713 0.162388
v -0.219461 2.850714 0.140010
v -0.113725 2.865506 0.156078
v -0.113725 2.865503 0.143089
v -0.228247 2.865507 0.154869
v -0.129218 2.865506 0.165498
v -0.228247 2.865507 0.143115
v -0.118545 2.880279 0.159075
v -0.118545 2.880276 0.146078
v -0.237506 2.880279 0.157843
v -0.134145 2.880278 0.168490
v -0.237506 2.880280 0.146104
v -0.088427 2.788076 0.139873
v -0.088427 2.788073 0.126880
v -0.180877 2.788076 0.138731
v -0.104037 2.788076 0.149257
v -0.185459 2.788077 0.126888
v -0.180877 2.788077 0.126905
v -0.128367 2.910326 0.152433
v 0.081214 2.727822 0.115100
v -0.157277 2.742232 0.133487
v 0.171323 2.729834 0.112949
v 0.395269 2.907328 0.149968
v 0.171323 2.588302 0.083429
v -0.395269 2.907328 0.149968
v -0.306674 2.901344 0.178658
v -0.273068 2.907328 0.149968
v -0.200631 2.716351 0.140074
v -0.395269 2.901344 0.178658
v -0.200631 2.624068 0.120827
v -0.171323 2.729834 0.112949
v 0.200631 2.716351 0.140074
v 0.273068 2.907328 0.149968
v 0.200631 2.624068 0.120827
v 0.395269 2.901344 0.178658
v 0.306674 2.901344 0.178658
v -0.171323 2.588302 0.083429
v 0.145672 2.727822 0.113503
v 0.071107 2.742228 0.117299
v 0.121190 2.895538 0.149339
v 0.081094 2.772791 0.123726
v 0.091244 2.803866 0.130198
v 0.101392 2.834934 0.136669
v 0.111381 2.865503 0.143089
v -0.064204 2.727822 0.115579
v -0.176074 2.772794 0.139936
v -0.214267 2.834940 0.152833
v -0.233065 2.865505 0.159282
v -0.251535 2.895560 0.165508
vt 0.357793 0.874411
vt 0.349771 0.867309
vt 0.357788 0.866395
vt 0.355699 0.886096
vt 0.349774 0.875885
vt 0.352683 0.920632
vt 0.349141 0.931596
vt 0.344347 0.924503
vt 0.879398 0.057927
vt 0.886243 0.067930
vt 0.877474 0.069728
vt 0.882295 0.018803
vt 0.888166 0.056129
vt 0.886512 0.007566
vt 0.891332 0.014641
vt 0.886386 0.076505
vt 0.877618 0.078303
vt 0.223586 0.842589
vt 0.238187 0.852917
vt 0.229611 0.852917
vt 0.229611 0.777257
vt 0.238182 0.833379
vt 0.872442 0.407862
vt 0.865584 0.397926
vt 0.874365 0.396062
vt 0.868615 0.354116
vt 0.877647 0.349874
vt 0.872693 0.342892
vt 0.872535 0.416438
vt 0.863661 0.409727
vt 0.258004 0.832743
vt 0.265245 0.842573
vt 0.256208 0.844563
vt 0.261180 0.784306
vt 0.267041 0.830752
vt 0.265484 0.772890
vt 0.270456 0.779859
vt 0.265455 0.851147
vt 0.256418 0.853137
vt 0.820929 0.071867
vt 0.827357 0.081839
vt 0.819169 0.083693
vt 0.824218 0.018566
vt 0.829118 0.070013
vt 0.827559 0.007566
vt 0.832609 0.014479
vt 0.827569 0.090413
vt 0.819381 0.092267
vt 0.461909 0.405524
vt 0.468634 0.415392
vt 0.460160 0.417352
vt 0.465285 0.347743
vt 0.470384 0.403564
vt 0.468833 0.336610
vt 0.473958 0.343467
vt 0.468827 0.423966
vt 0.460353 0.425926
vt 0.082933 0.799617
vt 0.092919 0.808737
vt 0.081414 0.811476
vt 0.086435 0.737269
vt 0.094439 0.796877
vt 0.093166 0.724442
vt 0.098188 0.731375
vt 0.093377 0.817301
vt 0.081871 0.820041
vt 0.551538 0.818319
vt 0.558434 0.815892
vt 0.558433 0.818319
vt 0.552213 0.885949
vt 0.543833 0.826220
vt 0.546552 0.826625
vt 0.558419 0.888375
vt 0.558419 0.885949
vt 0.434759 0.983399
vt 0.441640 0.985826
vt 0.433063 0.985826
vt 0.435311 0.941421
vt 0.427038 0.975499
vt 0.433063 0.938994
vt 0.429784 0.975159
vt 0.441624 0.938994
vt 0.441625 0.941421
vt 0.953635 0.876349
vt 0.945414 0.871225
vt 0.953654 0.869471
vt 0.659840 0.832716
vt 0.666785 0.840240
vt 0.658631 0.842277
vt 0.955271 0.859974
vt 0.949100 0.827612
vt 0.957573 0.823636
vt 0.666939 0.766149
vt 0.662381 0.775337
vt 0.658631 0.770387
vt 0.089119 0.902978
vt 0.096015 0.905401
vt 0.087438 0.905401
vt 0.089781 0.837576
vt 0.081414 0.895074
vt 0.087439 0.835173
vt 0.084129 0.894732
vt 0.096000 0.835173
vt 0.095991 0.837576
vt 0.970345 0.165010
vt 0.977235 0.162583
vt 0.977224 0.165010
vt 0.970920 0.209249
vt 0.962633 0.172910
vt 0.965376 0.173263
vt 0.968658 0.162583
vt 0.977219 0.211676
vt 0.968658 0.211676
vt 0.776421 0.971934
vt 0.783286 0.974360
vt 0.774710 0.974360
vt 0.776982 0.925289
vt 0.768685 0.964032
vt 0.774710 0.922862
vt 0.771423 0.963682
vt 0.783271 0.922862
vt 0.783261 0.925289
vt 0.969285 0.510566
vt 0.976165 0.512993
vt 0.967589 0.512993
vt 0.969886 0.459182
vt 0.961564 0.502665
vt 0.967589 0.456755
vt 0.964297 0.502300
vt 0.976150 0.456755
vt 0.976141 0.459182
vt 0.466157 0.907473
vt 0.473035 0.905047
vt 0.473039 0.907473
vt 0.466764 0.961113
vt 0.458434 0.915374
vt 0.461177 0.915759
vt 0.464458 0.905047
vt 0.473019 0.963540
vt 0.464458 0.963540
vt 0.935141 0.593081
vt 0.942036 0.595508
vt 0.933460 0.595508
vt 0.935764 0.537048
vt 0.927435 0.585181
vt 0.933460 0.534530
vt 0.930157 0.584836
vt 0.942021 0.534530
vt 0.942009 0.537048
vt 0.127392 0.873183
vt 0.134279 0.870761
vt 0.134276 0.873183
vt 0.128026 0.931756
vt 0.119678 0.881088
vt 0.122409 0.881469
vt 0.125703 0.870761
vt 0.134263 0.934150
vt 0.125702 0.934150
vt 0.923923 0.791217
vt 0.930803 0.793644
vt 0.922226 0.793644
vt 0.924564 0.730552
vt 0.916202 0.783316
vt 0.922226 0.728000
vt 0.918934 0.783010
vt 0.930787 0.728000
vt 0.930791 0.730552
vt 0.044965 0.843420
vt 0.051901 0.840989
vt 0.051850 0.843420
vt 0.045618 0.906436
vt 0.037300 0.851317
vt 0.039978 0.851683
vt 0.043324 0.840989
vt 0.051885 0.908882
vt 0.043324 0.908882
vt 0.746556 0.164690
vt 0.753450 0.162263
vt 0.753438 0.164690
vt 0.747161 0.213663
vt 0.738849 0.172590
vt 0.741585 0.172959
vt 0.744873 0.162263
vt 0.753434 0.216090
vt 0.744873 0.216090
vt 0.953882 0.818543
vt 0.945395 0.822499
vt 0.158100 0.868976
vt 0.153062 0.878266
vt 0.149411 0.873157
vt 0.777063 0.838731
vt 0.772389 0.847883
vt 0.768685 0.842843
vt 0.467365 0.815892
vt 0.462208 0.825441
vt 0.458434 0.820465
vt 0.850848 0.611452
vt 0.846282 0.620726
vt 0.842526 0.615760
vt 0.668000 0.830628
vt 0.670686 0.771096
vt 0.851894 0.671388
vt 0.854598 0.616412
vt 0.468482 0.871390
vt 0.471134 0.820860
vt 0.778237 0.889391
vt 0.780762 0.843764
vt 0.159292 0.915084
vt 0.161742 0.874073
vt 0.947031 0.861737
vt 0.150825 0.916994
vt 0.157878 0.924627
vt 0.149411 0.926538
vt 0.770057 0.891299
vt 0.776862 0.898960
vt 0.768685 0.900855
vt 0.459754 0.873494
vt 0.467157 0.880968
vt 0.458434 0.883038
vt 0.843745 0.673424
vt 0.850670 0.680962
vt 0.842526 0.682952
vt 0.667110 0.847127
vt 0.851007 0.687839
vt 0.467400 0.887848
vt 0.777070 0.905839
vt 0.158065 0.931508
vt 0.358618 0.980883
vt 0.349496 0.946954
vt 0.358618 0.946728
vt 0.930263 0.875738
vt 0.922229 0.882830
vt 0.922243 0.874254
vt 0.928167 0.864043
vt 0.920134 0.862485
vt 0.925153 0.829507
vt 0.921611 0.818543
vt 0.930263 0.821946
vt 0.347665 0.887654
vt 0.882564 0.158721
vt 0.889409 0.148719
vt 0.891332 0.160519
vt 0.880640 0.146921
vt 0.886512 0.109595
vt 0.882294 0.098358
vt 0.891332 0.102519
vt 0.882421 0.167296
vt 0.891189 0.169094
vt 0.847741 0.183058
vt 0.862342 0.172731
vt 0.856317 0.183058
vt 0.856317 0.107399
vt 0.847746 0.163521
vt 0.847756 0.107399
vt 0.863299 0.792971
vt 0.870157 0.783034
vt 0.872079 0.794835
vt 0.861376 0.781170
vt 0.867126 0.739224
vt 0.863047 0.728000
vt 0.858094 0.734982
vt 0.863206 0.801547
vt 0.871987 0.803411
vt 0.290798 0.842573
vt 0.298040 0.832743
vt 0.299835 0.844563
vt 0.289003 0.830752
vt 0.294863 0.784306
vt 0.290560 0.772890
vt 0.299835 0.777337
vt 0.290589 0.851147
vt 0.299625 0.853137
vt 0.824421 0.181672
vt 0.830848 0.171700
vt 0.832609 0.183526
vt 0.822660 0.169846
vt 0.827559 0.118399
vt 0.824219 0.107399
vt 0.832609 0.111486
vt 0.824209 0.190245
vt 0.832397 0.192099
vt 0.432362 0.732720
vt 0.439088 0.722852
vt 0.440837 0.734680
vt 0.430613 0.720892
vt 0.435711 0.665071
vt 0.432164 0.653938
vt 0.440837 0.658214
vt 0.432169 0.741294
vt 0.440644 0.743254
vt 0.783093 0.427187
vt 0.793080 0.418068
vt 0.794599 0.429927
vt 0.781574 0.415328
vt 0.789578 0.355719
vt 0.782847 0.342892
vt 0.794599 0.348785
vt 0.782636 0.435751
vt 0.794142 0.438491
vt 0.520995 0.818319
vt 0.514099 0.815892
vt 0.522676 0.815892
vt 0.520320 0.885949
vt 0.528701 0.826220
vt 0.522676 0.888375
vt 0.525982 0.826625
vt 0.514115 0.888375
vt 0.514114 0.885949
vt 0.982995 0.943291
vt 0.976115 0.945718
vt 0.976116 0.943291
vt 0.982443 0.901313
vt 0.990716 0.935391
vt 0.987970 0.935051
vt 0.976130 0.898887
vt 0.976129 0.901313
vt 0.547771 0.961314
vt 0.555992 0.956190
vt 0.556011 0.963070
vt 0.847320 0.298728
vt 0.840374 0.306252
vt 0.839160 0.296640
vt 0.546135 0.944939
vt 0.552306 0.912577
vt 0.554376 0.946702
vt 0.844779 0.241348
vt 0.840221 0.232161
vt 0.848529 0.236398
vt 0.899675 0.410697
vt 0.892779 0.413121
vt 0.892790 0.410697
vt 0.899014 0.345295
vt 0.907380 0.402793
vt 0.904665 0.402452
vt 0.892795 0.342892
vt 0.892804 0.345295
vt 0.962633 0.098358
vt 0.969523 0.100785
vt 0.962644 0.100785
vt 0.977235 0.108685
vt 0.968948 0.145024
vt 0.974492 0.109038
vt 0.962649 0.147451
vt 0.962658 0.145024
vt 0.014441 0.973085
vt 0.007576 0.975511
vt 0.007566 0.973085
vt 0.013880 0.926441
vt 0.022177 0.965184
vt 0.019439 0.964833
vt 0.007592 0.924014
vt 0.007601 0.926441
vt 0.904582 0.593590
vt 0.897702 0.596017
vt 0.897704 0.593590
vt 0.903982 0.542206
vt 0.912303 0.585690
vt 0.909570 0.585324
vt 0.897717 0.539779
vt 0.897726 0.542206
vt 0.858098 0.906158
vt 0.864976 0.908584
vt 0.858094 0.908584
vt 0.872700 0.916486
vt 0.864369 0.962224
vt 0.869956 0.916871
vt 0.858114 0.964651
vt 0.858123 0.962224
vt 0.939795 0.156909
vt 0.932900 0.159336
vt 0.932914 0.156909
vt 0.939173 0.100875
vt 0.947501 0.149008
vt 0.944780 0.148663
vt 0.932916 0.098358
vt 0.932928 0.100875
vt 0.927297 0.611452
vt 0.934184 0.613875
vt 0.927299 0.613875
vt 0.941898 0.621780
vt 0.933549 0.672447
vt 0.939167 0.622161
vt 0.927311 0.674841
vt 0.927312 0.672447
vt 0.719887 0.924745
vt 0.713008 0.927172
vt 0.713006 0.924745
vt 0.719246 0.864081
vt 0.727609 0.916845
vt 0.724877 0.916539
vt 0.713023 0.861528
vt 0.713020 0.864081
vt 0.897702 0.456755
vt 0.904637 0.459185
vt 0.897752 0.459185
vt 0.912303 0.467082
vt 0.903984 0.522201
vt 0.909625 0.467449
vt 0.897717 0.524647
vt 0.897766 0.522201
vt 0.081414 0.920534
vt 0.088308 0.922961
vt 0.081425 0.922961
vt 0.096015 0.930861
vt 0.087703 0.971934
vt 0.093278 0.931230
vt 0.081429 0.974361
vt 0.081438 0.971934
vt 0.547524 0.903508
vt 0.556011 0.907464
vt 0.185553 0.878266
vt 0.180516 0.868976
vt 0.189204 0.873157
vt 0.722309 0.380725
vt 0.717635 0.371573
vt 0.726013 0.375685
vt 0.878795 0.466303
vt 0.873638 0.456755
vt 0.882570 0.461328
vt 0.352663 0.782164
vt 0.348098 0.772890
vt 0.356419 0.777198
vt 0.347052 0.832826
vt 0.355201 0.834863
vt 0.872521 0.512253
vt 0.881249 0.514357
vt 0.716461 0.422233
vt 0.724641 0.424141
vt 0.179323 0.915083
vt 0.187790 0.916994
vt 0.547752 0.954436
vt 0.180737 0.924627
vt 0.717836 0.431802
vt 0.873846 0.521830
vt 0.348275 0.842400
vt 0.840049 0.313139
vt 0.848529 0.308289
vt 0.848204 0.315167
vt 0.347939 0.849277
vt 0.356419 0.844390
vt 0.356083 0.851262
vt 0.873603 0.528711
vt 0.882570 0.523901
vt 0.882327 0.530778
vt 0.717628 0.438681
vt 0.726013 0.433698
vt 0.725806 0.440573
vt 0.180550 0.931507
vt 0.189204 0.926538
vt 0.189017 0.933410
vt 0.256185 0.981992
vt 0.264199 0.992434
vt 0.256185 0.992235
vt 0.916817 0.825636
vt 0.433325 0.070686
vt 0.389951 0.217028
vt 0.389951 0.007566
vt 0.301112 0.933002
vt 0.285588 0.886071
vt 0.301112 0.868269
vt 0.683586 0.048722
vt 0.655304 0.189617
vt 0.655304 0.007566
vt 0.149411 0.799849
vt 0.171367 0.853843
vt 0.149411 0.849785
vt 0.489090 0.217028
vt 0.504615 0.034978
vt 0.504615 0.217028
vt 0.626291 0.669874
vt 0.604336 0.775950
vt 0.604336 0.665816
vt 0.208454 0.799849
vt 0.186499 0.853843
vt 0.186499 0.777257
vt 0.389951 0.657996
vt 0.411906 0.764072
vt 0.389951 0.772784
vt 0.428630 0.638805
vt 0.400348 0.497911
vt 0.428630 0.456755
vt 0.239111 0.885851
vt 0.223586 0.932781
vt 0.223586 0.868049
vt 0.458434 0.034978
vt 0.473958 0.217028
vt 0.458434 0.217028
vt 0.443301 0.441623
vt 0.399927 0.295280
vt 0.443301 0.232161
vt 0.265307 0.948062
vt 0.270456 0.982345
vt 0.350604 0.991337
vt 0.344347 0.981237
vt 0.357793 0.928192
vt 0.877474 0.011728
vt 0.238172 0.777257
vt 0.863661 0.347134
vt 0.863754 0.418302
vt 0.256208 0.777337
vt 0.819169 0.011653
vt 0.460160 0.340886
vt 0.081414 0.730335
vt 0.549858 0.815892
vt 0.549858 0.888376
vt 0.441639 0.983399
vt 0.945395 0.878105
vt 0.096004 0.902978
vt 0.977210 0.209249
vt 0.783296 0.971934
vt 0.976163 0.510566
vt 0.473010 0.961113
vt 0.942023 0.593081
vt 0.134262 0.931756
vt 0.930804 0.791217
vt 0.051836 0.906436
vt 0.753425 0.213663
vt 0.658956 0.849155
vt 0.842863 0.689824
vt 0.458676 0.889915
vt 0.768892 0.907730
vt 0.149598 0.933410
vt 0.930249 0.883755
vt 0.877474 0.105433
vt 0.872079 0.732242
vt 0.285588 0.779859
vt 0.819169 0.114312
vt 0.427038 0.660795
vt 0.777825 0.349826
vt 0.514100 0.818319
vt 0.984691 0.945718
vt 0.984691 0.898887
vt 0.543833 0.908601
vt 0.836474 0.237108
vt 0.901356 0.413121
vt 0.901356 0.342892
vt 0.971210 0.098358
vt 0.971210 0.147451
vt 0.016153 0.975511
vt 0.016153 0.924014
vt 0.906278 0.596017
vt 0.906278 0.539779
vt 0.866675 0.906158
vt 0.866675 0.964651
vt 0.941476 0.159336
vt 0.941476 0.098358
vt 0.935873 0.611452
vt 0.935872 0.674841
vt 0.721584 0.927172
vt 0.721584 0.861528
vt 0.906278 0.456755
vt 0.906278 0.524647
vt 0.089990 0.920534
vt 0.089990 0.974361
vt 0.176874 0.874073
vt 0.713936 0.376606
vt 0.869869 0.461723
vt 0.344347 0.777850
vt 0.443301 0.180367
vt 0.285588 0.933002
vt 0.693983 0.163038
vt 0.171367 0.777257
vt 0.489090 0.007566
vt 0.626291 0.784661
vt 0.208454 0.849785
vt 0.411906 0.653938
vt 0.389951 0.612226
vt 0.239111 0.932781
vt 0.473958 0.007566
vt 0.389951 0.404961
vt 0.256185 0.947836
vt 0.358618 0.991139
vn -0.9518 0.3068 -0.0000
vn -0.5046 -0.0014 0.8633
vn -0.5051 -0.0021 0.8630
vn -0.5058 -0.0030 0.8626
vn 0.8412 -0.5407 0.0000
vn -0.5039 -0.0061 0.8638
vn -0.5039 -0.0061 0.8637
vn 0.1404 -0.2692 0.9528
vn 0.1479 -0.2423 0.9589
vn 0.1492 -0.2378 0.9598
vn 0.8524 -0.5228 0.0000
vn -0.9508 0.3099 -0.0001
vn 0.0001 1.0000 -0.0003
vn -0.0000 1.0000 -0.0000
vn -0.0000 1.0000 -0.0001
vn -0.5039 -0.0177 0.8636
vn 0.1321 -0.2498 0.9593
vn 0.1258 -0.2749 0.9532
vn 0.1250 -0.2780 0.9524
vn 0.8518 -0.5239 0.0000
vn -0.9505 0.3107 -0.0001
vn -0.5039 -0.0123 0.8637
vn -0.5038 -0.0122 0.8637
vn 0.1145 -0.2631 0.9579
vn 0.1199 -0.2397 0.9634
vn 0.1206 -0.2367 0.9641
vn 0.8521 -0.5234 0.0000
vn -0.9506 0.3103 -0.0001
vn -0.5038 -0.0174 0.8636
vn -0.5038 -0.0173 0.8636
vn 0.1048 -0.2641 0.9588
vn 0.1091 -0.2415 0.9642
vn 0.1095 -0.2392 0.9648
vn 0.8518 -0.5238 0.0000
vn -0.5038 -0.0236 0.8635
vn 0.0967 -0.2668 0.9589
vn 0.1006 -0.2457 0.9641
vn 0.1010 -0.2436 0.9646
vn 0.8515 -0.5244 0.0000
vn -0.9504 0.3111 -0.0001
vn -0.5039 -0.0015 0.8637
vn 0.0896 -0.2378 0.9672
vn 0.0937 -0.2192 0.9712
vn 0.0942 -0.2169 0.9716
vn 0.8527 -0.5224 0.0000
vn -0.9509 0.3096 -0.0001
vn 0.0001 -1.0000 0.0002
vn 0.0002 -1.0000 0.0003
vn 0.0002 -1.0000 0.0002
vn 0.0001 -1.0000 0.0001
vn -0.0001 -1.0000 0.0002
vn 0.0000 -1.0000 -0.0001
vn -0.0001 1.0000 -0.0001
vn -0.0002 1.0000 -0.0002
vn 0.0002 1.0000 0.0001
vn -0.0002 1.0000 -0.0001
vn -0.0001 1.0000 0.0001
vn -0.0000 1.0000 0.0001
vn -0.9503 0.3115 -0.0001
vn -0.5161 -0.0092 0.8565
vn -0.5164 -0.0095 0.8563
vn -0.5177 -0.0108 0.8555
vn 0.1544 -0.2711 0.9501
vn 0.1465 -0.2966 0.9437
vn 0.1452 -0.3007 0.9426
vn 0.8533 -0.5215 -0.0000
vn 0.0028 1.0000 -0.0017
vn 0.0038 1.0000 -0.0003
vn 0.0027 1.0000 -0.0018
vn -0.0021 1.0000 -0.0017
vn 0.0008 1.0000 -0.0036
vn -0.0022 1.0000 -0.0020
vn 0.0009 1.0000 -0.0036
vn -0.0040 1.0000 0.0001
vn 0.0000 -1.0000 0.0000
vn -0.0000 -1.0000 0.0001
vn -0.0002 1.0000 -0.0003
vn -0.0004 1.0000 -0.0003
vn -0.0002 1.0000 -0.0000
vn 0.0001 1.0000 -0.0001
vn 0.0001 1.0000 -0.0002
vn 0.0006 1.0000 -0.0005
vn 0.0007 1.0000 -0.0003
vn 0.0005 1.0000 -0.0005
vn -0.0003 1.0000 -0.0002
vn 0.0001 1.0000 -0.0007
vn -0.0003 1.0000 -0.0003
vn 0.0002 1.0000 -0.0007
vn -0.0005 1.0000 0.0001
vn -0.0004 1.0000 0.0001
vn -0.0032 -1.0000 0.0018
vn -0.0042 -1.0000 0.0002
vn 0.0023 -1.0000 0.0021
vn -0.0008 -1.0000 0.0038
vn -0.0009 -1.0000 0.0038
vn -0.0030 -1.0000 0.0020
vn 0.0044 -1.0000 0.0000
vn -0.0004 1.0000 0.0000
vn -0.0006 1.0000 -0.0003
vn 0.0002 1.0000 0.0002
vn -0.0001 1.0000 0.0004
vn 0.0004 1.0000 0.0000
vn 0.0002 -1.0000 0.0000
vn -0.0001 -1.0000 -0.0001
vn -0.0002 -1.0000 0.0000
vn 0.0003 -1.0000 0.0000
vn 0.8511 -0.5250 -0.0001
vn 0.8521 -0.5233 0.0000
vn 0.8459 -0.5333 -0.0000
vn 0.8473 -0.5311 0.0000
vn 0.0953 -0.2369 0.9668
vn 0.0921 -0.2554 0.9624
vn 0.0918 -0.2569 0.9621
vn 0.1034 -0.2327 0.9670
vn 0.0994 -0.2537 0.9621
vn 0.0991 -0.2556 0.9617
vn 0.1125 -0.2431 0.9635
vn 0.1075 -0.2652 0.9582
vn 0.1070 -0.2676 0.9576
vn 0.1240 -0.2457 0.9614
vn 0.1183 -0.2697 0.9556
vn 0.1176 -0.2725 0.9549
vn 0.1380 -0.2454 0.9595
vn 0.1315 -0.2693 0.9540
vn 0.1306 -0.2726 0.9532
vn -0.5161 -0.0242 0.8562
vn -0.5162 -0.0243 0.8561
vn -0.5166 -0.0248 0.8558
vn -0.5165 -0.0068 0.8563
vn -0.5167 -0.0070 0.8561
vn -0.5180 -0.0082 0.8554
vn -0.5158 -0.0106 0.8566
vn -0.5160 -0.0107 0.8565
vn -0.5166 -0.0114 0.8561
vn -0.5163 -0.0102 0.8563
vn -0.5164 -0.0103 0.8563
vn -0.5173 -0.0112 0.8557
vn -0.5180 -0.0023 0.8554
vn -0.5183 -0.0026 0.8552
vn -0.5195 -0.0038 0.8544
vn -0.9507 0.3102 -0.0001
vn -0.9506 0.3105 -0.0001
vn -0.9505 0.3106 -0.0001
vn -0.9506 0.3104 -0.0001
vn 0.9514 0.3080 -0.0001
vn 0.5044 -0.0012 0.8634
vn 0.5049 -0.0018 0.8632
vn 0.5039 -0.0005 0.8638
vn -0.8412 -0.5407 0.0000
vn 0.1663 -0.2476 0.9545
vn 0.1576 -0.2772 0.9478
vn 0.1563 -0.2816 0.9467
vn 0.5039 -0.0061 0.8637
vn -0.1479 -0.2423 0.9588
vn -0.1404 -0.2692 0.9528
vn -0.1493 -0.2375 0.9599
vn -0.8524 -0.5228 0.0000
vn 0.9508 0.3099 -0.0001
vn -0.0000 1.0000 -0.0002
vn -0.0001 1.0000 -0.0003
vn 0.5038 -0.0178 0.8636
vn -0.1321 -0.2498 0.9593
vn -0.1258 -0.2749 0.9532
vn -0.1330 -0.2462 0.9601
vn -0.8518 -0.5239 0.0000
vn 0.9505 0.3107 -0.0001
vn 0.5039 -0.0123 0.8637
vn 0.5038 -0.0122 0.8637
vn -0.1199 -0.2397 0.9634
vn -0.1145 -0.2631 0.9579
vn -0.1206 -0.2367 0.9641
vn -0.8521 -0.5234 0.0000
vn 0.9506 0.3103 -0.0001
vn 0.5038 -0.0174 0.8636
vn -0.1091 -0.2414 0.9643
vn -0.1048 -0.2641 0.9588
vn -0.1096 -0.2391 0.9648
vn 0.9505 0.3106 -0.0001
vn 0.5038 -0.0236 0.8635
vn -0.1006 -0.2456 0.9641
vn -0.0967 -0.2667 0.9589
vn -0.1010 -0.2436 0.9646
vn -0.8515 -0.5244 0.0000
vn 0.9504 0.3111 -0.0001
vn 0.5039 -0.0015 0.8638
vn 0.5039 -0.0014 0.8638
vn -0.0937 -0.2192 0.9712
vn -0.0896 -0.2378 0.9672
vn -0.0942 -0.2169 0.9716
vn -0.8527 -0.5224 0.0000
vn 0.9509 0.3096 -0.0001
vn -0.0001 -1.0000 0.0001
vn -0.0002 -1.0000 0.0003
vn 0.9503 0.3115 -0.0001
vn 0.5160 -0.0093 0.8565
vn 0.5163 -0.0096 0.8563
vn 0.5147 -0.0080 0.8573
vn -0.1544 -0.2711 0.9501
vn -0.1465 -0.2966 0.9437
vn -0.1558 -0.2664 0.9512
vn -0.8533 -0.5215 0.0000
vn -0.0028 1.0000 -0.0016
vn -0.0037 1.0000 -0.0002
vn 0.0021 1.0000 -0.0020
vn -0.0007 1.0000 -0.0035
vn -0.0009 1.0000 -0.0035
vn 0.0040 1.0000 0.0000
vn 0.0024 1.0000 -0.0016
vn -0.0002 -1.0000 0.0002
vn 0.0000 -1.0000 0.0002
vn -0.0001 1.0000 -0.0002
vn -0.0002 1.0000 0.0001
vn 0.0002 1.0000 -0.0001
vn 0.0004 1.0000 -0.0002
vn -0.0004 1.0000 -0.0004
vn -0.0004 1.0000 -0.0002
vn 0.0003 1.0000 -0.0003
vn -0.0001 1.0000 -0.0005
vn -0.0003 1.0000 -0.0009
vn 0.0004 1.0000 0.0001
vn 0.0042 -1.0000 0.0002
vn 0.0031 -1.0000 0.0018
vn 0.0008 -1.0000 0.0038
vn -0.0025 -1.0000 0.0020
vn 0.0009 -1.0000 0.0037
vn 0.0031 -1.0000 0.0019
vn -0.0044 -1.0000 0.0000
vn 0.0007 1.0000 -0.0002
vn -0.0002 1.0000 0.0002
vn 0.0001 1.0000 0.0002
vn 0.0001 -1.0000 -0.0001
vn -0.0000 -1.0000 -0.0003
vn 0.0004 -1.0000 -0.0001
vn 0.0002 -1.0000 -0.0003
vn -0.8511 -0.5250 0.0000
vn -0.8521 -0.5233 -0.0000
vn -0.8518 -0.5238 -0.0000
vn -0.8459 -0.5333 -0.0000
vn -0.8459 -0.5333 -0.0001
vn -0.8473 -0.5311 -0.0000
vn -0.0953 -0.2370 0.9668
vn -0.0921 -0.2554 0.9624
vn -0.0956 -0.2353 0.9672
vn -0.1034 -0.2327 0.9670
vn -0.0994 -0.2538 0.9621
vn -0.1038 -0.2306 0.9675
vn -0.1125 -0.2431 0.9635
vn -0.1075 -0.2651 0.9582
vn -0.1131 -0.2403 0.9641
vn -0.1240 -0.2457 0.9614
vn -0.1183 -0.2697 0.9556
vn -0.1247 -0.2426 0.9621
vn -0.1380 -0.2454 0.9595
vn -0.1315 -0.2693 0.9540
vn -0.1391 -0.2416 0.9604
vn 0.5161 -0.0242 0.8562
vn 0.5162 -0.0243 0.8561
vn 0.5156 -0.0238 0.8565
vn 0.5165 -0.0067 0.8563
vn 0.5167 -0.0070 0.8561
vn 0.5152 -0.0055 0.8570
vn 0.5158 -0.0106 0.8566
vn 0.5159 -0.0107 0.8566
vn 0.5151 -0.0099 0.8570
vn 0.5163 -0.0102 0.8563
vn 0.5164 -0.0103 0.8563
vn 0.5154 -0.0094 0.8569
vn 0.5180 -0.0023 0.8554
vn 0.5183 -0.0026 0.8552
vn 0.5167 -0.0011 0.8562
vn 0.9507 0.3102 -0.0001
vn 0.9506 0.3105 -0.0001
vn 0.9506 0.3104 -0.0001
vn -0.1576 -0.2772 0.9478
vn -0.1663 -0.2476 0.9545
vn -0.1563 -0.2816 0.9467
vn -0.0000 0.2042 -0.9789
vn 0.0000 0.9789 0.2042
vn 0.0000 -0.2042 0.9789
vn 0.7071 -0.1444 0.6922
vn -0.8242 -0.5544 -0.1156
vn -0.8242 -0.5544 -0.1157
vn -0.6166 0.1944 0.7629
vn -0.7071 -0.1444 0.6922
vn 0.6166 0.1944 0.7629
vn 0.6167 0.1944 0.7629
vn 0.8242 -0.5544 -0.1157
vn 0.8242 -0.5544 -0.1156
vn -0.9518 0.3068 -0.0001
vn -0.5039 -0.0004 0.8637
vn -0.5039 -0.0060 0.8638
vn 0.1393 -0.2731 0.9519
vn 0.1330 -0.2462 0.9601
vn 0.1139 -0.2658 0.9573
vn 0.1044 -0.2661 0.9583
vn 0.0964 -0.2685 0.9584
vn -0.5039 -0.0015 0.8638
vn 0.0892 -0.2399 0.9667
vn -0.5147 -0.0079 0.8573
vn 0.1558 -0.2664 0.9512
vn 0.0037 1.0000 -0.0002
vn 0.0003 1.0000 0.0001
vn 0.0024 -1.0000 0.0020
vn 0.0042 -1.0000 -0.0001
vn -0.0007 1.0000 -0.0002
vn 0.0000 -1.0000 -0.0002
vn 0.8511 -0.5250 0.0000
vn 0.8459 -0.5333 -0.0001
vn 0.0956 -0.2352 0.9672
vn 0.1038 -0.2306 0.9675
vn 0.1131 -0.2403 0.9641
vn 0.1247 -0.2426 0.9621
vn 0.1390 -0.2416 0.9604
vn -0.5156 -0.0238 0.8565
vn -0.5152 -0.0056 0.8570
vn -0.5151 -0.0099 0.8570
vn -0.5154 -0.0094 0.8569
vn -0.5167 -0.0011 0.8562
vn -0.9506 0.3105 -0.0000
vn 0.9514 0.3081 0.0000
vn 0.5054 -0.0025 0.8629
vn -0.8412 -0.5406 0.0000
vn 0.1678 -0.2425 0.9555
vn -0.1393 -0.2731 0.9518
vn 0.5038 -0.0177 0.8636
vn -0.1250 -0.2781 0.9524
vn -0.1139 -0.2658 0.9573
vn -0.1044 -0.2661 0.9583
vn -0.0964 -0.2685 0.9584
vn 0.5039 -0.0015 0.8637
vn -0.0892 -0.2399 0.9667
vn 0.5177 -0.0109 0.8555
vn -0.1452 -0.3007 0.9426
vn -0.0027 1.0000 -0.0018
vn 0.0021 1.0000 -0.0019
vn 0.0002 1.0000 0.0000
vn 0.0000 -1.0000 0.0003
vn 0.0006 1.0000 0.0000
vn 0.0042 -1.0000 0.0003
vn 0.0030 -1.0000 0.0020
vn -0.0024 -1.0000 0.0022
vn -0.8521 -0.5233 -0.0001
vn -0.0918 -0.2569 0.9621
vn -0.0991 -0.2557 0.9617
vn -0.1070 -0.2676 0.9576
vn -0.1176 -0.2725 0.9549
vn -0.1306 -0.2726 0.9532
vn 0.5166 -0.0248 0.8558
vn 0.5180 -0.0082 0.8553
vn 0.5166 -0.0114 0.8562
vn 0.5173 -0.0112 0.8557
vn 0.5195 -0.0038 0.8544
vn -0.1678 -0.2425 0.9555
vn -0.6167 0.1944 0.7629
usemtl emrysChevron.010
s 1
f 1/1/1 2/2/1 3/3/1
f 4/4/2 5/5/3 1/1/4
f 6/6/5 7/7/5 8/8/5
f 9/9/6 10/10/6 11/11/7
f 12/12/8 13/13/9 9/9/10
f 12/12/11 14/14/11 15/15/11
f 11/11/12 16/16/12 17/17/12
f 18/18/13 19/19/13 20/20/13
f 21/21/14 22/22/15 18/18/15
f 23/23/16 24/24/16 25/25/16
f 25/25/17 26/26/18 27/27/19
f 26/26/20 28/28/20 27/27/20
f 29/29/21 30/30/21 23/23/21
f 31/31/22 32/32/22 33/33/23
f 34/34/24 35/35/25 31/31/26
f 34/34/27 36/36/27 37/37/27
f 33/33/28 38/38/28 39/39/28
f 40/40/29 41/41/29 42/42/30
f 43/43/31 44/44/32 40/40/33
f 43/43/34 45/45/34 46/46/34
f 42/42/21 47/47/21 48/48/21
f 49/49/35 50/50/35 51/51/35
f 52/52/36 53/53/37 49/49/38
f 52/52/39 54/54/39 55/55/39
f 51/51/40 56/56/40 57/57/40
f 58/58/41 20/59/41 59/60/41
f 60/61/42 18/62/43 58/58/44
f 60/61/45 61/63/45 21/64/45
f 59/60/46 19/65/46 62/66/46
f 63/67/47 62/68/48 64/69/49
f 65/70/50 58/71/51 66/72/51
f 58/71/51 63/67/47 66/72/51
f 67/73/52 65/70/52 68/74/52
f 69/75/53 2/76/54 5/77/53
f 70/78/55 71/79/14 8/80/56
f 69/75/53 71/79/14 72/81/14
f 70/78/55 7/82/57 73/83/58
f 74/84/59 69/85/59 75/86/59
f 76/87/60 63/88/61 77/89/62
f 78/90/63 70/91/64 79/92/65
f 68/93/66 80/94/66 81/95/66
f 77/96/67 56/97/68 50/98/69
f 80/99/70 53/100/71 55/101/72
f 77/96/67 53/100/71 76/102/73
f 80/99/70 54/103/74 81/104/74
f 75/105/50 17/106/49 74/107/49
f 79/108/75 9/109/76 78/110/51
f 75/105/50 9/109/76 11/111/50
f 79/108/75 82/112/75 12/113/75
f 83/114/53 16/115/77 10/116/53
f 84/117/14 13/118/14 15/119/14
f 83/114/53 13/118/14 85/120/14
f 84/117/14 14/121/14 86/122/14
f 87/123/56 29/124/78 23/125/79
f 88/126/14 25/127/80 27/128/14
f 87/123/56 25/127/80 89/129/81
f 88/126/14 28/130/55 90/131/55
f 91/132/50 39/133/49 92/134/49
f 93/135/52 31/136/75 94/137/75
f 91/132/50 31/136/75 33/138/50
f 93/135/52 95/139/75 34/140/52
f 96/141/82 38/142/83 32/143/84
f 97/144/85 35/145/86 37/146/87
f 96/141/82 35/145/86 98/147/88
f 97/144/85 36/148/89 99/149/90
f 100/150/91 48/151/92 101/152/92
f 102/153/93 40/154/94 103/155/95
f 100/150/91 40/154/94 42/156/96
f 102/153/93 104/157/97 43/158/93
f 105/159/98 47/160/99 41/161/98
f 106/162/100 44/163/101 46/164/100
f 105/159/98 44/163/101 107/165/101
f 106/162/100 45/166/102 108/167/102
f 109/168/103 57/169/49 110/170/49
f 111/171/104 49/172/52 112/173/75
f 109/168/103 49/172/52 51/174/103
f 111/171/104 113/175/105 52/176/104
f 114/177/50 115/178/49 116/179/49
f 117/180/50 24/181/75 118/182/75
f 114/177/50 24/181/75 30/183/50
f 117/180/50 119/184/106 26/185/50
f 120/186/107 70/91/107 73/187/107
f 121/188/108 84/189/108 86/190/108
f 122/191/34 88/192/34 90/193/34
f 123/194/109 97/195/109 99/196/109
f 124/197/110 106/198/110 108/199/110
f 66/200/111 80/94/112 65/201/113
f 112/202/114 106/198/115 111/203/116
f 103/204/117 97/195/118 102/205/119
f 94/206/120 88/192/121 93/207/122
f 118/208/123 84/189/124 117/209/125
f 72/210/126 75/86/127 69/85/128
f 85/211/129 114/212/130 83/213/131
f 89/214/132 91/215/133 87/216/134
f 98/217/135 100/218/136 96/219/137
f 107/220/138 109/221/139 105/222/140
f 64/223/21 77/89/21 63/88/21
f 110/224/141 105/222/141 109/221/141
f 101/225/142 96/219/142 100/218/142
f 92/226/143 87/216/143 91/215/143
f 116/227/144 83/213/144 114/212/144
f 125/228/75 126/229/75 127/230/75
f 128/231/145 129/232/145 130/233/145
f 131/234/146 130/233/147 132/235/148
f 126/236/149 133/237/149 127/238/149
f 71/239/150 6/6/151 8/8/152
f 134/240/153 135/241/153 136/242/153
f 137/243/154 138/244/155 135/241/156
f 138/244/157 139/245/157 140/246/157
f 141/247/158 136/242/158 142/248/158
f 143/249/159 144/250/15 145/251/160
f 146/252/14 147/253/15 148/254/14
f 149/255/161 150/256/161 151/257/161
f 152/258/162 153/259/163 150/256/164
f 154/260/165 153/259/165 155/261/165
f 156/262/166 151/257/166 157/263/166
f 158/264/167 159/265/167 160/266/168
f 161/267/169 162/268/170 159/265/171
f 162/268/172 163/269/172 164/270/172
f 165/271/173 160/266/173 166/272/173
f 167/273/174 168/274/174 169/275/174
f 170/276/175 171/277/176 168/274/177
f 171/277/165 172/278/165 173/279/165
f 174/280/178 169/275/178 175/281/178
f 176/282/179 177/283/179 178/284/179
f 179/285/180 180/286/181 177/283/182
f 180/286/183 181/287/183 182/288/183
f 183/289/184 178/284/184 184/290/184
f 145/291/185 185/292/185 186/293/186
f 144/294/187 187/295/188 185/292/189
f 187/295/190 148/296/190 188/297/190
f 143/298/191 186/293/191 189/299/191
f 190/300/192 189/301/193 186/302/192
f 191/303/52 185/304/75 187/305/52
f 190/300/192 185/304/75 192/306/75
f 191/303/52 188/307/75 193/308/75
f 194/309/80 129/310/159 195/311/159
f 196/312/14 132/313/14 197/314/14
f 132/313/14 194/309/80 197/314/14
f 133/315/14 196/312/14 198/316/14
f 199/317/194 194/318/194 195/319/194
f 200/320/195 190/321/196 192/322/197
f 201/323/198 196/324/199 197/325/200
f 202/326/201 193/327/201 203/328/201
f 204/329/202 183/330/203 205/331/203
f 202/332/204 179/333/205 200/334/206
f 179/333/205 204/329/202 200/334/206
f 181/335/207 202/332/208 203/336/207
f 142/337/209 206/338/209 199/339/209
f 135/340/210 207/341/75 201/342/47
f 206/338/192 135/340/210 201/342/47
f 207/341/75 140/343/75 208/344/75
f 209/345/81 141/346/53 210/347/211
f 211/348/14 137/349/14 212/350/14
f 137/349/14 209/345/81 212/350/14
f 139/351/212 211/348/212 213/352/212
f 214/353/213 156/354/214 215/355/214
f 216/356/80 152/357/14 217/358/14
f 152/357/14 214/353/213 217/358/14
f 154/359/58 216/356/58 218/360/58
f 166/361/210 219/362/210 220/363/210
f 159/364/210 221/365/75 222/366/210
f 219/362/47 159/364/210 222/366/210
f 221/365/75 164/367/75 223/368/75
f 224/369/215 165/370/216 225/371/78
f 226/372/217 161/373/218 227/374/219
f 161/373/218 224/369/215 227/374/219
f 163/375/220 226/372/220 228/376/220
f 175/377/221 229/378/222 230/379/221
f 168/380/223 231/381/224 232/382/225
f 229/378/226 168/380/223 232/382/225
f 231/381/224 173/383/227 233/384/227
f 234/385/102 174/386/228 235/387/228
f 236/388/229 170/389/230 237/390/230
f 170/389/230 234/385/102 237/390/230
f 172/391/98 236/388/98 238/392/98
f 184/393/209 239/394/209 240/395/209
f 177/396/75 241/397/231 242/398/232
f 239/394/192 177/396/75 242/398/232
f 241/397/231 182/399/233 243/400/233
f 157/401/209 244/402/234 245/403/209
f 150/404/75 246/405/192 247/406/75
f 244/402/192 150/404/75 247/406/75
f 246/405/192 248/407/104 249/408/52
f 196/324/235 208/409/235 198/410/235
f 211/411/236 249/412/236 213/413/236
f 216/414/237 223/415/237 218/416/237
f 226/417/238 233/418/238 228/419/239
f 236/420/240 243/421/240 238/422/240
f 192/322/241 202/326/242 200/320/243
f 242/423/244 236/420/245 237/424/246
f 232/425/247 226/417/248 227/426/249
f 222/427/250 216/414/251 217/428/252
f 247/429/253 211/411/254 212/430/255
f 197/325/256 206/431/257 201/323/258
f 212/430/259 244/432/260 247/429/261
f 217/428/262 219/433/263 222/427/264
f 227/426/265 229/434/266 232/425/267
f 237/424/268 239/435/269 242/423/270
f 250/436/166 204/437/166 205/438/166
f 240/439/271 234/440/271 235/441/271
f 230/442/272 224/443/272 225/444/272
f 220/445/178 214/446/178 215/447/178
f 245/448/273 209/449/273 210/450/273
f 251/451/75 1/452/75 3/453/75
f 126/236/274 132/235/275 252/454/276
f 253/455/277 254/456/277 255/457/277
f 256/458/278 257/459/278 258/460/278
f 259/461/279 260/462/279 261/463/279
f 261/464/280 262/465/280 259/466/280
f 256/467/281 261/468/282 260/469/281
f 263/470/283 264/471/283 253/472/283
f 265/473/284 253/474/284 255/475/284
f 259/476/285 258/477/285 257/478/286
f 266/479/279 263/480/279 265/481/279
f 267/482/278 254/483/278 264/484/278
f 265/485/287 254/486/288 266/487/288
f 256/488/277 262/489/277 268/490/277
f 251/451/75 6/491/75 4/492/75
f 125/228/75 128/493/75 131/494/75
f 1/1/1 5/5/289 2/2/1
f 4/4/2 71/239/290 5/5/3
f 6/6/5 269/495/5 7/7/5
f 9/9/6 13/13/291 10/10/6
f 12/12/8 15/15/292 13/13/9
f 12/12/11 82/496/11 14/14/11
f 11/11/12 10/10/12 16/16/12
f 18/18/15 22/22/15 19/19/15
f 21/21/14 61/497/14 22/22/15
f 23/23/16 30/30/16 24/24/16
f 25/25/17 24/24/293 26/26/18
f 26/26/20 119/498/20 28/28/20
f 29/29/21 115/499/21 30/30/21
f 31/31/22 35/35/22 32/32/22
f 34/34/24 37/37/294 35/35/25
f 34/34/27 95/500/27 36/36/27
f 33/33/28 32/32/28 38/38/28
f 40/40/29 44/44/29 41/41/29
f 43/43/31 46/46/295 44/44/32
f 43/43/34 104/501/34 45/45/34
f 42/42/21 41/41/21 47/47/21
f 49/49/35 53/53/35 50/50/35
f 52/52/36 55/55/296 53/53/37
f 52/52/39 113/502/39 54/54/39
f 51/51/40 50/50/40 56/56/40
f 58/58/41 18/62/297 20/59/41
f 60/61/42 21/64/298 18/62/43
f 60/61/45 67/503/45 61/63/45
f 59/60/46 20/59/46 19/65/46
f 63/67/47 59/504/50 62/68/48
f 65/70/50 60/505/50 58/71/51
f 58/71/51 59/504/50 63/67/47
f 67/73/103 60/505/50 65/70/50
f 69/75/54 270/506/54 2/76/54
f 70/78/55 72/81/14 71/79/14
f 69/75/53 5/77/53 71/79/14
f 70/78/55 8/80/56 7/82/57
f 74/84/59 270/507/59 69/85/59
f 76/87/60 66/200/299 63/88/61
f 78/90/63 72/210/300 70/91/64
f 68/93/66 65/201/66 80/94/66
f 77/96/301 271/508/301 56/97/301
f 80/99/70 76/102/73 53/100/71
f 77/96/67 50/98/69 53/100/71
f 80/99/70 55/101/72 54/103/74
f 75/105/50 11/111/50 17/106/49
f 79/108/75 12/113/75 9/109/76
f 75/105/50 78/110/51 9/109/76
f 79/108/75 120/509/75 82/112/75
f 83/114/302 272/510/54 16/115/54
f 84/117/14 85/120/14 13/118/14
f 83/114/53 10/116/53 13/118/14
f 84/117/14 15/119/14 14/121/14
f 87/123/14 273/511/216 29/124/216
f 88/126/14 89/129/81 25/127/80
f 87/123/56 23/125/79 25/127/80
f 88/126/14 27/128/14 28/130/55
f 91/132/50 33/138/50 39/133/49
f 93/135/52 34/140/52 31/136/75
f 91/132/50 94/137/75 31/136/75
f 93/135/75 122/512/75 95/139/75
f 96/141/214 274/513/214 38/142/214
f 97/144/85 98/147/88 35/145/86
f 96/141/82 32/143/84 35/145/86
f 97/144/85 37/146/87 36/148/89
f 100/150/91 42/156/96 48/151/92
f 102/153/93 43/158/93 40/154/94
f 100/150/91 103/155/95 40/154/94
f 102/153/303 123/514/304 104/157/304
f 105/159/305 275/515/305 47/160/305
f 106/162/100 107/165/101 44/163/101
f 105/159/98 41/161/98 44/163/101
f 106/162/100 46/164/100 45/166/102
f 109/168/103 51/174/103 57/169/49
f 111/171/104 52/176/104 49/172/52
f 109/168/103 112/173/75 49/172/52
f 111/171/306 124/516/105 113/175/105
f 114/177/50 30/183/50 115/178/49
f 117/180/50 26/185/50 24/181/75
f 114/177/50 118/182/75 24/181/75
f 117/180/52 121/517/52 119/184/52
f 120/186/307 79/92/307 70/91/307
f 121/188/27 117/209/27 84/189/27
f 122/191/34 93/207/34 88/192/34
f 123/194/308 102/205/308 97/195/308
f 124/197/110 111/203/110 106/198/110
f 66/200/111 76/87/309 80/94/112
f 112/202/114 107/220/310 106/198/115
f 103/204/117 98/217/311 97/195/118
f 94/206/120 89/214/312 88/192/121
f 118/208/123 85/211/313 84/189/124
f 72/210/126 78/90/314 75/86/127
f 85/211/129 118/208/315 114/212/130
f 89/214/132 94/206/316 91/215/133
f 98/217/135 103/204/317 100/218/136
f 107/220/138 112/202/318 109/221/139
f 64/223/21 271/518/21 77/89/21
f 110/224/141 275/519/141 105/222/141
f 101/225/142 274/520/319 96/219/142
f 92/226/143 273/521/143 87/216/143
f 116/227/144 272/522/144 83/213/144
f 125/228/75 131/494/75 126/229/75
f 128/231/320 276/523/320 129/232/320
f 131/234/146 128/231/321 130/233/147
f 126/236/149 252/454/322 133/237/149
f 71/239/150 4/4/323 6/6/151
f 134/240/153 137/243/153 135/241/153
f 137/243/154 277/524/324 138/244/155
f 138/244/157 277/524/157 139/245/157
f 141/247/158 134/240/158 136/242/158
f 143/249/159 147/253/15 144/250/15
f 146/252/14 144/250/15 147/253/15
f 149/255/161 152/258/325 150/256/161
f 152/258/162 155/261/326 153/259/163
f 154/260/165 248/525/165 153/259/165
f 156/262/166 149/255/166 151/257/166
f 158/264/167 161/267/167 159/265/167
f 161/267/169 278/526/327 162/268/170
f 162/268/172 278/526/172 163/269/172
f 165/271/173 158/264/173 160/266/173
f 167/273/174 170/276/174 168/274/174
f 170/276/175 279/527/328 171/277/176
f 171/277/165 279/527/165 172/278/165
f 174/280/178 167/273/178 169/275/178
f 176/282/179 179/285/179 177/283/179
f 179/285/180 280/528/329 180/286/181
f 180/286/183 280/528/183 181/287/183
f 183/289/184 176/282/184 178/284/184
f 145/291/185 144/294/330 185/292/185
f 144/294/187 146/529/331 187/295/188
f 187/295/190 146/529/190 148/296/190
f 143/298/191 145/291/191 186/293/191
f 190/300/209 250/530/209 189/301/209
f 191/303/52 192/306/75 185/304/75
f 190/300/192 186/302/192 185/304/75
f 191/303/52 187/305/52 188/307/75
f 194/309/80 130/531/80 129/310/159
f 196/312/14 252/532/14 132/313/14
f 132/313/14 130/531/80 194/309/80
f 133/315/14 252/532/14 196/312/14
f 199/317/194 206/431/194 194/318/194
f 200/320/195 204/437/332 190/321/196
f 201/323/198 207/533/333 196/324/199
f 202/326/201 191/534/201 193/327/201
f 204/329/202 176/535/334 183/330/203
f 202/332/204 280/536/335 179/333/205
f 179/333/205 176/535/334 204/329/202
f 181/335/207 280/536/335 202/332/204
f 142/337/193 136/537/192 206/338/192
f 135/340/210 138/538/75 207/341/75
f 206/338/192 136/537/192 135/340/210
f 207/341/75 138/538/75 140/343/75
f 209/345/81 134/539/80 141/346/53
f 211/348/14 277/540/14 137/349/14
f 137/349/14 134/539/80 209/345/81
f 139/351/14 277/540/14 211/348/14
f 214/353/213 149/541/213 156/354/214
f 216/356/80 155/542/80 152/357/14
f 152/357/14 149/541/213 214/353/213
f 154/359/336 155/542/80 216/356/80
f 166/361/337 160/543/47 219/362/47
f 159/364/210 162/544/75 221/365/75
f 219/362/47 160/543/47 159/364/210
f 221/365/75 162/544/75 164/367/75
f 224/369/215 158/545/215 165/370/216
f 226/372/217 278/546/217 161/373/218
f 161/373/218 158/545/215 224/369/215
f 163/375/338 278/546/217 226/372/217
f 175/377/339 169/547/340 229/378/226
f 168/380/223 171/548/341 231/381/224
f 229/378/226 169/547/340 168/380/223
f 231/381/224 171/548/341 173/383/227
f 234/385/102 167/549/102 174/386/228
f 236/388/229 279/550/229 170/389/230
f 170/389/230 167/549/102 234/385/102
f 172/391/98 279/550/229 236/388/229
f 184/393/209 178/551/192 239/394/192
f 177/396/75 180/552/231 241/397/231
f 239/394/192 178/551/192 177/396/75
f 241/397/231 180/552/231 182/399/233
f 157/401/209 151/553/192 244/402/192
f 150/404/75 153/554/192 246/405/192
f 244/402/192 151/553/192 150/404/75
f 246/405/192 153/554/192 248/407/104
f 196/324/235 207/533/235 208/409/235
f 211/411/236 246/555/342 249/412/236
f 216/414/237 221/556/237 223/415/237
f 226/417/238 231/557/238 233/418/238
f 236/420/240 241/558/240 243/421/240
f 192/322/241 191/534/343 202/326/242
f 242/423/244 241/558/344 236/420/245
f 232/425/247 231/557/345 226/417/248
f 222/427/250 221/556/346 216/414/251
f 247/429/253 246/555/347 211/411/254
f 197/325/256 194/318/348 206/431/257
f 212/430/259 209/449/349 244/432/260
f 217/428/262 214/446/350 219/433/263
f 227/426/265 224/443/351 229/434/266
f 237/424/268 234/440/352 239/435/269
f 250/436/166 190/321/166 204/437/166
f 240/439/271 239/435/271 234/440/271
f 230/442/272 229/434/272 224/443/272
f 220/445/178 219/433/178 214/446/178
f 245/448/273 244/432/273 209/449/273
f 251/451/75 4/492/75 1/452/75
f 126/236/274 131/234/353 132/235/275
f 253/455/277 264/559/277 254/456/277
f 256/458/278 260/560/278 257/459/278
f 259/461/279 257/561/279 260/462/279
f 261/464/280 268/562/280 262/465/280
f 256/467/281 268/563/282 261/468/282
f 263/470/283 267/564/354 264/471/283
f 265/473/284 263/565/284 253/474/284
f 259/476/285 262/566/285 258/477/285
f 266/479/279 267/567/279 263/480/279
f 267/482/278 266/568/278 254/483/278
f 265/485/287 255/569/287 254/486/288
f 256/488/277 258/570/277 262/489/277
f 251/451/75 269/571/75 6/491/75
f 125/228/75 276/572/75 128/493/75
