# Blender v3.0.0 OBJ File: ''
# www.blender.org
mtllib origin_1.mtl
o origin_1
v 0.495060 1.092448 0.124275
v 0.494340 1.087378 0.113717
v 0.499780 1.087759 0.118076
v 0.475334 1.080048 0.086559
v 0.472145 1.082333 0.088991
v 0.475566 1.083327 0.093233
v 0.472026 1.086237 0.096675
v 0.467067 1.088957 0.098800
v 0.464626 1.086613 0.092522
v 0.455931 1.087131 0.087795
v 0.449697 1.089035 0.087454
v 0.453583 1.090163 0.092270
v 0.451356 1.096460 0.103315
v 0.448128 1.102170 0.112531
v 0.453610 1.101144 0.114121
v 0.431846 1.098126 0.093710
v 0.433859 1.100876 0.100511
v 0.437316 1.095630 0.092368
v 0.416668 1.097082 0.081586
v 0.419760 1.096226 0.081929
v 0.417276 1.098166 0.084142
v 0.411554 1.101480 0.086944
v 0.409006 1.100821 0.083946
v 0.412164 1.099395 0.083202
v 0.426101 1.105436 0.080293
v 0.423135 1.096531 0.084772
v 0.450067 1.093359 0.096297
v 0.454321 1.105365 0.098836
v 0.453033 1.102265 0.091818
v 0.460455 1.083850 0.084266
v 0.459213 1.094605 0.080681
v 0.463421 1.092755 0.079788
v 0.499010 1.084186 0.110463
v 0.502745 1.096664 0.113597
v 0.419634 1.105988 0.077108
v 0.422725 1.105131 0.077450
v 0.449613 1.099664 0.084382
v 0.446647 1.090758 0.088861
v 0.460295 1.085980 0.088396
v 0.456247 1.085700 0.085160
v 0.494783 1.092042 0.099136
v 0.501975 1.093091 0.105984
v 0.417389 1.107140 0.077913
v 0.441984 1.090199 0.084662
v 0.444949 1.099104 0.080183
v 0.463260 1.094885 0.083917
v 0.491818 1.083137 0.103614
v 0.497305 1.096283 0.109238
v 0.414423 1.098235 0.082392
v 0.420242 1.107071 0.079664
v 0.437871 1.090991 0.083513
v 0.440836 1.099896 0.079034
v 0.470032 1.097862 0.094321
v 0.467591 1.095518 0.088043
v 0.419215 1.099066 0.087217
v 0.434888 1.092595 0.084727
v 0.437853 1.101500 0.080248
v 0.469471 1.095713 0.113824
v 0.496922 1.106047 0.128399
v 0.498025 1.101354 0.119797
v 0.423899 1.110085 0.088078
v 0.422181 1.107971 0.082738
v 0.442030 1.100932 0.081884
v 0.439065 1.092027 0.086363
v 0.473319 1.108682 0.118011
v 0.472436 1.104618 0.109345
v 0.493957 1.097142 0.132878
v 0.493776 1.109340 0.132862
v 0.424213 1.101667 0.095697
v 0.420934 1.101180 0.092557
v 0.442322 1.093326 0.091103
v 0.445287 1.102232 0.086624
v 0.470353 1.099777 0.122489
v 0.474434 1.110662 0.122685
v 0.493648 1.102651 0.143627
v 0.490810 1.100435 0.137341
v 0.430894 1.110324 0.093185
v 0.427179 1.110572 0.091218
v 0.448442 1.106620 0.097438
v 0.445476 1.097715 0.101917
v 0.471468 1.101757 0.127164
v 0.477459 1.111617 0.126587
v 0.490137 1.102708 0.141416
v 0.488941 1.096796 0.104721
v 0.485975 1.087891 0.109199
v 0.416944 1.101193 0.089942
v 0.418538 1.108455 0.081289
v 0.419909 1.110099 0.085464
v 0.451093 1.111075 0.108052
v 0.474494 1.102712 0.131066
v 0.481276 1.111624 0.129127
v 0.483154 1.082711 0.097032
v 0.486119 1.091616 0.092553
v 0.415572 1.099550 0.085767
v 0.451250 1.102836 0.115924
v 0.454216 1.111742 0.111445
v 0.467165 1.102226 0.125247
v 0.467825 1.108526 0.114062
v 0.464859 1.099621 0.118541
v 0.482720 1.089685 0.086462
v 0.479755 1.080780 0.090941
v 0.411971 1.109726 0.079467
v 0.415130 1.108300 0.078723
v 0.458217 1.111075 0.112769
v 0.455252 1.102170 0.117248
v 0.467117 1.105447 0.107471
v 0.464152 1.096542 0.111950
v 0.478300 1.088953 0.082081
v 0.406710 1.102396 0.085559
v 0.439902 1.099046 0.100873
v 0.445404 1.111124 0.104383
v 0.442867 1.107951 0.096394
v 0.462882 1.093017 0.104102
v 0.465847 1.101923 0.099623
v 0.473606 1.089861 0.080777
v 0.470640 1.080956 0.085256
v 0.414519 1.110386 0.082466
v 0.409675 1.111302 0.081080
v 0.440281 1.104535 0.087889
v 0.460388 1.088720 0.093905
v 0.463353 1.097625 0.089426
v 0.466973 1.082667 0.086230
v 0.469939 1.091572 0.081752
v 0.433929 1.093774 0.086436
v 0.436895 1.102679 0.081957
v 0.458897 1.096036 0.083316
v 0.475110 1.091238 0.084512
v 0.433472 1.102151 0.078642
v 0.430507 1.093246 0.083120
v 0.453458 1.095780 0.079207
v 0.450493 1.086875 0.083686
v 0.478531 1.092232 0.088754
v 0.426951 1.093952 0.082171
v 0.429917 1.102858 0.077692
v 0.444829 1.089004 0.084169
v 0.447794 1.097909 0.079691
v 0.481527 1.094188 0.094626
v 0.478562 1.085283 0.099105
v 0.426875 1.104482 0.078908
v 0.423909 1.095577 0.083387
v 0.452662 1.097940 0.082975
v 0.484783 1.108241 0.124724
v 0.481818 1.099336 0.129203
v 0.429946 1.104171 0.080324
v 0.426981 1.095266 0.084803
v 0.456548 1.099068 0.087791
v 0.486019 1.110848 0.130725
v 0.483054 1.101943 0.135204
v 0.429872 1.095972 0.088121
v 0.432838 1.104877 0.083642
v 0.459184 1.102284 0.095929
v 0.456218 1.093379 0.100408
v 0.485698 1.102907 0.138872
v 0.488663 1.111812 0.134394
v 0.434812 1.107031 0.089231
v 0.458254 1.098245 0.111433
v 0.461219 1.107151 0.106954
v 0.487860 1.102998 0.140484
v 0.490825 1.111903 0.136006
v 0.436824 1.109781 0.096032
v 0.461805 1.110121 0.113247
v 0.458840 1.101215 0.117726
v 0.493103 1.111614 0.136938
v 0.439310 1.110776 0.099655
v 0.436344 1.101870 0.104134
v 0.464368 1.111329 0.117348
v 0.461403 1.102424 0.121826
v 0.474251 1.089548 0.104731
v 0.478311 1.102718 0.133606
v 0.440047 1.102111 0.107063
v 0.443012 1.111016 0.102584
v 0.467831 1.111523 0.120026
v 0.464866 1.102618 0.124504
v 0.477216 1.098453 0.100252
v 0.442439 1.102219 0.108862
v 0.470130 1.111131 0.120768
v 0.472126 1.093061 0.086162
v 0.474992 1.095142 0.092196
v 0.497725 1.098944 0.138955
v 0.496614 1.111556 0.139149
v 0.426048 1.098584 0.090782
v 0.427928 1.101419 0.097664
v 0.456576 1.110049 0.109642
v 0.465125 1.083643 0.086948
v 0.469161 1.084156 0.090640
v 0.503106 1.101753 0.123955
v 0.500690 1.107849 0.134476
v 0.429013 1.107489 0.086303
v 0.468091 1.092548 0.082469
v 0.500141 1.092848 0.128433
vt 0.632367 0.546301
vt 0.632348 0.547508
vt 0.631809 0.547104
vt 0.627604 0.577185
vt 0.627253 0.576661
vt 0.627279 0.577156
vt 0.623738 0.576934
vt 0.624363 0.576726
vt 0.624390 0.577454
vt 0.632169 0.565903
vt 0.631675 0.565615
vt 0.631746 0.566175
vt 0.633690 0.553499
vt 0.633721 0.554433
vt 0.634096 0.554336
vt 0.611193 0.580800
vt 0.611696 0.580540
vt 0.610876 0.580256
vt 0.625075 0.549178
vt 0.624976 0.549241
vt 0.625017 0.549073
vt 0.636274 0.541707
vt 0.636274 0.541705
vt 0.636275 0.541705
vt 0.624865 0.550453
vt 0.624774 0.549226
vt 0.633755 0.552739
vt 0.632561 0.552395
vt 0.632387 0.553533
vt 0.624267 0.578072
vt 0.624754 0.578946
vt 0.624097 0.578946
vt 0.631942 0.547784
vt 0.630580 0.547360
vt 0.625951 0.549722
vt 0.625583 0.550083
vt 0.633960 0.552014
vt 0.633164 0.551357
vt 0.624404 0.577921
vt 0.624370 0.578095
vt 0.632369 0.549028
vt 0.630976 0.548503
vt 0.626132 0.549347
vt 0.634224 0.551658
vt 0.633773 0.550821
vt 0.625203 0.578442
vt 0.632214 0.548108
vt 0.633560 0.547931
vt 0.625114 0.549129
vt 0.626121 0.548618
vt 0.634405 0.551520
vt 0.634296 0.550632
vt 0.625645 0.576834
vt 0.625458 0.577747
vt 0.624866 0.548964
vt 0.634507 0.551487
vt 0.634839 0.550751
vt 0.624225 0.574856
vt 0.633549 0.544868
vt 0.633686 0.546269
vt 0.624703 0.547619
vt 0.625806 0.548031
vt 0.634485 0.551693
vt 0.635387 0.551219
vt 0.625216 0.573169
vt 0.625576 0.574570
vt 0.632332 0.545282
vt 0.633181 0.543995
vt 0.624425 0.548802
vt 0.624625 0.548804
vt 0.634465 0.552192
vt 0.635602 0.551963
vt 0.624134 0.573929
vt 0.624587 0.572575
vt 0.632121 0.544628
vt 0.632279 0.544810
vt 0.623352 0.548232
vt 0.623945 0.547827
vt 0.634336 0.553377
vt 0.635602 0.553692
vt 0.623935 0.573611
vt 0.623798 0.572165
vt 0.627811 0.571685
vt 0.627949 0.574545
vt 0.629384 0.574470
vt 0.636276 0.541709
vt 0.635950 0.540490
vt 0.637117 0.540989
vt 0.634870 0.555294
vt 0.623670 0.573455
vt 0.622866 0.572154
vt 0.627918 0.576065
vt 0.629122 0.576387
vt 0.636276 0.541707
vt 0.633910 0.554552
vt 0.634167 0.555578
vt 0.631653 0.562213
vt 0.631775 0.562562
vt 0.632609 0.561719
vt 0.627772 0.576759
vt 0.628783 0.577313
vt 0.635111 0.542051
vt 0.635256 0.541258
vt 0.633754 0.554612
vt 0.633505 0.555637
vt 0.632009 0.563164
vt 0.633143 0.562633
vt 0.628195 0.577926
vt 0.636272 0.541705
vt 0.611248 0.579904
vt 0.612104 0.578658
vt 0.610353 0.578698
vt 0.632170 0.564057
vt 0.633537 0.563836
vt 0.627407 0.577374
vt 0.627659 0.578235
vt 0.637126 0.542653
vt 0.635684 0.542653
vt 0.612973 0.580136
vt 0.632283 0.565225
vt 0.633495 0.565473
vt 0.627282 0.577432
vt 0.627043 0.578193
vt 0.611885 0.581087
vt 0.612956 0.581270
vt 0.633094 0.566446
vt 0.626339 0.577637
vt 0.611876 0.581403
vt 0.612746 0.581913
vt 0.631977 0.566315
vt 0.632536 0.567157
vt 0.626120 0.576956
vt 0.611824 0.581569
vt 0.612363 0.582275
vt 0.631807 0.566451
vt 0.631602 0.567267
vt 0.627274 0.575903
vt 0.625953 0.576054
vt 0.611750 0.581643
vt 0.611925 0.582513
vt 0.630841 0.566760
vt 0.627154 0.572415
vt 0.625953 0.571749
vt 0.611678 0.581532
vt 0.611326 0.582498
vt 0.630525 0.566011
vt 0.627332 0.571905
vt 0.626709 0.570984
vt 0.611486 0.581254
vt 0.610801 0.582177
vt 0.631529 0.564630
vt 0.630262 0.564812
vt 0.627551 0.571715
vt 0.627329 0.570760
vt 0.610098 0.581521
vt 0.631385 0.563319
vt 0.630262 0.563175
vt 0.627700 0.571674
vt 0.627662 0.570704
vt 0.609768 0.580377
vt 0.631363 0.562720
vt 0.630451 0.562332
vt 0.628042 0.570739
vt 0.610835 0.579916
vt 0.609768 0.579745
vt 0.631443 0.562426
vt 0.630821 0.561850
vt 0.623610 0.576023
vt 0.623477 0.573457
vt 0.610885 0.579641
vt 0.609973 0.579088
vt 0.631567 0.562264
vt 0.631207 0.561538
vt 0.622373 0.576154
vt 0.610929 0.579510
vt 0.631446 0.561438
vt 0.623005 0.578142
vt 0.622644 0.577310
vt 0.631908 0.544873
vt 0.631914 0.543586
vt 0.624500 0.549052
vt 0.624308 0.548873
vt 0.632832 0.555306
vt 0.624082 0.577879
vt 0.623901 0.577544
vt 0.630580 0.545764
vt 0.631075 0.544197
vt 0.623352 0.550103
vt 0.623514 0.578625
vt 0.631755 0.545921
vn -0.2568 -0.8465 0.4663
vn -0.2507 -0.8765 0.4111
vn -0.2851 -0.8563 0.4307
vn -0.2851 -0.8563 0.4306
vn -0.2012 -0.8538 0.4801
vn -0.3101 -0.9196 0.2413
vn -0.2852 -0.8563 0.4306
vn -0.2417 -0.8519 0.4645
vn -0.2480 -0.9119 0.3271
vn -0.1714 -0.8173 0.5502
vn -0.2959 -0.9069 0.3000
vn -0.2920 -0.8576 0.4234
vn -0.3313 -0.7878 0.5192
vn -0.2748 -0.8680 0.4135
vn -0.2849 -0.8562 0.4309
vn -0.1538 -0.8949 0.4190
vn -0.2328 -0.8867 0.3996
vn -0.2851 -0.8564 0.4305
vn 0.5800 -0.5119 -0.6337
vn 0.7420 -0.4817 -0.4663
vn 0.7420 -0.4816 -0.4663
vn 0.9154 -0.3765 -0.1426
vn 0.9154 -0.3765 -0.1425
vn 0.9420 -0.3333 -0.0389
vn -0.3336 -0.3326 -0.8821
vn -0.3335 -0.3326 -0.8822
vn -0.3337 -0.3326 -0.8820
vn 0.9541 -0.2963 0.0426
vn 0.9565 -0.2829 0.0708
vn -0.0233 -0.4429 -0.8963
vn -0.2419 -0.3704 -0.8968
vn -0.0236 -0.4429 -0.8963
vn 0.7599 -0.4758 -0.4429
vn -0.6109 0.5146 0.6017
vn -0.5571 0.5137 0.6525
vn 0.6325 -0.5057 -0.5867
vn 0.6324 -0.5057 -0.5868
vn -0.2420 -0.3704 -0.8968
vn -0.4476 -0.2783 -0.8498
vn 0.6089 -0.5088 -0.6085
vn -0.7223 0.5565 0.4107
vn -0.5957 0.5103 0.6203
vn -0.9319 0.3528 0.0845
vn -0.9477 0.3190 0.0070
vn -0.4388 0.5161 0.7356
vn -0.4389 0.5161 0.7355
vn -0.4386 0.5160 0.7358
vn 0.1480 -0.4833 -0.8629
vn -0.9267 0.3610 0.1043
vn -0.7870 0.4656 0.4048
vn -0.9477 0.2538 -0.1937
vn -0.9332 0.3594 0.0078
vn -0.8873 0.4143 0.2028
vn -0.8066 0.4571 0.3748
vn -0.7300 0.5712 0.3754
vn -0.4808 -0.2605 -0.8372
vn -0.4809 -0.2609 -0.8370
vn -0.9503 0.3098 -0.0312
vn -0.9247 0.3769 0.0540
vn -0.9071 0.0959 -0.4098
vn -0.9582 0.2427 -0.1517
vn -0.8872 0.4143 0.2028
vn -0.9146 0.3775 0.1449
vn -0.8683 0.4211 0.2622
vn -0.2557 0.5010 0.8268
vn -0.4333 0.6148 0.6590
vn -0.2553 0.5008 0.8270
vn -0.9461 0.3234 0.0166
vn -0.9512 0.3082 -0.0170
vn -0.9225 0.1728 -0.3451
vn -0.8217 -0.0129 -0.5697
vn -0.5113 0.5159 0.6873
vn -0.6348 0.5053 0.5845
vn -0.8394 0.5141 0.1764
vn -0.8652 0.4233 0.2689
vn -0.7833 0.4671 0.4102
vn -0.9461 0.3234 0.0165
vn -0.8622 0.4255 0.2750
vn -0.8747 0.4162 0.2482
vn -0.3746 0.5132 0.7722
vn -0.5113 0.5160 0.6873
vn -0.9316 0.3523 0.0895
vn -0.9272 0.3602 0.1023
vn -0.6214 0.5073 0.5971
vn 0.9514 -0.3075 0.0185
vn 0.9445 -0.3274 -0.0255
vn 0.9128 -0.3797 -0.1505
vn 0.9129 -0.3796 -0.1504
vn 0.9129 -0.3795 -0.1503
vn -0.9352 0.3417 0.0930
vn -0.9318 0.3529 0.0847
vn -0.6214 0.5072 0.5972
vn -0.4750 0.5165 0.7125
vn 0.8951 -0.3986 -0.1999
vn 0.5302 -0.5152 -0.6734
vn -0.6852 0.4963 0.5331
vn 0.9086 -0.3846 -0.1630
vn 0.9642 -0.2625 -0.0367
vn 0.9369 -0.3439 -0.0633
vn 0.7516 -0.4786 -0.4540
vn -0.3530 -0.3239 -0.8777
vn -0.5044 -0.2480 -0.8271
vn -0.3530 -0.3239 -0.8778
vn -0.1984 0.4923 0.8475
vn 0.9508 -0.3096 0.0139
vn 0.6490 -0.5031 -0.5707
vn -0.6401 -0.1644 -0.7505
vn 0.9195 -0.3689 -0.1359
vn 0.9175 -0.3738 -0.1359
vn 0.9157 -0.3760 -0.1414
vn 0.9408 -0.3358 -0.0449
vn 0.1462 -0.4830 -0.8633
vn -0.1546 0.4845 0.8610
vn -0.2776 0.5038 0.8180
vn -0.1547 0.4845 0.8610
vn 0.8810 -0.4111 -0.2342
vn 0.8678 -0.4214 -0.2633
vn -0.3775 -0.3127 -0.8716
vn -0.3776 -0.3125 -0.8716
vn -0.3775 -0.3126 -0.8716
vn -0.3958 0.5143 0.7608
vn -0.2937 0.5529 0.7798
vn 0.7965 -0.3930 -0.4595
vn 0.7444 -0.4809 -0.4632
vn 0.6988 -0.4342 -0.5684
vn 0.6581 -0.5016 -0.5615
vn -0.4310 0.6315 0.6445
vn -0.5709 0.5126 0.6413
vn -0.3781 0.5134 0.7704
vn 0.6253 -0.3827 -0.6801
vn 0.6400 -0.5041 -0.5800
vn 0.6393 -0.5047 -0.5802
vn 0.4911 -0.3913 -0.7783
vn 0.5320 -0.5151 -0.6720
vn -0.8221 0.4835 0.3005
vn -0.7986 0.4607 0.3873
vn 0.1358 -0.4808 -0.8663
vn 0.1359 -0.4809 -0.8662
vn 0.1358 -0.4809 -0.8662
vn -0.2192 -0.3792 -0.8990
vn -0.2193 -0.3791 -0.8990
vn -0.9066 0.4218 0.0104
vn -0.9193 0.3715 0.1300
vn -0.4761 -0.2634 -0.8390
vn -0.4812 0.5165 0.7083
vn -0.5201 0.5953 0.6125
vn -0.6161 0.5079 0.6020
vn -0.9480 0.3184 0.0054
vn -0.3175 0.5084 0.8005
vn -0.5709 0.6214 0.5366
vn -0.5273 0.5154 0.6755
vn -0.8792 0.4460 0.1676
vn -0.8398 0.4398 0.3184
vn -0.8763 0.4149 0.2448
vn -0.7874 0.5685 0.2384
vn -0.8230 0.4491 0.3478
vn -0.9271 0.3728 0.0391
vn -0.9310 0.3543 0.0880
vn -0.6577 0.5016 0.5620
vn -0.9044 0.3979 0.1543
vn -0.9139 0.3784 0.1470
vn -0.9425 0.3316 -0.0406
vn -0.9503 0.3112 -0.0102
vn -0.4033 0.5147 0.7566
vn -0.8645 0.4238 0.2703
vn -0.9077 0.3855 0.1656
vn -0.2718 0.5030 0.8204
vn -0.6781 0.4978 0.5407
vn -0.6781 0.4978 0.5408
vn -0.6896 0.4953 0.5283
vn 0.9400 -0.3377 -0.0492
vn 0.9501 -0.3119 0.0087
vn -0.5412 0.5147 0.6650
vn -0.4238 0.6421 0.6388
vn -0.3740 0.5130 0.7726
vn 0.8999 -0.3938 -0.1871
vn -0.5299 0.5152 0.6736
vn -0.0890 0.6399 0.7633
vn -0.1910 0.4911 0.8499
vn 0.7588 -0.4762 -0.4444
vn 0.8999 -0.3939 -0.1871
vn 0.8763 -0.0509 0.4791
vn 0.7747 0.0586 0.6296
vn 0.8990 -0.3948 -0.1897
vn 0.9267 -0.3611 -0.1044
vn 0.8482 -0.4347 -0.3027
vn 0.8972 -0.3412 -0.2804
vn 0.9033 -0.3903 -0.1779
vn 0.5169 -0.5157 -0.6833
vn 0.7588 -0.4761 -0.4445
vn 0.9549 -0.2152 0.2044
vn 0.8763 -0.0509 0.4790
vn 0.9451 -0.3251 -0.0340
vn 0.4095 -0.5151 -0.7530
vn 0.5169 -0.5158 -0.6832
vn -0.2850 -0.8563 0.4307
vn -0.2324 -0.9083 0.3478
vn -0.2852 -0.8563 0.4307
vn -0.2852 -0.8562 0.4308
vn -0.1633 -0.8478 0.5046
vn -0.2859 -0.8555 0.4318
vn -0.2853 -0.8562 0.4307
vn -0.2765 -0.8534 0.4418
vn -0.2851 -0.8563 0.4308
vn -0.2631 -0.8574 0.4422
vn -0.2850 -0.8564 0.4306
vn -0.3590 -0.8559 0.3723
vn -0.2510 -0.8582 0.4477
vn -0.2408 -0.8540 0.4612
vn -0.2711 -0.8560 0.4402
vn -0.1471 -0.8890 0.4336
vn -0.2852 -0.8562 0.4307
vn -0.0226 -0.9123 0.4089
vn -0.2901 -0.8553 0.4292
vn -0.1140 -0.9058 0.4080
vn -0.0912 -0.9059 0.4135
vn -0.2512 -0.8382 0.4841
vn -0.2850 -0.8562 0.4309
vn -0.2850 -0.8564 0.4305
vn 0.5799 -0.5119 -0.6338
vn 0.9542 -0.2963 0.0426
vn -0.5572 0.5137 0.6524
vn 0.6325 -0.5056 -0.5867
vn -0.4474 -0.2784 -0.8499
vn -0.5170 0.5716 0.6372
vn -0.8065 0.4572 0.3749
vn -0.9146 0.3775 0.1450
vn -0.8217 -0.0129 -0.5698
vn -0.6347 0.5054 0.5846
vn -0.6209 0.6812 0.3879
vn -0.8748 0.4162 0.2482
vn -0.9318 0.3529 0.0846
vn 0.5303 -0.5153 -0.6732
vn 0.9086 -0.3845 -0.1630
vn 0.1464 -0.4829 -0.8633
vn -0.3774 -0.3127 -0.8716
vn -0.3781 0.5133 0.7704
vn 0.6395 -0.5047 -0.5799
vn 0.5319 -0.5152 -0.6720
vn 0.1357 -0.4808 -0.8663
vn -0.4760 -0.2634 -0.8390
vn -0.4812 0.5164 0.7084
vn -0.3176 0.5084 0.8004
vn 0.9501 -0.3120 0.0087
vn -0.1906 0.4909 0.8501
vn 0.7749 0.0586 0.6294
vn 0.9266 -0.3611 -0.1045
vn 0.8483 -0.4346 -0.3026
vn 0.4096 -0.5151 -0.7530
usemtl dhd
s 1
f 1/1/1 2/2/2 3/3/3
f 4/4/4 6/5/5 5/6/6
f 7/7/7 8/8/8 9/9/9
f 10/10/4 12/11/10 11/12/11
f 13/13/12 15/14/13 14/15/7
f 16/16/14 18/17/3 17/18/4
f 19/19/15 20/20/4 21/21/16
f 22/22/17 23/23/18 24/24/7
f 20/20/19 25/25/20 26/26/21
f 27/27/22 29/28/23 28/29/24
f 30/30/25 31/31/26 32/32/27
f 33/33/28 34/34/29 3/3/29
f 20/20/30 35/35/31 36/36/32
f 27/27/22 38/37/33 37/38/33
f 39/39/34 31/31/35 40/40/35
f 33/33/36 41/41/36 42/42/37
f 19/19/38 43/43/39 35/35/31
f 44/44/40 45/45/40 37/38/33
f 9/9/41 46/46/42 39/39/34
f 47/47/43 48/48/44 41/41/43
f 49/49/45 50/50/46 43/43/47
f 51/51/48 52/52/48 45/45/48
f 9/9/41 53/53/49 54/54/50
f 1/1/51 48/48/44 2/2/52
f 55/55/53 50/50/54 21/21/55
f 56/56/56 57/57/57 52/52/57
f 58/58/58 53/53/49 8/8/59
f 1/1/51 59/59/60 60/60/61
f 55/55/62 61/61/63 62/62/64
f 56/56/65 64/63/66 63/64/67
f 58/58/58 65/65/68 66/66/69
f 67/67/70 68/68/71 59/59/60
f 69/69/72 61/61/73 70/70/73
f 71/71/74 72/72/75 63/64/76
f 73/73/77 74/74/78 65/65/68
f 75/75/79 68/68/79 76/76/79
f 69/69/72 77/77/80 78/78/81
f 71/71/74 80/79/82 79/80/83
f 81/81/78 82/82/84 74/74/78
f 83/83/85 85/84/86 84/85/86
f 86/86/87 87/87/88 88/88/89
f 80/79/90 14/15/91 89/89/91
f 90/90/92 91/91/93 82/82/84
f 92/92/94 93/93/94 84/85/86
f 24/24/95 87/87/95 94/94/95
f 95/95/96 96/96/96 89/89/96
f 97/97/97 99/98/98 98/99/99
f 92/92/94 101/100/100 100/101/100
f 24/24/101 102/102/102 103/103/103
f 95/95/104 105/104/104 104/105/104
f 99/98/98 107/106/105 106/107/105
f 4/4/106 108/108/106 100/101/100
f 109/109/107 102/102/102 23/23/102
f 110/110/108 112/111/109 111/112/110
f 113/113/111 114/114/111 106/107/105
f 4/4/112 116/115/112 115/116/112
f 109/109/113 117/117/114 118/118/115
f 18/17/116 119/119/116 112/111/109
f 120/120/117 121/121/117 114/114/111
f 122/122/118 123/123/119 115/116/120
f 86/86/121 117/117/114 22/22/122
f 124/124/123 125/125/124 119/119/116
f 120/120/117 10/10/125 126/126/126
f 5/6/127 127/127/128 123/123/129
f 124/124/130 129/128/131 128/129/132
f 10/10/133 131/130/134 130/131/134
f 5/6/127 6/5/135 132/132/136
f 133/133/137 134/134/138 128/129/139
f 135/135/140 136/136/141 130/131/141
f 6/5/135 138/137/142 137/138/143
f 133/133/144 140/139/144 139/140/144
f 135/135/145 11/12/146 141/141/147
f 138/137/142 143/142/148 142/143/148
f 140/139/149 145/144/150 144/145/151
f 12/11/152 146/146/153 141/141/147
f 143/142/148 148/147/154 147/148/154
f 149/149/155 150/150/156 144/145/151
f 12/11/152 152/151/157 151/152/158
f 153/153/159 154/154/159 147/148/154
f 149/149/155 16/16/160 155/155/161
f 156/156/162 157/157/163 151/152/158
f 158/158/164 159/159/164 154/154/159
f 16/16/160 17/18/165 160/160/165
f 156/156/162 162/161/166 161/162/166
f 83/83/167 163/163/167 159/159/164
f 17/18/165 165/164/168 164/165/169
f 162/161/166 167/166/170 166/167/170
f 168/168/171 91/91/172 169/169/172
f 170/170/173 171/171/173 164/165/169
f 167/166/170 173/172/174 172/173/175
f 7/7/176 174/174/171 168/168/171
f 175/175/177 111/112/177 171/171/173
f 173/172/178 97/97/179 176/176/179
f 7/7/176 177/177/180 178/178/181
f 179/179/182 180/180/183 75/75/183
f 181/181/184 77/77/185 182/182/185
f 105/104/186 15/14/187 183/183/188
f 184/184/189 177/177/180 185/185/190
f 179/179/182 186/186/191 187/187/192
f 26/26/21 188/188/184 181/181/184
f 13/13/193 28/29/24 183/183/188
f 184/184/189 32/32/194 189/189/195
f 3/3/29 186/186/191 190/190/191
f 190/190/196 179/179/4 67/67/197
f 179/179/4 75/75/4 76/76/198
f 67/67/197 179/179/4 76/76/198
f 67/67/197 1/1/1 190/190/196
f 3/3/3 190/190/196 1/1/1
f 47/47/7 33/33/198 2/2/2
f 33/33/198 3/3/3 2/2/2
f 83/83/199 143/142/198 85/84/198
f 85/84/198 138/137/200 92/92/198
f 92/92/198 6/5/5 101/100/4
f 101/100/4 6/5/5 4/4/4
f 4/4/4 5/6/6 116/115/7
f 116/115/7 5/6/6 122/122/7
f 85/84/198 143/142/198 138/137/200
f 138/137/200 6/5/5 92/92/198
f 153/153/198 83/83/199 158/158/201
f 143/142/198 83/83/199 148/147/202
f 148/147/202 83/83/199 153/153/198
f 7/7/7 168/168/3 8/8/8
f 168/168/3 169/169/198 73/73/198
f 58/58/203 168/168/3 73/73/198
f 169/169/198 90/90/202 73/73/198
f 90/90/202 81/81/204 73/73/198
f 185/185/198 7/7/7 9/9/9
f 168/168/3 58/58/203 8/8/8
f 30/30/4 184/184/198 39/39/205
f 184/184/198 185/185/198 9/9/9
f 39/39/205 40/40/206 30/30/4
f 9/9/9 39/39/205 184/184/198
f 99/98/207 162/161/3 107/106/196
f 107/106/196 156/156/208 113/113/7
f 113/113/7 152/151/209 120/120/3
f 120/120/3 12/11/10 10/10/4
f 152/151/209 12/11/10 120/120/3
f 10/10/4 11/12/11 131/130/3
f 131/130/3 11/12/11 135/135/7
f 107/106/196 162/161/3 156/156/208
f 173/172/198 99/98/207 97/97/198
f 162/161/3 99/98/207 167/166/3
f 167/166/3 99/98/207 173/172/198
f 113/113/7 156/156/208 152/151/209
f 13/13/12 80/79/210 27/27/198
f 27/27/198 71/71/211 38/37/198
f 38/37/198 71/71/211 44/44/212
f 44/44/212 64/63/213 51/51/198
f 71/71/211 64/63/213 44/44/212
f 51/51/198 64/63/213 56/56/4
f 27/27/198 80/79/210 71/71/211
f 95/95/4 15/14/13 105/104/196
f 80/79/210 13/13/12 14/15/7
f 14/15/7 15/14/13 95/95/4
f 110/110/214 17/18/4 18/17/3
f 18/17/3 149/149/215 124/124/4
f 124/124/4 149/149/215 129/128/4
f 129/128/4 145/144/216 133/133/204
f 149/149/215 145/144/216 129/128/4
f 133/133/204 145/144/216 140/139/199
f 18/17/3 16/16/14 149/149/215
f 170/170/3 110/110/214 175/175/198
f 17/18/4 110/110/214 165/164/206
f 165/164/206 110/110/214 170/170/3
f 26/26/7 181/181/3 55/55/217
f 181/181/3 182/182/7 69/69/7
f 55/55/217 181/181/3 70/70/198
f 69/69/7 70/70/198 181/181/3
f 20/20/4 26/26/7 21/21/16
f 21/21/16 26/26/7 55/55/217
f 49/49/218 19/19/15 21/21/16
f 24/24/7 94/94/198 22/22/17
f 94/94/198 86/86/3 22/22/17
f 22/22/17 109/109/219 23/23/18
f 20/20/19 36/36/220 25/25/20
f 27/27/22 28/29/24 13/13/193
f 30/30/25 40/40/25 31/31/26
f 33/33/28 42/42/221 34/34/29
f 20/20/30 19/19/38 35/35/31
f 27/27/22 37/38/33 29/28/23
f 39/39/34 46/46/42 31/31/222
f 33/33/36 47/47/223 41/41/36
f 19/19/38 49/49/224 43/43/39
f 44/44/40 37/38/33 38/37/33
f 9/9/41 54/54/50 46/46/42
f 47/47/43 2/2/52 48/48/44
f 49/49/45 21/21/225 50/50/46
f 51/51/48 45/45/48 44/44/48
f 9/9/41 8/8/59 53/53/49
f 1/1/51 60/60/61 48/48/44
f 55/55/62 62/62/64 50/50/226
f 56/56/56 52/52/57 51/51/57
f 58/58/58 66/66/69 53/53/49
f 1/1/51 67/67/70 59/59/60
f 55/55/62 70/70/227 61/61/63
f 56/56/65 63/64/65 57/57/65
f 58/58/58 73/73/77 65/65/68
f 67/67/70 76/76/228 68/68/71
f 69/69/72 78/78/81 61/61/229
f 71/71/74 63/64/76 64/63/230
f 73/73/77 81/81/78 74/74/78
f 75/75/231 180/180/231 68/68/231
f 69/69/72 182/182/80 77/77/80
f 71/71/74 79/80/83 72/72/75
f 81/81/78 90/90/92 82/82/84
f 83/83/85 84/85/86 163/163/85
f 86/86/87 94/94/87 87/87/88
f 80/79/82 89/89/232 79/80/83
f 90/90/92 169/169/93 91/91/93
f 92/92/94 84/85/86 85/84/86
f 24/24/233 103/103/233 87/87/233
f 95/95/96 89/89/96 14/15/96
f 97/97/97 98/99/99 176/176/234
f 92/92/94 100/101/100 93/93/94
f 24/24/101 23/23/102 102/102/102
f 95/95/104 104/105/104 96/96/104
f 99/98/98 106/107/105 98/99/99
f 4/4/106 100/101/100 101/100/100
f 109/109/107 118/118/107 102/102/102
f 110/110/108 111/112/110 175/175/110
f 113/113/111 106/107/105 107/106/105
f 4/4/235 115/116/235 108/108/235
f 109/109/113 22/22/122 117/117/114
f 18/17/116 112/111/109 110/110/108
f 120/120/117 114/114/111 113/113/111
f 122/122/118 115/116/120 116/115/236
f 86/86/121 88/88/121 117/117/114
f 124/124/123 119/119/116 18/17/116
f 120/120/117 126/126/126 121/121/117
f 5/6/127 123/123/129 122/122/237
f 124/124/123 128/129/238 125/125/124
f 10/10/125 130/131/239 126/126/126
f 5/6/127 132/132/136 127/127/128
f 133/133/137 128/129/139 129/128/240
f 135/135/140 130/131/141 131/130/140
f 6/5/135 137/138/143 132/132/136
f 133/133/241 139/140/241 134/134/241
f 135/135/145 141/141/147 136/136/242
f 138/137/142 142/143/148 137/138/143
f 140/139/149 144/145/151 139/140/243
f 12/11/152 141/141/147 11/12/146
f 143/142/148 147/148/154 142/143/148
f 149/149/155 144/145/151 145/144/150
f 12/11/152 151/152/158 146/146/153
f 153/153/159 147/148/154 148/147/154
f 149/149/155 155/155/161 150/150/156
f 156/156/162 151/152/158 152/151/157
f 158/158/164 154/154/159 153/153/159
f 16/16/160 160/160/165 155/155/161
f 156/156/162 161/162/166 157/157/163
f 83/83/167 159/159/164 158/158/164
f 17/18/165 164/165/169 160/160/165
f 162/161/166 166/167/170 161/162/166
f 168/168/171 174/174/171 91/91/244
f 170/170/173 164/165/169 165/164/168
f 167/166/170 172/173/175 166/167/170
f 7/7/176 178/178/181 174/174/171
f 175/175/177 171/171/173 170/170/173
f 173/172/174 176/176/245 172/173/175
f 7/7/176 185/185/190 177/177/180
f 179/179/182 187/187/192 180/180/246
f 181/181/184 188/188/184 77/77/247
f 105/104/186 183/183/188 104/105/248
f 184/184/189 189/189/195 177/177/180
f 179/179/182 190/190/191 186/186/191
f 26/26/21 25/25/20 188/188/184
f 13/13/193 183/183/188 15/14/187
f 184/184/189 30/30/249 32/32/194
f 3/3/29 34/34/29 186/186/191
