# Blender v3.1.2 OBJ File: ''
# www.blender.org
mtllib tolan_chevron.mtl
o chevron_Plane.001
v 0.172341 5.061714 -0.249728
v 0.172341 4.222617 -0.249728
v -0.170964 4.222617 -0.249728
v -0.170964 5.061714 -0.249728
v -0.099387 4.290837 0.255238
v 0.100764 4.290837 0.255238
v 0.100764 4.290837 0.218443
v -0.099387 4.290837 0.218443
v -0.170964 5.061714 0.255238
v 0.172341 5.061714 0.255238
v 0.172341 4.222617 0.255238
v -0.170964 4.222617 0.255238
v 0.100764 4.711326 0.255238
v -0.099387 4.711326 0.255238
v 0.100764 4.711326 0.218443
v -0.099387 4.711326 0.218443
vt 0.445004 0.984093
vt 0.421786 0.927343
vt 0.445004 0.927343
vt 0.709319 0.443083
vt 0.722856 0.440595
vt 0.722856 0.443083
vt 0.281115 0.966910
vt 0.246963 0.943692
vt 0.281115 0.943692
vt 0.244387 0.966910
vt 0.210235 0.943692
vt 0.244387 0.943692
vt 0.230592 0.921055
vt 0.196440 0.864305
vt 0.230592 0.864305
vt 0.112915 0.745652
vt 0.147067 0.802402
vt 0.112915 0.802402
vt 0.414369 0.911996
vt 0.419210 0.878943
vt 0.419210 0.935694
vt 0.400832 0.911996
vt 0.395991 0.878943
vt 0.400832 0.883557
vt 0.414369 0.883557
vt 0.395991 0.935694
vt 0.493135 0.772809
vt 0.495623 0.801248
vt 0.493134 0.801248
vt 0.127346 0.735479
vt 0.113809 0.737967
vt 0.113809 0.735479
vt 0.813531 0.738169
vt 0.811042 0.709731
vt 0.813531 0.709731
vt 0.421786 0.984093
vt 0.709319 0.440595
vt 0.246963 0.966910
vt 0.210235 0.966910
vt 0.196440 0.921055
vt 0.147067 0.745652
vt 0.495623 0.772809
vt 0.127346 0.737967
vt 0.811042 0.738169
vn 0.0000 0.0000 -1.0000
vn 0.0000 1.0000 0.0000
vn 0.0000 -1.0000 0.0000
vn -1.0000 -0.0000 0.0000
vn 1.0000 -0.0000 0.0000
vn -0.0000 -0.0000 1.0000
usemtl tolan_gate.001
s 1
f 2/1/1 4/2/1 1/3/1
f 6/4/2 8/5/2 5/6/2
f 4/7/2 10/8/2 1/9/2
f 2/10/3 12/11/3 3/12/3
f 3/13/4 9/14/4 4/15/4
f 1/16/5 11/17/5 2/18/5
f 13/19/6 11/20/6 10/21/6
f 14/22/6 12/23/6 5/24/6
f 5/24/6 11/20/6 6/25/6
f 13/19/6 9/26/6 14/22/6
f 13/27/4 7/28/4 6/29/4
f 14/30/3 15/31/3 13/32/3
f 5/33/5 16/34/5 14/35/5
f 2/1/1 3/36/1 4/2/1
f 6/4/2 7/37/2 8/5/2
f 4/7/2 9/38/2 10/8/2
f 2/10/3 11/39/3 12/11/3
f 3/13/4 12/40/4 9/14/4
f 1/16/5 10/41/5 11/17/5
f 13/19/6 6/25/6 11/20/6
f 14/22/6 9/26/6 12/23/6
f 5/24/6 12/23/6 11/20/6
f 13/19/6 10/21/6 9/26/6
f 13/27/4 15/42/4 7/28/4
f 14/30/3 16/43/3 15/31/3
f 5/33/5 8/44/5 16/34/5
